M48
;DRILL file {KiCad (5.0.1-3-g963ef8bb5)} date Friday, May 17, 2019 at 11:16:25 PM
;FORMAT={-:-/ absolute / inch / decimal}
FMAT,2
INCH,TZ
T1C0.0118
T2C0.0394
%
G90
G05
M72
T1
X5.01Y-4.51
X5.035Y-4.575
X5.06Y-3.49
X5.095Y-3.75
X5.125Y-3.61
X5.125Y-3.885
X5.155Y-4.105
X5.205Y-4.05
X5.22Y-4.795
X5.3Y-4.155
X5.305Y-4.025
X5.355Y-4.2
X5.55Y-3.89
X5.575Y-3.75
X5.585Y-4.51
X5.61Y-4.575
X5.615Y-3.4
X5.625Y-3.485
X5.65Y-3.19
X5.65Y-3.305
X5.71Y-3.25
X5.74Y-4.155
X5.765Y-4.25
X5.795Y-4.3
X5.825Y-4.35
X5.86Y-4.4
X5.9Y-4.45
X5.21Y-3.06
X5.21Y-3.06
X5.84Y-3.06
X5.365Y-3.06
X5.275Y-4.85
X5.685Y-3.06
X5.82Y-4.855
X5.365Y-3.06
X5.515Y-3.06
T2
X4.8Y-3.
X4.8Y-3.1
X4.8Y-3.2
X4.8Y-3.3
X4.8Y-3.4
X4.8Y-3.5
X4.8Y-3.6
X4.8Y-3.7
X4.8Y-3.8
X4.8Y-3.9
X4.8Y-4.
X4.8Y-4.1
X4.8Y-4.2
X4.8Y-4.3
X4.8Y-4.4
X4.8Y-4.5
X4.8Y-4.6
X4.8Y-4.7
X4.8Y-4.8
X4.8Y-4.9
X4.9102Y-3.05
X4.9102Y-3.15
X4.9102Y-3.25
X4.9102Y-3.35
X4.9102Y-3.45
X4.9102Y-3.55
X4.9102Y-3.65
X4.9102Y-3.75
X4.9102Y-3.85
X4.9102Y-3.95
X4.9102Y-4.05
X4.9102Y-4.15
X4.9102Y-4.25
X4.9102Y-4.35
X4.9102Y-4.45
X4.9102Y-4.55
X4.9102Y-4.65
X4.9102Y-4.75
X4.9102Y-4.85
X4.9102Y-4.95
X6.1549Y-3.
X6.1549Y-3.1
X6.1549Y-3.2
X6.1549Y-3.3
X6.1549Y-3.4
X6.1549Y-3.5
X6.1549Y-3.6
X6.1549Y-3.7
X6.1549Y-3.8
X6.1549Y-3.9
X6.1549Y-4.
X6.1549Y-4.1
X6.1549Y-4.2
X6.1549Y-4.3
X6.1549Y-4.4
X6.1549Y-4.5
X6.1549Y-4.6
X6.1549Y-4.7
X6.1549Y-4.8
X6.1549Y-4.9
X6.2651Y-3.05
X6.2651Y-3.15
X6.2651Y-3.25
X6.2651Y-3.35
X6.2651Y-3.45
X6.2651Y-3.55
X6.2651Y-3.65
X6.2651Y-3.75
X6.2651Y-3.85
X6.2651Y-3.95
X6.2651Y-4.05
X6.2651Y-4.15
X6.2651Y-4.25
X6.2651Y-4.35
X6.2651Y-4.45
X6.2651Y-4.55
X6.2651Y-4.65
X6.2651Y-4.75
X6.2651Y-4.85
X6.2651Y-4.95
T0
M30
