G04 #@! TF.GenerationSoftware,KiCad,Pcbnew,(5.0.1-3-g963ef8bb5)*
G04 #@! TF.CreationDate,2019-05-17T23:10:43-07:00*
G04 #@! TF.ProjectId,oakram,6F616B72616D2E6B696361645F706362,rev?*
G04 #@! TF.SameCoordinates,Original*
G04 #@! TF.FileFunction,Legend,Top*
G04 #@! TF.FilePolarity,Positive*
%FSLAX46Y46*%
G04 Gerber Fmt 4.6, Leading zero omitted, Abs format (unit mm)*
G04 Created by KiCad (PCBNEW (5.0.1-3-g963ef8bb5)) date Friday, May 17, 2019 at 11:10:43 PM*
%MOMM*%
%LPD*%
G01*
G04 APERTURE LIST*
%ADD10C,0.150000*%
%ADD11C,0.100000*%
%ADD12C,0.120000*%
G04 APERTURE END LIST*
D10*
G04 #@! TO.C,U2*
X137160000Y-87884000D02*
X137160000Y-115316000D01*
X129540000Y-115316000D02*
X129540000Y-87884000D01*
X129540000Y-87884000D02*
X137160000Y-87884000D01*
X129540000Y-115316000D02*
X137160000Y-115316000D01*
X132588000Y-89408000D02*
G75*
G03X132588000Y-89408000I-1270000J0D01*
G01*
G04 #@! TO.C,U1*
X147193000Y-89408000D02*
G75*
G03X147193000Y-89408000I-1270000J0D01*
G01*
X144145000Y-115316000D02*
X151765000Y-115316000D01*
X144145000Y-87884000D02*
X151765000Y-87884000D01*
X144145000Y-115316000D02*
X144145000Y-87884000D01*
X151765000Y-87884000D02*
X151765000Y-115316000D01*
D11*
G04 #@! TO.C,X1*
X120520000Y-74930000D02*
X126120000Y-74930000D01*
X126120000Y-74930000D02*
X126120000Y-127000000D01*
X126120000Y-127000000D02*
X120520000Y-127000000D01*
X120520000Y-127000000D02*
X120520000Y-74930000D01*
G04 #@! TO.C,X2*
X154934000Y-127000000D02*
X154934000Y-74930000D01*
X160534000Y-127000000D02*
X154934000Y-127000000D01*
X160534000Y-74930000D02*
X160534000Y-127000000D01*
X154934000Y-74930000D02*
X160534000Y-74930000D01*
D12*
G04 #@! TO.C,C1*
X129040000Y-117055000D02*
X130040000Y-117055000D01*
X130040000Y-115355000D02*
X129040000Y-115355000D01*
G04 #@! TO.C,C3*
X143645000Y-117055000D02*
X144645000Y-117055000D01*
X144645000Y-115355000D02*
X143645000Y-115355000D01*
G04 #@! TO.C,C6*
X140470000Y-87210000D02*
X141470000Y-87210000D01*
X141470000Y-85510000D02*
X140470000Y-85510000D01*
G04 #@! TO.C,C7*
X145070000Y-84400000D02*
X145070000Y-80700000D01*
X145070000Y-80700000D02*
X137970000Y-80700000D01*
X145070000Y-84400000D02*
X137970000Y-84400000D01*
G04 #@! TO.C,U2*
D10*
X132802380Y-102361904D02*
X133611904Y-102361904D01*
X133707142Y-102314285D01*
X133754761Y-102266666D01*
X133802380Y-102171428D01*
X133802380Y-101980952D01*
X133754761Y-101885714D01*
X133707142Y-101838095D01*
X133611904Y-101790476D01*
X132802380Y-101790476D01*
X132897619Y-101361904D02*
X132850000Y-101314285D01*
X132802380Y-101219047D01*
X132802380Y-100980952D01*
X132850000Y-100885714D01*
X132897619Y-100838095D01*
X132992857Y-100790476D01*
X133088095Y-100790476D01*
X133230952Y-100838095D01*
X133802380Y-101409523D01*
X133802380Y-100790476D01*
G04 #@! TO.C,U1*
X147407380Y-102361904D02*
X148216904Y-102361904D01*
X148312142Y-102314285D01*
X148359761Y-102266666D01*
X148407380Y-102171428D01*
X148407380Y-101980952D01*
X148359761Y-101885714D01*
X148312142Y-101838095D01*
X148216904Y-101790476D01*
X147407380Y-101790476D01*
X148407380Y-100790476D02*
X148407380Y-101361904D01*
X148407380Y-101076190D02*
X147407380Y-101076190D01*
X147550238Y-101171428D01*
X147645476Y-101266666D01*
X147693095Y-101361904D01*
G04 #@! TO.C,X1*
X122510476Y-73112380D02*
X123177142Y-74112380D01*
X123177142Y-73112380D02*
X122510476Y-74112380D01*
X124081904Y-74112380D02*
X123510476Y-74112380D01*
X123796190Y-74112380D02*
X123796190Y-73112380D01*
X123700952Y-73255238D01*
X123605714Y-73350476D01*
X123510476Y-73398095D01*
G04 #@! TO.C,X2*
X156924476Y-73112380D02*
X157591142Y-74112380D01*
X157591142Y-73112380D02*
X156924476Y-74112380D01*
X157924476Y-73207619D02*
X157972095Y-73160000D01*
X158067333Y-73112380D01*
X158305428Y-73112380D01*
X158400666Y-73160000D01*
X158448285Y-73207619D01*
X158495904Y-73302857D01*
X158495904Y-73398095D01*
X158448285Y-73540952D01*
X157876857Y-74112380D01*
X158495904Y-74112380D01*
G04 #@! TO.C,C1*
X129373333Y-115062142D02*
X129325714Y-115109761D01*
X129182857Y-115157380D01*
X129087619Y-115157380D01*
X128944761Y-115109761D01*
X128849523Y-115014523D01*
X128801904Y-114919285D01*
X128754285Y-114728809D01*
X128754285Y-114585952D01*
X128801904Y-114395476D01*
X128849523Y-114300238D01*
X128944761Y-114205000D01*
X129087619Y-114157380D01*
X129182857Y-114157380D01*
X129325714Y-114205000D01*
X129373333Y-114252619D01*
X130325714Y-115157380D02*
X129754285Y-115157380D01*
X130040000Y-115157380D02*
X130040000Y-114157380D01*
X129944761Y-114300238D01*
X129849523Y-114395476D01*
X129754285Y-114443095D01*
G04 #@! TO.C,C3*
X143978333Y-115062142D02*
X143930714Y-115109761D01*
X143787857Y-115157380D01*
X143692619Y-115157380D01*
X143549761Y-115109761D01*
X143454523Y-115014523D01*
X143406904Y-114919285D01*
X143359285Y-114728809D01*
X143359285Y-114585952D01*
X143406904Y-114395476D01*
X143454523Y-114300238D01*
X143549761Y-114205000D01*
X143692619Y-114157380D01*
X143787857Y-114157380D01*
X143930714Y-114205000D01*
X143978333Y-114252619D01*
X144311666Y-114157380D02*
X144930714Y-114157380D01*
X144597380Y-114538333D01*
X144740238Y-114538333D01*
X144835476Y-114585952D01*
X144883095Y-114633571D01*
X144930714Y-114728809D01*
X144930714Y-114966904D01*
X144883095Y-115062142D01*
X144835476Y-115109761D01*
X144740238Y-115157380D01*
X144454523Y-115157380D01*
X144359285Y-115109761D01*
X144311666Y-115062142D01*
G04 #@! TO.C,C6*
X140803333Y-88217142D02*
X140755714Y-88264761D01*
X140612857Y-88312380D01*
X140517619Y-88312380D01*
X140374761Y-88264761D01*
X140279523Y-88169523D01*
X140231904Y-88074285D01*
X140184285Y-87883809D01*
X140184285Y-87740952D01*
X140231904Y-87550476D01*
X140279523Y-87455238D01*
X140374761Y-87360000D01*
X140517619Y-87312380D01*
X140612857Y-87312380D01*
X140755714Y-87360000D01*
X140803333Y-87407619D01*
X141660476Y-87312380D02*
X141470000Y-87312380D01*
X141374761Y-87360000D01*
X141327142Y-87407619D01*
X141231904Y-87550476D01*
X141184285Y-87740952D01*
X141184285Y-88121904D01*
X141231904Y-88217142D01*
X141279523Y-88264761D01*
X141374761Y-88312380D01*
X141565238Y-88312380D01*
X141660476Y-88264761D01*
X141708095Y-88217142D01*
X141755714Y-88121904D01*
X141755714Y-87883809D01*
X141708095Y-87788571D01*
X141660476Y-87740952D01*
X141565238Y-87693333D01*
X141374761Y-87693333D01*
X141279523Y-87740952D01*
X141231904Y-87788571D01*
X141184285Y-87883809D01*
G04 #@! TO.C,C7*
X140803333Y-86257142D02*
X140755714Y-86304761D01*
X140612857Y-86352380D01*
X140517619Y-86352380D01*
X140374761Y-86304761D01*
X140279523Y-86209523D01*
X140231904Y-86114285D01*
X140184285Y-85923809D01*
X140184285Y-85780952D01*
X140231904Y-85590476D01*
X140279523Y-85495238D01*
X140374761Y-85400000D01*
X140517619Y-85352380D01*
X140612857Y-85352380D01*
X140755714Y-85400000D01*
X140803333Y-85447619D01*
X141136666Y-85352380D02*
X141803333Y-85352380D01*
X141374761Y-86352380D01*
G04 #@! TD*
M02*
