G04 #@! TF.GenerationSoftware,KiCad,Pcbnew,(5.0.1-3-g963ef8bb5)*
G04 #@! TF.CreationDate,2019-05-17T23:20:08-07:00*
G04 #@! TF.ProjectId,oakram,6F616B72616D2E6B696361645F706362,rev?*
G04 #@! TF.SameCoordinates,Original*
G04 #@! TF.FileFunction,Copper,L1,Top,Signal*
G04 #@! TF.FilePolarity,Positive*
%FSLAX46Y46*%
G04 Gerber Fmt 4.6, Leading zero omitted, Abs format (unit mm)*
G04 Created by KiCad (PCBNEW (5.0.1-3-g963ef8bb5)) date Friday, May 17, 2019 at 11:20:08 PM*
%MOMM*%
%LPD*%
G01*
G04 APERTURE LIST*
G04 #@! TA.AperFunction,NonConductor*
%ADD10C,0.300000*%
G04 #@! TD*
G04 #@! TA.AperFunction,ViaPad*
%ADD11C,0.600000*%
G04 #@! TD*
G04 #@! TA.AperFunction,SMDPad,CuDef*
%ADD12R,2.032000X0.508000*%
G04 #@! TD*
G04 #@! TA.AperFunction,ComponentPad*
%ADD13C,1.700000*%
G04 #@! TD*
G04 #@! TA.AperFunction,SMDPad,CuDef*
%ADD14R,1.000000X1.250000*%
G04 #@! TD*
G04 #@! TA.AperFunction,SMDPad,CuDef*
%ADD15R,2.550000X2.500000*%
G04 #@! TD*
G04 #@! TA.AperFunction,ViaPad*
%ADD16C,0.700000*%
G04 #@! TD*
G04 #@! TA.AperFunction,Conductor*
%ADD17C,0.200000*%
G04 #@! TD*
G04 #@! TA.AperFunction,Conductor*
%ADD18C,0.127000*%
G04 #@! TD*
G04 APERTURE END LIST*
D10*
X145347000Y-124913428D02*
X144775571Y-124913428D01*
X145132714Y-125413428D02*
X145132714Y-124127714D01*
X145061285Y-123984857D01*
X144918428Y-123913428D01*
X144775571Y-123913428D01*
X144275571Y-124913428D02*
X144275571Y-123913428D01*
X144275571Y-124770571D02*
X144204142Y-124842000D01*
X144061285Y-124913428D01*
X143847000Y-124913428D01*
X143704142Y-124842000D01*
X143632714Y-124699142D01*
X143632714Y-123913428D01*
X143132714Y-124913428D02*
X142561285Y-124913428D01*
X142918428Y-125413428D02*
X142918428Y-124127714D01*
X142847000Y-123984857D01*
X142704142Y-123913428D01*
X142561285Y-123913428D01*
X142132714Y-125270571D02*
X142061285Y-125342000D01*
X141918428Y-125413428D01*
X141561285Y-125413428D01*
X141418428Y-125342000D01*
X141347000Y-125270571D01*
X141275571Y-125127714D01*
X141275571Y-124984857D01*
X141347000Y-124770571D01*
X142204142Y-123913428D01*
X141275571Y-123913428D01*
X140347000Y-125413428D02*
X140204142Y-125413428D01*
X140061285Y-125342000D01*
X139989857Y-125270571D01*
X139918428Y-125127714D01*
X139847000Y-124842000D01*
X139847000Y-124484857D01*
X139918428Y-124199142D01*
X139989857Y-124056285D01*
X140061285Y-123984857D01*
X140204142Y-123913428D01*
X140347000Y-123913428D01*
X140489857Y-123984857D01*
X140561285Y-124056285D01*
X140632714Y-124199142D01*
X140704142Y-124484857D01*
X140704142Y-124842000D01*
X140632714Y-125127714D01*
X140561285Y-125270571D01*
X140489857Y-125342000D01*
X140347000Y-125413428D01*
X138418428Y-123913428D02*
X139275571Y-123913428D01*
X138847000Y-123913428D02*
X138847000Y-125413428D01*
X138989857Y-125199142D01*
X139132714Y-125056285D01*
X139275571Y-124984857D01*
X137918428Y-125413428D02*
X136918428Y-125413428D01*
X137561285Y-123913428D01*
X143989857Y-121363428D02*
X143989857Y-122863428D01*
X143989857Y-121434857D02*
X144132714Y-121363428D01*
X144418428Y-121363428D01*
X144561285Y-121434857D01*
X144632714Y-121506285D01*
X144704142Y-121649142D01*
X144704142Y-122077714D01*
X144632714Y-122220571D01*
X144561285Y-122292000D01*
X144418428Y-122363428D01*
X144132714Y-122363428D01*
X143989857Y-122292000D01*
X143275571Y-122363428D02*
X143275571Y-121077714D01*
X143347000Y-120934857D01*
X143489857Y-120863428D01*
X143561285Y-120863428D01*
X143275571Y-122863428D02*
X143347000Y-122792000D01*
X143275571Y-122720571D01*
X143204142Y-122792000D01*
X143275571Y-122863428D01*
X143275571Y-122720571D01*
X142632714Y-122720571D02*
X142561285Y-122792000D01*
X142418428Y-122863428D01*
X142061285Y-122863428D01*
X141918428Y-122792000D01*
X141847000Y-122720571D01*
X141775571Y-122577714D01*
X141775571Y-122434857D01*
X141847000Y-122220571D01*
X142704142Y-121363428D01*
X141775571Y-121363428D01*
X140847000Y-122863428D02*
X140704142Y-122863428D01*
X140561285Y-122792000D01*
X140489857Y-122720571D01*
X140418428Y-122577714D01*
X140347000Y-122292000D01*
X140347000Y-121934857D01*
X140418428Y-121649142D01*
X140489857Y-121506285D01*
X140561285Y-121434857D01*
X140704142Y-121363428D01*
X140847000Y-121363428D01*
X140989857Y-121434857D01*
X141061285Y-121506285D01*
X141132714Y-121649142D01*
X141204142Y-121934857D01*
X141204142Y-122292000D01*
X141132714Y-122577714D01*
X141061285Y-122720571D01*
X140989857Y-122792000D01*
X140847000Y-122863428D01*
X138918428Y-121363428D02*
X139775571Y-121363428D01*
X139347000Y-121363428D02*
X139347000Y-122863428D01*
X139489857Y-122649142D01*
X139632714Y-122506285D01*
X139775571Y-122434857D01*
X138061285Y-122220571D02*
X138204142Y-122292000D01*
X138275571Y-122363428D01*
X138347000Y-122506285D01*
X138347000Y-122577714D01*
X138275571Y-122720571D01*
X138204142Y-122792000D01*
X138061285Y-122863428D01*
X137775571Y-122863428D01*
X137632714Y-122792000D01*
X137561285Y-122720571D01*
X137489857Y-122577714D01*
X137489857Y-122506285D01*
X137561285Y-122363428D01*
X137632714Y-122292000D01*
X137775571Y-122220571D01*
X138061285Y-122220571D01*
X138204142Y-122149142D01*
X138275571Y-122077714D01*
X138347000Y-121934857D01*
X138347000Y-121649142D01*
X138275571Y-121506285D01*
X138204142Y-121434857D01*
X138061285Y-121363428D01*
X137775571Y-121363428D01*
X137632714Y-121434857D01*
X137561285Y-121506285D01*
X137489857Y-121649142D01*
X137489857Y-121934857D01*
X137561285Y-122077714D01*
X137632714Y-122149142D01*
X137775571Y-122220571D01*
D11*
G04 #@! TO.N,VSS*
G04 #@! TO.C,*
X148336000Y-77724000D03*
G04 #@! TD*
G04 #@! TO.N,VSS*
G04 #@! TO.C,*
X140081000Y-77724000D03*
G04 #@! TD*
G04 #@! TO.N,VSS*
G04 #@! TO.C,*
X144399000Y-77724000D03*
G04 #@! TD*
G04 #@! TO.N,VSS*
G04 #@! TO.C,*
X132334000Y-77724000D03*
G04 #@! TD*
G04 #@! TO.N,VSS*
G04 #@! TO.C,*
X136271000Y-77724000D03*
G04 #@! TD*
G04 #@! TO.N,VSS*
G04 #@! TO.C,*
X136271000Y-77724000D03*
G04 #@! TD*
G04 #@! TO.N,VSS*
G04 #@! TO.C,*
X147828000Y-123317000D03*
G04 #@! TD*
G04 #@! TO.N,VSS*
G04 #@! TO.C,*
X132334000Y-77724000D03*
G04 #@! TD*
G04 #@! TO.N,VSS*
G04 #@! TO.C,*
X133985000Y-123190000D03*
G04 #@! TD*
D12*
G04 #@! TO.P,U2,21*
G04 #@! TO.N,VCC*
X128270000Y-114300000D03*
G04 #@! TO.P,U2,20*
G04 #@! TO.N,/A3*
X128270000Y-113030000D03*
G04 #@! TO.P,U2,19*
G04 #@! TO.N,/A2*
X128270000Y-111760000D03*
G04 #@! TO.P,U2,18*
G04 #@! TO.N,/A1*
X128270000Y-110490000D03*
G04 #@! TO.P,U2,17*
G04 #@! TO.N,/A0*
X128270000Y-109220000D03*
G04 #@! TO.P,U2,16*
G04 #@! TO.N,Net-(U2-Pad16)*
X128270000Y-107950000D03*
G04 #@! TO.P,U2,15*
G04 #@! TO.N,Net-(U2-Pad15)*
X128270000Y-106680000D03*
G04 #@! TO.P,U2,14*
G04 #@! TO.N,/~RAS*
X128270000Y-105410000D03*
G04 #@! TO.P,U2,13*
G04 #@! TO.N,/~WE*
X128270000Y-104140000D03*
G04 #@! TO.P,U2,12*
G04 #@! TO.N,N/C*
X128270000Y-102870000D03*
G04 #@! TO.P,U2,22*
G04 #@! TO.N,VSS*
X138430000Y-114300000D03*
G04 #@! TO.P,U2,23*
G04 #@! TO.N,/A4*
X138430000Y-113030000D03*
G04 #@! TO.P,U2,24*
G04 #@! TO.N,/A5*
X138430000Y-111760000D03*
G04 #@! TO.P,U2,25*
G04 #@! TO.N,/A6*
X138430000Y-110490000D03*
G04 #@! TO.P,U2,26*
G04 #@! TO.N,/A7*
X138430000Y-109220000D03*
G04 #@! TO.P,U2,27*
G04 #@! TO.N,/A8*
X138430000Y-107950000D03*
G04 #@! TO.P,U2,28*
G04 #@! TO.N,/A9*
X138430000Y-106680000D03*
G04 #@! TO.P,U2,29*
G04 #@! TO.N,/~OE*
X138430000Y-105410000D03*
G04 #@! TO.P,U2,30*
G04 #@! TO.N,/~CAS1*
X138430000Y-104140000D03*
G04 #@! TO.P,U2,31*
G04 #@! TO.N,/~CAS0*
X138430000Y-102870000D03*
G04 #@! TO.P,U2,1*
G04 #@! TO.N,VCC*
X128270000Y-88900000D03*
G04 #@! TO.P,U2,2*
G04 #@! TO.N,/D0*
X128270000Y-90170000D03*
G04 #@! TO.P,U2,3*
G04 #@! TO.N,/D1*
X128270000Y-91440000D03*
G04 #@! TO.P,U2,4*
G04 #@! TO.N,/D2*
X128270000Y-92710000D03*
G04 #@! TO.P,U2,5*
G04 #@! TO.N,/D3*
X128270000Y-93980000D03*
G04 #@! TO.P,U2,6*
G04 #@! TO.N,VCC*
X128270000Y-95250000D03*
G04 #@! TO.P,U2,7*
G04 #@! TO.N,/D4*
X128270000Y-96520000D03*
G04 #@! TO.P,U2,8*
G04 #@! TO.N,/D5*
X128270000Y-97790000D03*
G04 #@! TO.P,U2,9*
G04 #@! TO.N,/D6*
X128270000Y-99060000D03*
G04 #@! TO.P,U2,10*
G04 #@! TO.N,/D7*
X128270000Y-100330000D03*
G04 #@! TO.P,U2,42*
G04 #@! TO.N,VSS*
X138430000Y-88900000D03*
G04 #@! TO.P,U2,41*
G04 #@! TO.N,/D8*
X138430000Y-90170000D03*
G04 #@! TO.P,U2,40*
G04 #@! TO.N,/D9*
X138430000Y-91440000D03*
G04 #@! TO.P,U2,39*
G04 #@! TO.N,/D10*
X138430000Y-92710000D03*
G04 #@! TO.P,U2,38*
G04 #@! TO.N,/D11*
X138430000Y-93980000D03*
G04 #@! TO.P,U2,37*
G04 #@! TO.N,VSS*
X138430000Y-95250000D03*
G04 #@! TO.P,U2,36*
G04 #@! TO.N,/D12*
X138430000Y-96520000D03*
G04 #@! TO.P,U2,35*
G04 #@! TO.N,/D13*
X138430000Y-97790000D03*
G04 #@! TO.P,U2,34*
G04 #@! TO.N,/D14*
X138430000Y-99060000D03*
G04 #@! TO.P,U2,33*
G04 #@! TO.N,/D15*
X138430000Y-100330000D03*
G04 #@! TO.P,U2,11*
G04 #@! TO.N,N/C*
X128270000Y-101600000D03*
G04 #@! TO.P,U2,32*
X138430000Y-101600000D03*
G04 #@! TD*
G04 #@! TO.P,U1,32*
G04 #@! TO.N,N/C*
X153035000Y-101600000D03*
G04 #@! TO.P,U1,11*
X142875000Y-101600000D03*
G04 #@! TO.P,U1,33*
G04 #@! TO.N,/D23*
X153035000Y-100330000D03*
G04 #@! TO.P,U1,34*
G04 #@! TO.N,/D22*
X153035000Y-99060000D03*
G04 #@! TO.P,U1,35*
G04 #@! TO.N,/D21*
X153035000Y-97790000D03*
G04 #@! TO.P,U1,36*
G04 #@! TO.N,/D20*
X153035000Y-96520000D03*
G04 #@! TO.P,U1,37*
G04 #@! TO.N,VSS*
X153035000Y-95250000D03*
G04 #@! TO.P,U1,38*
G04 #@! TO.N,/D19*
X153035000Y-93980000D03*
G04 #@! TO.P,U1,39*
G04 #@! TO.N,/D18*
X153035000Y-92710000D03*
G04 #@! TO.P,U1,40*
G04 #@! TO.N,/D17*
X153035000Y-91440000D03*
G04 #@! TO.P,U1,41*
G04 #@! TO.N,/D16*
X153035000Y-90170000D03*
G04 #@! TO.P,U1,42*
G04 #@! TO.N,VSS*
X153035000Y-88900000D03*
G04 #@! TO.P,U1,10*
G04 #@! TO.N,/D31*
X142875000Y-100330000D03*
G04 #@! TO.P,U1,9*
G04 #@! TO.N,/D30*
X142875000Y-99060000D03*
G04 #@! TO.P,U1,8*
G04 #@! TO.N,/D29*
X142875000Y-97790000D03*
G04 #@! TO.P,U1,7*
G04 #@! TO.N,/D28*
X142875000Y-96520000D03*
G04 #@! TO.P,U1,6*
G04 #@! TO.N,VCC*
X142875000Y-95250000D03*
G04 #@! TO.P,U1,5*
G04 #@! TO.N,/D27*
X142875000Y-93980000D03*
G04 #@! TO.P,U1,4*
G04 #@! TO.N,/D26*
X142875000Y-92710000D03*
G04 #@! TO.P,U1,3*
G04 #@! TO.N,/D25*
X142875000Y-91440000D03*
G04 #@! TO.P,U1,2*
G04 #@! TO.N,/D24*
X142875000Y-90170000D03*
G04 #@! TO.P,U1,1*
G04 #@! TO.N,VCC*
X142875000Y-88900000D03*
G04 #@! TO.P,U1,31*
G04 #@! TO.N,/~CAS3*
X153035000Y-102870000D03*
G04 #@! TO.P,U1,30*
G04 #@! TO.N,/~CAS2*
X153035000Y-104140000D03*
G04 #@! TO.P,U1,29*
G04 #@! TO.N,/~OE*
X153035000Y-105410000D03*
G04 #@! TO.P,U1,28*
G04 #@! TO.N,/A9*
X153035000Y-106680000D03*
G04 #@! TO.P,U1,27*
G04 #@! TO.N,/A8*
X153035000Y-107950000D03*
G04 #@! TO.P,U1,26*
G04 #@! TO.N,/A7*
X153035000Y-109220000D03*
G04 #@! TO.P,U1,25*
G04 #@! TO.N,/A6*
X153035000Y-110490000D03*
G04 #@! TO.P,U1,24*
G04 #@! TO.N,/A5*
X153035000Y-111760000D03*
G04 #@! TO.P,U1,23*
G04 #@! TO.N,/A4*
X153035000Y-113030000D03*
G04 #@! TO.P,U1,22*
G04 #@! TO.N,VSS*
X153035000Y-114300000D03*
G04 #@! TO.P,U1,12*
G04 #@! TO.N,N/C*
X142875000Y-102870000D03*
G04 #@! TO.P,U1,13*
G04 #@! TO.N,/~WE*
X142875000Y-104140000D03*
G04 #@! TO.P,U1,14*
G04 #@! TO.N,/~RAS*
X142875000Y-105410000D03*
G04 #@! TO.P,U1,15*
G04 #@! TO.N,Net-(U1-Pad15)*
X142875000Y-106680000D03*
G04 #@! TO.P,U1,16*
G04 #@! TO.N,Net-(U1-Pad16)*
X142875000Y-107950000D03*
G04 #@! TO.P,U1,17*
G04 #@! TO.N,/A0*
X142875000Y-109220000D03*
G04 #@! TO.P,U1,18*
G04 #@! TO.N,/A1*
X142875000Y-110490000D03*
G04 #@! TO.P,U1,19*
G04 #@! TO.N,/A2*
X142875000Y-111760000D03*
G04 #@! TO.P,U1,20*
G04 #@! TO.N,/A3*
X142875000Y-113030000D03*
G04 #@! TO.P,U1,21*
G04 #@! TO.N,VCC*
X142875000Y-114300000D03*
G04 #@! TD*
D13*
G04 #@! TO.P,X1,1*
G04 #@! TO.N,/D8*
X121920000Y-76200000D03*
G04 #@! TO.P,X1,2*
G04 #@! TO.N,/D9*
X124720000Y-77470000D03*
G04 #@! TO.P,X1,3*
G04 #@! TO.N,/D10*
X121920000Y-78740000D03*
G04 #@! TO.P,X1,4*
G04 #@! TO.N,/D11*
X124720000Y-80010000D03*
G04 #@! TO.P,X1,7*
G04 #@! TO.N,/D13*
X121920000Y-83820000D03*
G04 #@! TO.P,X1,5*
G04 #@! TO.N,VSS*
X121920000Y-81280000D03*
G04 #@! TO.P,X1,6*
G04 #@! TO.N,/D12*
X124720000Y-82550000D03*
G04 #@! TO.P,X1,8*
G04 #@! TO.N,/D14*
X124720000Y-85090000D03*
G04 #@! TO.P,X1,11*
G04 #@! TO.N,VCC*
X121920000Y-88900000D03*
G04 #@! TO.P,X1,16*
X124720000Y-95250000D03*
G04 #@! TO.P,X1,9*
G04 #@! TO.N,/D15*
X121920000Y-86360000D03*
G04 #@! TO.P,X1,14*
G04 #@! TO.N,/D2*
X124720000Y-92710000D03*
G04 #@! TO.P,X1,10*
G04 #@! TO.N,VSS*
X124720000Y-87630000D03*
G04 #@! TO.P,X1,12*
G04 #@! TO.N,/D0*
X124720000Y-90170000D03*
G04 #@! TO.P,X1,13*
G04 #@! TO.N,/D1*
X121920000Y-91440000D03*
G04 #@! TO.P,X1,15*
G04 #@! TO.N,/D3*
X121920000Y-93980000D03*
G04 #@! TO.P,X1,19*
G04 #@! TO.N,/D6*
X121920000Y-99060000D03*
G04 #@! TO.P,X1,27*
G04 #@! TO.N,/A1*
X121920000Y-109220000D03*
G04 #@! TO.P,X1,24*
G04 #@! TO.N,/~RAS*
X124720000Y-105410000D03*
G04 #@! TO.P,X1,17*
G04 #@! TO.N,/D4*
X121920000Y-96520000D03*
G04 #@! TO.P,X1,28*
G04 #@! TO.N,/A2*
X124720000Y-110490000D03*
G04 #@! TO.P,X1,25*
G04 #@! TO.N,Net-(X1-Pad25)*
X121920000Y-106680000D03*
G04 #@! TO.P,X1,22*
G04 #@! TO.N,/A9*
X124720000Y-102870000D03*
G04 #@! TO.P,X1,32*
G04 #@! TO.N,Net-(X1-Pad32)*
X124720000Y-115570000D03*
G04 #@! TO.P,X1,18*
G04 #@! TO.N,/D5*
X124720000Y-97790000D03*
G04 #@! TO.P,X1,20*
G04 #@! TO.N,/D7*
X124720000Y-100330000D03*
G04 #@! TO.P,X1,21*
G04 #@! TO.N,Net-(X1-Pad21)*
X121920000Y-101600000D03*
G04 #@! TO.P,X1,23*
G04 #@! TO.N,/~WE*
X121920000Y-104140000D03*
G04 #@! TO.P,X1,26*
G04 #@! TO.N,/A0*
X124720000Y-107950000D03*
G04 #@! TO.P,X1,29*
G04 #@! TO.N,/A3*
X121920000Y-111760000D03*
G04 #@! TO.P,X1,31*
G04 #@! TO.N,VSS*
X121920000Y-114300000D03*
G04 #@! TO.P,X1,30*
G04 #@! TO.N,VCC*
X124720000Y-113030000D03*
G04 #@! TO.P,X1,37*
G04 #@! TO.N,/~OE*
X121920000Y-121920000D03*
G04 #@! TO.P,X1,34*
G04 #@! TO.N,Net-(X1-Pad34)*
X124720000Y-118110000D03*
G04 #@! TO.P,X1,36*
G04 #@! TO.N,Net-(X1-Pad36)*
X124720000Y-120650000D03*
G04 #@! TO.P,X1,39*
G04 #@! TO.N,/~CAS0*
X121920000Y-124460000D03*
G04 #@! TO.P,X1,40*
G04 #@! TO.N,Net-(X1-Pad40)*
X124720000Y-125730000D03*
G04 #@! TO.P,X1,35*
G04 #@! TO.N,Net-(X1-Pad35)*
X121920000Y-119380000D03*
G04 #@! TO.P,X1,33*
G04 #@! TO.N,Net-(X1-Pad33)*
X121920000Y-116840000D03*
G04 #@! TO.P,X1,38*
G04 #@! TO.N,/~CAS1*
X124720000Y-123190000D03*
G04 #@! TD*
G04 #@! TO.P,X2,38*
G04 #@! TO.N,/~CAS3*
X159134000Y-123190000D03*
G04 #@! TO.P,X2,33*
G04 #@! TO.N,/A5*
X156334000Y-116840000D03*
G04 #@! TO.P,X2,35*
G04 #@! TO.N,/A7*
X156334000Y-119380000D03*
G04 #@! TO.P,X2,40*
G04 #@! TO.N,Net-(X2-Pad40)*
X159134000Y-125730000D03*
G04 #@! TO.P,X2,39*
G04 #@! TO.N,/~CAS2*
X156334000Y-124460000D03*
G04 #@! TO.P,X2,36*
G04 #@! TO.N,/A8*
X159134000Y-120650000D03*
G04 #@! TO.P,X2,34*
G04 #@! TO.N,/A6*
X159134000Y-118110000D03*
G04 #@! TO.P,X2,37*
G04 #@! TO.N,/~OE*
X156334000Y-121920000D03*
G04 #@! TO.P,X2,30*
G04 #@! TO.N,VCC*
X159134000Y-113030000D03*
G04 #@! TO.P,X2,31*
G04 #@! TO.N,VSS*
X156334000Y-114300000D03*
G04 #@! TO.P,X2,29*
G04 #@! TO.N,Net-(X2-Pad29)*
X156334000Y-111760000D03*
G04 #@! TO.P,X2,26*
G04 #@! TO.N,Net-(X2-Pad26)*
X159134000Y-107950000D03*
G04 #@! TO.P,X2,23*
G04 #@! TO.N,Net-(X2-Pad23)*
X156334000Y-104140000D03*
G04 #@! TO.P,X2,21*
G04 #@! TO.N,Net-(X2-Pad21)*
X156334000Y-101600000D03*
G04 #@! TO.P,X2,20*
G04 #@! TO.N,/D23*
X159134000Y-100330000D03*
G04 #@! TO.P,X2,18*
G04 #@! TO.N,/D21*
X159134000Y-97790000D03*
G04 #@! TO.P,X2,32*
G04 #@! TO.N,/A4*
X159134000Y-115570000D03*
G04 #@! TO.P,X2,22*
G04 #@! TO.N,Net-(X2-Pad22)*
X159134000Y-102870000D03*
G04 #@! TO.P,X2,25*
G04 #@! TO.N,Net-(X2-Pad25)*
X156334000Y-106680000D03*
G04 #@! TO.P,X2,28*
G04 #@! TO.N,Net-(X2-Pad28)*
X159134000Y-110490000D03*
G04 #@! TO.P,X2,17*
G04 #@! TO.N,/D20*
X156334000Y-96520000D03*
G04 #@! TO.P,X2,24*
G04 #@! TO.N,Net-(X2-Pad24)*
X159134000Y-105410000D03*
G04 #@! TO.P,X2,27*
G04 #@! TO.N,Net-(X2-Pad27)*
X156334000Y-109220000D03*
G04 #@! TO.P,X2,19*
G04 #@! TO.N,/D22*
X156334000Y-99060000D03*
G04 #@! TO.P,X2,15*
G04 #@! TO.N,/D19*
X156334000Y-93980000D03*
G04 #@! TO.P,X2,13*
G04 #@! TO.N,/D17*
X156334000Y-91440000D03*
G04 #@! TO.P,X2,12*
G04 #@! TO.N,/D16*
X159134000Y-90170000D03*
G04 #@! TO.P,X2,10*
G04 #@! TO.N,VSS*
X159134000Y-87630000D03*
G04 #@! TO.P,X2,14*
G04 #@! TO.N,/D18*
X159134000Y-92710000D03*
G04 #@! TO.P,X2,9*
G04 #@! TO.N,/D31*
X156334000Y-86360000D03*
G04 #@! TO.P,X2,16*
G04 #@! TO.N,VCC*
X159134000Y-95250000D03*
G04 #@! TO.P,X2,11*
X156334000Y-88900000D03*
G04 #@! TO.P,X2,8*
G04 #@! TO.N,/D30*
X159134000Y-85090000D03*
G04 #@! TO.P,X2,6*
G04 #@! TO.N,/D28*
X159134000Y-82550000D03*
G04 #@! TO.P,X2,5*
G04 #@! TO.N,VSS*
X156334000Y-81280000D03*
G04 #@! TO.P,X2,7*
G04 #@! TO.N,/D29*
X156334000Y-83820000D03*
G04 #@! TO.P,X2,4*
G04 #@! TO.N,/D27*
X159134000Y-80010000D03*
G04 #@! TO.P,X2,3*
G04 #@! TO.N,/D26*
X156334000Y-78740000D03*
G04 #@! TO.P,X2,2*
G04 #@! TO.N,/D25*
X159134000Y-77470000D03*
G04 #@! TO.P,X2,1*
G04 #@! TO.N,/D24*
X156334000Y-76200000D03*
G04 #@! TD*
D14*
G04 #@! TO.P,C1,2*
G04 #@! TO.N,VSS*
X130540000Y-116205000D03*
G04 #@! TO.P,C1,1*
G04 #@! TO.N,VCC*
X128540000Y-116205000D03*
G04 #@! TD*
G04 #@! TO.P,C3,2*
G04 #@! TO.N,VSS*
X145145000Y-116205000D03*
G04 #@! TO.P,C3,1*
G04 #@! TO.N,VCC*
X143145000Y-116205000D03*
G04 #@! TD*
G04 #@! TO.P,C6,1*
G04 #@! TO.N,VCC*
X141970000Y-86360000D03*
G04 #@! TO.P,C6,2*
G04 #@! TO.N,VSS*
X139970000Y-86360000D03*
G04 #@! TD*
D15*
G04 #@! TO.P,C7,2*
G04 #@! TO.N,VSS*
X138445000Y-82550000D03*
G04 #@! TO.P,C7,1*
G04 #@! TO.N,VCC*
X143495000Y-82550000D03*
G04 #@! TD*
D16*
G04 #@! TO.N,/A9*
X134747000Y-102235000D03*
X136017000Y-106680000D03*
G04 #@! TO.N,/A4*
X149860000Y-113030000D03*
G04 #@! TO.N,/~OE*
X132588000Y-121793000D03*
X134620000Y-105537000D03*
X145796000Y-105537000D03*
G04 #@! TO.N,/A6*
X147955000Y-110490000D03*
G04 #@! TO.N,/A8*
X146431000Y-107950000D03*
G04 #@! TO.N,/~CAS0*
X132207000Y-102870000D03*
G04 #@! TO.N,/A7*
X147193000Y-109220000D03*
G04 #@! TO.N,/A5*
X148844000Y-111760000D03*
G04 #@! TO.N,/~CAS1*
X130937000Y-104267000D03*
G04 #@! TO.N,VSS*
X140970000Y-98806000D03*
X130175000Y-98679000D03*
X130175000Y-91694000D03*
G04 #@! TO.N,VCC*
X129540000Y-88519000D03*
X127127000Y-114681000D03*
X141732000Y-114681000D03*
X142367000Y-116205000D03*
X127762000Y-116205000D03*
X141605000Y-95250000D03*
X129413000Y-95250000D03*
X142748000Y-86360000D03*
X144018000Y-88519000D03*
X143510000Y-83947000D03*
X145034000Y-82550000D03*
X143510000Y-81026000D03*
G04 #@! TD*
D17*
G04 #@! TO.N,/D8*
X138430000Y-90170000D02*
X136715500Y-90170000D01*
X127190500Y-76200000D02*
X121920000Y-76200000D01*
X136271000Y-85280500D02*
X127190500Y-76200000D01*
X136271000Y-89725500D02*
X136271000Y-85280500D01*
X136715500Y-90170000D02*
X136271000Y-89725500D01*
G04 #@! TO.N,/D9*
X138430000Y-91440000D02*
X136398000Y-91440000D01*
X127381000Y-77470000D02*
X124720000Y-77470000D01*
X135509000Y-85598000D02*
X127381000Y-77470000D01*
X135509000Y-90551000D02*
X135509000Y-85598000D01*
X136398000Y-91440000D02*
X135509000Y-90551000D01*
G04 #@! TO.N,/D10*
X138430000Y-92710000D02*
X135255000Y-92710000D01*
X127381000Y-78740000D02*
X121920000Y-78740000D01*
X134810500Y-86169500D02*
X127381000Y-78740000D01*
X134810500Y-92265500D02*
X134810500Y-86169500D01*
X135255000Y-92710000D02*
X134810500Y-92265500D01*
G04 #@! TO.N,/D11*
X138430000Y-93980000D02*
X135318500Y-93980000D01*
X127127000Y-80010000D02*
X124720000Y-80010000D01*
X134112000Y-86995000D02*
X127127000Y-80010000D01*
X134112000Y-92773500D02*
X134112000Y-86995000D01*
X135318500Y-93980000D02*
X134112000Y-92773500D01*
G04 #@! TO.N,/D13*
X138430000Y-97790000D02*
X133223000Y-97790000D01*
X128524000Y-83820000D02*
X121920000Y-83820000D01*
X132651500Y-87947500D02*
X128524000Y-83820000D01*
X132651500Y-97218500D02*
X132651500Y-87947500D01*
X133223000Y-97790000D02*
X132651500Y-97218500D01*
G04 #@! TO.N,/D12*
X138430000Y-96520000D02*
X135064500Y-96520000D01*
X128460500Y-82550000D02*
X124720000Y-82550000D01*
X133413500Y-87503000D02*
X128460500Y-82550000D01*
X133413500Y-94869000D02*
X133413500Y-87503000D01*
X135064500Y-96520000D02*
X133413500Y-94869000D01*
G04 #@! TO.N,/D14*
X138430000Y-99060000D02*
X132969000Y-99060000D01*
X128651000Y-85090000D02*
X124720000Y-85090000D01*
X132080000Y-88519000D02*
X128651000Y-85090000D01*
X132080000Y-98171000D02*
X132080000Y-88519000D01*
X132969000Y-99060000D02*
X132080000Y-98171000D01*
G04 #@! TO.N,/D15*
X138430000Y-100330000D02*
X132651500Y-100330000D01*
X128714500Y-86360000D02*
X121920000Y-86360000D01*
X131381500Y-89027000D02*
X128714500Y-86360000D01*
X131381500Y-99060000D02*
X131381500Y-89027000D01*
X132651500Y-100330000D02*
X131381500Y-99060000D01*
G04 #@! TO.N,/D2*
X128270000Y-92710000D02*
X124720000Y-92710000D01*
G04 #@! TO.N,/D0*
X128270000Y-90170000D02*
X124720000Y-90170000D01*
G04 #@! TO.N,/D1*
X128270000Y-91440000D02*
X121920000Y-91440000D01*
G04 #@! TO.N,/D3*
X128270000Y-93980000D02*
X121920000Y-93980000D01*
G04 #@! TO.N,/D6*
X128270000Y-99060000D02*
X121920000Y-99060000D01*
G04 #@! TO.N,/A1*
X128270000Y-110490000D02*
X127381000Y-110490000D01*
X127381000Y-110490000D02*
X126111000Y-109220000D01*
X126111000Y-109220000D02*
X121920000Y-109220000D01*
X142875000Y-110490000D02*
X141668500Y-110490000D01*
X130365500Y-110490000D02*
X128270000Y-110490000D01*
X130937000Y-111061500D02*
X130365500Y-110490000D01*
X141097000Y-111061500D02*
X130937000Y-111061500D01*
X141668500Y-110490000D02*
X141097000Y-111061500D01*
G04 #@! TO.N,/~RAS*
X124720000Y-105410000D02*
X128270000Y-105410000D01*
X128270000Y-105410000D02*
X133731000Y-105410000D01*
X133731000Y-105410000D02*
X134366000Y-104775000D01*
X134366000Y-104775000D02*
X139700000Y-104775000D01*
X139700000Y-104775000D02*
X140335000Y-105410000D01*
X140335000Y-105410000D02*
X142875000Y-105410000D01*
G04 #@! TO.N,/D4*
X128270000Y-96520000D02*
X121920000Y-96520000D01*
G04 #@! TO.N,/A2*
X128270000Y-111760000D02*
X127381000Y-111760000D01*
X127381000Y-111760000D02*
X126111000Y-110490000D01*
X126111000Y-110490000D02*
X124720000Y-110490000D01*
X142875000Y-111760000D02*
X141605000Y-111760000D01*
X130238500Y-111760000D02*
X128270000Y-111760000D01*
X130873500Y-112395000D02*
X130238500Y-111760000D01*
X140970000Y-112395000D02*
X130873500Y-112395000D01*
X141605000Y-111760000D02*
X140970000Y-112395000D01*
G04 #@! TO.N,/A9*
X138430000Y-106680000D02*
X136017000Y-106680000D01*
X125857000Y-102870000D02*
X124720000Y-102870000D01*
X126492000Y-102235000D02*
X125857000Y-102870000D01*
X134747000Y-102235000D02*
X126492000Y-102235000D01*
X138430000Y-106680000D02*
X141097000Y-106680000D01*
X144653000Y-106680000D02*
X153035000Y-106680000D01*
X144018000Y-106045000D02*
X144653000Y-106680000D01*
X141732000Y-106045000D02*
X144018000Y-106045000D01*
X141097000Y-106680000D02*
X141732000Y-106045000D01*
G04 #@! TO.N,/A4*
X138430000Y-113030000D02*
X141033500Y-113030000D01*
X144462500Y-113030000D02*
X149860000Y-113030000D01*
X149860000Y-113030000D02*
X153035000Y-113030000D01*
X143891000Y-112458500D02*
X144462500Y-113030000D01*
X141605000Y-112458500D02*
X143891000Y-112458500D01*
X141033500Y-113030000D02*
X141605000Y-112458500D01*
G04 #@! TO.N,/D5*
X128270000Y-97790000D02*
X124720000Y-97790000D01*
G04 #@! TO.N,/D7*
X128270000Y-100330000D02*
X124720000Y-100330000D01*
G04 #@! TO.N,/~WE*
X128270000Y-104140000D02*
X121920000Y-104140000D01*
X142875000Y-104140000D02*
X140462000Y-104140000D01*
X130048000Y-104140000D02*
X128270000Y-104140000D01*
X130683000Y-103505000D02*
X130048000Y-104140000D01*
X139827000Y-103505000D02*
X130683000Y-103505000D01*
X140462000Y-104140000D02*
X139827000Y-103505000D01*
G04 #@! TO.N,/A0*
X128270000Y-109220000D02*
X127381000Y-109220000D01*
X127381000Y-109220000D02*
X126111000Y-107950000D01*
X126111000Y-107950000D02*
X124720000Y-107950000D01*
X142875000Y-109220000D02*
X141668500Y-109220000D01*
X130365500Y-109220000D02*
X128270000Y-109220000D01*
X131000500Y-109855000D02*
X130365500Y-109220000D01*
X141033500Y-109855000D02*
X131000500Y-109855000D01*
X141668500Y-109220000D02*
X141033500Y-109855000D01*
G04 #@! TO.N,/A3*
X128270000Y-113030000D02*
X127317500Y-113030000D01*
X127317500Y-113030000D02*
X126047500Y-111760000D01*
X126047500Y-111760000D02*
X121920000Y-111760000D01*
X142875000Y-113030000D02*
X142113000Y-113030000D01*
X142113000Y-113030000D02*
X141478000Y-113665000D01*
X141478000Y-113665000D02*
X130810000Y-113665000D01*
X130810000Y-113665000D02*
X130175000Y-113030000D01*
X130175000Y-113030000D02*
X128270000Y-113030000D01*
G04 #@! TO.N,/~OE*
X138430000Y-105410000D02*
X134747000Y-105410000D01*
X132461000Y-121920000D02*
X121920000Y-121920000D01*
X132588000Y-121793000D02*
X132461000Y-121920000D01*
X134747000Y-105410000D02*
X134620000Y-105537000D01*
X153035000Y-105410000D02*
X145923000Y-105410000D01*
X145923000Y-105410000D02*
X145796000Y-105537000D01*
G04 #@! TO.N,/A6*
X153035000Y-110490000D02*
X147955000Y-110490000D01*
X147955000Y-110490000D02*
X144462500Y-110490000D01*
X141033500Y-110490000D02*
X141668500Y-109855000D01*
X141668500Y-109855000D02*
X143827500Y-109855000D01*
X143827500Y-109855000D02*
X144462500Y-110490000D01*
X141033500Y-110490000D02*
X138430000Y-110490000D01*
G04 #@! TO.N,/A8*
X138430000Y-107950000D02*
X141097000Y-107950000D01*
X144526000Y-107950000D02*
X146431000Y-107950000D01*
X146431000Y-107950000D02*
X153035000Y-107950000D01*
X143954500Y-107378500D02*
X144526000Y-107950000D01*
X141668500Y-107378500D02*
X143954500Y-107378500D01*
X141097000Y-107950000D02*
X141668500Y-107378500D01*
G04 #@! TO.N,/~CAS0*
X138430000Y-102870000D02*
X132207000Y-102870000D01*
G04 #@! TO.N,/A7*
X138430000Y-109220000D02*
X141097000Y-109220000D01*
X144526000Y-109220000D02*
X147193000Y-109220000D01*
X147193000Y-109220000D02*
X153035000Y-109220000D01*
X143954500Y-108648500D02*
X144526000Y-109220000D01*
X141668500Y-108648500D02*
X143954500Y-108648500D01*
X141097000Y-109220000D02*
X141668500Y-108648500D01*
G04 #@! TO.N,/A5*
X138430000Y-111760000D02*
X141033500Y-111760000D01*
X144462500Y-111760000D02*
X148844000Y-111760000D01*
X148844000Y-111760000D02*
X153035000Y-111760000D01*
X143891000Y-111188500D02*
X144462500Y-111760000D01*
X141605000Y-111188500D02*
X143891000Y-111188500D01*
X141033500Y-111760000D02*
X141605000Y-111188500D01*
G04 #@! TO.N,/~CAS1*
X131064000Y-104140000D02*
X130937000Y-104267000D01*
X138430000Y-104140000D02*
X131064000Y-104140000D01*
G04 #@! TO.N,/~CAS3*
X153035000Y-102870000D02*
X154813000Y-102870000D01*
X155829000Y-123190000D02*
X159134000Y-123190000D01*
X155067000Y-122428000D02*
X155829000Y-123190000D01*
X155067000Y-103124000D02*
X155067000Y-122428000D01*
X154813000Y-102870000D02*
X155067000Y-103124000D01*
G04 #@! TO.N,/~CAS2*
X153035000Y-104140000D02*
X154305000Y-104140000D01*
X154559000Y-122685000D02*
X156334000Y-124460000D01*
X154559000Y-104394000D02*
X154559000Y-122685000D01*
X154305000Y-104140000D02*
X154559000Y-104394000D01*
G04 #@! TO.N,/D23*
X153035000Y-100330000D02*
X159134000Y-100330000D01*
G04 #@! TO.N,/D21*
X153035000Y-97790000D02*
X159134000Y-97790000D01*
G04 #@! TO.N,/D20*
X153035000Y-96520000D02*
X156334000Y-96520000D01*
G04 #@! TO.N,/D22*
X153035000Y-99060000D02*
X156334000Y-99060000D01*
G04 #@! TO.N,/D19*
X153035000Y-93980000D02*
X156334000Y-93980000D01*
G04 #@! TO.N,/D17*
X153035000Y-91440000D02*
X156334000Y-91440000D01*
G04 #@! TO.N,/D16*
X153035000Y-90170000D02*
X159134000Y-90170000D01*
G04 #@! TO.N,/D18*
X153035000Y-92710000D02*
X159134000Y-92710000D01*
G04 #@! TO.N,/D31*
X142875000Y-100330000D02*
X146113500Y-100330000D01*
X152971500Y-86360000D02*
X156334000Y-86360000D01*
X150304500Y-89027000D02*
X152971500Y-86360000D01*
X150304500Y-96139000D02*
X150304500Y-89027000D01*
X146113500Y-100330000D02*
X150304500Y-96139000D01*
G04 #@! TO.N,/D30*
X142875000Y-99060000D02*
X146113500Y-99060000D01*
X153035000Y-85090000D02*
X159134000Y-85090000D01*
X149606000Y-88519000D02*
X153035000Y-85090000D01*
X149606000Y-95567500D02*
X149606000Y-88519000D01*
X146113500Y-99060000D02*
X149606000Y-95567500D01*
G04 #@! TO.N,/D28*
X142875000Y-96520000D02*
X145986500Y-96520000D01*
X153098500Y-82550000D02*
X159134000Y-82550000D01*
X148272500Y-87376000D02*
X153098500Y-82550000D01*
X148272500Y-94234000D02*
X148272500Y-87376000D01*
X145986500Y-96520000D02*
X148272500Y-94234000D01*
G04 #@! TO.N,/D29*
X142875000Y-97790000D02*
X146050000Y-97790000D01*
X153035000Y-83820000D02*
X156334000Y-83820000D01*
X148907500Y-87947500D02*
X153035000Y-83820000D01*
X148907500Y-94932500D02*
X148907500Y-87947500D01*
X146050000Y-97790000D02*
X148907500Y-94932500D01*
G04 #@! TO.N,/D27*
X142875000Y-93980000D02*
X146431000Y-93980000D01*
X154622500Y-80010000D02*
X159134000Y-80010000D01*
X147637500Y-86995000D02*
X154622500Y-80010000D01*
X147637500Y-92773500D02*
X147637500Y-86995000D01*
X146431000Y-93980000D02*
X147637500Y-92773500D01*
G04 #@! TO.N,/D26*
X142875000Y-92710000D02*
X146304000Y-92710000D01*
X154622500Y-78740000D02*
X156334000Y-78740000D01*
X147066000Y-86296500D02*
X154622500Y-78740000D01*
X147066000Y-91948000D02*
X147066000Y-86296500D01*
X146304000Y-92710000D02*
X147066000Y-91948000D01*
G04 #@! TO.N,/D25*
X142875000Y-91440000D02*
X145923000Y-91440000D01*
X154559000Y-77470000D02*
X159134000Y-77470000D01*
X146494500Y-85534500D02*
X154559000Y-77470000D01*
X146494500Y-90868500D02*
X146494500Y-85534500D01*
X145923000Y-91440000D02*
X146494500Y-90868500D01*
G04 #@! TO.N,/D24*
X142875000Y-90170000D02*
X145224500Y-90170000D01*
X154559000Y-76200000D02*
X156334000Y-76200000D01*
X145859500Y-84899500D02*
X154559000Y-76200000D01*
X145859500Y-89535000D02*
X145859500Y-84899500D01*
X145224500Y-90170000D02*
X145859500Y-89535000D01*
G04 #@! TO.N,VCC*
X128270000Y-88900000D02*
X129159000Y-88900000D01*
X129159000Y-88900000D02*
X129540000Y-88519000D01*
X128270000Y-114300000D02*
X127508000Y-114300000D01*
X127508000Y-114300000D02*
X127127000Y-114681000D01*
X142875000Y-114300000D02*
X142113000Y-114300000D01*
X142113000Y-114300000D02*
X141732000Y-114681000D01*
X143145000Y-116205000D02*
X142367000Y-116205000D01*
X128540000Y-116205000D02*
X127762000Y-116205000D01*
X142875000Y-95250000D02*
X141605000Y-95250000D01*
X128270000Y-95250000D02*
X129413000Y-95250000D01*
X141970000Y-86360000D02*
X142748000Y-86360000D01*
X142875000Y-88900000D02*
X144018000Y-88519000D01*
X143495000Y-82550000D02*
X143495000Y-83932000D01*
X143495000Y-83932000D02*
X143510000Y-83947000D01*
X143495000Y-82550000D02*
X145034000Y-82550000D01*
X143495000Y-82550000D02*
X143495000Y-81041000D01*
X143495000Y-81041000D02*
X143510000Y-81026000D01*
G04 #@! TD*
D18*
G04 #@! TO.N,VSS*
G36*
X160845653Y-127190303D02*
X119951654Y-127063696D01*
X119954323Y-125961211D01*
X123552297Y-125961211D01*
X123729664Y-126390472D01*
X124057801Y-126719181D01*
X124486751Y-126897297D01*
X124951211Y-126897703D01*
X125380472Y-126720336D01*
X125709181Y-126392199D01*
X125887297Y-125963249D01*
X125887703Y-125498789D01*
X125710336Y-125069528D01*
X125382199Y-124740819D01*
X124953249Y-124562703D01*
X124488789Y-124562297D01*
X124059528Y-124739664D01*
X123730819Y-125067801D01*
X123552703Y-125496751D01*
X123552297Y-125961211D01*
X119954323Y-125961211D01*
X119957398Y-124691211D01*
X120752297Y-124691211D01*
X120929664Y-125120472D01*
X121257801Y-125449181D01*
X121686751Y-125627297D01*
X122151211Y-125627703D01*
X122580472Y-125450336D01*
X122909181Y-125122199D01*
X123087297Y-124693249D01*
X123087703Y-124228789D01*
X122910336Y-123799528D01*
X122582199Y-123470819D01*
X122153249Y-123292703D01*
X121688789Y-123292297D01*
X121259528Y-123469664D01*
X120930819Y-123797801D01*
X120752703Y-124226751D01*
X120752297Y-124691211D01*
X119957398Y-124691211D01*
X119963548Y-122151211D01*
X120752297Y-122151211D01*
X120929664Y-122580472D01*
X121257801Y-122909181D01*
X121686751Y-123087297D01*
X122151211Y-123087703D01*
X122580472Y-122910336D01*
X122909181Y-122582199D01*
X123010789Y-122337500D01*
X123921452Y-122337500D01*
X123730819Y-122527801D01*
X123552703Y-122956751D01*
X123552297Y-123421211D01*
X123729664Y-123850472D01*
X124057801Y-124179181D01*
X124486751Y-124357297D01*
X124951211Y-124357703D01*
X125380472Y-124180336D01*
X125709181Y-123852199D01*
X125887297Y-123423249D01*
X125887703Y-122958789D01*
X125710336Y-122529528D01*
X125518642Y-122337500D01*
X132188386Y-122337500D01*
X132209398Y-122358549D01*
X132454644Y-122460384D01*
X132720191Y-122460616D01*
X132965614Y-122359209D01*
X133153549Y-122171602D01*
X133255384Y-121926356D01*
X133255616Y-121660809D01*
X133154209Y-121415386D01*
X132966602Y-121227451D01*
X132721356Y-121125616D01*
X132455809Y-121125384D01*
X132210386Y-121226791D01*
X132022451Y-121414398D01*
X131985868Y-121502500D01*
X125518548Y-121502500D01*
X125709181Y-121312199D01*
X125887297Y-120883249D01*
X125887703Y-120418789D01*
X125869404Y-120374500D01*
X136386643Y-120374500D01*
X136386643Y-126109500D01*
X145807356Y-126109500D01*
X145807356Y-125961211D01*
X157966297Y-125961211D01*
X158143664Y-126390472D01*
X158471801Y-126719181D01*
X158900751Y-126897297D01*
X159365211Y-126897703D01*
X159794472Y-126720336D01*
X160123181Y-126392199D01*
X160301297Y-125963249D01*
X160301703Y-125498789D01*
X160124336Y-125069528D01*
X159796199Y-124740819D01*
X159367249Y-124562703D01*
X158902789Y-124562297D01*
X158473528Y-124739664D01*
X158144819Y-125067801D01*
X157966703Y-125496751D01*
X157966297Y-125961211D01*
X145807356Y-125961211D01*
X145807356Y-120374500D01*
X136386643Y-120374500D01*
X125869404Y-120374500D01*
X125710336Y-119989528D01*
X125382199Y-119660819D01*
X124953249Y-119482703D01*
X124488789Y-119482297D01*
X124059528Y-119659664D01*
X123730819Y-119987801D01*
X123552703Y-120416751D01*
X123552297Y-120881211D01*
X123729664Y-121310472D01*
X123921358Y-121502500D01*
X123010730Y-121502500D01*
X122910336Y-121259528D01*
X122582199Y-120930819D01*
X122153249Y-120752703D01*
X121688789Y-120752297D01*
X121259528Y-120929664D01*
X120930819Y-121257801D01*
X120752703Y-121686751D01*
X120752297Y-122151211D01*
X119963548Y-122151211D01*
X119969698Y-119611211D01*
X120752297Y-119611211D01*
X120929664Y-120040472D01*
X121257801Y-120369181D01*
X121686751Y-120547297D01*
X122151211Y-120547703D01*
X122580472Y-120370336D01*
X122909181Y-120042199D01*
X123087297Y-119613249D01*
X123087703Y-119148789D01*
X122910336Y-118719528D01*
X122582199Y-118390819D01*
X122462730Y-118341211D01*
X123552297Y-118341211D01*
X123729664Y-118770472D01*
X124057801Y-119099181D01*
X124486751Y-119277297D01*
X124951211Y-119277703D01*
X125380472Y-119100336D01*
X125709181Y-118772199D01*
X125887297Y-118343249D01*
X125887703Y-117878789D01*
X125710336Y-117449528D01*
X125382199Y-117120819D01*
X124953249Y-116942703D01*
X124488789Y-116942297D01*
X124059528Y-117119664D01*
X123730819Y-117447801D01*
X123552703Y-117876751D01*
X123552297Y-118341211D01*
X122462730Y-118341211D01*
X122153249Y-118212703D01*
X121688789Y-118212297D01*
X121259528Y-118389664D01*
X120930819Y-118717801D01*
X120752703Y-119146751D01*
X120752297Y-119611211D01*
X119969698Y-119611211D01*
X119975848Y-117071211D01*
X120752297Y-117071211D01*
X120929664Y-117500472D01*
X121257801Y-117829181D01*
X121686751Y-118007297D01*
X122151211Y-118007703D01*
X122580472Y-117830336D01*
X122909181Y-117502199D01*
X123087297Y-117073249D01*
X123087703Y-116608789D01*
X122910336Y-116179528D01*
X122582199Y-115850819D01*
X122462730Y-115801211D01*
X123552297Y-115801211D01*
X123729664Y-116230472D01*
X124057801Y-116559181D01*
X124486751Y-116737297D01*
X124951211Y-116737703D01*
X125380472Y-116560336D01*
X125604005Y-116337191D01*
X127094384Y-116337191D01*
X127195791Y-116582614D01*
X127383398Y-116770549D01*
X127628644Y-116872384D01*
X127724271Y-116872468D01*
X127738419Y-116947658D01*
X127807955Y-117055721D01*
X127914055Y-117128215D01*
X128040000Y-117153720D01*
X129040000Y-117153720D01*
X129157658Y-117131581D01*
X129265721Y-117062045D01*
X129338215Y-116955945D01*
X129363720Y-116830000D01*
X129363720Y-116474875D01*
X129722500Y-116474875D01*
X129722500Y-116893154D01*
X129770836Y-117009849D01*
X129860150Y-117099163D01*
X129976845Y-117147500D01*
X130270125Y-117147500D01*
X130349500Y-117068125D01*
X130349500Y-116395500D01*
X130730500Y-116395500D01*
X130730500Y-117068125D01*
X130809875Y-117147500D01*
X131103155Y-117147500D01*
X131219850Y-117099163D01*
X131309164Y-117009849D01*
X131357500Y-116893154D01*
X131357500Y-116474875D01*
X131278125Y-116395500D01*
X130730500Y-116395500D01*
X130349500Y-116395500D01*
X129801875Y-116395500D01*
X129722500Y-116474875D01*
X129363720Y-116474875D01*
X129363720Y-116337191D01*
X141699384Y-116337191D01*
X141800791Y-116582614D01*
X141988398Y-116770549D01*
X142233644Y-116872384D01*
X142329271Y-116872468D01*
X142343419Y-116947658D01*
X142412955Y-117055721D01*
X142519055Y-117128215D01*
X142645000Y-117153720D01*
X143645000Y-117153720D01*
X143762658Y-117131581D01*
X143870721Y-117062045D01*
X143943215Y-116955945D01*
X143968720Y-116830000D01*
X143968720Y-116474875D01*
X144327500Y-116474875D01*
X144327500Y-116893154D01*
X144375836Y-117009849D01*
X144465150Y-117099163D01*
X144581845Y-117147500D01*
X144875125Y-117147500D01*
X144954500Y-117068125D01*
X144954500Y-116395500D01*
X145335500Y-116395500D01*
X145335500Y-117068125D01*
X145414875Y-117147500D01*
X145708155Y-117147500D01*
X145824850Y-117099163D01*
X145914164Y-117009849D01*
X145962500Y-116893154D01*
X145962500Y-116474875D01*
X145883125Y-116395500D01*
X145335500Y-116395500D01*
X144954500Y-116395500D01*
X144406875Y-116395500D01*
X144327500Y-116474875D01*
X143968720Y-116474875D01*
X143968720Y-115580000D01*
X143956837Y-115516846D01*
X144327500Y-115516846D01*
X144327500Y-115935125D01*
X144406875Y-116014500D01*
X144954500Y-116014500D01*
X144954500Y-115341875D01*
X145335500Y-115341875D01*
X145335500Y-116014500D01*
X145883125Y-116014500D01*
X145962500Y-115935125D01*
X145962500Y-115516846D01*
X145914164Y-115400151D01*
X145824850Y-115310837D01*
X145708155Y-115262500D01*
X145414875Y-115262500D01*
X145335500Y-115341875D01*
X144954500Y-115341875D01*
X144875125Y-115262500D01*
X144581845Y-115262500D01*
X144465150Y-115310837D01*
X144375836Y-115400151D01*
X144327500Y-115516846D01*
X143956837Y-115516846D01*
X143946581Y-115462342D01*
X143877045Y-115354279D01*
X143770945Y-115281785D01*
X143645000Y-115256280D01*
X142645000Y-115256280D01*
X142527342Y-115278419D01*
X142419279Y-115347955D01*
X142346785Y-115454055D01*
X142329893Y-115537467D01*
X142234809Y-115537384D01*
X141989386Y-115638791D01*
X141801451Y-115826398D01*
X141699616Y-116071644D01*
X141699384Y-116337191D01*
X129363720Y-116337191D01*
X129363720Y-115580000D01*
X129351837Y-115516846D01*
X129722500Y-115516846D01*
X129722500Y-115935125D01*
X129801875Y-116014500D01*
X130349500Y-116014500D01*
X130349500Y-115341875D01*
X130730500Y-115341875D01*
X130730500Y-116014500D01*
X131278125Y-116014500D01*
X131357500Y-115935125D01*
X131357500Y-115516846D01*
X131309164Y-115400151D01*
X131219850Y-115310837D01*
X131103155Y-115262500D01*
X130809875Y-115262500D01*
X130730500Y-115341875D01*
X130349500Y-115341875D01*
X130270125Y-115262500D01*
X129976845Y-115262500D01*
X129860150Y-115310837D01*
X129770836Y-115400151D01*
X129722500Y-115516846D01*
X129351837Y-115516846D01*
X129341581Y-115462342D01*
X129272045Y-115354279D01*
X129165945Y-115281785D01*
X129040000Y-115256280D01*
X128040000Y-115256280D01*
X127922342Y-115278419D01*
X127814279Y-115347955D01*
X127741785Y-115454055D01*
X127724893Y-115537467D01*
X127629809Y-115537384D01*
X127384386Y-115638791D01*
X127196451Y-115826398D01*
X127094616Y-116071644D01*
X127094384Y-116337191D01*
X125604005Y-116337191D01*
X125709181Y-116232199D01*
X125887297Y-115803249D01*
X125887703Y-115338789D01*
X125710336Y-114909528D01*
X125614167Y-114813191D01*
X126459384Y-114813191D01*
X126560791Y-115058614D01*
X126748398Y-115246549D01*
X126993644Y-115348384D01*
X127259191Y-115348616D01*
X127504614Y-115247209D01*
X127692549Y-115059602D01*
X127768073Y-114877720D01*
X129286000Y-114877720D01*
X129403658Y-114855581D01*
X129511721Y-114786045D01*
X129584215Y-114679945D01*
X129609720Y-114554000D01*
X129609720Y-114506375D01*
X137096500Y-114506375D01*
X137096500Y-114617155D01*
X137144837Y-114733850D01*
X137234151Y-114823164D01*
X137350846Y-114871500D01*
X138160125Y-114871500D01*
X138239500Y-114792125D01*
X138239500Y-114427000D01*
X138620500Y-114427000D01*
X138620500Y-114792125D01*
X138699875Y-114871500D01*
X139509154Y-114871500D01*
X139625849Y-114823164D01*
X139715163Y-114733850D01*
X139763500Y-114617155D01*
X139763500Y-114506375D01*
X139684125Y-114427000D01*
X138620500Y-114427000D01*
X138239500Y-114427000D01*
X137175875Y-114427000D01*
X137096500Y-114506375D01*
X129609720Y-114506375D01*
X129609720Y-114046000D01*
X129587581Y-113928342D01*
X129518045Y-113820279D01*
X129411945Y-113747785D01*
X129286000Y-113722280D01*
X127254000Y-113722280D01*
X127136342Y-113744419D01*
X127028279Y-113813955D01*
X126955785Y-113920055D01*
X126931596Y-114039503D01*
X126749386Y-114114791D01*
X126561451Y-114302398D01*
X126459616Y-114547644D01*
X126459384Y-114813191D01*
X125614167Y-114813191D01*
X125382199Y-114580819D01*
X124953249Y-114402703D01*
X124488789Y-114402297D01*
X124059528Y-114579664D01*
X123730819Y-114907801D01*
X123552703Y-115336751D01*
X123552297Y-115801211D01*
X122462730Y-115801211D01*
X122153249Y-115672703D01*
X121688789Y-115672297D01*
X121259528Y-115849664D01*
X120930819Y-116177801D01*
X120752703Y-116606751D01*
X120752297Y-117071211D01*
X119975848Y-117071211D01*
X119980358Y-115208663D01*
X121280744Y-115208663D01*
X121383452Y-115362593D01*
X121830931Y-115487036D01*
X122291970Y-115430763D01*
X122456548Y-115362593D01*
X122559256Y-115208663D01*
X121920000Y-114569408D01*
X121280744Y-115208663D01*
X119980358Y-115208663D01*
X119982774Y-114210931D01*
X120732964Y-114210931D01*
X120789237Y-114671970D01*
X120857407Y-114836548D01*
X121011337Y-114939256D01*
X121650592Y-114300000D01*
X122189408Y-114300000D01*
X122828663Y-114939256D01*
X122982593Y-114836548D01*
X123107036Y-114389069D01*
X123050763Y-113928030D01*
X122982593Y-113763452D01*
X122828663Y-113660744D01*
X122189408Y-114300000D01*
X121650592Y-114300000D01*
X121011337Y-113660744D01*
X120857407Y-113763452D01*
X120732964Y-114210931D01*
X119982774Y-114210931D01*
X119984758Y-113391337D01*
X121280744Y-113391337D01*
X121920000Y-114030592D01*
X122559256Y-113391337D01*
X122456548Y-113237407D01*
X122009069Y-113112964D01*
X121548030Y-113169237D01*
X121383452Y-113237407D01*
X121280744Y-113391337D01*
X119984758Y-113391337D01*
X120000448Y-106911211D01*
X120752297Y-106911211D01*
X120929664Y-107340472D01*
X121257801Y-107669181D01*
X121686751Y-107847297D01*
X122151211Y-107847703D01*
X122580472Y-107670336D01*
X122909181Y-107342199D01*
X123087297Y-106913249D01*
X123087703Y-106448789D01*
X122910336Y-106019528D01*
X122582199Y-105690819D01*
X122153249Y-105512703D01*
X121688789Y-105512297D01*
X121259528Y-105689664D01*
X120930819Y-106017801D01*
X120752703Y-106446751D01*
X120752297Y-106911211D01*
X120000448Y-106911211D01*
X120006599Y-104371211D01*
X120752297Y-104371211D01*
X120929664Y-104800472D01*
X121257801Y-105129181D01*
X121686751Y-105307297D01*
X122151211Y-105307703D01*
X122580472Y-105130336D01*
X122909181Y-104802199D01*
X123010789Y-104557500D01*
X123921452Y-104557500D01*
X123730819Y-104747801D01*
X123552703Y-105176751D01*
X123552297Y-105641211D01*
X123729664Y-106070472D01*
X124057801Y-106399181D01*
X124486751Y-106577297D01*
X124951211Y-106577703D01*
X125318360Y-106426000D01*
X126930280Y-106426000D01*
X126930280Y-106934000D01*
X126952419Y-107051658D01*
X127021955Y-107159721D01*
X127128055Y-107232215D01*
X127254000Y-107257720D01*
X129286000Y-107257720D01*
X129403658Y-107235581D01*
X129511721Y-107166045D01*
X129584215Y-107059945D01*
X129609720Y-106934000D01*
X129609720Y-106426000D01*
X129587581Y-106308342D01*
X129518045Y-106200279D01*
X129411945Y-106127785D01*
X129286000Y-106102280D01*
X127254000Y-106102280D01*
X127136342Y-106124419D01*
X127028279Y-106193955D01*
X126955785Y-106300055D01*
X126930280Y-106426000D01*
X125318360Y-106426000D01*
X125380472Y-106400336D01*
X125709181Y-106072199D01*
X125810789Y-105827500D01*
X126981917Y-105827500D01*
X127021955Y-105889721D01*
X127128055Y-105962215D01*
X127254000Y-105987720D01*
X129286000Y-105987720D01*
X129403658Y-105965581D01*
X129511721Y-105896045D01*
X129558555Y-105827500D01*
X133731000Y-105827500D01*
X133890771Y-105795720D01*
X133980023Y-105736083D01*
X134053791Y-105914614D01*
X134241398Y-106102549D01*
X134486644Y-106204384D01*
X134752191Y-106204616D01*
X134997614Y-106103209D01*
X135185549Y-105915602D01*
X135222132Y-105827500D01*
X137141917Y-105827500D01*
X137181955Y-105889721D01*
X137288055Y-105962215D01*
X137414000Y-105987720D01*
X139446000Y-105987720D01*
X139563658Y-105965581D01*
X139671721Y-105896045D01*
X139744215Y-105789945D01*
X139769720Y-105664000D01*
X139769720Y-105435154D01*
X140039783Y-105705217D01*
X140175229Y-105795720D01*
X140335000Y-105827500D01*
X141359066Y-105827500D01*
X140924066Y-106262500D01*
X139718083Y-106262500D01*
X139678045Y-106200279D01*
X139571945Y-106127785D01*
X139446000Y-106102280D01*
X137414000Y-106102280D01*
X137296342Y-106124419D01*
X137188279Y-106193955D01*
X137141445Y-106262500D01*
X136543393Y-106262500D01*
X136395602Y-106114451D01*
X136150356Y-106012616D01*
X135884809Y-106012384D01*
X135639386Y-106113791D01*
X135451451Y-106301398D01*
X135349616Y-106546644D01*
X135349384Y-106812191D01*
X135450791Y-107057614D01*
X135638398Y-107245549D01*
X135883644Y-107347384D01*
X136149191Y-107347616D01*
X136394614Y-107246209D01*
X136543583Y-107097500D01*
X137141917Y-107097500D01*
X137181955Y-107159721D01*
X137288055Y-107232215D01*
X137414000Y-107257720D01*
X139446000Y-107257720D01*
X139563658Y-107235581D01*
X139671721Y-107166045D01*
X139718555Y-107097500D01*
X141097000Y-107097500D01*
X141256771Y-107065720D01*
X141392217Y-106975217D01*
X141535280Y-106832154D01*
X141535280Y-106934000D01*
X141544983Y-106985569D01*
X141508729Y-106992780D01*
X141373283Y-107083283D01*
X140924066Y-107532500D01*
X139718083Y-107532500D01*
X139678045Y-107470279D01*
X139571945Y-107397785D01*
X139446000Y-107372280D01*
X137414000Y-107372280D01*
X137296342Y-107394419D01*
X137188279Y-107463955D01*
X137115785Y-107570055D01*
X137090280Y-107696000D01*
X137090280Y-108204000D01*
X137112419Y-108321658D01*
X137181955Y-108429721D01*
X137288055Y-108502215D01*
X137414000Y-108527720D01*
X139446000Y-108527720D01*
X139563658Y-108505581D01*
X139671721Y-108436045D01*
X139718555Y-108367500D01*
X141097000Y-108367500D01*
X141256771Y-108335720D01*
X141392217Y-108245217D01*
X141535280Y-108102154D01*
X141535280Y-108204000D01*
X141544983Y-108255569D01*
X141508729Y-108262780D01*
X141373283Y-108353283D01*
X140924066Y-108802500D01*
X139718083Y-108802500D01*
X139678045Y-108740279D01*
X139571945Y-108667785D01*
X139446000Y-108642280D01*
X137414000Y-108642280D01*
X137296342Y-108664419D01*
X137188279Y-108733955D01*
X137115785Y-108840055D01*
X137090280Y-108966000D01*
X137090280Y-109437500D01*
X131173434Y-109437500D01*
X130660717Y-108924783D01*
X130525271Y-108834280D01*
X130365500Y-108802500D01*
X129558083Y-108802500D01*
X129518045Y-108740279D01*
X129411945Y-108667785D01*
X129286000Y-108642280D01*
X127393714Y-108642280D01*
X127279154Y-108527720D01*
X129286000Y-108527720D01*
X129403658Y-108505581D01*
X129511721Y-108436045D01*
X129584215Y-108329945D01*
X129609720Y-108204000D01*
X129609720Y-107696000D01*
X129587581Y-107578342D01*
X129518045Y-107470279D01*
X129411945Y-107397785D01*
X129286000Y-107372280D01*
X127254000Y-107372280D01*
X127136342Y-107394419D01*
X127028279Y-107463955D01*
X126955785Y-107570055D01*
X126930280Y-107696000D01*
X126930280Y-108178846D01*
X126406217Y-107654783D01*
X126270771Y-107564280D01*
X126111000Y-107532500D01*
X125810730Y-107532500D01*
X125710336Y-107289528D01*
X125382199Y-106960819D01*
X124953249Y-106782703D01*
X124488789Y-106782297D01*
X124059528Y-106959664D01*
X123730819Y-107287801D01*
X123552703Y-107716751D01*
X123552297Y-108181211D01*
X123729664Y-108610472D01*
X123921358Y-108802500D01*
X123010730Y-108802500D01*
X122910336Y-108559528D01*
X122582199Y-108230819D01*
X122153249Y-108052703D01*
X121688789Y-108052297D01*
X121259528Y-108229664D01*
X120930819Y-108557801D01*
X120752703Y-108986751D01*
X120752297Y-109451211D01*
X120929664Y-109880472D01*
X121257801Y-110209181D01*
X121686751Y-110387297D01*
X122151211Y-110387703D01*
X122580472Y-110210336D01*
X122909181Y-109882199D01*
X123010789Y-109637500D01*
X123921452Y-109637500D01*
X123730819Y-109827801D01*
X123552703Y-110256751D01*
X123552297Y-110721211D01*
X123729664Y-111150472D01*
X123921358Y-111342500D01*
X123010730Y-111342500D01*
X122910336Y-111099528D01*
X122582199Y-110770819D01*
X122153249Y-110592703D01*
X121688789Y-110592297D01*
X121259528Y-110769664D01*
X120930819Y-111097801D01*
X120752703Y-111526751D01*
X120752297Y-111991211D01*
X120929664Y-112420472D01*
X121257801Y-112749181D01*
X121686751Y-112927297D01*
X122151211Y-112927703D01*
X122580472Y-112750336D01*
X122909181Y-112422199D01*
X123010789Y-112177500D01*
X123921452Y-112177500D01*
X123730819Y-112367801D01*
X123552703Y-112796751D01*
X123552297Y-113261211D01*
X123729664Y-113690472D01*
X124057801Y-114019181D01*
X124486751Y-114197297D01*
X124951211Y-114197703D01*
X125380472Y-114020336D01*
X125709181Y-113692199D01*
X125887297Y-113263249D01*
X125887703Y-112798789D01*
X125710336Y-112369528D01*
X125518642Y-112177500D01*
X125874566Y-112177500D01*
X126930280Y-113233214D01*
X126930280Y-113284000D01*
X126952419Y-113401658D01*
X127021955Y-113509721D01*
X127128055Y-113582215D01*
X127254000Y-113607720D01*
X129286000Y-113607720D01*
X129403658Y-113585581D01*
X129511721Y-113516045D01*
X129558555Y-113447500D01*
X130002066Y-113447500D01*
X130514783Y-113960217D01*
X130650229Y-114050720D01*
X130810000Y-114082500D01*
X137096500Y-114082500D01*
X137096500Y-114093625D01*
X137175875Y-114173000D01*
X138239500Y-114173000D01*
X138239500Y-114089500D01*
X138620500Y-114089500D01*
X138620500Y-114173000D01*
X139684125Y-114173000D01*
X139763500Y-114093625D01*
X139763500Y-114082500D01*
X141432536Y-114082500D01*
X141354386Y-114114791D01*
X141166451Y-114302398D01*
X141064616Y-114547644D01*
X141064384Y-114813191D01*
X141165791Y-115058614D01*
X141353398Y-115246549D01*
X141598644Y-115348384D01*
X141864191Y-115348616D01*
X142109614Y-115247209D01*
X142297549Y-115059602D01*
X142373073Y-114877720D01*
X143891000Y-114877720D01*
X144008658Y-114855581D01*
X144116721Y-114786045D01*
X144189215Y-114679945D01*
X144214720Y-114554000D01*
X144214720Y-114506375D01*
X151701500Y-114506375D01*
X151701500Y-114617155D01*
X151749837Y-114733850D01*
X151839151Y-114823164D01*
X151955846Y-114871500D01*
X152765125Y-114871500D01*
X152844500Y-114792125D01*
X152844500Y-114427000D01*
X151780875Y-114427000D01*
X151701500Y-114506375D01*
X144214720Y-114506375D01*
X144214720Y-114046000D01*
X144202837Y-113982845D01*
X151701500Y-113982845D01*
X151701500Y-114093625D01*
X151780875Y-114173000D01*
X152844500Y-114173000D01*
X152844500Y-113807875D01*
X152765125Y-113728500D01*
X151955846Y-113728500D01*
X151839151Y-113776836D01*
X151749837Y-113866150D01*
X151701500Y-113982845D01*
X144202837Y-113982845D01*
X144192581Y-113928342D01*
X144123045Y-113820279D01*
X144016945Y-113747785D01*
X143891000Y-113722280D01*
X142011154Y-113722280D01*
X142125714Y-113607720D01*
X143891000Y-113607720D01*
X144008658Y-113585581D01*
X144116721Y-113516045D01*
X144189215Y-113409945D01*
X144201714Y-113348223D01*
X144302729Y-113415720D01*
X144462500Y-113447500D01*
X149333607Y-113447500D01*
X149481398Y-113595549D01*
X149726644Y-113697384D01*
X149992191Y-113697616D01*
X150237614Y-113596209D01*
X150386583Y-113447500D01*
X151746917Y-113447500D01*
X151786955Y-113509721D01*
X151893055Y-113582215D01*
X152019000Y-113607720D01*
X154051000Y-113607720D01*
X154141500Y-113590691D01*
X154141500Y-113739827D01*
X154114154Y-113728500D01*
X153304875Y-113728500D01*
X153225500Y-113807875D01*
X153225500Y-114173000D01*
X153245500Y-114173000D01*
X153245500Y-114427000D01*
X153225500Y-114427000D01*
X153225500Y-114792125D01*
X153304875Y-114871500D01*
X154114154Y-114871500D01*
X154141500Y-114860173D01*
X154141500Y-122685000D01*
X154173280Y-122844771D01*
X154263783Y-122980217D01*
X155267521Y-123983955D01*
X155166703Y-124226751D01*
X155166297Y-124691211D01*
X155343664Y-125120472D01*
X155671801Y-125449181D01*
X156100751Y-125627297D01*
X156565211Y-125627703D01*
X156994472Y-125450336D01*
X157323181Y-125122199D01*
X157501297Y-124693249D01*
X157501703Y-124228789D01*
X157324336Y-123799528D01*
X157132642Y-123607500D01*
X158043270Y-123607500D01*
X158143664Y-123850472D01*
X158471801Y-124179181D01*
X158900751Y-124357297D01*
X159365211Y-124357703D01*
X159794472Y-124180336D01*
X160123181Y-123852199D01*
X160301297Y-123423249D01*
X160301703Y-122958789D01*
X160124336Y-122529528D01*
X159796199Y-122200819D01*
X159367249Y-122022703D01*
X158902789Y-122022297D01*
X158473528Y-122199664D01*
X158144819Y-122527801D01*
X158043211Y-122772500D01*
X157132548Y-122772500D01*
X157323181Y-122582199D01*
X157501297Y-122153249D01*
X157501703Y-121688789D01*
X157324336Y-121259528D01*
X156996199Y-120930819D01*
X156876730Y-120881211D01*
X157966297Y-120881211D01*
X158143664Y-121310472D01*
X158471801Y-121639181D01*
X158900751Y-121817297D01*
X159365211Y-121817703D01*
X159794472Y-121640336D01*
X160123181Y-121312199D01*
X160301297Y-120883249D01*
X160301703Y-120418789D01*
X160124336Y-119989528D01*
X159796199Y-119660819D01*
X159367249Y-119482703D01*
X158902789Y-119482297D01*
X158473528Y-119659664D01*
X158144819Y-119987801D01*
X157966703Y-120416751D01*
X157966297Y-120881211D01*
X156876730Y-120881211D01*
X156567249Y-120752703D01*
X156102789Y-120752297D01*
X155673528Y-120929664D01*
X155484500Y-121118363D01*
X155484500Y-120181554D01*
X155671801Y-120369181D01*
X156100751Y-120547297D01*
X156565211Y-120547703D01*
X156994472Y-120370336D01*
X157323181Y-120042199D01*
X157501297Y-119613249D01*
X157501703Y-119148789D01*
X157324336Y-118719528D01*
X156996199Y-118390819D01*
X156876730Y-118341211D01*
X157966297Y-118341211D01*
X158143664Y-118770472D01*
X158471801Y-119099181D01*
X158900751Y-119277297D01*
X159365211Y-119277703D01*
X159794472Y-119100336D01*
X160123181Y-118772199D01*
X160301297Y-118343249D01*
X160301703Y-117878789D01*
X160124336Y-117449528D01*
X159796199Y-117120819D01*
X159367249Y-116942703D01*
X158902789Y-116942297D01*
X158473528Y-117119664D01*
X158144819Y-117447801D01*
X157966703Y-117876751D01*
X157966297Y-118341211D01*
X156876730Y-118341211D01*
X156567249Y-118212703D01*
X156102789Y-118212297D01*
X155673528Y-118389664D01*
X155484500Y-118578363D01*
X155484500Y-117641554D01*
X155671801Y-117829181D01*
X156100751Y-118007297D01*
X156565211Y-118007703D01*
X156994472Y-117830336D01*
X157323181Y-117502199D01*
X157501297Y-117073249D01*
X157501703Y-116608789D01*
X157324336Y-116179528D01*
X156996199Y-115850819D01*
X156876730Y-115801211D01*
X157966297Y-115801211D01*
X158143664Y-116230472D01*
X158471801Y-116559181D01*
X158900751Y-116737297D01*
X159365211Y-116737703D01*
X159794472Y-116560336D01*
X160123181Y-116232199D01*
X160301297Y-115803249D01*
X160301703Y-115338789D01*
X160124336Y-114909528D01*
X159796199Y-114580819D01*
X159367249Y-114402703D01*
X158902789Y-114402297D01*
X158473528Y-114579664D01*
X158144819Y-114907801D01*
X157966703Y-115336751D01*
X157966297Y-115801211D01*
X156876730Y-115801211D01*
X156567249Y-115672703D01*
X156102789Y-115672297D01*
X155673528Y-115849664D01*
X155484500Y-116038363D01*
X155484500Y-115208663D01*
X155694744Y-115208663D01*
X155797452Y-115362593D01*
X156244931Y-115487036D01*
X156705970Y-115430763D01*
X156870548Y-115362593D01*
X156973256Y-115208663D01*
X156334000Y-114569408D01*
X155694744Y-115208663D01*
X155484500Y-115208663D01*
X155484500Y-114880093D01*
X156064592Y-114300000D01*
X156603408Y-114300000D01*
X157242663Y-114939256D01*
X157396593Y-114836548D01*
X157521036Y-114389069D01*
X157464763Y-113928030D01*
X157396593Y-113763452D01*
X157242663Y-113660744D01*
X156603408Y-114300000D01*
X156064592Y-114300000D01*
X155484500Y-113719907D01*
X155484500Y-113391337D01*
X155694744Y-113391337D01*
X156334000Y-114030592D01*
X156973256Y-113391337D01*
X156886431Y-113261211D01*
X157966297Y-113261211D01*
X158143664Y-113690472D01*
X158471801Y-114019181D01*
X158900751Y-114197297D01*
X159365211Y-114197703D01*
X159794472Y-114020336D01*
X160123181Y-113692199D01*
X160301297Y-113263249D01*
X160301703Y-112798789D01*
X160124336Y-112369528D01*
X159796199Y-112040819D01*
X159367249Y-111862703D01*
X158902789Y-111862297D01*
X158473528Y-112039664D01*
X158144819Y-112367801D01*
X157966703Y-112796751D01*
X157966297Y-113261211D01*
X156886431Y-113261211D01*
X156870548Y-113237407D01*
X156423069Y-113112964D01*
X155962030Y-113169237D01*
X155797452Y-113237407D01*
X155694744Y-113391337D01*
X155484500Y-113391337D01*
X155484500Y-112561554D01*
X155671801Y-112749181D01*
X156100751Y-112927297D01*
X156565211Y-112927703D01*
X156994472Y-112750336D01*
X157323181Y-112422199D01*
X157501297Y-111993249D01*
X157501703Y-111528789D01*
X157324336Y-111099528D01*
X156996199Y-110770819D01*
X156876730Y-110721211D01*
X157966297Y-110721211D01*
X158143664Y-111150472D01*
X158471801Y-111479181D01*
X158900751Y-111657297D01*
X159365211Y-111657703D01*
X159794472Y-111480336D01*
X160123181Y-111152199D01*
X160301297Y-110723249D01*
X160301703Y-110258789D01*
X160124336Y-109829528D01*
X159796199Y-109500819D01*
X159367249Y-109322703D01*
X158902789Y-109322297D01*
X158473528Y-109499664D01*
X158144819Y-109827801D01*
X157966703Y-110256751D01*
X157966297Y-110721211D01*
X156876730Y-110721211D01*
X156567249Y-110592703D01*
X156102789Y-110592297D01*
X155673528Y-110769664D01*
X155484500Y-110958363D01*
X155484500Y-110021554D01*
X155671801Y-110209181D01*
X156100751Y-110387297D01*
X156565211Y-110387703D01*
X156994472Y-110210336D01*
X157323181Y-109882199D01*
X157501297Y-109453249D01*
X157501703Y-108988789D01*
X157324336Y-108559528D01*
X156996199Y-108230819D01*
X156876730Y-108181211D01*
X157966297Y-108181211D01*
X158143664Y-108610472D01*
X158471801Y-108939181D01*
X158900751Y-109117297D01*
X159365211Y-109117703D01*
X159794472Y-108940336D01*
X160123181Y-108612199D01*
X160301297Y-108183249D01*
X160301703Y-107718789D01*
X160124336Y-107289528D01*
X159796199Y-106960819D01*
X159367249Y-106782703D01*
X158902789Y-106782297D01*
X158473528Y-106959664D01*
X158144819Y-107287801D01*
X157966703Y-107716751D01*
X157966297Y-108181211D01*
X156876730Y-108181211D01*
X156567249Y-108052703D01*
X156102789Y-108052297D01*
X155673528Y-108229664D01*
X155484500Y-108418363D01*
X155484500Y-107481554D01*
X155671801Y-107669181D01*
X156100751Y-107847297D01*
X156565211Y-107847703D01*
X156994472Y-107670336D01*
X157323181Y-107342199D01*
X157501297Y-106913249D01*
X157501703Y-106448789D01*
X157324336Y-106019528D01*
X156996199Y-105690819D01*
X156876730Y-105641211D01*
X157966297Y-105641211D01*
X158143664Y-106070472D01*
X158471801Y-106399181D01*
X158900751Y-106577297D01*
X159365211Y-106577703D01*
X159794472Y-106400336D01*
X160123181Y-106072199D01*
X160301297Y-105643249D01*
X160301703Y-105178789D01*
X160124336Y-104749528D01*
X159796199Y-104420819D01*
X159367249Y-104242703D01*
X158902789Y-104242297D01*
X158473528Y-104419664D01*
X158144819Y-104747801D01*
X157966703Y-105176751D01*
X157966297Y-105641211D01*
X156876730Y-105641211D01*
X156567249Y-105512703D01*
X156102789Y-105512297D01*
X155673528Y-105689664D01*
X155484500Y-105878363D01*
X155484500Y-104941554D01*
X155671801Y-105129181D01*
X156100751Y-105307297D01*
X156565211Y-105307703D01*
X156994472Y-105130336D01*
X157323181Y-104802199D01*
X157501297Y-104373249D01*
X157501703Y-103908789D01*
X157324336Y-103479528D01*
X156996199Y-103150819D01*
X156876730Y-103101211D01*
X157966297Y-103101211D01*
X158143664Y-103530472D01*
X158471801Y-103859181D01*
X158900751Y-104037297D01*
X159365211Y-104037703D01*
X159794472Y-103860336D01*
X160123181Y-103532199D01*
X160301297Y-103103249D01*
X160301703Y-102638789D01*
X160124336Y-102209528D01*
X159796199Y-101880819D01*
X159367249Y-101702703D01*
X158902789Y-101702297D01*
X158473528Y-101879664D01*
X158144819Y-102207801D01*
X157966703Y-102636751D01*
X157966297Y-103101211D01*
X156876730Y-103101211D01*
X156567249Y-102972703D01*
X156102789Y-102972297D01*
X155673528Y-103149664D01*
X155484500Y-103338363D01*
X155484500Y-103124000D01*
X155460271Y-103002191D01*
X155452720Y-102964229D01*
X155362217Y-102828783D01*
X155108217Y-102574783D01*
X154972771Y-102484280D01*
X154813000Y-102452500D01*
X154323083Y-102452500D01*
X154283045Y-102390279D01*
X154176945Y-102317785D01*
X154051000Y-102292280D01*
X152019000Y-102292280D01*
X151901342Y-102314419D01*
X151793279Y-102383955D01*
X151720785Y-102490055D01*
X151695280Y-102616000D01*
X151695280Y-103124000D01*
X151717419Y-103241658D01*
X151786955Y-103349721D01*
X151893055Y-103422215D01*
X152019000Y-103447720D01*
X154051000Y-103447720D01*
X154168658Y-103425581D01*
X154276721Y-103356045D01*
X154323555Y-103287500D01*
X154640066Y-103287500D01*
X154649500Y-103296934D01*
X154649500Y-103894066D01*
X154600217Y-103844783D01*
X154464771Y-103754280D01*
X154325737Y-103726625D01*
X154283045Y-103660279D01*
X154176945Y-103587785D01*
X154051000Y-103562280D01*
X152019000Y-103562280D01*
X151901342Y-103584419D01*
X151793279Y-103653955D01*
X151720785Y-103760055D01*
X151695280Y-103886000D01*
X151695280Y-104394000D01*
X151717419Y-104511658D01*
X151786955Y-104619721D01*
X151893055Y-104692215D01*
X152019000Y-104717720D01*
X154051000Y-104717720D01*
X154141500Y-104700691D01*
X154141500Y-104850607D01*
X154051000Y-104832280D01*
X152019000Y-104832280D01*
X151901342Y-104854419D01*
X151793279Y-104923955D01*
X151746445Y-104992500D01*
X146195614Y-104992500D01*
X146174602Y-104971451D01*
X145929356Y-104869616D01*
X145663809Y-104869384D01*
X145418386Y-104970791D01*
X145230451Y-105158398D01*
X145128616Y-105403644D01*
X145128384Y-105669191D01*
X145229791Y-105914614D01*
X145417398Y-106102549D01*
X145662644Y-106204384D01*
X145928191Y-106204616D01*
X146173614Y-106103209D01*
X146361549Y-105915602D01*
X146398132Y-105827500D01*
X151746917Y-105827500D01*
X151786955Y-105889721D01*
X151893055Y-105962215D01*
X152019000Y-105987720D01*
X154051000Y-105987720D01*
X154141500Y-105970691D01*
X154141500Y-106120607D01*
X154051000Y-106102280D01*
X152019000Y-106102280D01*
X151901342Y-106124419D01*
X151793279Y-106193955D01*
X151746445Y-106262500D01*
X144825934Y-106262500D01*
X144313217Y-105749783D01*
X144211158Y-105681589D01*
X144214720Y-105664000D01*
X144214720Y-105156000D01*
X144192581Y-105038342D01*
X144123045Y-104930279D01*
X144016945Y-104857785D01*
X143891000Y-104832280D01*
X141859000Y-104832280D01*
X141741342Y-104854419D01*
X141633279Y-104923955D01*
X141586445Y-104992500D01*
X140507934Y-104992500D01*
X139995217Y-104479783D01*
X139859771Y-104389280D01*
X139769720Y-104371368D01*
X139769720Y-104038154D01*
X140166783Y-104435217D01*
X140302229Y-104525720D01*
X140462000Y-104557500D01*
X141586917Y-104557500D01*
X141626955Y-104619721D01*
X141733055Y-104692215D01*
X141859000Y-104717720D01*
X143891000Y-104717720D01*
X144008658Y-104695581D01*
X144116721Y-104626045D01*
X144189215Y-104519945D01*
X144214720Y-104394000D01*
X144214720Y-103886000D01*
X144192581Y-103768342D01*
X144123045Y-103660279D01*
X144016945Y-103587785D01*
X143891000Y-103562280D01*
X141859000Y-103562280D01*
X141741342Y-103584419D01*
X141633279Y-103653955D01*
X141586445Y-103722500D01*
X140634934Y-103722500D01*
X140122217Y-103209783D01*
X139986771Y-103119280D01*
X139827000Y-103087500D01*
X139769720Y-103087500D01*
X139769720Y-102616000D01*
X141535280Y-102616000D01*
X141535280Y-103124000D01*
X141557419Y-103241658D01*
X141626955Y-103349721D01*
X141733055Y-103422215D01*
X141859000Y-103447720D01*
X143891000Y-103447720D01*
X144008658Y-103425581D01*
X144116721Y-103356045D01*
X144189215Y-103249945D01*
X144214720Y-103124000D01*
X144214720Y-102616000D01*
X144192581Y-102498342D01*
X144123045Y-102390279D01*
X144016945Y-102317785D01*
X143891000Y-102292280D01*
X141859000Y-102292280D01*
X141741342Y-102314419D01*
X141633279Y-102383955D01*
X141560785Y-102490055D01*
X141535280Y-102616000D01*
X139769720Y-102616000D01*
X139747581Y-102498342D01*
X139678045Y-102390279D01*
X139571945Y-102317785D01*
X139446000Y-102292280D01*
X137414000Y-102292280D01*
X137296342Y-102314419D01*
X137188279Y-102383955D01*
X137141445Y-102452500D01*
X135379444Y-102452500D01*
X135414384Y-102368356D01*
X135414616Y-102102809D01*
X135313209Y-101857386D01*
X135125602Y-101669451D01*
X134880356Y-101567616D01*
X134614809Y-101567384D01*
X134369386Y-101668791D01*
X134220417Y-101817500D01*
X129609720Y-101817500D01*
X129609720Y-101346000D01*
X137090280Y-101346000D01*
X137090280Y-101854000D01*
X137112419Y-101971658D01*
X137181955Y-102079721D01*
X137288055Y-102152215D01*
X137414000Y-102177720D01*
X139446000Y-102177720D01*
X139563658Y-102155581D01*
X139671721Y-102086045D01*
X139744215Y-101979945D01*
X139769720Y-101854000D01*
X139769720Y-101346000D01*
X141535280Y-101346000D01*
X141535280Y-101854000D01*
X141557419Y-101971658D01*
X141626955Y-102079721D01*
X141733055Y-102152215D01*
X141859000Y-102177720D01*
X143891000Y-102177720D01*
X144008658Y-102155581D01*
X144116721Y-102086045D01*
X144189215Y-101979945D01*
X144214720Y-101854000D01*
X144214720Y-101346000D01*
X151695280Y-101346000D01*
X151695280Y-101854000D01*
X151717419Y-101971658D01*
X151786955Y-102079721D01*
X151893055Y-102152215D01*
X152019000Y-102177720D01*
X154051000Y-102177720D01*
X154168658Y-102155581D01*
X154276721Y-102086045D01*
X154349215Y-101979945D01*
X154374720Y-101854000D01*
X154374720Y-101346000D01*
X154352581Y-101228342D01*
X154283045Y-101120279D01*
X154176945Y-101047785D01*
X154051000Y-101022280D01*
X152019000Y-101022280D01*
X151901342Y-101044419D01*
X151793279Y-101113955D01*
X151720785Y-101220055D01*
X151695280Y-101346000D01*
X144214720Y-101346000D01*
X144192581Y-101228342D01*
X144123045Y-101120279D01*
X144016945Y-101047785D01*
X143891000Y-101022280D01*
X141859000Y-101022280D01*
X141741342Y-101044419D01*
X141633279Y-101113955D01*
X141560785Y-101220055D01*
X141535280Y-101346000D01*
X139769720Y-101346000D01*
X139747581Y-101228342D01*
X139678045Y-101120279D01*
X139571945Y-101047785D01*
X139446000Y-101022280D01*
X137414000Y-101022280D01*
X137296342Y-101044419D01*
X137188279Y-101113955D01*
X137115785Y-101220055D01*
X137090280Y-101346000D01*
X129609720Y-101346000D01*
X129587581Y-101228342D01*
X129518045Y-101120279D01*
X129411945Y-101047785D01*
X129286000Y-101022280D01*
X127254000Y-101022280D01*
X127136342Y-101044419D01*
X127028279Y-101113955D01*
X126955785Y-101220055D01*
X126930280Y-101346000D01*
X126930280Y-101817500D01*
X126492000Y-101817500D01*
X126332229Y-101849280D01*
X126196783Y-101939783D01*
X125773696Y-102362870D01*
X125710336Y-102209528D01*
X125382199Y-101880819D01*
X124953249Y-101702703D01*
X124488789Y-101702297D01*
X124059528Y-101879664D01*
X123730819Y-102207801D01*
X123552703Y-102636751D01*
X123552297Y-103101211D01*
X123729664Y-103530472D01*
X123921358Y-103722500D01*
X123010730Y-103722500D01*
X122910336Y-103479528D01*
X122582199Y-103150819D01*
X122153249Y-102972703D01*
X121688789Y-102972297D01*
X121259528Y-103149664D01*
X120930819Y-103477801D01*
X120752703Y-103906751D01*
X120752297Y-104371211D01*
X120006599Y-104371211D01*
X120012749Y-101831211D01*
X120752297Y-101831211D01*
X120929664Y-102260472D01*
X121257801Y-102589181D01*
X121686751Y-102767297D01*
X122151211Y-102767703D01*
X122580472Y-102590336D01*
X122909181Y-102262199D01*
X123087297Y-101833249D01*
X123087703Y-101368789D01*
X122910336Y-100939528D01*
X122582199Y-100610819D01*
X122153249Y-100432703D01*
X121688789Y-100432297D01*
X121259528Y-100609664D01*
X120930819Y-100937801D01*
X120752703Y-101366751D01*
X120752297Y-101831211D01*
X120012749Y-101831211D01*
X120037349Y-91671211D01*
X120752297Y-91671211D01*
X120929664Y-92100472D01*
X121257801Y-92429181D01*
X121686751Y-92607297D01*
X122151211Y-92607703D01*
X122580472Y-92430336D01*
X122909181Y-92102199D01*
X123010789Y-91857500D01*
X123921452Y-91857500D01*
X123730819Y-92047801D01*
X123552703Y-92476751D01*
X123552297Y-92941211D01*
X123729664Y-93370472D01*
X123921358Y-93562500D01*
X123010730Y-93562500D01*
X122910336Y-93319528D01*
X122582199Y-92990819D01*
X122153249Y-92812703D01*
X121688789Y-92812297D01*
X121259528Y-92989664D01*
X120930819Y-93317801D01*
X120752703Y-93746751D01*
X120752297Y-94211211D01*
X120929664Y-94640472D01*
X121257801Y-94969181D01*
X121686751Y-95147297D01*
X122151211Y-95147703D01*
X122580472Y-94970336D01*
X122909181Y-94642199D01*
X123010789Y-94397500D01*
X123921452Y-94397500D01*
X123730819Y-94587801D01*
X123552703Y-95016751D01*
X123552297Y-95481211D01*
X123729664Y-95910472D01*
X123921358Y-96102500D01*
X123010730Y-96102500D01*
X122910336Y-95859528D01*
X122582199Y-95530819D01*
X122153249Y-95352703D01*
X121688789Y-95352297D01*
X121259528Y-95529664D01*
X120930819Y-95857801D01*
X120752703Y-96286751D01*
X120752297Y-96751211D01*
X120929664Y-97180472D01*
X121257801Y-97509181D01*
X121686751Y-97687297D01*
X122151211Y-97687703D01*
X122580472Y-97510336D01*
X122909181Y-97182199D01*
X123010789Y-96937500D01*
X123921452Y-96937500D01*
X123730819Y-97127801D01*
X123552703Y-97556751D01*
X123552297Y-98021211D01*
X123729664Y-98450472D01*
X123921358Y-98642500D01*
X123010730Y-98642500D01*
X122910336Y-98399528D01*
X122582199Y-98070819D01*
X122153249Y-97892703D01*
X121688789Y-97892297D01*
X121259528Y-98069664D01*
X120930819Y-98397801D01*
X120752703Y-98826751D01*
X120752297Y-99291211D01*
X120929664Y-99720472D01*
X121257801Y-100049181D01*
X121686751Y-100227297D01*
X122151211Y-100227703D01*
X122580472Y-100050336D01*
X122909181Y-99722199D01*
X123010789Y-99477500D01*
X123921452Y-99477500D01*
X123730819Y-99667801D01*
X123552703Y-100096751D01*
X123552297Y-100561211D01*
X123729664Y-100990472D01*
X124057801Y-101319181D01*
X124486751Y-101497297D01*
X124951211Y-101497703D01*
X125380472Y-101320336D01*
X125709181Y-100992199D01*
X125810789Y-100747500D01*
X126981917Y-100747500D01*
X127021955Y-100809721D01*
X127128055Y-100882215D01*
X127254000Y-100907720D01*
X129286000Y-100907720D01*
X129403658Y-100885581D01*
X129511721Y-100816045D01*
X129584215Y-100709945D01*
X129609720Y-100584000D01*
X129609720Y-100076000D01*
X129587581Y-99958342D01*
X129518045Y-99850279D01*
X129411945Y-99777785D01*
X129286000Y-99752280D01*
X127254000Y-99752280D01*
X127136342Y-99774419D01*
X127028279Y-99843955D01*
X126981445Y-99912500D01*
X125810730Y-99912500D01*
X125710336Y-99669528D01*
X125518642Y-99477500D01*
X126981917Y-99477500D01*
X127021955Y-99539721D01*
X127128055Y-99612215D01*
X127254000Y-99637720D01*
X129286000Y-99637720D01*
X129403658Y-99615581D01*
X129511721Y-99546045D01*
X129584215Y-99439945D01*
X129609720Y-99314000D01*
X129609720Y-98806000D01*
X129587581Y-98688342D01*
X129518045Y-98580279D01*
X129411945Y-98507785D01*
X129286000Y-98482280D01*
X127254000Y-98482280D01*
X127136342Y-98504419D01*
X127028279Y-98573955D01*
X126981445Y-98642500D01*
X125518548Y-98642500D01*
X125709181Y-98452199D01*
X125810789Y-98207500D01*
X126981917Y-98207500D01*
X127021955Y-98269721D01*
X127128055Y-98342215D01*
X127254000Y-98367720D01*
X129286000Y-98367720D01*
X129403658Y-98345581D01*
X129511721Y-98276045D01*
X129584215Y-98169945D01*
X129609720Y-98044000D01*
X129609720Y-97536000D01*
X129587581Y-97418342D01*
X129518045Y-97310279D01*
X129411945Y-97237785D01*
X129286000Y-97212280D01*
X127254000Y-97212280D01*
X127136342Y-97234419D01*
X127028279Y-97303955D01*
X126981445Y-97372500D01*
X125810730Y-97372500D01*
X125710336Y-97129528D01*
X125518642Y-96937500D01*
X126981917Y-96937500D01*
X127021955Y-96999721D01*
X127128055Y-97072215D01*
X127254000Y-97097720D01*
X129286000Y-97097720D01*
X129403658Y-97075581D01*
X129511721Y-97006045D01*
X129584215Y-96899945D01*
X129609720Y-96774000D01*
X129609720Y-96266000D01*
X129587581Y-96148342D01*
X129518045Y-96040279D01*
X129411945Y-95967785D01*
X129286000Y-95942280D01*
X127254000Y-95942280D01*
X127136342Y-95964419D01*
X127028279Y-96033955D01*
X126981445Y-96102500D01*
X125518548Y-96102500D01*
X125709181Y-95912199D01*
X125887297Y-95483249D01*
X125887703Y-95018789D01*
X125878287Y-94996000D01*
X126930280Y-94996000D01*
X126930280Y-95504000D01*
X126952419Y-95621658D01*
X127021955Y-95729721D01*
X127128055Y-95802215D01*
X127254000Y-95827720D01*
X129063709Y-95827720D01*
X129279644Y-95917384D01*
X129545191Y-95917616D01*
X129790614Y-95816209D01*
X129978549Y-95628602D01*
X130080384Y-95383356D01*
X130080616Y-95117809D01*
X129979209Y-94872386D01*
X129791602Y-94684451D01*
X129546356Y-94582616D01*
X129280809Y-94582384D01*
X129063245Y-94672280D01*
X127254000Y-94672280D01*
X127136342Y-94694419D01*
X127028279Y-94763955D01*
X126955785Y-94870055D01*
X126930280Y-94996000D01*
X125878287Y-94996000D01*
X125710336Y-94589528D01*
X125518642Y-94397500D01*
X126981917Y-94397500D01*
X127021955Y-94459721D01*
X127128055Y-94532215D01*
X127254000Y-94557720D01*
X129286000Y-94557720D01*
X129403658Y-94535581D01*
X129511721Y-94466045D01*
X129584215Y-94359945D01*
X129609720Y-94234000D01*
X129609720Y-93726000D01*
X129587581Y-93608342D01*
X129518045Y-93500279D01*
X129411945Y-93427785D01*
X129286000Y-93402280D01*
X127254000Y-93402280D01*
X127136342Y-93424419D01*
X127028279Y-93493955D01*
X126981445Y-93562500D01*
X125518548Y-93562500D01*
X125709181Y-93372199D01*
X125810789Y-93127500D01*
X126981917Y-93127500D01*
X127021955Y-93189721D01*
X127128055Y-93262215D01*
X127254000Y-93287720D01*
X129286000Y-93287720D01*
X129403658Y-93265581D01*
X129511721Y-93196045D01*
X129584215Y-93089945D01*
X129609720Y-92964000D01*
X129609720Y-92456000D01*
X129587581Y-92338342D01*
X129518045Y-92230279D01*
X129411945Y-92157785D01*
X129286000Y-92132280D01*
X127254000Y-92132280D01*
X127136342Y-92154419D01*
X127028279Y-92223955D01*
X126981445Y-92292500D01*
X125810730Y-92292500D01*
X125710336Y-92049528D01*
X125518642Y-91857500D01*
X126981917Y-91857500D01*
X127021955Y-91919721D01*
X127128055Y-91992215D01*
X127254000Y-92017720D01*
X129286000Y-92017720D01*
X129403658Y-91995581D01*
X129511721Y-91926045D01*
X129584215Y-91819945D01*
X129609720Y-91694000D01*
X129609720Y-91186000D01*
X129587581Y-91068342D01*
X129518045Y-90960279D01*
X129411945Y-90887785D01*
X129286000Y-90862280D01*
X127254000Y-90862280D01*
X127136342Y-90884419D01*
X127028279Y-90953955D01*
X126981445Y-91022500D01*
X125518548Y-91022500D01*
X125709181Y-90832199D01*
X125810789Y-90587500D01*
X126981917Y-90587500D01*
X127021955Y-90649721D01*
X127128055Y-90722215D01*
X127254000Y-90747720D01*
X129286000Y-90747720D01*
X129403658Y-90725581D01*
X129511721Y-90656045D01*
X129584215Y-90549945D01*
X129609720Y-90424000D01*
X129609720Y-89916000D01*
X129587581Y-89798342D01*
X129518045Y-89690279D01*
X129411945Y-89617785D01*
X129286000Y-89592280D01*
X127254000Y-89592280D01*
X127136342Y-89614419D01*
X127028279Y-89683955D01*
X126981445Y-89752500D01*
X125810730Y-89752500D01*
X125710336Y-89509528D01*
X125382199Y-89180819D01*
X124953249Y-89002703D01*
X124488789Y-89002297D01*
X124059528Y-89179664D01*
X123730819Y-89507801D01*
X123552703Y-89936751D01*
X123552297Y-90401211D01*
X123729664Y-90830472D01*
X123921358Y-91022500D01*
X123010730Y-91022500D01*
X122910336Y-90779528D01*
X122582199Y-90450819D01*
X122153249Y-90272703D01*
X121688789Y-90272297D01*
X121259528Y-90449664D01*
X120930819Y-90777801D01*
X120752703Y-91206751D01*
X120752297Y-91671211D01*
X120037349Y-91671211D01*
X120043499Y-89131211D01*
X120752297Y-89131211D01*
X120929664Y-89560472D01*
X121257801Y-89889181D01*
X121686751Y-90067297D01*
X122151211Y-90067703D01*
X122580472Y-89890336D01*
X122909181Y-89562199D01*
X123087297Y-89133249D01*
X123087703Y-88668789D01*
X123033937Y-88538663D01*
X124080744Y-88538663D01*
X124183452Y-88692593D01*
X124630931Y-88817036D01*
X125091970Y-88760763D01*
X125256548Y-88692593D01*
X125359256Y-88538663D01*
X124720000Y-87899408D01*
X124080744Y-88538663D01*
X123033937Y-88538663D01*
X122910336Y-88239528D01*
X122582199Y-87910819D01*
X122153249Y-87732703D01*
X121688789Y-87732297D01*
X121259528Y-87909664D01*
X120930819Y-88237801D01*
X120752703Y-88666751D01*
X120752297Y-89131211D01*
X120043499Y-89131211D01*
X120047349Y-87540931D01*
X123532964Y-87540931D01*
X123589237Y-88001970D01*
X123657407Y-88166548D01*
X123811337Y-88269256D01*
X124450592Y-87630000D01*
X124989408Y-87630000D01*
X125628663Y-88269256D01*
X125782593Y-88166548D01*
X125907036Y-87719069D01*
X125850763Y-87258030D01*
X125782593Y-87093452D01*
X125628663Y-86990744D01*
X124989408Y-87630000D01*
X124450592Y-87630000D01*
X123811337Y-86990744D01*
X123657407Y-87093452D01*
X123532964Y-87540931D01*
X120047349Y-87540931D01*
X120060310Y-82188663D01*
X121280744Y-82188663D01*
X121383452Y-82342593D01*
X121830931Y-82467036D01*
X122291970Y-82410763D01*
X122456548Y-82342593D01*
X122559256Y-82188663D01*
X121920000Y-81549408D01*
X121280744Y-82188663D01*
X120060310Y-82188663D01*
X120062726Y-81190931D01*
X120732964Y-81190931D01*
X120789237Y-81651970D01*
X120857407Y-81816548D01*
X121011337Y-81919256D01*
X121650592Y-81280000D01*
X122189408Y-81280000D01*
X122828663Y-81919256D01*
X122982593Y-81816548D01*
X123107036Y-81369069D01*
X123050763Y-80908030D01*
X122982593Y-80743452D01*
X122828663Y-80640744D01*
X122189408Y-81280000D01*
X121650592Y-81280000D01*
X121011337Y-80640744D01*
X120857407Y-80743452D01*
X120732964Y-81190931D01*
X120062726Y-81190931D01*
X120064710Y-80371337D01*
X121280744Y-80371337D01*
X121920000Y-81010592D01*
X122559256Y-80371337D01*
X122456548Y-80217407D01*
X122009069Y-80092964D01*
X121548030Y-80149237D01*
X121383452Y-80217407D01*
X121280744Y-80371337D01*
X120064710Y-80371337D01*
X120074250Y-76431211D01*
X120752297Y-76431211D01*
X120929664Y-76860472D01*
X121257801Y-77189181D01*
X121686751Y-77367297D01*
X122151211Y-77367703D01*
X122580472Y-77190336D01*
X122909181Y-76862199D01*
X123010789Y-76617500D01*
X123921452Y-76617500D01*
X123730819Y-76807801D01*
X123552703Y-77236751D01*
X123552297Y-77701211D01*
X123729664Y-78130472D01*
X123921358Y-78322500D01*
X123010730Y-78322500D01*
X122910336Y-78079528D01*
X122582199Y-77750819D01*
X122153249Y-77572703D01*
X121688789Y-77572297D01*
X121259528Y-77749664D01*
X120930819Y-78077801D01*
X120752703Y-78506751D01*
X120752297Y-78971211D01*
X120929664Y-79400472D01*
X121257801Y-79729181D01*
X121686751Y-79907297D01*
X122151211Y-79907703D01*
X122580472Y-79730336D01*
X122909181Y-79402199D01*
X123010789Y-79157500D01*
X123921452Y-79157500D01*
X123730819Y-79347801D01*
X123552703Y-79776751D01*
X123552297Y-80241211D01*
X123729664Y-80670472D01*
X124057801Y-80999181D01*
X124486751Y-81177297D01*
X124951211Y-81177703D01*
X125380472Y-81000336D01*
X125709181Y-80672199D01*
X125810789Y-80427500D01*
X126954066Y-80427500D01*
X133694500Y-87167934D01*
X133694500Y-87193566D01*
X128755717Y-82254783D01*
X128620271Y-82164280D01*
X128460500Y-82132500D01*
X125810730Y-82132500D01*
X125710336Y-81889528D01*
X125382199Y-81560819D01*
X124953249Y-81382703D01*
X124488789Y-81382297D01*
X124059528Y-81559664D01*
X123730819Y-81887801D01*
X123552703Y-82316751D01*
X123552297Y-82781211D01*
X123729664Y-83210472D01*
X123921358Y-83402500D01*
X123010730Y-83402500D01*
X122910336Y-83159528D01*
X122582199Y-82830819D01*
X122153249Y-82652703D01*
X121688789Y-82652297D01*
X121259528Y-82829664D01*
X120930819Y-83157801D01*
X120752703Y-83586751D01*
X120752297Y-84051211D01*
X120929664Y-84480472D01*
X121257801Y-84809181D01*
X121686751Y-84987297D01*
X122151211Y-84987703D01*
X122580472Y-84810336D01*
X122909181Y-84482199D01*
X123010789Y-84237500D01*
X123921452Y-84237500D01*
X123730819Y-84427801D01*
X123552703Y-84856751D01*
X123552297Y-85321211D01*
X123729664Y-85750472D01*
X123921358Y-85942500D01*
X123010730Y-85942500D01*
X122910336Y-85699528D01*
X122582199Y-85370819D01*
X122153249Y-85192703D01*
X121688789Y-85192297D01*
X121259528Y-85369664D01*
X120930819Y-85697801D01*
X120752703Y-86126751D01*
X120752297Y-86591211D01*
X120929664Y-87020472D01*
X121257801Y-87349181D01*
X121686751Y-87527297D01*
X122151211Y-87527703D01*
X122580472Y-87350336D01*
X122909181Y-87022199D01*
X123010789Y-86777500D01*
X124136907Y-86777500D01*
X124720000Y-87360592D01*
X125303093Y-86777500D01*
X128541566Y-86777500D01*
X129615632Y-87851566D01*
X129407809Y-87851384D01*
X129162386Y-87952791D01*
X128974451Y-88140398D01*
X128898927Y-88322280D01*
X127254000Y-88322280D01*
X127136342Y-88344419D01*
X127028279Y-88413955D01*
X126955785Y-88520055D01*
X126930280Y-88646000D01*
X126930280Y-89154000D01*
X126952419Y-89271658D01*
X127021955Y-89379721D01*
X127128055Y-89452215D01*
X127254000Y-89477720D01*
X129286000Y-89477720D01*
X129403658Y-89455581D01*
X129511721Y-89386045D01*
X129584215Y-89279945D01*
X129603127Y-89186556D01*
X129672191Y-89186616D01*
X129917614Y-89085209D01*
X130105549Y-88897602D01*
X130207384Y-88652356D01*
X130207566Y-88443500D01*
X130964000Y-89199934D01*
X130964000Y-99060000D01*
X130995780Y-99219771D01*
X131086283Y-99355217D01*
X132356283Y-100625217D01*
X132491729Y-100715720D01*
X132651500Y-100747500D01*
X137141917Y-100747500D01*
X137181955Y-100809721D01*
X137288055Y-100882215D01*
X137414000Y-100907720D01*
X139446000Y-100907720D01*
X139563658Y-100885581D01*
X139671721Y-100816045D01*
X139744215Y-100709945D01*
X139769720Y-100584000D01*
X139769720Y-100076000D01*
X139747581Y-99958342D01*
X139678045Y-99850279D01*
X139571945Y-99777785D01*
X139446000Y-99752280D01*
X137414000Y-99752280D01*
X137296342Y-99774419D01*
X137188279Y-99843955D01*
X137141445Y-99912500D01*
X132824434Y-99912500D01*
X131799000Y-98887066D01*
X131799000Y-98480434D01*
X132673783Y-99355217D01*
X132809229Y-99445720D01*
X132969000Y-99477500D01*
X137141917Y-99477500D01*
X137181955Y-99539721D01*
X137288055Y-99612215D01*
X137414000Y-99637720D01*
X139446000Y-99637720D01*
X139563658Y-99615581D01*
X139671721Y-99546045D01*
X139744215Y-99439945D01*
X139769720Y-99314000D01*
X139769720Y-98806000D01*
X139747581Y-98688342D01*
X139678045Y-98580279D01*
X139571945Y-98507785D01*
X139446000Y-98482280D01*
X137414000Y-98482280D01*
X137296342Y-98504419D01*
X137188279Y-98573955D01*
X137141445Y-98642500D01*
X133141934Y-98642500D01*
X132497500Y-97998066D01*
X132497500Y-97654934D01*
X132927783Y-98085217D01*
X133063229Y-98175720D01*
X133223000Y-98207500D01*
X137141917Y-98207500D01*
X137181955Y-98269721D01*
X137288055Y-98342215D01*
X137414000Y-98367720D01*
X139446000Y-98367720D01*
X139563658Y-98345581D01*
X139671721Y-98276045D01*
X139744215Y-98169945D01*
X139769720Y-98044000D01*
X139769720Y-97536000D01*
X139747581Y-97418342D01*
X139678045Y-97310279D01*
X139571945Y-97237785D01*
X139446000Y-97212280D01*
X137414000Y-97212280D01*
X137296342Y-97234419D01*
X137188279Y-97303955D01*
X137141445Y-97372500D01*
X133395934Y-97372500D01*
X133069000Y-97045566D01*
X133069000Y-95090460D01*
X133118283Y-95164217D01*
X134769283Y-96815217D01*
X134904730Y-96905720D01*
X135064500Y-96937500D01*
X137141917Y-96937500D01*
X137181955Y-96999721D01*
X137288055Y-97072215D01*
X137414000Y-97097720D01*
X139446000Y-97097720D01*
X139563658Y-97075581D01*
X139671721Y-97006045D01*
X139744215Y-96899945D01*
X139769720Y-96774000D01*
X139769720Y-96266000D01*
X139747581Y-96148342D01*
X139678045Y-96040279D01*
X139571945Y-95967785D01*
X139446000Y-95942280D01*
X137414000Y-95942280D01*
X137296342Y-95964419D01*
X137188279Y-96033955D01*
X137141445Y-96102500D01*
X135237434Y-96102500D01*
X134591309Y-95456375D01*
X137096500Y-95456375D01*
X137096500Y-95567155D01*
X137144837Y-95683850D01*
X137234151Y-95773164D01*
X137350846Y-95821500D01*
X138160125Y-95821500D01*
X138239500Y-95742125D01*
X138239500Y-95377000D01*
X138620500Y-95377000D01*
X138620500Y-95742125D01*
X138699875Y-95821500D01*
X139509154Y-95821500D01*
X139625849Y-95773164D01*
X139715163Y-95683850D01*
X139763500Y-95567155D01*
X139763500Y-95456375D01*
X139689316Y-95382191D01*
X140937384Y-95382191D01*
X141038791Y-95627614D01*
X141226398Y-95815549D01*
X141471644Y-95917384D01*
X141737191Y-95917616D01*
X141954755Y-95827720D01*
X143891000Y-95827720D01*
X144008658Y-95805581D01*
X144116721Y-95736045D01*
X144189215Y-95629945D01*
X144214720Y-95504000D01*
X144214720Y-94996000D01*
X144192581Y-94878342D01*
X144123045Y-94770279D01*
X144016945Y-94697785D01*
X143891000Y-94672280D01*
X141954291Y-94672280D01*
X141738356Y-94582616D01*
X141472809Y-94582384D01*
X141227386Y-94683791D01*
X141039451Y-94871398D01*
X140937616Y-95116644D01*
X140937384Y-95382191D01*
X139689316Y-95382191D01*
X139684125Y-95377000D01*
X138620500Y-95377000D01*
X138239500Y-95377000D01*
X137175875Y-95377000D01*
X137096500Y-95456375D01*
X134591309Y-95456375D01*
X134067779Y-94932845D01*
X137096500Y-94932845D01*
X137096500Y-95043625D01*
X137175875Y-95123000D01*
X138239500Y-95123000D01*
X138239500Y-94757875D01*
X138620500Y-94757875D01*
X138620500Y-95123000D01*
X139684125Y-95123000D01*
X139763500Y-95043625D01*
X139763500Y-94932845D01*
X139715163Y-94816150D01*
X139625849Y-94726836D01*
X139509154Y-94678500D01*
X138699875Y-94678500D01*
X138620500Y-94757875D01*
X138239500Y-94757875D01*
X138160125Y-94678500D01*
X137350846Y-94678500D01*
X137234151Y-94726836D01*
X137144837Y-94816150D01*
X137096500Y-94932845D01*
X134067779Y-94932845D01*
X133831000Y-94696066D01*
X133831000Y-93082934D01*
X135023283Y-94275217D01*
X135158729Y-94365720D01*
X135318500Y-94397500D01*
X137141917Y-94397500D01*
X137181955Y-94459721D01*
X137288055Y-94532215D01*
X137414000Y-94557720D01*
X139446000Y-94557720D01*
X139563658Y-94535581D01*
X139671721Y-94466045D01*
X139744215Y-94359945D01*
X139769720Y-94234000D01*
X139769720Y-93726000D01*
X139747581Y-93608342D01*
X139678045Y-93500279D01*
X139571945Y-93427785D01*
X139446000Y-93402280D01*
X137414000Y-93402280D01*
X137296342Y-93424419D01*
X137188279Y-93493955D01*
X137141445Y-93562500D01*
X135491434Y-93562500D01*
X134529500Y-92600566D01*
X134529500Y-92574934D01*
X134959783Y-93005217D01*
X135095229Y-93095720D01*
X135255000Y-93127500D01*
X137141917Y-93127500D01*
X137181955Y-93189721D01*
X137288055Y-93262215D01*
X137414000Y-93287720D01*
X139446000Y-93287720D01*
X139563658Y-93265581D01*
X139671721Y-93196045D01*
X139744215Y-93089945D01*
X139769720Y-92964000D01*
X139769720Y-92456000D01*
X139747581Y-92338342D01*
X139678045Y-92230279D01*
X139571945Y-92157785D01*
X139446000Y-92132280D01*
X137414000Y-92132280D01*
X137296342Y-92154419D01*
X137188279Y-92223955D01*
X137141445Y-92292500D01*
X135427934Y-92292500D01*
X135228000Y-92092566D01*
X135228000Y-90860434D01*
X136102783Y-91735217D01*
X136238229Y-91825720D01*
X136398000Y-91857500D01*
X137141917Y-91857500D01*
X137181955Y-91919721D01*
X137288055Y-91992215D01*
X137414000Y-92017720D01*
X139446000Y-92017720D01*
X139563658Y-91995581D01*
X139671721Y-91926045D01*
X139744215Y-91819945D01*
X139769720Y-91694000D01*
X139769720Y-91186000D01*
X139747581Y-91068342D01*
X139678045Y-90960279D01*
X139571945Y-90887785D01*
X139446000Y-90862280D01*
X137414000Y-90862280D01*
X137296342Y-90884419D01*
X137188279Y-90953955D01*
X137141445Y-91022500D01*
X136570934Y-91022500D01*
X135926500Y-90378066D01*
X135926500Y-89946960D01*
X135975783Y-90020717D01*
X136420283Y-90465217D01*
X136555729Y-90555720D01*
X136715500Y-90587500D01*
X137141917Y-90587500D01*
X137181955Y-90649721D01*
X137288055Y-90722215D01*
X137414000Y-90747720D01*
X139446000Y-90747720D01*
X139563658Y-90725581D01*
X139671721Y-90656045D01*
X139744215Y-90549945D01*
X139769720Y-90424000D01*
X139769720Y-89916000D01*
X141535280Y-89916000D01*
X141535280Y-90424000D01*
X141557419Y-90541658D01*
X141626955Y-90649721D01*
X141733055Y-90722215D01*
X141859000Y-90747720D01*
X143891000Y-90747720D01*
X144008658Y-90725581D01*
X144116721Y-90656045D01*
X144163555Y-90587500D01*
X145224500Y-90587500D01*
X145384271Y-90555720D01*
X145519717Y-90465217D01*
X146077000Y-89907934D01*
X146077000Y-90695566D01*
X145750066Y-91022500D01*
X144163083Y-91022500D01*
X144123045Y-90960279D01*
X144016945Y-90887785D01*
X143891000Y-90862280D01*
X141859000Y-90862280D01*
X141741342Y-90884419D01*
X141633279Y-90953955D01*
X141560785Y-91060055D01*
X141535280Y-91186000D01*
X141535280Y-91694000D01*
X141557419Y-91811658D01*
X141626955Y-91919721D01*
X141733055Y-91992215D01*
X141859000Y-92017720D01*
X143891000Y-92017720D01*
X144008658Y-91995581D01*
X144116721Y-91926045D01*
X144163555Y-91857500D01*
X145923000Y-91857500D01*
X146082771Y-91825720D01*
X146218217Y-91735217D01*
X146648500Y-91304934D01*
X146648500Y-91775066D01*
X146131066Y-92292500D01*
X144163083Y-92292500D01*
X144123045Y-92230279D01*
X144016945Y-92157785D01*
X143891000Y-92132280D01*
X141859000Y-92132280D01*
X141741342Y-92154419D01*
X141633279Y-92223955D01*
X141560785Y-92330055D01*
X141535280Y-92456000D01*
X141535280Y-92964000D01*
X141557419Y-93081658D01*
X141626955Y-93189721D01*
X141733055Y-93262215D01*
X141859000Y-93287720D01*
X143891000Y-93287720D01*
X144008658Y-93265581D01*
X144116721Y-93196045D01*
X144163555Y-93127500D01*
X146304000Y-93127500D01*
X146463771Y-93095720D01*
X146599217Y-93005217D01*
X147220000Y-92384434D01*
X147220000Y-92600566D01*
X146258066Y-93562500D01*
X144163083Y-93562500D01*
X144123045Y-93500279D01*
X144016945Y-93427785D01*
X143891000Y-93402280D01*
X141859000Y-93402280D01*
X141741342Y-93424419D01*
X141633279Y-93493955D01*
X141560785Y-93600055D01*
X141535280Y-93726000D01*
X141535280Y-94234000D01*
X141557419Y-94351658D01*
X141626955Y-94459721D01*
X141733055Y-94532215D01*
X141859000Y-94557720D01*
X143891000Y-94557720D01*
X144008658Y-94535581D01*
X144116721Y-94466045D01*
X144163555Y-94397500D01*
X146431000Y-94397500D01*
X146590771Y-94365720D01*
X146726217Y-94275217D01*
X147855000Y-93146434D01*
X147855000Y-94061066D01*
X145813566Y-96102500D01*
X144163083Y-96102500D01*
X144123045Y-96040279D01*
X144016945Y-95967785D01*
X143891000Y-95942280D01*
X141859000Y-95942280D01*
X141741342Y-95964419D01*
X141633279Y-96033955D01*
X141560785Y-96140055D01*
X141535280Y-96266000D01*
X141535280Y-96774000D01*
X141557419Y-96891658D01*
X141626955Y-96999721D01*
X141733055Y-97072215D01*
X141859000Y-97097720D01*
X143891000Y-97097720D01*
X144008658Y-97075581D01*
X144116721Y-97006045D01*
X144163555Y-96937500D01*
X145986500Y-96937500D01*
X146146271Y-96905720D01*
X146281717Y-96815217D01*
X148490000Y-94606934D01*
X148490000Y-94759566D01*
X145877066Y-97372500D01*
X144163083Y-97372500D01*
X144123045Y-97310279D01*
X144016945Y-97237785D01*
X143891000Y-97212280D01*
X141859000Y-97212280D01*
X141741342Y-97234419D01*
X141633279Y-97303955D01*
X141560785Y-97410055D01*
X141535280Y-97536000D01*
X141535280Y-98044000D01*
X141557419Y-98161658D01*
X141626955Y-98269721D01*
X141733055Y-98342215D01*
X141859000Y-98367720D01*
X143891000Y-98367720D01*
X144008658Y-98345581D01*
X144116721Y-98276045D01*
X144163555Y-98207500D01*
X146050000Y-98207500D01*
X146209771Y-98175720D01*
X146345217Y-98085217D01*
X149188500Y-95241934D01*
X149188500Y-95394566D01*
X145940566Y-98642500D01*
X144163083Y-98642500D01*
X144123045Y-98580279D01*
X144016945Y-98507785D01*
X143891000Y-98482280D01*
X141859000Y-98482280D01*
X141741342Y-98504419D01*
X141633279Y-98573955D01*
X141560785Y-98680055D01*
X141535280Y-98806000D01*
X141535280Y-99314000D01*
X141557419Y-99431658D01*
X141626955Y-99539721D01*
X141733055Y-99612215D01*
X141859000Y-99637720D01*
X143891000Y-99637720D01*
X144008658Y-99615581D01*
X144116721Y-99546045D01*
X144163555Y-99477500D01*
X146113500Y-99477500D01*
X146273271Y-99445720D01*
X146408717Y-99355217D01*
X149887000Y-95876934D01*
X149887000Y-95966066D01*
X145940566Y-99912500D01*
X144163083Y-99912500D01*
X144123045Y-99850279D01*
X144016945Y-99777785D01*
X143891000Y-99752280D01*
X141859000Y-99752280D01*
X141741342Y-99774419D01*
X141633279Y-99843955D01*
X141560785Y-99950055D01*
X141535280Y-100076000D01*
X141535280Y-100584000D01*
X141557419Y-100701658D01*
X141626955Y-100809721D01*
X141733055Y-100882215D01*
X141859000Y-100907720D01*
X143891000Y-100907720D01*
X144008658Y-100885581D01*
X144116721Y-100816045D01*
X144163555Y-100747500D01*
X146113500Y-100747500D01*
X146273271Y-100715720D01*
X146408717Y-100625217D01*
X150599717Y-96434217D01*
X150690220Y-96298771D01*
X150696738Y-96266000D01*
X151695280Y-96266000D01*
X151695280Y-96774000D01*
X151717419Y-96891658D01*
X151786955Y-96999721D01*
X151893055Y-97072215D01*
X152019000Y-97097720D01*
X154051000Y-97097720D01*
X154168658Y-97075581D01*
X154276721Y-97006045D01*
X154323555Y-96937500D01*
X155243270Y-96937500D01*
X155343664Y-97180472D01*
X155535358Y-97372500D01*
X154323083Y-97372500D01*
X154283045Y-97310279D01*
X154176945Y-97237785D01*
X154051000Y-97212280D01*
X152019000Y-97212280D01*
X151901342Y-97234419D01*
X151793279Y-97303955D01*
X151720785Y-97410055D01*
X151695280Y-97536000D01*
X151695280Y-98044000D01*
X151717419Y-98161658D01*
X151786955Y-98269721D01*
X151893055Y-98342215D01*
X152019000Y-98367720D01*
X154051000Y-98367720D01*
X154168658Y-98345581D01*
X154276721Y-98276045D01*
X154323555Y-98207500D01*
X155535452Y-98207500D01*
X155344819Y-98397801D01*
X155243211Y-98642500D01*
X154323083Y-98642500D01*
X154283045Y-98580279D01*
X154176945Y-98507785D01*
X154051000Y-98482280D01*
X152019000Y-98482280D01*
X151901342Y-98504419D01*
X151793279Y-98573955D01*
X151720785Y-98680055D01*
X151695280Y-98806000D01*
X151695280Y-99314000D01*
X151717419Y-99431658D01*
X151786955Y-99539721D01*
X151893055Y-99612215D01*
X152019000Y-99637720D01*
X154051000Y-99637720D01*
X154168658Y-99615581D01*
X154276721Y-99546045D01*
X154323555Y-99477500D01*
X155243270Y-99477500D01*
X155343664Y-99720472D01*
X155535358Y-99912500D01*
X154323083Y-99912500D01*
X154283045Y-99850279D01*
X154176945Y-99777785D01*
X154051000Y-99752280D01*
X152019000Y-99752280D01*
X151901342Y-99774419D01*
X151793279Y-99843955D01*
X151720785Y-99950055D01*
X151695280Y-100076000D01*
X151695280Y-100584000D01*
X151717419Y-100701658D01*
X151786955Y-100809721D01*
X151893055Y-100882215D01*
X152019000Y-100907720D01*
X154051000Y-100907720D01*
X154168658Y-100885581D01*
X154276721Y-100816045D01*
X154323555Y-100747500D01*
X155535452Y-100747500D01*
X155344819Y-100937801D01*
X155166703Y-101366751D01*
X155166297Y-101831211D01*
X155343664Y-102260472D01*
X155671801Y-102589181D01*
X156100751Y-102767297D01*
X156565211Y-102767703D01*
X156994472Y-102590336D01*
X157323181Y-102262199D01*
X157501297Y-101833249D01*
X157501703Y-101368789D01*
X157324336Y-100939528D01*
X157132642Y-100747500D01*
X158043270Y-100747500D01*
X158143664Y-100990472D01*
X158471801Y-101319181D01*
X158900751Y-101497297D01*
X159365211Y-101497703D01*
X159794472Y-101320336D01*
X160123181Y-100992199D01*
X160301297Y-100563249D01*
X160301703Y-100098789D01*
X160124336Y-99669528D01*
X159796199Y-99340819D01*
X159367249Y-99162703D01*
X158902789Y-99162297D01*
X158473528Y-99339664D01*
X158144819Y-99667801D01*
X158043211Y-99912500D01*
X157132548Y-99912500D01*
X157323181Y-99722199D01*
X157501297Y-99293249D01*
X157501703Y-98828789D01*
X157324336Y-98399528D01*
X157132642Y-98207500D01*
X158043270Y-98207500D01*
X158143664Y-98450472D01*
X158471801Y-98779181D01*
X158900751Y-98957297D01*
X159365211Y-98957703D01*
X159794472Y-98780336D01*
X160123181Y-98452199D01*
X160301297Y-98023249D01*
X160301703Y-97558789D01*
X160124336Y-97129528D01*
X159796199Y-96800819D01*
X159367249Y-96622703D01*
X158902789Y-96622297D01*
X158473528Y-96799664D01*
X158144819Y-97127801D01*
X158043211Y-97372500D01*
X157132548Y-97372500D01*
X157323181Y-97182199D01*
X157501297Y-96753249D01*
X157501703Y-96288789D01*
X157324336Y-95859528D01*
X156996199Y-95530819D01*
X156876730Y-95481211D01*
X157966297Y-95481211D01*
X158143664Y-95910472D01*
X158471801Y-96239181D01*
X158900751Y-96417297D01*
X159365211Y-96417703D01*
X159794472Y-96240336D01*
X160123181Y-95912199D01*
X160301297Y-95483249D01*
X160301703Y-95018789D01*
X160124336Y-94589528D01*
X159796199Y-94260819D01*
X159367249Y-94082703D01*
X158902789Y-94082297D01*
X158473528Y-94259664D01*
X158144819Y-94587801D01*
X157966703Y-95016751D01*
X157966297Y-95481211D01*
X156876730Y-95481211D01*
X156567249Y-95352703D01*
X156102789Y-95352297D01*
X155673528Y-95529664D01*
X155344819Y-95857801D01*
X155243211Y-96102500D01*
X154323083Y-96102500D01*
X154283045Y-96040279D01*
X154176945Y-95967785D01*
X154051000Y-95942280D01*
X152019000Y-95942280D01*
X151901342Y-95964419D01*
X151793279Y-96033955D01*
X151720785Y-96140055D01*
X151695280Y-96266000D01*
X150696738Y-96266000D01*
X150722000Y-96139000D01*
X150722000Y-95456375D01*
X151701500Y-95456375D01*
X151701500Y-95567155D01*
X151749837Y-95683850D01*
X151839151Y-95773164D01*
X151955846Y-95821500D01*
X152765125Y-95821500D01*
X152844500Y-95742125D01*
X152844500Y-95377000D01*
X153225500Y-95377000D01*
X153225500Y-95742125D01*
X153304875Y-95821500D01*
X154114154Y-95821500D01*
X154230849Y-95773164D01*
X154320163Y-95683850D01*
X154368500Y-95567155D01*
X154368500Y-95456375D01*
X154289125Y-95377000D01*
X153225500Y-95377000D01*
X152844500Y-95377000D01*
X151780875Y-95377000D01*
X151701500Y-95456375D01*
X150722000Y-95456375D01*
X150722000Y-94932845D01*
X151701500Y-94932845D01*
X151701500Y-95043625D01*
X151780875Y-95123000D01*
X152844500Y-95123000D01*
X152844500Y-94757875D01*
X153225500Y-94757875D01*
X153225500Y-95123000D01*
X154289125Y-95123000D01*
X154368500Y-95043625D01*
X154368500Y-94932845D01*
X154320163Y-94816150D01*
X154230849Y-94726836D01*
X154114154Y-94678500D01*
X153304875Y-94678500D01*
X153225500Y-94757875D01*
X152844500Y-94757875D01*
X152765125Y-94678500D01*
X151955846Y-94678500D01*
X151839151Y-94726836D01*
X151749837Y-94816150D01*
X151701500Y-94932845D01*
X150722000Y-94932845D01*
X150722000Y-89916000D01*
X151695280Y-89916000D01*
X151695280Y-90424000D01*
X151717419Y-90541658D01*
X151786955Y-90649721D01*
X151893055Y-90722215D01*
X152019000Y-90747720D01*
X154051000Y-90747720D01*
X154168658Y-90725581D01*
X154276721Y-90656045D01*
X154323555Y-90587500D01*
X155535452Y-90587500D01*
X155344819Y-90777801D01*
X155243211Y-91022500D01*
X154323083Y-91022500D01*
X154283045Y-90960279D01*
X154176945Y-90887785D01*
X154051000Y-90862280D01*
X152019000Y-90862280D01*
X151901342Y-90884419D01*
X151793279Y-90953955D01*
X151720785Y-91060055D01*
X151695280Y-91186000D01*
X151695280Y-91694000D01*
X151717419Y-91811658D01*
X151786955Y-91919721D01*
X151893055Y-91992215D01*
X152019000Y-92017720D01*
X154051000Y-92017720D01*
X154168658Y-91995581D01*
X154276721Y-91926045D01*
X154323555Y-91857500D01*
X155243270Y-91857500D01*
X155343664Y-92100472D01*
X155535358Y-92292500D01*
X154323083Y-92292500D01*
X154283045Y-92230279D01*
X154176945Y-92157785D01*
X154051000Y-92132280D01*
X152019000Y-92132280D01*
X151901342Y-92154419D01*
X151793279Y-92223955D01*
X151720785Y-92330055D01*
X151695280Y-92456000D01*
X151695280Y-92964000D01*
X151717419Y-93081658D01*
X151786955Y-93189721D01*
X151893055Y-93262215D01*
X152019000Y-93287720D01*
X154051000Y-93287720D01*
X154168658Y-93265581D01*
X154276721Y-93196045D01*
X154323555Y-93127500D01*
X155535452Y-93127500D01*
X155344819Y-93317801D01*
X155243211Y-93562500D01*
X154323083Y-93562500D01*
X154283045Y-93500279D01*
X154176945Y-93427785D01*
X154051000Y-93402280D01*
X152019000Y-93402280D01*
X151901342Y-93424419D01*
X151793279Y-93493955D01*
X151720785Y-93600055D01*
X151695280Y-93726000D01*
X151695280Y-94234000D01*
X151717419Y-94351658D01*
X151786955Y-94459721D01*
X151893055Y-94532215D01*
X152019000Y-94557720D01*
X154051000Y-94557720D01*
X154168658Y-94535581D01*
X154276721Y-94466045D01*
X154323555Y-94397500D01*
X155243270Y-94397500D01*
X155343664Y-94640472D01*
X155671801Y-94969181D01*
X156100751Y-95147297D01*
X156565211Y-95147703D01*
X156994472Y-94970336D01*
X157323181Y-94642199D01*
X157501297Y-94213249D01*
X157501703Y-93748789D01*
X157324336Y-93319528D01*
X157132642Y-93127500D01*
X158043270Y-93127500D01*
X158143664Y-93370472D01*
X158471801Y-93699181D01*
X158900751Y-93877297D01*
X159365211Y-93877703D01*
X159794472Y-93700336D01*
X160123181Y-93372199D01*
X160301297Y-92943249D01*
X160301703Y-92478789D01*
X160124336Y-92049528D01*
X159796199Y-91720819D01*
X159367249Y-91542703D01*
X158902789Y-91542297D01*
X158473528Y-91719664D01*
X158144819Y-92047801D01*
X158043211Y-92292500D01*
X157132548Y-92292500D01*
X157323181Y-92102199D01*
X157501297Y-91673249D01*
X157501703Y-91208789D01*
X157324336Y-90779528D01*
X157132642Y-90587500D01*
X158043270Y-90587500D01*
X158143664Y-90830472D01*
X158471801Y-91159181D01*
X158900751Y-91337297D01*
X159365211Y-91337703D01*
X159794472Y-91160336D01*
X160123181Y-90832199D01*
X160301297Y-90403249D01*
X160301703Y-89938789D01*
X160124336Y-89509528D01*
X159796199Y-89180819D01*
X159367249Y-89002703D01*
X158902789Y-89002297D01*
X158473528Y-89179664D01*
X158144819Y-89507801D01*
X158043211Y-89752500D01*
X157132548Y-89752500D01*
X157323181Y-89562199D01*
X157501297Y-89133249D01*
X157501703Y-88668789D01*
X157447937Y-88538663D01*
X158494744Y-88538663D01*
X158597452Y-88692593D01*
X159044931Y-88817036D01*
X159505970Y-88760763D01*
X159670548Y-88692593D01*
X159773256Y-88538663D01*
X159134000Y-87899408D01*
X158494744Y-88538663D01*
X157447937Y-88538663D01*
X157324336Y-88239528D01*
X156996199Y-87910819D01*
X156567249Y-87732703D01*
X156102789Y-87732297D01*
X155673528Y-87909664D01*
X155344819Y-88237801D01*
X155166703Y-88666751D01*
X155166297Y-89131211D01*
X155343664Y-89560472D01*
X155535358Y-89752500D01*
X154323083Y-89752500D01*
X154283045Y-89690279D01*
X154176945Y-89617785D01*
X154051000Y-89592280D01*
X152019000Y-89592280D01*
X151901342Y-89614419D01*
X151793279Y-89683955D01*
X151720785Y-89790055D01*
X151695280Y-89916000D01*
X150722000Y-89916000D01*
X150722000Y-89199934D01*
X150815559Y-89106375D01*
X151701500Y-89106375D01*
X151701500Y-89217155D01*
X151749837Y-89333850D01*
X151839151Y-89423164D01*
X151955846Y-89471500D01*
X152765125Y-89471500D01*
X152844500Y-89392125D01*
X152844500Y-89027000D01*
X153225500Y-89027000D01*
X153225500Y-89392125D01*
X153304875Y-89471500D01*
X154114154Y-89471500D01*
X154230849Y-89423164D01*
X154320163Y-89333850D01*
X154368500Y-89217155D01*
X154368500Y-89106375D01*
X154289125Y-89027000D01*
X153225500Y-89027000D01*
X152844500Y-89027000D01*
X151780875Y-89027000D01*
X151701500Y-89106375D01*
X150815559Y-89106375D01*
X151339089Y-88582845D01*
X151701500Y-88582845D01*
X151701500Y-88693625D01*
X151780875Y-88773000D01*
X152844500Y-88773000D01*
X152844500Y-88407875D01*
X153225500Y-88407875D01*
X153225500Y-88773000D01*
X154289125Y-88773000D01*
X154368500Y-88693625D01*
X154368500Y-88582845D01*
X154320163Y-88466150D01*
X154230849Y-88376836D01*
X154114154Y-88328500D01*
X153304875Y-88328500D01*
X153225500Y-88407875D01*
X152844500Y-88407875D01*
X152765125Y-88328500D01*
X151955846Y-88328500D01*
X151839151Y-88376836D01*
X151749837Y-88466150D01*
X151701500Y-88582845D01*
X151339089Y-88582845D01*
X152381003Y-87540931D01*
X157946964Y-87540931D01*
X158003237Y-88001970D01*
X158071407Y-88166548D01*
X158225337Y-88269256D01*
X158864592Y-87630000D01*
X159403408Y-87630000D01*
X160042663Y-88269256D01*
X160196593Y-88166548D01*
X160321036Y-87719069D01*
X160264763Y-87258030D01*
X160196593Y-87093452D01*
X160042663Y-86990744D01*
X159403408Y-87630000D01*
X158864592Y-87630000D01*
X158225337Y-86990744D01*
X158071407Y-87093452D01*
X157946964Y-87540931D01*
X152381003Y-87540931D01*
X153144434Y-86777500D01*
X155243270Y-86777500D01*
X155343664Y-87020472D01*
X155671801Y-87349181D01*
X156100751Y-87527297D01*
X156565211Y-87527703D01*
X156994472Y-87350336D01*
X157323181Y-87022199D01*
X157448110Y-86721337D01*
X158494744Y-86721337D01*
X159134000Y-87360592D01*
X159773256Y-86721337D01*
X159670548Y-86567407D01*
X159223069Y-86442964D01*
X158762030Y-86499237D01*
X158597452Y-86567407D01*
X158494744Y-86721337D01*
X157448110Y-86721337D01*
X157501297Y-86593249D01*
X157501703Y-86128789D01*
X157324336Y-85699528D01*
X157132642Y-85507500D01*
X158043270Y-85507500D01*
X158143664Y-85750472D01*
X158471801Y-86079181D01*
X158900751Y-86257297D01*
X159365211Y-86257703D01*
X159794472Y-86080336D01*
X160123181Y-85752199D01*
X160301297Y-85323249D01*
X160301703Y-84858789D01*
X160124336Y-84429528D01*
X159796199Y-84100819D01*
X159367249Y-83922703D01*
X158902789Y-83922297D01*
X158473528Y-84099664D01*
X158144819Y-84427801D01*
X158043211Y-84672500D01*
X157132548Y-84672500D01*
X157323181Y-84482199D01*
X157501297Y-84053249D01*
X157501703Y-83588789D01*
X157324336Y-83159528D01*
X157132642Y-82967500D01*
X158043270Y-82967500D01*
X158143664Y-83210472D01*
X158471801Y-83539181D01*
X158900751Y-83717297D01*
X159365211Y-83717703D01*
X159794472Y-83540336D01*
X160123181Y-83212199D01*
X160301297Y-82783249D01*
X160301703Y-82318789D01*
X160124336Y-81889528D01*
X159796199Y-81560819D01*
X159367249Y-81382703D01*
X158902789Y-81382297D01*
X158473528Y-81559664D01*
X158144819Y-81887801D01*
X158043211Y-82132500D01*
X156917093Y-82132500D01*
X156334000Y-81549408D01*
X155750907Y-82132500D01*
X153098500Y-82132500D01*
X153088431Y-82134503D01*
X154032003Y-81190931D01*
X155146964Y-81190931D01*
X155203237Y-81651970D01*
X155271407Y-81816548D01*
X155425337Y-81919256D01*
X156064592Y-81280000D01*
X156603408Y-81280000D01*
X157242663Y-81919256D01*
X157396593Y-81816548D01*
X157521036Y-81369069D01*
X157464763Y-80908030D01*
X157396593Y-80743452D01*
X157242663Y-80640744D01*
X156603408Y-81280000D01*
X156064592Y-81280000D01*
X155425337Y-80640744D01*
X155271407Y-80743452D01*
X155146964Y-81190931D01*
X154032003Y-81190931D01*
X154795434Y-80427500D01*
X155750907Y-80427500D01*
X156334000Y-81010592D01*
X156917093Y-80427500D01*
X158043270Y-80427500D01*
X158143664Y-80670472D01*
X158471801Y-80999181D01*
X158900751Y-81177297D01*
X159365211Y-81177703D01*
X159794472Y-81000336D01*
X160123181Y-80672199D01*
X160301297Y-80243249D01*
X160301703Y-79778789D01*
X160124336Y-79349528D01*
X159796199Y-79020819D01*
X159367249Y-78842703D01*
X158902789Y-78842297D01*
X158473528Y-79019664D01*
X158144819Y-79347801D01*
X158043211Y-79592500D01*
X157132548Y-79592500D01*
X157323181Y-79402199D01*
X157501297Y-78973249D01*
X157501703Y-78508789D01*
X157324336Y-78079528D01*
X157132642Y-77887500D01*
X158043270Y-77887500D01*
X158143664Y-78130472D01*
X158471801Y-78459181D01*
X158900751Y-78637297D01*
X159365211Y-78637703D01*
X159794472Y-78460336D01*
X160123181Y-78132199D01*
X160301297Y-77703249D01*
X160301703Y-77238789D01*
X160124336Y-76809528D01*
X159796199Y-76480819D01*
X159367249Y-76302703D01*
X158902789Y-76302297D01*
X158473528Y-76479664D01*
X158144819Y-76807801D01*
X158043211Y-77052500D01*
X157132548Y-77052500D01*
X157323181Y-76862199D01*
X157501297Y-76433249D01*
X157501703Y-75968789D01*
X157324336Y-75539528D01*
X156996199Y-75210819D01*
X156567249Y-75032703D01*
X156102789Y-75032297D01*
X155673528Y-75209664D01*
X155344819Y-75537801D01*
X155243211Y-75782500D01*
X154559000Y-75782500D01*
X154399229Y-75814280D01*
X154263783Y-75904783D01*
X145564283Y-84604283D01*
X145473780Y-84739729D01*
X145473780Y-84739730D01*
X145442000Y-84899500D01*
X145442000Y-89362066D01*
X145051566Y-89752500D01*
X144163083Y-89752500D01*
X144123045Y-89690279D01*
X144016945Y-89617785D01*
X143891000Y-89592280D01*
X141859000Y-89592280D01*
X141741342Y-89614419D01*
X141633279Y-89683955D01*
X141560785Y-89790055D01*
X141535280Y-89916000D01*
X139769720Y-89916000D01*
X139747581Y-89798342D01*
X139678045Y-89690279D01*
X139571945Y-89617785D01*
X139446000Y-89592280D01*
X137414000Y-89592280D01*
X137296342Y-89614419D01*
X137188279Y-89683955D01*
X137141445Y-89752500D01*
X136888434Y-89752500D01*
X136688500Y-89552566D01*
X136688500Y-89106375D01*
X137096500Y-89106375D01*
X137096500Y-89217155D01*
X137144837Y-89333850D01*
X137234151Y-89423164D01*
X137350846Y-89471500D01*
X138160125Y-89471500D01*
X138239500Y-89392125D01*
X138239500Y-89027000D01*
X138620500Y-89027000D01*
X138620500Y-89392125D01*
X138699875Y-89471500D01*
X139509154Y-89471500D01*
X139625849Y-89423164D01*
X139715163Y-89333850D01*
X139763500Y-89217155D01*
X139763500Y-89106375D01*
X139684125Y-89027000D01*
X138620500Y-89027000D01*
X138239500Y-89027000D01*
X137175875Y-89027000D01*
X137096500Y-89106375D01*
X136688500Y-89106375D01*
X136688500Y-88582845D01*
X137096500Y-88582845D01*
X137096500Y-88693625D01*
X137175875Y-88773000D01*
X138239500Y-88773000D01*
X138239500Y-88407875D01*
X138620500Y-88407875D01*
X138620500Y-88773000D01*
X139684125Y-88773000D01*
X139763500Y-88693625D01*
X139763500Y-88646000D01*
X141535280Y-88646000D01*
X141535280Y-89154000D01*
X141557419Y-89271658D01*
X141626955Y-89379721D01*
X141733055Y-89452215D01*
X141859000Y-89477720D01*
X143891000Y-89477720D01*
X144008658Y-89455581D01*
X144116721Y-89386045D01*
X144189215Y-89279945D01*
X144213404Y-89160497D01*
X144395614Y-89085209D01*
X144583549Y-88897602D01*
X144685384Y-88652356D01*
X144685616Y-88386809D01*
X144584209Y-88141386D01*
X144396602Y-87953451D01*
X144151356Y-87851616D01*
X143885809Y-87851384D01*
X143640386Y-87952791D01*
X143452451Y-88140398D01*
X143391227Y-88287841D01*
X143287910Y-88322280D01*
X141859000Y-88322280D01*
X141741342Y-88344419D01*
X141633279Y-88413955D01*
X141560785Y-88520055D01*
X141535280Y-88646000D01*
X139763500Y-88646000D01*
X139763500Y-88582845D01*
X139715163Y-88466150D01*
X139625849Y-88376836D01*
X139509154Y-88328500D01*
X138699875Y-88328500D01*
X138620500Y-88407875D01*
X138239500Y-88407875D01*
X138160125Y-88328500D01*
X137350846Y-88328500D01*
X137234151Y-88376836D01*
X137144837Y-88466150D01*
X137096500Y-88582845D01*
X136688500Y-88582845D01*
X136688500Y-86629875D01*
X139152500Y-86629875D01*
X139152500Y-87048154D01*
X139200836Y-87164849D01*
X139290150Y-87254163D01*
X139406845Y-87302500D01*
X139700125Y-87302500D01*
X139779500Y-87223125D01*
X139779500Y-86550500D01*
X140160500Y-86550500D01*
X140160500Y-87223125D01*
X140239875Y-87302500D01*
X140533155Y-87302500D01*
X140649850Y-87254163D01*
X140739164Y-87164849D01*
X140787500Y-87048154D01*
X140787500Y-86629875D01*
X140708125Y-86550500D01*
X140160500Y-86550500D01*
X139779500Y-86550500D01*
X139231875Y-86550500D01*
X139152500Y-86629875D01*
X136688500Y-86629875D01*
X136688500Y-85671846D01*
X139152500Y-85671846D01*
X139152500Y-86090125D01*
X139231875Y-86169500D01*
X139779500Y-86169500D01*
X139779500Y-85496875D01*
X140160500Y-85496875D01*
X140160500Y-86169500D01*
X140708125Y-86169500D01*
X140787500Y-86090125D01*
X140787500Y-85735000D01*
X141146280Y-85735000D01*
X141146280Y-86985000D01*
X141168419Y-87102658D01*
X141237955Y-87210721D01*
X141344055Y-87283215D01*
X141470000Y-87308720D01*
X142470000Y-87308720D01*
X142587658Y-87286581D01*
X142695721Y-87217045D01*
X142768215Y-87110945D01*
X142785107Y-87027533D01*
X142880191Y-87027616D01*
X143125614Y-86926209D01*
X143313549Y-86738602D01*
X143415384Y-86493356D01*
X143415616Y-86227809D01*
X143314209Y-85982386D01*
X143126602Y-85794451D01*
X142881356Y-85692616D01*
X142785729Y-85692532D01*
X142771581Y-85617342D01*
X142702045Y-85509279D01*
X142595945Y-85436785D01*
X142470000Y-85411280D01*
X141470000Y-85411280D01*
X141352342Y-85433419D01*
X141244279Y-85502955D01*
X141171785Y-85609055D01*
X141146280Y-85735000D01*
X140787500Y-85735000D01*
X140787500Y-85671846D01*
X140739164Y-85555151D01*
X140649850Y-85465837D01*
X140533155Y-85417500D01*
X140239875Y-85417500D01*
X140160500Y-85496875D01*
X139779500Y-85496875D01*
X139700125Y-85417500D01*
X139406845Y-85417500D01*
X139290150Y-85465837D01*
X139200836Y-85555151D01*
X139152500Y-85671846D01*
X136688500Y-85671846D01*
X136688500Y-85280500D01*
X136656720Y-85120730D01*
X136566217Y-84985283D01*
X134400809Y-82819875D01*
X136852500Y-82819875D01*
X136852500Y-83863154D01*
X136900836Y-83979849D01*
X136990150Y-84069163D01*
X137106845Y-84117500D01*
X138175125Y-84117500D01*
X138254500Y-84038125D01*
X138254500Y-82740500D01*
X138635500Y-82740500D01*
X138635500Y-84038125D01*
X138714875Y-84117500D01*
X139783155Y-84117500D01*
X139899850Y-84069163D01*
X139989164Y-83979849D01*
X140037500Y-83863154D01*
X140037500Y-82819875D01*
X139958125Y-82740500D01*
X138635500Y-82740500D01*
X138254500Y-82740500D01*
X136931875Y-82740500D01*
X136852500Y-82819875D01*
X134400809Y-82819875D01*
X132817780Y-81236846D01*
X136852500Y-81236846D01*
X136852500Y-82280125D01*
X136931875Y-82359500D01*
X138254500Y-82359500D01*
X138254500Y-81061875D01*
X138635500Y-81061875D01*
X138635500Y-82359500D01*
X139958125Y-82359500D01*
X140037500Y-82280125D01*
X140037500Y-81300000D01*
X141896280Y-81300000D01*
X141896280Y-83800000D01*
X141918419Y-83917658D01*
X141987955Y-84025721D01*
X142094055Y-84098215D01*
X142220000Y-84123720D01*
X142860783Y-84123720D01*
X142943791Y-84324614D01*
X143131398Y-84512549D01*
X143376644Y-84614384D01*
X143642191Y-84614616D01*
X143887614Y-84513209D01*
X144075549Y-84325602D01*
X144159378Y-84123720D01*
X144770000Y-84123720D01*
X144887658Y-84101581D01*
X144995721Y-84032045D01*
X145068215Y-83925945D01*
X145093720Y-83800000D01*
X145093720Y-83217553D01*
X145166191Y-83217616D01*
X145411614Y-83116209D01*
X145599549Y-82928602D01*
X145701384Y-82683356D01*
X145701616Y-82417809D01*
X145600209Y-82172386D01*
X145412602Y-81984451D01*
X145167356Y-81882616D01*
X145093720Y-81882552D01*
X145093720Y-81300000D01*
X145071581Y-81182342D01*
X145002045Y-81074279D01*
X144895945Y-81001785D01*
X144770000Y-80976280D01*
X144177544Y-80976280D01*
X144177616Y-80893809D01*
X144076209Y-80648386D01*
X143888602Y-80460451D01*
X143643356Y-80358616D01*
X143377809Y-80358384D01*
X143132386Y-80459791D01*
X142944451Y-80647398D01*
X142842616Y-80892644D01*
X142842543Y-80976280D01*
X142220000Y-80976280D01*
X142102342Y-80998419D01*
X141994279Y-81067955D01*
X141921785Y-81174055D01*
X141896280Y-81300000D01*
X140037500Y-81300000D01*
X140037500Y-81236846D01*
X139989164Y-81120151D01*
X139899850Y-81030837D01*
X139783155Y-80982500D01*
X138714875Y-80982500D01*
X138635500Y-81061875D01*
X138254500Y-81061875D01*
X138175125Y-80982500D01*
X137106845Y-80982500D01*
X136990150Y-81030837D01*
X136900836Y-81120151D01*
X136852500Y-81236846D01*
X132817780Y-81236846D01*
X127485717Y-75904783D01*
X127350271Y-75814280D01*
X127190500Y-75782500D01*
X123010730Y-75782500D01*
X122910336Y-75539528D01*
X122582199Y-75210819D01*
X122153249Y-75032703D01*
X121688789Y-75032297D01*
X121259528Y-75209664D01*
X120930819Y-75537801D01*
X120752703Y-75966751D01*
X120752297Y-76431211D01*
X120074250Y-76431211D01*
X120078437Y-74702365D01*
X120168302Y-74612500D01*
X160972347Y-74612500D01*
X160845653Y-127190303D01*
X160845653Y-127190303D01*
G37*
X160845653Y-127190303D02*
X119951654Y-127063696D01*
X119954323Y-125961211D01*
X123552297Y-125961211D01*
X123729664Y-126390472D01*
X124057801Y-126719181D01*
X124486751Y-126897297D01*
X124951211Y-126897703D01*
X125380472Y-126720336D01*
X125709181Y-126392199D01*
X125887297Y-125963249D01*
X125887703Y-125498789D01*
X125710336Y-125069528D01*
X125382199Y-124740819D01*
X124953249Y-124562703D01*
X124488789Y-124562297D01*
X124059528Y-124739664D01*
X123730819Y-125067801D01*
X123552703Y-125496751D01*
X123552297Y-125961211D01*
X119954323Y-125961211D01*
X119957398Y-124691211D01*
X120752297Y-124691211D01*
X120929664Y-125120472D01*
X121257801Y-125449181D01*
X121686751Y-125627297D01*
X122151211Y-125627703D01*
X122580472Y-125450336D01*
X122909181Y-125122199D01*
X123087297Y-124693249D01*
X123087703Y-124228789D01*
X122910336Y-123799528D01*
X122582199Y-123470819D01*
X122153249Y-123292703D01*
X121688789Y-123292297D01*
X121259528Y-123469664D01*
X120930819Y-123797801D01*
X120752703Y-124226751D01*
X120752297Y-124691211D01*
X119957398Y-124691211D01*
X119963548Y-122151211D01*
X120752297Y-122151211D01*
X120929664Y-122580472D01*
X121257801Y-122909181D01*
X121686751Y-123087297D01*
X122151211Y-123087703D01*
X122580472Y-122910336D01*
X122909181Y-122582199D01*
X123010789Y-122337500D01*
X123921452Y-122337500D01*
X123730819Y-122527801D01*
X123552703Y-122956751D01*
X123552297Y-123421211D01*
X123729664Y-123850472D01*
X124057801Y-124179181D01*
X124486751Y-124357297D01*
X124951211Y-124357703D01*
X125380472Y-124180336D01*
X125709181Y-123852199D01*
X125887297Y-123423249D01*
X125887703Y-122958789D01*
X125710336Y-122529528D01*
X125518642Y-122337500D01*
X132188386Y-122337500D01*
X132209398Y-122358549D01*
X132454644Y-122460384D01*
X132720191Y-122460616D01*
X132965614Y-122359209D01*
X133153549Y-122171602D01*
X133255384Y-121926356D01*
X133255616Y-121660809D01*
X133154209Y-121415386D01*
X132966602Y-121227451D01*
X132721356Y-121125616D01*
X132455809Y-121125384D01*
X132210386Y-121226791D01*
X132022451Y-121414398D01*
X131985868Y-121502500D01*
X125518548Y-121502500D01*
X125709181Y-121312199D01*
X125887297Y-120883249D01*
X125887703Y-120418789D01*
X125869404Y-120374500D01*
X136386643Y-120374500D01*
X136386643Y-126109500D01*
X145807356Y-126109500D01*
X145807356Y-125961211D01*
X157966297Y-125961211D01*
X158143664Y-126390472D01*
X158471801Y-126719181D01*
X158900751Y-126897297D01*
X159365211Y-126897703D01*
X159794472Y-126720336D01*
X160123181Y-126392199D01*
X160301297Y-125963249D01*
X160301703Y-125498789D01*
X160124336Y-125069528D01*
X159796199Y-124740819D01*
X159367249Y-124562703D01*
X158902789Y-124562297D01*
X158473528Y-124739664D01*
X158144819Y-125067801D01*
X157966703Y-125496751D01*
X157966297Y-125961211D01*
X145807356Y-125961211D01*
X145807356Y-120374500D01*
X136386643Y-120374500D01*
X125869404Y-120374500D01*
X125710336Y-119989528D01*
X125382199Y-119660819D01*
X124953249Y-119482703D01*
X124488789Y-119482297D01*
X124059528Y-119659664D01*
X123730819Y-119987801D01*
X123552703Y-120416751D01*
X123552297Y-120881211D01*
X123729664Y-121310472D01*
X123921358Y-121502500D01*
X123010730Y-121502500D01*
X122910336Y-121259528D01*
X122582199Y-120930819D01*
X122153249Y-120752703D01*
X121688789Y-120752297D01*
X121259528Y-120929664D01*
X120930819Y-121257801D01*
X120752703Y-121686751D01*
X120752297Y-122151211D01*
X119963548Y-122151211D01*
X119969698Y-119611211D01*
X120752297Y-119611211D01*
X120929664Y-120040472D01*
X121257801Y-120369181D01*
X121686751Y-120547297D01*
X122151211Y-120547703D01*
X122580472Y-120370336D01*
X122909181Y-120042199D01*
X123087297Y-119613249D01*
X123087703Y-119148789D01*
X122910336Y-118719528D01*
X122582199Y-118390819D01*
X122462730Y-118341211D01*
X123552297Y-118341211D01*
X123729664Y-118770472D01*
X124057801Y-119099181D01*
X124486751Y-119277297D01*
X124951211Y-119277703D01*
X125380472Y-119100336D01*
X125709181Y-118772199D01*
X125887297Y-118343249D01*
X125887703Y-117878789D01*
X125710336Y-117449528D01*
X125382199Y-117120819D01*
X124953249Y-116942703D01*
X124488789Y-116942297D01*
X124059528Y-117119664D01*
X123730819Y-117447801D01*
X123552703Y-117876751D01*
X123552297Y-118341211D01*
X122462730Y-118341211D01*
X122153249Y-118212703D01*
X121688789Y-118212297D01*
X121259528Y-118389664D01*
X120930819Y-118717801D01*
X120752703Y-119146751D01*
X120752297Y-119611211D01*
X119969698Y-119611211D01*
X119975848Y-117071211D01*
X120752297Y-117071211D01*
X120929664Y-117500472D01*
X121257801Y-117829181D01*
X121686751Y-118007297D01*
X122151211Y-118007703D01*
X122580472Y-117830336D01*
X122909181Y-117502199D01*
X123087297Y-117073249D01*
X123087703Y-116608789D01*
X122910336Y-116179528D01*
X122582199Y-115850819D01*
X122462730Y-115801211D01*
X123552297Y-115801211D01*
X123729664Y-116230472D01*
X124057801Y-116559181D01*
X124486751Y-116737297D01*
X124951211Y-116737703D01*
X125380472Y-116560336D01*
X125604005Y-116337191D01*
X127094384Y-116337191D01*
X127195791Y-116582614D01*
X127383398Y-116770549D01*
X127628644Y-116872384D01*
X127724271Y-116872468D01*
X127738419Y-116947658D01*
X127807955Y-117055721D01*
X127914055Y-117128215D01*
X128040000Y-117153720D01*
X129040000Y-117153720D01*
X129157658Y-117131581D01*
X129265721Y-117062045D01*
X129338215Y-116955945D01*
X129363720Y-116830000D01*
X129363720Y-116474875D01*
X129722500Y-116474875D01*
X129722500Y-116893154D01*
X129770836Y-117009849D01*
X129860150Y-117099163D01*
X129976845Y-117147500D01*
X130270125Y-117147500D01*
X130349500Y-117068125D01*
X130349500Y-116395500D01*
X130730500Y-116395500D01*
X130730500Y-117068125D01*
X130809875Y-117147500D01*
X131103155Y-117147500D01*
X131219850Y-117099163D01*
X131309164Y-117009849D01*
X131357500Y-116893154D01*
X131357500Y-116474875D01*
X131278125Y-116395500D01*
X130730500Y-116395500D01*
X130349500Y-116395500D01*
X129801875Y-116395500D01*
X129722500Y-116474875D01*
X129363720Y-116474875D01*
X129363720Y-116337191D01*
X141699384Y-116337191D01*
X141800791Y-116582614D01*
X141988398Y-116770549D01*
X142233644Y-116872384D01*
X142329271Y-116872468D01*
X142343419Y-116947658D01*
X142412955Y-117055721D01*
X142519055Y-117128215D01*
X142645000Y-117153720D01*
X143645000Y-117153720D01*
X143762658Y-117131581D01*
X143870721Y-117062045D01*
X143943215Y-116955945D01*
X143968720Y-116830000D01*
X143968720Y-116474875D01*
X144327500Y-116474875D01*
X144327500Y-116893154D01*
X144375836Y-117009849D01*
X144465150Y-117099163D01*
X144581845Y-117147500D01*
X144875125Y-117147500D01*
X144954500Y-117068125D01*
X144954500Y-116395500D01*
X145335500Y-116395500D01*
X145335500Y-117068125D01*
X145414875Y-117147500D01*
X145708155Y-117147500D01*
X145824850Y-117099163D01*
X145914164Y-117009849D01*
X145962500Y-116893154D01*
X145962500Y-116474875D01*
X145883125Y-116395500D01*
X145335500Y-116395500D01*
X144954500Y-116395500D01*
X144406875Y-116395500D01*
X144327500Y-116474875D01*
X143968720Y-116474875D01*
X143968720Y-115580000D01*
X143956837Y-115516846D01*
X144327500Y-115516846D01*
X144327500Y-115935125D01*
X144406875Y-116014500D01*
X144954500Y-116014500D01*
X144954500Y-115341875D01*
X145335500Y-115341875D01*
X145335500Y-116014500D01*
X145883125Y-116014500D01*
X145962500Y-115935125D01*
X145962500Y-115516846D01*
X145914164Y-115400151D01*
X145824850Y-115310837D01*
X145708155Y-115262500D01*
X145414875Y-115262500D01*
X145335500Y-115341875D01*
X144954500Y-115341875D01*
X144875125Y-115262500D01*
X144581845Y-115262500D01*
X144465150Y-115310837D01*
X144375836Y-115400151D01*
X144327500Y-115516846D01*
X143956837Y-115516846D01*
X143946581Y-115462342D01*
X143877045Y-115354279D01*
X143770945Y-115281785D01*
X143645000Y-115256280D01*
X142645000Y-115256280D01*
X142527342Y-115278419D01*
X142419279Y-115347955D01*
X142346785Y-115454055D01*
X142329893Y-115537467D01*
X142234809Y-115537384D01*
X141989386Y-115638791D01*
X141801451Y-115826398D01*
X141699616Y-116071644D01*
X141699384Y-116337191D01*
X129363720Y-116337191D01*
X129363720Y-115580000D01*
X129351837Y-115516846D01*
X129722500Y-115516846D01*
X129722500Y-115935125D01*
X129801875Y-116014500D01*
X130349500Y-116014500D01*
X130349500Y-115341875D01*
X130730500Y-115341875D01*
X130730500Y-116014500D01*
X131278125Y-116014500D01*
X131357500Y-115935125D01*
X131357500Y-115516846D01*
X131309164Y-115400151D01*
X131219850Y-115310837D01*
X131103155Y-115262500D01*
X130809875Y-115262500D01*
X130730500Y-115341875D01*
X130349500Y-115341875D01*
X130270125Y-115262500D01*
X129976845Y-115262500D01*
X129860150Y-115310837D01*
X129770836Y-115400151D01*
X129722500Y-115516846D01*
X129351837Y-115516846D01*
X129341581Y-115462342D01*
X129272045Y-115354279D01*
X129165945Y-115281785D01*
X129040000Y-115256280D01*
X128040000Y-115256280D01*
X127922342Y-115278419D01*
X127814279Y-115347955D01*
X127741785Y-115454055D01*
X127724893Y-115537467D01*
X127629809Y-115537384D01*
X127384386Y-115638791D01*
X127196451Y-115826398D01*
X127094616Y-116071644D01*
X127094384Y-116337191D01*
X125604005Y-116337191D01*
X125709181Y-116232199D01*
X125887297Y-115803249D01*
X125887703Y-115338789D01*
X125710336Y-114909528D01*
X125614167Y-114813191D01*
X126459384Y-114813191D01*
X126560791Y-115058614D01*
X126748398Y-115246549D01*
X126993644Y-115348384D01*
X127259191Y-115348616D01*
X127504614Y-115247209D01*
X127692549Y-115059602D01*
X127768073Y-114877720D01*
X129286000Y-114877720D01*
X129403658Y-114855581D01*
X129511721Y-114786045D01*
X129584215Y-114679945D01*
X129609720Y-114554000D01*
X129609720Y-114506375D01*
X137096500Y-114506375D01*
X137096500Y-114617155D01*
X137144837Y-114733850D01*
X137234151Y-114823164D01*
X137350846Y-114871500D01*
X138160125Y-114871500D01*
X138239500Y-114792125D01*
X138239500Y-114427000D01*
X138620500Y-114427000D01*
X138620500Y-114792125D01*
X138699875Y-114871500D01*
X139509154Y-114871500D01*
X139625849Y-114823164D01*
X139715163Y-114733850D01*
X139763500Y-114617155D01*
X139763500Y-114506375D01*
X139684125Y-114427000D01*
X138620500Y-114427000D01*
X138239500Y-114427000D01*
X137175875Y-114427000D01*
X137096500Y-114506375D01*
X129609720Y-114506375D01*
X129609720Y-114046000D01*
X129587581Y-113928342D01*
X129518045Y-113820279D01*
X129411945Y-113747785D01*
X129286000Y-113722280D01*
X127254000Y-113722280D01*
X127136342Y-113744419D01*
X127028279Y-113813955D01*
X126955785Y-113920055D01*
X126931596Y-114039503D01*
X126749386Y-114114791D01*
X126561451Y-114302398D01*
X126459616Y-114547644D01*
X126459384Y-114813191D01*
X125614167Y-114813191D01*
X125382199Y-114580819D01*
X124953249Y-114402703D01*
X124488789Y-114402297D01*
X124059528Y-114579664D01*
X123730819Y-114907801D01*
X123552703Y-115336751D01*
X123552297Y-115801211D01*
X122462730Y-115801211D01*
X122153249Y-115672703D01*
X121688789Y-115672297D01*
X121259528Y-115849664D01*
X120930819Y-116177801D01*
X120752703Y-116606751D01*
X120752297Y-117071211D01*
X119975848Y-117071211D01*
X119980358Y-115208663D01*
X121280744Y-115208663D01*
X121383452Y-115362593D01*
X121830931Y-115487036D01*
X122291970Y-115430763D01*
X122456548Y-115362593D01*
X122559256Y-115208663D01*
X121920000Y-114569408D01*
X121280744Y-115208663D01*
X119980358Y-115208663D01*
X119982774Y-114210931D01*
X120732964Y-114210931D01*
X120789237Y-114671970D01*
X120857407Y-114836548D01*
X121011337Y-114939256D01*
X121650592Y-114300000D01*
X122189408Y-114300000D01*
X122828663Y-114939256D01*
X122982593Y-114836548D01*
X123107036Y-114389069D01*
X123050763Y-113928030D01*
X122982593Y-113763452D01*
X122828663Y-113660744D01*
X122189408Y-114300000D01*
X121650592Y-114300000D01*
X121011337Y-113660744D01*
X120857407Y-113763452D01*
X120732964Y-114210931D01*
X119982774Y-114210931D01*
X119984758Y-113391337D01*
X121280744Y-113391337D01*
X121920000Y-114030592D01*
X122559256Y-113391337D01*
X122456548Y-113237407D01*
X122009069Y-113112964D01*
X121548030Y-113169237D01*
X121383452Y-113237407D01*
X121280744Y-113391337D01*
X119984758Y-113391337D01*
X120000448Y-106911211D01*
X120752297Y-106911211D01*
X120929664Y-107340472D01*
X121257801Y-107669181D01*
X121686751Y-107847297D01*
X122151211Y-107847703D01*
X122580472Y-107670336D01*
X122909181Y-107342199D01*
X123087297Y-106913249D01*
X123087703Y-106448789D01*
X122910336Y-106019528D01*
X122582199Y-105690819D01*
X122153249Y-105512703D01*
X121688789Y-105512297D01*
X121259528Y-105689664D01*
X120930819Y-106017801D01*
X120752703Y-106446751D01*
X120752297Y-106911211D01*
X120000448Y-106911211D01*
X120006599Y-104371211D01*
X120752297Y-104371211D01*
X120929664Y-104800472D01*
X121257801Y-105129181D01*
X121686751Y-105307297D01*
X122151211Y-105307703D01*
X122580472Y-105130336D01*
X122909181Y-104802199D01*
X123010789Y-104557500D01*
X123921452Y-104557500D01*
X123730819Y-104747801D01*
X123552703Y-105176751D01*
X123552297Y-105641211D01*
X123729664Y-106070472D01*
X124057801Y-106399181D01*
X124486751Y-106577297D01*
X124951211Y-106577703D01*
X125318360Y-106426000D01*
X126930280Y-106426000D01*
X126930280Y-106934000D01*
X126952419Y-107051658D01*
X127021955Y-107159721D01*
X127128055Y-107232215D01*
X127254000Y-107257720D01*
X129286000Y-107257720D01*
X129403658Y-107235581D01*
X129511721Y-107166045D01*
X129584215Y-107059945D01*
X129609720Y-106934000D01*
X129609720Y-106426000D01*
X129587581Y-106308342D01*
X129518045Y-106200279D01*
X129411945Y-106127785D01*
X129286000Y-106102280D01*
X127254000Y-106102280D01*
X127136342Y-106124419D01*
X127028279Y-106193955D01*
X126955785Y-106300055D01*
X126930280Y-106426000D01*
X125318360Y-106426000D01*
X125380472Y-106400336D01*
X125709181Y-106072199D01*
X125810789Y-105827500D01*
X126981917Y-105827500D01*
X127021955Y-105889721D01*
X127128055Y-105962215D01*
X127254000Y-105987720D01*
X129286000Y-105987720D01*
X129403658Y-105965581D01*
X129511721Y-105896045D01*
X129558555Y-105827500D01*
X133731000Y-105827500D01*
X133890771Y-105795720D01*
X133980023Y-105736083D01*
X134053791Y-105914614D01*
X134241398Y-106102549D01*
X134486644Y-106204384D01*
X134752191Y-106204616D01*
X134997614Y-106103209D01*
X135185549Y-105915602D01*
X135222132Y-105827500D01*
X137141917Y-105827500D01*
X137181955Y-105889721D01*
X137288055Y-105962215D01*
X137414000Y-105987720D01*
X139446000Y-105987720D01*
X139563658Y-105965581D01*
X139671721Y-105896045D01*
X139744215Y-105789945D01*
X139769720Y-105664000D01*
X139769720Y-105435154D01*
X140039783Y-105705217D01*
X140175229Y-105795720D01*
X140335000Y-105827500D01*
X141359066Y-105827500D01*
X140924066Y-106262500D01*
X139718083Y-106262500D01*
X139678045Y-106200279D01*
X139571945Y-106127785D01*
X139446000Y-106102280D01*
X137414000Y-106102280D01*
X137296342Y-106124419D01*
X137188279Y-106193955D01*
X137141445Y-106262500D01*
X136543393Y-106262500D01*
X136395602Y-106114451D01*
X136150356Y-106012616D01*
X135884809Y-106012384D01*
X135639386Y-106113791D01*
X135451451Y-106301398D01*
X135349616Y-106546644D01*
X135349384Y-106812191D01*
X135450791Y-107057614D01*
X135638398Y-107245549D01*
X135883644Y-107347384D01*
X136149191Y-107347616D01*
X136394614Y-107246209D01*
X136543583Y-107097500D01*
X137141917Y-107097500D01*
X137181955Y-107159721D01*
X137288055Y-107232215D01*
X137414000Y-107257720D01*
X139446000Y-107257720D01*
X139563658Y-107235581D01*
X139671721Y-107166045D01*
X139718555Y-107097500D01*
X141097000Y-107097500D01*
X141256771Y-107065720D01*
X141392217Y-106975217D01*
X141535280Y-106832154D01*
X141535280Y-106934000D01*
X141544983Y-106985569D01*
X141508729Y-106992780D01*
X141373283Y-107083283D01*
X140924066Y-107532500D01*
X139718083Y-107532500D01*
X139678045Y-107470279D01*
X139571945Y-107397785D01*
X139446000Y-107372280D01*
X137414000Y-107372280D01*
X137296342Y-107394419D01*
X137188279Y-107463955D01*
X137115785Y-107570055D01*
X137090280Y-107696000D01*
X137090280Y-108204000D01*
X137112419Y-108321658D01*
X137181955Y-108429721D01*
X137288055Y-108502215D01*
X137414000Y-108527720D01*
X139446000Y-108527720D01*
X139563658Y-108505581D01*
X139671721Y-108436045D01*
X139718555Y-108367500D01*
X141097000Y-108367500D01*
X141256771Y-108335720D01*
X141392217Y-108245217D01*
X141535280Y-108102154D01*
X141535280Y-108204000D01*
X141544983Y-108255569D01*
X141508729Y-108262780D01*
X141373283Y-108353283D01*
X140924066Y-108802500D01*
X139718083Y-108802500D01*
X139678045Y-108740279D01*
X139571945Y-108667785D01*
X139446000Y-108642280D01*
X137414000Y-108642280D01*
X137296342Y-108664419D01*
X137188279Y-108733955D01*
X137115785Y-108840055D01*
X137090280Y-108966000D01*
X137090280Y-109437500D01*
X131173434Y-109437500D01*
X130660717Y-108924783D01*
X130525271Y-108834280D01*
X130365500Y-108802500D01*
X129558083Y-108802500D01*
X129518045Y-108740279D01*
X129411945Y-108667785D01*
X129286000Y-108642280D01*
X127393714Y-108642280D01*
X127279154Y-108527720D01*
X129286000Y-108527720D01*
X129403658Y-108505581D01*
X129511721Y-108436045D01*
X129584215Y-108329945D01*
X129609720Y-108204000D01*
X129609720Y-107696000D01*
X129587581Y-107578342D01*
X129518045Y-107470279D01*
X129411945Y-107397785D01*
X129286000Y-107372280D01*
X127254000Y-107372280D01*
X127136342Y-107394419D01*
X127028279Y-107463955D01*
X126955785Y-107570055D01*
X126930280Y-107696000D01*
X126930280Y-108178846D01*
X126406217Y-107654783D01*
X126270771Y-107564280D01*
X126111000Y-107532500D01*
X125810730Y-107532500D01*
X125710336Y-107289528D01*
X125382199Y-106960819D01*
X124953249Y-106782703D01*
X124488789Y-106782297D01*
X124059528Y-106959664D01*
X123730819Y-107287801D01*
X123552703Y-107716751D01*
X123552297Y-108181211D01*
X123729664Y-108610472D01*
X123921358Y-108802500D01*
X123010730Y-108802500D01*
X122910336Y-108559528D01*
X122582199Y-108230819D01*
X122153249Y-108052703D01*
X121688789Y-108052297D01*
X121259528Y-108229664D01*
X120930819Y-108557801D01*
X120752703Y-108986751D01*
X120752297Y-109451211D01*
X120929664Y-109880472D01*
X121257801Y-110209181D01*
X121686751Y-110387297D01*
X122151211Y-110387703D01*
X122580472Y-110210336D01*
X122909181Y-109882199D01*
X123010789Y-109637500D01*
X123921452Y-109637500D01*
X123730819Y-109827801D01*
X123552703Y-110256751D01*
X123552297Y-110721211D01*
X123729664Y-111150472D01*
X123921358Y-111342500D01*
X123010730Y-111342500D01*
X122910336Y-111099528D01*
X122582199Y-110770819D01*
X122153249Y-110592703D01*
X121688789Y-110592297D01*
X121259528Y-110769664D01*
X120930819Y-111097801D01*
X120752703Y-111526751D01*
X120752297Y-111991211D01*
X120929664Y-112420472D01*
X121257801Y-112749181D01*
X121686751Y-112927297D01*
X122151211Y-112927703D01*
X122580472Y-112750336D01*
X122909181Y-112422199D01*
X123010789Y-112177500D01*
X123921452Y-112177500D01*
X123730819Y-112367801D01*
X123552703Y-112796751D01*
X123552297Y-113261211D01*
X123729664Y-113690472D01*
X124057801Y-114019181D01*
X124486751Y-114197297D01*
X124951211Y-114197703D01*
X125380472Y-114020336D01*
X125709181Y-113692199D01*
X125887297Y-113263249D01*
X125887703Y-112798789D01*
X125710336Y-112369528D01*
X125518642Y-112177500D01*
X125874566Y-112177500D01*
X126930280Y-113233214D01*
X126930280Y-113284000D01*
X126952419Y-113401658D01*
X127021955Y-113509721D01*
X127128055Y-113582215D01*
X127254000Y-113607720D01*
X129286000Y-113607720D01*
X129403658Y-113585581D01*
X129511721Y-113516045D01*
X129558555Y-113447500D01*
X130002066Y-113447500D01*
X130514783Y-113960217D01*
X130650229Y-114050720D01*
X130810000Y-114082500D01*
X137096500Y-114082500D01*
X137096500Y-114093625D01*
X137175875Y-114173000D01*
X138239500Y-114173000D01*
X138239500Y-114089500D01*
X138620500Y-114089500D01*
X138620500Y-114173000D01*
X139684125Y-114173000D01*
X139763500Y-114093625D01*
X139763500Y-114082500D01*
X141432536Y-114082500D01*
X141354386Y-114114791D01*
X141166451Y-114302398D01*
X141064616Y-114547644D01*
X141064384Y-114813191D01*
X141165791Y-115058614D01*
X141353398Y-115246549D01*
X141598644Y-115348384D01*
X141864191Y-115348616D01*
X142109614Y-115247209D01*
X142297549Y-115059602D01*
X142373073Y-114877720D01*
X143891000Y-114877720D01*
X144008658Y-114855581D01*
X144116721Y-114786045D01*
X144189215Y-114679945D01*
X144214720Y-114554000D01*
X144214720Y-114506375D01*
X151701500Y-114506375D01*
X151701500Y-114617155D01*
X151749837Y-114733850D01*
X151839151Y-114823164D01*
X151955846Y-114871500D01*
X152765125Y-114871500D01*
X152844500Y-114792125D01*
X152844500Y-114427000D01*
X151780875Y-114427000D01*
X151701500Y-114506375D01*
X144214720Y-114506375D01*
X144214720Y-114046000D01*
X144202837Y-113982845D01*
X151701500Y-113982845D01*
X151701500Y-114093625D01*
X151780875Y-114173000D01*
X152844500Y-114173000D01*
X152844500Y-113807875D01*
X152765125Y-113728500D01*
X151955846Y-113728500D01*
X151839151Y-113776836D01*
X151749837Y-113866150D01*
X151701500Y-113982845D01*
X144202837Y-113982845D01*
X144192581Y-113928342D01*
X144123045Y-113820279D01*
X144016945Y-113747785D01*
X143891000Y-113722280D01*
X142011154Y-113722280D01*
X142125714Y-113607720D01*
X143891000Y-113607720D01*
X144008658Y-113585581D01*
X144116721Y-113516045D01*
X144189215Y-113409945D01*
X144201714Y-113348223D01*
X144302729Y-113415720D01*
X144462500Y-113447500D01*
X149333607Y-113447500D01*
X149481398Y-113595549D01*
X149726644Y-113697384D01*
X149992191Y-113697616D01*
X150237614Y-113596209D01*
X150386583Y-113447500D01*
X151746917Y-113447500D01*
X151786955Y-113509721D01*
X151893055Y-113582215D01*
X152019000Y-113607720D01*
X154051000Y-113607720D01*
X154141500Y-113590691D01*
X154141500Y-113739827D01*
X154114154Y-113728500D01*
X153304875Y-113728500D01*
X153225500Y-113807875D01*
X153225500Y-114173000D01*
X153245500Y-114173000D01*
X153245500Y-114427000D01*
X153225500Y-114427000D01*
X153225500Y-114792125D01*
X153304875Y-114871500D01*
X154114154Y-114871500D01*
X154141500Y-114860173D01*
X154141500Y-122685000D01*
X154173280Y-122844771D01*
X154263783Y-122980217D01*
X155267521Y-123983955D01*
X155166703Y-124226751D01*
X155166297Y-124691211D01*
X155343664Y-125120472D01*
X155671801Y-125449181D01*
X156100751Y-125627297D01*
X156565211Y-125627703D01*
X156994472Y-125450336D01*
X157323181Y-125122199D01*
X157501297Y-124693249D01*
X157501703Y-124228789D01*
X157324336Y-123799528D01*
X157132642Y-123607500D01*
X158043270Y-123607500D01*
X158143664Y-123850472D01*
X158471801Y-124179181D01*
X158900751Y-124357297D01*
X159365211Y-124357703D01*
X159794472Y-124180336D01*
X160123181Y-123852199D01*
X160301297Y-123423249D01*
X160301703Y-122958789D01*
X160124336Y-122529528D01*
X159796199Y-122200819D01*
X159367249Y-122022703D01*
X158902789Y-122022297D01*
X158473528Y-122199664D01*
X158144819Y-122527801D01*
X158043211Y-122772500D01*
X157132548Y-122772500D01*
X157323181Y-122582199D01*
X157501297Y-122153249D01*
X157501703Y-121688789D01*
X157324336Y-121259528D01*
X156996199Y-120930819D01*
X156876730Y-120881211D01*
X157966297Y-120881211D01*
X158143664Y-121310472D01*
X158471801Y-121639181D01*
X158900751Y-121817297D01*
X159365211Y-121817703D01*
X159794472Y-121640336D01*
X160123181Y-121312199D01*
X160301297Y-120883249D01*
X160301703Y-120418789D01*
X160124336Y-119989528D01*
X159796199Y-119660819D01*
X159367249Y-119482703D01*
X158902789Y-119482297D01*
X158473528Y-119659664D01*
X158144819Y-119987801D01*
X157966703Y-120416751D01*
X157966297Y-120881211D01*
X156876730Y-120881211D01*
X156567249Y-120752703D01*
X156102789Y-120752297D01*
X155673528Y-120929664D01*
X155484500Y-121118363D01*
X155484500Y-120181554D01*
X155671801Y-120369181D01*
X156100751Y-120547297D01*
X156565211Y-120547703D01*
X156994472Y-120370336D01*
X157323181Y-120042199D01*
X157501297Y-119613249D01*
X157501703Y-119148789D01*
X157324336Y-118719528D01*
X156996199Y-118390819D01*
X156876730Y-118341211D01*
X157966297Y-118341211D01*
X158143664Y-118770472D01*
X158471801Y-119099181D01*
X158900751Y-119277297D01*
X159365211Y-119277703D01*
X159794472Y-119100336D01*
X160123181Y-118772199D01*
X160301297Y-118343249D01*
X160301703Y-117878789D01*
X160124336Y-117449528D01*
X159796199Y-117120819D01*
X159367249Y-116942703D01*
X158902789Y-116942297D01*
X158473528Y-117119664D01*
X158144819Y-117447801D01*
X157966703Y-117876751D01*
X157966297Y-118341211D01*
X156876730Y-118341211D01*
X156567249Y-118212703D01*
X156102789Y-118212297D01*
X155673528Y-118389664D01*
X155484500Y-118578363D01*
X155484500Y-117641554D01*
X155671801Y-117829181D01*
X156100751Y-118007297D01*
X156565211Y-118007703D01*
X156994472Y-117830336D01*
X157323181Y-117502199D01*
X157501297Y-117073249D01*
X157501703Y-116608789D01*
X157324336Y-116179528D01*
X156996199Y-115850819D01*
X156876730Y-115801211D01*
X157966297Y-115801211D01*
X158143664Y-116230472D01*
X158471801Y-116559181D01*
X158900751Y-116737297D01*
X159365211Y-116737703D01*
X159794472Y-116560336D01*
X160123181Y-116232199D01*
X160301297Y-115803249D01*
X160301703Y-115338789D01*
X160124336Y-114909528D01*
X159796199Y-114580819D01*
X159367249Y-114402703D01*
X158902789Y-114402297D01*
X158473528Y-114579664D01*
X158144819Y-114907801D01*
X157966703Y-115336751D01*
X157966297Y-115801211D01*
X156876730Y-115801211D01*
X156567249Y-115672703D01*
X156102789Y-115672297D01*
X155673528Y-115849664D01*
X155484500Y-116038363D01*
X155484500Y-115208663D01*
X155694744Y-115208663D01*
X155797452Y-115362593D01*
X156244931Y-115487036D01*
X156705970Y-115430763D01*
X156870548Y-115362593D01*
X156973256Y-115208663D01*
X156334000Y-114569408D01*
X155694744Y-115208663D01*
X155484500Y-115208663D01*
X155484500Y-114880093D01*
X156064592Y-114300000D01*
X156603408Y-114300000D01*
X157242663Y-114939256D01*
X157396593Y-114836548D01*
X157521036Y-114389069D01*
X157464763Y-113928030D01*
X157396593Y-113763452D01*
X157242663Y-113660744D01*
X156603408Y-114300000D01*
X156064592Y-114300000D01*
X155484500Y-113719907D01*
X155484500Y-113391337D01*
X155694744Y-113391337D01*
X156334000Y-114030592D01*
X156973256Y-113391337D01*
X156886431Y-113261211D01*
X157966297Y-113261211D01*
X158143664Y-113690472D01*
X158471801Y-114019181D01*
X158900751Y-114197297D01*
X159365211Y-114197703D01*
X159794472Y-114020336D01*
X160123181Y-113692199D01*
X160301297Y-113263249D01*
X160301703Y-112798789D01*
X160124336Y-112369528D01*
X159796199Y-112040819D01*
X159367249Y-111862703D01*
X158902789Y-111862297D01*
X158473528Y-112039664D01*
X158144819Y-112367801D01*
X157966703Y-112796751D01*
X157966297Y-113261211D01*
X156886431Y-113261211D01*
X156870548Y-113237407D01*
X156423069Y-113112964D01*
X155962030Y-113169237D01*
X155797452Y-113237407D01*
X155694744Y-113391337D01*
X155484500Y-113391337D01*
X155484500Y-112561554D01*
X155671801Y-112749181D01*
X156100751Y-112927297D01*
X156565211Y-112927703D01*
X156994472Y-112750336D01*
X157323181Y-112422199D01*
X157501297Y-111993249D01*
X157501703Y-111528789D01*
X157324336Y-111099528D01*
X156996199Y-110770819D01*
X156876730Y-110721211D01*
X157966297Y-110721211D01*
X158143664Y-111150472D01*
X158471801Y-111479181D01*
X158900751Y-111657297D01*
X159365211Y-111657703D01*
X159794472Y-111480336D01*
X160123181Y-111152199D01*
X160301297Y-110723249D01*
X160301703Y-110258789D01*
X160124336Y-109829528D01*
X159796199Y-109500819D01*
X159367249Y-109322703D01*
X158902789Y-109322297D01*
X158473528Y-109499664D01*
X158144819Y-109827801D01*
X157966703Y-110256751D01*
X157966297Y-110721211D01*
X156876730Y-110721211D01*
X156567249Y-110592703D01*
X156102789Y-110592297D01*
X155673528Y-110769664D01*
X155484500Y-110958363D01*
X155484500Y-110021554D01*
X155671801Y-110209181D01*
X156100751Y-110387297D01*
X156565211Y-110387703D01*
X156994472Y-110210336D01*
X157323181Y-109882199D01*
X157501297Y-109453249D01*
X157501703Y-108988789D01*
X157324336Y-108559528D01*
X156996199Y-108230819D01*
X156876730Y-108181211D01*
X157966297Y-108181211D01*
X158143664Y-108610472D01*
X158471801Y-108939181D01*
X158900751Y-109117297D01*
X159365211Y-109117703D01*
X159794472Y-108940336D01*
X160123181Y-108612199D01*
X160301297Y-108183249D01*
X160301703Y-107718789D01*
X160124336Y-107289528D01*
X159796199Y-106960819D01*
X159367249Y-106782703D01*
X158902789Y-106782297D01*
X158473528Y-106959664D01*
X158144819Y-107287801D01*
X157966703Y-107716751D01*
X157966297Y-108181211D01*
X156876730Y-108181211D01*
X156567249Y-108052703D01*
X156102789Y-108052297D01*
X155673528Y-108229664D01*
X155484500Y-108418363D01*
X155484500Y-107481554D01*
X155671801Y-107669181D01*
X156100751Y-107847297D01*
X156565211Y-107847703D01*
X156994472Y-107670336D01*
X157323181Y-107342199D01*
X157501297Y-106913249D01*
X157501703Y-106448789D01*
X157324336Y-106019528D01*
X156996199Y-105690819D01*
X156876730Y-105641211D01*
X157966297Y-105641211D01*
X158143664Y-106070472D01*
X158471801Y-106399181D01*
X158900751Y-106577297D01*
X159365211Y-106577703D01*
X159794472Y-106400336D01*
X160123181Y-106072199D01*
X160301297Y-105643249D01*
X160301703Y-105178789D01*
X160124336Y-104749528D01*
X159796199Y-104420819D01*
X159367249Y-104242703D01*
X158902789Y-104242297D01*
X158473528Y-104419664D01*
X158144819Y-104747801D01*
X157966703Y-105176751D01*
X157966297Y-105641211D01*
X156876730Y-105641211D01*
X156567249Y-105512703D01*
X156102789Y-105512297D01*
X155673528Y-105689664D01*
X155484500Y-105878363D01*
X155484500Y-104941554D01*
X155671801Y-105129181D01*
X156100751Y-105307297D01*
X156565211Y-105307703D01*
X156994472Y-105130336D01*
X157323181Y-104802199D01*
X157501297Y-104373249D01*
X157501703Y-103908789D01*
X157324336Y-103479528D01*
X156996199Y-103150819D01*
X156876730Y-103101211D01*
X157966297Y-103101211D01*
X158143664Y-103530472D01*
X158471801Y-103859181D01*
X158900751Y-104037297D01*
X159365211Y-104037703D01*
X159794472Y-103860336D01*
X160123181Y-103532199D01*
X160301297Y-103103249D01*
X160301703Y-102638789D01*
X160124336Y-102209528D01*
X159796199Y-101880819D01*
X159367249Y-101702703D01*
X158902789Y-101702297D01*
X158473528Y-101879664D01*
X158144819Y-102207801D01*
X157966703Y-102636751D01*
X157966297Y-103101211D01*
X156876730Y-103101211D01*
X156567249Y-102972703D01*
X156102789Y-102972297D01*
X155673528Y-103149664D01*
X155484500Y-103338363D01*
X155484500Y-103124000D01*
X155460271Y-103002191D01*
X155452720Y-102964229D01*
X155362217Y-102828783D01*
X155108217Y-102574783D01*
X154972771Y-102484280D01*
X154813000Y-102452500D01*
X154323083Y-102452500D01*
X154283045Y-102390279D01*
X154176945Y-102317785D01*
X154051000Y-102292280D01*
X152019000Y-102292280D01*
X151901342Y-102314419D01*
X151793279Y-102383955D01*
X151720785Y-102490055D01*
X151695280Y-102616000D01*
X151695280Y-103124000D01*
X151717419Y-103241658D01*
X151786955Y-103349721D01*
X151893055Y-103422215D01*
X152019000Y-103447720D01*
X154051000Y-103447720D01*
X154168658Y-103425581D01*
X154276721Y-103356045D01*
X154323555Y-103287500D01*
X154640066Y-103287500D01*
X154649500Y-103296934D01*
X154649500Y-103894066D01*
X154600217Y-103844783D01*
X154464771Y-103754280D01*
X154325737Y-103726625D01*
X154283045Y-103660279D01*
X154176945Y-103587785D01*
X154051000Y-103562280D01*
X152019000Y-103562280D01*
X151901342Y-103584419D01*
X151793279Y-103653955D01*
X151720785Y-103760055D01*
X151695280Y-103886000D01*
X151695280Y-104394000D01*
X151717419Y-104511658D01*
X151786955Y-104619721D01*
X151893055Y-104692215D01*
X152019000Y-104717720D01*
X154051000Y-104717720D01*
X154141500Y-104700691D01*
X154141500Y-104850607D01*
X154051000Y-104832280D01*
X152019000Y-104832280D01*
X151901342Y-104854419D01*
X151793279Y-104923955D01*
X151746445Y-104992500D01*
X146195614Y-104992500D01*
X146174602Y-104971451D01*
X145929356Y-104869616D01*
X145663809Y-104869384D01*
X145418386Y-104970791D01*
X145230451Y-105158398D01*
X145128616Y-105403644D01*
X145128384Y-105669191D01*
X145229791Y-105914614D01*
X145417398Y-106102549D01*
X145662644Y-106204384D01*
X145928191Y-106204616D01*
X146173614Y-106103209D01*
X146361549Y-105915602D01*
X146398132Y-105827500D01*
X151746917Y-105827500D01*
X151786955Y-105889721D01*
X151893055Y-105962215D01*
X152019000Y-105987720D01*
X154051000Y-105987720D01*
X154141500Y-105970691D01*
X154141500Y-106120607D01*
X154051000Y-106102280D01*
X152019000Y-106102280D01*
X151901342Y-106124419D01*
X151793279Y-106193955D01*
X151746445Y-106262500D01*
X144825934Y-106262500D01*
X144313217Y-105749783D01*
X144211158Y-105681589D01*
X144214720Y-105664000D01*
X144214720Y-105156000D01*
X144192581Y-105038342D01*
X144123045Y-104930279D01*
X144016945Y-104857785D01*
X143891000Y-104832280D01*
X141859000Y-104832280D01*
X141741342Y-104854419D01*
X141633279Y-104923955D01*
X141586445Y-104992500D01*
X140507934Y-104992500D01*
X139995217Y-104479783D01*
X139859771Y-104389280D01*
X139769720Y-104371368D01*
X139769720Y-104038154D01*
X140166783Y-104435217D01*
X140302229Y-104525720D01*
X140462000Y-104557500D01*
X141586917Y-104557500D01*
X141626955Y-104619721D01*
X141733055Y-104692215D01*
X141859000Y-104717720D01*
X143891000Y-104717720D01*
X144008658Y-104695581D01*
X144116721Y-104626045D01*
X144189215Y-104519945D01*
X144214720Y-104394000D01*
X144214720Y-103886000D01*
X144192581Y-103768342D01*
X144123045Y-103660279D01*
X144016945Y-103587785D01*
X143891000Y-103562280D01*
X141859000Y-103562280D01*
X141741342Y-103584419D01*
X141633279Y-103653955D01*
X141586445Y-103722500D01*
X140634934Y-103722500D01*
X140122217Y-103209783D01*
X139986771Y-103119280D01*
X139827000Y-103087500D01*
X139769720Y-103087500D01*
X139769720Y-102616000D01*
X141535280Y-102616000D01*
X141535280Y-103124000D01*
X141557419Y-103241658D01*
X141626955Y-103349721D01*
X141733055Y-103422215D01*
X141859000Y-103447720D01*
X143891000Y-103447720D01*
X144008658Y-103425581D01*
X144116721Y-103356045D01*
X144189215Y-103249945D01*
X144214720Y-103124000D01*
X144214720Y-102616000D01*
X144192581Y-102498342D01*
X144123045Y-102390279D01*
X144016945Y-102317785D01*
X143891000Y-102292280D01*
X141859000Y-102292280D01*
X141741342Y-102314419D01*
X141633279Y-102383955D01*
X141560785Y-102490055D01*
X141535280Y-102616000D01*
X139769720Y-102616000D01*
X139747581Y-102498342D01*
X139678045Y-102390279D01*
X139571945Y-102317785D01*
X139446000Y-102292280D01*
X137414000Y-102292280D01*
X137296342Y-102314419D01*
X137188279Y-102383955D01*
X137141445Y-102452500D01*
X135379444Y-102452500D01*
X135414384Y-102368356D01*
X135414616Y-102102809D01*
X135313209Y-101857386D01*
X135125602Y-101669451D01*
X134880356Y-101567616D01*
X134614809Y-101567384D01*
X134369386Y-101668791D01*
X134220417Y-101817500D01*
X129609720Y-101817500D01*
X129609720Y-101346000D01*
X137090280Y-101346000D01*
X137090280Y-101854000D01*
X137112419Y-101971658D01*
X137181955Y-102079721D01*
X137288055Y-102152215D01*
X137414000Y-102177720D01*
X139446000Y-102177720D01*
X139563658Y-102155581D01*
X139671721Y-102086045D01*
X139744215Y-101979945D01*
X139769720Y-101854000D01*
X139769720Y-101346000D01*
X141535280Y-101346000D01*
X141535280Y-101854000D01*
X141557419Y-101971658D01*
X141626955Y-102079721D01*
X141733055Y-102152215D01*
X141859000Y-102177720D01*
X143891000Y-102177720D01*
X144008658Y-102155581D01*
X144116721Y-102086045D01*
X144189215Y-101979945D01*
X144214720Y-101854000D01*
X144214720Y-101346000D01*
X151695280Y-101346000D01*
X151695280Y-101854000D01*
X151717419Y-101971658D01*
X151786955Y-102079721D01*
X151893055Y-102152215D01*
X152019000Y-102177720D01*
X154051000Y-102177720D01*
X154168658Y-102155581D01*
X154276721Y-102086045D01*
X154349215Y-101979945D01*
X154374720Y-101854000D01*
X154374720Y-101346000D01*
X154352581Y-101228342D01*
X154283045Y-101120279D01*
X154176945Y-101047785D01*
X154051000Y-101022280D01*
X152019000Y-101022280D01*
X151901342Y-101044419D01*
X151793279Y-101113955D01*
X151720785Y-101220055D01*
X151695280Y-101346000D01*
X144214720Y-101346000D01*
X144192581Y-101228342D01*
X144123045Y-101120279D01*
X144016945Y-101047785D01*
X143891000Y-101022280D01*
X141859000Y-101022280D01*
X141741342Y-101044419D01*
X141633279Y-101113955D01*
X141560785Y-101220055D01*
X141535280Y-101346000D01*
X139769720Y-101346000D01*
X139747581Y-101228342D01*
X139678045Y-101120279D01*
X139571945Y-101047785D01*
X139446000Y-101022280D01*
X137414000Y-101022280D01*
X137296342Y-101044419D01*
X137188279Y-101113955D01*
X137115785Y-101220055D01*
X137090280Y-101346000D01*
X129609720Y-101346000D01*
X129587581Y-101228342D01*
X129518045Y-101120279D01*
X129411945Y-101047785D01*
X129286000Y-101022280D01*
X127254000Y-101022280D01*
X127136342Y-101044419D01*
X127028279Y-101113955D01*
X126955785Y-101220055D01*
X126930280Y-101346000D01*
X126930280Y-101817500D01*
X126492000Y-101817500D01*
X126332229Y-101849280D01*
X126196783Y-101939783D01*
X125773696Y-102362870D01*
X125710336Y-102209528D01*
X125382199Y-101880819D01*
X124953249Y-101702703D01*
X124488789Y-101702297D01*
X124059528Y-101879664D01*
X123730819Y-102207801D01*
X123552703Y-102636751D01*
X123552297Y-103101211D01*
X123729664Y-103530472D01*
X123921358Y-103722500D01*
X123010730Y-103722500D01*
X122910336Y-103479528D01*
X122582199Y-103150819D01*
X122153249Y-102972703D01*
X121688789Y-102972297D01*
X121259528Y-103149664D01*
X120930819Y-103477801D01*
X120752703Y-103906751D01*
X120752297Y-104371211D01*
X120006599Y-104371211D01*
X120012749Y-101831211D01*
X120752297Y-101831211D01*
X120929664Y-102260472D01*
X121257801Y-102589181D01*
X121686751Y-102767297D01*
X122151211Y-102767703D01*
X122580472Y-102590336D01*
X122909181Y-102262199D01*
X123087297Y-101833249D01*
X123087703Y-101368789D01*
X122910336Y-100939528D01*
X122582199Y-100610819D01*
X122153249Y-100432703D01*
X121688789Y-100432297D01*
X121259528Y-100609664D01*
X120930819Y-100937801D01*
X120752703Y-101366751D01*
X120752297Y-101831211D01*
X120012749Y-101831211D01*
X120037349Y-91671211D01*
X120752297Y-91671211D01*
X120929664Y-92100472D01*
X121257801Y-92429181D01*
X121686751Y-92607297D01*
X122151211Y-92607703D01*
X122580472Y-92430336D01*
X122909181Y-92102199D01*
X123010789Y-91857500D01*
X123921452Y-91857500D01*
X123730819Y-92047801D01*
X123552703Y-92476751D01*
X123552297Y-92941211D01*
X123729664Y-93370472D01*
X123921358Y-93562500D01*
X123010730Y-93562500D01*
X122910336Y-93319528D01*
X122582199Y-92990819D01*
X122153249Y-92812703D01*
X121688789Y-92812297D01*
X121259528Y-92989664D01*
X120930819Y-93317801D01*
X120752703Y-93746751D01*
X120752297Y-94211211D01*
X120929664Y-94640472D01*
X121257801Y-94969181D01*
X121686751Y-95147297D01*
X122151211Y-95147703D01*
X122580472Y-94970336D01*
X122909181Y-94642199D01*
X123010789Y-94397500D01*
X123921452Y-94397500D01*
X123730819Y-94587801D01*
X123552703Y-95016751D01*
X123552297Y-95481211D01*
X123729664Y-95910472D01*
X123921358Y-96102500D01*
X123010730Y-96102500D01*
X122910336Y-95859528D01*
X122582199Y-95530819D01*
X122153249Y-95352703D01*
X121688789Y-95352297D01*
X121259528Y-95529664D01*
X120930819Y-95857801D01*
X120752703Y-96286751D01*
X120752297Y-96751211D01*
X120929664Y-97180472D01*
X121257801Y-97509181D01*
X121686751Y-97687297D01*
X122151211Y-97687703D01*
X122580472Y-97510336D01*
X122909181Y-97182199D01*
X123010789Y-96937500D01*
X123921452Y-96937500D01*
X123730819Y-97127801D01*
X123552703Y-97556751D01*
X123552297Y-98021211D01*
X123729664Y-98450472D01*
X123921358Y-98642500D01*
X123010730Y-98642500D01*
X122910336Y-98399528D01*
X122582199Y-98070819D01*
X122153249Y-97892703D01*
X121688789Y-97892297D01*
X121259528Y-98069664D01*
X120930819Y-98397801D01*
X120752703Y-98826751D01*
X120752297Y-99291211D01*
X120929664Y-99720472D01*
X121257801Y-100049181D01*
X121686751Y-100227297D01*
X122151211Y-100227703D01*
X122580472Y-100050336D01*
X122909181Y-99722199D01*
X123010789Y-99477500D01*
X123921452Y-99477500D01*
X123730819Y-99667801D01*
X123552703Y-100096751D01*
X123552297Y-100561211D01*
X123729664Y-100990472D01*
X124057801Y-101319181D01*
X124486751Y-101497297D01*
X124951211Y-101497703D01*
X125380472Y-101320336D01*
X125709181Y-100992199D01*
X125810789Y-100747500D01*
X126981917Y-100747500D01*
X127021955Y-100809721D01*
X127128055Y-100882215D01*
X127254000Y-100907720D01*
X129286000Y-100907720D01*
X129403658Y-100885581D01*
X129511721Y-100816045D01*
X129584215Y-100709945D01*
X129609720Y-100584000D01*
X129609720Y-100076000D01*
X129587581Y-99958342D01*
X129518045Y-99850279D01*
X129411945Y-99777785D01*
X129286000Y-99752280D01*
X127254000Y-99752280D01*
X127136342Y-99774419D01*
X127028279Y-99843955D01*
X126981445Y-99912500D01*
X125810730Y-99912500D01*
X125710336Y-99669528D01*
X125518642Y-99477500D01*
X126981917Y-99477500D01*
X127021955Y-99539721D01*
X127128055Y-99612215D01*
X127254000Y-99637720D01*
X129286000Y-99637720D01*
X129403658Y-99615581D01*
X129511721Y-99546045D01*
X129584215Y-99439945D01*
X129609720Y-99314000D01*
X129609720Y-98806000D01*
X129587581Y-98688342D01*
X129518045Y-98580279D01*
X129411945Y-98507785D01*
X129286000Y-98482280D01*
X127254000Y-98482280D01*
X127136342Y-98504419D01*
X127028279Y-98573955D01*
X126981445Y-98642500D01*
X125518548Y-98642500D01*
X125709181Y-98452199D01*
X125810789Y-98207500D01*
X126981917Y-98207500D01*
X127021955Y-98269721D01*
X127128055Y-98342215D01*
X127254000Y-98367720D01*
X129286000Y-98367720D01*
X129403658Y-98345581D01*
X129511721Y-98276045D01*
X129584215Y-98169945D01*
X129609720Y-98044000D01*
X129609720Y-97536000D01*
X129587581Y-97418342D01*
X129518045Y-97310279D01*
X129411945Y-97237785D01*
X129286000Y-97212280D01*
X127254000Y-97212280D01*
X127136342Y-97234419D01*
X127028279Y-97303955D01*
X126981445Y-97372500D01*
X125810730Y-97372500D01*
X125710336Y-97129528D01*
X125518642Y-96937500D01*
X126981917Y-96937500D01*
X127021955Y-96999721D01*
X127128055Y-97072215D01*
X127254000Y-97097720D01*
X129286000Y-97097720D01*
X129403658Y-97075581D01*
X129511721Y-97006045D01*
X129584215Y-96899945D01*
X129609720Y-96774000D01*
X129609720Y-96266000D01*
X129587581Y-96148342D01*
X129518045Y-96040279D01*
X129411945Y-95967785D01*
X129286000Y-95942280D01*
X127254000Y-95942280D01*
X127136342Y-95964419D01*
X127028279Y-96033955D01*
X126981445Y-96102500D01*
X125518548Y-96102500D01*
X125709181Y-95912199D01*
X125887297Y-95483249D01*
X125887703Y-95018789D01*
X125878287Y-94996000D01*
X126930280Y-94996000D01*
X126930280Y-95504000D01*
X126952419Y-95621658D01*
X127021955Y-95729721D01*
X127128055Y-95802215D01*
X127254000Y-95827720D01*
X129063709Y-95827720D01*
X129279644Y-95917384D01*
X129545191Y-95917616D01*
X129790614Y-95816209D01*
X129978549Y-95628602D01*
X130080384Y-95383356D01*
X130080616Y-95117809D01*
X129979209Y-94872386D01*
X129791602Y-94684451D01*
X129546356Y-94582616D01*
X129280809Y-94582384D01*
X129063245Y-94672280D01*
X127254000Y-94672280D01*
X127136342Y-94694419D01*
X127028279Y-94763955D01*
X126955785Y-94870055D01*
X126930280Y-94996000D01*
X125878287Y-94996000D01*
X125710336Y-94589528D01*
X125518642Y-94397500D01*
X126981917Y-94397500D01*
X127021955Y-94459721D01*
X127128055Y-94532215D01*
X127254000Y-94557720D01*
X129286000Y-94557720D01*
X129403658Y-94535581D01*
X129511721Y-94466045D01*
X129584215Y-94359945D01*
X129609720Y-94234000D01*
X129609720Y-93726000D01*
X129587581Y-93608342D01*
X129518045Y-93500279D01*
X129411945Y-93427785D01*
X129286000Y-93402280D01*
X127254000Y-93402280D01*
X127136342Y-93424419D01*
X127028279Y-93493955D01*
X126981445Y-93562500D01*
X125518548Y-93562500D01*
X125709181Y-93372199D01*
X125810789Y-93127500D01*
X126981917Y-93127500D01*
X127021955Y-93189721D01*
X127128055Y-93262215D01*
X127254000Y-93287720D01*
X129286000Y-93287720D01*
X129403658Y-93265581D01*
X129511721Y-93196045D01*
X129584215Y-93089945D01*
X129609720Y-92964000D01*
X129609720Y-92456000D01*
X129587581Y-92338342D01*
X129518045Y-92230279D01*
X129411945Y-92157785D01*
X129286000Y-92132280D01*
X127254000Y-92132280D01*
X127136342Y-92154419D01*
X127028279Y-92223955D01*
X126981445Y-92292500D01*
X125810730Y-92292500D01*
X125710336Y-92049528D01*
X125518642Y-91857500D01*
X126981917Y-91857500D01*
X127021955Y-91919721D01*
X127128055Y-91992215D01*
X127254000Y-92017720D01*
X129286000Y-92017720D01*
X129403658Y-91995581D01*
X129511721Y-91926045D01*
X129584215Y-91819945D01*
X129609720Y-91694000D01*
X129609720Y-91186000D01*
X129587581Y-91068342D01*
X129518045Y-90960279D01*
X129411945Y-90887785D01*
X129286000Y-90862280D01*
X127254000Y-90862280D01*
X127136342Y-90884419D01*
X127028279Y-90953955D01*
X126981445Y-91022500D01*
X125518548Y-91022500D01*
X125709181Y-90832199D01*
X125810789Y-90587500D01*
X126981917Y-90587500D01*
X127021955Y-90649721D01*
X127128055Y-90722215D01*
X127254000Y-90747720D01*
X129286000Y-90747720D01*
X129403658Y-90725581D01*
X129511721Y-90656045D01*
X129584215Y-90549945D01*
X129609720Y-90424000D01*
X129609720Y-89916000D01*
X129587581Y-89798342D01*
X129518045Y-89690279D01*
X129411945Y-89617785D01*
X129286000Y-89592280D01*
X127254000Y-89592280D01*
X127136342Y-89614419D01*
X127028279Y-89683955D01*
X126981445Y-89752500D01*
X125810730Y-89752500D01*
X125710336Y-89509528D01*
X125382199Y-89180819D01*
X124953249Y-89002703D01*
X124488789Y-89002297D01*
X124059528Y-89179664D01*
X123730819Y-89507801D01*
X123552703Y-89936751D01*
X123552297Y-90401211D01*
X123729664Y-90830472D01*
X123921358Y-91022500D01*
X123010730Y-91022500D01*
X122910336Y-90779528D01*
X122582199Y-90450819D01*
X122153249Y-90272703D01*
X121688789Y-90272297D01*
X121259528Y-90449664D01*
X120930819Y-90777801D01*
X120752703Y-91206751D01*
X120752297Y-91671211D01*
X120037349Y-91671211D01*
X120043499Y-89131211D01*
X120752297Y-89131211D01*
X120929664Y-89560472D01*
X121257801Y-89889181D01*
X121686751Y-90067297D01*
X122151211Y-90067703D01*
X122580472Y-89890336D01*
X122909181Y-89562199D01*
X123087297Y-89133249D01*
X123087703Y-88668789D01*
X123033937Y-88538663D01*
X124080744Y-88538663D01*
X124183452Y-88692593D01*
X124630931Y-88817036D01*
X125091970Y-88760763D01*
X125256548Y-88692593D01*
X125359256Y-88538663D01*
X124720000Y-87899408D01*
X124080744Y-88538663D01*
X123033937Y-88538663D01*
X122910336Y-88239528D01*
X122582199Y-87910819D01*
X122153249Y-87732703D01*
X121688789Y-87732297D01*
X121259528Y-87909664D01*
X120930819Y-88237801D01*
X120752703Y-88666751D01*
X120752297Y-89131211D01*
X120043499Y-89131211D01*
X120047349Y-87540931D01*
X123532964Y-87540931D01*
X123589237Y-88001970D01*
X123657407Y-88166548D01*
X123811337Y-88269256D01*
X124450592Y-87630000D01*
X124989408Y-87630000D01*
X125628663Y-88269256D01*
X125782593Y-88166548D01*
X125907036Y-87719069D01*
X125850763Y-87258030D01*
X125782593Y-87093452D01*
X125628663Y-86990744D01*
X124989408Y-87630000D01*
X124450592Y-87630000D01*
X123811337Y-86990744D01*
X123657407Y-87093452D01*
X123532964Y-87540931D01*
X120047349Y-87540931D01*
X120060310Y-82188663D01*
X121280744Y-82188663D01*
X121383452Y-82342593D01*
X121830931Y-82467036D01*
X122291970Y-82410763D01*
X122456548Y-82342593D01*
X122559256Y-82188663D01*
X121920000Y-81549408D01*
X121280744Y-82188663D01*
X120060310Y-82188663D01*
X120062726Y-81190931D01*
X120732964Y-81190931D01*
X120789237Y-81651970D01*
X120857407Y-81816548D01*
X121011337Y-81919256D01*
X121650592Y-81280000D01*
X122189408Y-81280000D01*
X122828663Y-81919256D01*
X122982593Y-81816548D01*
X123107036Y-81369069D01*
X123050763Y-80908030D01*
X122982593Y-80743452D01*
X122828663Y-80640744D01*
X122189408Y-81280000D01*
X121650592Y-81280000D01*
X121011337Y-80640744D01*
X120857407Y-80743452D01*
X120732964Y-81190931D01*
X120062726Y-81190931D01*
X120064710Y-80371337D01*
X121280744Y-80371337D01*
X121920000Y-81010592D01*
X122559256Y-80371337D01*
X122456548Y-80217407D01*
X122009069Y-80092964D01*
X121548030Y-80149237D01*
X121383452Y-80217407D01*
X121280744Y-80371337D01*
X120064710Y-80371337D01*
X120074250Y-76431211D01*
X120752297Y-76431211D01*
X120929664Y-76860472D01*
X121257801Y-77189181D01*
X121686751Y-77367297D01*
X122151211Y-77367703D01*
X122580472Y-77190336D01*
X122909181Y-76862199D01*
X123010789Y-76617500D01*
X123921452Y-76617500D01*
X123730819Y-76807801D01*
X123552703Y-77236751D01*
X123552297Y-77701211D01*
X123729664Y-78130472D01*
X123921358Y-78322500D01*
X123010730Y-78322500D01*
X122910336Y-78079528D01*
X122582199Y-77750819D01*
X122153249Y-77572703D01*
X121688789Y-77572297D01*
X121259528Y-77749664D01*
X120930819Y-78077801D01*
X120752703Y-78506751D01*
X120752297Y-78971211D01*
X120929664Y-79400472D01*
X121257801Y-79729181D01*
X121686751Y-79907297D01*
X122151211Y-79907703D01*
X122580472Y-79730336D01*
X122909181Y-79402199D01*
X123010789Y-79157500D01*
X123921452Y-79157500D01*
X123730819Y-79347801D01*
X123552703Y-79776751D01*
X123552297Y-80241211D01*
X123729664Y-80670472D01*
X124057801Y-80999181D01*
X124486751Y-81177297D01*
X124951211Y-81177703D01*
X125380472Y-81000336D01*
X125709181Y-80672199D01*
X125810789Y-80427500D01*
X126954066Y-80427500D01*
X133694500Y-87167934D01*
X133694500Y-87193566D01*
X128755717Y-82254783D01*
X128620271Y-82164280D01*
X128460500Y-82132500D01*
X125810730Y-82132500D01*
X125710336Y-81889528D01*
X125382199Y-81560819D01*
X124953249Y-81382703D01*
X124488789Y-81382297D01*
X124059528Y-81559664D01*
X123730819Y-81887801D01*
X123552703Y-82316751D01*
X123552297Y-82781211D01*
X123729664Y-83210472D01*
X123921358Y-83402500D01*
X123010730Y-83402500D01*
X122910336Y-83159528D01*
X122582199Y-82830819D01*
X122153249Y-82652703D01*
X121688789Y-82652297D01*
X121259528Y-82829664D01*
X120930819Y-83157801D01*
X120752703Y-83586751D01*
X120752297Y-84051211D01*
X120929664Y-84480472D01*
X121257801Y-84809181D01*
X121686751Y-84987297D01*
X122151211Y-84987703D01*
X122580472Y-84810336D01*
X122909181Y-84482199D01*
X123010789Y-84237500D01*
X123921452Y-84237500D01*
X123730819Y-84427801D01*
X123552703Y-84856751D01*
X123552297Y-85321211D01*
X123729664Y-85750472D01*
X123921358Y-85942500D01*
X123010730Y-85942500D01*
X122910336Y-85699528D01*
X122582199Y-85370819D01*
X122153249Y-85192703D01*
X121688789Y-85192297D01*
X121259528Y-85369664D01*
X120930819Y-85697801D01*
X120752703Y-86126751D01*
X120752297Y-86591211D01*
X120929664Y-87020472D01*
X121257801Y-87349181D01*
X121686751Y-87527297D01*
X122151211Y-87527703D01*
X122580472Y-87350336D01*
X122909181Y-87022199D01*
X123010789Y-86777500D01*
X124136907Y-86777500D01*
X124720000Y-87360592D01*
X125303093Y-86777500D01*
X128541566Y-86777500D01*
X129615632Y-87851566D01*
X129407809Y-87851384D01*
X129162386Y-87952791D01*
X128974451Y-88140398D01*
X128898927Y-88322280D01*
X127254000Y-88322280D01*
X127136342Y-88344419D01*
X127028279Y-88413955D01*
X126955785Y-88520055D01*
X126930280Y-88646000D01*
X126930280Y-89154000D01*
X126952419Y-89271658D01*
X127021955Y-89379721D01*
X127128055Y-89452215D01*
X127254000Y-89477720D01*
X129286000Y-89477720D01*
X129403658Y-89455581D01*
X129511721Y-89386045D01*
X129584215Y-89279945D01*
X129603127Y-89186556D01*
X129672191Y-89186616D01*
X129917614Y-89085209D01*
X130105549Y-88897602D01*
X130207384Y-88652356D01*
X130207566Y-88443500D01*
X130964000Y-89199934D01*
X130964000Y-99060000D01*
X130995780Y-99219771D01*
X131086283Y-99355217D01*
X132356283Y-100625217D01*
X132491729Y-100715720D01*
X132651500Y-100747500D01*
X137141917Y-100747500D01*
X137181955Y-100809721D01*
X137288055Y-100882215D01*
X137414000Y-100907720D01*
X139446000Y-100907720D01*
X139563658Y-100885581D01*
X139671721Y-100816045D01*
X139744215Y-100709945D01*
X139769720Y-100584000D01*
X139769720Y-100076000D01*
X139747581Y-99958342D01*
X139678045Y-99850279D01*
X139571945Y-99777785D01*
X139446000Y-99752280D01*
X137414000Y-99752280D01*
X137296342Y-99774419D01*
X137188279Y-99843955D01*
X137141445Y-99912500D01*
X132824434Y-99912500D01*
X131799000Y-98887066D01*
X131799000Y-98480434D01*
X132673783Y-99355217D01*
X132809229Y-99445720D01*
X132969000Y-99477500D01*
X137141917Y-99477500D01*
X137181955Y-99539721D01*
X137288055Y-99612215D01*
X137414000Y-99637720D01*
X139446000Y-99637720D01*
X139563658Y-99615581D01*
X139671721Y-99546045D01*
X139744215Y-99439945D01*
X139769720Y-99314000D01*
X139769720Y-98806000D01*
X139747581Y-98688342D01*
X139678045Y-98580279D01*
X139571945Y-98507785D01*
X139446000Y-98482280D01*
X137414000Y-98482280D01*
X137296342Y-98504419D01*
X137188279Y-98573955D01*
X137141445Y-98642500D01*
X133141934Y-98642500D01*
X132497500Y-97998066D01*
X132497500Y-97654934D01*
X132927783Y-98085217D01*
X133063229Y-98175720D01*
X133223000Y-98207500D01*
X137141917Y-98207500D01*
X137181955Y-98269721D01*
X137288055Y-98342215D01*
X137414000Y-98367720D01*
X139446000Y-98367720D01*
X139563658Y-98345581D01*
X139671721Y-98276045D01*
X139744215Y-98169945D01*
X139769720Y-98044000D01*
X139769720Y-97536000D01*
X139747581Y-97418342D01*
X139678045Y-97310279D01*
X139571945Y-97237785D01*
X139446000Y-97212280D01*
X137414000Y-97212280D01*
X137296342Y-97234419D01*
X137188279Y-97303955D01*
X137141445Y-97372500D01*
X133395934Y-97372500D01*
X133069000Y-97045566D01*
X133069000Y-95090460D01*
X133118283Y-95164217D01*
X134769283Y-96815217D01*
X134904730Y-96905720D01*
X135064500Y-96937500D01*
X137141917Y-96937500D01*
X137181955Y-96999721D01*
X137288055Y-97072215D01*
X137414000Y-97097720D01*
X139446000Y-97097720D01*
X139563658Y-97075581D01*
X139671721Y-97006045D01*
X139744215Y-96899945D01*
X139769720Y-96774000D01*
X139769720Y-96266000D01*
X139747581Y-96148342D01*
X139678045Y-96040279D01*
X139571945Y-95967785D01*
X139446000Y-95942280D01*
X137414000Y-95942280D01*
X137296342Y-95964419D01*
X137188279Y-96033955D01*
X137141445Y-96102500D01*
X135237434Y-96102500D01*
X134591309Y-95456375D01*
X137096500Y-95456375D01*
X137096500Y-95567155D01*
X137144837Y-95683850D01*
X137234151Y-95773164D01*
X137350846Y-95821500D01*
X138160125Y-95821500D01*
X138239500Y-95742125D01*
X138239500Y-95377000D01*
X138620500Y-95377000D01*
X138620500Y-95742125D01*
X138699875Y-95821500D01*
X139509154Y-95821500D01*
X139625849Y-95773164D01*
X139715163Y-95683850D01*
X139763500Y-95567155D01*
X139763500Y-95456375D01*
X139689316Y-95382191D01*
X140937384Y-95382191D01*
X141038791Y-95627614D01*
X141226398Y-95815549D01*
X141471644Y-95917384D01*
X141737191Y-95917616D01*
X141954755Y-95827720D01*
X143891000Y-95827720D01*
X144008658Y-95805581D01*
X144116721Y-95736045D01*
X144189215Y-95629945D01*
X144214720Y-95504000D01*
X144214720Y-94996000D01*
X144192581Y-94878342D01*
X144123045Y-94770279D01*
X144016945Y-94697785D01*
X143891000Y-94672280D01*
X141954291Y-94672280D01*
X141738356Y-94582616D01*
X141472809Y-94582384D01*
X141227386Y-94683791D01*
X141039451Y-94871398D01*
X140937616Y-95116644D01*
X140937384Y-95382191D01*
X139689316Y-95382191D01*
X139684125Y-95377000D01*
X138620500Y-95377000D01*
X138239500Y-95377000D01*
X137175875Y-95377000D01*
X137096500Y-95456375D01*
X134591309Y-95456375D01*
X134067779Y-94932845D01*
X137096500Y-94932845D01*
X137096500Y-95043625D01*
X137175875Y-95123000D01*
X138239500Y-95123000D01*
X138239500Y-94757875D01*
X138620500Y-94757875D01*
X138620500Y-95123000D01*
X139684125Y-95123000D01*
X139763500Y-95043625D01*
X139763500Y-94932845D01*
X139715163Y-94816150D01*
X139625849Y-94726836D01*
X139509154Y-94678500D01*
X138699875Y-94678500D01*
X138620500Y-94757875D01*
X138239500Y-94757875D01*
X138160125Y-94678500D01*
X137350846Y-94678500D01*
X137234151Y-94726836D01*
X137144837Y-94816150D01*
X137096500Y-94932845D01*
X134067779Y-94932845D01*
X133831000Y-94696066D01*
X133831000Y-93082934D01*
X135023283Y-94275217D01*
X135158729Y-94365720D01*
X135318500Y-94397500D01*
X137141917Y-94397500D01*
X137181955Y-94459721D01*
X137288055Y-94532215D01*
X137414000Y-94557720D01*
X139446000Y-94557720D01*
X139563658Y-94535581D01*
X139671721Y-94466045D01*
X139744215Y-94359945D01*
X139769720Y-94234000D01*
X139769720Y-93726000D01*
X139747581Y-93608342D01*
X139678045Y-93500279D01*
X139571945Y-93427785D01*
X139446000Y-93402280D01*
X137414000Y-93402280D01*
X137296342Y-93424419D01*
X137188279Y-93493955D01*
X137141445Y-93562500D01*
X135491434Y-93562500D01*
X134529500Y-92600566D01*
X134529500Y-92574934D01*
X134959783Y-93005217D01*
X135095229Y-93095720D01*
X135255000Y-93127500D01*
X137141917Y-93127500D01*
X137181955Y-93189721D01*
X137288055Y-93262215D01*
X137414000Y-93287720D01*
X139446000Y-93287720D01*
X139563658Y-93265581D01*
X139671721Y-93196045D01*
X139744215Y-93089945D01*
X139769720Y-92964000D01*
X139769720Y-92456000D01*
X139747581Y-92338342D01*
X139678045Y-92230279D01*
X139571945Y-92157785D01*
X139446000Y-92132280D01*
X137414000Y-92132280D01*
X137296342Y-92154419D01*
X137188279Y-92223955D01*
X137141445Y-92292500D01*
X135427934Y-92292500D01*
X135228000Y-92092566D01*
X135228000Y-90860434D01*
X136102783Y-91735217D01*
X136238229Y-91825720D01*
X136398000Y-91857500D01*
X137141917Y-91857500D01*
X137181955Y-91919721D01*
X137288055Y-91992215D01*
X137414000Y-92017720D01*
X139446000Y-92017720D01*
X139563658Y-91995581D01*
X139671721Y-91926045D01*
X139744215Y-91819945D01*
X139769720Y-91694000D01*
X139769720Y-91186000D01*
X139747581Y-91068342D01*
X139678045Y-90960279D01*
X139571945Y-90887785D01*
X139446000Y-90862280D01*
X137414000Y-90862280D01*
X137296342Y-90884419D01*
X137188279Y-90953955D01*
X137141445Y-91022500D01*
X136570934Y-91022500D01*
X135926500Y-90378066D01*
X135926500Y-89946960D01*
X135975783Y-90020717D01*
X136420283Y-90465217D01*
X136555729Y-90555720D01*
X136715500Y-90587500D01*
X137141917Y-90587500D01*
X137181955Y-90649721D01*
X137288055Y-90722215D01*
X137414000Y-90747720D01*
X139446000Y-90747720D01*
X139563658Y-90725581D01*
X139671721Y-90656045D01*
X139744215Y-90549945D01*
X139769720Y-90424000D01*
X139769720Y-89916000D01*
X141535280Y-89916000D01*
X141535280Y-90424000D01*
X141557419Y-90541658D01*
X141626955Y-90649721D01*
X141733055Y-90722215D01*
X141859000Y-90747720D01*
X143891000Y-90747720D01*
X144008658Y-90725581D01*
X144116721Y-90656045D01*
X144163555Y-90587500D01*
X145224500Y-90587500D01*
X145384271Y-90555720D01*
X145519717Y-90465217D01*
X146077000Y-89907934D01*
X146077000Y-90695566D01*
X145750066Y-91022500D01*
X144163083Y-91022500D01*
X144123045Y-90960279D01*
X144016945Y-90887785D01*
X143891000Y-90862280D01*
X141859000Y-90862280D01*
X141741342Y-90884419D01*
X141633279Y-90953955D01*
X141560785Y-91060055D01*
X141535280Y-91186000D01*
X141535280Y-91694000D01*
X141557419Y-91811658D01*
X141626955Y-91919721D01*
X141733055Y-91992215D01*
X141859000Y-92017720D01*
X143891000Y-92017720D01*
X144008658Y-91995581D01*
X144116721Y-91926045D01*
X144163555Y-91857500D01*
X145923000Y-91857500D01*
X146082771Y-91825720D01*
X146218217Y-91735217D01*
X146648500Y-91304934D01*
X146648500Y-91775066D01*
X146131066Y-92292500D01*
X144163083Y-92292500D01*
X144123045Y-92230279D01*
X144016945Y-92157785D01*
X143891000Y-92132280D01*
X141859000Y-92132280D01*
X141741342Y-92154419D01*
X141633279Y-92223955D01*
X141560785Y-92330055D01*
X141535280Y-92456000D01*
X141535280Y-92964000D01*
X141557419Y-93081658D01*
X141626955Y-93189721D01*
X141733055Y-93262215D01*
X141859000Y-93287720D01*
X143891000Y-93287720D01*
X144008658Y-93265581D01*
X144116721Y-93196045D01*
X144163555Y-93127500D01*
X146304000Y-93127500D01*
X146463771Y-93095720D01*
X146599217Y-93005217D01*
X147220000Y-92384434D01*
X147220000Y-92600566D01*
X146258066Y-93562500D01*
X144163083Y-93562500D01*
X144123045Y-93500279D01*
X144016945Y-93427785D01*
X143891000Y-93402280D01*
X141859000Y-93402280D01*
X141741342Y-93424419D01*
X141633279Y-93493955D01*
X141560785Y-93600055D01*
X141535280Y-93726000D01*
X141535280Y-94234000D01*
X141557419Y-94351658D01*
X141626955Y-94459721D01*
X141733055Y-94532215D01*
X141859000Y-94557720D01*
X143891000Y-94557720D01*
X144008658Y-94535581D01*
X144116721Y-94466045D01*
X144163555Y-94397500D01*
X146431000Y-94397500D01*
X146590771Y-94365720D01*
X146726217Y-94275217D01*
X147855000Y-93146434D01*
X147855000Y-94061066D01*
X145813566Y-96102500D01*
X144163083Y-96102500D01*
X144123045Y-96040279D01*
X144016945Y-95967785D01*
X143891000Y-95942280D01*
X141859000Y-95942280D01*
X141741342Y-95964419D01*
X141633279Y-96033955D01*
X141560785Y-96140055D01*
X141535280Y-96266000D01*
X141535280Y-96774000D01*
X141557419Y-96891658D01*
X141626955Y-96999721D01*
X141733055Y-97072215D01*
X141859000Y-97097720D01*
X143891000Y-97097720D01*
X144008658Y-97075581D01*
X144116721Y-97006045D01*
X144163555Y-96937500D01*
X145986500Y-96937500D01*
X146146271Y-96905720D01*
X146281717Y-96815217D01*
X148490000Y-94606934D01*
X148490000Y-94759566D01*
X145877066Y-97372500D01*
X144163083Y-97372500D01*
X144123045Y-97310279D01*
X144016945Y-97237785D01*
X143891000Y-97212280D01*
X141859000Y-97212280D01*
X141741342Y-97234419D01*
X141633279Y-97303955D01*
X141560785Y-97410055D01*
X141535280Y-97536000D01*
X141535280Y-98044000D01*
X141557419Y-98161658D01*
X141626955Y-98269721D01*
X141733055Y-98342215D01*
X141859000Y-98367720D01*
X143891000Y-98367720D01*
X144008658Y-98345581D01*
X144116721Y-98276045D01*
X144163555Y-98207500D01*
X146050000Y-98207500D01*
X146209771Y-98175720D01*
X146345217Y-98085217D01*
X149188500Y-95241934D01*
X149188500Y-95394566D01*
X145940566Y-98642500D01*
X144163083Y-98642500D01*
X144123045Y-98580279D01*
X144016945Y-98507785D01*
X143891000Y-98482280D01*
X141859000Y-98482280D01*
X141741342Y-98504419D01*
X141633279Y-98573955D01*
X141560785Y-98680055D01*
X141535280Y-98806000D01*
X141535280Y-99314000D01*
X141557419Y-99431658D01*
X141626955Y-99539721D01*
X141733055Y-99612215D01*
X141859000Y-99637720D01*
X143891000Y-99637720D01*
X144008658Y-99615581D01*
X144116721Y-99546045D01*
X144163555Y-99477500D01*
X146113500Y-99477500D01*
X146273271Y-99445720D01*
X146408717Y-99355217D01*
X149887000Y-95876934D01*
X149887000Y-95966066D01*
X145940566Y-99912500D01*
X144163083Y-99912500D01*
X144123045Y-99850279D01*
X144016945Y-99777785D01*
X143891000Y-99752280D01*
X141859000Y-99752280D01*
X141741342Y-99774419D01*
X141633279Y-99843955D01*
X141560785Y-99950055D01*
X141535280Y-100076000D01*
X141535280Y-100584000D01*
X141557419Y-100701658D01*
X141626955Y-100809721D01*
X141733055Y-100882215D01*
X141859000Y-100907720D01*
X143891000Y-100907720D01*
X144008658Y-100885581D01*
X144116721Y-100816045D01*
X144163555Y-100747500D01*
X146113500Y-100747500D01*
X146273271Y-100715720D01*
X146408717Y-100625217D01*
X150599717Y-96434217D01*
X150690220Y-96298771D01*
X150696738Y-96266000D01*
X151695280Y-96266000D01*
X151695280Y-96774000D01*
X151717419Y-96891658D01*
X151786955Y-96999721D01*
X151893055Y-97072215D01*
X152019000Y-97097720D01*
X154051000Y-97097720D01*
X154168658Y-97075581D01*
X154276721Y-97006045D01*
X154323555Y-96937500D01*
X155243270Y-96937500D01*
X155343664Y-97180472D01*
X155535358Y-97372500D01*
X154323083Y-97372500D01*
X154283045Y-97310279D01*
X154176945Y-97237785D01*
X154051000Y-97212280D01*
X152019000Y-97212280D01*
X151901342Y-97234419D01*
X151793279Y-97303955D01*
X151720785Y-97410055D01*
X151695280Y-97536000D01*
X151695280Y-98044000D01*
X151717419Y-98161658D01*
X151786955Y-98269721D01*
X151893055Y-98342215D01*
X152019000Y-98367720D01*
X154051000Y-98367720D01*
X154168658Y-98345581D01*
X154276721Y-98276045D01*
X154323555Y-98207500D01*
X155535452Y-98207500D01*
X155344819Y-98397801D01*
X155243211Y-98642500D01*
X154323083Y-98642500D01*
X154283045Y-98580279D01*
X154176945Y-98507785D01*
X154051000Y-98482280D01*
X152019000Y-98482280D01*
X151901342Y-98504419D01*
X151793279Y-98573955D01*
X151720785Y-98680055D01*
X151695280Y-98806000D01*
X151695280Y-99314000D01*
X151717419Y-99431658D01*
X151786955Y-99539721D01*
X151893055Y-99612215D01*
X152019000Y-99637720D01*
X154051000Y-99637720D01*
X154168658Y-99615581D01*
X154276721Y-99546045D01*
X154323555Y-99477500D01*
X155243270Y-99477500D01*
X155343664Y-99720472D01*
X155535358Y-99912500D01*
X154323083Y-99912500D01*
X154283045Y-99850279D01*
X154176945Y-99777785D01*
X154051000Y-99752280D01*
X152019000Y-99752280D01*
X151901342Y-99774419D01*
X151793279Y-99843955D01*
X151720785Y-99950055D01*
X151695280Y-100076000D01*
X151695280Y-100584000D01*
X151717419Y-100701658D01*
X151786955Y-100809721D01*
X151893055Y-100882215D01*
X152019000Y-100907720D01*
X154051000Y-100907720D01*
X154168658Y-100885581D01*
X154276721Y-100816045D01*
X154323555Y-100747500D01*
X155535452Y-100747500D01*
X155344819Y-100937801D01*
X155166703Y-101366751D01*
X155166297Y-101831211D01*
X155343664Y-102260472D01*
X155671801Y-102589181D01*
X156100751Y-102767297D01*
X156565211Y-102767703D01*
X156994472Y-102590336D01*
X157323181Y-102262199D01*
X157501297Y-101833249D01*
X157501703Y-101368789D01*
X157324336Y-100939528D01*
X157132642Y-100747500D01*
X158043270Y-100747500D01*
X158143664Y-100990472D01*
X158471801Y-101319181D01*
X158900751Y-101497297D01*
X159365211Y-101497703D01*
X159794472Y-101320336D01*
X160123181Y-100992199D01*
X160301297Y-100563249D01*
X160301703Y-100098789D01*
X160124336Y-99669528D01*
X159796199Y-99340819D01*
X159367249Y-99162703D01*
X158902789Y-99162297D01*
X158473528Y-99339664D01*
X158144819Y-99667801D01*
X158043211Y-99912500D01*
X157132548Y-99912500D01*
X157323181Y-99722199D01*
X157501297Y-99293249D01*
X157501703Y-98828789D01*
X157324336Y-98399528D01*
X157132642Y-98207500D01*
X158043270Y-98207500D01*
X158143664Y-98450472D01*
X158471801Y-98779181D01*
X158900751Y-98957297D01*
X159365211Y-98957703D01*
X159794472Y-98780336D01*
X160123181Y-98452199D01*
X160301297Y-98023249D01*
X160301703Y-97558789D01*
X160124336Y-97129528D01*
X159796199Y-96800819D01*
X159367249Y-96622703D01*
X158902789Y-96622297D01*
X158473528Y-96799664D01*
X158144819Y-97127801D01*
X158043211Y-97372500D01*
X157132548Y-97372500D01*
X157323181Y-97182199D01*
X157501297Y-96753249D01*
X157501703Y-96288789D01*
X157324336Y-95859528D01*
X156996199Y-95530819D01*
X156876730Y-95481211D01*
X157966297Y-95481211D01*
X158143664Y-95910472D01*
X158471801Y-96239181D01*
X158900751Y-96417297D01*
X159365211Y-96417703D01*
X159794472Y-96240336D01*
X160123181Y-95912199D01*
X160301297Y-95483249D01*
X160301703Y-95018789D01*
X160124336Y-94589528D01*
X159796199Y-94260819D01*
X159367249Y-94082703D01*
X158902789Y-94082297D01*
X158473528Y-94259664D01*
X158144819Y-94587801D01*
X157966703Y-95016751D01*
X157966297Y-95481211D01*
X156876730Y-95481211D01*
X156567249Y-95352703D01*
X156102789Y-95352297D01*
X155673528Y-95529664D01*
X155344819Y-95857801D01*
X155243211Y-96102500D01*
X154323083Y-96102500D01*
X154283045Y-96040279D01*
X154176945Y-95967785D01*
X154051000Y-95942280D01*
X152019000Y-95942280D01*
X151901342Y-95964419D01*
X151793279Y-96033955D01*
X151720785Y-96140055D01*
X151695280Y-96266000D01*
X150696738Y-96266000D01*
X150722000Y-96139000D01*
X150722000Y-95456375D01*
X151701500Y-95456375D01*
X151701500Y-95567155D01*
X151749837Y-95683850D01*
X151839151Y-95773164D01*
X151955846Y-95821500D01*
X152765125Y-95821500D01*
X152844500Y-95742125D01*
X152844500Y-95377000D01*
X153225500Y-95377000D01*
X153225500Y-95742125D01*
X153304875Y-95821500D01*
X154114154Y-95821500D01*
X154230849Y-95773164D01*
X154320163Y-95683850D01*
X154368500Y-95567155D01*
X154368500Y-95456375D01*
X154289125Y-95377000D01*
X153225500Y-95377000D01*
X152844500Y-95377000D01*
X151780875Y-95377000D01*
X151701500Y-95456375D01*
X150722000Y-95456375D01*
X150722000Y-94932845D01*
X151701500Y-94932845D01*
X151701500Y-95043625D01*
X151780875Y-95123000D01*
X152844500Y-95123000D01*
X152844500Y-94757875D01*
X153225500Y-94757875D01*
X153225500Y-95123000D01*
X154289125Y-95123000D01*
X154368500Y-95043625D01*
X154368500Y-94932845D01*
X154320163Y-94816150D01*
X154230849Y-94726836D01*
X154114154Y-94678500D01*
X153304875Y-94678500D01*
X153225500Y-94757875D01*
X152844500Y-94757875D01*
X152765125Y-94678500D01*
X151955846Y-94678500D01*
X151839151Y-94726836D01*
X151749837Y-94816150D01*
X151701500Y-94932845D01*
X150722000Y-94932845D01*
X150722000Y-89916000D01*
X151695280Y-89916000D01*
X151695280Y-90424000D01*
X151717419Y-90541658D01*
X151786955Y-90649721D01*
X151893055Y-90722215D01*
X152019000Y-90747720D01*
X154051000Y-90747720D01*
X154168658Y-90725581D01*
X154276721Y-90656045D01*
X154323555Y-90587500D01*
X155535452Y-90587500D01*
X155344819Y-90777801D01*
X155243211Y-91022500D01*
X154323083Y-91022500D01*
X154283045Y-90960279D01*
X154176945Y-90887785D01*
X154051000Y-90862280D01*
X152019000Y-90862280D01*
X151901342Y-90884419D01*
X151793279Y-90953955D01*
X151720785Y-91060055D01*
X151695280Y-91186000D01*
X151695280Y-91694000D01*
X151717419Y-91811658D01*
X151786955Y-91919721D01*
X151893055Y-91992215D01*
X152019000Y-92017720D01*
X154051000Y-92017720D01*
X154168658Y-91995581D01*
X154276721Y-91926045D01*
X154323555Y-91857500D01*
X155243270Y-91857500D01*
X155343664Y-92100472D01*
X155535358Y-92292500D01*
X154323083Y-92292500D01*
X154283045Y-92230279D01*
X154176945Y-92157785D01*
X154051000Y-92132280D01*
X152019000Y-92132280D01*
X151901342Y-92154419D01*
X151793279Y-92223955D01*
X151720785Y-92330055D01*
X151695280Y-92456000D01*
X151695280Y-92964000D01*
X151717419Y-93081658D01*
X151786955Y-93189721D01*
X151893055Y-93262215D01*
X152019000Y-93287720D01*
X154051000Y-93287720D01*
X154168658Y-93265581D01*
X154276721Y-93196045D01*
X154323555Y-93127500D01*
X155535452Y-93127500D01*
X155344819Y-93317801D01*
X155243211Y-93562500D01*
X154323083Y-93562500D01*
X154283045Y-93500279D01*
X154176945Y-93427785D01*
X154051000Y-93402280D01*
X152019000Y-93402280D01*
X151901342Y-93424419D01*
X151793279Y-93493955D01*
X151720785Y-93600055D01*
X151695280Y-93726000D01*
X151695280Y-94234000D01*
X151717419Y-94351658D01*
X151786955Y-94459721D01*
X151893055Y-94532215D01*
X152019000Y-94557720D01*
X154051000Y-94557720D01*
X154168658Y-94535581D01*
X154276721Y-94466045D01*
X154323555Y-94397500D01*
X155243270Y-94397500D01*
X155343664Y-94640472D01*
X155671801Y-94969181D01*
X156100751Y-95147297D01*
X156565211Y-95147703D01*
X156994472Y-94970336D01*
X157323181Y-94642199D01*
X157501297Y-94213249D01*
X157501703Y-93748789D01*
X157324336Y-93319528D01*
X157132642Y-93127500D01*
X158043270Y-93127500D01*
X158143664Y-93370472D01*
X158471801Y-93699181D01*
X158900751Y-93877297D01*
X159365211Y-93877703D01*
X159794472Y-93700336D01*
X160123181Y-93372199D01*
X160301297Y-92943249D01*
X160301703Y-92478789D01*
X160124336Y-92049528D01*
X159796199Y-91720819D01*
X159367249Y-91542703D01*
X158902789Y-91542297D01*
X158473528Y-91719664D01*
X158144819Y-92047801D01*
X158043211Y-92292500D01*
X157132548Y-92292500D01*
X157323181Y-92102199D01*
X157501297Y-91673249D01*
X157501703Y-91208789D01*
X157324336Y-90779528D01*
X157132642Y-90587500D01*
X158043270Y-90587500D01*
X158143664Y-90830472D01*
X158471801Y-91159181D01*
X158900751Y-91337297D01*
X159365211Y-91337703D01*
X159794472Y-91160336D01*
X160123181Y-90832199D01*
X160301297Y-90403249D01*
X160301703Y-89938789D01*
X160124336Y-89509528D01*
X159796199Y-89180819D01*
X159367249Y-89002703D01*
X158902789Y-89002297D01*
X158473528Y-89179664D01*
X158144819Y-89507801D01*
X158043211Y-89752500D01*
X157132548Y-89752500D01*
X157323181Y-89562199D01*
X157501297Y-89133249D01*
X157501703Y-88668789D01*
X157447937Y-88538663D01*
X158494744Y-88538663D01*
X158597452Y-88692593D01*
X159044931Y-88817036D01*
X159505970Y-88760763D01*
X159670548Y-88692593D01*
X159773256Y-88538663D01*
X159134000Y-87899408D01*
X158494744Y-88538663D01*
X157447937Y-88538663D01*
X157324336Y-88239528D01*
X156996199Y-87910819D01*
X156567249Y-87732703D01*
X156102789Y-87732297D01*
X155673528Y-87909664D01*
X155344819Y-88237801D01*
X155166703Y-88666751D01*
X155166297Y-89131211D01*
X155343664Y-89560472D01*
X155535358Y-89752500D01*
X154323083Y-89752500D01*
X154283045Y-89690279D01*
X154176945Y-89617785D01*
X154051000Y-89592280D01*
X152019000Y-89592280D01*
X151901342Y-89614419D01*
X151793279Y-89683955D01*
X151720785Y-89790055D01*
X151695280Y-89916000D01*
X150722000Y-89916000D01*
X150722000Y-89199934D01*
X150815559Y-89106375D01*
X151701500Y-89106375D01*
X151701500Y-89217155D01*
X151749837Y-89333850D01*
X151839151Y-89423164D01*
X151955846Y-89471500D01*
X152765125Y-89471500D01*
X152844500Y-89392125D01*
X152844500Y-89027000D01*
X153225500Y-89027000D01*
X153225500Y-89392125D01*
X153304875Y-89471500D01*
X154114154Y-89471500D01*
X154230849Y-89423164D01*
X154320163Y-89333850D01*
X154368500Y-89217155D01*
X154368500Y-89106375D01*
X154289125Y-89027000D01*
X153225500Y-89027000D01*
X152844500Y-89027000D01*
X151780875Y-89027000D01*
X151701500Y-89106375D01*
X150815559Y-89106375D01*
X151339089Y-88582845D01*
X151701500Y-88582845D01*
X151701500Y-88693625D01*
X151780875Y-88773000D01*
X152844500Y-88773000D01*
X152844500Y-88407875D01*
X153225500Y-88407875D01*
X153225500Y-88773000D01*
X154289125Y-88773000D01*
X154368500Y-88693625D01*
X154368500Y-88582845D01*
X154320163Y-88466150D01*
X154230849Y-88376836D01*
X154114154Y-88328500D01*
X153304875Y-88328500D01*
X153225500Y-88407875D01*
X152844500Y-88407875D01*
X152765125Y-88328500D01*
X151955846Y-88328500D01*
X151839151Y-88376836D01*
X151749837Y-88466150D01*
X151701500Y-88582845D01*
X151339089Y-88582845D01*
X152381003Y-87540931D01*
X157946964Y-87540931D01*
X158003237Y-88001970D01*
X158071407Y-88166548D01*
X158225337Y-88269256D01*
X158864592Y-87630000D01*
X159403408Y-87630000D01*
X160042663Y-88269256D01*
X160196593Y-88166548D01*
X160321036Y-87719069D01*
X160264763Y-87258030D01*
X160196593Y-87093452D01*
X160042663Y-86990744D01*
X159403408Y-87630000D01*
X158864592Y-87630000D01*
X158225337Y-86990744D01*
X158071407Y-87093452D01*
X157946964Y-87540931D01*
X152381003Y-87540931D01*
X153144434Y-86777500D01*
X155243270Y-86777500D01*
X155343664Y-87020472D01*
X155671801Y-87349181D01*
X156100751Y-87527297D01*
X156565211Y-87527703D01*
X156994472Y-87350336D01*
X157323181Y-87022199D01*
X157448110Y-86721337D01*
X158494744Y-86721337D01*
X159134000Y-87360592D01*
X159773256Y-86721337D01*
X159670548Y-86567407D01*
X159223069Y-86442964D01*
X158762030Y-86499237D01*
X158597452Y-86567407D01*
X158494744Y-86721337D01*
X157448110Y-86721337D01*
X157501297Y-86593249D01*
X157501703Y-86128789D01*
X157324336Y-85699528D01*
X157132642Y-85507500D01*
X158043270Y-85507500D01*
X158143664Y-85750472D01*
X158471801Y-86079181D01*
X158900751Y-86257297D01*
X159365211Y-86257703D01*
X159794472Y-86080336D01*
X160123181Y-85752199D01*
X160301297Y-85323249D01*
X160301703Y-84858789D01*
X160124336Y-84429528D01*
X159796199Y-84100819D01*
X159367249Y-83922703D01*
X158902789Y-83922297D01*
X158473528Y-84099664D01*
X158144819Y-84427801D01*
X158043211Y-84672500D01*
X157132548Y-84672500D01*
X157323181Y-84482199D01*
X157501297Y-84053249D01*
X157501703Y-83588789D01*
X157324336Y-83159528D01*
X157132642Y-82967500D01*
X158043270Y-82967500D01*
X158143664Y-83210472D01*
X158471801Y-83539181D01*
X158900751Y-83717297D01*
X159365211Y-83717703D01*
X159794472Y-83540336D01*
X160123181Y-83212199D01*
X160301297Y-82783249D01*
X160301703Y-82318789D01*
X160124336Y-81889528D01*
X159796199Y-81560819D01*
X159367249Y-81382703D01*
X158902789Y-81382297D01*
X158473528Y-81559664D01*
X158144819Y-81887801D01*
X158043211Y-82132500D01*
X156917093Y-82132500D01*
X156334000Y-81549408D01*
X155750907Y-82132500D01*
X153098500Y-82132500D01*
X153088431Y-82134503D01*
X154032003Y-81190931D01*
X155146964Y-81190931D01*
X155203237Y-81651970D01*
X155271407Y-81816548D01*
X155425337Y-81919256D01*
X156064592Y-81280000D01*
X156603408Y-81280000D01*
X157242663Y-81919256D01*
X157396593Y-81816548D01*
X157521036Y-81369069D01*
X157464763Y-80908030D01*
X157396593Y-80743452D01*
X157242663Y-80640744D01*
X156603408Y-81280000D01*
X156064592Y-81280000D01*
X155425337Y-80640744D01*
X155271407Y-80743452D01*
X155146964Y-81190931D01*
X154032003Y-81190931D01*
X154795434Y-80427500D01*
X155750907Y-80427500D01*
X156334000Y-81010592D01*
X156917093Y-80427500D01*
X158043270Y-80427500D01*
X158143664Y-80670472D01*
X158471801Y-80999181D01*
X158900751Y-81177297D01*
X159365211Y-81177703D01*
X159794472Y-81000336D01*
X160123181Y-80672199D01*
X160301297Y-80243249D01*
X160301703Y-79778789D01*
X160124336Y-79349528D01*
X159796199Y-79020819D01*
X159367249Y-78842703D01*
X158902789Y-78842297D01*
X158473528Y-79019664D01*
X158144819Y-79347801D01*
X158043211Y-79592500D01*
X157132548Y-79592500D01*
X157323181Y-79402199D01*
X157501297Y-78973249D01*
X157501703Y-78508789D01*
X157324336Y-78079528D01*
X157132642Y-77887500D01*
X158043270Y-77887500D01*
X158143664Y-78130472D01*
X158471801Y-78459181D01*
X158900751Y-78637297D01*
X159365211Y-78637703D01*
X159794472Y-78460336D01*
X160123181Y-78132199D01*
X160301297Y-77703249D01*
X160301703Y-77238789D01*
X160124336Y-76809528D01*
X159796199Y-76480819D01*
X159367249Y-76302703D01*
X158902789Y-76302297D01*
X158473528Y-76479664D01*
X158144819Y-76807801D01*
X158043211Y-77052500D01*
X157132548Y-77052500D01*
X157323181Y-76862199D01*
X157501297Y-76433249D01*
X157501703Y-75968789D01*
X157324336Y-75539528D01*
X156996199Y-75210819D01*
X156567249Y-75032703D01*
X156102789Y-75032297D01*
X155673528Y-75209664D01*
X155344819Y-75537801D01*
X155243211Y-75782500D01*
X154559000Y-75782500D01*
X154399229Y-75814280D01*
X154263783Y-75904783D01*
X145564283Y-84604283D01*
X145473780Y-84739729D01*
X145473780Y-84739730D01*
X145442000Y-84899500D01*
X145442000Y-89362066D01*
X145051566Y-89752500D01*
X144163083Y-89752500D01*
X144123045Y-89690279D01*
X144016945Y-89617785D01*
X143891000Y-89592280D01*
X141859000Y-89592280D01*
X141741342Y-89614419D01*
X141633279Y-89683955D01*
X141560785Y-89790055D01*
X141535280Y-89916000D01*
X139769720Y-89916000D01*
X139747581Y-89798342D01*
X139678045Y-89690279D01*
X139571945Y-89617785D01*
X139446000Y-89592280D01*
X137414000Y-89592280D01*
X137296342Y-89614419D01*
X137188279Y-89683955D01*
X137141445Y-89752500D01*
X136888434Y-89752500D01*
X136688500Y-89552566D01*
X136688500Y-89106375D01*
X137096500Y-89106375D01*
X137096500Y-89217155D01*
X137144837Y-89333850D01*
X137234151Y-89423164D01*
X137350846Y-89471500D01*
X138160125Y-89471500D01*
X138239500Y-89392125D01*
X138239500Y-89027000D01*
X138620500Y-89027000D01*
X138620500Y-89392125D01*
X138699875Y-89471500D01*
X139509154Y-89471500D01*
X139625849Y-89423164D01*
X139715163Y-89333850D01*
X139763500Y-89217155D01*
X139763500Y-89106375D01*
X139684125Y-89027000D01*
X138620500Y-89027000D01*
X138239500Y-89027000D01*
X137175875Y-89027000D01*
X137096500Y-89106375D01*
X136688500Y-89106375D01*
X136688500Y-88582845D01*
X137096500Y-88582845D01*
X137096500Y-88693625D01*
X137175875Y-88773000D01*
X138239500Y-88773000D01*
X138239500Y-88407875D01*
X138620500Y-88407875D01*
X138620500Y-88773000D01*
X139684125Y-88773000D01*
X139763500Y-88693625D01*
X139763500Y-88646000D01*
X141535280Y-88646000D01*
X141535280Y-89154000D01*
X141557419Y-89271658D01*
X141626955Y-89379721D01*
X141733055Y-89452215D01*
X141859000Y-89477720D01*
X143891000Y-89477720D01*
X144008658Y-89455581D01*
X144116721Y-89386045D01*
X144189215Y-89279945D01*
X144213404Y-89160497D01*
X144395614Y-89085209D01*
X144583549Y-88897602D01*
X144685384Y-88652356D01*
X144685616Y-88386809D01*
X144584209Y-88141386D01*
X144396602Y-87953451D01*
X144151356Y-87851616D01*
X143885809Y-87851384D01*
X143640386Y-87952791D01*
X143452451Y-88140398D01*
X143391227Y-88287841D01*
X143287910Y-88322280D01*
X141859000Y-88322280D01*
X141741342Y-88344419D01*
X141633279Y-88413955D01*
X141560785Y-88520055D01*
X141535280Y-88646000D01*
X139763500Y-88646000D01*
X139763500Y-88582845D01*
X139715163Y-88466150D01*
X139625849Y-88376836D01*
X139509154Y-88328500D01*
X138699875Y-88328500D01*
X138620500Y-88407875D01*
X138239500Y-88407875D01*
X138160125Y-88328500D01*
X137350846Y-88328500D01*
X137234151Y-88376836D01*
X137144837Y-88466150D01*
X137096500Y-88582845D01*
X136688500Y-88582845D01*
X136688500Y-86629875D01*
X139152500Y-86629875D01*
X139152500Y-87048154D01*
X139200836Y-87164849D01*
X139290150Y-87254163D01*
X139406845Y-87302500D01*
X139700125Y-87302500D01*
X139779500Y-87223125D01*
X139779500Y-86550500D01*
X140160500Y-86550500D01*
X140160500Y-87223125D01*
X140239875Y-87302500D01*
X140533155Y-87302500D01*
X140649850Y-87254163D01*
X140739164Y-87164849D01*
X140787500Y-87048154D01*
X140787500Y-86629875D01*
X140708125Y-86550500D01*
X140160500Y-86550500D01*
X139779500Y-86550500D01*
X139231875Y-86550500D01*
X139152500Y-86629875D01*
X136688500Y-86629875D01*
X136688500Y-85671846D01*
X139152500Y-85671846D01*
X139152500Y-86090125D01*
X139231875Y-86169500D01*
X139779500Y-86169500D01*
X139779500Y-85496875D01*
X140160500Y-85496875D01*
X140160500Y-86169500D01*
X140708125Y-86169500D01*
X140787500Y-86090125D01*
X140787500Y-85735000D01*
X141146280Y-85735000D01*
X141146280Y-86985000D01*
X141168419Y-87102658D01*
X141237955Y-87210721D01*
X141344055Y-87283215D01*
X141470000Y-87308720D01*
X142470000Y-87308720D01*
X142587658Y-87286581D01*
X142695721Y-87217045D01*
X142768215Y-87110945D01*
X142785107Y-87027533D01*
X142880191Y-87027616D01*
X143125614Y-86926209D01*
X143313549Y-86738602D01*
X143415384Y-86493356D01*
X143415616Y-86227809D01*
X143314209Y-85982386D01*
X143126602Y-85794451D01*
X142881356Y-85692616D01*
X142785729Y-85692532D01*
X142771581Y-85617342D01*
X142702045Y-85509279D01*
X142595945Y-85436785D01*
X142470000Y-85411280D01*
X141470000Y-85411280D01*
X141352342Y-85433419D01*
X141244279Y-85502955D01*
X141171785Y-85609055D01*
X141146280Y-85735000D01*
X140787500Y-85735000D01*
X140787500Y-85671846D01*
X140739164Y-85555151D01*
X140649850Y-85465837D01*
X140533155Y-85417500D01*
X140239875Y-85417500D01*
X140160500Y-85496875D01*
X139779500Y-85496875D01*
X139700125Y-85417500D01*
X139406845Y-85417500D01*
X139290150Y-85465837D01*
X139200836Y-85555151D01*
X139152500Y-85671846D01*
X136688500Y-85671846D01*
X136688500Y-85280500D01*
X136656720Y-85120730D01*
X136566217Y-84985283D01*
X134400809Y-82819875D01*
X136852500Y-82819875D01*
X136852500Y-83863154D01*
X136900836Y-83979849D01*
X136990150Y-84069163D01*
X137106845Y-84117500D01*
X138175125Y-84117500D01*
X138254500Y-84038125D01*
X138254500Y-82740500D01*
X138635500Y-82740500D01*
X138635500Y-84038125D01*
X138714875Y-84117500D01*
X139783155Y-84117500D01*
X139899850Y-84069163D01*
X139989164Y-83979849D01*
X140037500Y-83863154D01*
X140037500Y-82819875D01*
X139958125Y-82740500D01*
X138635500Y-82740500D01*
X138254500Y-82740500D01*
X136931875Y-82740500D01*
X136852500Y-82819875D01*
X134400809Y-82819875D01*
X132817780Y-81236846D01*
X136852500Y-81236846D01*
X136852500Y-82280125D01*
X136931875Y-82359500D01*
X138254500Y-82359500D01*
X138254500Y-81061875D01*
X138635500Y-81061875D01*
X138635500Y-82359500D01*
X139958125Y-82359500D01*
X140037500Y-82280125D01*
X140037500Y-81300000D01*
X141896280Y-81300000D01*
X141896280Y-83800000D01*
X141918419Y-83917658D01*
X141987955Y-84025721D01*
X142094055Y-84098215D01*
X142220000Y-84123720D01*
X142860783Y-84123720D01*
X142943791Y-84324614D01*
X143131398Y-84512549D01*
X143376644Y-84614384D01*
X143642191Y-84614616D01*
X143887614Y-84513209D01*
X144075549Y-84325602D01*
X144159378Y-84123720D01*
X144770000Y-84123720D01*
X144887658Y-84101581D01*
X144995721Y-84032045D01*
X145068215Y-83925945D01*
X145093720Y-83800000D01*
X145093720Y-83217553D01*
X145166191Y-83217616D01*
X145411614Y-83116209D01*
X145599549Y-82928602D01*
X145701384Y-82683356D01*
X145701616Y-82417809D01*
X145600209Y-82172386D01*
X145412602Y-81984451D01*
X145167356Y-81882616D01*
X145093720Y-81882552D01*
X145093720Y-81300000D01*
X145071581Y-81182342D01*
X145002045Y-81074279D01*
X144895945Y-81001785D01*
X144770000Y-80976280D01*
X144177544Y-80976280D01*
X144177616Y-80893809D01*
X144076209Y-80648386D01*
X143888602Y-80460451D01*
X143643356Y-80358616D01*
X143377809Y-80358384D01*
X143132386Y-80459791D01*
X142944451Y-80647398D01*
X142842616Y-80892644D01*
X142842543Y-80976280D01*
X142220000Y-80976280D01*
X142102342Y-80998419D01*
X141994279Y-81067955D01*
X141921785Y-81174055D01*
X141896280Y-81300000D01*
X140037500Y-81300000D01*
X140037500Y-81236846D01*
X139989164Y-81120151D01*
X139899850Y-81030837D01*
X139783155Y-80982500D01*
X138714875Y-80982500D01*
X138635500Y-81061875D01*
X138254500Y-81061875D01*
X138175125Y-80982500D01*
X137106845Y-80982500D01*
X136990150Y-81030837D01*
X136900836Y-81120151D01*
X136852500Y-81236846D01*
X132817780Y-81236846D01*
X127485717Y-75904783D01*
X127350271Y-75814280D01*
X127190500Y-75782500D01*
X123010730Y-75782500D01*
X122910336Y-75539528D01*
X122582199Y-75210819D01*
X122153249Y-75032703D01*
X121688789Y-75032297D01*
X121259528Y-75209664D01*
X120930819Y-75537801D01*
X120752703Y-75966751D01*
X120752297Y-76431211D01*
X120074250Y-76431211D01*
X120078437Y-74702365D01*
X120168302Y-74612500D01*
X160972347Y-74612500D01*
X160845653Y-127190303D01*
G04 #@! TD*
M02*
