G04 #@! TF.GenerationSoftware,KiCad,Pcbnew,(5.0.1-3-g963ef8bb5)*
G04 #@! TF.CreationDate,2019-05-17T23:13:26-07:00*
G04 #@! TF.ProjectId,oakram,6F616B72616D2E6B696361645F706362,rev?*
G04 #@! TF.SameCoordinates,Original*
G04 #@! TF.FileFunction,Legend,Top*
G04 #@! TF.FilePolarity,Positive*
%FSLAX46Y46*%
G04 Gerber Fmt 4.6, Leading zero omitted, Abs format (unit mm)*
G04 Created by KiCad (PCBNEW (5.0.1-3-g963ef8bb5)) date Friday, May 17, 2019 at 11:13:26 PM*
%MOMM*%
%LPD*%
G01*
G04 APERTURE LIST*
%ADD10C,0.150000*%
%ADD11C,0.100000*%
%ADD12C,0.120000*%
G04 APERTURE END LIST*
D10*
G04 #@! TO.C,U2*
X137160000Y-87884000D02*
X137160000Y-115316000D01*
X129540000Y-115316000D02*
X129540000Y-87884000D01*
X129540000Y-87884000D02*
X137160000Y-87884000D01*
X129540000Y-115316000D02*
X137160000Y-115316000D01*
X132588000Y-89408000D02*
G75*
G03X132588000Y-89408000I-1270000J0D01*
G01*
G04 #@! TO.C,U1*
X147193000Y-89408000D02*
G75*
G03X147193000Y-89408000I-1270000J0D01*
G01*
X144145000Y-115316000D02*
X151765000Y-115316000D01*
X144145000Y-87884000D02*
X151765000Y-87884000D01*
X144145000Y-115316000D02*
X144145000Y-87884000D01*
X151765000Y-87884000D02*
X151765000Y-115316000D01*
D11*
G04 #@! TO.C,X1*
X120520000Y-74930000D02*
X126120000Y-74930000D01*
X126120000Y-74930000D02*
X126120000Y-127000000D01*
X126120000Y-127000000D02*
X120520000Y-127000000D01*
X120520000Y-127000000D02*
X120520000Y-74930000D01*
G04 #@! TO.C,X2*
X154934000Y-127000000D02*
X154934000Y-74930000D01*
X160534000Y-127000000D02*
X154934000Y-127000000D01*
X160534000Y-74930000D02*
X160534000Y-127000000D01*
X154934000Y-74930000D02*
X160534000Y-74930000D01*
D12*
G04 #@! TO.C,C1*
X129040000Y-117055000D02*
X130040000Y-117055000D01*
X130040000Y-115355000D02*
X129040000Y-115355000D01*
G04 #@! TO.C,C3*
X143645000Y-117055000D02*
X144645000Y-117055000D01*
X144645000Y-115355000D02*
X143645000Y-115355000D01*
G04 #@! TO.C,C6*
X140470000Y-87210000D02*
X141470000Y-87210000D01*
X141470000Y-85510000D02*
X140470000Y-85510000D01*
G04 #@! TO.C,C7*
X145070000Y-84400000D02*
X145070000Y-80700000D01*
X145070000Y-80700000D02*
X137970000Y-80700000D01*
X145070000Y-84400000D02*
X137970000Y-84400000D01*
G04 #@! TO.C,U2*
D10*
X132802380Y-102361904D02*
X133611904Y-102361904D01*
X133707142Y-102314285D01*
X133754761Y-102266666D01*
X133802380Y-102171428D01*
X133802380Y-101980952D01*
X133754761Y-101885714D01*
X133707142Y-101838095D01*
X133611904Y-101790476D01*
X132802380Y-101790476D01*
X132897619Y-101361904D02*
X132850000Y-101314285D01*
X132802380Y-101219047D01*
X132802380Y-100980952D01*
X132850000Y-100885714D01*
X132897619Y-100838095D01*
X132992857Y-100790476D01*
X133088095Y-100790476D01*
X133230952Y-100838095D01*
X133802380Y-101409523D01*
X133802380Y-100790476D01*
G04 #@! TO.C,U1*
X147407380Y-102361904D02*
X148216904Y-102361904D01*
X148312142Y-102314285D01*
X148359761Y-102266666D01*
X148407380Y-102171428D01*
X148407380Y-101980952D01*
X148359761Y-101885714D01*
X148312142Y-101838095D01*
X148216904Y-101790476D01*
X147407380Y-101790476D01*
X148407380Y-100790476D02*
X148407380Y-101361904D01*
X148407380Y-101076190D02*
X147407380Y-101076190D01*
X147550238Y-101171428D01*
X147645476Y-101266666D01*
X147693095Y-101361904D01*
G04 #@! TO.C,X1*
X127079476Y-75144380D02*
X127746142Y-76144380D01*
X127746142Y-75144380D02*
X127079476Y-76144380D01*
X128650904Y-76144380D02*
X128079476Y-76144380D01*
X128365190Y-76144380D02*
X128365190Y-75144380D01*
X128269952Y-75287238D01*
X128174714Y-75382476D01*
X128079476Y-75430095D01*
G04 #@! TO.C,X2*
X152606476Y-75271380D02*
X153273142Y-76271380D01*
X153273142Y-75271380D02*
X152606476Y-76271380D01*
X153606476Y-75366619D02*
X153654095Y-75319000D01*
X153749333Y-75271380D01*
X153987428Y-75271380D01*
X154082666Y-75319000D01*
X154130285Y-75366619D01*
X154177904Y-75461857D01*
X154177904Y-75557095D01*
X154130285Y-75699952D01*
X153558857Y-76271380D01*
X154177904Y-76271380D01*
G04 #@! TO.C,C1*
X131532333Y-118213142D02*
X131484714Y-118260761D01*
X131341857Y-118308380D01*
X131246619Y-118308380D01*
X131103761Y-118260761D01*
X131008523Y-118165523D01*
X130960904Y-118070285D01*
X130913285Y-117879809D01*
X130913285Y-117736952D01*
X130960904Y-117546476D01*
X131008523Y-117451238D01*
X131103761Y-117356000D01*
X131246619Y-117308380D01*
X131341857Y-117308380D01*
X131484714Y-117356000D01*
X131532333Y-117403619D01*
X132484714Y-118308380D02*
X131913285Y-118308380D01*
X132199000Y-118308380D02*
X132199000Y-117308380D01*
X132103761Y-117451238D01*
X132008523Y-117546476D01*
X131913285Y-117594095D01*
G04 #@! TO.C,C3*
X146391333Y-118213142D02*
X146343714Y-118260761D01*
X146200857Y-118308380D01*
X146105619Y-118308380D01*
X145962761Y-118260761D01*
X145867523Y-118165523D01*
X145819904Y-118070285D01*
X145772285Y-117879809D01*
X145772285Y-117736952D01*
X145819904Y-117546476D01*
X145867523Y-117451238D01*
X145962761Y-117356000D01*
X146105619Y-117308380D01*
X146200857Y-117308380D01*
X146343714Y-117356000D01*
X146391333Y-117403619D01*
X146724666Y-117308380D02*
X147343714Y-117308380D01*
X147010380Y-117689333D01*
X147153238Y-117689333D01*
X147248476Y-117736952D01*
X147296095Y-117784571D01*
X147343714Y-117879809D01*
X147343714Y-118117904D01*
X147296095Y-118213142D01*
X147248476Y-118260761D01*
X147153238Y-118308380D01*
X146867523Y-118308380D01*
X146772285Y-118260761D01*
X146724666Y-118213142D01*
G04 #@! TO.C,C6*
X138009333Y-86717142D02*
X137961714Y-86764761D01*
X137818857Y-86812380D01*
X137723619Y-86812380D01*
X137580761Y-86764761D01*
X137485523Y-86669523D01*
X137437904Y-86574285D01*
X137390285Y-86383809D01*
X137390285Y-86240952D01*
X137437904Y-86050476D01*
X137485523Y-85955238D01*
X137580761Y-85860000D01*
X137723619Y-85812380D01*
X137818857Y-85812380D01*
X137961714Y-85860000D01*
X138009333Y-85907619D01*
X138866476Y-85812380D02*
X138676000Y-85812380D01*
X138580761Y-85860000D01*
X138533142Y-85907619D01*
X138437904Y-86050476D01*
X138390285Y-86240952D01*
X138390285Y-86621904D01*
X138437904Y-86717142D01*
X138485523Y-86764761D01*
X138580761Y-86812380D01*
X138771238Y-86812380D01*
X138866476Y-86764761D01*
X138914095Y-86717142D01*
X138961714Y-86621904D01*
X138961714Y-86383809D01*
X138914095Y-86288571D01*
X138866476Y-86240952D01*
X138771238Y-86193333D01*
X138580761Y-86193333D01*
X138485523Y-86240952D01*
X138437904Y-86288571D01*
X138390285Y-86383809D01*
G04 #@! TO.C,C7*
X140930333Y-80240142D02*
X140882714Y-80287761D01*
X140739857Y-80335380D01*
X140644619Y-80335380D01*
X140501761Y-80287761D01*
X140406523Y-80192523D01*
X140358904Y-80097285D01*
X140311285Y-79906809D01*
X140311285Y-79763952D01*
X140358904Y-79573476D01*
X140406523Y-79478238D01*
X140501761Y-79383000D01*
X140644619Y-79335380D01*
X140739857Y-79335380D01*
X140882714Y-79383000D01*
X140930333Y-79430619D01*
X141263666Y-79335380D02*
X141930333Y-79335380D01*
X141501761Y-80335380D01*
G04 #@! TD*
M02*
