G04 #@! TF.GenerationSoftware,KiCad,Pcbnew,(5.0.1-3-g963ef8bb5)*
G04 #@! TF.CreationDate,2019-05-18T06:55:51-07:00*
G04 #@! TF.ProjectId,oakram,6F616B72616D2E6B696361645F706362,rev?*
G04 #@! TF.SameCoordinates,Original*
G04 #@! TF.FileFunction,Copper,L2,Bot,Signal*
G04 #@! TF.FilePolarity,Positive*
%FSLAX46Y46*%
G04 Gerber Fmt 4.6, Leading zero omitted, Abs format (unit mm)*
G04 Created by KiCad (PCBNEW (5.0.1-3-g963ef8bb5)) date Saturday, May 18, 2019 at 06:55:51 AM*
%MOMM*%
%LPD*%
G01*
G04 APERTURE LIST*
G04 #@! TA.AperFunction,ViaPad*
%ADD10C,0.600000*%
G04 #@! TD*
G04 #@! TA.AperFunction,ComponentPad*
%ADD11C,1.700000*%
G04 #@! TD*
G04 #@! TA.AperFunction,SMDPad,CuDef*
%ADD12R,1.250000X1.000000*%
G04 #@! TD*
G04 #@! TA.AperFunction,ViaPad*
%ADD13C,0.700000*%
G04 #@! TD*
G04 #@! TA.AperFunction,Conductor*
%ADD14C,0.200000*%
G04 #@! TD*
G04 #@! TA.AperFunction,Conductor*
%ADD15C,0.500000*%
G04 #@! TD*
G04 #@! TA.AperFunction,Conductor*
%ADD16C,0.177800*%
G04 #@! TD*
G04 APERTURE END LIST*
D10*
G04 #@! TO.N,VSS*
G04 #@! TO.C,*
X148336000Y-77724000D03*
G04 #@! TD*
G04 #@! TO.N,VSS*
G04 #@! TO.C,*
X140081000Y-77724000D03*
G04 #@! TD*
G04 #@! TO.N,VSS*
G04 #@! TO.C,*
X144399000Y-77724000D03*
G04 #@! TD*
G04 #@! TO.N,VSS*
G04 #@! TO.C,*
X132334000Y-77724000D03*
G04 #@! TD*
G04 #@! TO.N,VSS*
G04 #@! TO.C,*
X136271000Y-77724000D03*
G04 #@! TD*
G04 #@! TO.N,VSS*
G04 #@! TO.C,*
X136271000Y-77724000D03*
G04 #@! TD*
G04 #@! TO.N,VSS*
G04 #@! TO.C,*
X147828000Y-123317000D03*
G04 #@! TD*
G04 #@! TO.N,VSS*
G04 #@! TO.C,*
X132334000Y-77724000D03*
G04 #@! TD*
G04 #@! TO.N,VSS*
G04 #@! TO.C,*
X133985000Y-123190000D03*
G04 #@! TD*
D11*
G04 #@! TO.P,X1,1*
G04 #@! TO.N,/D8*
X121920000Y-76200000D03*
G04 #@! TO.P,X1,2*
G04 #@! TO.N,/D9*
X124720000Y-77470000D03*
G04 #@! TO.P,X1,3*
G04 #@! TO.N,/D10*
X121920000Y-78740000D03*
G04 #@! TO.P,X1,4*
G04 #@! TO.N,/D11*
X124720000Y-80010000D03*
G04 #@! TO.P,X1,7*
G04 #@! TO.N,/D13*
X121920000Y-83820000D03*
G04 #@! TO.P,X1,5*
G04 #@! TO.N,VSS*
X121920000Y-81280000D03*
G04 #@! TO.P,X1,6*
G04 #@! TO.N,/D12*
X124720000Y-82550000D03*
G04 #@! TO.P,X1,8*
G04 #@! TO.N,/D14*
X124720000Y-85090000D03*
G04 #@! TO.P,X1,11*
G04 #@! TO.N,VCC*
X121920000Y-88900000D03*
G04 #@! TO.P,X1,16*
X124720000Y-95250000D03*
G04 #@! TO.P,X1,9*
G04 #@! TO.N,/D15*
X121920000Y-86360000D03*
G04 #@! TO.P,X1,14*
G04 #@! TO.N,/D2*
X124720000Y-92710000D03*
G04 #@! TO.P,X1,10*
G04 #@! TO.N,VSS*
X124720000Y-87630000D03*
G04 #@! TO.P,X1,12*
G04 #@! TO.N,/D0*
X124720000Y-90170000D03*
G04 #@! TO.P,X1,13*
G04 #@! TO.N,/D1*
X121920000Y-91440000D03*
G04 #@! TO.P,X1,15*
G04 #@! TO.N,/D3*
X121920000Y-93980000D03*
G04 #@! TO.P,X1,19*
G04 #@! TO.N,/D6*
X121920000Y-99060000D03*
G04 #@! TO.P,X1,27*
G04 #@! TO.N,/A1*
X121920000Y-109220000D03*
G04 #@! TO.P,X1,24*
G04 #@! TO.N,/~RAS*
X124720000Y-105410000D03*
G04 #@! TO.P,X1,17*
G04 #@! TO.N,/D4*
X121920000Y-96520000D03*
G04 #@! TO.P,X1,28*
G04 #@! TO.N,/A2*
X124720000Y-110490000D03*
G04 #@! TO.P,X1,25*
G04 #@! TO.N,Net-(X1-Pad25)*
X121920000Y-106680000D03*
G04 #@! TO.P,X1,22*
G04 #@! TO.N,/A9*
X124720000Y-102870000D03*
G04 #@! TO.P,X1,32*
G04 #@! TO.N,Net-(X1-Pad32)*
X124720000Y-115570000D03*
G04 #@! TO.P,X1,18*
G04 #@! TO.N,/D5*
X124720000Y-97790000D03*
G04 #@! TO.P,X1,20*
G04 #@! TO.N,/D7*
X124720000Y-100330000D03*
G04 #@! TO.P,X1,21*
G04 #@! TO.N,Net-(X1-Pad21)*
X121920000Y-101600000D03*
G04 #@! TO.P,X1,23*
G04 #@! TO.N,/~WE*
X121920000Y-104140000D03*
G04 #@! TO.P,X1,26*
G04 #@! TO.N,/A0*
X124720000Y-107950000D03*
G04 #@! TO.P,X1,29*
G04 #@! TO.N,/A3*
X121920000Y-111760000D03*
G04 #@! TO.P,X1,31*
G04 #@! TO.N,VSS*
X121920000Y-114300000D03*
G04 #@! TO.P,X1,30*
G04 #@! TO.N,VCC*
X124720000Y-113030000D03*
G04 #@! TO.P,X1,37*
G04 #@! TO.N,/~OE1*
X121920000Y-121920000D03*
G04 #@! TO.P,X1,34*
G04 #@! TO.N,Net-(X1-Pad34)*
X124720000Y-118110000D03*
G04 #@! TO.P,X1,36*
G04 #@! TO.N,Net-(X1-Pad36)*
X124720000Y-120650000D03*
G04 #@! TO.P,X1,39*
G04 #@! TO.N,/~CAS0*
X121920000Y-124460000D03*
G04 #@! TO.P,X1,40*
G04 #@! TO.N,Net-(X1-Pad40)*
X124720000Y-125730000D03*
G04 #@! TO.P,X1,35*
G04 #@! TO.N,Net-(X1-Pad35)*
X121920000Y-119380000D03*
G04 #@! TO.P,X1,33*
G04 #@! TO.N,Net-(X1-Pad33)*
X121920000Y-116840000D03*
G04 #@! TO.P,X1,38*
G04 #@! TO.N,/~CAS1*
X124720000Y-123190000D03*
G04 #@! TD*
G04 #@! TO.P,X2,38*
G04 #@! TO.N,/~CAS3*
X159134000Y-123190000D03*
G04 #@! TO.P,X2,33*
G04 #@! TO.N,/A5*
X156334000Y-116840000D03*
G04 #@! TO.P,X2,35*
G04 #@! TO.N,/A7*
X156334000Y-119380000D03*
G04 #@! TO.P,X2,40*
G04 #@! TO.N,Net-(X2-Pad40)*
X159134000Y-125730000D03*
G04 #@! TO.P,X2,39*
G04 #@! TO.N,/~CAS2*
X156334000Y-124460000D03*
G04 #@! TO.P,X2,36*
G04 #@! TO.N,/A8*
X159134000Y-120650000D03*
G04 #@! TO.P,X2,34*
G04 #@! TO.N,/A6*
X159134000Y-118110000D03*
G04 #@! TO.P,X2,37*
G04 #@! TO.N,/~OE2*
X156334000Y-121920000D03*
G04 #@! TO.P,X2,30*
G04 #@! TO.N,VCC*
X159134000Y-113030000D03*
G04 #@! TO.P,X2,31*
G04 #@! TO.N,VSS*
X156334000Y-114300000D03*
G04 #@! TO.P,X2,29*
G04 #@! TO.N,Net-(X2-Pad29)*
X156334000Y-111760000D03*
G04 #@! TO.P,X2,26*
G04 #@! TO.N,Net-(X2-Pad26)*
X159134000Y-107950000D03*
G04 #@! TO.P,X2,23*
G04 #@! TO.N,Net-(X2-Pad23)*
X156334000Y-104140000D03*
G04 #@! TO.P,X2,21*
G04 #@! TO.N,Net-(X2-Pad21)*
X156334000Y-101600000D03*
G04 #@! TO.P,X2,20*
G04 #@! TO.N,/D23*
X159134000Y-100330000D03*
G04 #@! TO.P,X2,18*
G04 #@! TO.N,/D21*
X159134000Y-97790000D03*
G04 #@! TO.P,X2,32*
G04 #@! TO.N,/A4*
X159134000Y-115570000D03*
G04 #@! TO.P,X2,22*
G04 #@! TO.N,Net-(X2-Pad22)*
X159134000Y-102870000D03*
G04 #@! TO.P,X2,25*
G04 #@! TO.N,Net-(X2-Pad25)*
X156334000Y-106680000D03*
G04 #@! TO.P,X2,28*
G04 #@! TO.N,Net-(X2-Pad28)*
X159134000Y-110490000D03*
G04 #@! TO.P,X2,17*
G04 #@! TO.N,/D20*
X156334000Y-96520000D03*
G04 #@! TO.P,X2,24*
G04 #@! TO.N,Net-(X2-Pad24)*
X159134000Y-105410000D03*
G04 #@! TO.P,X2,27*
G04 #@! TO.N,Net-(X2-Pad27)*
X156334000Y-109220000D03*
G04 #@! TO.P,X2,19*
G04 #@! TO.N,/D22*
X156334000Y-99060000D03*
G04 #@! TO.P,X2,15*
G04 #@! TO.N,/D19*
X156334000Y-93980000D03*
G04 #@! TO.P,X2,13*
G04 #@! TO.N,/D17*
X156334000Y-91440000D03*
G04 #@! TO.P,X2,12*
G04 #@! TO.N,/D16*
X159134000Y-90170000D03*
G04 #@! TO.P,X2,10*
G04 #@! TO.N,VSS*
X159134000Y-87630000D03*
G04 #@! TO.P,X2,14*
G04 #@! TO.N,/D18*
X159134000Y-92710000D03*
G04 #@! TO.P,X2,9*
G04 #@! TO.N,/D31*
X156334000Y-86360000D03*
G04 #@! TO.P,X2,16*
G04 #@! TO.N,VCC*
X159134000Y-95250000D03*
G04 #@! TO.P,X2,11*
X156334000Y-88900000D03*
G04 #@! TO.P,X2,8*
G04 #@! TO.N,/D30*
X159134000Y-85090000D03*
G04 #@! TO.P,X2,6*
G04 #@! TO.N,/D28*
X159134000Y-82550000D03*
G04 #@! TO.P,X2,5*
G04 #@! TO.N,VSS*
X156334000Y-81280000D03*
G04 #@! TO.P,X2,7*
G04 #@! TO.N,/D29*
X156334000Y-83820000D03*
G04 #@! TO.P,X2,4*
G04 #@! TO.N,/D27*
X159134000Y-80010000D03*
G04 #@! TO.P,X2,3*
G04 #@! TO.N,/D26*
X156334000Y-78740000D03*
G04 #@! TO.P,X2,2*
G04 #@! TO.N,/D25*
X159134000Y-77470000D03*
G04 #@! TO.P,X2,1*
G04 #@! TO.N,/D24*
X156334000Y-76200000D03*
G04 #@! TD*
D12*
G04 #@! TO.P,C2,1*
G04 #@! TO.N,VCC*
X130175000Y-96155000D03*
G04 #@! TO.P,C2,2*
G04 #@! TO.N,VSS*
X130175000Y-98155000D03*
G04 #@! TD*
G04 #@! TO.P,C4,1*
G04 #@! TO.N,VCC*
X140970000Y-96155000D03*
G04 #@! TO.P,C4,2*
G04 #@! TO.N,VSS*
X140970000Y-98155000D03*
G04 #@! TD*
G04 #@! TO.P,C5,2*
G04 #@! TO.N,VSS*
X129540000Y-91170000D03*
G04 #@! TO.P,C5,1*
G04 #@! TO.N,VCC*
X129540000Y-89170000D03*
G04 #@! TD*
D13*
G04 #@! TO.N,/A9*
X134747000Y-102235000D03*
X136017000Y-106680000D03*
G04 #@! TO.N,/A4*
X151450000Y-113000000D03*
G04 #@! TO.N,/A6*
X148980000Y-110550000D03*
G04 #@! TO.N,/A8*
X146820000Y-107930000D03*
G04 #@! TO.N,/~CAS0*
X132207000Y-102870000D03*
G04 #@! TO.N,/A7*
X147910000Y-109120000D03*
G04 #@! TO.N,/A5*
X150080000Y-111790000D03*
G04 #@! TO.N,/~CAS1*
X130937000Y-104267000D03*
G04 #@! TO.N,VSS*
X140970000Y-98806000D03*
X130175000Y-98679000D03*
X130175000Y-91694000D03*
G04 #@! TO.N,VCC*
X129540000Y-88519000D03*
X142367000Y-116205000D03*
X141605000Y-95250000D03*
X129413000Y-95250000D03*
X142748000Y-86360000D03*
X144018000Y-88519000D03*
X143510000Y-83947000D03*
X145034000Y-82550000D03*
X143510000Y-81026000D03*
G04 #@! TO.N,/~OE1*
X132588000Y-121793000D03*
X134620000Y-105537000D03*
G04 #@! TO.N,/~OE2*
X145796000Y-105537000D03*
G04 #@! TD*
D14*
G04 #@! TO.N,/A9*
X136000000Y-103488000D02*
X134747000Y-102235000D01*
X136000000Y-106663000D02*
X136000000Y-103488000D01*
X136017000Y-106680000D02*
X136000000Y-106663000D01*
G04 #@! TO.N,/A4*
X159134000Y-115570000D02*
X154020000Y-115570000D01*
X154020000Y-115570000D02*
X151799999Y-113349999D01*
X151799999Y-113349999D02*
X151450000Y-113000000D01*
G04 #@! TO.N,/A6*
X148980000Y-111044974D02*
X148980000Y-110550000D01*
X148980000Y-114010000D02*
X148980000Y-111044974D01*
X153080000Y-118110000D02*
X148980000Y-114010000D01*
X159134000Y-118110000D02*
X153080000Y-118110000D01*
G04 #@! TO.N,/A8*
X146820000Y-108424974D02*
X146820000Y-107930000D01*
X146820000Y-115170000D02*
X146820000Y-108424974D01*
X152300000Y-120650000D02*
X146820000Y-115170000D01*
X159134000Y-120650000D02*
X152300000Y-120650000D01*
G04 #@! TO.N,/~CAS0*
X121920000Y-124460000D02*
X126492000Y-124460000D01*
X132207000Y-118745000D02*
X132207000Y-102870000D01*
X126492000Y-124460000D02*
X132207000Y-118745000D01*
G04 #@! TO.N,/A7*
X147910000Y-114630000D02*
X147910000Y-109614974D01*
X152660000Y-119380000D02*
X147910000Y-114630000D01*
X147910000Y-109614974D02*
X147910000Y-109120000D01*
X156334000Y-119380000D02*
X152660000Y-119380000D01*
G04 #@! TO.N,/A5*
X150080000Y-112284974D02*
X150080000Y-111790000D01*
X150080000Y-113250000D02*
X150080000Y-112284974D01*
X153670000Y-116840000D02*
X150080000Y-113250000D01*
X156334000Y-116840000D02*
X153670000Y-116840000D01*
G04 #@! TO.N,/~CAS1*
X130937000Y-104267000D02*
X130937000Y-118618000D01*
X126365000Y-123190000D02*
X124720000Y-123190000D01*
X130937000Y-118618000D02*
X126365000Y-123190000D01*
G04 #@! TO.N,VSS*
X140970000Y-98155000D02*
X140970000Y-98806000D01*
X130175000Y-98155000D02*
X130175000Y-98679000D01*
X129540000Y-91170000D02*
X129651000Y-91170000D01*
X129651000Y-91170000D02*
X130175000Y-91694000D01*
X129540000Y-91170000D02*
X129540000Y-91313000D01*
G04 #@! TO.N,VCC*
X129540000Y-88519000D02*
X129540000Y-89170000D01*
X129540000Y-89170000D02*
X129540000Y-88773000D01*
D15*
X121920000Y-88900000D02*
X120667599Y-87647599D01*
X142748000Y-81788000D02*
X142748000Y-86360000D01*
X143510000Y-81026000D02*
X142748000Y-81788000D01*
X142748000Y-87249000D02*
X144018000Y-88519000D01*
X142748000Y-86360000D02*
X142748000Y-87249000D01*
X141605000Y-90932000D02*
X141605000Y-95250000D01*
X144018000Y-88519000D02*
X141605000Y-90932000D01*
X156334000Y-88900000D02*
X160346401Y-88900000D01*
X160346401Y-88900000D02*
X160386401Y-88860000D01*
X142367000Y-126969401D02*
X142380000Y-126982401D01*
X142367000Y-116205000D02*
X142367000Y-126969401D01*
X120687599Y-113030000D02*
X120667599Y-113050000D01*
X124720000Y-113030000D02*
X120687599Y-113030000D01*
X120737599Y-95250000D02*
X120667599Y-95320000D01*
X124720000Y-95250000D02*
X120737599Y-95250000D01*
X124720000Y-95250000D02*
X129413000Y-95250000D01*
X129159000Y-88900000D02*
X129540000Y-88519000D01*
X121920000Y-88900000D02*
X129159000Y-88900000D01*
X129413000Y-95393000D02*
X130175000Y-96155000D01*
X129413000Y-95250000D02*
X129413000Y-95393000D01*
X141605000Y-95520000D02*
X140970000Y-96155000D01*
X141605000Y-95250000D02*
X141605000Y-95520000D01*
X160970000Y-114866000D02*
X159134000Y-113030000D01*
X160970000Y-125747554D02*
X160970000Y-114866000D01*
X159735153Y-126982401D02*
X160970000Y-125747554D01*
X142380000Y-126982401D02*
X159735153Y-126982401D01*
X159983999Y-112180001D02*
X159134000Y-113030000D01*
X160940000Y-111224000D02*
X159983999Y-112180001D01*
X160940000Y-97056000D02*
X160940000Y-111224000D01*
X159134000Y-95250000D02*
X160940000Y-97056000D01*
X159983999Y-94400001D02*
X159134000Y-95250000D01*
X160830000Y-93554000D02*
X159983999Y-94400001D01*
X160830000Y-89303599D02*
X160830000Y-93554000D01*
X160386401Y-88860000D02*
X160830000Y-89303599D01*
X160980000Y-88266401D02*
X160386401Y-88860000D01*
X160980000Y-76760000D02*
X160980000Y-88266401D01*
X121520000Y-74450000D02*
X141830000Y-74450000D01*
X120180000Y-75790000D02*
X121520000Y-74450000D01*
X120180000Y-87160000D02*
X120180000Y-75790000D01*
X120667599Y-87647599D02*
X120180000Y-87160000D01*
X120180000Y-94832401D02*
X120667599Y-95320000D01*
X120180000Y-88135198D02*
X120180000Y-94832401D01*
X120667599Y-87647599D02*
X120180000Y-88135198D01*
X120210000Y-112592401D02*
X120667599Y-113050000D01*
X120210000Y-95777599D02*
X120210000Y-112592401D01*
X120667599Y-95320000D02*
X120210000Y-95777599D01*
X120180000Y-125150000D02*
X122012401Y-126982401D01*
X120180000Y-113537599D02*
X120180000Y-125150000D01*
X122012401Y-126982401D02*
X142380000Y-126982401D01*
X120667599Y-113050000D02*
X120180000Y-113537599D01*
X158670000Y-74450000D02*
X159570000Y-75350000D01*
X159570000Y-75350000D02*
X160980000Y-76760000D01*
X143510000Y-81026000D02*
X143510000Y-74450000D01*
X143510000Y-74450000D02*
X158670000Y-74450000D01*
X141830000Y-74450000D02*
X143510000Y-74450000D01*
D14*
G04 #@! TO.N,/~OE1*
X134620000Y-119761000D02*
X132588000Y-121793000D01*
X134620000Y-105537000D02*
X134620000Y-119761000D01*
G04 #@! TO.N,/~OE2*
X151660000Y-121920000D02*
X156334000Y-121920000D01*
X145796000Y-116056000D02*
X151660000Y-121920000D01*
X145796000Y-105537000D02*
X145796000Y-116056000D01*
G04 #@! TD*
D16*
G04 #@! TO.N,VSS*
G36*
X142993300Y-80670554D02*
X142987187Y-80676667D01*
X142893300Y-80903331D01*
X142893300Y-80911976D01*
X142418622Y-81386655D01*
X142375481Y-81415481D01*
X142261280Y-81586395D01*
X142231300Y-81737114D01*
X142231300Y-81737118D01*
X142221179Y-81788000D01*
X142231300Y-81838882D01*
X142231301Y-86004553D01*
X142225187Y-86010667D01*
X142131300Y-86237331D01*
X142131300Y-86482669D01*
X142225187Y-86709333D01*
X142231300Y-86715446D01*
X142231301Y-87198114D01*
X142221179Y-87249000D01*
X142231301Y-87299887D01*
X142243578Y-87361605D01*
X142261281Y-87450606D01*
X142346656Y-87578379D01*
X142346658Y-87578381D01*
X142375482Y-87621519D01*
X142418620Y-87650343D01*
X143287276Y-88519000D01*
X141275622Y-90530655D01*
X141232481Y-90559481D01*
X141118280Y-90730395D01*
X141088300Y-90881114D01*
X141088300Y-90881118D01*
X141078179Y-90932000D01*
X141088300Y-90982882D01*
X141088301Y-94894553D01*
X141082187Y-94900667D01*
X140988300Y-95127331D01*
X140988300Y-95372669D01*
X140992611Y-95383076D01*
X140345000Y-95383076D01*
X140240939Y-95403775D01*
X140152721Y-95462721D01*
X140093775Y-95550939D01*
X140073076Y-95655000D01*
X140073076Y-96655000D01*
X140093775Y-96759061D01*
X140152721Y-96847279D01*
X140240939Y-96906225D01*
X140345000Y-96926924D01*
X141595000Y-96926924D01*
X141699061Y-96906225D01*
X141787279Y-96847279D01*
X141846225Y-96759061D01*
X141866924Y-96655000D01*
X141866924Y-96297875D01*
X155217300Y-96297875D01*
X155217300Y-96742125D01*
X155387308Y-97152559D01*
X155701441Y-97466692D01*
X156111875Y-97636700D01*
X156556125Y-97636700D01*
X156722282Y-97567875D01*
X158017300Y-97567875D01*
X158017300Y-98012125D01*
X158187308Y-98422559D01*
X158501441Y-98736692D01*
X158911875Y-98906700D01*
X159356125Y-98906700D01*
X159766559Y-98736692D01*
X160080692Y-98422559D01*
X160250700Y-98012125D01*
X160250700Y-97567875D01*
X160080692Y-97157441D01*
X159766559Y-96843308D01*
X159356125Y-96673300D01*
X158911875Y-96673300D01*
X158501441Y-96843308D01*
X158187308Y-97157441D01*
X158017300Y-97567875D01*
X156722282Y-97567875D01*
X156966559Y-97466692D01*
X157280692Y-97152559D01*
X157450700Y-96742125D01*
X157450700Y-96297875D01*
X157280692Y-95887441D01*
X156966559Y-95573308D01*
X156556125Y-95403300D01*
X156111875Y-95403300D01*
X155701441Y-95573308D01*
X155387308Y-95887441D01*
X155217300Y-96297875D01*
X141866924Y-96297875D01*
X141866924Y-95988800D01*
X141934381Y-95921343D01*
X141977519Y-95892519D01*
X142006344Y-95849380D01*
X142091720Y-95721606D01*
X142098995Y-95685033D01*
X142113119Y-95614027D01*
X142127813Y-95599333D01*
X142221700Y-95372669D01*
X142221700Y-95127331D01*
X142127813Y-94900667D01*
X142121700Y-94894554D01*
X142121700Y-93757875D01*
X155217300Y-93757875D01*
X155217300Y-94202125D01*
X155387308Y-94612559D01*
X155701441Y-94926692D01*
X156111875Y-95096700D01*
X156556125Y-95096700D01*
X156966559Y-94926692D01*
X157280692Y-94612559D01*
X157450700Y-94202125D01*
X157450700Y-93757875D01*
X157280692Y-93347441D01*
X156966559Y-93033308D01*
X156556125Y-92863300D01*
X156111875Y-92863300D01*
X155701441Y-93033308D01*
X155387308Y-93347441D01*
X155217300Y-93757875D01*
X142121700Y-93757875D01*
X142121700Y-91217875D01*
X155217300Y-91217875D01*
X155217300Y-91662125D01*
X155387308Y-92072559D01*
X155701441Y-92386692D01*
X156111875Y-92556700D01*
X156556125Y-92556700D01*
X156722282Y-92487875D01*
X158017300Y-92487875D01*
X158017300Y-92932125D01*
X158187308Y-93342559D01*
X158501441Y-93656692D01*
X158911875Y-93826700D01*
X159356125Y-93826700D01*
X159766559Y-93656692D01*
X160080692Y-93342559D01*
X160250700Y-92932125D01*
X160250700Y-92487875D01*
X160080692Y-92077441D01*
X159766559Y-91763308D01*
X159356125Y-91593300D01*
X158911875Y-91593300D01*
X158501441Y-91763308D01*
X158187308Y-92077441D01*
X158017300Y-92487875D01*
X156722282Y-92487875D01*
X156966559Y-92386692D01*
X157280692Y-92072559D01*
X157450700Y-91662125D01*
X157450700Y-91217875D01*
X157280692Y-90807441D01*
X156966559Y-90493308D01*
X156556125Y-90323300D01*
X156111875Y-90323300D01*
X155701441Y-90493308D01*
X155387308Y-90807441D01*
X155217300Y-91217875D01*
X142121700Y-91217875D01*
X142121700Y-91146023D01*
X144132024Y-89135700D01*
X144140669Y-89135700D01*
X144367333Y-89041813D01*
X144540813Y-88868333D01*
X144634700Y-88641669D01*
X144634700Y-88396331D01*
X144540813Y-88169667D01*
X144367333Y-87996187D01*
X144140669Y-87902300D01*
X144132024Y-87902300D01*
X143264700Y-87034977D01*
X143264700Y-86715446D01*
X143270813Y-86709333D01*
X143364700Y-86482669D01*
X143364700Y-86237331D01*
X143323505Y-86137875D01*
X155217300Y-86137875D01*
X155217300Y-86582125D01*
X155387308Y-86992559D01*
X155701441Y-87306692D01*
X156111875Y-87476700D01*
X156556125Y-87476700D01*
X156966559Y-87306692D01*
X157280692Y-86992559D01*
X157358755Y-86804097D01*
X158361979Y-86804097D01*
X159134000Y-87576118D01*
X159906021Y-86804097D01*
X159817731Y-86624105D01*
X159380746Y-86439021D01*
X158906196Y-86435253D01*
X158466327Y-86613374D01*
X158450269Y-86624105D01*
X158361979Y-86804097D01*
X157358755Y-86804097D01*
X157450700Y-86582125D01*
X157450700Y-86137875D01*
X157280692Y-85727441D01*
X156966559Y-85413308D01*
X156556125Y-85243300D01*
X156111875Y-85243300D01*
X155701441Y-85413308D01*
X155387308Y-85727441D01*
X155217300Y-86137875D01*
X143323505Y-86137875D01*
X143270813Y-86010667D01*
X143264700Y-86004554D01*
X143264700Y-84512905D01*
X143387331Y-84563700D01*
X143632669Y-84563700D01*
X143859333Y-84469813D01*
X144032813Y-84296333D01*
X144126700Y-84069669D01*
X144126700Y-83824331D01*
X144032900Y-83597875D01*
X155217300Y-83597875D01*
X155217300Y-84042125D01*
X155387308Y-84452559D01*
X155701441Y-84766692D01*
X156111875Y-84936700D01*
X156556125Y-84936700D01*
X156722282Y-84867875D01*
X158017300Y-84867875D01*
X158017300Y-85312125D01*
X158187308Y-85722559D01*
X158501441Y-86036692D01*
X158911875Y-86206700D01*
X159356125Y-86206700D01*
X159766559Y-86036692D01*
X160080692Y-85722559D01*
X160250700Y-85312125D01*
X160250700Y-84867875D01*
X160080692Y-84457441D01*
X159766559Y-84143308D01*
X159356125Y-83973300D01*
X158911875Y-83973300D01*
X158501441Y-84143308D01*
X158187308Y-84457441D01*
X158017300Y-84867875D01*
X156722282Y-84867875D01*
X156966559Y-84766692D01*
X157280692Y-84452559D01*
X157450700Y-84042125D01*
X157450700Y-83597875D01*
X157280692Y-83187441D01*
X156966559Y-82873308D01*
X156556125Y-82703300D01*
X156111875Y-82703300D01*
X155701441Y-82873308D01*
X155387308Y-83187441D01*
X155217300Y-83597875D01*
X144032900Y-83597875D01*
X144032813Y-83597667D01*
X143859333Y-83424187D01*
X143632669Y-83330300D01*
X143387331Y-83330300D01*
X143264700Y-83381095D01*
X143264700Y-82427331D01*
X144417300Y-82427331D01*
X144417300Y-82672669D01*
X144511187Y-82899333D01*
X144684667Y-83072813D01*
X144911331Y-83166700D01*
X145156669Y-83166700D01*
X145383333Y-83072813D01*
X145556813Y-82899333D01*
X145650700Y-82672669D01*
X145650700Y-82427331D01*
X145556813Y-82200667D01*
X145462049Y-82105903D01*
X155561979Y-82105903D01*
X155650269Y-82285895D01*
X156087254Y-82470979D01*
X156561804Y-82474747D01*
X156924503Y-82327875D01*
X158017300Y-82327875D01*
X158017300Y-82772125D01*
X158187308Y-83182559D01*
X158501441Y-83496692D01*
X158911875Y-83666700D01*
X159356125Y-83666700D01*
X159766559Y-83496692D01*
X160080692Y-83182559D01*
X160250700Y-82772125D01*
X160250700Y-82327875D01*
X160080692Y-81917441D01*
X159766559Y-81603308D01*
X159356125Y-81433300D01*
X158911875Y-81433300D01*
X158501441Y-81603308D01*
X158187308Y-81917441D01*
X158017300Y-82327875D01*
X156924503Y-82327875D01*
X157001673Y-82296626D01*
X157017731Y-82285895D01*
X157106021Y-82105903D01*
X156334000Y-81333882D01*
X155561979Y-82105903D01*
X145462049Y-82105903D01*
X145383333Y-82027187D01*
X145156669Y-81933300D01*
X144911331Y-81933300D01*
X144684667Y-82027187D01*
X144511187Y-82200667D01*
X144417300Y-82427331D01*
X143264700Y-82427331D01*
X143264700Y-82002023D01*
X143624024Y-81642700D01*
X143632669Y-81642700D01*
X143859333Y-81548813D01*
X143900342Y-81507804D01*
X155139253Y-81507804D01*
X155317374Y-81947673D01*
X155328105Y-81963731D01*
X155508097Y-82052021D01*
X156280118Y-81280000D01*
X156387882Y-81280000D01*
X157159903Y-82052021D01*
X157339895Y-81963731D01*
X157524979Y-81526746D01*
X157528747Y-81052196D01*
X157350626Y-80612327D01*
X157339895Y-80596269D01*
X157159903Y-80507979D01*
X156387882Y-81280000D01*
X156280118Y-81280000D01*
X155508097Y-80507979D01*
X155328105Y-80596269D01*
X155143021Y-81033254D01*
X155139253Y-81507804D01*
X143900342Y-81507804D01*
X144032813Y-81375333D01*
X144126700Y-81148669D01*
X144126700Y-80903331D01*
X144032813Y-80676667D01*
X144026700Y-80670554D01*
X144026700Y-80454097D01*
X155561979Y-80454097D01*
X156334000Y-81226118D01*
X157106021Y-80454097D01*
X157017731Y-80274105D01*
X156580746Y-80089021D01*
X156106196Y-80085253D01*
X155666327Y-80263374D01*
X155650269Y-80274105D01*
X155561979Y-80454097D01*
X144026700Y-80454097D01*
X144026700Y-78517875D01*
X155217300Y-78517875D01*
X155217300Y-78962125D01*
X155387308Y-79372559D01*
X155701441Y-79686692D01*
X156111875Y-79856700D01*
X156556125Y-79856700D01*
X156722282Y-79787875D01*
X158017300Y-79787875D01*
X158017300Y-80232125D01*
X158187308Y-80642559D01*
X158501441Y-80956692D01*
X158911875Y-81126700D01*
X159356125Y-81126700D01*
X159766559Y-80956692D01*
X160080692Y-80642559D01*
X160250700Y-80232125D01*
X160250700Y-79787875D01*
X160080692Y-79377441D01*
X159766559Y-79063308D01*
X159356125Y-78893300D01*
X158911875Y-78893300D01*
X158501441Y-79063308D01*
X158187308Y-79377441D01*
X158017300Y-79787875D01*
X156722282Y-79787875D01*
X156966559Y-79686692D01*
X157280692Y-79372559D01*
X157450700Y-78962125D01*
X157450700Y-78517875D01*
X157280692Y-78107441D01*
X156966559Y-77793308D01*
X156556125Y-77623300D01*
X156111875Y-77623300D01*
X155701441Y-77793308D01*
X155387308Y-78107441D01*
X155217300Y-78517875D01*
X144026700Y-78517875D01*
X144026700Y-75977875D01*
X155217300Y-75977875D01*
X155217300Y-76422125D01*
X155387308Y-76832559D01*
X155701441Y-77146692D01*
X156111875Y-77316700D01*
X156556125Y-77316700D01*
X156722282Y-77247875D01*
X158017300Y-77247875D01*
X158017300Y-77692125D01*
X158187308Y-78102559D01*
X158501441Y-78416692D01*
X158911875Y-78586700D01*
X159356125Y-78586700D01*
X159766559Y-78416692D01*
X160080692Y-78102559D01*
X160250700Y-77692125D01*
X160250700Y-77247875D01*
X160080692Y-76837441D01*
X159766559Y-76523308D01*
X159356125Y-76353300D01*
X158911875Y-76353300D01*
X158501441Y-76523308D01*
X158187308Y-76837441D01*
X158017300Y-77247875D01*
X156722282Y-77247875D01*
X156966559Y-77146692D01*
X157280692Y-76832559D01*
X157450700Y-76422125D01*
X157450700Y-75977875D01*
X157280692Y-75567441D01*
X156966559Y-75253308D01*
X156556125Y-75083300D01*
X156111875Y-75083300D01*
X155701441Y-75253308D01*
X155387308Y-75567441D01*
X155217300Y-75977875D01*
X144026700Y-75977875D01*
X144026700Y-74966700D01*
X158455977Y-74966700D01*
X159240620Y-75751344D01*
X159240623Y-75751346D01*
X160463300Y-76974024D01*
X160463301Y-88052376D01*
X160132378Y-88383300D01*
X159998068Y-88383300D01*
X160139895Y-88313731D01*
X160324979Y-87876746D01*
X160328747Y-87402196D01*
X160150626Y-86962327D01*
X160139895Y-86946269D01*
X159959903Y-86857979D01*
X159187882Y-87630000D01*
X159202024Y-87644142D01*
X159148142Y-87698024D01*
X159134000Y-87683882D01*
X159119858Y-87698024D01*
X159065976Y-87644142D01*
X159080118Y-87630000D01*
X158308097Y-86857979D01*
X158128105Y-86946269D01*
X157943021Y-87383254D01*
X157939253Y-87857804D01*
X158117374Y-88297673D01*
X158128105Y-88313731D01*
X158269932Y-88383300D01*
X157328683Y-88383300D01*
X157280692Y-88267441D01*
X156966559Y-87953308D01*
X156556125Y-87783300D01*
X156111875Y-87783300D01*
X155701441Y-87953308D01*
X155387308Y-88267441D01*
X155217300Y-88677875D01*
X155217300Y-89122125D01*
X155387308Y-89532559D01*
X155701441Y-89846692D01*
X156111875Y-90016700D01*
X156556125Y-90016700D01*
X156966559Y-89846692D01*
X157280692Y-89532559D01*
X157328683Y-89416700D01*
X158308049Y-89416700D01*
X158187308Y-89537441D01*
X158017300Y-89947875D01*
X158017300Y-90392125D01*
X158187308Y-90802559D01*
X158501441Y-91116692D01*
X158911875Y-91286700D01*
X159356125Y-91286700D01*
X159766559Y-91116692D01*
X160080692Y-90802559D01*
X160250700Y-90392125D01*
X160250700Y-89947875D01*
X160080692Y-89537441D01*
X159959951Y-89416700D01*
X160212378Y-89416700D01*
X160313300Y-89517623D01*
X160313301Y-93339975D01*
X159654622Y-93998655D01*
X159654619Y-93998657D01*
X159471985Y-94181291D01*
X159356125Y-94133300D01*
X158911875Y-94133300D01*
X158501441Y-94303308D01*
X158187308Y-94617441D01*
X158017300Y-95027875D01*
X158017300Y-95472125D01*
X158187308Y-95882559D01*
X158501441Y-96196692D01*
X158911875Y-96366700D01*
X159356125Y-96366700D01*
X159471985Y-96318709D01*
X160423300Y-97270024D01*
X160423301Y-111009975D01*
X159654622Y-111778655D01*
X159654619Y-111778657D01*
X159471985Y-111961291D01*
X159356125Y-111913300D01*
X158911875Y-111913300D01*
X158501441Y-112083308D01*
X158187308Y-112397441D01*
X158017300Y-112807875D01*
X158017300Y-113252125D01*
X158187308Y-113662559D01*
X158501441Y-113976692D01*
X158911875Y-114146700D01*
X159356125Y-114146700D01*
X159471985Y-114098709D01*
X160453301Y-115080025D01*
X160453300Y-125533530D01*
X160250700Y-125736130D01*
X160250700Y-125507875D01*
X160080692Y-125097441D01*
X159766559Y-124783308D01*
X159356125Y-124613300D01*
X158911875Y-124613300D01*
X158501441Y-124783308D01*
X158187308Y-125097441D01*
X158017300Y-125507875D01*
X158017300Y-125952125D01*
X158187308Y-126362559D01*
X158290450Y-126465701D01*
X142883700Y-126465701D01*
X142883700Y-124237875D01*
X155217300Y-124237875D01*
X155217300Y-124682125D01*
X155387308Y-125092559D01*
X155701441Y-125406692D01*
X156111875Y-125576700D01*
X156556125Y-125576700D01*
X156966559Y-125406692D01*
X157280692Y-125092559D01*
X157450700Y-124682125D01*
X157450700Y-124237875D01*
X157280692Y-123827441D01*
X156966559Y-123513308D01*
X156556125Y-123343300D01*
X156111875Y-123343300D01*
X155701441Y-123513308D01*
X155387308Y-123827441D01*
X155217300Y-124237875D01*
X142883700Y-124237875D01*
X142883700Y-116560446D01*
X142889813Y-116554333D01*
X142983700Y-116327669D01*
X142983700Y-116082331D01*
X142889813Y-115855667D01*
X142716333Y-115682187D01*
X142489669Y-115588300D01*
X142244331Y-115588300D01*
X142017667Y-115682187D01*
X141844187Y-115855667D01*
X141750300Y-116082331D01*
X141750300Y-116327669D01*
X141844187Y-116554333D01*
X141850300Y-116560446D01*
X141850301Y-126465701D01*
X125563550Y-126465701D01*
X125666692Y-126362559D01*
X125836700Y-125952125D01*
X125836700Y-125507875D01*
X125666692Y-125097441D01*
X125395951Y-124826700D01*
X126455885Y-124826700D01*
X126492000Y-124833884D01*
X126528115Y-124826700D01*
X126528117Y-124826700D01*
X126635079Y-124805424D01*
X126756376Y-124724376D01*
X126776837Y-124693754D01*
X129800260Y-121670331D01*
X131971300Y-121670331D01*
X131971300Y-121915669D01*
X132065187Y-122142333D01*
X132238667Y-122315813D01*
X132465331Y-122409700D01*
X132710669Y-122409700D01*
X132937333Y-122315813D01*
X133110813Y-122142333D01*
X133204700Y-121915669D01*
X133204700Y-121694891D01*
X134853757Y-120045835D01*
X134884376Y-120025376D01*
X134965424Y-119904079D01*
X134986700Y-119797117D01*
X134986700Y-119797116D01*
X134993884Y-119761000D01*
X134986700Y-119724885D01*
X134986700Y-106042446D01*
X135142813Y-105886333D01*
X135236700Y-105659669D01*
X135236700Y-105414331D01*
X135142813Y-105187667D01*
X134969333Y-105014187D01*
X134742669Y-104920300D01*
X134497331Y-104920300D01*
X134270667Y-105014187D01*
X134097187Y-105187667D01*
X134003300Y-105414331D01*
X134003300Y-105659669D01*
X134097187Y-105886333D01*
X134253300Y-106042446D01*
X134253301Y-119609107D01*
X132686109Y-121176300D01*
X132465331Y-121176300D01*
X132238667Y-121270187D01*
X132065187Y-121443667D01*
X131971300Y-121670331D01*
X129800260Y-121670331D01*
X132440758Y-119029834D01*
X132471376Y-119009376D01*
X132509605Y-118952162D01*
X132552424Y-118888080D01*
X132580884Y-118745000D01*
X132573700Y-118708883D01*
X132573700Y-103375446D01*
X132729813Y-103219333D01*
X132823700Y-102992669D01*
X132823700Y-102747331D01*
X132729813Y-102520667D01*
X132556333Y-102347187D01*
X132329669Y-102253300D01*
X132084331Y-102253300D01*
X131857667Y-102347187D01*
X131684187Y-102520667D01*
X131590300Y-102747331D01*
X131590300Y-102992669D01*
X131684187Y-103219333D01*
X131840301Y-103375447D01*
X131840300Y-118593108D01*
X126340109Y-124093300D01*
X125395951Y-124093300D01*
X125666692Y-123822559D01*
X125776815Y-123556700D01*
X126328885Y-123556700D01*
X126365000Y-123563884D01*
X126401115Y-123556700D01*
X126401117Y-123556700D01*
X126508079Y-123535424D01*
X126629376Y-123454376D01*
X126649837Y-123423754D01*
X131170757Y-118902835D01*
X131201376Y-118882376D01*
X131282424Y-118761079D01*
X131303700Y-118654117D01*
X131303700Y-118654113D01*
X131310883Y-118618001D01*
X131303700Y-118581889D01*
X131303700Y-104772446D01*
X131459813Y-104616333D01*
X131553700Y-104389669D01*
X131553700Y-104144331D01*
X131459813Y-103917667D01*
X131286333Y-103744187D01*
X131059669Y-103650300D01*
X130814331Y-103650300D01*
X130587667Y-103744187D01*
X130414187Y-103917667D01*
X130320300Y-104144331D01*
X130320300Y-104389669D01*
X130414187Y-104616333D01*
X130570300Y-104772446D01*
X130570301Y-118466107D01*
X126213109Y-122823300D01*
X125776815Y-122823300D01*
X125666692Y-122557441D01*
X125352559Y-122243308D01*
X124942125Y-122073300D01*
X124497875Y-122073300D01*
X124087441Y-122243308D01*
X123773308Y-122557441D01*
X123603300Y-122967875D01*
X123603300Y-123412125D01*
X123773308Y-123822559D01*
X124044049Y-124093300D01*
X122976815Y-124093300D01*
X122866692Y-123827441D01*
X122552559Y-123513308D01*
X122142125Y-123343300D01*
X121697875Y-123343300D01*
X121287441Y-123513308D01*
X120973308Y-123827441D01*
X120803300Y-124237875D01*
X120803300Y-124682125D01*
X120973308Y-125092559D01*
X121287441Y-125406692D01*
X121697875Y-125576700D01*
X122142125Y-125576700D01*
X122552559Y-125406692D01*
X122866692Y-125092559D01*
X122976815Y-124826700D01*
X124044049Y-124826700D01*
X123773308Y-125097441D01*
X123603300Y-125507875D01*
X123603300Y-125952125D01*
X123773308Y-126362559D01*
X123876450Y-126465701D01*
X122226425Y-126465701D01*
X120696700Y-124935977D01*
X120696700Y-121697875D01*
X120803300Y-121697875D01*
X120803300Y-122142125D01*
X120973308Y-122552559D01*
X121287441Y-122866692D01*
X121697875Y-123036700D01*
X122142125Y-123036700D01*
X122552559Y-122866692D01*
X122866692Y-122552559D01*
X123036700Y-122142125D01*
X123036700Y-121697875D01*
X122866692Y-121287441D01*
X122552559Y-120973308D01*
X122142125Y-120803300D01*
X121697875Y-120803300D01*
X121287441Y-120973308D01*
X120973308Y-121287441D01*
X120803300Y-121697875D01*
X120696700Y-121697875D01*
X120696700Y-119157875D01*
X120803300Y-119157875D01*
X120803300Y-119602125D01*
X120973308Y-120012559D01*
X121287441Y-120326692D01*
X121697875Y-120496700D01*
X122142125Y-120496700D01*
X122308282Y-120427875D01*
X123603300Y-120427875D01*
X123603300Y-120872125D01*
X123773308Y-121282559D01*
X124087441Y-121596692D01*
X124497875Y-121766700D01*
X124942125Y-121766700D01*
X125352559Y-121596692D01*
X125666692Y-121282559D01*
X125836700Y-120872125D01*
X125836700Y-120427875D01*
X125666692Y-120017441D01*
X125352559Y-119703308D01*
X124942125Y-119533300D01*
X124497875Y-119533300D01*
X124087441Y-119703308D01*
X123773308Y-120017441D01*
X123603300Y-120427875D01*
X122308282Y-120427875D01*
X122552559Y-120326692D01*
X122866692Y-120012559D01*
X123036700Y-119602125D01*
X123036700Y-119157875D01*
X122866692Y-118747441D01*
X122552559Y-118433308D01*
X122142125Y-118263300D01*
X121697875Y-118263300D01*
X121287441Y-118433308D01*
X120973308Y-118747441D01*
X120803300Y-119157875D01*
X120696700Y-119157875D01*
X120696700Y-116617875D01*
X120803300Y-116617875D01*
X120803300Y-117062125D01*
X120973308Y-117472559D01*
X121287441Y-117786692D01*
X121697875Y-117956700D01*
X122142125Y-117956700D01*
X122308282Y-117887875D01*
X123603300Y-117887875D01*
X123603300Y-118332125D01*
X123773308Y-118742559D01*
X124087441Y-119056692D01*
X124497875Y-119226700D01*
X124942125Y-119226700D01*
X125352559Y-119056692D01*
X125666692Y-118742559D01*
X125836700Y-118332125D01*
X125836700Y-117887875D01*
X125666692Y-117477441D01*
X125352559Y-117163308D01*
X124942125Y-116993300D01*
X124497875Y-116993300D01*
X124087441Y-117163308D01*
X123773308Y-117477441D01*
X123603300Y-117887875D01*
X122308282Y-117887875D01*
X122552559Y-117786692D01*
X122866692Y-117472559D01*
X123036700Y-117062125D01*
X123036700Y-116617875D01*
X122866692Y-116207441D01*
X122552559Y-115893308D01*
X122142125Y-115723300D01*
X121697875Y-115723300D01*
X121287441Y-115893308D01*
X120973308Y-116207441D01*
X120803300Y-116617875D01*
X120696700Y-116617875D01*
X120696700Y-115125903D01*
X121147979Y-115125903D01*
X121236269Y-115305895D01*
X121673254Y-115490979D01*
X122147804Y-115494747D01*
X122510503Y-115347875D01*
X123603300Y-115347875D01*
X123603300Y-115792125D01*
X123773308Y-116202559D01*
X124087441Y-116516692D01*
X124497875Y-116686700D01*
X124942125Y-116686700D01*
X125352559Y-116516692D01*
X125666692Y-116202559D01*
X125836700Y-115792125D01*
X125836700Y-115347875D01*
X125666692Y-114937441D01*
X125352559Y-114623308D01*
X124942125Y-114453300D01*
X124497875Y-114453300D01*
X124087441Y-114623308D01*
X123773308Y-114937441D01*
X123603300Y-115347875D01*
X122510503Y-115347875D01*
X122587673Y-115316626D01*
X122603731Y-115305895D01*
X122692021Y-115125903D01*
X121920000Y-114353882D01*
X121147979Y-115125903D01*
X120696700Y-115125903D01*
X120696700Y-113751622D01*
X120901623Y-113546700D01*
X121055932Y-113546700D01*
X120914105Y-113616269D01*
X120729021Y-114053254D01*
X120725253Y-114527804D01*
X120903374Y-114967673D01*
X120914105Y-114983731D01*
X121094097Y-115072021D01*
X121866118Y-114300000D01*
X121851976Y-114285858D01*
X121905858Y-114231976D01*
X121920000Y-114246118D01*
X121934142Y-114231976D01*
X121988024Y-114285858D01*
X121973882Y-114300000D01*
X122745903Y-115072021D01*
X122925895Y-114983731D01*
X123110979Y-114546746D01*
X123114747Y-114072196D01*
X122936626Y-113632327D01*
X122925895Y-113616269D01*
X122784068Y-113546700D01*
X123725317Y-113546700D01*
X123773308Y-113662559D01*
X124087441Y-113976692D01*
X124497875Y-114146700D01*
X124942125Y-114146700D01*
X125352559Y-113976692D01*
X125666692Y-113662559D01*
X125836700Y-113252125D01*
X125836700Y-112807875D01*
X125666692Y-112397441D01*
X125352559Y-112083308D01*
X124942125Y-111913300D01*
X124497875Y-111913300D01*
X124087441Y-112083308D01*
X123773308Y-112397441D01*
X123725317Y-112513300D01*
X122745951Y-112513300D01*
X122866692Y-112392559D01*
X123036700Y-111982125D01*
X123036700Y-111537875D01*
X122866692Y-111127441D01*
X122552559Y-110813308D01*
X122142125Y-110643300D01*
X121697875Y-110643300D01*
X121287441Y-110813308D01*
X120973308Y-111127441D01*
X120803300Y-111537875D01*
X120803300Y-111982125D01*
X120973308Y-112392559D01*
X121094049Y-112513300D01*
X120861623Y-112513300D01*
X120726700Y-112378378D01*
X120726700Y-108997875D01*
X120803300Y-108997875D01*
X120803300Y-109442125D01*
X120973308Y-109852559D01*
X121287441Y-110166692D01*
X121697875Y-110336700D01*
X122142125Y-110336700D01*
X122308282Y-110267875D01*
X123603300Y-110267875D01*
X123603300Y-110712125D01*
X123773308Y-111122559D01*
X124087441Y-111436692D01*
X124497875Y-111606700D01*
X124942125Y-111606700D01*
X125352559Y-111436692D01*
X125666692Y-111122559D01*
X125836700Y-110712125D01*
X125836700Y-110267875D01*
X125666692Y-109857441D01*
X125352559Y-109543308D01*
X124942125Y-109373300D01*
X124497875Y-109373300D01*
X124087441Y-109543308D01*
X123773308Y-109857441D01*
X123603300Y-110267875D01*
X122308282Y-110267875D01*
X122552559Y-110166692D01*
X122866692Y-109852559D01*
X123036700Y-109442125D01*
X123036700Y-108997875D01*
X122866692Y-108587441D01*
X122552559Y-108273308D01*
X122142125Y-108103300D01*
X121697875Y-108103300D01*
X121287441Y-108273308D01*
X120973308Y-108587441D01*
X120803300Y-108997875D01*
X120726700Y-108997875D01*
X120726700Y-106457875D01*
X120803300Y-106457875D01*
X120803300Y-106902125D01*
X120973308Y-107312559D01*
X121287441Y-107626692D01*
X121697875Y-107796700D01*
X122142125Y-107796700D01*
X122308282Y-107727875D01*
X123603300Y-107727875D01*
X123603300Y-108172125D01*
X123773308Y-108582559D01*
X124087441Y-108896692D01*
X124497875Y-109066700D01*
X124942125Y-109066700D01*
X125352559Y-108896692D01*
X125666692Y-108582559D01*
X125836700Y-108172125D01*
X125836700Y-107727875D01*
X125666692Y-107317441D01*
X125352559Y-107003308D01*
X124942125Y-106833300D01*
X124497875Y-106833300D01*
X124087441Y-107003308D01*
X123773308Y-107317441D01*
X123603300Y-107727875D01*
X122308282Y-107727875D01*
X122552559Y-107626692D01*
X122866692Y-107312559D01*
X123036700Y-106902125D01*
X123036700Y-106457875D01*
X122866692Y-106047441D01*
X122552559Y-105733308D01*
X122142125Y-105563300D01*
X121697875Y-105563300D01*
X121287441Y-105733308D01*
X120973308Y-106047441D01*
X120803300Y-106457875D01*
X120726700Y-106457875D01*
X120726700Y-103917875D01*
X120803300Y-103917875D01*
X120803300Y-104362125D01*
X120973308Y-104772559D01*
X121287441Y-105086692D01*
X121697875Y-105256700D01*
X122142125Y-105256700D01*
X122308282Y-105187875D01*
X123603300Y-105187875D01*
X123603300Y-105632125D01*
X123773308Y-106042559D01*
X124087441Y-106356692D01*
X124497875Y-106526700D01*
X124942125Y-106526700D01*
X125352559Y-106356692D01*
X125666692Y-106042559D01*
X125836700Y-105632125D01*
X125836700Y-105187875D01*
X125666692Y-104777441D01*
X125352559Y-104463308D01*
X124942125Y-104293300D01*
X124497875Y-104293300D01*
X124087441Y-104463308D01*
X123773308Y-104777441D01*
X123603300Y-105187875D01*
X122308282Y-105187875D01*
X122552559Y-105086692D01*
X122866692Y-104772559D01*
X123036700Y-104362125D01*
X123036700Y-103917875D01*
X122866692Y-103507441D01*
X122552559Y-103193308D01*
X122142125Y-103023300D01*
X121697875Y-103023300D01*
X121287441Y-103193308D01*
X120973308Y-103507441D01*
X120803300Y-103917875D01*
X120726700Y-103917875D01*
X120726700Y-101377875D01*
X120803300Y-101377875D01*
X120803300Y-101822125D01*
X120973308Y-102232559D01*
X121287441Y-102546692D01*
X121697875Y-102716700D01*
X122142125Y-102716700D01*
X122308282Y-102647875D01*
X123603300Y-102647875D01*
X123603300Y-103092125D01*
X123773308Y-103502559D01*
X124087441Y-103816692D01*
X124497875Y-103986700D01*
X124942125Y-103986700D01*
X125352559Y-103816692D01*
X125666692Y-103502559D01*
X125836700Y-103092125D01*
X125836700Y-102647875D01*
X125666692Y-102237441D01*
X125541582Y-102112331D01*
X134130300Y-102112331D01*
X134130300Y-102357669D01*
X134224187Y-102584333D01*
X134397667Y-102757813D01*
X134624331Y-102851700D01*
X134845109Y-102851700D01*
X135633301Y-103639893D01*
X135633300Y-106191554D01*
X135494187Y-106330667D01*
X135400300Y-106557331D01*
X135400300Y-106802669D01*
X135494187Y-107029333D01*
X135667667Y-107202813D01*
X135894331Y-107296700D01*
X136139669Y-107296700D01*
X136366333Y-107202813D01*
X136539813Y-107029333D01*
X136633700Y-106802669D01*
X136633700Y-106557331D01*
X136539813Y-106330667D01*
X136366700Y-106157554D01*
X136366700Y-105414331D01*
X145179300Y-105414331D01*
X145179300Y-105659669D01*
X145273187Y-105886333D01*
X145429300Y-106042446D01*
X145429301Y-116019880D01*
X145422116Y-116056000D01*
X145441633Y-116154114D01*
X145450577Y-116199079D01*
X145531625Y-116320376D01*
X145562244Y-116340835D01*
X151375165Y-122153757D01*
X151395624Y-122184376D01*
X151516921Y-122265424D01*
X151623883Y-122286700D01*
X151623887Y-122286700D01*
X151659999Y-122293883D01*
X151696111Y-122286700D01*
X155277185Y-122286700D01*
X155387308Y-122552559D01*
X155701441Y-122866692D01*
X156111875Y-123036700D01*
X156556125Y-123036700D01*
X156722282Y-122967875D01*
X158017300Y-122967875D01*
X158017300Y-123412125D01*
X158187308Y-123822559D01*
X158501441Y-124136692D01*
X158911875Y-124306700D01*
X159356125Y-124306700D01*
X159766559Y-124136692D01*
X160080692Y-123822559D01*
X160250700Y-123412125D01*
X160250700Y-122967875D01*
X160080692Y-122557441D01*
X159766559Y-122243308D01*
X159356125Y-122073300D01*
X158911875Y-122073300D01*
X158501441Y-122243308D01*
X158187308Y-122557441D01*
X158017300Y-122967875D01*
X156722282Y-122967875D01*
X156966559Y-122866692D01*
X157280692Y-122552559D01*
X157450700Y-122142125D01*
X157450700Y-121697875D01*
X157280692Y-121287441D01*
X157009951Y-121016700D01*
X158077185Y-121016700D01*
X158187308Y-121282559D01*
X158501441Y-121596692D01*
X158911875Y-121766700D01*
X159356125Y-121766700D01*
X159766559Y-121596692D01*
X160080692Y-121282559D01*
X160250700Y-120872125D01*
X160250700Y-120427875D01*
X160080692Y-120017441D01*
X159766559Y-119703308D01*
X159356125Y-119533300D01*
X158911875Y-119533300D01*
X158501441Y-119703308D01*
X158187308Y-120017441D01*
X158077185Y-120283300D01*
X157009951Y-120283300D01*
X157280692Y-120012559D01*
X157450700Y-119602125D01*
X157450700Y-119157875D01*
X157280692Y-118747441D01*
X157009951Y-118476700D01*
X158077185Y-118476700D01*
X158187308Y-118742559D01*
X158501441Y-119056692D01*
X158911875Y-119226700D01*
X159356125Y-119226700D01*
X159766559Y-119056692D01*
X160080692Y-118742559D01*
X160250700Y-118332125D01*
X160250700Y-117887875D01*
X160080692Y-117477441D01*
X159766559Y-117163308D01*
X159356125Y-116993300D01*
X158911875Y-116993300D01*
X158501441Y-117163308D01*
X158187308Y-117477441D01*
X158077185Y-117743300D01*
X157009951Y-117743300D01*
X157280692Y-117472559D01*
X157450700Y-117062125D01*
X157450700Y-116617875D01*
X157280692Y-116207441D01*
X157009951Y-115936700D01*
X158077185Y-115936700D01*
X158187308Y-116202559D01*
X158501441Y-116516692D01*
X158911875Y-116686700D01*
X159356125Y-116686700D01*
X159766559Y-116516692D01*
X160080692Y-116202559D01*
X160250700Y-115792125D01*
X160250700Y-115347875D01*
X160080692Y-114937441D01*
X159766559Y-114623308D01*
X159356125Y-114453300D01*
X158911875Y-114453300D01*
X158501441Y-114623308D01*
X158187308Y-114937441D01*
X158077185Y-115203300D01*
X157068056Y-115203300D01*
X157106021Y-115125903D01*
X156334000Y-114353882D01*
X155561979Y-115125903D01*
X155599944Y-115203300D01*
X154171892Y-115203300D01*
X153496396Y-114527804D01*
X155139253Y-114527804D01*
X155317374Y-114967673D01*
X155328105Y-114983731D01*
X155508097Y-115072021D01*
X156280118Y-114300000D01*
X156387882Y-114300000D01*
X157159903Y-115072021D01*
X157339895Y-114983731D01*
X157524979Y-114546746D01*
X157528747Y-114072196D01*
X157350626Y-113632327D01*
X157339895Y-113616269D01*
X157159903Y-113527979D01*
X156387882Y-114300000D01*
X156280118Y-114300000D01*
X155508097Y-113527979D01*
X155328105Y-113616269D01*
X155143021Y-114053254D01*
X155139253Y-114527804D01*
X153496396Y-114527804D01*
X152442689Y-113474097D01*
X155561979Y-113474097D01*
X156334000Y-114246118D01*
X157106021Y-113474097D01*
X157017731Y-113294105D01*
X156580746Y-113109021D01*
X156106196Y-113105253D01*
X155666327Y-113283374D01*
X155650269Y-113294105D01*
X155561979Y-113474097D01*
X152442689Y-113474097D01*
X152084835Y-113116244D01*
X152084833Y-113116241D01*
X152066700Y-113098108D01*
X152066700Y-112877331D01*
X151972813Y-112650667D01*
X151799333Y-112477187D01*
X151572669Y-112383300D01*
X151327331Y-112383300D01*
X151100667Y-112477187D01*
X150927187Y-112650667D01*
X150833300Y-112877331D01*
X150833300Y-113122669D01*
X150927187Y-113349333D01*
X151100667Y-113522813D01*
X151327331Y-113616700D01*
X151548108Y-113616700D01*
X151566241Y-113634833D01*
X151566244Y-113634835D01*
X153735165Y-115803757D01*
X153755624Y-115834376D01*
X153812838Y-115872605D01*
X153876920Y-115915424D01*
X154020000Y-115943884D01*
X154056117Y-115936700D01*
X155658049Y-115936700D01*
X155387308Y-116207441D01*
X155277185Y-116473300D01*
X153821892Y-116473300D01*
X150446700Y-113098109D01*
X150446700Y-112295446D01*
X150602813Y-112139333D01*
X150696700Y-111912669D01*
X150696700Y-111667331D01*
X150643078Y-111537875D01*
X155217300Y-111537875D01*
X155217300Y-111982125D01*
X155387308Y-112392559D01*
X155701441Y-112706692D01*
X156111875Y-112876700D01*
X156556125Y-112876700D01*
X156966559Y-112706692D01*
X157280692Y-112392559D01*
X157450700Y-111982125D01*
X157450700Y-111537875D01*
X157280692Y-111127441D01*
X156966559Y-110813308D01*
X156556125Y-110643300D01*
X156111875Y-110643300D01*
X155701441Y-110813308D01*
X155387308Y-111127441D01*
X155217300Y-111537875D01*
X150643078Y-111537875D01*
X150602813Y-111440667D01*
X150429333Y-111267187D01*
X150202669Y-111173300D01*
X149957331Y-111173300D01*
X149730667Y-111267187D01*
X149557187Y-111440667D01*
X149463300Y-111667331D01*
X149463300Y-111912669D01*
X149557187Y-112139333D01*
X149713300Y-112295446D01*
X149713300Y-112321090D01*
X149713301Y-112321095D01*
X149713300Y-113213884D01*
X149706116Y-113250000D01*
X149713300Y-113286115D01*
X149713300Y-113286116D01*
X149734576Y-113393078D01*
X149815624Y-113514376D01*
X149846246Y-113534837D01*
X153385165Y-117073757D01*
X153405624Y-117104376D01*
X153436242Y-117124834D01*
X153526920Y-117185424D01*
X153670000Y-117213884D01*
X153706117Y-117206700D01*
X155277185Y-117206700D01*
X155387308Y-117472559D01*
X155658049Y-117743300D01*
X153231892Y-117743300D01*
X149346700Y-113858109D01*
X149346700Y-111055446D01*
X149502813Y-110899333D01*
X149596700Y-110672669D01*
X149596700Y-110427331D01*
X149502813Y-110200667D01*
X149329333Y-110027187D01*
X149102669Y-109933300D01*
X148857331Y-109933300D01*
X148630667Y-110027187D01*
X148457187Y-110200667D01*
X148363300Y-110427331D01*
X148363300Y-110672669D01*
X148457187Y-110899333D01*
X148613300Y-111055446D01*
X148613300Y-111081090D01*
X148613301Y-111081095D01*
X148613300Y-113973885D01*
X148606116Y-114010000D01*
X148613300Y-114046115D01*
X148613300Y-114046116D01*
X148634576Y-114153078D01*
X148715624Y-114274376D01*
X148746246Y-114294837D01*
X152795165Y-118343757D01*
X152815624Y-118374376D01*
X152872838Y-118412605D01*
X152936920Y-118455424D01*
X153080000Y-118483884D01*
X153116117Y-118476700D01*
X155658049Y-118476700D01*
X155387308Y-118747441D01*
X155277185Y-119013300D01*
X152811892Y-119013300D01*
X148276700Y-114478109D01*
X148276700Y-109625446D01*
X148432813Y-109469333D01*
X148526700Y-109242669D01*
X148526700Y-108997875D01*
X155217300Y-108997875D01*
X155217300Y-109442125D01*
X155387308Y-109852559D01*
X155701441Y-110166692D01*
X156111875Y-110336700D01*
X156556125Y-110336700D01*
X156722282Y-110267875D01*
X158017300Y-110267875D01*
X158017300Y-110712125D01*
X158187308Y-111122559D01*
X158501441Y-111436692D01*
X158911875Y-111606700D01*
X159356125Y-111606700D01*
X159766559Y-111436692D01*
X160080692Y-111122559D01*
X160250700Y-110712125D01*
X160250700Y-110267875D01*
X160080692Y-109857441D01*
X159766559Y-109543308D01*
X159356125Y-109373300D01*
X158911875Y-109373300D01*
X158501441Y-109543308D01*
X158187308Y-109857441D01*
X158017300Y-110267875D01*
X156722282Y-110267875D01*
X156966559Y-110166692D01*
X157280692Y-109852559D01*
X157450700Y-109442125D01*
X157450700Y-108997875D01*
X157280692Y-108587441D01*
X156966559Y-108273308D01*
X156556125Y-108103300D01*
X156111875Y-108103300D01*
X155701441Y-108273308D01*
X155387308Y-108587441D01*
X155217300Y-108997875D01*
X148526700Y-108997875D01*
X148526700Y-108997331D01*
X148432813Y-108770667D01*
X148259333Y-108597187D01*
X148032669Y-108503300D01*
X147787331Y-108503300D01*
X147560667Y-108597187D01*
X147387187Y-108770667D01*
X147293300Y-108997331D01*
X147293300Y-109242669D01*
X147387187Y-109469333D01*
X147543300Y-109625446D01*
X147543300Y-109651090D01*
X147543301Y-109651095D01*
X147543300Y-114593885D01*
X147536116Y-114630000D01*
X147543300Y-114666115D01*
X147543300Y-114666116D01*
X147564576Y-114773078D01*
X147645624Y-114894376D01*
X147676246Y-114914837D01*
X152375165Y-119613757D01*
X152395624Y-119644376D01*
X152516921Y-119725424D01*
X152623883Y-119746700D01*
X152623887Y-119746700D01*
X152659999Y-119753883D01*
X152696111Y-119746700D01*
X155277185Y-119746700D01*
X155387308Y-120012559D01*
X155658049Y-120283300D01*
X152451892Y-120283300D01*
X147186700Y-115018109D01*
X147186700Y-108435446D01*
X147342813Y-108279333D01*
X147436700Y-108052669D01*
X147436700Y-107807331D01*
X147342813Y-107580667D01*
X147169333Y-107407187D01*
X146942669Y-107313300D01*
X146697331Y-107313300D01*
X146470667Y-107407187D01*
X146297187Y-107580667D01*
X146203300Y-107807331D01*
X146203300Y-108052669D01*
X146297187Y-108279333D01*
X146453300Y-108435446D01*
X146453300Y-108461090D01*
X146453301Y-108461095D01*
X146453300Y-115133885D01*
X146446116Y-115170000D01*
X146453300Y-115206115D01*
X146453300Y-115206116D01*
X146474576Y-115313078D01*
X146555624Y-115434376D01*
X146586246Y-115454837D01*
X152015165Y-120883757D01*
X152035624Y-120914376D01*
X152156921Y-120995424D01*
X152263883Y-121016700D01*
X152263887Y-121016700D01*
X152299999Y-121023883D01*
X152336111Y-121016700D01*
X155658049Y-121016700D01*
X155387308Y-121287441D01*
X155277185Y-121553300D01*
X151811892Y-121553300D01*
X146162700Y-115904109D01*
X146162700Y-106457875D01*
X155217300Y-106457875D01*
X155217300Y-106902125D01*
X155387308Y-107312559D01*
X155701441Y-107626692D01*
X156111875Y-107796700D01*
X156556125Y-107796700D01*
X156722282Y-107727875D01*
X158017300Y-107727875D01*
X158017300Y-108172125D01*
X158187308Y-108582559D01*
X158501441Y-108896692D01*
X158911875Y-109066700D01*
X159356125Y-109066700D01*
X159766559Y-108896692D01*
X160080692Y-108582559D01*
X160250700Y-108172125D01*
X160250700Y-107727875D01*
X160080692Y-107317441D01*
X159766559Y-107003308D01*
X159356125Y-106833300D01*
X158911875Y-106833300D01*
X158501441Y-107003308D01*
X158187308Y-107317441D01*
X158017300Y-107727875D01*
X156722282Y-107727875D01*
X156966559Y-107626692D01*
X157280692Y-107312559D01*
X157450700Y-106902125D01*
X157450700Y-106457875D01*
X157280692Y-106047441D01*
X156966559Y-105733308D01*
X156556125Y-105563300D01*
X156111875Y-105563300D01*
X155701441Y-105733308D01*
X155387308Y-106047441D01*
X155217300Y-106457875D01*
X146162700Y-106457875D01*
X146162700Y-106042446D01*
X146318813Y-105886333D01*
X146412700Y-105659669D01*
X146412700Y-105414331D01*
X146318813Y-105187667D01*
X146145333Y-105014187D01*
X145918669Y-104920300D01*
X145673331Y-104920300D01*
X145446667Y-105014187D01*
X145273187Y-105187667D01*
X145179300Y-105414331D01*
X136366700Y-105414331D01*
X136366700Y-103917875D01*
X155217300Y-103917875D01*
X155217300Y-104362125D01*
X155387308Y-104772559D01*
X155701441Y-105086692D01*
X156111875Y-105256700D01*
X156556125Y-105256700D01*
X156722282Y-105187875D01*
X158017300Y-105187875D01*
X158017300Y-105632125D01*
X158187308Y-106042559D01*
X158501441Y-106356692D01*
X158911875Y-106526700D01*
X159356125Y-106526700D01*
X159766559Y-106356692D01*
X160080692Y-106042559D01*
X160250700Y-105632125D01*
X160250700Y-105187875D01*
X160080692Y-104777441D01*
X159766559Y-104463308D01*
X159356125Y-104293300D01*
X158911875Y-104293300D01*
X158501441Y-104463308D01*
X158187308Y-104777441D01*
X158017300Y-105187875D01*
X156722282Y-105187875D01*
X156966559Y-105086692D01*
X157280692Y-104772559D01*
X157450700Y-104362125D01*
X157450700Y-103917875D01*
X157280692Y-103507441D01*
X156966559Y-103193308D01*
X156556125Y-103023300D01*
X156111875Y-103023300D01*
X155701441Y-103193308D01*
X155387308Y-103507441D01*
X155217300Y-103917875D01*
X136366700Y-103917875D01*
X136366700Y-103524117D01*
X136373884Y-103488000D01*
X136345424Y-103344920D01*
X136284834Y-103254242D01*
X136264376Y-103223624D01*
X136233757Y-103203165D01*
X135363700Y-102333109D01*
X135363700Y-102112331D01*
X135269813Y-101885667D01*
X135096333Y-101712187D01*
X134869669Y-101618300D01*
X134624331Y-101618300D01*
X134397667Y-101712187D01*
X134224187Y-101885667D01*
X134130300Y-102112331D01*
X125541582Y-102112331D01*
X125352559Y-101923308D01*
X124942125Y-101753300D01*
X124497875Y-101753300D01*
X124087441Y-101923308D01*
X123773308Y-102237441D01*
X123603300Y-102647875D01*
X122308282Y-102647875D01*
X122552559Y-102546692D01*
X122866692Y-102232559D01*
X123036700Y-101822125D01*
X123036700Y-101377875D01*
X122866692Y-100967441D01*
X122552559Y-100653308D01*
X122142125Y-100483300D01*
X121697875Y-100483300D01*
X121287441Y-100653308D01*
X120973308Y-100967441D01*
X120803300Y-101377875D01*
X120726700Y-101377875D01*
X120726700Y-98837875D01*
X120803300Y-98837875D01*
X120803300Y-99282125D01*
X120973308Y-99692559D01*
X121287441Y-100006692D01*
X121697875Y-100176700D01*
X122142125Y-100176700D01*
X122308282Y-100107875D01*
X123603300Y-100107875D01*
X123603300Y-100552125D01*
X123773308Y-100962559D01*
X124087441Y-101276692D01*
X124497875Y-101446700D01*
X124942125Y-101446700D01*
X125108282Y-101377875D01*
X155217300Y-101377875D01*
X155217300Y-101822125D01*
X155387308Y-102232559D01*
X155701441Y-102546692D01*
X156111875Y-102716700D01*
X156556125Y-102716700D01*
X156722282Y-102647875D01*
X158017300Y-102647875D01*
X158017300Y-103092125D01*
X158187308Y-103502559D01*
X158501441Y-103816692D01*
X158911875Y-103986700D01*
X159356125Y-103986700D01*
X159766559Y-103816692D01*
X160080692Y-103502559D01*
X160250700Y-103092125D01*
X160250700Y-102647875D01*
X160080692Y-102237441D01*
X159766559Y-101923308D01*
X159356125Y-101753300D01*
X158911875Y-101753300D01*
X158501441Y-101923308D01*
X158187308Y-102237441D01*
X158017300Y-102647875D01*
X156722282Y-102647875D01*
X156966559Y-102546692D01*
X157280692Y-102232559D01*
X157450700Y-101822125D01*
X157450700Y-101377875D01*
X157280692Y-100967441D01*
X156966559Y-100653308D01*
X156556125Y-100483300D01*
X156111875Y-100483300D01*
X155701441Y-100653308D01*
X155387308Y-100967441D01*
X155217300Y-101377875D01*
X125108282Y-101377875D01*
X125352559Y-101276692D01*
X125666692Y-100962559D01*
X125836700Y-100552125D01*
X125836700Y-100107875D01*
X125666692Y-99697441D01*
X125352559Y-99383308D01*
X124942125Y-99213300D01*
X124497875Y-99213300D01*
X124087441Y-99383308D01*
X123773308Y-99697441D01*
X123603300Y-100107875D01*
X122308282Y-100107875D01*
X122552559Y-100006692D01*
X122866692Y-99692559D01*
X123036700Y-99282125D01*
X123036700Y-98837875D01*
X122866692Y-98427441D01*
X122552559Y-98113308D01*
X122142125Y-97943300D01*
X121697875Y-97943300D01*
X121287441Y-98113308D01*
X120973308Y-98427441D01*
X120803300Y-98837875D01*
X120726700Y-98837875D01*
X120726700Y-95991622D01*
X120951623Y-95766700D01*
X121094049Y-95766700D01*
X120973308Y-95887441D01*
X120803300Y-96297875D01*
X120803300Y-96742125D01*
X120973308Y-97152559D01*
X121287441Y-97466692D01*
X121697875Y-97636700D01*
X122142125Y-97636700D01*
X122308282Y-97567875D01*
X123603300Y-97567875D01*
X123603300Y-98012125D01*
X123773308Y-98422559D01*
X124087441Y-98736692D01*
X124497875Y-98906700D01*
X124942125Y-98906700D01*
X125352559Y-98736692D01*
X125666692Y-98422559D01*
X125726228Y-98278825D01*
X129207100Y-98278825D01*
X129207100Y-98723207D01*
X129259303Y-98849237D01*
X129355763Y-98945697D01*
X129481793Y-98997900D01*
X130051175Y-98997900D01*
X130136900Y-98912175D01*
X130136900Y-98193100D01*
X130213100Y-98193100D01*
X130213100Y-98912175D01*
X130298825Y-98997900D01*
X130868207Y-98997900D01*
X130994237Y-98945697D01*
X131090697Y-98849237D01*
X131142900Y-98723207D01*
X131142900Y-98278825D01*
X140002100Y-98278825D01*
X140002100Y-98723207D01*
X140054303Y-98849237D01*
X140150763Y-98945697D01*
X140276793Y-98997900D01*
X140846175Y-98997900D01*
X140931900Y-98912175D01*
X140931900Y-98193100D01*
X141008100Y-98193100D01*
X141008100Y-98912175D01*
X141093825Y-98997900D01*
X141663207Y-98997900D01*
X141789237Y-98945697D01*
X141885697Y-98849237D01*
X141890403Y-98837875D01*
X155217300Y-98837875D01*
X155217300Y-99282125D01*
X155387308Y-99692559D01*
X155701441Y-100006692D01*
X156111875Y-100176700D01*
X156556125Y-100176700D01*
X156722282Y-100107875D01*
X158017300Y-100107875D01*
X158017300Y-100552125D01*
X158187308Y-100962559D01*
X158501441Y-101276692D01*
X158911875Y-101446700D01*
X159356125Y-101446700D01*
X159766559Y-101276692D01*
X160080692Y-100962559D01*
X160250700Y-100552125D01*
X160250700Y-100107875D01*
X160080692Y-99697441D01*
X159766559Y-99383308D01*
X159356125Y-99213300D01*
X158911875Y-99213300D01*
X158501441Y-99383308D01*
X158187308Y-99697441D01*
X158017300Y-100107875D01*
X156722282Y-100107875D01*
X156966559Y-100006692D01*
X157280692Y-99692559D01*
X157450700Y-99282125D01*
X157450700Y-98837875D01*
X157280692Y-98427441D01*
X156966559Y-98113308D01*
X156556125Y-97943300D01*
X156111875Y-97943300D01*
X155701441Y-98113308D01*
X155387308Y-98427441D01*
X155217300Y-98837875D01*
X141890403Y-98837875D01*
X141937900Y-98723207D01*
X141937900Y-98278825D01*
X141852175Y-98193100D01*
X141008100Y-98193100D01*
X140931900Y-98193100D01*
X140087825Y-98193100D01*
X140002100Y-98278825D01*
X131142900Y-98278825D01*
X131057175Y-98193100D01*
X130213100Y-98193100D01*
X130136900Y-98193100D01*
X129292825Y-98193100D01*
X129207100Y-98278825D01*
X125726228Y-98278825D01*
X125836700Y-98012125D01*
X125836700Y-97586793D01*
X129207100Y-97586793D01*
X129207100Y-98031175D01*
X129292825Y-98116900D01*
X130136900Y-98116900D01*
X130136900Y-97397825D01*
X130213100Y-97397825D01*
X130213100Y-98116900D01*
X131057175Y-98116900D01*
X131142900Y-98031175D01*
X131142900Y-97586793D01*
X140002100Y-97586793D01*
X140002100Y-98031175D01*
X140087825Y-98116900D01*
X140931900Y-98116900D01*
X140931900Y-97397825D01*
X141008100Y-97397825D01*
X141008100Y-98116900D01*
X141852175Y-98116900D01*
X141937900Y-98031175D01*
X141937900Y-97586793D01*
X141885697Y-97460763D01*
X141789237Y-97364303D01*
X141663207Y-97312100D01*
X141093825Y-97312100D01*
X141008100Y-97397825D01*
X140931900Y-97397825D01*
X140846175Y-97312100D01*
X140276793Y-97312100D01*
X140150763Y-97364303D01*
X140054303Y-97460763D01*
X140002100Y-97586793D01*
X131142900Y-97586793D01*
X131090697Y-97460763D01*
X130994237Y-97364303D01*
X130868207Y-97312100D01*
X130298825Y-97312100D01*
X130213100Y-97397825D01*
X130136900Y-97397825D01*
X130051175Y-97312100D01*
X129481793Y-97312100D01*
X129355763Y-97364303D01*
X129259303Y-97460763D01*
X129207100Y-97586793D01*
X125836700Y-97586793D01*
X125836700Y-97567875D01*
X125666692Y-97157441D01*
X125352559Y-96843308D01*
X124942125Y-96673300D01*
X124497875Y-96673300D01*
X124087441Y-96843308D01*
X123773308Y-97157441D01*
X123603300Y-97567875D01*
X122308282Y-97567875D01*
X122552559Y-97466692D01*
X122866692Y-97152559D01*
X123036700Y-96742125D01*
X123036700Y-96297875D01*
X122866692Y-95887441D01*
X122745951Y-95766700D01*
X123725317Y-95766700D01*
X123773308Y-95882559D01*
X124087441Y-96196692D01*
X124497875Y-96366700D01*
X124942125Y-96366700D01*
X125352559Y-96196692D01*
X125666692Y-95882559D01*
X125714683Y-95766700D01*
X129042249Y-95766700D01*
X129083620Y-95794343D01*
X129278076Y-95988799D01*
X129278076Y-96655000D01*
X129298775Y-96759061D01*
X129357721Y-96847279D01*
X129445939Y-96906225D01*
X129550000Y-96926924D01*
X130800000Y-96926924D01*
X130904061Y-96906225D01*
X130992279Y-96847279D01*
X131051225Y-96759061D01*
X131071924Y-96655000D01*
X131071924Y-95655000D01*
X131051225Y-95550939D01*
X130992279Y-95462721D01*
X130904061Y-95403775D01*
X130800000Y-95383076D01*
X130133799Y-95383076D01*
X130029700Y-95278977D01*
X130029700Y-95127331D01*
X129935813Y-94900667D01*
X129762333Y-94727187D01*
X129535669Y-94633300D01*
X129290331Y-94633300D01*
X129063667Y-94727187D01*
X129057554Y-94733300D01*
X125714683Y-94733300D01*
X125666692Y-94617441D01*
X125352559Y-94303308D01*
X124942125Y-94133300D01*
X124497875Y-94133300D01*
X124087441Y-94303308D01*
X123773308Y-94617441D01*
X123725317Y-94733300D01*
X122745951Y-94733300D01*
X122866692Y-94612559D01*
X123036700Y-94202125D01*
X123036700Y-93757875D01*
X122866692Y-93347441D01*
X122552559Y-93033308D01*
X122142125Y-92863300D01*
X121697875Y-92863300D01*
X121287441Y-93033308D01*
X120973308Y-93347441D01*
X120803300Y-93757875D01*
X120803300Y-94202125D01*
X120973308Y-94612559D01*
X121094049Y-94733300D01*
X120811623Y-94733300D01*
X120696700Y-94618378D01*
X120696700Y-91217875D01*
X120803300Y-91217875D01*
X120803300Y-91662125D01*
X120973308Y-92072559D01*
X121287441Y-92386692D01*
X121697875Y-92556700D01*
X122142125Y-92556700D01*
X122308282Y-92487875D01*
X123603300Y-92487875D01*
X123603300Y-92932125D01*
X123773308Y-93342559D01*
X124087441Y-93656692D01*
X124497875Y-93826700D01*
X124942125Y-93826700D01*
X125352559Y-93656692D01*
X125666692Y-93342559D01*
X125836700Y-92932125D01*
X125836700Y-92487875D01*
X125666692Y-92077441D01*
X125352559Y-91763308D01*
X124942125Y-91593300D01*
X124497875Y-91593300D01*
X124087441Y-91763308D01*
X123773308Y-92077441D01*
X123603300Y-92487875D01*
X122308282Y-92487875D01*
X122552559Y-92386692D01*
X122866692Y-92072559D01*
X123036700Y-91662125D01*
X123036700Y-91293825D01*
X128572100Y-91293825D01*
X128572100Y-91738207D01*
X128624303Y-91864237D01*
X128720763Y-91960697D01*
X128846793Y-92012900D01*
X129416175Y-92012900D01*
X129501900Y-91927175D01*
X129501900Y-91208100D01*
X129578100Y-91208100D01*
X129578100Y-91927175D01*
X129663825Y-92012900D01*
X130233207Y-92012900D01*
X130359237Y-91960697D01*
X130455697Y-91864237D01*
X130507900Y-91738207D01*
X130507900Y-91293825D01*
X130422175Y-91208100D01*
X129578100Y-91208100D01*
X129501900Y-91208100D01*
X128657825Y-91208100D01*
X128572100Y-91293825D01*
X123036700Y-91293825D01*
X123036700Y-91217875D01*
X122866692Y-90807441D01*
X122552559Y-90493308D01*
X122142125Y-90323300D01*
X121697875Y-90323300D01*
X121287441Y-90493308D01*
X120973308Y-90807441D01*
X120803300Y-91217875D01*
X120696700Y-91217875D01*
X120696700Y-88407423D01*
X120851291Y-88562015D01*
X120803300Y-88677875D01*
X120803300Y-89122125D01*
X120973308Y-89532559D01*
X121287441Y-89846692D01*
X121697875Y-90016700D01*
X122142125Y-90016700D01*
X122552559Y-89846692D01*
X122866692Y-89532559D01*
X122914683Y-89416700D01*
X123894049Y-89416700D01*
X123773308Y-89537441D01*
X123603300Y-89947875D01*
X123603300Y-90392125D01*
X123773308Y-90802559D01*
X124087441Y-91116692D01*
X124497875Y-91286700D01*
X124942125Y-91286700D01*
X125352559Y-91116692D01*
X125666692Y-90802559D01*
X125749852Y-90601793D01*
X128572100Y-90601793D01*
X128572100Y-91046175D01*
X128657825Y-91131900D01*
X129501900Y-91131900D01*
X129501900Y-90412825D01*
X129578100Y-90412825D01*
X129578100Y-91131900D01*
X130422175Y-91131900D01*
X130507900Y-91046175D01*
X130507900Y-90601793D01*
X130455697Y-90475763D01*
X130359237Y-90379303D01*
X130233207Y-90327100D01*
X129663825Y-90327100D01*
X129578100Y-90412825D01*
X129501900Y-90412825D01*
X129416175Y-90327100D01*
X128846793Y-90327100D01*
X128720763Y-90379303D01*
X128624303Y-90475763D01*
X128572100Y-90601793D01*
X125749852Y-90601793D01*
X125836700Y-90392125D01*
X125836700Y-89947875D01*
X125666692Y-89537441D01*
X125545951Y-89416700D01*
X128643076Y-89416700D01*
X128643076Y-89670000D01*
X128663775Y-89774061D01*
X128722721Y-89862279D01*
X128810939Y-89921225D01*
X128915000Y-89941924D01*
X130165000Y-89941924D01*
X130269061Y-89921225D01*
X130357279Y-89862279D01*
X130416225Y-89774061D01*
X130436924Y-89670000D01*
X130436924Y-88670000D01*
X130416225Y-88565939D01*
X130357279Y-88477721D01*
X130269061Y-88418775D01*
X130165000Y-88398076D01*
X130156700Y-88398076D01*
X130156700Y-88396331D01*
X130062813Y-88169667D01*
X129889333Y-87996187D01*
X129662669Y-87902300D01*
X129417331Y-87902300D01*
X129190667Y-87996187D01*
X129017187Y-88169667D01*
X128928698Y-88383300D01*
X125584068Y-88383300D01*
X125725895Y-88313731D01*
X125910979Y-87876746D01*
X125914747Y-87402196D01*
X125736626Y-86962327D01*
X125725895Y-86946269D01*
X125545903Y-86857979D01*
X124773882Y-87630000D01*
X124788024Y-87644142D01*
X124734142Y-87698024D01*
X124720000Y-87683882D01*
X124705858Y-87698024D01*
X124651976Y-87644142D01*
X124666118Y-87630000D01*
X123894097Y-86857979D01*
X123714105Y-86946269D01*
X123529021Y-87383254D01*
X123525253Y-87857804D01*
X123703374Y-88297673D01*
X123714105Y-88313731D01*
X123855932Y-88383300D01*
X122914683Y-88383300D01*
X122866692Y-88267441D01*
X122552559Y-87953308D01*
X122142125Y-87783300D01*
X121697875Y-87783300D01*
X121582015Y-87831291D01*
X121068945Y-87318222D01*
X121068943Y-87318219D01*
X121068941Y-87318217D01*
X121040118Y-87275080D01*
X120996981Y-87246257D01*
X120696700Y-86945977D01*
X120696700Y-86137875D01*
X120803300Y-86137875D01*
X120803300Y-86582125D01*
X120973308Y-86992559D01*
X121287441Y-87306692D01*
X121697875Y-87476700D01*
X122142125Y-87476700D01*
X122552559Y-87306692D01*
X122866692Y-86992559D01*
X122944755Y-86804097D01*
X123947979Y-86804097D01*
X124720000Y-87576118D01*
X125492021Y-86804097D01*
X125403731Y-86624105D01*
X124966746Y-86439021D01*
X124492196Y-86435253D01*
X124052327Y-86613374D01*
X124036269Y-86624105D01*
X123947979Y-86804097D01*
X122944755Y-86804097D01*
X123036700Y-86582125D01*
X123036700Y-86137875D01*
X122866692Y-85727441D01*
X122552559Y-85413308D01*
X122142125Y-85243300D01*
X121697875Y-85243300D01*
X121287441Y-85413308D01*
X120973308Y-85727441D01*
X120803300Y-86137875D01*
X120696700Y-86137875D01*
X120696700Y-83597875D01*
X120803300Y-83597875D01*
X120803300Y-84042125D01*
X120973308Y-84452559D01*
X121287441Y-84766692D01*
X121697875Y-84936700D01*
X122142125Y-84936700D01*
X122308282Y-84867875D01*
X123603300Y-84867875D01*
X123603300Y-85312125D01*
X123773308Y-85722559D01*
X124087441Y-86036692D01*
X124497875Y-86206700D01*
X124942125Y-86206700D01*
X125352559Y-86036692D01*
X125666692Y-85722559D01*
X125836700Y-85312125D01*
X125836700Y-84867875D01*
X125666692Y-84457441D01*
X125352559Y-84143308D01*
X124942125Y-83973300D01*
X124497875Y-83973300D01*
X124087441Y-84143308D01*
X123773308Y-84457441D01*
X123603300Y-84867875D01*
X122308282Y-84867875D01*
X122552559Y-84766692D01*
X122866692Y-84452559D01*
X123036700Y-84042125D01*
X123036700Y-83597875D01*
X122866692Y-83187441D01*
X122552559Y-82873308D01*
X122142125Y-82703300D01*
X121697875Y-82703300D01*
X121287441Y-82873308D01*
X120973308Y-83187441D01*
X120803300Y-83597875D01*
X120696700Y-83597875D01*
X120696700Y-82105903D01*
X121147979Y-82105903D01*
X121236269Y-82285895D01*
X121673254Y-82470979D01*
X122147804Y-82474747D01*
X122510503Y-82327875D01*
X123603300Y-82327875D01*
X123603300Y-82772125D01*
X123773308Y-83182559D01*
X124087441Y-83496692D01*
X124497875Y-83666700D01*
X124942125Y-83666700D01*
X125352559Y-83496692D01*
X125666692Y-83182559D01*
X125836700Y-82772125D01*
X125836700Y-82327875D01*
X125666692Y-81917441D01*
X125352559Y-81603308D01*
X124942125Y-81433300D01*
X124497875Y-81433300D01*
X124087441Y-81603308D01*
X123773308Y-81917441D01*
X123603300Y-82327875D01*
X122510503Y-82327875D01*
X122587673Y-82296626D01*
X122603731Y-82285895D01*
X122692021Y-82105903D01*
X121920000Y-81333882D01*
X121147979Y-82105903D01*
X120696700Y-82105903D01*
X120696700Y-81507804D01*
X120725253Y-81507804D01*
X120903374Y-81947673D01*
X120914105Y-81963731D01*
X121094097Y-82052021D01*
X121866118Y-81280000D01*
X121973882Y-81280000D01*
X122745903Y-82052021D01*
X122925895Y-81963731D01*
X123110979Y-81526746D01*
X123114747Y-81052196D01*
X122936626Y-80612327D01*
X122925895Y-80596269D01*
X122745903Y-80507979D01*
X121973882Y-81280000D01*
X121866118Y-81280000D01*
X121094097Y-80507979D01*
X120914105Y-80596269D01*
X120729021Y-81033254D01*
X120725253Y-81507804D01*
X120696700Y-81507804D01*
X120696700Y-80454097D01*
X121147979Y-80454097D01*
X121920000Y-81226118D01*
X122692021Y-80454097D01*
X122603731Y-80274105D01*
X122166746Y-80089021D01*
X121692196Y-80085253D01*
X121252327Y-80263374D01*
X121236269Y-80274105D01*
X121147979Y-80454097D01*
X120696700Y-80454097D01*
X120696700Y-78517875D01*
X120803300Y-78517875D01*
X120803300Y-78962125D01*
X120973308Y-79372559D01*
X121287441Y-79686692D01*
X121697875Y-79856700D01*
X122142125Y-79856700D01*
X122308282Y-79787875D01*
X123603300Y-79787875D01*
X123603300Y-80232125D01*
X123773308Y-80642559D01*
X124087441Y-80956692D01*
X124497875Y-81126700D01*
X124942125Y-81126700D01*
X125352559Y-80956692D01*
X125666692Y-80642559D01*
X125836700Y-80232125D01*
X125836700Y-79787875D01*
X125666692Y-79377441D01*
X125352559Y-79063308D01*
X124942125Y-78893300D01*
X124497875Y-78893300D01*
X124087441Y-79063308D01*
X123773308Y-79377441D01*
X123603300Y-79787875D01*
X122308282Y-79787875D01*
X122552559Y-79686692D01*
X122866692Y-79372559D01*
X123036700Y-78962125D01*
X123036700Y-78517875D01*
X122866692Y-78107441D01*
X122552559Y-77793308D01*
X122142125Y-77623300D01*
X121697875Y-77623300D01*
X121287441Y-77793308D01*
X120973308Y-78107441D01*
X120803300Y-78517875D01*
X120696700Y-78517875D01*
X120696700Y-76004023D01*
X120860188Y-75840535D01*
X120803300Y-75977875D01*
X120803300Y-76422125D01*
X120973308Y-76832559D01*
X121287441Y-77146692D01*
X121697875Y-77316700D01*
X122142125Y-77316700D01*
X122308282Y-77247875D01*
X123603300Y-77247875D01*
X123603300Y-77692125D01*
X123773308Y-78102559D01*
X124087441Y-78416692D01*
X124497875Y-78586700D01*
X124942125Y-78586700D01*
X125352559Y-78416692D01*
X125666692Y-78102559D01*
X125836700Y-77692125D01*
X125836700Y-77247875D01*
X125666692Y-76837441D01*
X125352559Y-76523308D01*
X124942125Y-76353300D01*
X124497875Y-76353300D01*
X124087441Y-76523308D01*
X123773308Y-76837441D01*
X123603300Y-77247875D01*
X122308282Y-77247875D01*
X122552559Y-77146692D01*
X122866692Y-76832559D01*
X123036700Y-76422125D01*
X123036700Y-75977875D01*
X122866692Y-75567441D01*
X122552559Y-75253308D01*
X122142125Y-75083300D01*
X121697875Y-75083300D01*
X121560536Y-75140188D01*
X121734024Y-74966700D01*
X142993301Y-74966700D01*
X142993300Y-80670554D01*
X142993300Y-80670554D01*
G37*
X142993300Y-80670554D02*
X142987187Y-80676667D01*
X142893300Y-80903331D01*
X142893300Y-80911976D01*
X142418622Y-81386655D01*
X142375481Y-81415481D01*
X142261280Y-81586395D01*
X142231300Y-81737114D01*
X142231300Y-81737118D01*
X142221179Y-81788000D01*
X142231300Y-81838882D01*
X142231301Y-86004553D01*
X142225187Y-86010667D01*
X142131300Y-86237331D01*
X142131300Y-86482669D01*
X142225187Y-86709333D01*
X142231300Y-86715446D01*
X142231301Y-87198114D01*
X142221179Y-87249000D01*
X142231301Y-87299887D01*
X142243578Y-87361605D01*
X142261281Y-87450606D01*
X142346656Y-87578379D01*
X142346658Y-87578381D01*
X142375482Y-87621519D01*
X142418620Y-87650343D01*
X143287276Y-88519000D01*
X141275622Y-90530655D01*
X141232481Y-90559481D01*
X141118280Y-90730395D01*
X141088300Y-90881114D01*
X141088300Y-90881118D01*
X141078179Y-90932000D01*
X141088300Y-90982882D01*
X141088301Y-94894553D01*
X141082187Y-94900667D01*
X140988300Y-95127331D01*
X140988300Y-95372669D01*
X140992611Y-95383076D01*
X140345000Y-95383076D01*
X140240939Y-95403775D01*
X140152721Y-95462721D01*
X140093775Y-95550939D01*
X140073076Y-95655000D01*
X140073076Y-96655000D01*
X140093775Y-96759061D01*
X140152721Y-96847279D01*
X140240939Y-96906225D01*
X140345000Y-96926924D01*
X141595000Y-96926924D01*
X141699061Y-96906225D01*
X141787279Y-96847279D01*
X141846225Y-96759061D01*
X141866924Y-96655000D01*
X141866924Y-96297875D01*
X155217300Y-96297875D01*
X155217300Y-96742125D01*
X155387308Y-97152559D01*
X155701441Y-97466692D01*
X156111875Y-97636700D01*
X156556125Y-97636700D01*
X156722282Y-97567875D01*
X158017300Y-97567875D01*
X158017300Y-98012125D01*
X158187308Y-98422559D01*
X158501441Y-98736692D01*
X158911875Y-98906700D01*
X159356125Y-98906700D01*
X159766559Y-98736692D01*
X160080692Y-98422559D01*
X160250700Y-98012125D01*
X160250700Y-97567875D01*
X160080692Y-97157441D01*
X159766559Y-96843308D01*
X159356125Y-96673300D01*
X158911875Y-96673300D01*
X158501441Y-96843308D01*
X158187308Y-97157441D01*
X158017300Y-97567875D01*
X156722282Y-97567875D01*
X156966559Y-97466692D01*
X157280692Y-97152559D01*
X157450700Y-96742125D01*
X157450700Y-96297875D01*
X157280692Y-95887441D01*
X156966559Y-95573308D01*
X156556125Y-95403300D01*
X156111875Y-95403300D01*
X155701441Y-95573308D01*
X155387308Y-95887441D01*
X155217300Y-96297875D01*
X141866924Y-96297875D01*
X141866924Y-95988800D01*
X141934381Y-95921343D01*
X141977519Y-95892519D01*
X142006344Y-95849380D01*
X142091720Y-95721606D01*
X142098995Y-95685033D01*
X142113119Y-95614027D01*
X142127813Y-95599333D01*
X142221700Y-95372669D01*
X142221700Y-95127331D01*
X142127813Y-94900667D01*
X142121700Y-94894554D01*
X142121700Y-93757875D01*
X155217300Y-93757875D01*
X155217300Y-94202125D01*
X155387308Y-94612559D01*
X155701441Y-94926692D01*
X156111875Y-95096700D01*
X156556125Y-95096700D01*
X156966559Y-94926692D01*
X157280692Y-94612559D01*
X157450700Y-94202125D01*
X157450700Y-93757875D01*
X157280692Y-93347441D01*
X156966559Y-93033308D01*
X156556125Y-92863300D01*
X156111875Y-92863300D01*
X155701441Y-93033308D01*
X155387308Y-93347441D01*
X155217300Y-93757875D01*
X142121700Y-93757875D01*
X142121700Y-91217875D01*
X155217300Y-91217875D01*
X155217300Y-91662125D01*
X155387308Y-92072559D01*
X155701441Y-92386692D01*
X156111875Y-92556700D01*
X156556125Y-92556700D01*
X156722282Y-92487875D01*
X158017300Y-92487875D01*
X158017300Y-92932125D01*
X158187308Y-93342559D01*
X158501441Y-93656692D01*
X158911875Y-93826700D01*
X159356125Y-93826700D01*
X159766559Y-93656692D01*
X160080692Y-93342559D01*
X160250700Y-92932125D01*
X160250700Y-92487875D01*
X160080692Y-92077441D01*
X159766559Y-91763308D01*
X159356125Y-91593300D01*
X158911875Y-91593300D01*
X158501441Y-91763308D01*
X158187308Y-92077441D01*
X158017300Y-92487875D01*
X156722282Y-92487875D01*
X156966559Y-92386692D01*
X157280692Y-92072559D01*
X157450700Y-91662125D01*
X157450700Y-91217875D01*
X157280692Y-90807441D01*
X156966559Y-90493308D01*
X156556125Y-90323300D01*
X156111875Y-90323300D01*
X155701441Y-90493308D01*
X155387308Y-90807441D01*
X155217300Y-91217875D01*
X142121700Y-91217875D01*
X142121700Y-91146023D01*
X144132024Y-89135700D01*
X144140669Y-89135700D01*
X144367333Y-89041813D01*
X144540813Y-88868333D01*
X144634700Y-88641669D01*
X144634700Y-88396331D01*
X144540813Y-88169667D01*
X144367333Y-87996187D01*
X144140669Y-87902300D01*
X144132024Y-87902300D01*
X143264700Y-87034977D01*
X143264700Y-86715446D01*
X143270813Y-86709333D01*
X143364700Y-86482669D01*
X143364700Y-86237331D01*
X143323505Y-86137875D01*
X155217300Y-86137875D01*
X155217300Y-86582125D01*
X155387308Y-86992559D01*
X155701441Y-87306692D01*
X156111875Y-87476700D01*
X156556125Y-87476700D01*
X156966559Y-87306692D01*
X157280692Y-86992559D01*
X157358755Y-86804097D01*
X158361979Y-86804097D01*
X159134000Y-87576118D01*
X159906021Y-86804097D01*
X159817731Y-86624105D01*
X159380746Y-86439021D01*
X158906196Y-86435253D01*
X158466327Y-86613374D01*
X158450269Y-86624105D01*
X158361979Y-86804097D01*
X157358755Y-86804097D01*
X157450700Y-86582125D01*
X157450700Y-86137875D01*
X157280692Y-85727441D01*
X156966559Y-85413308D01*
X156556125Y-85243300D01*
X156111875Y-85243300D01*
X155701441Y-85413308D01*
X155387308Y-85727441D01*
X155217300Y-86137875D01*
X143323505Y-86137875D01*
X143270813Y-86010667D01*
X143264700Y-86004554D01*
X143264700Y-84512905D01*
X143387331Y-84563700D01*
X143632669Y-84563700D01*
X143859333Y-84469813D01*
X144032813Y-84296333D01*
X144126700Y-84069669D01*
X144126700Y-83824331D01*
X144032900Y-83597875D01*
X155217300Y-83597875D01*
X155217300Y-84042125D01*
X155387308Y-84452559D01*
X155701441Y-84766692D01*
X156111875Y-84936700D01*
X156556125Y-84936700D01*
X156722282Y-84867875D01*
X158017300Y-84867875D01*
X158017300Y-85312125D01*
X158187308Y-85722559D01*
X158501441Y-86036692D01*
X158911875Y-86206700D01*
X159356125Y-86206700D01*
X159766559Y-86036692D01*
X160080692Y-85722559D01*
X160250700Y-85312125D01*
X160250700Y-84867875D01*
X160080692Y-84457441D01*
X159766559Y-84143308D01*
X159356125Y-83973300D01*
X158911875Y-83973300D01*
X158501441Y-84143308D01*
X158187308Y-84457441D01*
X158017300Y-84867875D01*
X156722282Y-84867875D01*
X156966559Y-84766692D01*
X157280692Y-84452559D01*
X157450700Y-84042125D01*
X157450700Y-83597875D01*
X157280692Y-83187441D01*
X156966559Y-82873308D01*
X156556125Y-82703300D01*
X156111875Y-82703300D01*
X155701441Y-82873308D01*
X155387308Y-83187441D01*
X155217300Y-83597875D01*
X144032900Y-83597875D01*
X144032813Y-83597667D01*
X143859333Y-83424187D01*
X143632669Y-83330300D01*
X143387331Y-83330300D01*
X143264700Y-83381095D01*
X143264700Y-82427331D01*
X144417300Y-82427331D01*
X144417300Y-82672669D01*
X144511187Y-82899333D01*
X144684667Y-83072813D01*
X144911331Y-83166700D01*
X145156669Y-83166700D01*
X145383333Y-83072813D01*
X145556813Y-82899333D01*
X145650700Y-82672669D01*
X145650700Y-82427331D01*
X145556813Y-82200667D01*
X145462049Y-82105903D01*
X155561979Y-82105903D01*
X155650269Y-82285895D01*
X156087254Y-82470979D01*
X156561804Y-82474747D01*
X156924503Y-82327875D01*
X158017300Y-82327875D01*
X158017300Y-82772125D01*
X158187308Y-83182559D01*
X158501441Y-83496692D01*
X158911875Y-83666700D01*
X159356125Y-83666700D01*
X159766559Y-83496692D01*
X160080692Y-83182559D01*
X160250700Y-82772125D01*
X160250700Y-82327875D01*
X160080692Y-81917441D01*
X159766559Y-81603308D01*
X159356125Y-81433300D01*
X158911875Y-81433300D01*
X158501441Y-81603308D01*
X158187308Y-81917441D01*
X158017300Y-82327875D01*
X156924503Y-82327875D01*
X157001673Y-82296626D01*
X157017731Y-82285895D01*
X157106021Y-82105903D01*
X156334000Y-81333882D01*
X155561979Y-82105903D01*
X145462049Y-82105903D01*
X145383333Y-82027187D01*
X145156669Y-81933300D01*
X144911331Y-81933300D01*
X144684667Y-82027187D01*
X144511187Y-82200667D01*
X144417300Y-82427331D01*
X143264700Y-82427331D01*
X143264700Y-82002023D01*
X143624024Y-81642700D01*
X143632669Y-81642700D01*
X143859333Y-81548813D01*
X143900342Y-81507804D01*
X155139253Y-81507804D01*
X155317374Y-81947673D01*
X155328105Y-81963731D01*
X155508097Y-82052021D01*
X156280118Y-81280000D01*
X156387882Y-81280000D01*
X157159903Y-82052021D01*
X157339895Y-81963731D01*
X157524979Y-81526746D01*
X157528747Y-81052196D01*
X157350626Y-80612327D01*
X157339895Y-80596269D01*
X157159903Y-80507979D01*
X156387882Y-81280000D01*
X156280118Y-81280000D01*
X155508097Y-80507979D01*
X155328105Y-80596269D01*
X155143021Y-81033254D01*
X155139253Y-81507804D01*
X143900342Y-81507804D01*
X144032813Y-81375333D01*
X144126700Y-81148669D01*
X144126700Y-80903331D01*
X144032813Y-80676667D01*
X144026700Y-80670554D01*
X144026700Y-80454097D01*
X155561979Y-80454097D01*
X156334000Y-81226118D01*
X157106021Y-80454097D01*
X157017731Y-80274105D01*
X156580746Y-80089021D01*
X156106196Y-80085253D01*
X155666327Y-80263374D01*
X155650269Y-80274105D01*
X155561979Y-80454097D01*
X144026700Y-80454097D01*
X144026700Y-78517875D01*
X155217300Y-78517875D01*
X155217300Y-78962125D01*
X155387308Y-79372559D01*
X155701441Y-79686692D01*
X156111875Y-79856700D01*
X156556125Y-79856700D01*
X156722282Y-79787875D01*
X158017300Y-79787875D01*
X158017300Y-80232125D01*
X158187308Y-80642559D01*
X158501441Y-80956692D01*
X158911875Y-81126700D01*
X159356125Y-81126700D01*
X159766559Y-80956692D01*
X160080692Y-80642559D01*
X160250700Y-80232125D01*
X160250700Y-79787875D01*
X160080692Y-79377441D01*
X159766559Y-79063308D01*
X159356125Y-78893300D01*
X158911875Y-78893300D01*
X158501441Y-79063308D01*
X158187308Y-79377441D01*
X158017300Y-79787875D01*
X156722282Y-79787875D01*
X156966559Y-79686692D01*
X157280692Y-79372559D01*
X157450700Y-78962125D01*
X157450700Y-78517875D01*
X157280692Y-78107441D01*
X156966559Y-77793308D01*
X156556125Y-77623300D01*
X156111875Y-77623300D01*
X155701441Y-77793308D01*
X155387308Y-78107441D01*
X155217300Y-78517875D01*
X144026700Y-78517875D01*
X144026700Y-75977875D01*
X155217300Y-75977875D01*
X155217300Y-76422125D01*
X155387308Y-76832559D01*
X155701441Y-77146692D01*
X156111875Y-77316700D01*
X156556125Y-77316700D01*
X156722282Y-77247875D01*
X158017300Y-77247875D01*
X158017300Y-77692125D01*
X158187308Y-78102559D01*
X158501441Y-78416692D01*
X158911875Y-78586700D01*
X159356125Y-78586700D01*
X159766559Y-78416692D01*
X160080692Y-78102559D01*
X160250700Y-77692125D01*
X160250700Y-77247875D01*
X160080692Y-76837441D01*
X159766559Y-76523308D01*
X159356125Y-76353300D01*
X158911875Y-76353300D01*
X158501441Y-76523308D01*
X158187308Y-76837441D01*
X158017300Y-77247875D01*
X156722282Y-77247875D01*
X156966559Y-77146692D01*
X157280692Y-76832559D01*
X157450700Y-76422125D01*
X157450700Y-75977875D01*
X157280692Y-75567441D01*
X156966559Y-75253308D01*
X156556125Y-75083300D01*
X156111875Y-75083300D01*
X155701441Y-75253308D01*
X155387308Y-75567441D01*
X155217300Y-75977875D01*
X144026700Y-75977875D01*
X144026700Y-74966700D01*
X158455977Y-74966700D01*
X159240620Y-75751344D01*
X159240623Y-75751346D01*
X160463300Y-76974024D01*
X160463301Y-88052376D01*
X160132378Y-88383300D01*
X159998068Y-88383300D01*
X160139895Y-88313731D01*
X160324979Y-87876746D01*
X160328747Y-87402196D01*
X160150626Y-86962327D01*
X160139895Y-86946269D01*
X159959903Y-86857979D01*
X159187882Y-87630000D01*
X159202024Y-87644142D01*
X159148142Y-87698024D01*
X159134000Y-87683882D01*
X159119858Y-87698024D01*
X159065976Y-87644142D01*
X159080118Y-87630000D01*
X158308097Y-86857979D01*
X158128105Y-86946269D01*
X157943021Y-87383254D01*
X157939253Y-87857804D01*
X158117374Y-88297673D01*
X158128105Y-88313731D01*
X158269932Y-88383300D01*
X157328683Y-88383300D01*
X157280692Y-88267441D01*
X156966559Y-87953308D01*
X156556125Y-87783300D01*
X156111875Y-87783300D01*
X155701441Y-87953308D01*
X155387308Y-88267441D01*
X155217300Y-88677875D01*
X155217300Y-89122125D01*
X155387308Y-89532559D01*
X155701441Y-89846692D01*
X156111875Y-90016700D01*
X156556125Y-90016700D01*
X156966559Y-89846692D01*
X157280692Y-89532559D01*
X157328683Y-89416700D01*
X158308049Y-89416700D01*
X158187308Y-89537441D01*
X158017300Y-89947875D01*
X158017300Y-90392125D01*
X158187308Y-90802559D01*
X158501441Y-91116692D01*
X158911875Y-91286700D01*
X159356125Y-91286700D01*
X159766559Y-91116692D01*
X160080692Y-90802559D01*
X160250700Y-90392125D01*
X160250700Y-89947875D01*
X160080692Y-89537441D01*
X159959951Y-89416700D01*
X160212378Y-89416700D01*
X160313300Y-89517623D01*
X160313301Y-93339975D01*
X159654622Y-93998655D01*
X159654619Y-93998657D01*
X159471985Y-94181291D01*
X159356125Y-94133300D01*
X158911875Y-94133300D01*
X158501441Y-94303308D01*
X158187308Y-94617441D01*
X158017300Y-95027875D01*
X158017300Y-95472125D01*
X158187308Y-95882559D01*
X158501441Y-96196692D01*
X158911875Y-96366700D01*
X159356125Y-96366700D01*
X159471985Y-96318709D01*
X160423300Y-97270024D01*
X160423301Y-111009975D01*
X159654622Y-111778655D01*
X159654619Y-111778657D01*
X159471985Y-111961291D01*
X159356125Y-111913300D01*
X158911875Y-111913300D01*
X158501441Y-112083308D01*
X158187308Y-112397441D01*
X158017300Y-112807875D01*
X158017300Y-113252125D01*
X158187308Y-113662559D01*
X158501441Y-113976692D01*
X158911875Y-114146700D01*
X159356125Y-114146700D01*
X159471985Y-114098709D01*
X160453301Y-115080025D01*
X160453300Y-125533530D01*
X160250700Y-125736130D01*
X160250700Y-125507875D01*
X160080692Y-125097441D01*
X159766559Y-124783308D01*
X159356125Y-124613300D01*
X158911875Y-124613300D01*
X158501441Y-124783308D01*
X158187308Y-125097441D01*
X158017300Y-125507875D01*
X158017300Y-125952125D01*
X158187308Y-126362559D01*
X158290450Y-126465701D01*
X142883700Y-126465701D01*
X142883700Y-124237875D01*
X155217300Y-124237875D01*
X155217300Y-124682125D01*
X155387308Y-125092559D01*
X155701441Y-125406692D01*
X156111875Y-125576700D01*
X156556125Y-125576700D01*
X156966559Y-125406692D01*
X157280692Y-125092559D01*
X157450700Y-124682125D01*
X157450700Y-124237875D01*
X157280692Y-123827441D01*
X156966559Y-123513308D01*
X156556125Y-123343300D01*
X156111875Y-123343300D01*
X155701441Y-123513308D01*
X155387308Y-123827441D01*
X155217300Y-124237875D01*
X142883700Y-124237875D01*
X142883700Y-116560446D01*
X142889813Y-116554333D01*
X142983700Y-116327669D01*
X142983700Y-116082331D01*
X142889813Y-115855667D01*
X142716333Y-115682187D01*
X142489669Y-115588300D01*
X142244331Y-115588300D01*
X142017667Y-115682187D01*
X141844187Y-115855667D01*
X141750300Y-116082331D01*
X141750300Y-116327669D01*
X141844187Y-116554333D01*
X141850300Y-116560446D01*
X141850301Y-126465701D01*
X125563550Y-126465701D01*
X125666692Y-126362559D01*
X125836700Y-125952125D01*
X125836700Y-125507875D01*
X125666692Y-125097441D01*
X125395951Y-124826700D01*
X126455885Y-124826700D01*
X126492000Y-124833884D01*
X126528115Y-124826700D01*
X126528117Y-124826700D01*
X126635079Y-124805424D01*
X126756376Y-124724376D01*
X126776837Y-124693754D01*
X129800260Y-121670331D01*
X131971300Y-121670331D01*
X131971300Y-121915669D01*
X132065187Y-122142333D01*
X132238667Y-122315813D01*
X132465331Y-122409700D01*
X132710669Y-122409700D01*
X132937333Y-122315813D01*
X133110813Y-122142333D01*
X133204700Y-121915669D01*
X133204700Y-121694891D01*
X134853757Y-120045835D01*
X134884376Y-120025376D01*
X134965424Y-119904079D01*
X134986700Y-119797117D01*
X134986700Y-119797116D01*
X134993884Y-119761000D01*
X134986700Y-119724885D01*
X134986700Y-106042446D01*
X135142813Y-105886333D01*
X135236700Y-105659669D01*
X135236700Y-105414331D01*
X135142813Y-105187667D01*
X134969333Y-105014187D01*
X134742669Y-104920300D01*
X134497331Y-104920300D01*
X134270667Y-105014187D01*
X134097187Y-105187667D01*
X134003300Y-105414331D01*
X134003300Y-105659669D01*
X134097187Y-105886333D01*
X134253300Y-106042446D01*
X134253301Y-119609107D01*
X132686109Y-121176300D01*
X132465331Y-121176300D01*
X132238667Y-121270187D01*
X132065187Y-121443667D01*
X131971300Y-121670331D01*
X129800260Y-121670331D01*
X132440758Y-119029834D01*
X132471376Y-119009376D01*
X132509605Y-118952162D01*
X132552424Y-118888080D01*
X132580884Y-118745000D01*
X132573700Y-118708883D01*
X132573700Y-103375446D01*
X132729813Y-103219333D01*
X132823700Y-102992669D01*
X132823700Y-102747331D01*
X132729813Y-102520667D01*
X132556333Y-102347187D01*
X132329669Y-102253300D01*
X132084331Y-102253300D01*
X131857667Y-102347187D01*
X131684187Y-102520667D01*
X131590300Y-102747331D01*
X131590300Y-102992669D01*
X131684187Y-103219333D01*
X131840301Y-103375447D01*
X131840300Y-118593108D01*
X126340109Y-124093300D01*
X125395951Y-124093300D01*
X125666692Y-123822559D01*
X125776815Y-123556700D01*
X126328885Y-123556700D01*
X126365000Y-123563884D01*
X126401115Y-123556700D01*
X126401117Y-123556700D01*
X126508079Y-123535424D01*
X126629376Y-123454376D01*
X126649837Y-123423754D01*
X131170757Y-118902835D01*
X131201376Y-118882376D01*
X131282424Y-118761079D01*
X131303700Y-118654117D01*
X131303700Y-118654113D01*
X131310883Y-118618001D01*
X131303700Y-118581889D01*
X131303700Y-104772446D01*
X131459813Y-104616333D01*
X131553700Y-104389669D01*
X131553700Y-104144331D01*
X131459813Y-103917667D01*
X131286333Y-103744187D01*
X131059669Y-103650300D01*
X130814331Y-103650300D01*
X130587667Y-103744187D01*
X130414187Y-103917667D01*
X130320300Y-104144331D01*
X130320300Y-104389669D01*
X130414187Y-104616333D01*
X130570300Y-104772446D01*
X130570301Y-118466107D01*
X126213109Y-122823300D01*
X125776815Y-122823300D01*
X125666692Y-122557441D01*
X125352559Y-122243308D01*
X124942125Y-122073300D01*
X124497875Y-122073300D01*
X124087441Y-122243308D01*
X123773308Y-122557441D01*
X123603300Y-122967875D01*
X123603300Y-123412125D01*
X123773308Y-123822559D01*
X124044049Y-124093300D01*
X122976815Y-124093300D01*
X122866692Y-123827441D01*
X122552559Y-123513308D01*
X122142125Y-123343300D01*
X121697875Y-123343300D01*
X121287441Y-123513308D01*
X120973308Y-123827441D01*
X120803300Y-124237875D01*
X120803300Y-124682125D01*
X120973308Y-125092559D01*
X121287441Y-125406692D01*
X121697875Y-125576700D01*
X122142125Y-125576700D01*
X122552559Y-125406692D01*
X122866692Y-125092559D01*
X122976815Y-124826700D01*
X124044049Y-124826700D01*
X123773308Y-125097441D01*
X123603300Y-125507875D01*
X123603300Y-125952125D01*
X123773308Y-126362559D01*
X123876450Y-126465701D01*
X122226425Y-126465701D01*
X120696700Y-124935977D01*
X120696700Y-121697875D01*
X120803300Y-121697875D01*
X120803300Y-122142125D01*
X120973308Y-122552559D01*
X121287441Y-122866692D01*
X121697875Y-123036700D01*
X122142125Y-123036700D01*
X122552559Y-122866692D01*
X122866692Y-122552559D01*
X123036700Y-122142125D01*
X123036700Y-121697875D01*
X122866692Y-121287441D01*
X122552559Y-120973308D01*
X122142125Y-120803300D01*
X121697875Y-120803300D01*
X121287441Y-120973308D01*
X120973308Y-121287441D01*
X120803300Y-121697875D01*
X120696700Y-121697875D01*
X120696700Y-119157875D01*
X120803300Y-119157875D01*
X120803300Y-119602125D01*
X120973308Y-120012559D01*
X121287441Y-120326692D01*
X121697875Y-120496700D01*
X122142125Y-120496700D01*
X122308282Y-120427875D01*
X123603300Y-120427875D01*
X123603300Y-120872125D01*
X123773308Y-121282559D01*
X124087441Y-121596692D01*
X124497875Y-121766700D01*
X124942125Y-121766700D01*
X125352559Y-121596692D01*
X125666692Y-121282559D01*
X125836700Y-120872125D01*
X125836700Y-120427875D01*
X125666692Y-120017441D01*
X125352559Y-119703308D01*
X124942125Y-119533300D01*
X124497875Y-119533300D01*
X124087441Y-119703308D01*
X123773308Y-120017441D01*
X123603300Y-120427875D01*
X122308282Y-120427875D01*
X122552559Y-120326692D01*
X122866692Y-120012559D01*
X123036700Y-119602125D01*
X123036700Y-119157875D01*
X122866692Y-118747441D01*
X122552559Y-118433308D01*
X122142125Y-118263300D01*
X121697875Y-118263300D01*
X121287441Y-118433308D01*
X120973308Y-118747441D01*
X120803300Y-119157875D01*
X120696700Y-119157875D01*
X120696700Y-116617875D01*
X120803300Y-116617875D01*
X120803300Y-117062125D01*
X120973308Y-117472559D01*
X121287441Y-117786692D01*
X121697875Y-117956700D01*
X122142125Y-117956700D01*
X122308282Y-117887875D01*
X123603300Y-117887875D01*
X123603300Y-118332125D01*
X123773308Y-118742559D01*
X124087441Y-119056692D01*
X124497875Y-119226700D01*
X124942125Y-119226700D01*
X125352559Y-119056692D01*
X125666692Y-118742559D01*
X125836700Y-118332125D01*
X125836700Y-117887875D01*
X125666692Y-117477441D01*
X125352559Y-117163308D01*
X124942125Y-116993300D01*
X124497875Y-116993300D01*
X124087441Y-117163308D01*
X123773308Y-117477441D01*
X123603300Y-117887875D01*
X122308282Y-117887875D01*
X122552559Y-117786692D01*
X122866692Y-117472559D01*
X123036700Y-117062125D01*
X123036700Y-116617875D01*
X122866692Y-116207441D01*
X122552559Y-115893308D01*
X122142125Y-115723300D01*
X121697875Y-115723300D01*
X121287441Y-115893308D01*
X120973308Y-116207441D01*
X120803300Y-116617875D01*
X120696700Y-116617875D01*
X120696700Y-115125903D01*
X121147979Y-115125903D01*
X121236269Y-115305895D01*
X121673254Y-115490979D01*
X122147804Y-115494747D01*
X122510503Y-115347875D01*
X123603300Y-115347875D01*
X123603300Y-115792125D01*
X123773308Y-116202559D01*
X124087441Y-116516692D01*
X124497875Y-116686700D01*
X124942125Y-116686700D01*
X125352559Y-116516692D01*
X125666692Y-116202559D01*
X125836700Y-115792125D01*
X125836700Y-115347875D01*
X125666692Y-114937441D01*
X125352559Y-114623308D01*
X124942125Y-114453300D01*
X124497875Y-114453300D01*
X124087441Y-114623308D01*
X123773308Y-114937441D01*
X123603300Y-115347875D01*
X122510503Y-115347875D01*
X122587673Y-115316626D01*
X122603731Y-115305895D01*
X122692021Y-115125903D01*
X121920000Y-114353882D01*
X121147979Y-115125903D01*
X120696700Y-115125903D01*
X120696700Y-113751622D01*
X120901623Y-113546700D01*
X121055932Y-113546700D01*
X120914105Y-113616269D01*
X120729021Y-114053254D01*
X120725253Y-114527804D01*
X120903374Y-114967673D01*
X120914105Y-114983731D01*
X121094097Y-115072021D01*
X121866118Y-114300000D01*
X121851976Y-114285858D01*
X121905858Y-114231976D01*
X121920000Y-114246118D01*
X121934142Y-114231976D01*
X121988024Y-114285858D01*
X121973882Y-114300000D01*
X122745903Y-115072021D01*
X122925895Y-114983731D01*
X123110979Y-114546746D01*
X123114747Y-114072196D01*
X122936626Y-113632327D01*
X122925895Y-113616269D01*
X122784068Y-113546700D01*
X123725317Y-113546700D01*
X123773308Y-113662559D01*
X124087441Y-113976692D01*
X124497875Y-114146700D01*
X124942125Y-114146700D01*
X125352559Y-113976692D01*
X125666692Y-113662559D01*
X125836700Y-113252125D01*
X125836700Y-112807875D01*
X125666692Y-112397441D01*
X125352559Y-112083308D01*
X124942125Y-111913300D01*
X124497875Y-111913300D01*
X124087441Y-112083308D01*
X123773308Y-112397441D01*
X123725317Y-112513300D01*
X122745951Y-112513300D01*
X122866692Y-112392559D01*
X123036700Y-111982125D01*
X123036700Y-111537875D01*
X122866692Y-111127441D01*
X122552559Y-110813308D01*
X122142125Y-110643300D01*
X121697875Y-110643300D01*
X121287441Y-110813308D01*
X120973308Y-111127441D01*
X120803300Y-111537875D01*
X120803300Y-111982125D01*
X120973308Y-112392559D01*
X121094049Y-112513300D01*
X120861623Y-112513300D01*
X120726700Y-112378378D01*
X120726700Y-108997875D01*
X120803300Y-108997875D01*
X120803300Y-109442125D01*
X120973308Y-109852559D01*
X121287441Y-110166692D01*
X121697875Y-110336700D01*
X122142125Y-110336700D01*
X122308282Y-110267875D01*
X123603300Y-110267875D01*
X123603300Y-110712125D01*
X123773308Y-111122559D01*
X124087441Y-111436692D01*
X124497875Y-111606700D01*
X124942125Y-111606700D01*
X125352559Y-111436692D01*
X125666692Y-111122559D01*
X125836700Y-110712125D01*
X125836700Y-110267875D01*
X125666692Y-109857441D01*
X125352559Y-109543308D01*
X124942125Y-109373300D01*
X124497875Y-109373300D01*
X124087441Y-109543308D01*
X123773308Y-109857441D01*
X123603300Y-110267875D01*
X122308282Y-110267875D01*
X122552559Y-110166692D01*
X122866692Y-109852559D01*
X123036700Y-109442125D01*
X123036700Y-108997875D01*
X122866692Y-108587441D01*
X122552559Y-108273308D01*
X122142125Y-108103300D01*
X121697875Y-108103300D01*
X121287441Y-108273308D01*
X120973308Y-108587441D01*
X120803300Y-108997875D01*
X120726700Y-108997875D01*
X120726700Y-106457875D01*
X120803300Y-106457875D01*
X120803300Y-106902125D01*
X120973308Y-107312559D01*
X121287441Y-107626692D01*
X121697875Y-107796700D01*
X122142125Y-107796700D01*
X122308282Y-107727875D01*
X123603300Y-107727875D01*
X123603300Y-108172125D01*
X123773308Y-108582559D01*
X124087441Y-108896692D01*
X124497875Y-109066700D01*
X124942125Y-109066700D01*
X125352559Y-108896692D01*
X125666692Y-108582559D01*
X125836700Y-108172125D01*
X125836700Y-107727875D01*
X125666692Y-107317441D01*
X125352559Y-107003308D01*
X124942125Y-106833300D01*
X124497875Y-106833300D01*
X124087441Y-107003308D01*
X123773308Y-107317441D01*
X123603300Y-107727875D01*
X122308282Y-107727875D01*
X122552559Y-107626692D01*
X122866692Y-107312559D01*
X123036700Y-106902125D01*
X123036700Y-106457875D01*
X122866692Y-106047441D01*
X122552559Y-105733308D01*
X122142125Y-105563300D01*
X121697875Y-105563300D01*
X121287441Y-105733308D01*
X120973308Y-106047441D01*
X120803300Y-106457875D01*
X120726700Y-106457875D01*
X120726700Y-103917875D01*
X120803300Y-103917875D01*
X120803300Y-104362125D01*
X120973308Y-104772559D01*
X121287441Y-105086692D01*
X121697875Y-105256700D01*
X122142125Y-105256700D01*
X122308282Y-105187875D01*
X123603300Y-105187875D01*
X123603300Y-105632125D01*
X123773308Y-106042559D01*
X124087441Y-106356692D01*
X124497875Y-106526700D01*
X124942125Y-106526700D01*
X125352559Y-106356692D01*
X125666692Y-106042559D01*
X125836700Y-105632125D01*
X125836700Y-105187875D01*
X125666692Y-104777441D01*
X125352559Y-104463308D01*
X124942125Y-104293300D01*
X124497875Y-104293300D01*
X124087441Y-104463308D01*
X123773308Y-104777441D01*
X123603300Y-105187875D01*
X122308282Y-105187875D01*
X122552559Y-105086692D01*
X122866692Y-104772559D01*
X123036700Y-104362125D01*
X123036700Y-103917875D01*
X122866692Y-103507441D01*
X122552559Y-103193308D01*
X122142125Y-103023300D01*
X121697875Y-103023300D01*
X121287441Y-103193308D01*
X120973308Y-103507441D01*
X120803300Y-103917875D01*
X120726700Y-103917875D01*
X120726700Y-101377875D01*
X120803300Y-101377875D01*
X120803300Y-101822125D01*
X120973308Y-102232559D01*
X121287441Y-102546692D01*
X121697875Y-102716700D01*
X122142125Y-102716700D01*
X122308282Y-102647875D01*
X123603300Y-102647875D01*
X123603300Y-103092125D01*
X123773308Y-103502559D01*
X124087441Y-103816692D01*
X124497875Y-103986700D01*
X124942125Y-103986700D01*
X125352559Y-103816692D01*
X125666692Y-103502559D01*
X125836700Y-103092125D01*
X125836700Y-102647875D01*
X125666692Y-102237441D01*
X125541582Y-102112331D01*
X134130300Y-102112331D01*
X134130300Y-102357669D01*
X134224187Y-102584333D01*
X134397667Y-102757813D01*
X134624331Y-102851700D01*
X134845109Y-102851700D01*
X135633301Y-103639893D01*
X135633300Y-106191554D01*
X135494187Y-106330667D01*
X135400300Y-106557331D01*
X135400300Y-106802669D01*
X135494187Y-107029333D01*
X135667667Y-107202813D01*
X135894331Y-107296700D01*
X136139669Y-107296700D01*
X136366333Y-107202813D01*
X136539813Y-107029333D01*
X136633700Y-106802669D01*
X136633700Y-106557331D01*
X136539813Y-106330667D01*
X136366700Y-106157554D01*
X136366700Y-105414331D01*
X145179300Y-105414331D01*
X145179300Y-105659669D01*
X145273187Y-105886333D01*
X145429300Y-106042446D01*
X145429301Y-116019880D01*
X145422116Y-116056000D01*
X145441633Y-116154114D01*
X145450577Y-116199079D01*
X145531625Y-116320376D01*
X145562244Y-116340835D01*
X151375165Y-122153757D01*
X151395624Y-122184376D01*
X151516921Y-122265424D01*
X151623883Y-122286700D01*
X151623887Y-122286700D01*
X151659999Y-122293883D01*
X151696111Y-122286700D01*
X155277185Y-122286700D01*
X155387308Y-122552559D01*
X155701441Y-122866692D01*
X156111875Y-123036700D01*
X156556125Y-123036700D01*
X156722282Y-122967875D01*
X158017300Y-122967875D01*
X158017300Y-123412125D01*
X158187308Y-123822559D01*
X158501441Y-124136692D01*
X158911875Y-124306700D01*
X159356125Y-124306700D01*
X159766559Y-124136692D01*
X160080692Y-123822559D01*
X160250700Y-123412125D01*
X160250700Y-122967875D01*
X160080692Y-122557441D01*
X159766559Y-122243308D01*
X159356125Y-122073300D01*
X158911875Y-122073300D01*
X158501441Y-122243308D01*
X158187308Y-122557441D01*
X158017300Y-122967875D01*
X156722282Y-122967875D01*
X156966559Y-122866692D01*
X157280692Y-122552559D01*
X157450700Y-122142125D01*
X157450700Y-121697875D01*
X157280692Y-121287441D01*
X157009951Y-121016700D01*
X158077185Y-121016700D01*
X158187308Y-121282559D01*
X158501441Y-121596692D01*
X158911875Y-121766700D01*
X159356125Y-121766700D01*
X159766559Y-121596692D01*
X160080692Y-121282559D01*
X160250700Y-120872125D01*
X160250700Y-120427875D01*
X160080692Y-120017441D01*
X159766559Y-119703308D01*
X159356125Y-119533300D01*
X158911875Y-119533300D01*
X158501441Y-119703308D01*
X158187308Y-120017441D01*
X158077185Y-120283300D01*
X157009951Y-120283300D01*
X157280692Y-120012559D01*
X157450700Y-119602125D01*
X157450700Y-119157875D01*
X157280692Y-118747441D01*
X157009951Y-118476700D01*
X158077185Y-118476700D01*
X158187308Y-118742559D01*
X158501441Y-119056692D01*
X158911875Y-119226700D01*
X159356125Y-119226700D01*
X159766559Y-119056692D01*
X160080692Y-118742559D01*
X160250700Y-118332125D01*
X160250700Y-117887875D01*
X160080692Y-117477441D01*
X159766559Y-117163308D01*
X159356125Y-116993300D01*
X158911875Y-116993300D01*
X158501441Y-117163308D01*
X158187308Y-117477441D01*
X158077185Y-117743300D01*
X157009951Y-117743300D01*
X157280692Y-117472559D01*
X157450700Y-117062125D01*
X157450700Y-116617875D01*
X157280692Y-116207441D01*
X157009951Y-115936700D01*
X158077185Y-115936700D01*
X158187308Y-116202559D01*
X158501441Y-116516692D01*
X158911875Y-116686700D01*
X159356125Y-116686700D01*
X159766559Y-116516692D01*
X160080692Y-116202559D01*
X160250700Y-115792125D01*
X160250700Y-115347875D01*
X160080692Y-114937441D01*
X159766559Y-114623308D01*
X159356125Y-114453300D01*
X158911875Y-114453300D01*
X158501441Y-114623308D01*
X158187308Y-114937441D01*
X158077185Y-115203300D01*
X157068056Y-115203300D01*
X157106021Y-115125903D01*
X156334000Y-114353882D01*
X155561979Y-115125903D01*
X155599944Y-115203300D01*
X154171892Y-115203300D01*
X153496396Y-114527804D01*
X155139253Y-114527804D01*
X155317374Y-114967673D01*
X155328105Y-114983731D01*
X155508097Y-115072021D01*
X156280118Y-114300000D01*
X156387882Y-114300000D01*
X157159903Y-115072021D01*
X157339895Y-114983731D01*
X157524979Y-114546746D01*
X157528747Y-114072196D01*
X157350626Y-113632327D01*
X157339895Y-113616269D01*
X157159903Y-113527979D01*
X156387882Y-114300000D01*
X156280118Y-114300000D01*
X155508097Y-113527979D01*
X155328105Y-113616269D01*
X155143021Y-114053254D01*
X155139253Y-114527804D01*
X153496396Y-114527804D01*
X152442689Y-113474097D01*
X155561979Y-113474097D01*
X156334000Y-114246118D01*
X157106021Y-113474097D01*
X157017731Y-113294105D01*
X156580746Y-113109021D01*
X156106196Y-113105253D01*
X155666327Y-113283374D01*
X155650269Y-113294105D01*
X155561979Y-113474097D01*
X152442689Y-113474097D01*
X152084835Y-113116244D01*
X152084833Y-113116241D01*
X152066700Y-113098108D01*
X152066700Y-112877331D01*
X151972813Y-112650667D01*
X151799333Y-112477187D01*
X151572669Y-112383300D01*
X151327331Y-112383300D01*
X151100667Y-112477187D01*
X150927187Y-112650667D01*
X150833300Y-112877331D01*
X150833300Y-113122669D01*
X150927187Y-113349333D01*
X151100667Y-113522813D01*
X151327331Y-113616700D01*
X151548108Y-113616700D01*
X151566241Y-113634833D01*
X151566244Y-113634835D01*
X153735165Y-115803757D01*
X153755624Y-115834376D01*
X153812838Y-115872605D01*
X153876920Y-115915424D01*
X154020000Y-115943884D01*
X154056117Y-115936700D01*
X155658049Y-115936700D01*
X155387308Y-116207441D01*
X155277185Y-116473300D01*
X153821892Y-116473300D01*
X150446700Y-113098109D01*
X150446700Y-112295446D01*
X150602813Y-112139333D01*
X150696700Y-111912669D01*
X150696700Y-111667331D01*
X150643078Y-111537875D01*
X155217300Y-111537875D01*
X155217300Y-111982125D01*
X155387308Y-112392559D01*
X155701441Y-112706692D01*
X156111875Y-112876700D01*
X156556125Y-112876700D01*
X156966559Y-112706692D01*
X157280692Y-112392559D01*
X157450700Y-111982125D01*
X157450700Y-111537875D01*
X157280692Y-111127441D01*
X156966559Y-110813308D01*
X156556125Y-110643300D01*
X156111875Y-110643300D01*
X155701441Y-110813308D01*
X155387308Y-111127441D01*
X155217300Y-111537875D01*
X150643078Y-111537875D01*
X150602813Y-111440667D01*
X150429333Y-111267187D01*
X150202669Y-111173300D01*
X149957331Y-111173300D01*
X149730667Y-111267187D01*
X149557187Y-111440667D01*
X149463300Y-111667331D01*
X149463300Y-111912669D01*
X149557187Y-112139333D01*
X149713300Y-112295446D01*
X149713300Y-112321090D01*
X149713301Y-112321095D01*
X149713300Y-113213884D01*
X149706116Y-113250000D01*
X149713300Y-113286115D01*
X149713300Y-113286116D01*
X149734576Y-113393078D01*
X149815624Y-113514376D01*
X149846246Y-113534837D01*
X153385165Y-117073757D01*
X153405624Y-117104376D01*
X153436242Y-117124834D01*
X153526920Y-117185424D01*
X153670000Y-117213884D01*
X153706117Y-117206700D01*
X155277185Y-117206700D01*
X155387308Y-117472559D01*
X155658049Y-117743300D01*
X153231892Y-117743300D01*
X149346700Y-113858109D01*
X149346700Y-111055446D01*
X149502813Y-110899333D01*
X149596700Y-110672669D01*
X149596700Y-110427331D01*
X149502813Y-110200667D01*
X149329333Y-110027187D01*
X149102669Y-109933300D01*
X148857331Y-109933300D01*
X148630667Y-110027187D01*
X148457187Y-110200667D01*
X148363300Y-110427331D01*
X148363300Y-110672669D01*
X148457187Y-110899333D01*
X148613300Y-111055446D01*
X148613300Y-111081090D01*
X148613301Y-111081095D01*
X148613300Y-113973885D01*
X148606116Y-114010000D01*
X148613300Y-114046115D01*
X148613300Y-114046116D01*
X148634576Y-114153078D01*
X148715624Y-114274376D01*
X148746246Y-114294837D01*
X152795165Y-118343757D01*
X152815624Y-118374376D01*
X152872838Y-118412605D01*
X152936920Y-118455424D01*
X153080000Y-118483884D01*
X153116117Y-118476700D01*
X155658049Y-118476700D01*
X155387308Y-118747441D01*
X155277185Y-119013300D01*
X152811892Y-119013300D01*
X148276700Y-114478109D01*
X148276700Y-109625446D01*
X148432813Y-109469333D01*
X148526700Y-109242669D01*
X148526700Y-108997875D01*
X155217300Y-108997875D01*
X155217300Y-109442125D01*
X155387308Y-109852559D01*
X155701441Y-110166692D01*
X156111875Y-110336700D01*
X156556125Y-110336700D01*
X156722282Y-110267875D01*
X158017300Y-110267875D01*
X158017300Y-110712125D01*
X158187308Y-111122559D01*
X158501441Y-111436692D01*
X158911875Y-111606700D01*
X159356125Y-111606700D01*
X159766559Y-111436692D01*
X160080692Y-111122559D01*
X160250700Y-110712125D01*
X160250700Y-110267875D01*
X160080692Y-109857441D01*
X159766559Y-109543308D01*
X159356125Y-109373300D01*
X158911875Y-109373300D01*
X158501441Y-109543308D01*
X158187308Y-109857441D01*
X158017300Y-110267875D01*
X156722282Y-110267875D01*
X156966559Y-110166692D01*
X157280692Y-109852559D01*
X157450700Y-109442125D01*
X157450700Y-108997875D01*
X157280692Y-108587441D01*
X156966559Y-108273308D01*
X156556125Y-108103300D01*
X156111875Y-108103300D01*
X155701441Y-108273308D01*
X155387308Y-108587441D01*
X155217300Y-108997875D01*
X148526700Y-108997875D01*
X148526700Y-108997331D01*
X148432813Y-108770667D01*
X148259333Y-108597187D01*
X148032669Y-108503300D01*
X147787331Y-108503300D01*
X147560667Y-108597187D01*
X147387187Y-108770667D01*
X147293300Y-108997331D01*
X147293300Y-109242669D01*
X147387187Y-109469333D01*
X147543300Y-109625446D01*
X147543300Y-109651090D01*
X147543301Y-109651095D01*
X147543300Y-114593885D01*
X147536116Y-114630000D01*
X147543300Y-114666115D01*
X147543300Y-114666116D01*
X147564576Y-114773078D01*
X147645624Y-114894376D01*
X147676246Y-114914837D01*
X152375165Y-119613757D01*
X152395624Y-119644376D01*
X152516921Y-119725424D01*
X152623883Y-119746700D01*
X152623887Y-119746700D01*
X152659999Y-119753883D01*
X152696111Y-119746700D01*
X155277185Y-119746700D01*
X155387308Y-120012559D01*
X155658049Y-120283300D01*
X152451892Y-120283300D01*
X147186700Y-115018109D01*
X147186700Y-108435446D01*
X147342813Y-108279333D01*
X147436700Y-108052669D01*
X147436700Y-107807331D01*
X147342813Y-107580667D01*
X147169333Y-107407187D01*
X146942669Y-107313300D01*
X146697331Y-107313300D01*
X146470667Y-107407187D01*
X146297187Y-107580667D01*
X146203300Y-107807331D01*
X146203300Y-108052669D01*
X146297187Y-108279333D01*
X146453300Y-108435446D01*
X146453300Y-108461090D01*
X146453301Y-108461095D01*
X146453300Y-115133885D01*
X146446116Y-115170000D01*
X146453300Y-115206115D01*
X146453300Y-115206116D01*
X146474576Y-115313078D01*
X146555624Y-115434376D01*
X146586246Y-115454837D01*
X152015165Y-120883757D01*
X152035624Y-120914376D01*
X152156921Y-120995424D01*
X152263883Y-121016700D01*
X152263887Y-121016700D01*
X152299999Y-121023883D01*
X152336111Y-121016700D01*
X155658049Y-121016700D01*
X155387308Y-121287441D01*
X155277185Y-121553300D01*
X151811892Y-121553300D01*
X146162700Y-115904109D01*
X146162700Y-106457875D01*
X155217300Y-106457875D01*
X155217300Y-106902125D01*
X155387308Y-107312559D01*
X155701441Y-107626692D01*
X156111875Y-107796700D01*
X156556125Y-107796700D01*
X156722282Y-107727875D01*
X158017300Y-107727875D01*
X158017300Y-108172125D01*
X158187308Y-108582559D01*
X158501441Y-108896692D01*
X158911875Y-109066700D01*
X159356125Y-109066700D01*
X159766559Y-108896692D01*
X160080692Y-108582559D01*
X160250700Y-108172125D01*
X160250700Y-107727875D01*
X160080692Y-107317441D01*
X159766559Y-107003308D01*
X159356125Y-106833300D01*
X158911875Y-106833300D01*
X158501441Y-107003308D01*
X158187308Y-107317441D01*
X158017300Y-107727875D01*
X156722282Y-107727875D01*
X156966559Y-107626692D01*
X157280692Y-107312559D01*
X157450700Y-106902125D01*
X157450700Y-106457875D01*
X157280692Y-106047441D01*
X156966559Y-105733308D01*
X156556125Y-105563300D01*
X156111875Y-105563300D01*
X155701441Y-105733308D01*
X155387308Y-106047441D01*
X155217300Y-106457875D01*
X146162700Y-106457875D01*
X146162700Y-106042446D01*
X146318813Y-105886333D01*
X146412700Y-105659669D01*
X146412700Y-105414331D01*
X146318813Y-105187667D01*
X146145333Y-105014187D01*
X145918669Y-104920300D01*
X145673331Y-104920300D01*
X145446667Y-105014187D01*
X145273187Y-105187667D01*
X145179300Y-105414331D01*
X136366700Y-105414331D01*
X136366700Y-103917875D01*
X155217300Y-103917875D01*
X155217300Y-104362125D01*
X155387308Y-104772559D01*
X155701441Y-105086692D01*
X156111875Y-105256700D01*
X156556125Y-105256700D01*
X156722282Y-105187875D01*
X158017300Y-105187875D01*
X158017300Y-105632125D01*
X158187308Y-106042559D01*
X158501441Y-106356692D01*
X158911875Y-106526700D01*
X159356125Y-106526700D01*
X159766559Y-106356692D01*
X160080692Y-106042559D01*
X160250700Y-105632125D01*
X160250700Y-105187875D01*
X160080692Y-104777441D01*
X159766559Y-104463308D01*
X159356125Y-104293300D01*
X158911875Y-104293300D01*
X158501441Y-104463308D01*
X158187308Y-104777441D01*
X158017300Y-105187875D01*
X156722282Y-105187875D01*
X156966559Y-105086692D01*
X157280692Y-104772559D01*
X157450700Y-104362125D01*
X157450700Y-103917875D01*
X157280692Y-103507441D01*
X156966559Y-103193308D01*
X156556125Y-103023300D01*
X156111875Y-103023300D01*
X155701441Y-103193308D01*
X155387308Y-103507441D01*
X155217300Y-103917875D01*
X136366700Y-103917875D01*
X136366700Y-103524117D01*
X136373884Y-103488000D01*
X136345424Y-103344920D01*
X136284834Y-103254242D01*
X136264376Y-103223624D01*
X136233757Y-103203165D01*
X135363700Y-102333109D01*
X135363700Y-102112331D01*
X135269813Y-101885667D01*
X135096333Y-101712187D01*
X134869669Y-101618300D01*
X134624331Y-101618300D01*
X134397667Y-101712187D01*
X134224187Y-101885667D01*
X134130300Y-102112331D01*
X125541582Y-102112331D01*
X125352559Y-101923308D01*
X124942125Y-101753300D01*
X124497875Y-101753300D01*
X124087441Y-101923308D01*
X123773308Y-102237441D01*
X123603300Y-102647875D01*
X122308282Y-102647875D01*
X122552559Y-102546692D01*
X122866692Y-102232559D01*
X123036700Y-101822125D01*
X123036700Y-101377875D01*
X122866692Y-100967441D01*
X122552559Y-100653308D01*
X122142125Y-100483300D01*
X121697875Y-100483300D01*
X121287441Y-100653308D01*
X120973308Y-100967441D01*
X120803300Y-101377875D01*
X120726700Y-101377875D01*
X120726700Y-98837875D01*
X120803300Y-98837875D01*
X120803300Y-99282125D01*
X120973308Y-99692559D01*
X121287441Y-100006692D01*
X121697875Y-100176700D01*
X122142125Y-100176700D01*
X122308282Y-100107875D01*
X123603300Y-100107875D01*
X123603300Y-100552125D01*
X123773308Y-100962559D01*
X124087441Y-101276692D01*
X124497875Y-101446700D01*
X124942125Y-101446700D01*
X125108282Y-101377875D01*
X155217300Y-101377875D01*
X155217300Y-101822125D01*
X155387308Y-102232559D01*
X155701441Y-102546692D01*
X156111875Y-102716700D01*
X156556125Y-102716700D01*
X156722282Y-102647875D01*
X158017300Y-102647875D01*
X158017300Y-103092125D01*
X158187308Y-103502559D01*
X158501441Y-103816692D01*
X158911875Y-103986700D01*
X159356125Y-103986700D01*
X159766559Y-103816692D01*
X160080692Y-103502559D01*
X160250700Y-103092125D01*
X160250700Y-102647875D01*
X160080692Y-102237441D01*
X159766559Y-101923308D01*
X159356125Y-101753300D01*
X158911875Y-101753300D01*
X158501441Y-101923308D01*
X158187308Y-102237441D01*
X158017300Y-102647875D01*
X156722282Y-102647875D01*
X156966559Y-102546692D01*
X157280692Y-102232559D01*
X157450700Y-101822125D01*
X157450700Y-101377875D01*
X157280692Y-100967441D01*
X156966559Y-100653308D01*
X156556125Y-100483300D01*
X156111875Y-100483300D01*
X155701441Y-100653308D01*
X155387308Y-100967441D01*
X155217300Y-101377875D01*
X125108282Y-101377875D01*
X125352559Y-101276692D01*
X125666692Y-100962559D01*
X125836700Y-100552125D01*
X125836700Y-100107875D01*
X125666692Y-99697441D01*
X125352559Y-99383308D01*
X124942125Y-99213300D01*
X124497875Y-99213300D01*
X124087441Y-99383308D01*
X123773308Y-99697441D01*
X123603300Y-100107875D01*
X122308282Y-100107875D01*
X122552559Y-100006692D01*
X122866692Y-99692559D01*
X123036700Y-99282125D01*
X123036700Y-98837875D01*
X122866692Y-98427441D01*
X122552559Y-98113308D01*
X122142125Y-97943300D01*
X121697875Y-97943300D01*
X121287441Y-98113308D01*
X120973308Y-98427441D01*
X120803300Y-98837875D01*
X120726700Y-98837875D01*
X120726700Y-95991622D01*
X120951623Y-95766700D01*
X121094049Y-95766700D01*
X120973308Y-95887441D01*
X120803300Y-96297875D01*
X120803300Y-96742125D01*
X120973308Y-97152559D01*
X121287441Y-97466692D01*
X121697875Y-97636700D01*
X122142125Y-97636700D01*
X122308282Y-97567875D01*
X123603300Y-97567875D01*
X123603300Y-98012125D01*
X123773308Y-98422559D01*
X124087441Y-98736692D01*
X124497875Y-98906700D01*
X124942125Y-98906700D01*
X125352559Y-98736692D01*
X125666692Y-98422559D01*
X125726228Y-98278825D01*
X129207100Y-98278825D01*
X129207100Y-98723207D01*
X129259303Y-98849237D01*
X129355763Y-98945697D01*
X129481793Y-98997900D01*
X130051175Y-98997900D01*
X130136900Y-98912175D01*
X130136900Y-98193100D01*
X130213100Y-98193100D01*
X130213100Y-98912175D01*
X130298825Y-98997900D01*
X130868207Y-98997900D01*
X130994237Y-98945697D01*
X131090697Y-98849237D01*
X131142900Y-98723207D01*
X131142900Y-98278825D01*
X140002100Y-98278825D01*
X140002100Y-98723207D01*
X140054303Y-98849237D01*
X140150763Y-98945697D01*
X140276793Y-98997900D01*
X140846175Y-98997900D01*
X140931900Y-98912175D01*
X140931900Y-98193100D01*
X141008100Y-98193100D01*
X141008100Y-98912175D01*
X141093825Y-98997900D01*
X141663207Y-98997900D01*
X141789237Y-98945697D01*
X141885697Y-98849237D01*
X141890403Y-98837875D01*
X155217300Y-98837875D01*
X155217300Y-99282125D01*
X155387308Y-99692559D01*
X155701441Y-100006692D01*
X156111875Y-100176700D01*
X156556125Y-100176700D01*
X156722282Y-100107875D01*
X158017300Y-100107875D01*
X158017300Y-100552125D01*
X158187308Y-100962559D01*
X158501441Y-101276692D01*
X158911875Y-101446700D01*
X159356125Y-101446700D01*
X159766559Y-101276692D01*
X160080692Y-100962559D01*
X160250700Y-100552125D01*
X160250700Y-100107875D01*
X160080692Y-99697441D01*
X159766559Y-99383308D01*
X159356125Y-99213300D01*
X158911875Y-99213300D01*
X158501441Y-99383308D01*
X158187308Y-99697441D01*
X158017300Y-100107875D01*
X156722282Y-100107875D01*
X156966559Y-100006692D01*
X157280692Y-99692559D01*
X157450700Y-99282125D01*
X157450700Y-98837875D01*
X157280692Y-98427441D01*
X156966559Y-98113308D01*
X156556125Y-97943300D01*
X156111875Y-97943300D01*
X155701441Y-98113308D01*
X155387308Y-98427441D01*
X155217300Y-98837875D01*
X141890403Y-98837875D01*
X141937900Y-98723207D01*
X141937900Y-98278825D01*
X141852175Y-98193100D01*
X141008100Y-98193100D01*
X140931900Y-98193100D01*
X140087825Y-98193100D01*
X140002100Y-98278825D01*
X131142900Y-98278825D01*
X131057175Y-98193100D01*
X130213100Y-98193100D01*
X130136900Y-98193100D01*
X129292825Y-98193100D01*
X129207100Y-98278825D01*
X125726228Y-98278825D01*
X125836700Y-98012125D01*
X125836700Y-97586793D01*
X129207100Y-97586793D01*
X129207100Y-98031175D01*
X129292825Y-98116900D01*
X130136900Y-98116900D01*
X130136900Y-97397825D01*
X130213100Y-97397825D01*
X130213100Y-98116900D01*
X131057175Y-98116900D01*
X131142900Y-98031175D01*
X131142900Y-97586793D01*
X140002100Y-97586793D01*
X140002100Y-98031175D01*
X140087825Y-98116900D01*
X140931900Y-98116900D01*
X140931900Y-97397825D01*
X141008100Y-97397825D01*
X141008100Y-98116900D01*
X141852175Y-98116900D01*
X141937900Y-98031175D01*
X141937900Y-97586793D01*
X141885697Y-97460763D01*
X141789237Y-97364303D01*
X141663207Y-97312100D01*
X141093825Y-97312100D01*
X141008100Y-97397825D01*
X140931900Y-97397825D01*
X140846175Y-97312100D01*
X140276793Y-97312100D01*
X140150763Y-97364303D01*
X140054303Y-97460763D01*
X140002100Y-97586793D01*
X131142900Y-97586793D01*
X131090697Y-97460763D01*
X130994237Y-97364303D01*
X130868207Y-97312100D01*
X130298825Y-97312100D01*
X130213100Y-97397825D01*
X130136900Y-97397825D01*
X130051175Y-97312100D01*
X129481793Y-97312100D01*
X129355763Y-97364303D01*
X129259303Y-97460763D01*
X129207100Y-97586793D01*
X125836700Y-97586793D01*
X125836700Y-97567875D01*
X125666692Y-97157441D01*
X125352559Y-96843308D01*
X124942125Y-96673300D01*
X124497875Y-96673300D01*
X124087441Y-96843308D01*
X123773308Y-97157441D01*
X123603300Y-97567875D01*
X122308282Y-97567875D01*
X122552559Y-97466692D01*
X122866692Y-97152559D01*
X123036700Y-96742125D01*
X123036700Y-96297875D01*
X122866692Y-95887441D01*
X122745951Y-95766700D01*
X123725317Y-95766700D01*
X123773308Y-95882559D01*
X124087441Y-96196692D01*
X124497875Y-96366700D01*
X124942125Y-96366700D01*
X125352559Y-96196692D01*
X125666692Y-95882559D01*
X125714683Y-95766700D01*
X129042249Y-95766700D01*
X129083620Y-95794343D01*
X129278076Y-95988799D01*
X129278076Y-96655000D01*
X129298775Y-96759061D01*
X129357721Y-96847279D01*
X129445939Y-96906225D01*
X129550000Y-96926924D01*
X130800000Y-96926924D01*
X130904061Y-96906225D01*
X130992279Y-96847279D01*
X131051225Y-96759061D01*
X131071924Y-96655000D01*
X131071924Y-95655000D01*
X131051225Y-95550939D01*
X130992279Y-95462721D01*
X130904061Y-95403775D01*
X130800000Y-95383076D01*
X130133799Y-95383076D01*
X130029700Y-95278977D01*
X130029700Y-95127331D01*
X129935813Y-94900667D01*
X129762333Y-94727187D01*
X129535669Y-94633300D01*
X129290331Y-94633300D01*
X129063667Y-94727187D01*
X129057554Y-94733300D01*
X125714683Y-94733300D01*
X125666692Y-94617441D01*
X125352559Y-94303308D01*
X124942125Y-94133300D01*
X124497875Y-94133300D01*
X124087441Y-94303308D01*
X123773308Y-94617441D01*
X123725317Y-94733300D01*
X122745951Y-94733300D01*
X122866692Y-94612559D01*
X123036700Y-94202125D01*
X123036700Y-93757875D01*
X122866692Y-93347441D01*
X122552559Y-93033308D01*
X122142125Y-92863300D01*
X121697875Y-92863300D01*
X121287441Y-93033308D01*
X120973308Y-93347441D01*
X120803300Y-93757875D01*
X120803300Y-94202125D01*
X120973308Y-94612559D01*
X121094049Y-94733300D01*
X120811623Y-94733300D01*
X120696700Y-94618378D01*
X120696700Y-91217875D01*
X120803300Y-91217875D01*
X120803300Y-91662125D01*
X120973308Y-92072559D01*
X121287441Y-92386692D01*
X121697875Y-92556700D01*
X122142125Y-92556700D01*
X122308282Y-92487875D01*
X123603300Y-92487875D01*
X123603300Y-92932125D01*
X123773308Y-93342559D01*
X124087441Y-93656692D01*
X124497875Y-93826700D01*
X124942125Y-93826700D01*
X125352559Y-93656692D01*
X125666692Y-93342559D01*
X125836700Y-92932125D01*
X125836700Y-92487875D01*
X125666692Y-92077441D01*
X125352559Y-91763308D01*
X124942125Y-91593300D01*
X124497875Y-91593300D01*
X124087441Y-91763308D01*
X123773308Y-92077441D01*
X123603300Y-92487875D01*
X122308282Y-92487875D01*
X122552559Y-92386692D01*
X122866692Y-92072559D01*
X123036700Y-91662125D01*
X123036700Y-91293825D01*
X128572100Y-91293825D01*
X128572100Y-91738207D01*
X128624303Y-91864237D01*
X128720763Y-91960697D01*
X128846793Y-92012900D01*
X129416175Y-92012900D01*
X129501900Y-91927175D01*
X129501900Y-91208100D01*
X129578100Y-91208100D01*
X129578100Y-91927175D01*
X129663825Y-92012900D01*
X130233207Y-92012900D01*
X130359237Y-91960697D01*
X130455697Y-91864237D01*
X130507900Y-91738207D01*
X130507900Y-91293825D01*
X130422175Y-91208100D01*
X129578100Y-91208100D01*
X129501900Y-91208100D01*
X128657825Y-91208100D01*
X128572100Y-91293825D01*
X123036700Y-91293825D01*
X123036700Y-91217875D01*
X122866692Y-90807441D01*
X122552559Y-90493308D01*
X122142125Y-90323300D01*
X121697875Y-90323300D01*
X121287441Y-90493308D01*
X120973308Y-90807441D01*
X120803300Y-91217875D01*
X120696700Y-91217875D01*
X120696700Y-88407423D01*
X120851291Y-88562015D01*
X120803300Y-88677875D01*
X120803300Y-89122125D01*
X120973308Y-89532559D01*
X121287441Y-89846692D01*
X121697875Y-90016700D01*
X122142125Y-90016700D01*
X122552559Y-89846692D01*
X122866692Y-89532559D01*
X122914683Y-89416700D01*
X123894049Y-89416700D01*
X123773308Y-89537441D01*
X123603300Y-89947875D01*
X123603300Y-90392125D01*
X123773308Y-90802559D01*
X124087441Y-91116692D01*
X124497875Y-91286700D01*
X124942125Y-91286700D01*
X125352559Y-91116692D01*
X125666692Y-90802559D01*
X125749852Y-90601793D01*
X128572100Y-90601793D01*
X128572100Y-91046175D01*
X128657825Y-91131900D01*
X129501900Y-91131900D01*
X129501900Y-90412825D01*
X129578100Y-90412825D01*
X129578100Y-91131900D01*
X130422175Y-91131900D01*
X130507900Y-91046175D01*
X130507900Y-90601793D01*
X130455697Y-90475763D01*
X130359237Y-90379303D01*
X130233207Y-90327100D01*
X129663825Y-90327100D01*
X129578100Y-90412825D01*
X129501900Y-90412825D01*
X129416175Y-90327100D01*
X128846793Y-90327100D01*
X128720763Y-90379303D01*
X128624303Y-90475763D01*
X128572100Y-90601793D01*
X125749852Y-90601793D01*
X125836700Y-90392125D01*
X125836700Y-89947875D01*
X125666692Y-89537441D01*
X125545951Y-89416700D01*
X128643076Y-89416700D01*
X128643076Y-89670000D01*
X128663775Y-89774061D01*
X128722721Y-89862279D01*
X128810939Y-89921225D01*
X128915000Y-89941924D01*
X130165000Y-89941924D01*
X130269061Y-89921225D01*
X130357279Y-89862279D01*
X130416225Y-89774061D01*
X130436924Y-89670000D01*
X130436924Y-88670000D01*
X130416225Y-88565939D01*
X130357279Y-88477721D01*
X130269061Y-88418775D01*
X130165000Y-88398076D01*
X130156700Y-88398076D01*
X130156700Y-88396331D01*
X130062813Y-88169667D01*
X129889333Y-87996187D01*
X129662669Y-87902300D01*
X129417331Y-87902300D01*
X129190667Y-87996187D01*
X129017187Y-88169667D01*
X128928698Y-88383300D01*
X125584068Y-88383300D01*
X125725895Y-88313731D01*
X125910979Y-87876746D01*
X125914747Y-87402196D01*
X125736626Y-86962327D01*
X125725895Y-86946269D01*
X125545903Y-86857979D01*
X124773882Y-87630000D01*
X124788024Y-87644142D01*
X124734142Y-87698024D01*
X124720000Y-87683882D01*
X124705858Y-87698024D01*
X124651976Y-87644142D01*
X124666118Y-87630000D01*
X123894097Y-86857979D01*
X123714105Y-86946269D01*
X123529021Y-87383254D01*
X123525253Y-87857804D01*
X123703374Y-88297673D01*
X123714105Y-88313731D01*
X123855932Y-88383300D01*
X122914683Y-88383300D01*
X122866692Y-88267441D01*
X122552559Y-87953308D01*
X122142125Y-87783300D01*
X121697875Y-87783300D01*
X121582015Y-87831291D01*
X121068945Y-87318222D01*
X121068943Y-87318219D01*
X121068941Y-87318217D01*
X121040118Y-87275080D01*
X120996981Y-87246257D01*
X120696700Y-86945977D01*
X120696700Y-86137875D01*
X120803300Y-86137875D01*
X120803300Y-86582125D01*
X120973308Y-86992559D01*
X121287441Y-87306692D01*
X121697875Y-87476700D01*
X122142125Y-87476700D01*
X122552559Y-87306692D01*
X122866692Y-86992559D01*
X122944755Y-86804097D01*
X123947979Y-86804097D01*
X124720000Y-87576118D01*
X125492021Y-86804097D01*
X125403731Y-86624105D01*
X124966746Y-86439021D01*
X124492196Y-86435253D01*
X124052327Y-86613374D01*
X124036269Y-86624105D01*
X123947979Y-86804097D01*
X122944755Y-86804097D01*
X123036700Y-86582125D01*
X123036700Y-86137875D01*
X122866692Y-85727441D01*
X122552559Y-85413308D01*
X122142125Y-85243300D01*
X121697875Y-85243300D01*
X121287441Y-85413308D01*
X120973308Y-85727441D01*
X120803300Y-86137875D01*
X120696700Y-86137875D01*
X120696700Y-83597875D01*
X120803300Y-83597875D01*
X120803300Y-84042125D01*
X120973308Y-84452559D01*
X121287441Y-84766692D01*
X121697875Y-84936700D01*
X122142125Y-84936700D01*
X122308282Y-84867875D01*
X123603300Y-84867875D01*
X123603300Y-85312125D01*
X123773308Y-85722559D01*
X124087441Y-86036692D01*
X124497875Y-86206700D01*
X124942125Y-86206700D01*
X125352559Y-86036692D01*
X125666692Y-85722559D01*
X125836700Y-85312125D01*
X125836700Y-84867875D01*
X125666692Y-84457441D01*
X125352559Y-84143308D01*
X124942125Y-83973300D01*
X124497875Y-83973300D01*
X124087441Y-84143308D01*
X123773308Y-84457441D01*
X123603300Y-84867875D01*
X122308282Y-84867875D01*
X122552559Y-84766692D01*
X122866692Y-84452559D01*
X123036700Y-84042125D01*
X123036700Y-83597875D01*
X122866692Y-83187441D01*
X122552559Y-82873308D01*
X122142125Y-82703300D01*
X121697875Y-82703300D01*
X121287441Y-82873308D01*
X120973308Y-83187441D01*
X120803300Y-83597875D01*
X120696700Y-83597875D01*
X120696700Y-82105903D01*
X121147979Y-82105903D01*
X121236269Y-82285895D01*
X121673254Y-82470979D01*
X122147804Y-82474747D01*
X122510503Y-82327875D01*
X123603300Y-82327875D01*
X123603300Y-82772125D01*
X123773308Y-83182559D01*
X124087441Y-83496692D01*
X124497875Y-83666700D01*
X124942125Y-83666700D01*
X125352559Y-83496692D01*
X125666692Y-83182559D01*
X125836700Y-82772125D01*
X125836700Y-82327875D01*
X125666692Y-81917441D01*
X125352559Y-81603308D01*
X124942125Y-81433300D01*
X124497875Y-81433300D01*
X124087441Y-81603308D01*
X123773308Y-81917441D01*
X123603300Y-82327875D01*
X122510503Y-82327875D01*
X122587673Y-82296626D01*
X122603731Y-82285895D01*
X122692021Y-82105903D01*
X121920000Y-81333882D01*
X121147979Y-82105903D01*
X120696700Y-82105903D01*
X120696700Y-81507804D01*
X120725253Y-81507804D01*
X120903374Y-81947673D01*
X120914105Y-81963731D01*
X121094097Y-82052021D01*
X121866118Y-81280000D01*
X121973882Y-81280000D01*
X122745903Y-82052021D01*
X122925895Y-81963731D01*
X123110979Y-81526746D01*
X123114747Y-81052196D01*
X122936626Y-80612327D01*
X122925895Y-80596269D01*
X122745903Y-80507979D01*
X121973882Y-81280000D01*
X121866118Y-81280000D01*
X121094097Y-80507979D01*
X120914105Y-80596269D01*
X120729021Y-81033254D01*
X120725253Y-81507804D01*
X120696700Y-81507804D01*
X120696700Y-80454097D01*
X121147979Y-80454097D01*
X121920000Y-81226118D01*
X122692021Y-80454097D01*
X122603731Y-80274105D01*
X122166746Y-80089021D01*
X121692196Y-80085253D01*
X121252327Y-80263374D01*
X121236269Y-80274105D01*
X121147979Y-80454097D01*
X120696700Y-80454097D01*
X120696700Y-78517875D01*
X120803300Y-78517875D01*
X120803300Y-78962125D01*
X120973308Y-79372559D01*
X121287441Y-79686692D01*
X121697875Y-79856700D01*
X122142125Y-79856700D01*
X122308282Y-79787875D01*
X123603300Y-79787875D01*
X123603300Y-80232125D01*
X123773308Y-80642559D01*
X124087441Y-80956692D01*
X124497875Y-81126700D01*
X124942125Y-81126700D01*
X125352559Y-80956692D01*
X125666692Y-80642559D01*
X125836700Y-80232125D01*
X125836700Y-79787875D01*
X125666692Y-79377441D01*
X125352559Y-79063308D01*
X124942125Y-78893300D01*
X124497875Y-78893300D01*
X124087441Y-79063308D01*
X123773308Y-79377441D01*
X123603300Y-79787875D01*
X122308282Y-79787875D01*
X122552559Y-79686692D01*
X122866692Y-79372559D01*
X123036700Y-78962125D01*
X123036700Y-78517875D01*
X122866692Y-78107441D01*
X122552559Y-77793308D01*
X122142125Y-77623300D01*
X121697875Y-77623300D01*
X121287441Y-77793308D01*
X120973308Y-78107441D01*
X120803300Y-78517875D01*
X120696700Y-78517875D01*
X120696700Y-76004023D01*
X120860188Y-75840535D01*
X120803300Y-75977875D01*
X120803300Y-76422125D01*
X120973308Y-76832559D01*
X121287441Y-77146692D01*
X121697875Y-77316700D01*
X122142125Y-77316700D01*
X122308282Y-77247875D01*
X123603300Y-77247875D01*
X123603300Y-77692125D01*
X123773308Y-78102559D01*
X124087441Y-78416692D01*
X124497875Y-78586700D01*
X124942125Y-78586700D01*
X125352559Y-78416692D01*
X125666692Y-78102559D01*
X125836700Y-77692125D01*
X125836700Y-77247875D01*
X125666692Y-76837441D01*
X125352559Y-76523308D01*
X124942125Y-76353300D01*
X124497875Y-76353300D01*
X124087441Y-76523308D01*
X123773308Y-76837441D01*
X123603300Y-77247875D01*
X122308282Y-77247875D01*
X122552559Y-77146692D01*
X122866692Y-76832559D01*
X123036700Y-76422125D01*
X123036700Y-75977875D01*
X122866692Y-75567441D01*
X122552559Y-75253308D01*
X122142125Y-75083300D01*
X121697875Y-75083300D01*
X121560536Y-75140188D01*
X121734024Y-74966700D01*
X142993301Y-74966700D01*
X142993300Y-80670554D01*
G04 #@! TD*
M02*
