G04 #@! TF.GenerationSoftware,KiCad,Pcbnew,(5.0.1-3-g963ef8bb5)*
G04 #@! TF.CreationDate,2019-05-18T06:39:01-07:00*
G04 #@! TF.ProjectId,oakram,6F616B72616D2E6B696361645F706362,3.0*
G04 #@! TF.SameCoordinates,Original*
G04 #@! TF.FileFunction,Copper,L1,Top,Signal*
G04 #@! TF.FilePolarity,Positive*
%FSLAX46Y46*%
G04 Gerber Fmt 4.6, Leading zero omitted, Abs format (unit mm)*
G04 Created by KiCad (PCBNEW (5.0.1-3-g963ef8bb5)) date Saturday, May 18, 2019 at 06:39:01 AM*
%MOMM*%
%LPD*%
G01*
G04 APERTURE LIST*
G04 #@! TA.AperFunction,SMDPad,CuDef*
%ADD10R,2.550000X2.500000*%
G04 #@! TD*
G04 #@! TA.AperFunction,SMDPad,CuDef*
%ADD11R,2.032000X0.508000*%
G04 #@! TD*
G04 #@! TA.AperFunction,ComponentPad*
%ADD12C,1.700000*%
G04 #@! TD*
G04 #@! TA.AperFunction,SMDPad,CuDef*
%ADD13R,1.000000X1.250000*%
G04 #@! TD*
G04 #@! TA.AperFunction,ViaPad*
%ADD14C,0.700000*%
G04 #@! TD*
G04 #@! TA.AperFunction,ViaPad*
%ADD15C,1.000000*%
G04 #@! TD*
G04 #@! TA.AperFunction,Conductor*
%ADD16C,0.200000*%
G04 #@! TD*
G04 #@! TA.AperFunction,Conductor*
%ADD17C,0.500000*%
G04 #@! TD*
G04 #@! TA.AperFunction,Conductor*
%ADD18C,1.000000*%
G04 #@! TD*
G04 #@! TA.AperFunction,Conductor*
%ADD19C,0.177800*%
G04 #@! TD*
G04 APERTURE END LIST*
D10*
G04 #@! TO.P,C7,2*
G04 #@! TO.N,VSS*
X138445000Y-82550000D03*
G04 #@! TO.P,C7,1*
G04 #@! TO.N,VCC*
X143495000Y-82550000D03*
G04 #@! TD*
D11*
G04 #@! TO.P,U2,21*
G04 #@! TO.N,VCC*
X128270000Y-114300000D03*
G04 #@! TO.P,U2,20*
G04 #@! TO.N,/A3*
X128270000Y-113030000D03*
G04 #@! TO.P,U2,19*
G04 #@! TO.N,/A2*
X128270000Y-111760000D03*
G04 #@! TO.P,U2,18*
G04 #@! TO.N,/A1*
X128270000Y-110490000D03*
G04 #@! TO.P,U2,17*
G04 #@! TO.N,/A0*
X128270000Y-109220000D03*
G04 #@! TO.P,U2,16*
G04 #@! TO.N,Net-(U2-Pad16)*
X128270000Y-107950000D03*
G04 #@! TO.P,U2,15*
G04 #@! TO.N,Net-(U2-Pad15)*
X128270000Y-106680000D03*
G04 #@! TO.P,U2,14*
G04 #@! TO.N,/~RAS*
X128270000Y-105410000D03*
G04 #@! TO.P,U2,13*
G04 #@! TO.N,/~WE*
X128270000Y-104140000D03*
G04 #@! TO.P,U2,12*
G04 #@! TO.N,N/C*
X128270000Y-102870000D03*
G04 #@! TO.P,U2,22*
G04 #@! TO.N,VSS*
X138430000Y-114300000D03*
G04 #@! TO.P,U2,23*
G04 #@! TO.N,/A4*
X138430000Y-113030000D03*
G04 #@! TO.P,U2,24*
G04 #@! TO.N,/A5*
X138430000Y-111760000D03*
G04 #@! TO.P,U2,25*
G04 #@! TO.N,/A6*
X138430000Y-110490000D03*
G04 #@! TO.P,U2,26*
G04 #@! TO.N,/A7*
X138430000Y-109220000D03*
G04 #@! TO.P,U2,27*
G04 #@! TO.N,/A8*
X138430000Y-107950000D03*
G04 #@! TO.P,U2,28*
G04 #@! TO.N,/A9*
X138430000Y-106680000D03*
G04 #@! TO.P,U2,29*
G04 #@! TO.N,/~OE*
X138430000Y-105410000D03*
G04 #@! TO.P,U2,30*
G04 #@! TO.N,/~CAS1*
X138430000Y-104140000D03*
G04 #@! TO.P,U2,31*
G04 #@! TO.N,/~CAS0*
X138430000Y-102870000D03*
G04 #@! TO.P,U2,1*
G04 #@! TO.N,VCC*
X128270000Y-88900000D03*
G04 #@! TO.P,U2,2*
G04 #@! TO.N,/D0*
X128270000Y-90170000D03*
G04 #@! TO.P,U2,3*
G04 #@! TO.N,/D1*
X128270000Y-91440000D03*
G04 #@! TO.P,U2,4*
G04 #@! TO.N,/D2*
X128270000Y-92710000D03*
G04 #@! TO.P,U2,5*
G04 #@! TO.N,/D3*
X128270000Y-93980000D03*
G04 #@! TO.P,U2,6*
G04 #@! TO.N,VCC*
X128270000Y-95250000D03*
G04 #@! TO.P,U2,7*
G04 #@! TO.N,/D4*
X128270000Y-96520000D03*
G04 #@! TO.P,U2,8*
G04 #@! TO.N,/D5*
X128270000Y-97790000D03*
G04 #@! TO.P,U2,9*
G04 #@! TO.N,/D6*
X128270000Y-99060000D03*
G04 #@! TO.P,U2,10*
G04 #@! TO.N,/D7*
X128270000Y-100330000D03*
G04 #@! TO.P,U2,42*
G04 #@! TO.N,VSS*
X138430000Y-88900000D03*
G04 #@! TO.P,U2,41*
G04 #@! TO.N,/D8*
X138430000Y-90170000D03*
G04 #@! TO.P,U2,40*
G04 #@! TO.N,/D9*
X138430000Y-91440000D03*
G04 #@! TO.P,U2,39*
G04 #@! TO.N,/D10*
X138430000Y-92710000D03*
G04 #@! TO.P,U2,38*
G04 #@! TO.N,/D11*
X138430000Y-93980000D03*
G04 #@! TO.P,U2,37*
G04 #@! TO.N,VSS*
X138430000Y-95250000D03*
G04 #@! TO.P,U2,36*
G04 #@! TO.N,/D12*
X138430000Y-96520000D03*
G04 #@! TO.P,U2,35*
G04 #@! TO.N,/D13*
X138430000Y-97790000D03*
G04 #@! TO.P,U2,34*
G04 #@! TO.N,/D14*
X138430000Y-99060000D03*
G04 #@! TO.P,U2,33*
G04 #@! TO.N,/D15*
X138430000Y-100330000D03*
G04 #@! TO.P,U2,11*
G04 #@! TO.N,N/C*
X128270000Y-101600000D03*
G04 #@! TO.P,U2,32*
X138430000Y-101600000D03*
G04 #@! TD*
G04 #@! TO.P,U1,32*
G04 #@! TO.N,N/C*
X153035000Y-101600000D03*
G04 #@! TO.P,U1,11*
X142875000Y-101600000D03*
G04 #@! TO.P,U1,33*
G04 #@! TO.N,/D23*
X153035000Y-100330000D03*
G04 #@! TO.P,U1,34*
G04 #@! TO.N,/D22*
X153035000Y-99060000D03*
G04 #@! TO.P,U1,35*
G04 #@! TO.N,/D21*
X153035000Y-97790000D03*
G04 #@! TO.P,U1,36*
G04 #@! TO.N,/D20*
X153035000Y-96520000D03*
G04 #@! TO.P,U1,37*
G04 #@! TO.N,VSS*
X153035000Y-95250000D03*
G04 #@! TO.P,U1,38*
G04 #@! TO.N,/D19*
X153035000Y-93980000D03*
G04 #@! TO.P,U1,39*
G04 #@! TO.N,/D18*
X153035000Y-92710000D03*
G04 #@! TO.P,U1,40*
G04 #@! TO.N,/D17*
X153035000Y-91440000D03*
G04 #@! TO.P,U1,41*
G04 #@! TO.N,/D16*
X153035000Y-90170000D03*
G04 #@! TO.P,U1,42*
G04 #@! TO.N,VSS*
X153035000Y-88900000D03*
G04 #@! TO.P,U1,10*
G04 #@! TO.N,/D31*
X142875000Y-100330000D03*
G04 #@! TO.P,U1,9*
G04 #@! TO.N,/D30*
X142875000Y-99060000D03*
G04 #@! TO.P,U1,8*
G04 #@! TO.N,/D29*
X142875000Y-97790000D03*
G04 #@! TO.P,U1,7*
G04 #@! TO.N,/D28*
X142875000Y-96520000D03*
G04 #@! TO.P,U1,6*
G04 #@! TO.N,VCC*
X142875000Y-95250000D03*
G04 #@! TO.P,U1,5*
G04 #@! TO.N,/D27*
X142875000Y-93980000D03*
G04 #@! TO.P,U1,4*
G04 #@! TO.N,/D26*
X142875000Y-92710000D03*
G04 #@! TO.P,U1,3*
G04 #@! TO.N,/D25*
X142875000Y-91440000D03*
G04 #@! TO.P,U1,2*
G04 #@! TO.N,/D24*
X142875000Y-90170000D03*
G04 #@! TO.P,U1,1*
G04 #@! TO.N,VCC*
X142875000Y-88900000D03*
G04 #@! TO.P,U1,31*
G04 #@! TO.N,/~CAS3*
X153035000Y-102870000D03*
G04 #@! TO.P,U1,30*
G04 #@! TO.N,/~CAS2*
X153035000Y-104140000D03*
G04 #@! TO.P,U1,29*
G04 #@! TO.N,/~OE*
X153035000Y-105410000D03*
G04 #@! TO.P,U1,28*
G04 #@! TO.N,/A9*
X153035000Y-106680000D03*
G04 #@! TO.P,U1,27*
G04 #@! TO.N,/A8*
X153035000Y-107950000D03*
G04 #@! TO.P,U1,26*
G04 #@! TO.N,/A7*
X153035000Y-109220000D03*
G04 #@! TO.P,U1,25*
G04 #@! TO.N,/A6*
X153035000Y-110490000D03*
G04 #@! TO.P,U1,24*
G04 #@! TO.N,/A5*
X153035000Y-111760000D03*
G04 #@! TO.P,U1,23*
G04 #@! TO.N,/A4*
X153035000Y-113030000D03*
G04 #@! TO.P,U1,22*
G04 #@! TO.N,VSS*
X153035000Y-114300000D03*
G04 #@! TO.P,U1,12*
G04 #@! TO.N,N/C*
X142875000Y-102870000D03*
G04 #@! TO.P,U1,13*
G04 #@! TO.N,/~WE*
X142875000Y-104140000D03*
G04 #@! TO.P,U1,14*
G04 #@! TO.N,/~RAS*
X142875000Y-105410000D03*
G04 #@! TO.P,U1,15*
G04 #@! TO.N,Net-(U1-Pad15)*
X142875000Y-106680000D03*
G04 #@! TO.P,U1,16*
G04 #@! TO.N,Net-(U1-Pad16)*
X142875000Y-107950000D03*
G04 #@! TO.P,U1,17*
G04 #@! TO.N,/A0*
X142875000Y-109220000D03*
G04 #@! TO.P,U1,18*
G04 #@! TO.N,/A1*
X142875000Y-110490000D03*
G04 #@! TO.P,U1,19*
G04 #@! TO.N,/A2*
X142875000Y-111760000D03*
G04 #@! TO.P,U1,20*
G04 #@! TO.N,/A3*
X142875000Y-113030000D03*
G04 #@! TO.P,U1,21*
G04 #@! TO.N,VCC*
X142875000Y-114300000D03*
G04 #@! TD*
D12*
G04 #@! TO.P,X1,1*
G04 #@! TO.N,/D8*
X121920000Y-76200000D03*
G04 #@! TO.P,X1,2*
G04 #@! TO.N,/D9*
X124720000Y-77470000D03*
G04 #@! TO.P,X1,3*
G04 #@! TO.N,/D10*
X121920000Y-78740000D03*
G04 #@! TO.P,X1,4*
G04 #@! TO.N,/D11*
X124720000Y-80010000D03*
G04 #@! TO.P,X1,7*
G04 #@! TO.N,/D13*
X121920000Y-83820000D03*
G04 #@! TO.P,X1,5*
G04 #@! TO.N,VSS*
X121920000Y-81280000D03*
G04 #@! TO.P,X1,6*
G04 #@! TO.N,/D12*
X124720000Y-82550000D03*
G04 #@! TO.P,X1,8*
G04 #@! TO.N,/D14*
X124720000Y-85090000D03*
G04 #@! TO.P,X1,11*
G04 #@! TO.N,VCC*
X121920000Y-88900000D03*
G04 #@! TO.P,X1,16*
X124720000Y-95250000D03*
G04 #@! TO.P,X1,9*
G04 #@! TO.N,/D15*
X121920000Y-86360000D03*
G04 #@! TO.P,X1,14*
G04 #@! TO.N,/D2*
X124720000Y-92710000D03*
G04 #@! TO.P,X1,10*
G04 #@! TO.N,VSS*
X124720000Y-87630000D03*
G04 #@! TO.P,X1,12*
G04 #@! TO.N,/D0*
X124720000Y-90170000D03*
G04 #@! TO.P,X1,13*
G04 #@! TO.N,/D1*
X121920000Y-91440000D03*
G04 #@! TO.P,X1,15*
G04 #@! TO.N,/D3*
X121920000Y-93980000D03*
G04 #@! TO.P,X1,19*
G04 #@! TO.N,/D6*
X121920000Y-99060000D03*
G04 #@! TO.P,X1,27*
G04 #@! TO.N,/A1*
X121920000Y-109220000D03*
G04 #@! TO.P,X1,24*
G04 #@! TO.N,/~RAS*
X124720000Y-105410000D03*
G04 #@! TO.P,X1,17*
G04 #@! TO.N,/D4*
X121920000Y-96520000D03*
G04 #@! TO.P,X1,28*
G04 #@! TO.N,/A2*
X124720000Y-110490000D03*
G04 #@! TO.P,X1,25*
G04 #@! TO.N,Net-(X1-Pad25)*
X121920000Y-106680000D03*
G04 #@! TO.P,X1,22*
G04 #@! TO.N,/A9*
X124720000Y-102870000D03*
G04 #@! TO.P,X1,32*
G04 #@! TO.N,Net-(X1-Pad32)*
X124720000Y-115570000D03*
G04 #@! TO.P,X1,18*
G04 #@! TO.N,/D5*
X124720000Y-97790000D03*
G04 #@! TO.P,X1,20*
G04 #@! TO.N,/D7*
X124720000Y-100330000D03*
G04 #@! TO.P,X1,21*
G04 #@! TO.N,Net-(X1-Pad21)*
X121920000Y-101600000D03*
G04 #@! TO.P,X1,23*
G04 #@! TO.N,/~WE*
X121920000Y-104140000D03*
G04 #@! TO.P,X1,26*
G04 #@! TO.N,/A0*
X124720000Y-107950000D03*
G04 #@! TO.P,X1,29*
G04 #@! TO.N,/A3*
X121920000Y-111760000D03*
G04 #@! TO.P,X1,31*
G04 #@! TO.N,VSS*
X121920000Y-114300000D03*
G04 #@! TO.P,X1,30*
G04 #@! TO.N,VCC*
X124720000Y-113030000D03*
G04 #@! TO.P,X1,37*
G04 #@! TO.N,/~OE*
X121920000Y-121920000D03*
G04 #@! TO.P,X1,34*
G04 #@! TO.N,Net-(X1-Pad34)*
X124720000Y-118110000D03*
G04 #@! TO.P,X1,36*
G04 #@! TO.N,Net-(X1-Pad36)*
X124720000Y-120650000D03*
G04 #@! TO.P,X1,39*
G04 #@! TO.N,/~CAS0*
X121920000Y-124460000D03*
G04 #@! TO.P,X1,40*
G04 #@! TO.N,Net-(X1-Pad40)*
X124720000Y-125730000D03*
G04 #@! TO.P,X1,35*
G04 #@! TO.N,Net-(X1-Pad35)*
X121920000Y-119380000D03*
G04 #@! TO.P,X1,33*
G04 #@! TO.N,Net-(X1-Pad33)*
X121920000Y-116840000D03*
G04 #@! TO.P,X1,38*
G04 #@! TO.N,/~CAS1*
X124720000Y-123190000D03*
G04 #@! TD*
G04 #@! TO.P,X2,38*
G04 #@! TO.N,/~CAS3*
X159134000Y-123190000D03*
G04 #@! TO.P,X2,33*
G04 #@! TO.N,/A5*
X156334000Y-116840000D03*
G04 #@! TO.P,X2,35*
G04 #@! TO.N,/A7*
X156334000Y-119380000D03*
G04 #@! TO.P,X2,40*
G04 #@! TO.N,Net-(X2-Pad40)*
X159134000Y-125730000D03*
G04 #@! TO.P,X2,39*
G04 #@! TO.N,/~CAS2*
X156334000Y-124460000D03*
G04 #@! TO.P,X2,36*
G04 #@! TO.N,/A8*
X159134000Y-120650000D03*
G04 #@! TO.P,X2,34*
G04 #@! TO.N,/A6*
X159134000Y-118110000D03*
G04 #@! TO.P,X2,37*
G04 #@! TO.N,/~OE*
X156334000Y-121920000D03*
G04 #@! TO.P,X2,30*
G04 #@! TO.N,VCC*
X159134000Y-113030000D03*
G04 #@! TO.P,X2,31*
G04 #@! TO.N,VSS*
X156334000Y-114300000D03*
G04 #@! TO.P,X2,29*
G04 #@! TO.N,Net-(X2-Pad29)*
X156334000Y-111760000D03*
G04 #@! TO.P,X2,26*
G04 #@! TO.N,Net-(X2-Pad26)*
X159134000Y-107950000D03*
G04 #@! TO.P,X2,23*
G04 #@! TO.N,Net-(X2-Pad23)*
X156334000Y-104140000D03*
G04 #@! TO.P,X2,21*
G04 #@! TO.N,Net-(X2-Pad21)*
X156334000Y-101600000D03*
G04 #@! TO.P,X2,20*
G04 #@! TO.N,/D23*
X159134000Y-100330000D03*
G04 #@! TO.P,X2,18*
G04 #@! TO.N,/D21*
X159134000Y-97790000D03*
G04 #@! TO.P,X2,32*
G04 #@! TO.N,/A4*
X159134000Y-115570000D03*
G04 #@! TO.P,X2,22*
G04 #@! TO.N,Net-(X2-Pad22)*
X159134000Y-102870000D03*
G04 #@! TO.P,X2,25*
G04 #@! TO.N,Net-(X2-Pad25)*
X156334000Y-106680000D03*
G04 #@! TO.P,X2,28*
G04 #@! TO.N,Net-(X2-Pad28)*
X159134000Y-110490000D03*
G04 #@! TO.P,X2,17*
G04 #@! TO.N,/D20*
X156334000Y-96520000D03*
G04 #@! TO.P,X2,24*
G04 #@! TO.N,Net-(X2-Pad24)*
X159134000Y-105410000D03*
G04 #@! TO.P,X2,27*
G04 #@! TO.N,Net-(X2-Pad27)*
X156334000Y-109220000D03*
G04 #@! TO.P,X2,19*
G04 #@! TO.N,/D22*
X156334000Y-99060000D03*
G04 #@! TO.P,X2,15*
G04 #@! TO.N,/D19*
X156334000Y-93980000D03*
G04 #@! TO.P,X2,13*
G04 #@! TO.N,/D17*
X156334000Y-91440000D03*
G04 #@! TO.P,X2,12*
G04 #@! TO.N,/D16*
X159134000Y-90170000D03*
G04 #@! TO.P,X2,10*
G04 #@! TO.N,VSS*
X159134000Y-87630000D03*
G04 #@! TO.P,X2,14*
G04 #@! TO.N,/D18*
X159134000Y-92710000D03*
G04 #@! TO.P,X2,9*
G04 #@! TO.N,/D31*
X156334000Y-86360000D03*
G04 #@! TO.P,X2,16*
G04 #@! TO.N,VCC*
X159134000Y-95250000D03*
G04 #@! TO.P,X2,11*
X156334000Y-88900000D03*
G04 #@! TO.P,X2,8*
G04 #@! TO.N,/D30*
X159134000Y-85090000D03*
G04 #@! TO.P,X2,6*
G04 #@! TO.N,/D28*
X159134000Y-82550000D03*
G04 #@! TO.P,X2,5*
G04 #@! TO.N,VSS*
X156334000Y-81280000D03*
G04 #@! TO.P,X2,7*
G04 #@! TO.N,/D29*
X156334000Y-83820000D03*
G04 #@! TO.P,X2,4*
G04 #@! TO.N,/D27*
X159134000Y-80010000D03*
G04 #@! TO.P,X2,3*
G04 #@! TO.N,/D26*
X156334000Y-78740000D03*
G04 #@! TO.P,X2,2*
G04 #@! TO.N,/D25*
X159134000Y-77470000D03*
G04 #@! TO.P,X2,1*
G04 #@! TO.N,/D24*
X156334000Y-76200000D03*
G04 #@! TD*
D13*
G04 #@! TO.P,C1,2*
G04 #@! TO.N,VSS*
X130540000Y-116205000D03*
G04 #@! TO.P,C1,1*
G04 #@! TO.N,VCC*
X128540000Y-116205000D03*
G04 #@! TD*
G04 #@! TO.P,C3,2*
G04 #@! TO.N,VSS*
X145145000Y-116205000D03*
G04 #@! TO.P,C3,1*
G04 #@! TO.N,VCC*
X143145000Y-116205000D03*
G04 #@! TD*
G04 #@! TO.P,C6,1*
G04 #@! TO.N,VCC*
X141970000Y-86360000D03*
G04 #@! TO.P,C6,2*
G04 #@! TO.N,VSS*
X139970000Y-86360000D03*
G04 #@! TD*
D14*
G04 #@! TO.N,/A9*
X134747000Y-102235000D03*
X136017000Y-106680000D03*
G04 #@! TO.N,/A4*
X149860000Y-113030000D03*
G04 #@! TO.N,/~OE*
X132588000Y-121793000D03*
X134620000Y-105537000D03*
X145796000Y-105537000D03*
G04 #@! TO.N,/A6*
X147955000Y-110490000D03*
G04 #@! TO.N,/A8*
X146431000Y-107950000D03*
G04 #@! TO.N,/~CAS0*
X132207000Y-102870000D03*
G04 #@! TO.N,/A7*
X147193000Y-109220000D03*
G04 #@! TO.N,/A5*
X148844000Y-111760000D03*
G04 #@! TO.N,/~CAS1*
X130937000Y-104267000D03*
G04 #@! TO.N,VSS*
X130302000Y-92837000D03*
X153035000Y-87947500D03*
X140208000Y-88900000D03*
X151066500Y-95250000D03*
X136398000Y-95250000D03*
X138620500Y-86360000D03*
X136207500Y-82550000D03*
X150939500Y-114300000D03*
X138430000Y-115189000D03*
X145097500Y-117538500D03*
X131572000Y-116141500D03*
X140970000Y-99250500D03*
X130175000Y-99250500D03*
G04 #@! TO.N,VCC*
X130302000Y-88900000D03*
D15*
X145986500Y-82550000D03*
X143510000Y-79375000D03*
D14*
X141986000Y-116205000D03*
X127317500Y-116268500D03*
X143319500Y-86360000D03*
X140970000Y-95250000D03*
X130111500Y-95250000D03*
G04 #@! TD*
D16*
G04 #@! TO.N,/D8*
X138430000Y-90170000D02*
X136715500Y-90170000D01*
X127190500Y-76200000D02*
X121920000Y-76200000D01*
X136271000Y-85280500D02*
X127190500Y-76200000D01*
X136271000Y-89725500D02*
X136271000Y-85280500D01*
X136715500Y-90170000D02*
X136271000Y-89725500D01*
G04 #@! TO.N,/D9*
X138430000Y-91440000D02*
X136398000Y-91440000D01*
X127381000Y-77470000D02*
X124720000Y-77470000D01*
X135509000Y-85598000D02*
X127381000Y-77470000D01*
X135509000Y-90551000D02*
X135509000Y-85598000D01*
X136398000Y-91440000D02*
X135509000Y-90551000D01*
G04 #@! TO.N,/D10*
X138430000Y-92710000D02*
X135255000Y-92710000D01*
X127381000Y-78740000D02*
X121920000Y-78740000D01*
X134810500Y-86169500D02*
X127381000Y-78740000D01*
X134810500Y-92265500D02*
X134810500Y-86169500D01*
X135255000Y-92710000D02*
X134810500Y-92265500D01*
G04 #@! TO.N,/D11*
X138430000Y-93980000D02*
X135318500Y-93980000D01*
X127127000Y-80010000D02*
X124720000Y-80010000D01*
X134112000Y-86995000D02*
X127127000Y-80010000D01*
X134112000Y-92773500D02*
X134112000Y-86995000D01*
X135318500Y-93980000D02*
X134112000Y-92773500D01*
G04 #@! TO.N,/D13*
X138430000Y-97790000D02*
X133223000Y-97790000D01*
X128524000Y-83820000D02*
X121920000Y-83820000D01*
X132651500Y-87947500D02*
X128524000Y-83820000D01*
X132651500Y-97218500D02*
X132651500Y-87947500D01*
X133223000Y-97790000D02*
X132651500Y-97218500D01*
G04 #@! TO.N,/D12*
X138430000Y-96520000D02*
X135064500Y-96520000D01*
X128460500Y-82550000D02*
X124720000Y-82550000D01*
X133413500Y-87503000D02*
X128460500Y-82550000D01*
X133413500Y-94869000D02*
X133413500Y-87503000D01*
X135064500Y-96520000D02*
X133413500Y-94869000D01*
G04 #@! TO.N,/D14*
X138430000Y-99060000D02*
X132969000Y-99060000D01*
X128651000Y-85090000D02*
X124720000Y-85090000D01*
X132080000Y-88519000D02*
X128651000Y-85090000D01*
X132080000Y-98171000D02*
X132080000Y-88519000D01*
X132969000Y-99060000D02*
X132080000Y-98171000D01*
G04 #@! TO.N,/D15*
X138430000Y-100330000D02*
X132651500Y-100330000D01*
X128714500Y-86360000D02*
X121920000Y-86360000D01*
X131381500Y-89027000D02*
X128714500Y-86360000D01*
X131381500Y-99060000D02*
X131381500Y-89027000D01*
X132651500Y-100330000D02*
X131381500Y-99060000D01*
G04 #@! TO.N,/D2*
X128270000Y-92710000D02*
X124720000Y-92710000D01*
G04 #@! TO.N,/D0*
X128270000Y-90170000D02*
X124720000Y-90170000D01*
G04 #@! TO.N,/D1*
X128270000Y-91440000D02*
X121920000Y-91440000D01*
G04 #@! TO.N,/D3*
X128270000Y-93980000D02*
X121920000Y-93980000D01*
G04 #@! TO.N,/D6*
X128270000Y-99060000D02*
X121920000Y-99060000D01*
G04 #@! TO.N,/A1*
X128270000Y-110490000D02*
X127381000Y-110490000D01*
X127381000Y-110490000D02*
X126111000Y-109220000D01*
X126111000Y-109220000D02*
X121920000Y-109220000D01*
X142875000Y-110490000D02*
X141668500Y-110490000D01*
X130365500Y-110490000D02*
X128270000Y-110490000D01*
X130937000Y-111061500D02*
X130365500Y-110490000D01*
X141097000Y-111061500D02*
X130937000Y-111061500D01*
X141668500Y-110490000D02*
X141097000Y-111061500D01*
G04 #@! TO.N,/~RAS*
X124720000Y-105410000D02*
X128270000Y-105410000D01*
X128270000Y-105410000D02*
X133731000Y-105410000D01*
X133731000Y-105410000D02*
X134366000Y-104775000D01*
X134366000Y-104775000D02*
X139700000Y-104775000D01*
X139700000Y-104775000D02*
X140335000Y-105410000D01*
X140335000Y-105410000D02*
X142875000Y-105410000D01*
G04 #@! TO.N,/D4*
X128270000Y-96520000D02*
X121920000Y-96520000D01*
G04 #@! TO.N,/A2*
X128270000Y-111760000D02*
X127381000Y-111760000D01*
X127381000Y-111760000D02*
X126111000Y-110490000D01*
X126111000Y-110490000D02*
X124720000Y-110490000D01*
X142875000Y-111760000D02*
X141605000Y-111760000D01*
X130238500Y-111760000D02*
X128270000Y-111760000D01*
X130873500Y-112395000D02*
X130238500Y-111760000D01*
X140970000Y-112395000D02*
X130873500Y-112395000D01*
X141605000Y-111760000D02*
X140970000Y-112395000D01*
G04 #@! TO.N,/A9*
X138430000Y-106680000D02*
X136017000Y-106680000D01*
X125857000Y-102870000D02*
X124720000Y-102870000D01*
X126492000Y-102235000D02*
X125857000Y-102870000D01*
X134747000Y-102235000D02*
X126492000Y-102235000D01*
X138430000Y-106680000D02*
X141097000Y-106680000D01*
X144653000Y-106680000D02*
X153035000Y-106680000D01*
X144018000Y-106045000D02*
X144653000Y-106680000D01*
X141732000Y-106045000D02*
X144018000Y-106045000D01*
X141097000Y-106680000D02*
X141732000Y-106045000D01*
G04 #@! TO.N,/A4*
X149860000Y-113030000D02*
X153035000Y-113030000D01*
X144710000Y-113030000D02*
X149860000Y-113030000D01*
X144138500Y-112458500D02*
X144710000Y-113030000D01*
X141605000Y-112458500D02*
X144138500Y-112458500D01*
X141033500Y-113030000D02*
X141605000Y-112458500D01*
X138430000Y-113030000D02*
X141033500Y-113030000D01*
G04 #@! TO.N,/D5*
X128270000Y-97790000D02*
X124720000Y-97790000D01*
G04 #@! TO.N,/D7*
X128270000Y-100330000D02*
X124720000Y-100330000D01*
G04 #@! TO.N,/~WE*
X128270000Y-104140000D02*
X121920000Y-104140000D01*
X142875000Y-104140000D02*
X140462000Y-104140000D01*
X130048000Y-104140000D02*
X128270000Y-104140000D01*
X130683000Y-103505000D02*
X130048000Y-104140000D01*
X139827000Y-103505000D02*
X130683000Y-103505000D01*
X140462000Y-104140000D02*
X139827000Y-103505000D01*
G04 #@! TO.N,/A0*
X128270000Y-109220000D02*
X127381000Y-109220000D01*
X127381000Y-109220000D02*
X126111000Y-107950000D01*
X126111000Y-107950000D02*
X124720000Y-107950000D01*
X142875000Y-109220000D02*
X141668500Y-109220000D01*
X130365500Y-109220000D02*
X128270000Y-109220000D01*
X131000500Y-109855000D02*
X130365500Y-109220000D01*
X141033500Y-109855000D02*
X131000500Y-109855000D01*
X141668500Y-109220000D02*
X141033500Y-109855000D01*
G04 #@! TO.N,/A3*
X128270000Y-113030000D02*
X127317500Y-113030000D01*
X127317500Y-113030000D02*
X126047500Y-111760000D01*
X126047500Y-111760000D02*
X121920000Y-111760000D01*
X142875000Y-113030000D02*
X142113000Y-113030000D01*
X142113000Y-113030000D02*
X141478000Y-113665000D01*
X141478000Y-113665000D02*
X130810000Y-113665000D01*
X130810000Y-113665000D02*
X130175000Y-113030000D01*
X130175000Y-113030000D02*
X128270000Y-113030000D01*
G04 #@! TO.N,/~OE*
X138430000Y-105410000D02*
X134747000Y-105410000D01*
X132461000Y-121920000D02*
X121920000Y-121920000D01*
X132588000Y-121793000D02*
X132461000Y-121920000D01*
X134747000Y-105410000D02*
X134620000Y-105537000D01*
X153035000Y-105410000D02*
X145923000Y-105410000D01*
X145923000Y-105410000D02*
X145796000Y-105537000D01*
G04 #@! TO.N,/A6*
X153035000Y-110490000D02*
X147955000Y-110490000D01*
X144105000Y-109855000D02*
X144740000Y-110490000D01*
X144740000Y-110490000D02*
X147955000Y-110490000D01*
X141668500Y-109855000D02*
X144105000Y-109855000D01*
X141033500Y-110490000D02*
X141668500Y-109855000D01*
X138430000Y-110490000D02*
X141033500Y-110490000D01*
G04 #@! TO.N,/A8*
X146431000Y-107950000D02*
X153035000Y-107950000D01*
X144138500Y-107378500D02*
X144710000Y-107950000D01*
X141668500Y-107378500D02*
X144138500Y-107378500D01*
X144710000Y-107950000D02*
X146431000Y-107950000D01*
X141097000Y-107950000D02*
X141668500Y-107378500D01*
X138430000Y-107950000D02*
X141097000Y-107950000D01*
G04 #@! TO.N,/~CAS0*
X138430000Y-102870000D02*
X132207000Y-102870000D01*
G04 #@! TO.N,/A7*
X147193000Y-109220000D02*
X153035000Y-109220000D01*
X144720000Y-109220000D02*
X147193000Y-109220000D01*
X144148500Y-108648500D02*
X144720000Y-109220000D01*
X141668500Y-108648500D02*
X144148500Y-108648500D01*
X141097000Y-109220000D02*
X141668500Y-108648500D01*
X138430000Y-109220000D02*
X141097000Y-109220000D01*
G04 #@! TO.N,/A5*
X148844000Y-111760000D02*
X153035000Y-111760000D01*
X141605000Y-111188500D02*
X144158500Y-111188500D01*
X144158500Y-111188500D02*
X144730000Y-111760000D01*
X141033500Y-111760000D02*
X141605000Y-111188500D01*
X144730000Y-111760000D02*
X148844000Y-111760000D01*
X138430000Y-111760000D02*
X141033500Y-111760000D01*
G04 #@! TO.N,/~CAS1*
X131064000Y-104140000D02*
X130937000Y-104267000D01*
X138430000Y-104140000D02*
X131064000Y-104140000D01*
G04 #@! TO.N,/~CAS3*
X153035000Y-102870000D02*
X154813000Y-102870000D01*
X155829000Y-123190000D02*
X159134000Y-123190000D01*
X155067000Y-122428000D02*
X155829000Y-123190000D01*
X155067000Y-103124000D02*
X155067000Y-122428000D01*
X154813000Y-102870000D02*
X155067000Y-103124000D01*
G04 #@! TO.N,/~CAS2*
X153035000Y-104140000D02*
X154305000Y-104140000D01*
X154559000Y-122685000D02*
X156334000Y-124460000D01*
X154559000Y-104394000D02*
X154559000Y-122685000D01*
X154305000Y-104140000D02*
X154559000Y-104394000D01*
G04 #@! TO.N,/D23*
X153035000Y-100330000D02*
X159134000Y-100330000D01*
G04 #@! TO.N,/D21*
X153035000Y-97790000D02*
X159134000Y-97790000D01*
G04 #@! TO.N,/D20*
X153035000Y-96520000D02*
X156334000Y-96520000D01*
G04 #@! TO.N,/D22*
X153035000Y-99060000D02*
X156334000Y-99060000D01*
G04 #@! TO.N,/D19*
X153035000Y-93980000D02*
X156334000Y-93980000D01*
G04 #@! TO.N,/D17*
X153035000Y-91440000D02*
X156334000Y-91440000D01*
G04 #@! TO.N,/D16*
X153035000Y-90170000D02*
X159134000Y-90170000D01*
G04 #@! TO.N,/D18*
X153035000Y-92710000D02*
X159134000Y-92710000D01*
G04 #@! TO.N,/D31*
X142875000Y-100330000D02*
X146113500Y-100330000D01*
X152971500Y-86360000D02*
X156334000Y-86360000D01*
X150304500Y-89027000D02*
X152971500Y-86360000D01*
X150304500Y-96139000D02*
X150304500Y-89027000D01*
X146113500Y-100330000D02*
X150304500Y-96139000D01*
G04 #@! TO.N,/D30*
X142875000Y-99060000D02*
X146113500Y-99060000D01*
X153035000Y-85090000D02*
X159134000Y-85090000D01*
X149606000Y-88519000D02*
X153035000Y-85090000D01*
X149606000Y-95567500D02*
X149606000Y-88519000D01*
X146113500Y-99060000D02*
X149606000Y-95567500D01*
G04 #@! TO.N,/D28*
X142875000Y-96520000D02*
X145986500Y-96520000D01*
X153098500Y-82550000D02*
X159134000Y-82550000D01*
X148272500Y-87376000D02*
X153098500Y-82550000D01*
X148272500Y-94234000D02*
X148272500Y-87376000D01*
X145986500Y-96520000D02*
X148272500Y-94234000D01*
G04 #@! TO.N,/D29*
X142875000Y-97790000D02*
X146050000Y-97790000D01*
X153035000Y-83820000D02*
X156334000Y-83820000D01*
X148907500Y-87947500D02*
X153035000Y-83820000D01*
X148907500Y-94932500D02*
X148907500Y-87947500D01*
X146050000Y-97790000D02*
X148907500Y-94932500D01*
G04 #@! TO.N,/D27*
X142875000Y-93980000D02*
X146431000Y-93980000D01*
X154622500Y-80010000D02*
X159134000Y-80010000D01*
X147637500Y-86995000D02*
X154622500Y-80010000D01*
X147637500Y-92773500D02*
X147637500Y-86995000D01*
X146431000Y-93980000D02*
X147637500Y-92773500D01*
G04 #@! TO.N,/D26*
X142875000Y-92710000D02*
X146304000Y-92710000D01*
X154622500Y-78740000D02*
X156334000Y-78740000D01*
X147066000Y-86296500D02*
X154622500Y-78740000D01*
X147066000Y-91948000D02*
X147066000Y-86296500D01*
X146304000Y-92710000D02*
X147066000Y-91948000D01*
G04 #@! TO.N,/D25*
X142875000Y-91440000D02*
X145923000Y-91440000D01*
X154559000Y-77470000D02*
X159134000Y-77470000D01*
X146494500Y-85534500D02*
X154559000Y-77470000D01*
X146494500Y-90868500D02*
X146494500Y-85534500D01*
X145923000Y-91440000D02*
X146494500Y-90868500D01*
G04 #@! TO.N,/D24*
X142875000Y-90170000D02*
X145224500Y-90170000D01*
X154559000Y-76200000D02*
X156334000Y-76200000D01*
X145859500Y-84899500D02*
X154559000Y-76200000D01*
X145859500Y-89535000D02*
X145859500Y-84899500D01*
X145224500Y-90170000D02*
X145859500Y-89535000D01*
D17*
G04 #@! TO.N,VSS*
X153035000Y-88900000D02*
X153035000Y-87947500D01*
X138430000Y-88900000D02*
X140208000Y-88900000D01*
X153035000Y-95250000D02*
X151066500Y-95250000D01*
X138430000Y-95250000D02*
X136398000Y-95250000D01*
X139970000Y-86360000D02*
X138620500Y-86360000D01*
X138445000Y-82550000D02*
X136207500Y-82550000D01*
X153035000Y-114300000D02*
X150939500Y-114300000D01*
X138430000Y-114300000D02*
X138430000Y-115189000D01*
X145145000Y-116205000D02*
X145145000Y-117491000D01*
X145145000Y-117491000D02*
X145097500Y-117538500D01*
X130540000Y-116205000D02*
X131508500Y-116205000D01*
X131508500Y-116205000D02*
X131572000Y-116141500D01*
G04 #@! TO.N,VCC*
X130302000Y-88900000D02*
X128270000Y-88900000D01*
D18*
X143495000Y-82550000D02*
X145986500Y-82550000D01*
X143495000Y-82550000D02*
X143495000Y-79390000D01*
X143495000Y-79390000D02*
X143510000Y-79375000D01*
D17*
X143145000Y-116205000D02*
X141986000Y-116205000D01*
X128540000Y-116205000D02*
X127381000Y-116205000D01*
X127381000Y-116205000D02*
X127317500Y-116268500D01*
X141970000Y-86360000D02*
X143319500Y-86360000D01*
X141970000Y-86360000D02*
X141970000Y-87995000D01*
X141970000Y-87995000D02*
X142875000Y-88900000D01*
X140970000Y-95250000D02*
X142875000Y-95250000D01*
X130111500Y-95250000D02*
X128270000Y-95250000D01*
X142875000Y-114300000D02*
X142875000Y-115935000D01*
X142875000Y-115935000D02*
X143145000Y-116205000D01*
X128270000Y-114300000D02*
X128270000Y-115935000D01*
X128270000Y-115935000D02*
X128540000Y-116205000D01*
D16*
X128270000Y-88900000D02*
X129159000Y-88900000D01*
X128270000Y-114300000D02*
X127508000Y-114300000D01*
X142875000Y-114300000D02*
X142113000Y-114300000D01*
G04 #@! TD*
D19*
G04 #@! TO.N,VSS*
G36*
X161455100Y-127217100D02*
X119797900Y-127217100D01*
X119797900Y-124222717D01*
X120727100Y-124222717D01*
X120727100Y-124697283D01*
X120908708Y-125135723D01*
X121244277Y-125471292D01*
X121682717Y-125652900D01*
X122157283Y-125652900D01*
X122543998Y-125492717D01*
X123527100Y-125492717D01*
X123527100Y-125967283D01*
X123708708Y-126405723D01*
X124044277Y-126741292D01*
X124482717Y-126922900D01*
X124957283Y-126922900D01*
X125395723Y-126741292D01*
X125731292Y-126405723D01*
X125912900Y-125967283D01*
X125912900Y-125492717D01*
X125731292Y-125054277D01*
X125395723Y-124718708D01*
X124957283Y-124537100D01*
X124482717Y-124537100D01*
X124044277Y-124718708D01*
X123708708Y-125054277D01*
X123527100Y-125492717D01*
X122543998Y-125492717D01*
X122595723Y-125471292D01*
X122931292Y-125135723D01*
X123112900Y-124697283D01*
X123112900Y-124222717D01*
X122931292Y-123784277D01*
X122595723Y-123448708D01*
X122157283Y-123267100D01*
X121682717Y-123267100D01*
X121244277Y-123448708D01*
X120908708Y-123784277D01*
X120727100Y-124222717D01*
X119797900Y-124222717D01*
X119797900Y-121682717D01*
X120727100Y-121682717D01*
X120727100Y-122157283D01*
X120908708Y-122595723D01*
X121244277Y-122931292D01*
X121682717Y-123112900D01*
X122157283Y-123112900D01*
X122595723Y-122931292D01*
X122931292Y-122595723D01*
X123027731Y-122362900D01*
X123860085Y-122362900D01*
X123708708Y-122514277D01*
X123527100Y-122952717D01*
X123527100Y-123427283D01*
X123708708Y-123865723D01*
X124044277Y-124201292D01*
X124482717Y-124382900D01*
X124957283Y-124382900D01*
X125395723Y-124201292D01*
X125731292Y-123865723D01*
X125912900Y-123427283D01*
X125912900Y-122952717D01*
X125731292Y-122514277D01*
X125579915Y-122362900D01*
X132177992Y-122362900D01*
X132195504Y-122380412D01*
X132450174Y-122485900D01*
X132725826Y-122485900D01*
X132980496Y-122380412D01*
X133175412Y-122185496D01*
X133280900Y-121930826D01*
X133280900Y-121655174D01*
X133175412Y-121400504D01*
X132980496Y-121205588D01*
X132725826Y-121100100D01*
X132450174Y-121100100D01*
X132195504Y-121205588D01*
X132000588Y-121400504D01*
X131968861Y-121477100D01*
X125579915Y-121477100D01*
X125731292Y-121325723D01*
X125912900Y-120887283D01*
X125912900Y-120412717D01*
X125731292Y-119974277D01*
X125395723Y-119638708D01*
X124957283Y-119457100D01*
X124482717Y-119457100D01*
X124044277Y-119638708D01*
X123708708Y-119974277D01*
X123527100Y-120412717D01*
X123527100Y-120887283D01*
X123708708Y-121325723D01*
X123860085Y-121477100D01*
X123027731Y-121477100D01*
X122931292Y-121244277D01*
X122595723Y-120908708D01*
X122157283Y-120727100D01*
X121682717Y-120727100D01*
X121244277Y-120908708D01*
X120908708Y-121244277D01*
X120727100Y-121682717D01*
X119797900Y-121682717D01*
X119797900Y-119142717D01*
X120727100Y-119142717D01*
X120727100Y-119617283D01*
X120908708Y-120055723D01*
X121244277Y-120391292D01*
X121682717Y-120572900D01*
X122157283Y-120572900D01*
X122595723Y-120391292D01*
X122931292Y-120055723D01*
X123112900Y-119617283D01*
X123112900Y-119142717D01*
X122931292Y-118704277D01*
X122595723Y-118368708D01*
X122157283Y-118187100D01*
X121682717Y-118187100D01*
X121244277Y-118368708D01*
X120908708Y-118704277D01*
X120727100Y-119142717D01*
X119797900Y-119142717D01*
X119797900Y-116602717D01*
X120727100Y-116602717D01*
X120727100Y-117077283D01*
X120908708Y-117515723D01*
X121244277Y-117851292D01*
X121682717Y-118032900D01*
X122157283Y-118032900D01*
X122543998Y-117872717D01*
X123527100Y-117872717D01*
X123527100Y-118347283D01*
X123708708Y-118785723D01*
X124044277Y-119121292D01*
X124482717Y-119302900D01*
X124957283Y-119302900D01*
X125395723Y-119121292D01*
X125731292Y-118785723D01*
X125912900Y-118347283D01*
X125912900Y-117872717D01*
X125731292Y-117434277D01*
X125395723Y-117098708D01*
X124957283Y-116917100D01*
X124482717Y-116917100D01*
X124044277Y-117098708D01*
X123708708Y-117434277D01*
X123527100Y-117872717D01*
X122543998Y-117872717D01*
X122595723Y-117851292D01*
X122931292Y-117515723D01*
X123112900Y-117077283D01*
X123112900Y-116602717D01*
X122931292Y-116164277D01*
X122595723Y-115828708D01*
X122325374Y-115716726D01*
X122648111Y-115583045D01*
X122733599Y-115347086D01*
X122719230Y-115332717D01*
X123527100Y-115332717D01*
X123527100Y-115807283D01*
X123708708Y-116245723D01*
X124044277Y-116581292D01*
X124482717Y-116762900D01*
X124957283Y-116762900D01*
X125395723Y-116581292D01*
X125731292Y-116245723D01*
X125778946Y-116130674D01*
X126624600Y-116130674D01*
X126624600Y-116406326D01*
X126730088Y-116660996D01*
X126925004Y-116855912D01*
X127179674Y-116961400D01*
X127455326Y-116961400D01*
X127696638Y-116861445D01*
X127716996Y-116963793D01*
X127792783Y-117077217D01*
X127906207Y-117153004D01*
X128040000Y-117179617D01*
X129040000Y-117179617D01*
X129173793Y-117153004D01*
X129287217Y-117077217D01*
X129363004Y-116963793D01*
X129389617Y-116830000D01*
X129389617Y-116519325D01*
X129443100Y-116519325D01*
X129443100Y-116948731D01*
X129533972Y-117168117D01*
X129701883Y-117336027D01*
X129921269Y-117426900D01*
X130225675Y-117426900D01*
X130374900Y-117277675D01*
X130374900Y-116370100D01*
X130705100Y-116370100D01*
X130705100Y-117277675D01*
X130854325Y-117426900D01*
X131158731Y-117426900D01*
X131378117Y-117336027D01*
X131546028Y-117168117D01*
X131636900Y-116948731D01*
X131636900Y-116519325D01*
X131487675Y-116370100D01*
X130705100Y-116370100D01*
X130374900Y-116370100D01*
X129592325Y-116370100D01*
X129443100Y-116519325D01*
X129389617Y-116519325D01*
X129389617Y-115580000D01*
X129366001Y-115461269D01*
X129443100Y-115461269D01*
X129443100Y-115890675D01*
X129592325Y-116039900D01*
X130374900Y-116039900D01*
X130374900Y-115132325D01*
X130705100Y-115132325D01*
X130705100Y-116039900D01*
X131487675Y-116039900D01*
X131636900Y-115890675D01*
X131636900Y-115461269D01*
X131546028Y-115241883D01*
X131378117Y-115073973D01*
X131158731Y-114983100D01*
X130854325Y-114983100D01*
X130705100Y-115132325D01*
X130374900Y-115132325D01*
X130225675Y-114983100D01*
X129921269Y-114983100D01*
X129701883Y-115073973D01*
X129533972Y-115241883D01*
X129443100Y-115461269D01*
X129366001Y-115461269D01*
X129363004Y-115446207D01*
X129287217Y-115332783D01*
X129173793Y-115256996D01*
X129040000Y-115230383D01*
X128862900Y-115230383D01*
X128862900Y-114903617D01*
X129286000Y-114903617D01*
X129419793Y-114877004D01*
X129533217Y-114801217D01*
X129609004Y-114687793D01*
X129631196Y-114576225D01*
X136817100Y-114576225D01*
X136817100Y-114672731D01*
X136907973Y-114892117D01*
X137075883Y-115060028D01*
X137295269Y-115150900D01*
X138115675Y-115150900D01*
X138264900Y-115001675D01*
X138264900Y-114427000D01*
X138595100Y-114427000D01*
X138595100Y-115001675D01*
X138744325Y-115150900D01*
X139564731Y-115150900D01*
X139784117Y-115060028D01*
X139952027Y-114892117D01*
X140042900Y-114672731D01*
X140042900Y-114576225D01*
X139893675Y-114427000D01*
X138595100Y-114427000D01*
X138264900Y-114427000D01*
X136966325Y-114427000D01*
X136817100Y-114576225D01*
X129631196Y-114576225D01*
X129635617Y-114554000D01*
X129635617Y-114046000D01*
X129609004Y-113912207D01*
X129533217Y-113798783D01*
X129419793Y-113722996D01*
X129286000Y-113696383D01*
X128274515Y-113696383D01*
X128270000Y-113695485D01*
X128265485Y-113696383D01*
X127254000Y-113696383D01*
X127120207Y-113722996D01*
X127006783Y-113798783D01*
X126930996Y-113912207D01*
X126904383Y-114046000D01*
X126904383Y-114554000D01*
X126930996Y-114687793D01*
X127006783Y-114801217D01*
X127120207Y-114877004D01*
X127254000Y-114903617D01*
X127677100Y-114903617D01*
X127677101Y-115612100D01*
X127543445Y-115612100D01*
X127455326Y-115575600D01*
X127179674Y-115575600D01*
X126925004Y-115681088D01*
X126730088Y-115876004D01*
X126624600Y-116130674D01*
X125778946Y-116130674D01*
X125912900Y-115807283D01*
X125912900Y-115332717D01*
X125731292Y-114894277D01*
X125395723Y-114558708D01*
X124957283Y-114377100D01*
X124482717Y-114377100D01*
X124044277Y-114558708D01*
X123708708Y-114894277D01*
X123527100Y-115332717D01*
X122719230Y-115332717D01*
X121920000Y-114533487D01*
X121106401Y-115347086D01*
X121191889Y-115583045D01*
X121550572Y-115701837D01*
X121244277Y-115828708D01*
X120908708Y-116164277D01*
X120727100Y-116602717D01*
X119797900Y-116602717D01*
X119797900Y-114118312D01*
X120455986Y-114118312D01*
X120497899Y-114692397D01*
X120636955Y-115028111D01*
X120872914Y-115113599D01*
X121686513Y-114300000D01*
X122153487Y-114300000D01*
X122967086Y-115113599D01*
X123203045Y-115028111D01*
X123384014Y-114481688D01*
X123342101Y-113907603D01*
X123203045Y-113571889D01*
X122967086Y-113486401D01*
X122153487Y-114300000D01*
X121686513Y-114300000D01*
X120872914Y-113486401D01*
X120636955Y-113571889D01*
X120455986Y-114118312D01*
X119797900Y-114118312D01*
X119797900Y-106442717D01*
X120727100Y-106442717D01*
X120727100Y-106917283D01*
X120908708Y-107355723D01*
X121244277Y-107691292D01*
X121682717Y-107872900D01*
X122157283Y-107872900D01*
X122595723Y-107691292D01*
X122931292Y-107355723D01*
X123112900Y-106917283D01*
X123112900Y-106442717D01*
X122931292Y-106004277D01*
X122595723Y-105668708D01*
X122157283Y-105487100D01*
X121682717Y-105487100D01*
X121244277Y-105668708D01*
X120908708Y-106004277D01*
X120727100Y-106442717D01*
X119797900Y-106442717D01*
X119797900Y-103902717D01*
X120727100Y-103902717D01*
X120727100Y-104377283D01*
X120908708Y-104815723D01*
X121244277Y-105151292D01*
X121682717Y-105332900D01*
X122157283Y-105332900D01*
X122595723Y-105151292D01*
X122931292Y-104815723D01*
X123027731Y-104582900D01*
X123860085Y-104582900D01*
X123708708Y-104734277D01*
X123527100Y-105172717D01*
X123527100Y-105647283D01*
X123708708Y-106085723D01*
X124044277Y-106421292D01*
X124482717Y-106602900D01*
X124957283Y-106602900D01*
X125384356Y-106426000D01*
X126904383Y-106426000D01*
X126904383Y-106934000D01*
X126930996Y-107067793D01*
X127006783Y-107181217D01*
X127120207Y-107257004D01*
X127254000Y-107283617D01*
X129286000Y-107283617D01*
X129419793Y-107257004D01*
X129533217Y-107181217D01*
X129609004Y-107067793D01*
X129635617Y-106934000D01*
X129635617Y-106426000D01*
X129609004Y-106292207D01*
X129533217Y-106178783D01*
X129419793Y-106102996D01*
X129286000Y-106076383D01*
X127254000Y-106076383D01*
X127120207Y-106102996D01*
X127006783Y-106178783D01*
X126930996Y-106292207D01*
X126904383Y-106426000D01*
X125384356Y-106426000D01*
X125395723Y-106421292D01*
X125731292Y-106085723D01*
X125827731Y-105852900D01*
X126967817Y-105852900D01*
X127006783Y-105911217D01*
X127120207Y-105987004D01*
X127254000Y-106013617D01*
X129286000Y-106013617D01*
X129419793Y-105987004D01*
X129533217Y-105911217D01*
X129572183Y-105852900D01*
X133687387Y-105852900D01*
X133731000Y-105861575D01*
X133774613Y-105852900D01*
X133774618Y-105852900D01*
X133903811Y-105827202D01*
X133968370Y-105784064D01*
X133971486Y-105781983D01*
X134032588Y-105929496D01*
X134227504Y-106124412D01*
X134482174Y-106229900D01*
X134757826Y-106229900D01*
X135012496Y-106124412D01*
X135207412Y-105929496D01*
X135239139Y-105852900D01*
X137127817Y-105852900D01*
X137166783Y-105911217D01*
X137280207Y-105987004D01*
X137414000Y-106013617D01*
X139446000Y-106013617D01*
X139579793Y-105987004D01*
X139693217Y-105911217D01*
X139769004Y-105797793D01*
X139795617Y-105664000D01*
X139795617Y-105496972D01*
X139990980Y-105692335D01*
X140015688Y-105729312D01*
X140052664Y-105754019D01*
X140052665Y-105754020D01*
X140118176Y-105797793D01*
X140162189Y-105827202D01*
X140291382Y-105852900D01*
X140291386Y-105852900D01*
X140335000Y-105861575D01*
X140378613Y-105852900D01*
X141297745Y-105852900D01*
X140913545Y-106237100D01*
X139732183Y-106237100D01*
X139693217Y-106178783D01*
X139579793Y-106102996D01*
X139446000Y-106076383D01*
X137414000Y-106076383D01*
X137280207Y-106102996D01*
X137166783Y-106178783D01*
X137127817Y-106237100D01*
X136554008Y-106237100D01*
X136409496Y-106092588D01*
X136154826Y-105987100D01*
X135879174Y-105987100D01*
X135624504Y-106092588D01*
X135429588Y-106287504D01*
X135324100Y-106542174D01*
X135324100Y-106817826D01*
X135429588Y-107072496D01*
X135624504Y-107267412D01*
X135879174Y-107372900D01*
X136154826Y-107372900D01*
X136409496Y-107267412D01*
X136554008Y-107122900D01*
X137127817Y-107122900D01*
X137166783Y-107181217D01*
X137280207Y-107257004D01*
X137414000Y-107283617D01*
X139446000Y-107283617D01*
X139579793Y-107257004D01*
X139693217Y-107181217D01*
X139732183Y-107122900D01*
X141053387Y-107122900D01*
X141097000Y-107131575D01*
X141140613Y-107122900D01*
X141140618Y-107122900D01*
X141269811Y-107097202D01*
X141363680Y-107034480D01*
X141379335Y-107024020D01*
X141379336Y-107024019D01*
X141416312Y-106999312D01*
X141441019Y-106962336D01*
X141509383Y-106893972D01*
X141509383Y-106934000D01*
X141514085Y-106957639D01*
X141495689Y-106961298D01*
X141386164Y-107034480D01*
X141386161Y-107034483D01*
X141349188Y-107059188D01*
X141324483Y-107096161D01*
X140913545Y-107507100D01*
X139732183Y-107507100D01*
X139693217Y-107448783D01*
X139579793Y-107372996D01*
X139446000Y-107346383D01*
X137414000Y-107346383D01*
X137280207Y-107372996D01*
X137166783Y-107448783D01*
X137090996Y-107562207D01*
X137064383Y-107696000D01*
X137064383Y-108204000D01*
X137090996Y-108337793D01*
X137166783Y-108451217D01*
X137280207Y-108527004D01*
X137414000Y-108553617D01*
X139446000Y-108553617D01*
X139579793Y-108527004D01*
X139693217Y-108451217D01*
X139732183Y-108392900D01*
X141053387Y-108392900D01*
X141097000Y-108401575D01*
X141140613Y-108392900D01*
X141140618Y-108392900D01*
X141269811Y-108367202D01*
X141363680Y-108304480D01*
X141379335Y-108294020D01*
X141379336Y-108294019D01*
X141416312Y-108269312D01*
X141441020Y-108232335D01*
X141509383Y-108163972D01*
X141509383Y-108204000D01*
X141514085Y-108227639D01*
X141495689Y-108231298D01*
X141386164Y-108304480D01*
X141386161Y-108304483D01*
X141349188Y-108329188D01*
X141324483Y-108366161D01*
X140913545Y-108777100D01*
X139732183Y-108777100D01*
X139693217Y-108718783D01*
X139579793Y-108642996D01*
X139446000Y-108616383D01*
X137414000Y-108616383D01*
X137280207Y-108642996D01*
X137166783Y-108718783D01*
X137090996Y-108832207D01*
X137064383Y-108966000D01*
X137064383Y-109412100D01*
X131183955Y-109412100D01*
X130709519Y-108937664D01*
X130684812Y-108900688D01*
X130647836Y-108875981D01*
X130647835Y-108875980D01*
X130582324Y-108832207D01*
X130538311Y-108802798D01*
X130409118Y-108777100D01*
X130409113Y-108777100D01*
X130365500Y-108768425D01*
X130321887Y-108777100D01*
X129572183Y-108777100D01*
X129533217Y-108718783D01*
X129419793Y-108642996D01*
X129286000Y-108616383D01*
X127403739Y-108616383D01*
X127340973Y-108553617D01*
X129286000Y-108553617D01*
X129419793Y-108527004D01*
X129533217Y-108451217D01*
X129609004Y-108337793D01*
X129635617Y-108204000D01*
X129635617Y-107696000D01*
X129609004Y-107562207D01*
X129533217Y-107448783D01*
X129419793Y-107372996D01*
X129286000Y-107346383D01*
X127254000Y-107346383D01*
X127120207Y-107372996D01*
X127006783Y-107448783D01*
X126930996Y-107562207D01*
X126904383Y-107696000D01*
X126904383Y-108117028D01*
X126455019Y-107667663D01*
X126430312Y-107630688D01*
X126393336Y-107605981D01*
X126393335Y-107605980D01*
X126327824Y-107562207D01*
X126283811Y-107532798D01*
X126154618Y-107507100D01*
X126154613Y-107507100D01*
X126111000Y-107498425D01*
X126067387Y-107507100D01*
X125827731Y-107507100D01*
X125731292Y-107274277D01*
X125395723Y-106938708D01*
X124957283Y-106757100D01*
X124482717Y-106757100D01*
X124044277Y-106938708D01*
X123708708Y-107274277D01*
X123527100Y-107712717D01*
X123527100Y-108187283D01*
X123708708Y-108625723D01*
X123860085Y-108777100D01*
X123027731Y-108777100D01*
X122931292Y-108544277D01*
X122595723Y-108208708D01*
X122157283Y-108027100D01*
X121682717Y-108027100D01*
X121244277Y-108208708D01*
X120908708Y-108544277D01*
X120727100Y-108982717D01*
X120727100Y-109457283D01*
X120908708Y-109895723D01*
X121244277Y-110231292D01*
X121682717Y-110412900D01*
X122157283Y-110412900D01*
X122595723Y-110231292D01*
X122931292Y-109895723D01*
X123027731Y-109662900D01*
X123860085Y-109662900D01*
X123708708Y-109814277D01*
X123527100Y-110252717D01*
X123527100Y-110727283D01*
X123708708Y-111165723D01*
X123860085Y-111317100D01*
X123027731Y-111317100D01*
X122931292Y-111084277D01*
X122595723Y-110748708D01*
X122157283Y-110567100D01*
X121682717Y-110567100D01*
X121244277Y-110748708D01*
X120908708Y-111084277D01*
X120727100Y-111522717D01*
X120727100Y-111997283D01*
X120908708Y-112435723D01*
X121244277Y-112771292D01*
X121514626Y-112883274D01*
X121191889Y-113016955D01*
X121106401Y-113252914D01*
X121920000Y-114066513D01*
X122733599Y-113252914D01*
X122648111Y-113016955D01*
X122289428Y-112898163D01*
X122595723Y-112771292D01*
X122931292Y-112435723D01*
X123027731Y-112202900D01*
X123860085Y-112202900D01*
X123708708Y-112354277D01*
X123527100Y-112792717D01*
X123527100Y-113267283D01*
X123708708Y-113705723D01*
X124044277Y-114041292D01*
X124482717Y-114222900D01*
X124957283Y-114222900D01*
X125395723Y-114041292D01*
X125731292Y-113705723D01*
X125912900Y-113267283D01*
X125912900Y-112792717D01*
X125731292Y-112354277D01*
X125579915Y-112202900D01*
X125864045Y-112202900D01*
X126904383Y-113243239D01*
X126904383Y-113284000D01*
X126930996Y-113417793D01*
X127006783Y-113531217D01*
X127120207Y-113607004D01*
X127254000Y-113633617D01*
X129286000Y-113633617D01*
X129419793Y-113607004D01*
X129533217Y-113531217D01*
X129572183Y-113472900D01*
X129991545Y-113472900D01*
X130465981Y-113947336D01*
X130490688Y-113984312D01*
X130527664Y-114009019D01*
X130527665Y-114009020D01*
X130613709Y-114066513D01*
X130637189Y-114082202D01*
X130766382Y-114107900D01*
X130766386Y-114107900D01*
X130810000Y-114116575D01*
X130853613Y-114107900D01*
X136901225Y-114107900D01*
X136966325Y-114173000D01*
X138264900Y-114173000D01*
X138264900Y-114114900D01*
X138595100Y-114114900D01*
X138595100Y-114173000D01*
X139893675Y-114173000D01*
X139958775Y-114107900D01*
X141434387Y-114107900D01*
X141478000Y-114116575D01*
X141509383Y-114110333D01*
X141509383Y-114554000D01*
X141535996Y-114687793D01*
X141611783Y-114801217D01*
X141725207Y-114877004D01*
X141859000Y-114903617D01*
X142282100Y-114903617D01*
X142282101Y-115577660D01*
X142123826Y-115512100D01*
X141848174Y-115512100D01*
X141593504Y-115617588D01*
X141398588Y-115812504D01*
X141293100Y-116067174D01*
X141293100Y-116342826D01*
X141398588Y-116597496D01*
X141593504Y-116792412D01*
X141848174Y-116897900D01*
X142123826Y-116897900D01*
X142295383Y-116826839D01*
X142295383Y-116830000D01*
X142321996Y-116963793D01*
X142397783Y-117077217D01*
X142511207Y-117153004D01*
X142645000Y-117179617D01*
X143645000Y-117179617D01*
X143778793Y-117153004D01*
X143892217Y-117077217D01*
X143968004Y-116963793D01*
X143994617Y-116830000D01*
X143994617Y-116519325D01*
X144048100Y-116519325D01*
X144048100Y-116948731D01*
X144138972Y-117168117D01*
X144306883Y-117336027D01*
X144526269Y-117426900D01*
X144830675Y-117426900D01*
X144979900Y-117277675D01*
X144979900Y-116370100D01*
X145310100Y-116370100D01*
X145310100Y-117277675D01*
X145459325Y-117426900D01*
X145763731Y-117426900D01*
X145983117Y-117336027D01*
X146151028Y-117168117D01*
X146241900Y-116948731D01*
X146241900Y-116519325D01*
X146092675Y-116370100D01*
X145310100Y-116370100D01*
X144979900Y-116370100D01*
X144197325Y-116370100D01*
X144048100Y-116519325D01*
X143994617Y-116519325D01*
X143994617Y-115580000D01*
X143971001Y-115461269D01*
X144048100Y-115461269D01*
X144048100Y-115890675D01*
X144197325Y-116039900D01*
X144979900Y-116039900D01*
X144979900Y-115132325D01*
X145310100Y-115132325D01*
X145310100Y-116039900D01*
X146092675Y-116039900D01*
X146241900Y-115890675D01*
X146241900Y-115461269D01*
X146151028Y-115241883D01*
X145983117Y-115073973D01*
X145763731Y-114983100D01*
X145459325Y-114983100D01*
X145310100Y-115132325D01*
X144979900Y-115132325D01*
X144830675Y-114983100D01*
X144526269Y-114983100D01*
X144306883Y-115073973D01*
X144138972Y-115241883D01*
X144048100Y-115461269D01*
X143971001Y-115461269D01*
X143968004Y-115446207D01*
X143892217Y-115332783D01*
X143778793Y-115256996D01*
X143645000Y-115230383D01*
X143467900Y-115230383D01*
X143467900Y-114903617D01*
X143891000Y-114903617D01*
X144024793Y-114877004D01*
X144138217Y-114801217D01*
X144214004Y-114687793D01*
X144236196Y-114576225D01*
X151422100Y-114576225D01*
X151422100Y-114672731D01*
X151512973Y-114892117D01*
X151680883Y-115060028D01*
X151900269Y-115150900D01*
X152720675Y-115150900D01*
X152869900Y-115001675D01*
X152869900Y-114427000D01*
X151571325Y-114427000D01*
X151422100Y-114576225D01*
X144236196Y-114576225D01*
X144240617Y-114554000D01*
X144240617Y-114046000D01*
X144214004Y-113912207D01*
X144138217Y-113798783D01*
X144024793Y-113722996D01*
X143891000Y-113696383D01*
X142879515Y-113696383D01*
X142875000Y-113695485D01*
X142870485Y-113696383D01*
X142072972Y-113696383D01*
X142135738Y-113633617D01*
X143891000Y-113633617D01*
X144024793Y-113607004D01*
X144138217Y-113531217D01*
X144214004Y-113417793D01*
X144240617Y-113284000D01*
X144240617Y-113186973D01*
X144365983Y-113312339D01*
X144390688Y-113349312D01*
X144427661Y-113374017D01*
X144427664Y-113374020D01*
X144500214Y-113422496D01*
X144537189Y-113447202D01*
X144666382Y-113472900D01*
X144666386Y-113472900D01*
X144709999Y-113481575D01*
X144753613Y-113472900D01*
X149322992Y-113472900D01*
X149467504Y-113617412D01*
X149722174Y-113722900D01*
X149997826Y-113722900D01*
X150252496Y-113617412D01*
X150397008Y-113472900D01*
X151732817Y-113472900D01*
X151756660Y-113508584D01*
X151680883Y-113539972D01*
X151512973Y-113707883D01*
X151422100Y-113927269D01*
X151422100Y-114023775D01*
X151571325Y-114173000D01*
X152869900Y-114173000D01*
X152869900Y-114114900D01*
X153200100Y-114114900D01*
X153200100Y-114173000D01*
X153220100Y-114173000D01*
X153220100Y-114427000D01*
X153200100Y-114427000D01*
X153200100Y-115001675D01*
X153349325Y-115150900D01*
X154116101Y-115150900D01*
X154116101Y-122641381D01*
X154107425Y-122685000D01*
X154141798Y-122857810D01*
X154214980Y-122967335D01*
X154214984Y-122967339D01*
X154239689Y-123004312D01*
X154276661Y-123029017D01*
X155237539Y-123989894D01*
X155141100Y-124222717D01*
X155141100Y-124697283D01*
X155322708Y-125135723D01*
X155658277Y-125471292D01*
X156096717Y-125652900D01*
X156571283Y-125652900D01*
X156957998Y-125492717D01*
X157941100Y-125492717D01*
X157941100Y-125967283D01*
X158122708Y-126405723D01*
X158458277Y-126741292D01*
X158896717Y-126922900D01*
X159371283Y-126922900D01*
X159809723Y-126741292D01*
X160145292Y-126405723D01*
X160326900Y-125967283D01*
X160326900Y-125492717D01*
X160145292Y-125054277D01*
X159809723Y-124718708D01*
X159371283Y-124537100D01*
X158896717Y-124537100D01*
X158458277Y-124718708D01*
X158122708Y-125054277D01*
X157941100Y-125492717D01*
X156957998Y-125492717D01*
X157009723Y-125471292D01*
X157345292Y-125135723D01*
X157526900Y-124697283D01*
X157526900Y-124222717D01*
X157345292Y-123784277D01*
X157193915Y-123632900D01*
X158026269Y-123632900D01*
X158122708Y-123865723D01*
X158458277Y-124201292D01*
X158896717Y-124382900D01*
X159371283Y-124382900D01*
X159809723Y-124201292D01*
X160145292Y-123865723D01*
X160326900Y-123427283D01*
X160326900Y-122952717D01*
X160145292Y-122514277D01*
X159809723Y-122178708D01*
X159371283Y-121997100D01*
X158896717Y-121997100D01*
X158458277Y-122178708D01*
X158122708Y-122514277D01*
X158026269Y-122747100D01*
X157193915Y-122747100D01*
X157345292Y-122595723D01*
X157526900Y-122157283D01*
X157526900Y-121682717D01*
X157345292Y-121244277D01*
X157009723Y-120908708D01*
X156571283Y-120727100D01*
X156096717Y-120727100D01*
X155658277Y-120908708D01*
X155509900Y-121057085D01*
X155509900Y-120242915D01*
X155658277Y-120391292D01*
X156096717Y-120572900D01*
X156571283Y-120572900D01*
X156957998Y-120412717D01*
X157941100Y-120412717D01*
X157941100Y-120887283D01*
X158122708Y-121325723D01*
X158458277Y-121661292D01*
X158896717Y-121842900D01*
X159371283Y-121842900D01*
X159809723Y-121661292D01*
X160145292Y-121325723D01*
X160326900Y-120887283D01*
X160326900Y-120412717D01*
X160145292Y-119974277D01*
X159809723Y-119638708D01*
X159371283Y-119457100D01*
X158896717Y-119457100D01*
X158458277Y-119638708D01*
X158122708Y-119974277D01*
X157941100Y-120412717D01*
X156957998Y-120412717D01*
X157009723Y-120391292D01*
X157345292Y-120055723D01*
X157526900Y-119617283D01*
X157526900Y-119142717D01*
X157345292Y-118704277D01*
X157009723Y-118368708D01*
X156571283Y-118187100D01*
X156096717Y-118187100D01*
X155658277Y-118368708D01*
X155509900Y-118517085D01*
X155509900Y-117702915D01*
X155658277Y-117851292D01*
X156096717Y-118032900D01*
X156571283Y-118032900D01*
X156957998Y-117872717D01*
X157941100Y-117872717D01*
X157941100Y-118347283D01*
X158122708Y-118785723D01*
X158458277Y-119121292D01*
X158896717Y-119302900D01*
X159371283Y-119302900D01*
X159809723Y-119121292D01*
X160145292Y-118785723D01*
X160326900Y-118347283D01*
X160326900Y-117872717D01*
X160145292Y-117434277D01*
X159809723Y-117098708D01*
X159371283Y-116917100D01*
X158896717Y-116917100D01*
X158458277Y-117098708D01*
X158122708Y-117434277D01*
X157941100Y-117872717D01*
X156957998Y-117872717D01*
X157009723Y-117851292D01*
X157345292Y-117515723D01*
X157526900Y-117077283D01*
X157526900Y-116602717D01*
X157345292Y-116164277D01*
X157009723Y-115828708D01*
X156739374Y-115716726D01*
X157062111Y-115583045D01*
X157147599Y-115347086D01*
X157133230Y-115332717D01*
X157941100Y-115332717D01*
X157941100Y-115807283D01*
X158122708Y-116245723D01*
X158458277Y-116581292D01*
X158896717Y-116762900D01*
X159371283Y-116762900D01*
X159809723Y-116581292D01*
X160145292Y-116245723D01*
X160326900Y-115807283D01*
X160326900Y-115332717D01*
X160145292Y-114894277D01*
X159809723Y-114558708D01*
X159371283Y-114377100D01*
X158896717Y-114377100D01*
X158458277Y-114558708D01*
X158122708Y-114894277D01*
X157941100Y-115332717D01*
X157133230Y-115332717D01*
X156334000Y-114533487D01*
X156319858Y-114547629D01*
X156086371Y-114314142D01*
X156100513Y-114300000D01*
X156567487Y-114300000D01*
X157381086Y-115113599D01*
X157617045Y-115028111D01*
X157798014Y-114481688D01*
X157756101Y-113907603D01*
X157617045Y-113571889D01*
X157381086Y-113486401D01*
X156567487Y-114300000D01*
X156100513Y-114300000D01*
X156086371Y-114285858D01*
X156319858Y-114052371D01*
X156334000Y-114066513D01*
X157147599Y-113252914D01*
X157062111Y-113016955D01*
X156703428Y-112898163D01*
X156957998Y-112792717D01*
X157941100Y-112792717D01*
X157941100Y-113267283D01*
X158122708Y-113705723D01*
X158458277Y-114041292D01*
X158896717Y-114222900D01*
X159371283Y-114222900D01*
X159809723Y-114041292D01*
X160145292Y-113705723D01*
X160326900Y-113267283D01*
X160326900Y-112792717D01*
X160145292Y-112354277D01*
X159809723Y-112018708D01*
X159371283Y-111837100D01*
X158896717Y-111837100D01*
X158458277Y-112018708D01*
X158122708Y-112354277D01*
X157941100Y-112792717D01*
X156957998Y-112792717D01*
X157009723Y-112771292D01*
X157345292Y-112435723D01*
X157526900Y-111997283D01*
X157526900Y-111522717D01*
X157345292Y-111084277D01*
X157009723Y-110748708D01*
X156571283Y-110567100D01*
X156096717Y-110567100D01*
X155658277Y-110748708D01*
X155509900Y-110897085D01*
X155509900Y-110082915D01*
X155658277Y-110231292D01*
X156096717Y-110412900D01*
X156571283Y-110412900D01*
X156957998Y-110252717D01*
X157941100Y-110252717D01*
X157941100Y-110727283D01*
X158122708Y-111165723D01*
X158458277Y-111501292D01*
X158896717Y-111682900D01*
X159371283Y-111682900D01*
X159809723Y-111501292D01*
X160145292Y-111165723D01*
X160326900Y-110727283D01*
X160326900Y-110252717D01*
X160145292Y-109814277D01*
X159809723Y-109478708D01*
X159371283Y-109297100D01*
X158896717Y-109297100D01*
X158458277Y-109478708D01*
X158122708Y-109814277D01*
X157941100Y-110252717D01*
X156957998Y-110252717D01*
X157009723Y-110231292D01*
X157345292Y-109895723D01*
X157526900Y-109457283D01*
X157526900Y-108982717D01*
X157345292Y-108544277D01*
X157009723Y-108208708D01*
X156571283Y-108027100D01*
X156096717Y-108027100D01*
X155658277Y-108208708D01*
X155509900Y-108357085D01*
X155509900Y-107542915D01*
X155658277Y-107691292D01*
X156096717Y-107872900D01*
X156571283Y-107872900D01*
X156957998Y-107712717D01*
X157941100Y-107712717D01*
X157941100Y-108187283D01*
X158122708Y-108625723D01*
X158458277Y-108961292D01*
X158896717Y-109142900D01*
X159371283Y-109142900D01*
X159809723Y-108961292D01*
X160145292Y-108625723D01*
X160326900Y-108187283D01*
X160326900Y-107712717D01*
X160145292Y-107274277D01*
X159809723Y-106938708D01*
X159371283Y-106757100D01*
X158896717Y-106757100D01*
X158458277Y-106938708D01*
X158122708Y-107274277D01*
X157941100Y-107712717D01*
X156957998Y-107712717D01*
X157009723Y-107691292D01*
X157345292Y-107355723D01*
X157526900Y-106917283D01*
X157526900Y-106442717D01*
X157345292Y-106004277D01*
X157009723Y-105668708D01*
X156571283Y-105487100D01*
X156096717Y-105487100D01*
X155658277Y-105668708D01*
X155509900Y-105817085D01*
X155509900Y-105002915D01*
X155658277Y-105151292D01*
X156096717Y-105332900D01*
X156571283Y-105332900D01*
X156957998Y-105172717D01*
X157941100Y-105172717D01*
X157941100Y-105647283D01*
X158122708Y-106085723D01*
X158458277Y-106421292D01*
X158896717Y-106602900D01*
X159371283Y-106602900D01*
X159809723Y-106421292D01*
X160145292Y-106085723D01*
X160326900Y-105647283D01*
X160326900Y-105172717D01*
X160145292Y-104734277D01*
X159809723Y-104398708D01*
X159371283Y-104217100D01*
X158896717Y-104217100D01*
X158458277Y-104398708D01*
X158122708Y-104734277D01*
X157941100Y-105172717D01*
X156957998Y-105172717D01*
X157009723Y-105151292D01*
X157345292Y-104815723D01*
X157526900Y-104377283D01*
X157526900Y-103902717D01*
X157345292Y-103464277D01*
X157009723Y-103128708D01*
X156571283Y-102947100D01*
X156096717Y-102947100D01*
X155658277Y-103128708D01*
X155509900Y-103277085D01*
X155509900Y-103167613D01*
X155518575Y-103123999D01*
X155509900Y-103080383D01*
X155509900Y-103080382D01*
X155484202Y-102951189D01*
X155386312Y-102804688D01*
X155349337Y-102779982D01*
X155157019Y-102587664D01*
X155132312Y-102550688D01*
X155095336Y-102525981D01*
X155095335Y-102525980D01*
X155029824Y-102482207D01*
X154985811Y-102452798D01*
X154856618Y-102427100D01*
X154856613Y-102427100D01*
X154813000Y-102418425D01*
X154769387Y-102427100D01*
X154337183Y-102427100D01*
X154298217Y-102368783D01*
X154184793Y-102292996D01*
X154051000Y-102266383D01*
X152019000Y-102266383D01*
X151885207Y-102292996D01*
X151771783Y-102368783D01*
X151695996Y-102482207D01*
X151669383Y-102616000D01*
X151669383Y-103124000D01*
X151695996Y-103257793D01*
X151771783Y-103371217D01*
X151885207Y-103447004D01*
X152019000Y-103473617D01*
X154051000Y-103473617D01*
X154184793Y-103447004D01*
X154298217Y-103371217D01*
X154337183Y-103312900D01*
X154624100Y-103312900D01*
X154624100Y-103820546D01*
X154587336Y-103795981D01*
X154587335Y-103795980D01*
X154521824Y-103752207D01*
X154477811Y-103722798D01*
X154348618Y-103697100D01*
X154348613Y-103697100D01*
X154335431Y-103694478D01*
X154298217Y-103638783D01*
X154184793Y-103562996D01*
X154051000Y-103536383D01*
X152019000Y-103536383D01*
X151885207Y-103562996D01*
X151771783Y-103638783D01*
X151695996Y-103752207D01*
X151669383Y-103886000D01*
X151669383Y-104394000D01*
X151695996Y-104527793D01*
X151771783Y-104641217D01*
X151885207Y-104717004D01*
X152019000Y-104743617D01*
X154051000Y-104743617D01*
X154116100Y-104730668D01*
X154116100Y-104819332D01*
X154051000Y-104806383D01*
X152019000Y-104806383D01*
X151885207Y-104832996D01*
X151771783Y-104908783D01*
X151732817Y-104967100D01*
X146206008Y-104967100D01*
X146188496Y-104949588D01*
X145933826Y-104844100D01*
X145658174Y-104844100D01*
X145403504Y-104949588D01*
X145208588Y-105144504D01*
X145103100Y-105399174D01*
X145103100Y-105674826D01*
X145208588Y-105929496D01*
X145403504Y-106124412D01*
X145658174Y-106229900D01*
X145933826Y-106229900D01*
X146188496Y-106124412D01*
X146383412Y-105929496D01*
X146415139Y-105852900D01*
X151732817Y-105852900D01*
X151771783Y-105911217D01*
X151885207Y-105987004D01*
X152019000Y-106013617D01*
X154051000Y-106013617D01*
X154116100Y-106000668D01*
X154116100Y-106089332D01*
X154051000Y-106076383D01*
X152019000Y-106076383D01*
X151885207Y-106102996D01*
X151771783Y-106178783D01*
X151732817Y-106237100D01*
X144836455Y-106237100D01*
X144362019Y-105762664D01*
X144337312Y-105725688D01*
X144300336Y-105700981D01*
X144300335Y-105700980D01*
X144244990Y-105664000D01*
X144240617Y-105661078D01*
X144240617Y-105156000D01*
X144214004Y-105022207D01*
X144138217Y-104908783D01*
X144024793Y-104832996D01*
X143891000Y-104806383D01*
X141859000Y-104806383D01*
X141725207Y-104832996D01*
X141611783Y-104908783D01*
X141572817Y-104967100D01*
X140518455Y-104967100D01*
X140044019Y-104492664D01*
X140019312Y-104455688D01*
X139982336Y-104430981D01*
X139982335Y-104430980D01*
X139926989Y-104393999D01*
X139872811Y-104357798D01*
X139795617Y-104342443D01*
X139795617Y-104099972D01*
X140117980Y-104422335D01*
X140142688Y-104459312D01*
X140179664Y-104484019D01*
X140179665Y-104484020D01*
X140245176Y-104527793D01*
X140289189Y-104557202D01*
X140418382Y-104582900D01*
X140418386Y-104582900D01*
X140462000Y-104591575D01*
X140505613Y-104582900D01*
X141572817Y-104582900D01*
X141611783Y-104641217D01*
X141725207Y-104717004D01*
X141859000Y-104743617D01*
X143891000Y-104743617D01*
X144024793Y-104717004D01*
X144138217Y-104641217D01*
X144214004Y-104527793D01*
X144240617Y-104394000D01*
X144240617Y-103886000D01*
X144214004Y-103752207D01*
X144138217Y-103638783D01*
X144024793Y-103562996D01*
X143891000Y-103536383D01*
X141859000Y-103536383D01*
X141725207Y-103562996D01*
X141611783Y-103638783D01*
X141572817Y-103697100D01*
X140645455Y-103697100D01*
X140171019Y-103222664D01*
X140146312Y-103185688D01*
X140109336Y-103160981D01*
X140109335Y-103160980D01*
X140053989Y-103123999D01*
X139999811Y-103087798D01*
X139870618Y-103062100D01*
X139870613Y-103062100D01*
X139827000Y-103053425D01*
X139795617Y-103059667D01*
X139795617Y-102616000D01*
X141509383Y-102616000D01*
X141509383Y-103124000D01*
X141535996Y-103257793D01*
X141611783Y-103371217D01*
X141725207Y-103447004D01*
X141859000Y-103473617D01*
X143891000Y-103473617D01*
X144024793Y-103447004D01*
X144138217Y-103371217D01*
X144214004Y-103257793D01*
X144240617Y-103124000D01*
X144240617Y-102616000D01*
X144214004Y-102482207D01*
X144138217Y-102368783D01*
X144024793Y-102292996D01*
X143891000Y-102266383D01*
X141859000Y-102266383D01*
X141725207Y-102292996D01*
X141611783Y-102368783D01*
X141535996Y-102482207D01*
X141509383Y-102616000D01*
X139795617Y-102616000D01*
X139769004Y-102482207D01*
X139693217Y-102368783D01*
X139579793Y-102292996D01*
X139446000Y-102266383D01*
X137414000Y-102266383D01*
X137280207Y-102292996D01*
X137166783Y-102368783D01*
X137127817Y-102427100D01*
X135417419Y-102427100D01*
X135439900Y-102372826D01*
X135439900Y-102097174D01*
X135334412Y-101842504D01*
X135139496Y-101647588D01*
X134884826Y-101542100D01*
X134609174Y-101542100D01*
X134354504Y-101647588D01*
X134209992Y-101792100D01*
X129635617Y-101792100D01*
X129635617Y-101346000D01*
X137064383Y-101346000D01*
X137064383Y-101854000D01*
X137090996Y-101987793D01*
X137166783Y-102101217D01*
X137280207Y-102177004D01*
X137414000Y-102203617D01*
X139446000Y-102203617D01*
X139579793Y-102177004D01*
X139693217Y-102101217D01*
X139769004Y-101987793D01*
X139795617Y-101854000D01*
X139795617Y-101346000D01*
X141509383Y-101346000D01*
X141509383Y-101854000D01*
X141535996Y-101987793D01*
X141611783Y-102101217D01*
X141725207Y-102177004D01*
X141859000Y-102203617D01*
X143891000Y-102203617D01*
X144024793Y-102177004D01*
X144138217Y-102101217D01*
X144214004Y-101987793D01*
X144240617Y-101854000D01*
X144240617Y-101346000D01*
X151669383Y-101346000D01*
X151669383Y-101854000D01*
X151695996Y-101987793D01*
X151771783Y-102101217D01*
X151885207Y-102177004D01*
X152019000Y-102203617D01*
X154051000Y-102203617D01*
X154184793Y-102177004D01*
X154298217Y-102101217D01*
X154374004Y-101987793D01*
X154400617Y-101854000D01*
X154400617Y-101346000D01*
X154374004Y-101212207D01*
X154298217Y-101098783D01*
X154184793Y-101022996D01*
X154051000Y-100996383D01*
X152019000Y-100996383D01*
X151885207Y-101022996D01*
X151771783Y-101098783D01*
X151695996Y-101212207D01*
X151669383Y-101346000D01*
X144240617Y-101346000D01*
X144214004Y-101212207D01*
X144138217Y-101098783D01*
X144024793Y-101022996D01*
X143891000Y-100996383D01*
X141859000Y-100996383D01*
X141725207Y-101022996D01*
X141611783Y-101098783D01*
X141535996Y-101212207D01*
X141509383Y-101346000D01*
X139795617Y-101346000D01*
X139769004Y-101212207D01*
X139693217Y-101098783D01*
X139579793Y-101022996D01*
X139446000Y-100996383D01*
X137414000Y-100996383D01*
X137280207Y-101022996D01*
X137166783Y-101098783D01*
X137090996Y-101212207D01*
X137064383Y-101346000D01*
X129635617Y-101346000D01*
X129609004Y-101212207D01*
X129533217Y-101098783D01*
X129419793Y-101022996D01*
X129286000Y-100996383D01*
X127254000Y-100996383D01*
X127120207Y-101022996D01*
X127006783Y-101098783D01*
X126930996Y-101212207D01*
X126904383Y-101346000D01*
X126904383Y-101792100D01*
X126535613Y-101792100D01*
X126492000Y-101783425D01*
X126448386Y-101792100D01*
X126448382Y-101792100D01*
X126319189Y-101817798D01*
X126209665Y-101890980D01*
X126209664Y-101890981D01*
X126172688Y-101915688D01*
X126147981Y-101952664D01*
X125782571Y-102318074D01*
X125731292Y-102194277D01*
X125395723Y-101858708D01*
X124957283Y-101677100D01*
X124482717Y-101677100D01*
X124044277Y-101858708D01*
X123708708Y-102194277D01*
X123527100Y-102632717D01*
X123527100Y-103107283D01*
X123708708Y-103545723D01*
X123860085Y-103697100D01*
X123027731Y-103697100D01*
X122931292Y-103464277D01*
X122595723Y-103128708D01*
X122157283Y-102947100D01*
X121682717Y-102947100D01*
X121244277Y-103128708D01*
X120908708Y-103464277D01*
X120727100Y-103902717D01*
X119797900Y-103902717D01*
X119797900Y-101362717D01*
X120727100Y-101362717D01*
X120727100Y-101837283D01*
X120908708Y-102275723D01*
X121244277Y-102611292D01*
X121682717Y-102792900D01*
X122157283Y-102792900D01*
X122595723Y-102611292D01*
X122931292Y-102275723D01*
X123112900Y-101837283D01*
X123112900Y-101362717D01*
X122931292Y-100924277D01*
X122595723Y-100588708D01*
X122157283Y-100407100D01*
X121682717Y-100407100D01*
X121244277Y-100588708D01*
X120908708Y-100924277D01*
X120727100Y-101362717D01*
X119797900Y-101362717D01*
X119797900Y-91202717D01*
X120727100Y-91202717D01*
X120727100Y-91677283D01*
X120908708Y-92115723D01*
X121244277Y-92451292D01*
X121682717Y-92632900D01*
X122157283Y-92632900D01*
X122595723Y-92451292D01*
X122931292Y-92115723D01*
X123027731Y-91882900D01*
X123860085Y-91882900D01*
X123708708Y-92034277D01*
X123527100Y-92472717D01*
X123527100Y-92947283D01*
X123708708Y-93385723D01*
X123860085Y-93537100D01*
X123027731Y-93537100D01*
X122931292Y-93304277D01*
X122595723Y-92968708D01*
X122157283Y-92787100D01*
X121682717Y-92787100D01*
X121244277Y-92968708D01*
X120908708Y-93304277D01*
X120727100Y-93742717D01*
X120727100Y-94217283D01*
X120908708Y-94655723D01*
X121244277Y-94991292D01*
X121682717Y-95172900D01*
X122157283Y-95172900D01*
X122595723Y-94991292D01*
X122931292Y-94655723D01*
X123027731Y-94422900D01*
X123860085Y-94422900D01*
X123708708Y-94574277D01*
X123527100Y-95012717D01*
X123527100Y-95487283D01*
X123708708Y-95925723D01*
X123860085Y-96077100D01*
X123027731Y-96077100D01*
X122931292Y-95844277D01*
X122595723Y-95508708D01*
X122157283Y-95327100D01*
X121682717Y-95327100D01*
X121244277Y-95508708D01*
X120908708Y-95844277D01*
X120727100Y-96282717D01*
X120727100Y-96757283D01*
X120908708Y-97195723D01*
X121244277Y-97531292D01*
X121682717Y-97712900D01*
X122157283Y-97712900D01*
X122595723Y-97531292D01*
X122931292Y-97195723D01*
X123027731Y-96962900D01*
X123860085Y-96962900D01*
X123708708Y-97114277D01*
X123527100Y-97552717D01*
X123527100Y-98027283D01*
X123708708Y-98465723D01*
X123860085Y-98617100D01*
X123027731Y-98617100D01*
X122931292Y-98384277D01*
X122595723Y-98048708D01*
X122157283Y-97867100D01*
X121682717Y-97867100D01*
X121244277Y-98048708D01*
X120908708Y-98384277D01*
X120727100Y-98822717D01*
X120727100Y-99297283D01*
X120908708Y-99735723D01*
X121244277Y-100071292D01*
X121682717Y-100252900D01*
X122157283Y-100252900D01*
X122595723Y-100071292D01*
X122931292Y-99735723D01*
X123027731Y-99502900D01*
X123860085Y-99502900D01*
X123708708Y-99654277D01*
X123527100Y-100092717D01*
X123527100Y-100567283D01*
X123708708Y-101005723D01*
X124044277Y-101341292D01*
X124482717Y-101522900D01*
X124957283Y-101522900D01*
X125395723Y-101341292D01*
X125731292Y-101005723D01*
X125827731Y-100772900D01*
X126967817Y-100772900D01*
X127006783Y-100831217D01*
X127120207Y-100907004D01*
X127254000Y-100933617D01*
X129286000Y-100933617D01*
X129419793Y-100907004D01*
X129533217Y-100831217D01*
X129609004Y-100717793D01*
X129635617Y-100584000D01*
X129635617Y-100076000D01*
X129609004Y-99942207D01*
X129533217Y-99828783D01*
X129419793Y-99752996D01*
X129286000Y-99726383D01*
X127254000Y-99726383D01*
X127120207Y-99752996D01*
X127006783Y-99828783D01*
X126967817Y-99887100D01*
X125827731Y-99887100D01*
X125731292Y-99654277D01*
X125579915Y-99502900D01*
X126967817Y-99502900D01*
X127006783Y-99561217D01*
X127120207Y-99637004D01*
X127254000Y-99663617D01*
X129286000Y-99663617D01*
X129419793Y-99637004D01*
X129533217Y-99561217D01*
X129609004Y-99447793D01*
X129635617Y-99314000D01*
X129635617Y-98806000D01*
X129609004Y-98672207D01*
X129533217Y-98558783D01*
X129419793Y-98482996D01*
X129286000Y-98456383D01*
X127254000Y-98456383D01*
X127120207Y-98482996D01*
X127006783Y-98558783D01*
X126967817Y-98617100D01*
X125579915Y-98617100D01*
X125731292Y-98465723D01*
X125827731Y-98232900D01*
X126967817Y-98232900D01*
X127006783Y-98291217D01*
X127120207Y-98367004D01*
X127254000Y-98393617D01*
X129286000Y-98393617D01*
X129419793Y-98367004D01*
X129533217Y-98291217D01*
X129609004Y-98177793D01*
X129635617Y-98044000D01*
X129635617Y-97536000D01*
X129609004Y-97402207D01*
X129533217Y-97288783D01*
X129419793Y-97212996D01*
X129286000Y-97186383D01*
X127254000Y-97186383D01*
X127120207Y-97212996D01*
X127006783Y-97288783D01*
X126967817Y-97347100D01*
X125827731Y-97347100D01*
X125731292Y-97114277D01*
X125579915Y-96962900D01*
X126967817Y-96962900D01*
X127006783Y-97021217D01*
X127120207Y-97097004D01*
X127254000Y-97123617D01*
X129286000Y-97123617D01*
X129419793Y-97097004D01*
X129533217Y-97021217D01*
X129609004Y-96907793D01*
X129635617Y-96774000D01*
X129635617Y-96266000D01*
X129609004Y-96132207D01*
X129533217Y-96018783D01*
X129419793Y-95942996D01*
X129286000Y-95916383D01*
X127254000Y-95916383D01*
X127120207Y-95942996D01*
X127006783Y-96018783D01*
X126967817Y-96077100D01*
X125579915Y-96077100D01*
X125731292Y-95925723D01*
X125912900Y-95487283D01*
X125912900Y-95012717D01*
X125905976Y-94996000D01*
X126904383Y-94996000D01*
X126904383Y-95504000D01*
X126930996Y-95637793D01*
X127006783Y-95751217D01*
X127120207Y-95827004D01*
X127254000Y-95853617D01*
X129286000Y-95853617D01*
X129339878Y-95842900D01*
X129732253Y-95842900D01*
X129973674Y-95942900D01*
X130249326Y-95942900D01*
X130503996Y-95837412D01*
X130698912Y-95642496D01*
X130804400Y-95387826D01*
X130804400Y-95112174D01*
X130698912Y-94857504D01*
X130503996Y-94662588D01*
X130249326Y-94557100D01*
X129973674Y-94557100D01*
X129732253Y-94657100D01*
X129339878Y-94657100D01*
X129286000Y-94646383D01*
X127254000Y-94646383D01*
X127120207Y-94672996D01*
X127006783Y-94748783D01*
X126930996Y-94862207D01*
X126904383Y-94996000D01*
X125905976Y-94996000D01*
X125731292Y-94574277D01*
X125579915Y-94422900D01*
X126967817Y-94422900D01*
X127006783Y-94481217D01*
X127120207Y-94557004D01*
X127254000Y-94583617D01*
X129286000Y-94583617D01*
X129419793Y-94557004D01*
X129533217Y-94481217D01*
X129609004Y-94367793D01*
X129635617Y-94234000D01*
X129635617Y-93726000D01*
X129609004Y-93592207D01*
X129533217Y-93478783D01*
X129419793Y-93402996D01*
X129286000Y-93376383D01*
X127254000Y-93376383D01*
X127120207Y-93402996D01*
X127006783Y-93478783D01*
X126967817Y-93537100D01*
X125579915Y-93537100D01*
X125731292Y-93385723D01*
X125827731Y-93152900D01*
X126967817Y-93152900D01*
X127006783Y-93211217D01*
X127120207Y-93287004D01*
X127254000Y-93313617D01*
X129286000Y-93313617D01*
X129419793Y-93287004D01*
X129533217Y-93211217D01*
X129609004Y-93097793D01*
X129635617Y-92964000D01*
X129635617Y-92456000D01*
X129609004Y-92322207D01*
X129533217Y-92208783D01*
X129419793Y-92132996D01*
X129286000Y-92106383D01*
X127254000Y-92106383D01*
X127120207Y-92132996D01*
X127006783Y-92208783D01*
X126967817Y-92267100D01*
X125827731Y-92267100D01*
X125731292Y-92034277D01*
X125579915Y-91882900D01*
X126967817Y-91882900D01*
X127006783Y-91941217D01*
X127120207Y-92017004D01*
X127254000Y-92043617D01*
X129286000Y-92043617D01*
X129419793Y-92017004D01*
X129533217Y-91941217D01*
X129609004Y-91827793D01*
X129635617Y-91694000D01*
X129635617Y-91186000D01*
X129609004Y-91052207D01*
X129533217Y-90938783D01*
X129419793Y-90862996D01*
X129286000Y-90836383D01*
X127254000Y-90836383D01*
X127120207Y-90862996D01*
X127006783Y-90938783D01*
X126967817Y-90997100D01*
X125579915Y-90997100D01*
X125731292Y-90845723D01*
X125827731Y-90612900D01*
X126967817Y-90612900D01*
X127006783Y-90671217D01*
X127120207Y-90747004D01*
X127254000Y-90773617D01*
X129286000Y-90773617D01*
X129419793Y-90747004D01*
X129533217Y-90671217D01*
X129609004Y-90557793D01*
X129635617Y-90424000D01*
X129635617Y-89916000D01*
X129609004Y-89782207D01*
X129533217Y-89668783D01*
X129419793Y-89592996D01*
X129286000Y-89566383D01*
X127254000Y-89566383D01*
X127120207Y-89592996D01*
X127006783Y-89668783D01*
X126967817Y-89727100D01*
X125827731Y-89727100D01*
X125731292Y-89494277D01*
X125395723Y-89158708D01*
X125125374Y-89046726D01*
X125448111Y-88913045D01*
X125533599Y-88677086D01*
X124720000Y-87863487D01*
X123906401Y-88677086D01*
X123991889Y-88913045D01*
X124350572Y-89031837D01*
X124044277Y-89158708D01*
X123708708Y-89494277D01*
X123527100Y-89932717D01*
X123527100Y-90407283D01*
X123708708Y-90845723D01*
X123860085Y-90997100D01*
X123027731Y-90997100D01*
X122931292Y-90764277D01*
X122595723Y-90428708D01*
X122157283Y-90247100D01*
X121682717Y-90247100D01*
X121244277Y-90428708D01*
X120908708Y-90764277D01*
X120727100Y-91202717D01*
X119797900Y-91202717D01*
X119797900Y-88662717D01*
X120727100Y-88662717D01*
X120727100Y-89137283D01*
X120908708Y-89575723D01*
X121244277Y-89911292D01*
X121682717Y-90092900D01*
X122157283Y-90092900D01*
X122595723Y-89911292D01*
X122931292Y-89575723D01*
X123112900Y-89137283D01*
X123112900Y-88662717D01*
X122931292Y-88224277D01*
X122595723Y-87888708D01*
X122157283Y-87707100D01*
X121682717Y-87707100D01*
X121244277Y-87888708D01*
X120908708Y-88224277D01*
X120727100Y-88662717D01*
X119797900Y-88662717D01*
X119797900Y-81098312D01*
X120455986Y-81098312D01*
X120497899Y-81672397D01*
X120636955Y-82008111D01*
X120872914Y-82093599D01*
X121686513Y-81280000D01*
X122153487Y-81280000D01*
X122967086Y-82093599D01*
X123203045Y-82008111D01*
X123384014Y-81461688D01*
X123342101Y-80887603D01*
X123203045Y-80551889D01*
X122967086Y-80466401D01*
X122153487Y-81280000D01*
X121686513Y-81280000D01*
X120872914Y-80466401D01*
X120636955Y-80551889D01*
X120455986Y-81098312D01*
X119797900Y-81098312D01*
X119797900Y-75962717D01*
X120727100Y-75962717D01*
X120727100Y-76437283D01*
X120908708Y-76875723D01*
X121244277Y-77211292D01*
X121682717Y-77392900D01*
X122157283Y-77392900D01*
X122595723Y-77211292D01*
X122931292Y-76875723D01*
X123027731Y-76642900D01*
X123860085Y-76642900D01*
X123708708Y-76794277D01*
X123527100Y-77232717D01*
X123527100Y-77707283D01*
X123708708Y-78145723D01*
X123860085Y-78297100D01*
X123027731Y-78297100D01*
X122931292Y-78064277D01*
X122595723Y-77728708D01*
X122157283Y-77547100D01*
X121682717Y-77547100D01*
X121244277Y-77728708D01*
X120908708Y-78064277D01*
X120727100Y-78502717D01*
X120727100Y-78977283D01*
X120908708Y-79415723D01*
X121244277Y-79751292D01*
X121514626Y-79863274D01*
X121191889Y-79996955D01*
X121106401Y-80232914D01*
X121920000Y-81046513D01*
X122733599Y-80232914D01*
X122648111Y-79996955D01*
X122289428Y-79878163D01*
X122595723Y-79751292D01*
X122931292Y-79415723D01*
X123027731Y-79182900D01*
X123860085Y-79182900D01*
X123708708Y-79334277D01*
X123527100Y-79772717D01*
X123527100Y-80247283D01*
X123708708Y-80685723D01*
X124044277Y-81021292D01*
X124482717Y-81202900D01*
X124957283Y-81202900D01*
X125395723Y-81021292D01*
X125731292Y-80685723D01*
X125827731Y-80452900D01*
X126943545Y-80452900D01*
X128620993Y-82130348D01*
X128504118Y-82107100D01*
X128504113Y-82107100D01*
X128460500Y-82098425D01*
X128416887Y-82107100D01*
X125827731Y-82107100D01*
X125731292Y-81874277D01*
X125395723Y-81538708D01*
X124957283Y-81357100D01*
X124482717Y-81357100D01*
X124044277Y-81538708D01*
X123708708Y-81874277D01*
X123527100Y-82312717D01*
X123527100Y-82787283D01*
X123708708Y-83225723D01*
X123860085Y-83377100D01*
X123027731Y-83377100D01*
X122931292Y-83144277D01*
X122595723Y-82808708D01*
X122325374Y-82696726D01*
X122648111Y-82563045D01*
X122733599Y-82327086D01*
X121920000Y-81513487D01*
X121106401Y-82327086D01*
X121191889Y-82563045D01*
X121550572Y-82681837D01*
X121244277Y-82808708D01*
X120908708Y-83144277D01*
X120727100Y-83582717D01*
X120727100Y-84057283D01*
X120908708Y-84495723D01*
X121244277Y-84831292D01*
X121682717Y-85012900D01*
X122157283Y-85012900D01*
X122595723Y-84831292D01*
X122931292Y-84495723D01*
X123027731Y-84262900D01*
X123860085Y-84262900D01*
X123708708Y-84414277D01*
X123527100Y-84852717D01*
X123527100Y-85327283D01*
X123708708Y-85765723D01*
X123860085Y-85917100D01*
X123027731Y-85917100D01*
X122931292Y-85684277D01*
X122595723Y-85348708D01*
X122157283Y-85167100D01*
X121682717Y-85167100D01*
X121244277Y-85348708D01*
X120908708Y-85684277D01*
X120727100Y-86122717D01*
X120727100Y-86597283D01*
X120908708Y-87035723D01*
X121244277Y-87371292D01*
X121682717Y-87552900D01*
X122157283Y-87552900D01*
X122595723Y-87371292D01*
X122931292Y-87035723D01*
X123027731Y-86802900D01*
X123659411Y-86802900D01*
X123672913Y-86816402D01*
X123436955Y-86901889D01*
X123255986Y-87448312D01*
X123297899Y-88022397D01*
X123436955Y-88358111D01*
X123672914Y-88443599D01*
X124486513Y-87630000D01*
X124472371Y-87615858D01*
X124705858Y-87382371D01*
X124720000Y-87396513D01*
X124734142Y-87382371D01*
X124967629Y-87615858D01*
X124953487Y-87630000D01*
X125767086Y-88443599D01*
X126003045Y-88358111D01*
X126184014Y-87811688D01*
X126142101Y-87237603D01*
X126003045Y-86901889D01*
X125767087Y-86816402D01*
X125780589Y-86802900D01*
X128531045Y-86802900D01*
X130002297Y-88274152D01*
X129922753Y-88307100D01*
X129339878Y-88307100D01*
X129286000Y-88296383D01*
X127254000Y-88296383D01*
X127120207Y-88322996D01*
X127006783Y-88398783D01*
X126930996Y-88512207D01*
X126904383Y-88646000D01*
X126904383Y-89154000D01*
X126930996Y-89287793D01*
X127006783Y-89401217D01*
X127120207Y-89477004D01*
X127254000Y-89503617D01*
X129286000Y-89503617D01*
X129339878Y-89492900D01*
X129922753Y-89492900D01*
X130164174Y-89592900D01*
X130439826Y-89592900D01*
X130694496Y-89487412D01*
X130889412Y-89292496D01*
X130927848Y-89199703D01*
X130938601Y-89210456D01*
X130938600Y-99016386D01*
X130929925Y-99060000D01*
X130938600Y-99103613D01*
X130938600Y-99103617D01*
X130964298Y-99232810D01*
X131037480Y-99342335D01*
X131037482Y-99342337D01*
X131062188Y-99379312D01*
X131099163Y-99404019D01*
X132307483Y-100612339D01*
X132332188Y-100649312D01*
X132369161Y-100674017D01*
X132369164Y-100674020D01*
X132478689Y-100747202D01*
X132607882Y-100772900D01*
X132607886Y-100772900D01*
X132651499Y-100781575D01*
X132695113Y-100772900D01*
X137127817Y-100772900D01*
X137166783Y-100831217D01*
X137280207Y-100907004D01*
X137414000Y-100933617D01*
X139446000Y-100933617D01*
X139579793Y-100907004D01*
X139693217Y-100831217D01*
X139769004Y-100717793D01*
X139795617Y-100584000D01*
X139795617Y-100076000D01*
X139769004Y-99942207D01*
X139693217Y-99828783D01*
X139579793Y-99752996D01*
X139446000Y-99726383D01*
X137414000Y-99726383D01*
X137280207Y-99752996D01*
X137166783Y-99828783D01*
X137127817Y-99887100D01*
X132834956Y-99887100D01*
X131824400Y-98876545D01*
X131824400Y-98541755D01*
X132624980Y-99342335D01*
X132649688Y-99379312D01*
X132686664Y-99404019D01*
X132686665Y-99404020D01*
X132752176Y-99447793D01*
X132796189Y-99477202D01*
X132925382Y-99502900D01*
X132925386Y-99502900D01*
X132969000Y-99511575D01*
X133012613Y-99502900D01*
X137127817Y-99502900D01*
X137166783Y-99561217D01*
X137280207Y-99637004D01*
X137414000Y-99663617D01*
X139446000Y-99663617D01*
X139579793Y-99637004D01*
X139693217Y-99561217D01*
X139769004Y-99447793D01*
X139795617Y-99314000D01*
X139795617Y-98806000D01*
X139769004Y-98672207D01*
X139693217Y-98558783D01*
X139579793Y-98482996D01*
X139446000Y-98456383D01*
X137414000Y-98456383D01*
X137280207Y-98482996D01*
X137166783Y-98558783D01*
X137127817Y-98617100D01*
X133152455Y-98617100D01*
X132522900Y-97987545D01*
X132522900Y-97716255D01*
X132878983Y-98072339D01*
X132903688Y-98109312D01*
X132940661Y-98134017D01*
X132940664Y-98134020D01*
X133050189Y-98207202D01*
X133179382Y-98232900D01*
X133179386Y-98232900D01*
X133222999Y-98241575D01*
X133266613Y-98232900D01*
X137127817Y-98232900D01*
X137166783Y-98291217D01*
X137280207Y-98367004D01*
X137414000Y-98393617D01*
X139446000Y-98393617D01*
X139579793Y-98367004D01*
X139693217Y-98291217D01*
X139769004Y-98177793D01*
X139795617Y-98044000D01*
X139795617Y-97536000D01*
X139769004Y-97402207D01*
X139693217Y-97288783D01*
X139579793Y-97212996D01*
X139446000Y-97186383D01*
X137414000Y-97186383D01*
X137280207Y-97212996D01*
X137166783Y-97288783D01*
X137127817Y-97347100D01*
X133406456Y-97347100D01*
X133094400Y-97035045D01*
X133094400Y-95188454D01*
X133131164Y-95213019D01*
X134720481Y-96802336D01*
X134745188Y-96839312D01*
X134782164Y-96864019D01*
X134782165Y-96864020D01*
X134847676Y-96907793D01*
X134891689Y-96937202D01*
X135020882Y-96962900D01*
X135020886Y-96962900D01*
X135064500Y-96971575D01*
X135108113Y-96962900D01*
X137127817Y-96962900D01*
X137166783Y-97021217D01*
X137280207Y-97097004D01*
X137414000Y-97123617D01*
X139446000Y-97123617D01*
X139579793Y-97097004D01*
X139693217Y-97021217D01*
X139769004Y-96907793D01*
X139795617Y-96774000D01*
X139795617Y-96266000D01*
X139769004Y-96132207D01*
X139708340Y-96041416D01*
X139784117Y-96010028D01*
X139952027Y-95842117D01*
X140042900Y-95622731D01*
X140042900Y-95526225D01*
X139893675Y-95377000D01*
X138595100Y-95377000D01*
X138595100Y-95435100D01*
X138264900Y-95435100D01*
X138264900Y-95377000D01*
X136966325Y-95377000D01*
X136817100Y-95526225D01*
X136817100Y-95622731D01*
X136907973Y-95842117D01*
X137075883Y-96010028D01*
X137151660Y-96041416D01*
X137127817Y-96077100D01*
X135247955Y-96077100D01*
X133856400Y-94685545D01*
X133856400Y-93144255D01*
X134974481Y-94262336D01*
X134999188Y-94299312D01*
X135036164Y-94324019D01*
X135036165Y-94324020D01*
X135101676Y-94367793D01*
X135145689Y-94397202D01*
X135274882Y-94422900D01*
X135274886Y-94422900D01*
X135318500Y-94431575D01*
X135362113Y-94422900D01*
X137127817Y-94422900D01*
X137151660Y-94458584D01*
X137075883Y-94489972D01*
X136907973Y-94657883D01*
X136817100Y-94877269D01*
X136817100Y-94973775D01*
X136966325Y-95123000D01*
X138264900Y-95123000D01*
X138264900Y-95064900D01*
X138595100Y-95064900D01*
X138595100Y-95123000D01*
X139893675Y-95123000D01*
X139904501Y-95112174D01*
X140277100Y-95112174D01*
X140277100Y-95387826D01*
X140382588Y-95642496D01*
X140577504Y-95837412D01*
X140832174Y-95942900D01*
X141107826Y-95942900D01*
X141349247Y-95842900D01*
X141805122Y-95842900D01*
X141859000Y-95853617D01*
X143891000Y-95853617D01*
X144024793Y-95827004D01*
X144138217Y-95751217D01*
X144214004Y-95637793D01*
X144240617Y-95504000D01*
X144240617Y-94996000D01*
X144214004Y-94862207D01*
X144138217Y-94748783D01*
X144024793Y-94672996D01*
X143891000Y-94646383D01*
X141859000Y-94646383D01*
X141805122Y-94657100D01*
X141349247Y-94657100D01*
X141107826Y-94557100D01*
X140832174Y-94557100D01*
X140577504Y-94662588D01*
X140382588Y-94857504D01*
X140277100Y-95112174D01*
X139904501Y-95112174D01*
X140042900Y-94973775D01*
X140042900Y-94877269D01*
X139952027Y-94657883D01*
X139784117Y-94489972D01*
X139708340Y-94458584D01*
X139769004Y-94367793D01*
X139795617Y-94234000D01*
X139795617Y-93726000D01*
X139769004Y-93592207D01*
X139693217Y-93478783D01*
X139579793Y-93402996D01*
X139446000Y-93376383D01*
X137414000Y-93376383D01*
X137280207Y-93402996D01*
X137166783Y-93478783D01*
X137127817Y-93537100D01*
X135501955Y-93537100D01*
X135094507Y-93129652D01*
X135211382Y-93152900D01*
X135211386Y-93152900D01*
X135255000Y-93161575D01*
X135298613Y-93152900D01*
X137127817Y-93152900D01*
X137166783Y-93211217D01*
X137280207Y-93287004D01*
X137414000Y-93313617D01*
X139446000Y-93313617D01*
X139579793Y-93287004D01*
X139693217Y-93211217D01*
X139769004Y-93097793D01*
X139795617Y-92964000D01*
X139795617Y-92456000D01*
X139769004Y-92322207D01*
X139693217Y-92208783D01*
X139579793Y-92132996D01*
X139446000Y-92106383D01*
X137414000Y-92106383D01*
X137280207Y-92132996D01*
X137166783Y-92208783D01*
X137127817Y-92267100D01*
X135438455Y-92267100D01*
X135253400Y-92082045D01*
X135253400Y-90921755D01*
X136053981Y-91722336D01*
X136078688Y-91759312D01*
X136115664Y-91784019D01*
X136115665Y-91784020D01*
X136160421Y-91813925D01*
X136225189Y-91857202D01*
X136354382Y-91882900D01*
X136354386Y-91882900D01*
X136398000Y-91891575D01*
X136441613Y-91882900D01*
X137127817Y-91882900D01*
X137166783Y-91941217D01*
X137280207Y-92017004D01*
X137414000Y-92043617D01*
X139446000Y-92043617D01*
X139579793Y-92017004D01*
X139693217Y-91941217D01*
X139769004Y-91827793D01*
X139795617Y-91694000D01*
X139795617Y-91186000D01*
X139769004Y-91052207D01*
X139693217Y-90938783D01*
X139579793Y-90862996D01*
X139446000Y-90836383D01*
X137414000Y-90836383D01*
X137280207Y-90862996D01*
X137166783Y-90938783D01*
X137127817Y-90997100D01*
X136581455Y-90997100D01*
X135951900Y-90367545D01*
X135951900Y-90044954D01*
X135988664Y-90069519D01*
X136371481Y-90452336D01*
X136396188Y-90489312D01*
X136433164Y-90514019D01*
X136433165Y-90514020D01*
X136498676Y-90557793D01*
X136542689Y-90587202D01*
X136671882Y-90612900D01*
X136671886Y-90612900D01*
X136715500Y-90621575D01*
X136759113Y-90612900D01*
X137127817Y-90612900D01*
X137166783Y-90671217D01*
X137280207Y-90747004D01*
X137414000Y-90773617D01*
X139446000Y-90773617D01*
X139579793Y-90747004D01*
X139693217Y-90671217D01*
X139769004Y-90557793D01*
X139795617Y-90424000D01*
X139795617Y-89916000D01*
X141509383Y-89916000D01*
X141509383Y-90424000D01*
X141535996Y-90557793D01*
X141611783Y-90671217D01*
X141725207Y-90747004D01*
X141859000Y-90773617D01*
X143891000Y-90773617D01*
X144024793Y-90747004D01*
X144138217Y-90671217D01*
X144177183Y-90612900D01*
X145180887Y-90612900D01*
X145224500Y-90621575D01*
X145268113Y-90612900D01*
X145268118Y-90612900D01*
X145397311Y-90587202D01*
X145491180Y-90524480D01*
X145506835Y-90514020D01*
X145506836Y-90514019D01*
X145543812Y-90489312D01*
X145568519Y-90452336D01*
X146051600Y-89969255D01*
X146051600Y-90685044D01*
X145739545Y-90997100D01*
X144177183Y-90997100D01*
X144138217Y-90938783D01*
X144024793Y-90862996D01*
X143891000Y-90836383D01*
X141859000Y-90836383D01*
X141725207Y-90862996D01*
X141611783Y-90938783D01*
X141535996Y-91052207D01*
X141509383Y-91186000D01*
X141509383Y-91694000D01*
X141535996Y-91827793D01*
X141611783Y-91941217D01*
X141725207Y-92017004D01*
X141859000Y-92043617D01*
X143891000Y-92043617D01*
X144024793Y-92017004D01*
X144138217Y-91941217D01*
X144177183Y-91882900D01*
X145879387Y-91882900D01*
X145923000Y-91891575D01*
X145966613Y-91882900D01*
X145966618Y-91882900D01*
X146095811Y-91857202D01*
X146160579Y-91813925D01*
X146205335Y-91784020D01*
X146205336Y-91784019D01*
X146242312Y-91759312D01*
X146267018Y-91722337D01*
X146623100Y-91366256D01*
X146623100Y-91764545D01*
X146120545Y-92267100D01*
X144177183Y-92267100D01*
X144138217Y-92208783D01*
X144024793Y-92132996D01*
X143891000Y-92106383D01*
X141859000Y-92106383D01*
X141725207Y-92132996D01*
X141611783Y-92208783D01*
X141535996Y-92322207D01*
X141509383Y-92456000D01*
X141509383Y-92964000D01*
X141535996Y-93097793D01*
X141611783Y-93211217D01*
X141725207Y-93287004D01*
X141859000Y-93313617D01*
X143891000Y-93313617D01*
X144024793Y-93287004D01*
X144138217Y-93211217D01*
X144177183Y-93152900D01*
X146260387Y-93152900D01*
X146304000Y-93161575D01*
X146347613Y-93152900D01*
X146347618Y-93152900D01*
X146476811Y-93127202D01*
X146541370Y-93084064D01*
X146586335Y-93054020D01*
X146586336Y-93054019D01*
X146623312Y-93029312D01*
X146648019Y-92992336D01*
X147194600Y-92445755D01*
X147194600Y-92590045D01*
X146247545Y-93537100D01*
X144177183Y-93537100D01*
X144138217Y-93478783D01*
X144024793Y-93402996D01*
X143891000Y-93376383D01*
X141859000Y-93376383D01*
X141725207Y-93402996D01*
X141611783Y-93478783D01*
X141535996Y-93592207D01*
X141509383Y-93726000D01*
X141509383Y-94234000D01*
X141535996Y-94367793D01*
X141611783Y-94481217D01*
X141725207Y-94557004D01*
X141859000Y-94583617D01*
X143891000Y-94583617D01*
X144024793Y-94557004D01*
X144138217Y-94481217D01*
X144177183Y-94422900D01*
X146387387Y-94422900D01*
X146431000Y-94431575D01*
X146474613Y-94422900D01*
X146474618Y-94422900D01*
X146603811Y-94397202D01*
X146668370Y-94354064D01*
X146713335Y-94324020D01*
X146713336Y-94324019D01*
X146750312Y-94299312D01*
X146775019Y-94262336D01*
X147829600Y-93207755D01*
X147829600Y-94050544D01*
X145803045Y-96077100D01*
X144177183Y-96077100D01*
X144138217Y-96018783D01*
X144024793Y-95942996D01*
X143891000Y-95916383D01*
X141859000Y-95916383D01*
X141725207Y-95942996D01*
X141611783Y-96018783D01*
X141535996Y-96132207D01*
X141509383Y-96266000D01*
X141509383Y-96774000D01*
X141535996Y-96907793D01*
X141611783Y-97021217D01*
X141725207Y-97097004D01*
X141859000Y-97123617D01*
X143891000Y-97123617D01*
X144024793Y-97097004D01*
X144138217Y-97021217D01*
X144177183Y-96962900D01*
X145942887Y-96962900D01*
X145986500Y-96971575D01*
X146030113Y-96962900D01*
X146030118Y-96962900D01*
X146159311Y-96937202D01*
X146253180Y-96874480D01*
X146268835Y-96864020D01*
X146268836Y-96864019D01*
X146305812Y-96839312D01*
X146330519Y-96802336D01*
X148464600Y-94668256D01*
X148464600Y-94749045D01*
X145866545Y-97347100D01*
X144177183Y-97347100D01*
X144138217Y-97288783D01*
X144024793Y-97212996D01*
X143891000Y-97186383D01*
X141859000Y-97186383D01*
X141725207Y-97212996D01*
X141611783Y-97288783D01*
X141535996Y-97402207D01*
X141509383Y-97536000D01*
X141509383Y-98044000D01*
X141535996Y-98177793D01*
X141611783Y-98291217D01*
X141725207Y-98367004D01*
X141859000Y-98393617D01*
X143891000Y-98393617D01*
X144024793Y-98367004D01*
X144138217Y-98291217D01*
X144177183Y-98232900D01*
X146006387Y-98232900D01*
X146050000Y-98241575D01*
X146093613Y-98232900D01*
X146093618Y-98232900D01*
X146222811Y-98207202D01*
X146287370Y-98164064D01*
X146332335Y-98134020D01*
X146332336Y-98134019D01*
X146369312Y-98109312D01*
X146394019Y-98072336D01*
X149163100Y-95303255D01*
X149163100Y-95384045D01*
X145930045Y-98617100D01*
X144177183Y-98617100D01*
X144138217Y-98558783D01*
X144024793Y-98482996D01*
X143891000Y-98456383D01*
X141859000Y-98456383D01*
X141725207Y-98482996D01*
X141611783Y-98558783D01*
X141535996Y-98672207D01*
X141509383Y-98806000D01*
X141509383Y-99314000D01*
X141535996Y-99447793D01*
X141611783Y-99561217D01*
X141725207Y-99637004D01*
X141859000Y-99663617D01*
X143891000Y-99663617D01*
X144024793Y-99637004D01*
X144138217Y-99561217D01*
X144177183Y-99502900D01*
X146069887Y-99502900D01*
X146113500Y-99511575D01*
X146157113Y-99502900D01*
X146157118Y-99502900D01*
X146286311Y-99477202D01*
X146350870Y-99434064D01*
X146395835Y-99404020D01*
X146395836Y-99404019D01*
X146432812Y-99379312D01*
X146457520Y-99342335D01*
X149861600Y-95938255D01*
X149861600Y-95955544D01*
X145930045Y-99887100D01*
X144177183Y-99887100D01*
X144138217Y-99828783D01*
X144024793Y-99752996D01*
X143891000Y-99726383D01*
X141859000Y-99726383D01*
X141725207Y-99752996D01*
X141611783Y-99828783D01*
X141535996Y-99942207D01*
X141509383Y-100076000D01*
X141509383Y-100584000D01*
X141535996Y-100717793D01*
X141611783Y-100831217D01*
X141725207Y-100907004D01*
X141859000Y-100933617D01*
X143891000Y-100933617D01*
X144024793Y-100907004D01*
X144138217Y-100831217D01*
X144177183Y-100772900D01*
X146069887Y-100772900D01*
X146113500Y-100781575D01*
X146157113Y-100772900D01*
X146157118Y-100772900D01*
X146286311Y-100747202D01*
X146350870Y-100704064D01*
X146395835Y-100674020D01*
X146395836Y-100674019D01*
X146432812Y-100649312D01*
X146457519Y-100612336D01*
X150586840Y-96483016D01*
X150623812Y-96458312D01*
X150648517Y-96421339D01*
X150648520Y-96421336D01*
X150721702Y-96311811D01*
X150731751Y-96261292D01*
X150747400Y-96182618D01*
X150747400Y-96182614D01*
X150756075Y-96139001D01*
X150747400Y-96095387D01*
X150747400Y-95526225D01*
X151422100Y-95526225D01*
X151422100Y-95622731D01*
X151512973Y-95842117D01*
X151680883Y-96010028D01*
X151756660Y-96041416D01*
X151695996Y-96132207D01*
X151669383Y-96266000D01*
X151669383Y-96774000D01*
X151695996Y-96907793D01*
X151771783Y-97021217D01*
X151885207Y-97097004D01*
X152019000Y-97123617D01*
X154051000Y-97123617D01*
X154184793Y-97097004D01*
X154298217Y-97021217D01*
X154337183Y-96962900D01*
X155226269Y-96962900D01*
X155322708Y-97195723D01*
X155474085Y-97347100D01*
X154337183Y-97347100D01*
X154298217Y-97288783D01*
X154184793Y-97212996D01*
X154051000Y-97186383D01*
X152019000Y-97186383D01*
X151885207Y-97212996D01*
X151771783Y-97288783D01*
X151695996Y-97402207D01*
X151669383Y-97536000D01*
X151669383Y-98044000D01*
X151695996Y-98177793D01*
X151771783Y-98291217D01*
X151885207Y-98367004D01*
X152019000Y-98393617D01*
X154051000Y-98393617D01*
X154184793Y-98367004D01*
X154298217Y-98291217D01*
X154337183Y-98232900D01*
X155474085Y-98232900D01*
X155322708Y-98384277D01*
X155226269Y-98617100D01*
X154337183Y-98617100D01*
X154298217Y-98558783D01*
X154184793Y-98482996D01*
X154051000Y-98456383D01*
X152019000Y-98456383D01*
X151885207Y-98482996D01*
X151771783Y-98558783D01*
X151695996Y-98672207D01*
X151669383Y-98806000D01*
X151669383Y-99314000D01*
X151695996Y-99447793D01*
X151771783Y-99561217D01*
X151885207Y-99637004D01*
X152019000Y-99663617D01*
X154051000Y-99663617D01*
X154184793Y-99637004D01*
X154298217Y-99561217D01*
X154337183Y-99502900D01*
X155226269Y-99502900D01*
X155322708Y-99735723D01*
X155474085Y-99887100D01*
X154337183Y-99887100D01*
X154298217Y-99828783D01*
X154184793Y-99752996D01*
X154051000Y-99726383D01*
X152019000Y-99726383D01*
X151885207Y-99752996D01*
X151771783Y-99828783D01*
X151695996Y-99942207D01*
X151669383Y-100076000D01*
X151669383Y-100584000D01*
X151695996Y-100717793D01*
X151771783Y-100831217D01*
X151885207Y-100907004D01*
X152019000Y-100933617D01*
X154051000Y-100933617D01*
X154184793Y-100907004D01*
X154298217Y-100831217D01*
X154337183Y-100772900D01*
X155474085Y-100772900D01*
X155322708Y-100924277D01*
X155141100Y-101362717D01*
X155141100Y-101837283D01*
X155322708Y-102275723D01*
X155658277Y-102611292D01*
X156096717Y-102792900D01*
X156571283Y-102792900D01*
X156957998Y-102632717D01*
X157941100Y-102632717D01*
X157941100Y-103107283D01*
X158122708Y-103545723D01*
X158458277Y-103881292D01*
X158896717Y-104062900D01*
X159371283Y-104062900D01*
X159809723Y-103881292D01*
X160145292Y-103545723D01*
X160326900Y-103107283D01*
X160326900Y-102632717D01*
X160145292Y-102194277D01*
X159809723Y-101858708D01*
X159371283Y-101677100D01*
X158896717Y-101677100D01*
X158458277Y-101858708D01*
X158122708Y-102194277D01*
X157941100Y-102632717D01*
X156957998Y-102632717D01*
X157009723Y-102611292D01*
X157345292Y-102275723D01*
X157526900Y-101837283D01*
X157526900Y-101362717D01*
X157345292Y-100924277D01*
X157193915Y-100772900D01*
X158026269Y-100772900D01*
X158122708Y-101005723D01*
X158458277Y-101341292D01*
X158896717Y-101522900D01*
X159371283Y-101522900D01*
X159809723Y-101341292D01*
X160145292Y-101005723D01*
X160326900Y-100567283D01*
X160326900Y-100092717D01*
X160145292Y-99654277D01*
X159809723Y-99318708D01*
X159371283Y-99137100D01*
X158896717Y-99137100D01*
X158458277Y-99318708D01*
X158122708Y-99654277D01*
X158026269Y-99887100D01*
X157193915Y-99887100D01*
X157345292Y-99735723D01*
X157526900Y-99297283D01*
X157526900Y-98822717D01*
X157345292Y-98384277D01*
X157193915Y-98232900D01*
X158026269Y-98232900D01*
X158122708Y-98465723D01*
X158458277Y-98801292D01*
X158896717Y-98982900D01*
X159371283Y-98982900D01*
X159809723Y-98801292D01*
X160145292Y-98465723D01*
X160326900Y-98027283D01*
X160326900Y-97552717D01*
X160145292Y-97114277D01*
X159809723Y-96778708D01*
X159371283Y-96597100D01*
X158896717Y-96597100D01*
X158458277Y-96778708D01*
X158122708Y-97114277D01*
X158026269Y-97347100D01*
X157193915Y-97347100D01*
X157345292Y-97195723D01*
X157526900Y-96757283D01*
X157526900Y-96282717D01*
X157345292Y-95844277D01*
X157009723Y-95508708D01*
X156571283Y-95327100D01*
X156096717Y-95327100D01*
X155658277Y-95508708D01*
X155322708Y-95844277D01*
X155226269Y-96077100D01*
X154337183Y-96077100D01*
X154313340Y-96041416D01*
X154389117Y-96010028D01*
X154557027Y-95842117D01*
X154647900Y-95622731D01*
X154647900Y-95526225D01*
X154498675Y-95377000D01*
X153200100Y-95377000D01*
X153200100Y-95435100D01*
X152869900Y-95435100D01*
X152869900Y-95377000D01*
X151571325Y-95377000D01*
X151422100Y-95526225D01*
X150747400Y-95526225D01*
X150747400Y-89210455D01*
X150781630Y-89176225D01*
X151422100Y-89176225D01*
X151422100Y-89272731D01*
X151512973Y-89492117D01*
X151680883Y-89660028D01*
X151756660Y-89691416D01*
X151695996Y-89782207D01*
X151669383Y-89916000D01*
X151669383Y-90424000D01*
X151695996Y-90557793D01*
X151771783Y-90671217D01*
X151885207Y-90747004D01*
X152019000Y-90773617D01*
X154051000Y-90773617D01*
X154184793Y-90747004D01*
X154298217Y-90671217D01*
X154337183Y-90612900D01*
X155474085Y-90612900D01*
X155322708Y-90764277D01*
X155226269Y-90997100D01*
X154337183Y-90997100D01*
X154298217Y-90938783D01*
X154184793Y-90862996D01*
X154051000Y-90836383D01*
X152019000Y-90836383D01*
X151885207Y-90862996D01*
X151771783Y-90938783D01*
X151695996Y-91052207D01*
X151669383Y-91186000D01*
X151669383Y-91694000D01*
X151695996Y-91827793D01*
X151771783Y-91941217D01*
X151885207Y-92017004D01*
X152019000Y-92043617D01*
X154051000Y-92043617D01*
X154184793Y-92017004D01*
X154298217Y-91941217D01*
X154337183Y-91882900D01*
X155226269Y-91882900D01*
X155322708Y-92115723D01*
X155474085Y-92267100D01*
X154337183Y-92267100D01*
X154298217Y-92208783D01*
X154184793Y-92132996D01*
X154051000Y-92106383D01*
X152019000Y-92106383D01*
X151885207Y-92132996D01*
X151771783Y-92208783D01*
X151695996Y-92322207D01*
X151669383Y-92456000D01*
X151669383Y-92964000D01*
X151695996Y-93097793D01*
X151771783Y-93211217D01*
X151885207Y-93287004D01*
X152019000Y-93313617D01*
X154051000Y-93313617D01*
X154184793Y-93287004D01*
X154298217Y-93211217D01*
X154337183Y-93152900D01*
X155474085Y-93152900D01*
X155322708Y-93304277D01*
X155226269Y-93537100D01*
X154337183Y-93537100D01*
X154298217Y-93478783D01*
X154184793Y-93402996D01*
X154051000Y-93376383D01*
X152019000Y-93376383D01*
X151885207Y-93402996D01*
X151771783Y-93478783D01*
X151695996Y-93592207D01*
X151669383Y-93726000D01*
X151669383Y-94234000D01*
X151695996Y-94367793D01*
X151756660Y-94458584D01*
X151680883Y-94489972D01*
X151512973Y-94657883D01*
X151422100Y-94877269D01*
X151422100Y-94973775D01*
X151571325Y-95123000D01*
X152869900Y-95123000D01*
X152869900Y-95064900D01*
X153200100Y-95064900D01*
X153200100Y-95123000D01*
X154498675Y-95123000D01*
X154647900Y-94973775D01*
X154647900Y-94877269D01*
X154557027Y-94657883D01*
X154389117Y-94489972D01*
X154313340Y-94458584D01*
X154337183Y-94422900D01*
X155226269Y-94422900D01*
X155322708Y-94655723D01*
X155658277Y-94991292D01*
X156096717Y-95172900D01*
X156571283Y-95172900D01*
X156957998Y-95012717D01*
X157941100Y-95012717D01*
X157941100Y-95487283D01*
X158122708Y-95925723D01*
X158458277Y-96261292D01*
X158896717Y-96442900D01*
X159371283Y-96442900D01*
X159809723Y-96261292D01*
X160145292Y-95925723D01*
X160326900Y-95487283D01*
X160326900Y-95012717D01*
X160145292Y-94574277D01*
X159809723Y-94238708D01*
X159371283Y-94057100D01*
X158896717Y-94057100D01*
X158458277Y-94238708D01*
X158122708Y-94574277D01*
X157941100Y-95012717D01*
X156957998Y-95012717D01*
X157009723Y-94991292D01*
X157345292Y-94655723D01*
X157526900Y-94217283D01*
X157526900Y-93742717D01*
X157345292Y-93304277D01*
X157193915Y-93152900D01*
X158026269Y-93152900D01*
X158122708Y-93385723D01*
X158458277Y-93721292D01*
X158896717Y-93902900D01*
X159371283Y-93902900D01*
X159809723Y-93721292D01*
X160145292Y-93385723D01*
X160326900Y-92947283D01*
X160326900Y-92472717D01*
X160145292Y-92034277D01*
X159809723Y-91698708D01*
X159371283Y-91517100D01*
X158896717Y-91517100D01*
X158458277Y-91698708D01*
X158122708Y-92034277D01*
X158026269Y-92267100D01*
X157193915Y-92267100D01*
X157345292Y-92115723D01*
X157526900Y-91677283D01*
X157526900Y-91202717D01*
X157345292Y-90764277D01*
X157193915Y-90612900D01*
X158026269Y-90612900D01*
X158122708Y-90845723D01*
X158458277Y-91181292D01*
X158896717Y-91362900D01*
X159371283Y-91362900D01*
X159809723Y-91181292D01*
X160145292Y-90845723D01*
X160326900Y-90407283D01*
X160326900Y-89932717D01*
X160145292Y-89494277D01*
X159809723Y-89158708D01*
X159539374Y-89046726D01*
X159862111Y-88913045D01*
X159947599Y-88677086D01*
X159134000Y-87863487D01*
X158320401Y-88677086D01*
X158405889Y-88913045D01*
X158764572Y-89031837D01*
X158458277Y-89158708D01*
X158122708Y-89494277D01*
X158026269Y-89727100D01*
X157193915Y-89727100D01*
X157345292Y-89575723D01*
X157526900Y-89137283D01*
X157526900Y-88662717D01*
X157345292Y-88224277D01*
X157009723Y-87888708D01*
X156571283Y-87707100D01*
X156096717Y-87707100D01*
X155658277Y-87888708D01*
X155322708Y-88224277D01*
X155141100Y-88662717D01*
X155141100Y-89137283D01*
X155322708Y-89575723D01*
X155474085Y-89727100D01*
X154337183Y-89727100D01*
X154313340Y-89691416D01*
X154389117Y-89660028D01*
X154557027Y-89492117D01*
X154647900Y-89272731D01*
X154647900Y-89176225D01*
X154498675Y-89027000D01*
X153200100Y-89027000D01*
X153200100Y-89085100D01*
X152869900Y-89085100D01*
X152869900Y-89027000D01*
X151571325Y-89027000D01*
X151422100Y-89176225D01*
X150781630Y-89176225D01*
X151422100Y-88535755D01*
X151422100Y-88623775D01*
X151571325Y-88773000D01*
X152869900Y-88773000D01*
X152869900Y-88198325D01*
X153200100Y-88198325D01*
X153200100Y-88773000D01*
X154498675Y-88773000D01*
X154647900Y-88623775D01*
X154647900Y-88527269D01*
X154557027Y-88307883D01*
X154389117Y-88139972D01*
X154169731Y-88049100D01*
X153349325Y-88049100D01*
X153200100Y-88198325D01*
X152869900Y-88198325D01*
X152720675Y-88049100D01*
X151908755Y-88049100D01*
X153154955Y-86802900D01*
X155226269Y-86802900D01*
X155322708Y-87035723D01*
X155658277Y-87371292D01*
X156096717Y-87552900D01*
X156571283Y-87552900D01*
X156823780Y-87448312D01*
X157669986Y-87448312D01*
X157711899Y-88022397D01*
X157850955Y-88358111D01*
X158086914Y-88443599D01*
X158900513Y-87630000D01*
X159367487Y-87630000D01*
X160181086Y-88443599D01*
X160417045Y-88358111D01*
X160598014Y-87811688D01*
X160556101Y-87237603D01*
X160417045Y-86901889D01*
X160181086Y-86816401D01*
X159367487Y-87630000D01*
X158900513Y-87630000D01*
X158086914Y-86816401D01*
X157850955Y-86901889D01*
X157669986Y-87448312D01*
X156823780Y-87448312D01*
X157009723Y-87371292D01*
X157345292Y-87035723D01*
X157526900Y-86597283D01*
X157526900Y-86122717D01*
X157345292Y-85684277D01*
X157193915Y-85532900D01*
X158026269Y-85532900D01*
X158122708Y-85765723D01*
X158458277Y-86101292D01*
X158728626Y-86213274D01*
X158405889Y-86346955D01*
X158320401Y-86582914D01*
X159134000Y-87396513D01*
X159947599Y-86582914D01*
X159862111Y-86346955D01*
X159503428Y-86228163D01*
X159809723Y-86101292D01*
X160145292Y-85765723D01*
X160326900Y-85327283D01*
X160326900Y-84852717D01*
X160145292Y-84414277D01*
X159809723Y-84078708D01*
X159371283Y-83897100D01*
X158896717Y-83897100D01*
X158458277Y-84078708D01*
X158122708Y-84414277D01*
X158026269Y-84647100D01*
X157193915Y-84647100D01*
X157345292Y-84495723D01*
X157526900Y-84057283D01*
X157526900Y-83582717D01*
X157345292Y-83144277D01*
X157193915Y-82992900D01*
X158026269Y-82992900D01*
X158122708Y-83225723D01*
X158458277Y-83561292D01*
X158896717Y-83742900D01*
X159371283Y-83742900D01*
X159809723Y-83561292D01*
X160145292Y-83225723D01*
X160326900Y-82787283D01*
X160326900Y-82312717D01*
X160145292Y-81874277D01*
X159809723Y-81538708D01*
X159371283Y-81357100D01*
X158896717Y-81357100D01*
X158458277Y-81538708D01*
X158122708Y-81874277D01*
X158026269Y-82107100D01*
X157394589Y-82107100D01*
X157381087Y-82093598D01*
X157617045Y-82008111D01*
X157798014Y-81461688D01*
X157756101Y-80887603D01*
X157617045Y-80551889D01*
X157381087Y-80466402D01*
X157394589Y-80452900D01*
X158026269Y-80452900D01*
X158122708Y-80685723D01*
X158458277Y-81021292D01*
X158896717Y-81202900D01*
X159371283Y-81202900D01*
X159809723Y-81021292D01*
X160145292Y-80685723D01*
X160326900Y-80247283D01*
X160326900Y-79772717D01*
X160145292Y-79334277D01*
X159809723Y-78998708D01*
X159371283Y-78817100D01*
X158896717Y-78817100D01*
X158458277Y-78998708D01*
X158122708Y-79334277D01*
X158026269Y-79567100D01*
X157193915Y-79567100D01*
X157345292Y-79415723D01*
X157526900Y-78977283D01*
X157526900Y-78502717D01*
X157345292Y-78064277D01*
X157193915Y-77912900D01*
X158026269Y-77912900D01*
X158122708Y-78145723D01*
X158458277Y-78481292D01*
X158896717Y-78662900D01*
X159371283Y-78662900D01*
X159809723Y-78481292D01*
X160145292Y-78145723D01*
X160326900Y-77707283D01*
X160326900Y-77232717D01*
X160145292Y-76794277D01*
X159809723Y-76458708D01*
X159371283Y-76277100D01*
X158896717Y-76277100D01*
X158458277Y-76458708D01*
X158122708Y-76794277D01*
X158026269Y-77027100D01*
X157193915Y-77027100D01*
X157345292Y-76875723D01*
X157526900Y-76437283D01*
X157526900Y-75962717D01*
X157345292Y-75524277D01*
X157009723Y-75188708D01*
X156571283Y-75007100D01*
X156096717Y-75007100D01*
X155658277Y-75188708D01*
X155322708Y-75524277D01*
X155226269Y-75757100D01*
X154602613Y-75757100D01*
X154559000Y-75748425D01*
X154515386Y-75757100D01*
X154515382Y-75757100D01*
X154386189Y-75782798D01*
X154276665Y-75855980D01*
X154276664Y-75855981D01*
X154239688Y-75880688D01*
X154214981Y-75917664D01*
X145577162Y-84555483D01*
X145540189Y-84580188D01*
X145515484Y-84617161D01*
X145515480Y-84617165D01*
X145442298Y-84726690D01*
X145407925Y-84899500D01*
X145416601Y-84943118D01*
X145416600Y-89351545D01*
X145041045Y-89727100D01*
X144177183Y-89727100D01*
X144138217Y-89668783D01*
X144024793Y-89592996D01*
X143891000Y-89566383D01*
X141859000Y-89566383D01*
X141725207Y-89592996D01*
X141611783Y-89668783D01*
X141535996Y-89782207D01*
X141509383Y-89916000D01*
X139795617Y-89916000D01*
X139769004Y-89782207D01*
X139708340Y-89691416D01*
X139784117Y-89660028D01*
X139952027Y-89492117D01*
X140042900Y-89272731D01*
X140042900Y-89176225D01*
X139893675Y-89027000D01*
X138595100Y-89027000D01*
X138595100Y-89085100D01*
X138264900Y-89085100D01*
X138264900Y-89027000D01*
X136966325Y-89027000D01*
X136817100Y-89176225D01*
X136817100Y-89272731D01*
X136907973Y-89492117D01*
X137075883Y-89660028D01*
X137151660Y-89691416D01*
X137127817Y-89727100D01*
X136898955Y-89727100D01*
X136713900Y-89542045D01*
X136713900Y-88527269D01*
X136817100Y-88527269D01*
X136817100Y-88623775D01*
X136966325Y-88773000D01*
X138264900Y-88773000D01*
X138264900Y-88198325D01*
X138595100Y-88198325D01*
X138595100Y-88773000D01*
X139893675Y-88773000D01*
X140042900Y-88623775D01*
X140042900Y-88527269D01*
X139952027Y-88307883D01*
X139784117Y-88139972D01*
X139564731Y-88049100D01*
X138744325Y-88049100D01*
X138595100Y-88198325D01*
X138264900Y-88198325D01*
X138115675Y-88049100D01*
X137295269Y-88049100D01*
X137075883Y-88139972D01*
X136907973Y-88307883D01*
X136817100Y-88527269D01*
X136713900Y-88527269D01*
X136713900Y-86674325D01*
X138873100Y-86674325D01*
X138873100Y-87103731D01*
X138963972Y-87323117D01*
X139131883Y-87491027D01*
X139351269Y-87581900D01*
X139655675Y-87581900D01*
X139804900Y-87432675D01*
X139804900Y-86525100D01*
X140135100Y-86525100D01*
X140135100Y-87432675D01*
X140284325Y-87581900D01*
X140588731Y-87581900D01*
X140808117Y-87491027D01*
X140976028Y-87323117D01*
X141066900Y-87103731D01*
X141066900Y-86674325D01*
X140917675Y-86525100D01*
X140135100Y-86525100D01*
X139804900Y-86525100D01*
X139022325Y-86525100D01*
X138873100Y-86674325D01*
X136713900Y-86674325D01*
X136713900Y-85616269D01*
X138873100Y-85616269D01*
X138873100Y-86045675D01*
X139022325Y-86194900D01*
X139804900Y-86194900D01*
X139804900Y-85287325D01*
X140135100Y-85287325D01*
X140135100Y-86194900D01*
X140917675Y-86194900D01*
X141066900Y-86045675D01*
X141066900Y-85735000D01*
X141120383Y-85735000D01*
X141120383Y-86985000D01*
X141146996Y-87118793D01*
X141222783Y-87232217D01*
X141336207Y-87308004D01*
X141377101Y-87316138D01*
X141377101Y-87936603D01*
X141365485Y-87995000D01*
X141411501Y-88226337D01*
X141418402Y-88236665D01*
X141542544Y-88422457D01*
X141579476Y-88447134D01*
X141535996Y-88512207D01*
X141509383Y-88646000D01*
X141509383Y-89154000D01*
X141535996Y-89287793D01*
X141611783Y-89401217D01*
X141725207Y-89477004D01*
X141859000Y-89503617D01*
X142870485Y-89503617D01*
X142874999Y-89504515D01*
X142879513Y-89503617D01*
X143891000Y-89503617D01*
X144024793Y-89477004D01*
X144138217Y-89401217D01*
X144214004Y-89287793D01*
X144240617Y-89154000D01*
X144240617Y-88646000D01*
X144214004Y-88512207D01*
X144138217Y-88398783D01*
X144024793Y-88322996D01*
X143891000Y-88296383D01*
X143109870Y-88296383D01*
X142562900Y-87749414D01*
X142562900Y-87316138D01*
X142603793Y-87308004D01*
X142717217Y-87232217D01*
X142793004Y-87118793D01*
X142819617Y-86985000D01*
X142819617Y-86952900D01*
X142940253Y-86952900D01*
X143181674Y-87052900D01*
X143457326Y-87052900D01*
X143711996Y-86947412D01*
X143906912Y-86752496D01*
X144012400Y-86497826D01*
X144012400Y-86222174D01*
X143906912Y-85967504D01*
X143711996Y-85772588D01*
X143457326Y-85667100D01*
X143181674Y-85667100D01*
X142940253Y-85767100D01*
X142819617Y-85767100D01*
X142819617Y-85735000D01*
X142793004Y-85601207D01*
X142717217Y-85487783D01*
X142603793Y-85411996D01*
X142470000Y-85385383D01*
X141470000Y-85385383D01*
X141336207Y-85411996D01*
X141222783Y-85487783D01*
X141146996Y-85601207D01*
X141120383Y-85735000D01*
X141066900Y-85735000D01*
X141066900Y-85616269D01*
X140976028Y-85396883D01*
X140808117Y-85228973D01*
X140588731Y-85138100D01*
X140284325Y-85138100D01*
X140135100Y-85287325D01*
X139804900Y-85287325D01*
X139655675Y-85138100D01*
X139351269Y-85138100D01*
X139131883Y-85228973D01*
X138963972Y-85396883D01*
X138873100Y-85616269D01*
X136713900Y-85616269D01*
X136713900Y-85324113D01*
X136722575Y-85280499D01*
X136713900Y-85236886D01*
X136713900Y-85236882D01*
X136688202Y-85107689D01*
X136590312Y-84961188D01*
X136553336Y-84936481D01*
X134481180Y-82864325D01*
X136573100Y-82864325D01*
X136573100Y-83918731D01*
X136663972Y-84138117D01*
X136831883Y-84306027D01*
X137051269Y-84396900D01*
X138130675Y-84396900D01*
X138279900Y-84247675D01*
X138279900Y-82715100D01*
X138610100Y-82715100D01*
X138610100Y-84247675D01*
X138759325Y-84396900D01*
X139838731Y-84396900D01*
X140058117Y-84306027D01*
X140226028Y-84138117D01*
X140316900Y-83918731D01*
X140316900Y-82864325D01*
X140167675Y-82715100D01*
X138610100Y-82715100D01*
X138279900Y-82715100D01*
X136722325Y-82715100D01*
X136573100Y-82864325D01*
X134481180Y-82864325D01*
X132798124Y-81181269D01*
X136573100Y-81181269D01*
X136573100Y-82235675D01*
X136722325Y-82384900D01*
X138279900Y-82384900D01*
X138279900Y-80852325D01*
X138610100Y-80852325D01*
X138610100Y-82384900D01*
X140167675Y-82384900D01*
X140316900Y-82235675D01*
X140316900Y-81300000D01*
X141870383Y-81300000D01*
X141870383Y-83800000D01*
X141896996Y-83933793D01*
X141972783Y-84047217D01*
X142086207Y-84123004D01*
X142220000Y-84149617D01*
X144770000Y-84149617D01*
X144903793Y-84123004D01*
X145017217Y-84047217D01*
X145093004Y-83933793D01*
X145119617Y-83800000D01*
X145119617Y-83392900D01*
X146154163Y-83392900D01*
X146232366Y-83360507D01*
X146315383Y-83343994D01*
X146385762Y-83296968D01*
X146463964Y-83264576D01*
X146523816Y-83204724D01*
X146594197Y-83157697D01*
X146641224Y-83087316D01*
X146701076Y-83027464D01*
X146733468Y-82949262D01*
X146780494Y-82878883D01*
X146797007Y-82795866D01*
X146829400Y-82717663D01*
X146829400Y-82633015D01*
X146845913Y-82550000D01*
X146829400Y-82466984D01*
X146829400Y-82382337D01*
X146797007Y-82304134D01*
X146780494Y-82221117D01*
X146733468Y-82150738D01*
X146701076Y-82072536D01*
X146641224Y-82012684D01*
X146594197Y-81942303D01*
X146523816Y-81895276D01*
X146463964Y-81835424D01*
X146385762Y-81803032D01*
X146315383Y-81756006D01*
X146232366Y-81739493D01*
X146154163Y-81707100D01*
X145119617Y-81707100D01*
X145119617Y-81300000D01*
X145093004Y-81166207D01*
X145017217Y-81052783D01*
X144903793Y-80976996D01*
X144770000Y-80950383D01*
X144337900Y-80950383D01*
X144337900Y-79578876D01*
X144352900Y-79542663D01*
X144352900Y-79458016D01*
X144369413Y-79375001D01*
X144352900Y-79291986D01*
X144352900Y-79207337D01*
X144320505Y-79129129D01*
X144303993Y-79046118D01*
X144256971Y-78975745D01*
X144224576Y-78897536D01*
X144164719Y-78837679D01*
X144117696Y-78767304D01*
X144047321Y-78720281D01*
X143987464Y-78660424D01*
X143909255Y-78628029D01*
X143838882Y-78581007D01*
X143755871Y-78564495D01*
X143677663Y-78532100D01*
X143593014Y-78532100D01*
X143509999Y-78515587D01*
X143426984Y-78532100D01*
X143342337Y-78532100D01*
X143264130Y-78564494D01*
X143181117Y-78581007D01*
X143110742Y-78628030D01*
X143032536Y-78660424D01*
X142957682Y-78735278D01*
X142887304Y-78782303D01*
X142840279Y-78852681D01*
X142795424Y-78897536D01*
X142771148Y-78956143D01*
X142701007Y-79061117D01*
X142676376Y-79184942D01*
X142667100Y-79207337D01*
X142667100Y-79231576D01*
X142635587Y-79390000D01*
X142652101Y-79473020D01*
X142652101Y-80950383D01*
X142220000Y-80950383D01*
X142086207Y-80976996D01*
X141972783Y-81052783D01*
X141896996Y-81166207D01*
X141870383Y-81300000D01*
X140316900Y-81300000D01*
X140316900Y-81181269D01*
X140226028Y-80961883D01*
X140058117Y-80793973D01*
X139838731Y-80703100D01*
X138759325Y-80703100D01*
X138610100Y-80852325D01*
X138279900Y-80852325D01*
X138130675Y-80703100D01*
X137051269Y-80703100D01*
X136831883Y-80793973D01*
X136663972Y-80961883D01*
X136573100Y-81181269D01*
X132798124Y-81181269D01*
X127534519Y-75917664D01*
X127509812Y-75880688D01*
X127472836Y-75855981D01*
X127472835Y-75855980D01*
X127427870Y-75825936D01*
X127363311Y-75782798D01*
X127234118Y-75757100D01*
X127234113Y-75757100D01*
X127190500Y-75748425D01*
X127146887Y-75757100D01*
X123027731Y-75757100D01*
X122931292Y-75524277D01*
X122595723Y-75188708D01*
X122157283Y-75007100D01*
X121682717Y-75007100D01*
X121244277Y-75188708D01*
X120908708Y-75524277D01*
X120727100Y-75962717D01*
X119797900Y-75962717D01*
X119797900Y-74256557D01*
X161455100Y-74193535D01*
X161455100Y-127217100D01*
X161455100Y-127217100D01*
G37*
X161455100Y-127217100D02*
X119797900Y-127217100D01*
X119797900Y-124222717D01*
X120727100Y-124222717D01*
X120727100Y-124697283D01*
X120908708Y-125135723D01*
X121244277Y-125471292D01*
X121682717Y-125652900D01*
X122157283Y-125652900D01*
X122543998Y-125492717D01*
X123527100Y-125492717D01*
X123527100Y-125967283D01*
X123708708Y-126405723D01*
X124044277Y-126741292D01*
X124482717Y-126922900D01*
X124957283Y-126922900D01*
X125395723Y-126741292D01*
X125731292Y-126405723D01*
X125912900Y-125967283D01*
X125912900Y-125492717D01*
X125731292Y-125054277D01*
X125395723Y-124718708D01*
X124957283Y-124537100D01*
X124482717Y-124537100D01*
X124044277Y-124718708D01*
X123708708Y-125054277D01*
X123527100Y-125492717D01*
X122543998Y-125492717D01*
X122595723Y-125471292D01*
X122931292Y-125135723D01*
X123112900Y-124697283D01*
X123112900Y-124222717D01*
X122931292Y-123784277D01*
X122595723Y-123448708D01*
X122157283Y-123267100D01*
X121682717Y-123267100D01*
X121244277Y-123448708D01*
X120908708Y-123784277D01*
X120727100Y-124222717D01*
X119797900Y-124222717D01*
X119797900Y-121682717D01*
X120727100Y-121682717D01*
X120727100Y-122157283D01*
X120908708Y-122595723D01*
X121244277Y-122931292D01*
X121682717Y-123112900D01*
X122157283Y-123112900D01*
X122595723Y-122931292D01*
X122931292Y-122595723D01*
X123027731Y-122362900D01*
X123860085Y-122362900D01*
X123708708Y-122514277D01*
X123527100Y-122952717D01*
X123527100Y-123427283D01*
X123708708Y-123865723D01*
X124044277Y-124201292D01*
X124482717Y-124382900D01*
X124957283Y-124382900D01*
X125395723Y-124201292D01*
X125731292Y-123865723D01*
X125912900Y-123427283D01*
X125912900Y-122952717D01*
X125731292Y-122514277D01*
X125579915Y-122362900D01*
X132177992Y-122362900D01*
X132195504Y-122380412D01*
X132450174Y-122485900D01*
X132725826Y-122485900D01*
X132980496Y-122380412D01*
X133175412Y-122185496D01*
X133280900Y-121930826D01*
X133280900Y-121655174D01*
X133175412Y-121400504D01*
X132980496Y-121205588D01*
X132725826Y-121100100D01*
X132450174Y-121100100D01*
X132195504Y-121205588D01*
X132000588Y-121400504D01*
X131968861Y-121477100D01*
X125579915Y-121477100D01*
X125731292Y-121325723D01*
X125912900Y-120887283D01*
X125912900Y-120412717D01*
X125731292Y-119974277D01*
X125395723Y-119638708D01*
X124957283Y-119457100D01*
X124482717Y-119457100D01*
X124044277Y-119638708D01*
X123708708Y-119974277D01*
X123527100Y-120412717D01*
X123527100Y-120887283D01*
X123708708Y-121325723D01*
X123860085Y-121477100D01*
X123027731Y-121477100D01*
X122931292Y-121244277D01*
X122595723Y-120908708D01*
X122157283Y-120727100D01*
X121682717Y-120727100D01*
X121244277Y-120908708D01*
X120908708Y-121244277D01*
X120727100Y-121682717D01*
X119797900Y-121682717D01*
X119797900Y-119142717D01*
X120727100Y-119142717D01*
X120727100Y-119617283D01*
X120908708Y-120055723D01*
X121244277Y-120391292D01*
X121682717Y-120572900D01*
X122157283Y-120572900D01*
X122595723Y-120391292D01*
X122931292Y-120055723D01*
X123112900Y-119617283D01*
X123112900Y-119142717D01*
X122931292Y-118704277D01*
X122595723Y-118368708D01*
X122157283Y-118187100D01*
X121682717Y-118187100D01*
X121244277Y-118368708D01*
X120908708Y-118704277D01*
X120727100Y-119142717D01*
X119797900Y-119142717D01*
X119797900Y-116602717D01*
X120727100Y-116602717D01*
X120727100Y-117077283D01*
X120908708Y-117515723D01*
X121244277Y-117851292D01*
X121682717Y-118032900D01*
X122157283Y-118032900D01*
X122543998Y-117872717D01*
X123527100Y-117872717D01*
X123527100Y-118347283D01*
X123708708Y-118785723D01*
X124044277Y-119121292D01*
X124482717Y-119302900D01*
X124957283Y-119302900D01*
X125395723Y-119121292D01*
X125731292Y-118785723D01*
X125912900Y-118347283D01*
X125912900Y-117872717D01*
X125731292Y-117434277D01*
X125395723Y-117098708D01*
X124957283Y-116917100D01*
X124482717Y-116917100D01*
X124044277Y-117098708D01*
X123708708Y-117434277D01*
X123527100Y-117872717D01*
X122543998Y-117872717D01*
X122595723Y-117851292D01*
X122931292Y-117515723D01*
X123112900Y-117077283D01*
X123112900Y-116602717D01*
X122931292Y-116164277D01*
X122595723Y-115828708D01*
X122325374Y-115716726D01*
X122648111Y-115583045D01*
X122733599Y-115347086D01*
X122719230Y-115332717D01*
X123527100Y-115332717D01*
X123527100Y-115807283D01*
X123708708Y-116245723D01*
X124044277Y-116581292D01*
X124482717Y-116762900D01*
X124957283Y-116762900D01*
X125395723Y-116581292D01*
X125731292Y-116245723D01*
X125778946Y-116130674D01*
X126624600Y-116130674D01*
X126624600Y-116406326D01*
X126730088Y-116660996D01*
X126925004Y-116855912D01*
X127179674Y-116961400D01*
X127455326Y-116961400D01*
X127696638Y-116861445D01*
X127716996Y-116963793D01*
X127792783Y-117077217D01*
X127906207Y-117153004D01*
X128040000Y-117179617D01*
X129040000Y-117179617D01*
X129173793Y-117153004D01*
X129287217Y-117077217D01*
X129363004Y-116963793D01*
X129389617Y-116830000D01*
X129389617Y-116519325D01*
X129443100Y-116519325D01*
X129443100Y-116948731D01*
X129533972Y-117168117D01*
X129701883Y-117336027D01*
X129921269Y-117426900D01*
X130225675Y-117426900D01*
X130374900Y-117277675D01*
X130374900Y-116370100D01*
X130705100Y-116370100D01*
X130705100Y-117277675D01*
X130854325Y-117426900D01*
X131158731Y-117426900D01*
X131378117Y-117336027D01*
X131546028Y-117168117D01*
X131636900Y-116948731D01*
X131636900Y-116519325D01*
X131487675Y-116370100D01*
X130705100Y-116370100D01*
X130374900Y-116370100D01*
X129592325Y-116370100D01*
X129443100Y-116519325D01*
X129389617Y-116519325D01*
X129389617Y-115580000D01*
X129366001Y-115461269D01*
X129443100Y-115461269D01*
X129443100Y-115890675D01*
X129592325Y-116039900D01*
X130374900Y-116039900D01*
X130374900Y-115132325D01*
X130705100Y-115132325D01*
X130705100Y-116039900D01*
X131487675Y-116039900D01*
X131636900Y-115890675D01*
X131636900Y-115461269D01*
X131546028Y-115241883D01*
X131378117Y-115073973D01*
X131158731Y-114983100D01*
X130854325Y-114983100D01*
X130705100Y-115132325D01*
X130374900Y-115132325D01*
X130225675Y-114983100D01*
X129921269Y-114983100D01*
X129701883Y-115073973D01*
X129533972Y-115241883D01*
X129443100Y-115461269D01*
X129366001Y-115461269D01*
X129363004Y-115446207D01*
X129287217Y-115332783D01*
X129173793Y-115256996D01*
X129040000Y-115230383D01*
X128862900Y-115230383D01*
X128862900Y-114903617D01*
X129286000Y-114903617D01*
X129419793Y-114877004D01*
X129533217Y-114801217D01*
X129609004Y-114687793D01*
X129631196Y-114576225D01*
X136817100Y-114576225D01*
X136817100Y-114672731D01*
X136907973Y-114892117D01*
X137075883Y-115060028D01*
X137295269Y-115150900D01*
X138115675Y-115150900D01*
X138264900Y-115001675D01*
X138264900Y-114427000D01*
X138595100Y-114427000D01*
X138595100Y-115001675D01*
X138744325Y-115150900D01*
X139564731Y-115150900D01*
X139784117Y-115060028D01*
X139952027Y-114892117D01*
X140042900Y-114672731D01*
X140042900Y-114576225D01*
X139893675Y-114427000D01*
X138595100Y-114427000D01*
X138264900Y-114427000D01*
X136966325Y-114427000D01*
X136817100Y-114576225D01*
X129631196Y-114576225D01*
X129635617Y-114554000D01*
X129635617Y-114046000D01*
X129609004Y-113912207D01*
X129533217Y-113798783D01*
X129419793Y-113722996D01*
X129286000Y-113696383D01*
X128274515Y-113696383D01*
X128270000Y-113695485D01*
X128265485Y-113696383D01*
X127254000Y-113696383D01*
X127120207Y-113722996D01*
X127006783Y-113798783D01*
X126930996Y-113912207D01*
X126904383Y-114046000D01*
X126904383Y-114554000D01*
X126930996Y-114687793D01*
X127006783Y-114801217D01*
X127120207Y-114877004D01*
X127254000Y-114903617D01*
X127677100Y-114903617D01*
X127677101Y-115612100D01*
X127543445Y-115612100D01*
X127455326Y-115575600D01*
X127179674Y-115575600D01*
X126925004Y-115681088D01*
X126730088Y-115876004D01*
X126624600Y-116130674D01*
X125778946Y-116130674D01*
X125912900Y-115807283D01*
X125912900Y-115332717D01*
X125731292Y-114894277D01*
X125395723Y-114558708D01*
X124957283Y-114377100D01*
X124482717Y-114377100D01*
X124044277Y-114558708D01*
X123708708Y-114894277D01*
X123527100Y-115332717D01*
X122719230Y-115332717D01*
X121920000Y-114533487D01*
X121106401Y-115347086D01*
X121191889Y-115583045D01*
X121550572Y-115701837D01*
X121244277Y-115828708D01*
X120908708Y-116164277D01*
X120727100Y-116602717D01*
X119797900Y-116602717D01*
X119797900Y-114118312D01*
X120455986Y-114118312D01*
X120497899Y-114692397D01*
X120636955Y-115028111D01*
X120872914Y-115113599D01*
X121686513Y-114300000D01*
X122153487Y-114300000D01*
X122967086Y-115113599D01*
X123203045Y-115028111D01*
X123384014Y-114481688D01*
X123342101Y-113907603D01*
X123203045Y-113571889D01*
X122967086Y-113486401D01*
X122153487Y-114300000D01*
X121686513Y-114300000D01*
X120872914Y-113486401D01*
X120636955Y-113571889D01*
X120455986Y-114118312D01*
X119797900Y-114118312D01*
X119797900Y-106442717D01*
X120727100Y-106442717D01*
X120727100Y-106917283D01*
X120908708Y-107355723D01*
X121244277Y-107691292D01*
X121682717Y-107872900D01*
X122157283Y-107872900D01*
X122595723Y-107691292D01*
X122931292Y-107355723D01*
X123112900Y-106917283D01*
X123112900Y-106442717D01*
X122931292Y-106004277D01*
X122595723Y-105668708D01*
X122157283Y-105487100D01*
X121682717Y-105487100D01*
X121244277Y-105668708D01*
X120908708Y-106004277D01*
X120727100Y-106442717D01*
X119797900Y-106442717D01*
X119797900Y-103902717D01*
X120727100Y-103902717D01*
X120727100Y-104377283D01*
X120908708Y-104815723D01*
X121244277Y-105151292D01*
X121682717Y-105332900D01*
X122157283Y-105332900D01*
X122595723Y-105151292D01*
X122931292Y-104815723D01*
X123027731Y-104582900D01*
X123860085Y-104582900D01*
X123708708Y-104734277D01*
X123527100Y-105172717D01*
X123527100Y-105647283D01*
X123708708Y-106085723D01*
X124044277Y-106421292D01*
X124482717Y-106602900D01*
X124957283Y-106602900D01*
X125384356Y-106426000D01*
X126904383Y-106426000D01*
X126904383Y-106934000D01*
X126930996Y-107067793D01*
X127006783Y-107181217D01*
X127120207Y-107257004D01*
X127254000Y-107283617D01*
X129286000Y-107283617D01*
X129419793Y-107257004D01*
X129533217Y-107181217D01*
X129609004Y-107067793D01*
X129635617Y-106934000D01*
X129635617Y-106426000D01*
X129609004Y-106292207D01*
X129533217Y-106178783D01*
X129419793Y-106102996D01*
X129286000Y-106076383D01*
X127254000Y-106076383D01*
X127120207Y-106102996D01*
X127006783Y-106178783D01*
X126930996Y-106292207D01*
X126904383Y-106426000D01*
X125384356Y-106426000D01*
X125395723Y-106421292D01*
X125731292Y-106085723D01*
X125827731Y-105852900D01*
X126967817Y-105852900D01*
X127006783Y-105911217D01*
X127120207Y-105987004D01*
X127254000Y-106013617D01*
X129286000Y-106013617D01*
X129419793Y-105987004D01*
X129533217Y-105911217D01*
X129572183Y-105852900D01*
X133687387Y-105852900D01*
X133731000Y-105861575D01*
X133774613Y-105852900D01*
X133774618Y-105852900D01*
X133903811Y-105827202D01*
X133968370Y-105784064D01*
X133971486Y-105781983D01*
X134032588Y-105929496D01*
X134227504Y-106124412D01*
X134482174Y-106229900D01*
X134757826Y-106229900D01*
X135012496Y-106124412D01*
X135207412Y-105929496D01*
X135239139Y-105852900D01*
X137127817Y-105852900D01*
X137166783Y-105911217D01*
X137280207Y-105987004D01*
X137414000Y-106013617D01*
X139446000Y-106013617D01*
X139579793Y-105987004D01*
X139693217Y-105911217D01*
X139769004Y-105797793D01*
X139795617Y-105664000D01*
X139795617Y-105496972D01*
X139990980Y-105692335D01*
X140015688Y-105729312D01*
X140052664Y-105754019D01*
X140052665Y-105754020D01*
X140118176Y-105797793D01*
X140162189Y-105827202D01*
X140291382Y-105852900D01*
X140291386Y-105852900D01*
X140335000Y-105861575D01*
X140378613Y-105852900D01*
X141297745Y-105852900D01*
X140913545Y-106237100D01*
X139732183Y-106237100D01*
X139693217Y-106178783D01*
X139579793Y-106102996D01*
X139446000Y-106076383D01*
X137414000Y-106076383D01*
X137280207Y-106102996D01*
X137166783Y-106178783D01*
X137127817Y-106237100D01*
X136554008Y-106237100D01*
X136409496Y-106092588D01*
X136154826Y-105987100D01*
X135879174Y-105987100D01*
X135624504Y-106092588D01*
X135429588Y-106287504D01*
X135324100Y-106542174D01*
X135324100Y-106817826D01*
X135429588Y-107072496D01*
X135624504Y-107267412D01*
X135879174Y-107372900D01*
X136154826Y-107372900D01*
X136409496Y-107267412D01*
X136554008Y-107122900D01*
X137127817Y-107122900D01*
X137166783Y-107181217D01*
X137280207Y-107257004D01*
X137414000Y-107283617D01*
X139446000Y-107283617D01*
X139579793Y-107257004D01*
X139693217Y-107181217D01*
X139732183Y-107122900D01*
X141053387Y-107122900D01*
X141097000Y-107131575D01*
X141140613Y-107122900D01*
X141140618Y-107122900D01*
X141269811Y-107097202D01*
X141363680Y-107034480D01*
X141379335Y-107024020D01*
X141379336Y-107024019D01*
X141416312Y-106999312D01*
X141441019Y-106962336D01*
X141509383Y-106893972D01*
X141509383Y-106934000D01*
X141514085Y-106957639D01*
X141495689Y-106961298D01*
X141386164Y-107034480D01*
X141386161Y-107034483D01*
X141349188Y-107059188D01*
X141324483Y-107096161D01*
X140913545Y-107507100D01*
X139732183Y-107507100D01*
X139693217Y-107448783D01*
X139579793Y-107372996D01*
X139446000Y-107346383D01*
X137414000Y-107346383D01*
X137280207Y-107372996D01*
X137166783Y-107448783D01*
X137090996Y-107562207D01*
X137064383Y-107696000D01*
X137064383Y-108204000D01*
X137090996Y-108337793D01*
X137166783Y-108451217D01*
X137280207Y-108527004D01*
X137414000Y-108553617D01*
X139446000Y-108553617D01*
X139579793Y-108527004D01*
X139693217Y-108451217D01*
X139732183Y-108392900D01*
X141053387Y-108392900D01*
X141097000Y-108401575D01*
X141140613Y-108392900D01*
X141140618Y-108392900D01*
X141269811Y-108367202D01*
X141363680Y-108304480D01*
X141379335Y-108294020D01*
X141379336Y-108294019D01*
X141416312Y-108269312D01*
X141441020Y-108232335D01*
X141509383Y-108163972D01*
X141509383Y-108204000D01*
X141514085Y-108227639D01*
X141495689Y-108231298D01*
X141386164Y-108304480D01*
X141386161Y-108304483D01*
X141349188Y-108329188D01*
X141324483Y-108366161D01*
X140913545Y-108777100D01*
X139732183Y-108777100D01*
X139693217Y-108718783D01*
X139579793Y-108642996D01*
X139446000Y-108616383D01*
X137414000Y-108616383D01*
X137280207Y-108642996D01*
X137166783Y-108718783D01*
X137090996Y-108832207D01*
X137064383Y-108966000D01*
X137064383Y-109412100D01*
X131183955Y-109412100D01*
X130709519Y-108937664D01*
X130684812Y-108900688D01*
X130647836Y-108875981D01*
X130647835Y-108875980D01*
X130582324Y-108832207D01*
X130538311Y-108802798D01*
X130409118Y-108777100D01*
X130409113Y-108777100D01*
X130365500Y-108768425D01*
X130321887Y-108777100D01*
X129572183Y-108777100D01*
X129533217Y-108718783D01*
X129419793Y-108642996D01*
X129286000Y-108616383D01*
X127403739Y-108616383D01*
X127340973Y-108553617D01*
X129286000Y-108553617D01*
X129419793Y-108527004D01*
X129533217Y-108451217D01*
X129609004Y-108337793D01*
X129635617Y-108204000D01*
X129635617Y-107696000D01*
X129609004Y-107562207D01*
X129533217Y-107448783D01*
X129419793Y-107372996D01*
X129286000Y-107346383D01*
X127254000Y-107346383D01*
X127120207Y-107372996D01*
X127006783Y-107448783D01*
X126930996Y-107562207D01*
X126904383Y-107696000D01*
X126904383Y-108117028D01*
X126455019Y-107667663D01*
X126430312Y-107630688D01*
X126393336Y-107605981D01*
X126393335Y-107605980D01*
X126327824Y-107562207D01*
X126283811Y-107532798D01*
X126154618Y-107507100D01*
X126154613Y-107507100D01*
X126111000Y-107498425D01*
X126067387Y-107507100D01*
X125827731Y-107507100D01*
X125731292Y-107274277D01*
X125395723Y-106938708D01*
X124957283Y-106757100D01*
X124482717Y-106757100D01*
X124044277Y-106938708D01*
X123708708Y-107274277D01*
X123527100Y-107712717D01*
X123527100Y-108187283D01*
X123708708Y-108625723D01*
X123860085Y-108777100D01*
X123027731Y-108777100D01*
X122931292Y-108544277D01*
X122595723Y-108208708D01*
X122157283Y-108027100D01*
X121682717Y-108027100D01*
X121244277Y-108208708D01*
X120908708Y-108544277D01*
X120727100Y-108982717D01*
X120727100Y-109457283D01*
X120908708Y-109895723D01*
X121244277Y-110231292D01*
X121682717Y-110412900D01*
X122157283Y-110412900D01*
X122595723Y-110231292D01*
X122931292Y-109895723D01*
X123027731Y-109662900D01*
X123860085Y-109662900D01*
X123708708Y-109814277D01*
X123527100Y-110252717D01*
X123527100Y-110727283D01*
X123708708Y-111165723D01*
X123860085Y-111317100D01*
X123027731Y-111317100D01*
X122931292Y-111084277D01*
X122595723Y-110748708D01*
X122157283Y-110567100D01*
X121682717Y-110567100D01*
X121244277Y-110748708D01*
X120908708Y-111084277D01*
X120727100Y-111522717D01*
X120727100Y-111997283D01*
X120908708Y-112435723D01*
X121244277Y-112771292D01*
X121514626Y-112883274D01*
X121191889Y-113016955D01*
X121106401Y-113252914D01*
X121920000Y-114066513D01*
X122733599Y-113252914D01*
X122648111Y-113016955D01*
X122289428Y-112898163D01*
X122595723Y-112771292D01*
X122931292Y-112435723D01*
X123027731Y-112202900D01*
X123860085Y-112202900D01*
X123708708Y-112354277D01*
X123527100Y-112792717D01*
X123527100Y-113267283D01*
X123708708Y-113705723D01*
X124044277Y-114041292D01*
X124482717Y-114222900D01*
X124957283Y-114222900D01*
X125395723Y-114041292D01*
X125731292Y-113705723D01*
X125912900Y-113267283D01*
X125912900Y-112792717D01*
X125731292Y-112354277D01*
X125579915Y-112202900D01*
X125864045Y-112202900D01*
X126904383Y-113243239D01*
X126904383Y-113284000D01*
X126930996Y-113417793D01*
X127006783Y-113531217D01*
X127120207Y-113607004D01*
X127254000Y-113633617D01*
X129286000Y-113633617D01*
X129419793Y-113607004D01*
X129533217Y-113531217D01*
X129572183Y-113472900D01*
X129991545Y-113472900D01*
X130465981Y-113947336D01*
X130490688Y-113984312D01*
X130527664Y-114009019D01*
X130527665Y-114009020D01*
X130613709Y-114066513D01*
X130637189Y-114082202D01*
X130766382Y-114107900D01*
X130766386Y-114107900D01*
X130810000Y-114116575D01*
X130853613Y-114107900D01*
X136901225Y-114107900D01*
X136966325Y-114173000D01*
X138264900Y-114173000D01*
X138264900Y-114114900D01*
X138595100Y-114114900D01*
X138595100Y-114173000D01*
X139893675Y-114173000D01*
X139958775Y-114107900D01*
X141434387Y-114107900D01*
X141478000Y-114116575D01*
X141509383Y-114110333D01*
X141509383Y-114554000D01*
X141535996Y-114687793D01*
X141611783Y-114801217D01*
X141725207Y-114877004D01*
X141859000Y-114903617D01*
X142282100Y-114903617D01*
X142282101Y-115577660D01*
X142123826Y-115512100D01*
X141848174Y-115512100D01*
X141593504Y-115617588D01*
X141398588Y-115812504D01*
X141293100Y-116067174D01*
X141293100Y-116342826D01*
X141398588Y-116597496D01*
X141593504Y-116792412D01*
X141848174Y-116897900D01*
X142123826Y-116897900D01*
X142295383Y-116826839D01*
X142295383Y-116830000D01*
X142321996Y-116963793D01*
X142397783Y-117077217D01*
X142511207Y-117153004D01*
X142645000Y-117179617D01*
X143645000Y-117179617D01*
X143778793Y-117153004D01*
X143892217Y-117077217D01*
X143968004Y-116963793D01*
X143994617Y-116830000D01*
X143994617Y-116519325D01*
X144048100Y-116519325D01*
X144048100Y-116948731D01*
X144138972Y-117168117D01*
X144306883Y-117336027D01*
X144526269Y-117426900D01*
X144830675Y-117426900D01*
X144979900Y-117277675D01*
X144979900Y-116370100D01*
X145310100Y-116370100D01*
X145310100Y-117277675D01*
X145459325Y-117426900D01*
X145763731Y-117426900D01*
X145983117Y-117336027D01*
X146151028Y-117168117D01*
X146241900Y-116948731D01*
X146241900Y-116519325D01*
X146092675Y-116370100D01*
X145310100Y-116370100D01*
X144979900Y-116370100D01*
X144197325Y-116370100D01*
X144048100Y-116519325D01*
X143994617Y-116519325D01*
X143994617Y-115580000D01*
X143971001Y-115461269D01*
X144048100Y-115461269D01*
X144048100Y-115890675D01*
X144197325Y-116039900D01*
X144979900Y-116039900D01*
X144979900Y-115132325D01*
X145310100Y-115132325D01*
X145310100Y-116039900D01*
X146092675Y-116039900D01*
X146241900Y-115890675D01*
X146241900Y-115461269D01*
X146151028Y-115241883D01*
X145983117Y-115073973D01*
X145763731Y-114983100D01*
X145459325Y-114983100D01*
X145310100Y-115132325D01*
X144979900Y-115132325D01*
X144830675Y-114983100D01*
X144526269Y-114983100D01*
X144306883Y-115073973D01*
X144138972Y-115241883D01*
X144048100Y-115461269D01*
X143971001Y-115461269D01*
X143968004Y-115446207D01*
X143892217Y-115332783D01*
X143778793Y-115256996D01*
X143645000Y-115230383D01*
X143467900Y-115230383D01*
X143467900Y-114903617D01*
X143891000Y-114903617D01*
X144024793Y-114877004D01*
X144138217Y-114801217D01*
X144214004Y-114687793D01*
X144236196Y-114576225D01*
X151422100Y-114576225D01*
X151422100Y-114672731D01*
X151512973Y-114892117D01*
X151680883Y-115060028D01*
X151900269Y-115150900D01*
X152720675Y-115150900D01*
X152869900Y-115001675D01*
X152869900Y-114427000D01*
X151571325Y-114427000D01*
X151422100Y-114576225D01*
X144236196Y-114576225D01*
X144240617Y-114554000D01*
X144240617Y-114046000D01*
X144214004Y-113912207D01*
X144138217Y-113798783D01*
X144024793Y-113722996D01*
X143891000Y-113696383D01*
X142879515Y-113696383D01*
X142875000Y-113695485D01*
X142870485Y-113696383D01*
X142072972Y-113696383D01*
X142135738Y-113633617D01*
X143891000Y-113633617D01*
X144024793Y-113607004D01*
X144138217Y-113531217D01*
X144214004Y-113417793D01*
X144240617Y-113284000D01*
X144240617Y-113186973D01*
X144365983Y-113312339D01*
X144390688Y-113349312D01*
X144427661Y-113374017D01*
X144427664Y-113374020D01*
X144500214Y-113422496D01*
X144537189Y-113447202D01*
X144666382Y-113472900D01*
X144666386Y-113472900D01*
X144709999Y-113481575D01*
X144753613Y-113472900D01*
X149322992Y-113472900D01*
X149467504Y-113617412D01*
X149722174Y-113722900D01*
X149997826Y-113722900D01*
X150252496Y-113617412D01*
X150397008Y-113472900D01*
X151732817Y-113472900D01*
X151756660Y-113508584D01*
X151680883Y-113539972D01*
X151512973Y-113707883D01*
X151422100Y-113927269D01*
X151422100Y-114023775D01*
X151571325Y-114173000D01*
X152869900Y-114173000D01*
X152869900Y-114114900D01*
X153200100Y-114114900D01*
X153200100Y-114173000D01*
X153220100Y-114173000D01*
X153220100Y-114427000D01*
X153200100Y-114427000D01*
X153200100Y-115001675D01*
X153349325Y-115150900D01*
X154116101Y-115150900D01*
X154116101Y-122641381D01*
X154107425Y-122685000D01*
X154141798Y-122857810D01*
X154214980Y-122967335D01*
X154214984Y-122967339D01*
X154239689Y-123004312D01*
X154276661Y-123029017D01*
X155237539Y-123989894D01*
X155141100Y-124222717D01*
X155141100Y-124697283D01*
X155322708Y-125135723D01*
X155658277Y-125471292D01*
X156096717Y-125652900D01*
X156571283Y-125652900D01*
X156957998Y-125492717D01*
X157941100Y-125492717D01*
X157941100Y-125967283D01*
X158122708Y-126405723D01*
X158458277Y-126741292D01*
X158896717Y-126922900D01*
X159371283Y-126922900D01*
X159809723Y-126741292D01*
X160145292Y-126405723D01*
X160326900Y-125967283D01*
X160326900Y-125492717D01*
X160145292Y-125054277D01*
X159809723Y-124718708D01*
X159371283Y-124537100D01*
X158896717Y-124537100D01*
X158458277Y-124718708D01*
X158122708Y-125054277D01*
X157941100Y-125492717D01*
X156957998Y-125492717D01*
X157009723Y-125471292D01*
X157345292Y-125135723D01*
X157526900Y-124697283D01*
X157526900Y-124222717D01*
X157345292Y-123784277D01*
X157193915Y-123632900D01*
X158026269Y-123632900D01*
X158122708Y-123865723D01*
X158458277Y-124201292D01*
X158896717Y-124382900D01*
X159371283Y-124382900D01*
X159809723Y-124201292D01*
X160145292Y-123865723D01*
X160326900Y-123427283D01*
X160326900Y-122952717D01*
X160145292Y-122514277D01*
X159809723Y-122178708D01*
X159371283Y-121997100D01*
X158896717Y-121997100D01*
X158458277Y-122178708D01*
X158122708Y-122514277D01*
X158026269Y-122747100D01*
X157193915Y-122747100D01*
X157345292Y-122595723D01*
X157526900Y-122157283D01*
X157526900Y-121682717D01*
X157345292Y-121244277D01*
X157009723Y-120908708D01*
X156571283Y-120727100D01*
X156096717Y-120727100D01*
X155658277Y-120908708D01*
X155509900Y-121057085D01*
X155509900Y-120242915D01*
X155658277Y-120391292D01*
X156096717Y-120572900D01*
X156571283Y-120572900D01*
X156957998Y-120412717D01*
X157941100Y-120412717D01*
X157941100Y-120887283D01*
X158122708Y-121325723D01*
X158458277Y-121661292D01*
X158896717Y-121842900D01*
X159371283Y-121842900D01*
X159809723Y-121661292D01*
X160145292Y-121325723D01*
X160326900Y-120887283D01*
X160326900Y-120412717D01*
X160145292Y-119974277D01*
X159809723Y-119638708D01*
X159371283Y-119457100D01*
X158896717Y-119457100D01*
X158458277Y-119638708D01*
X158122708Y-119974277D01*
X157941100Y-120412717D01*
X156957998Y-120412717D01*
X157009723Y-120391292D01*
X157345292Y-120055723D01*
X157526900Y-119617283D01*
X157526900Y-119142717D01*
X157345292Y-118704277D01*
X157009723Y-118368708D01*
X156571283Y-118187100D01*
X156096717Y-118187100D01*
X155658277Y-118368708D01*
X155509900Y-118517085D01*
X155509900Y-117702915D01*
X155658277Y-117851292D01*
X156096717Y-118032900D01*
X156571283Y-118032900D01*
X156957998Y-117872717D01*
X157941100Y-117872717D01*
X157941100Y-118347283D01*
X158122708Y-118785723D01*
X158458277Y-119121292D01*
X158896717Y-119302900D01*
X159371283Y-119302900D01*
X159809723Y-119121292D01*
X160145292Y-118785723D01*
X160326900Y-118347283D01*
X160326900Y-117872717D01*
X160145292Y-117434277D01*
X159809723Y-117098708D01*
X159371283Y-116917100D01*
X158896717Y-116917100D01*
X158458277Y-117098708D01*
X158122708Y-117434277D01*
X157941100Y-117872717D01*
X156957998Y-117872717D01*
X157009723Y-117851292D01*
X157345292Y-117515723D01*
X157526900Y-117077283D01*
X157526900Y-116602717D01*
X157345292Y-116164277D01*
X157009723Y-115828708D01*
X156739374Y-115716726D01*
X157062111Y-115583045D01*
X157147599Y-115347086D01*
X157133230Y-115332717D01*
X157941100Y-115332717D01*
X157941100Y-115807283D01*
X158122708Y-116245723D01*
X158458277Y-116581292D01*
X158896717Y-116762900D01*
X159371283Y-116762900D01*
X159809723Y-116581292D01*
X160145292Y-116245723D01*
X160326900Y-115807283D01*
X160326900Y-115332717D01*
X160145292Y-114894277D01*
X159809723Y-114558708D01*
X159371283Y-114377100D01*
X158896717Y-114377100D01*
X158458277Y-114558708D01*
X158122708Y-114894277D01*
X157941100Y-115332717D01*
X157133230Y-115332717D01*
X156334000Y-114533487D01*
X156319858Y-114547629D01*
X156086371Y-114314142D01*
X156100513Y-114300000D01*
X156567487Y-114300000D01*
X157381086Y-115113599D01*
X157617045Y-115028111D01*
X157798014Y-114481688D01*
X157756101Y-113907603D01*
X157617045Y-113571889D01*
X157381086Y-113486401D01*
X156567487Y-114300000D01*
X156100513Y-114300000D01*
X156086371Y-114285858D01*
X156319858Y-114052371D01*
X156334000Y-114066513D01*
X157147599Y-113252914D01*
X157062111Y-113016955D01*
X156703428Y-112898163D01*
X156957998Y-112792717D01*
X157941100Y-112792717D01*
X157941100Y-113267283D01*
X158122708Y-113705723D01*
X158458277Y-114041292D01*
X158896717Y-114222900D01*
X159371283Y-114222900D01*
X159809723Y-114041292D01*
X160145292Y-113705723D01*
X160326900Y-113267283D01*
X160326900Y-112792717D01*
X160145292Y-112354277D01*
X159809723Y-112018708D01*
X159371283Y-111837100D01*
X158896717Y-111837100D01*
X158458277Y-112018708D01*
X158122708Y-112354277D01*
X157941100Y-112792717D01*
X156957998Y-112792717D01*
X157009723Y-112771292D01*
X157345292Y-112435723D01*
X157526900Y-111997283D01*
X157526900Y-111522717D01*
X157345292Y-111084277D01*
X157009723Y-110748708D01*
X156571283Y-110567100D01*
X156096717Y-110567100D01*
X155658277Y-110748708D01*
X155509900Y-110897085D01*
X155509900Y-110082915D01*
X155658277Y-110231292D01*
X156096717Y-110412900D01*
X156571283Y-110412900D01*
X156957998Y-110252717D01*
X157941100Y-110252717D01*
X157941100Y-110727283D01*
X158122708Y-111165723D01*
X158458277Y-111501292D01*
X158896717Y-111682900D01*
X159371283Y-111682900D01*
X159809723Y-111501292D01*
X160145292Y-111165723D01*
X160326900Y-110727283D01*
X160326900Y-110252717D01*
X160145292Y-109814277D01*
X159809723Y-109478708D01*
X159371283Y-109297100D01*
X158896717Y-109297100D01*
X158458277Y-109478708D01*
X158122708Y-109814277D01*
X157941100Y-110252717D01*
X156957998Y-110252717D01*
X157009723Y-110231292D01*
X157345292Y-109895723D01*
X157526900Y-109457283D01*
X157526900Y-108982717D01*
X157345292Y-108544277D01*
X157009723Y-108208708D01*
X156571283Y-108027100D01*
X156096717Y-108027100D01*
X155658277Y-108208708D01*
X155509900Y-108357085D01*
X155509900Y-107542915D01*
X155658277Y-107691292D01*
X156096717Y-107872900D01*
X156571283Y-107872900D01*
X156957998Y-107712717D01*
X157941100Y-107712717D01*
X157941100Y-108187283D01*
X158122708Y-108625723D01*
X158458277Y-108961292D01*
X158896717Y-109142900D01*
X159371283Y-109142900D01*
X159809723Y-108961292D01*
X160145292Y-108625723D01*
X160326900Y-108187283D01*
X160326900Y-107712717D01*
X160145292Y-107274277D01*
X159809723Y-106938708D01*
X159371283Y-106757100D01*
X158896717Y-106757100D01*
X158458277Y-106938708D01*
X158122708Y-107274277D01*
X157941100Y-107712717D01*
X156957998Y-107712717D01*
X157009723Y-107691292D01*
X157345292Y-107355723D01*
X157526900Y-106917283D01*
X157526900Y-106442717D01*
X157345292Y-106004277D01*
X157009723Y-105668708D01*
X156571283Y-105487100D01*
X156096717Y-105487100D01*
X155658277Y-105668708D01*
X155509900Y-105817085D01*
X155509900Y-105002915D01*
X155658277Y-105151292D01*
X156096717Y-105332900D01*
X156571283Y-105332900D01*
X156957998Y-105172717D01*
X157941100Y-105172717D01*
X157941100Y-105647283D01*
X158122708Y-106085723D01*
X158458277Y-106421292D01*
X158896717Y-106602900D01*
X159371283Y-106602900D01*
X159809723Y-106421292D01*
X160145292Y-106085723D01*
X160326900Y-105647283D01*
X160326900Y-105172717D01*
X160145292Y-104734277D01*
X159809723Y-104398708D01*
X159371283Y-104217100D01*
X158896717Y-104217100D01*
X158458277Y-104398708D01*
X158122708Y-104734277D01*
X157941100Y-105172717D01*
X156957998Y-105172717D01*
X157009723Y-105151292D01*
X157345292Y-104815723D01*
X157526900Y-104377283D01*
X157526900Y-103902717D01*
X157345292Y-103464277D01*
X157009723Y-103128708D01*
X156571283Y-102947100D01*
X156096717Y-102947100D01*
X155658277Y-103128708D01*
X155509900Y-103277085D01*
X155509900Y-103167613D01*
X155518575Y-103123999D01*
X155509900Y-103080383D01*
X155509900Y-103080382D01*
X155484202Y-102951189D01*
X155386312Y-102804688D01*
X155349337Y-102779982D01*
X155157019Y-102587664D01*
X155132312Y-102550688D01*
X155095336Y-102525981D01*
X155095335Y-102525980D01*
X155029824Y-102482207D01*
X154985811Y-102452798D01*
X154856618Y-102427100D01*
X154856613Y-102427100D01*
X154813000Y-102418425D01*
X154769387Y-102427100D01*
X154337183Y-102427100D01*
X154298217Y-102368783D01*
X154184793Y-102292996D01*
X154051000Y-102266383D01*
X152019000Y-102266383D01*
X151885207Y-102292996D01*
X151771783Y-102368783D01*
X151695996Y-102482207D01*
X151669383Y-102616000D01*
X151669383Y-103124000D01*
X151695996Y-103257793D01*
X151771783Y-103371217D01*
X151885207Y-103447004D01*
X152019000Y-103473617D01*
X154051000Y-103473617D01*
X154184793Y-103447004D01*
X154298217Y-103371217D01*
X154337183Y-103312900D01*
X154624100Y-103312900D01*
X154624100Y-103820546D01*
X154587336Y-103795981D01*
X154587335Y-103795980D01*
X154521824Y-103752207D01*
X154477811Y-103722798D01*
X154348618Y-103697100D01*
X154348613Y-103697100D01*
X154335431Y-103694478D01*
X154298217Y-103638783D01*
X154184793Y-103562996D01*
X154051000Y-103536383D01*
X152019000Y-103536383D01*
X151885207Y-103562996D01*
X151771783Y-103638783D01*
X151695996Y-103752207D01*
X151669383Y-103886000D01*
X151669383Y-104394000D01*
X151695996Y-104527793D01*
X151771783Y-104641217D01*
X151885207Y-104717004D01*
X152019000Y-104743617D01*
X154051000Y-104743617D01*
X154116100Y-104730668D01*
X154116100Y-104819332D01*
X154051000Y-104806383D01*
X152019000Y-104806383D01*
X151885207Y-104832996D01*
X151771783Y-104908783D01*
X151732817Y-104967100D01*
X146206008Y-104967100D01*
X146188496Y-104949588D01*
X145933826Y-104844100D01*
X145658174Y-104844100D01*
X145403504Y-104949588D01*
X145208588Y-105144504D01*
X145103100Y-105399174D01*
X145103100Y-105674826D01*
X145208588Y-105929496D01*
X145403504Y-106124412D01*
X145658174Y-106229900D01*
X145933826Y-106229900D01*
X146188496Y-106124412D01*
X146383412Y-105929496D01*
X146415139Y-105852900D01*
X151732817Y-105852900D01*
X151771783Y-105911217D01*
X151885207Y-105987004D01*
X152019000Y-106013617D01*
X154051000Y-106013617D01*
X154116100Y-106000668D01*
X154116100Y-106089332D01*
X154051000Y-106076383D01*
X152019000Y-106076383D01*
X151885207Y-106102996D01*
X151771783Y-106178783D01*
X151732817Y-106237100D01*
X144836455Y-106237100D01*
X144362019Y-105762664D01*
X144337312Y-105725688D01*
X144300336Y-105700981D01*
X144300335Y-105700980D01*
X144244990Y-105664000D01*
X144240617Y-105661078D01*
X144240617Y-105156000D01*
X144214004Y-105022207D01*
X144138217Y-104908783D01*
X144024793Y-104832996D01*
X143891000Y-104806383D01*
X141859000Y-104806383D01*
X141725207Y-104832996D01*
X141611783Y-104908783D01*
X141572817Y-104967100D01*
X140518455Y-104967100D01*
X140044019Y-104492664D01*
X140019312Y-104455688D01*
X139982336Y-104430981D01*
X139982335Y-104430980D01*
X139926989Y-104393999D01*
X139872811Y-104357798D01*
X139795617Y-104342443D01*
X139795617Y-104099972D01*
X140117980Y-104422335D01*
X140142688Y-104459312D01*
X140179664Y-104484019D01*
X140179665Y-104484020D01*
X140245176Y-104527793D01*
X140289189Y-104557202D01*
X140418382Y-104582900D01*
X140418386Y-104582900D01*
X140462000Y-104591575D01*
X140505613Y-104582900D01*
X141572817Y-104582900D01*
X141611783Y-104641217D01*
X141725207Y-104717004D01*
X141859000Y-104743617D01*
X143891000Y-104743617D01*
X144024793Y-104717004D01*
X144138217Y-104641217D01*
X144214004Y-104527793D01*
X144240617Y-104394000D01*
X144240617Y-103886000D01*
X144214004Y-103752207D01*
X144138217Y-103638783D01*
X144024793Y-103562996D01*
X143891000Y-103536383D01*
X141859000Y-103536383D01*
X141725207Y-103562996D01*
X141611783Y-103638783D01*
X141572817Y-103697100D01*
X140645455Y-103697100D01*
X140171019Y-103222664D01*
X140146312Y-103185688D01*
X140109336Y-103160981D01*
X140109335Y-103160980D01*
X140053989Y-103123999D01*
X139999811Y-103087798D01*
X139870618Y-103062100D01*
X139870613Y-103062100D01*
X139827000Y-103053425D01*
X139795617Y-103059667D01*
X139795617Y-102616000D01*
X141509383Y-102616000D01*
X141509383Y-103124000D01*
X141535996Y-103257793D01*
X141611783Y-103371217D01*
X141725207Y-103447004D01*
X141859000Y-103473617D01*
X143891000Y-103473617D01*
X144024793Y-103447004D01*
X144138217Y-103371217D01*
X144214004Y-103257793D01*
X144240617Y-103124000D01*
X144240617Y-102616000D01*
X144214004Y-102482207D01*
X144138217Y-102368783D01*
X144024793Y-102292996D01*
X143891000Y-102266383D01*
X141859000Y-102266383D01*
X141725207Y-102292996D01*
X141611783Y-102368783D01*
X141535996Y-102482207D01*
X141509383Y-102616000D01*
X139795617Y-102616000D01*
X139769004Y-102482207D01*
X139693217Y-102368783D01*
X139579793Y-102292996D01*
X139446000Y-102266383D01*
X137414000Y-102266383D01*
X137280207Y-102292996D01*
X137166783Y-102368783D01*
X137127817Y-102427100D01*
X135417419Y-102427100D01*
X135439900Y-102372826D01*
X135439900Y-102097174D01*
X135334412Y-101842504D01*
X135139496Y-101647588D01*
X134884826Y-101542100D01*
X134609174Y-101542100D01*
X134354504Y-101647588D01*
X134209992Y-101792100D01*
X129635617Y-101792100D01*
X129635617Y-101346000D01*
X137064383Y-101346000D01*
X137064383Y-101854000D01*
X137090996Y-101987793D01*
X137166783Y-102101217D01*
X137280207Y-102177004D01*
X137414000Y-102203617D01*
X139446000Y-102203617D01*
X139579793Y-102177004D01*
X139693217Y-102101217D01*
X139769004Y-101987793D01*
X139795617Y-101854000D01*
X139795617Y-101346000D01*
X141509383Y-101346000D01*
X141509383Y-101854000D01*
X141535996Y-101987793D01*
X141611783Y-102101217D01*
X141725207Y-102177004D01*
X141859000Y-102203617D01*
X143891000Y-102203617D01*
X144024793Y-102177004D01*
X144138217Y-102101217D01*
X144214004Y-101987793D01*
X144240617Y-101854000D01*
X144240617Y-101346000D01*
X151669383Y-101346000D01*
X151669383Y-101854000D01*
X151695996Y-101987793D01*
X151771783Y-102101217D01*
X151885207Y-102177004D01*
X152019000Y-102203617D01*
X154051000Y-102203617D01*
X154184793Y-102177004D01*
X154298217Y-102101217D01*
X154374004Y-101987793D01*
X154400617Y-101854000D01*
X154400617Y-101346000D01*
X154374004Y-101212207D01*
X154298217Y-101098783D01*
X154184793Y-101022996D01*
X154051000Y-100996383D01*
X152019000Y-100996383D01*
X151885207Y-101022996D01*
X151771783Y-101098783D01*
X151695996Y-101212207D01*
X151669383Y-101346000D01*
X144240617Y-101346000D01*
X144214004Y-101212207D01*
X144138217Y-101098783D01*
X144024793Y-101022996D01*
X143891000Y-100996383D01*
X141859000Y-100996383D01*
X141725207Y-101022996D01*
X141611783Y-101098783D01*
X141535996Y-101212207D01*
X141509383Y-101346000D01*
X139795617Y-101346000D01*
X139769004Y-101212207D01*
X139693217Y-101098783D01*
X139579793Y-101022996D01*
X139446000Y-100996383D01*
X137414000Y-100996383D01*
X137280207Y-101022996D01*
X137166783Y-101098783D01*
X137090996Y-101212207D01*
X137064383Y-101346000D01*
X129635617Y-101346000D01*
X129609004Y-101212207D01*
X129533217Y-101098783D01*
X129419793Y-101022996D01*
X129286000Y-100996383D01*
X127254000Y-100996383D01*
X127120207Y-101022996D01*
X127006783Y-101098783D01*
X126930996Y-101212207D01*
X126904383Y-101346000D01*
X126904383Y-101792100D01*
X126535613Y-101792100D01*
X126492000Y-101783425D01*
X126448386Y-101792100D01*
X126448382Y-101792100D01*
X126319189Y-101817798D01*
X126209665Y-101890980D01*
X126209664Y-101890981D01*
X126172688Y-101915688D01*
X126147981Y-101952664D01*
X125782571Y-102318074D01*
X125731292Y-102194277D01*
X125395723Y-101858708D01*
X124957283Y-101677100D01*
X124482717Y-101677100D01*
X124044277Y-101858708D01*
X123708708Y-102194277D01*
X123527100Y-102632717D01*
X123527100Y-103107283D01*
X123708708Y-103545723D01*
X123860085Y-103697100D01*
X123027731Y-103697100D01*
X122931292Y-103464277D01*
X122595723Y-103128708D01*
X122157283Y-102947100D01*
X121682717Y-102947100D01*
X121244277Y-103128708D01*
X120908708Y-103464277D01*
X120727100Y-103902717D01*
X119797900Y-103902717D01*
X119797900Y-101362717D01*
X120727100Y-101362717D01*
X120727100Y-101837283D01*
X120908708Y-102275723D01*
X121244277Y-102611292D01*
X121682717Y-102792900D01*
X122157283Y-102792900D01*
X122595723Y-102611292D01*
X122931292Y-102275723D01*
X123112900Y-101837283D01*
X123112900Y-101362717D01*
X122931292Y-100924277D01*
X122595723Y-100588708D01*
X122157283Y-100407100D01*
X121682717Y-100407100D01*
X121244277Y-100588708D01*
X120908708Y-100924277D01*
X120727100Y-101362717D01*
X119797900Y-101362717D01*
X119797900Y-91202717D01*
X120727100Y-91202717D01*
X120727100Y-91677283D01*
X120908708Y-92115723D01*
X121244277Y-92451292D01*
X121682717Y-92632900D01*
X122157283Y-92632900D01*
X122595723Y-92451292D01*
X122931292Y-92115723D01*
X123027731Y-91882900D01*
X123860085Y-91882900D01*
X123708708Y-92034277D01*
X123527100Y-92472717D01*
X123527100Y-92947283D01*
X123708708Y-93385723D01*
X123860085Y-93537100D01*
X123027731Y-93537100D01*
X122931292Y-93304277D01*
X122595723Y-92968708D01*
X122157283Y-92787100D01*
X121682717Y-92787100D01*
X121244277Y-92968708D01*
X120908708Y-93304277D01*
X120727100Y-93742717D01*
X120727100Y-94217283D01*
X120908708Y-94655723D01*
X121244277Y-94991292D01*
X121682717Y-95172900D01*
X122157283Y-95172900D01*
X122595723Y-94991292D01*
X122931292Y-94655723D01*
X123027731Y-94422900D01*
X123860085Y-94422900D01*
X123708708Y-94574277D01*
X123527100Y-95012717D01*
X123527100Y-95487283D01*
X123708708Y-95925723D01*
X123860085Y-96077100D01*
X123027731Y-96077100D01*
X122931292Y-95844277D01*
X122595723Y-95508708D01*
X122157283Y-95327100D01*
X121682717Y-95327100D01*
X121244277Y-95508708D01*
X120908708Y-95844277D01*
X120727100Y-96282717D01*
X120727100Y-96757283D01*
X120908708Y-97195723D01*
X121244277Y-97531292D01*
X121682717Y-97712900D01*
X122157283Y-97712900D01*
X122595723Y-97531292D01*
X122931292Y-97195723D01*
X123027731Y-96962900D01*
X123860085Y-96962900D01*
X123708708Y-97114277D01*
X123527100Y-97552717D01*
X123527100Y-98027283D01*
X123708708Y-98465723D01*
X123860085Y-98617100D01*
X123027731Y-98617100D01*
X122931292Y-98384277D01*
X122595723Y-98048708D01*
X122157283Y-97867100D01*
X121682717Y-97867100D01*
X121244277Y-98048708D01*
X120908708Y-98384277D01*
X120727100Y-98822717D01*
X120727100Y-99297283D01*
X120908708Y-99735723D01*
X121244277Y-100071292D01*
X121682717Y-100252900D01*
X122157283Y-100252900D01*
X122595723Y-100071292D01*
X122931292Y-99735723D01*
X123027731Y-99502900D01*
X123860085Y-99502900D01*
X123708708Y-99654277D01*
X123527100Y-100092717D01*
X123527100Y-100567283D01*
X123708708Y-101005723D01*
X124044277Y-101341292D01*
X124482717Y-101522900D01*
X124957283Y-101522900D01*
X125395723Y-101341292D01*
X125731292Y-101005723D01*
X125827731Y-100772900D01*
X126967817Y-100772900D01*
X127006783Y-100831217D01*
X127120207Y-100907004D01*
X127254000Y-100933617D01*
X129286000Y-100933617D01*
X129419793Y-100907004D01*
X129533217Y-100831217D01*
X129609004Y-100717793D01*
X129635617Y-100584000D01*
X129635617Y-100076000D01*
X129609004Y-99942207D01*
X129533217Y-99828783D01*
X129419793Y-99752996D01*
X129286000Y-99726383D01*
X127254000Y-99726383D01*
X127120207Y-99752996D01*
X127006783Y-99828783D01*
X126967817Y-99887100D01*
X125827731Y-99887100D01*
X125731292Y-99654277D01*
X125579915Y-99502900D01*
X126967817Y-99502900D01*
X127006783Y-99561217D01*
X127120207Y-99637004D01*
X127254000Y-99663617D01*
X129286000Y-99663617D01*
X129419793Y-99637004D01*
X129533217Y-99561217D01*
X129609004Y-99447793D01*
X129635617Y-99314000D01*
X129635617Y-98806000D01*
X129609004Y-98672207D01*
X129533217Y-98558783D01*
X129419793Y-98482996D01*
X129286000Y-98456383D01*
X127254000Y-98456383D01*
X127120207Y-98482996D01*
X127006783Y-98558783D01*
X126967817Y-98617100D01*
X125579915Y-98617100D01*
X125731292Y-98465723D01*
X125827731Y-98232900D01*
X126967817Y-98232900D01*
X127006783Y-98291217D01*
X127120207Y-98367004D01*
X127254000Y-98393617D01*
X129286000Y-98393617D01*
X129419793Y-98367004D01*
X129533217Y-98291217D01*
X129609004Y-98177793D01*
X129635617Y-98044000D01*
X129635617Y-97536000D01*
X129609004Y-97402207D01*
X129533217Y-97288783D01*
X129419793Y-97212996D01*
X129286000Y-97186383D01*
X127254000Y-97186383D01*
X127120207Y-97212996D01*
X127006783Y-97288783D01*
X126967817Y-97347100D01*
X125827731Y-97347100D01*
X125731292Y-97114277D01*
X125579915Y-96962900D01*
X126967817Y-96962900D01*
X127006783Y-97021217D01*
X127120207Y-97097004D01*
X127254000Y-97123617D01*
X129286000Y-97123617D01*
X129419793Y-97097004D01*
X129533217Y-97021217D01*
X129609004Y-96907793D01*
X129635617Y-96774000D01*
X129635617Y-96266000D01*
X129609004Y-96132207D01*
X129533217Y-96018783D01*
X129419793Y-95942996D01*
X129286000Y-95916383D01*
X127254000Y-95916383D01*
X127120207Y-95942996D01*
X127006783Y-96018783D01*
X126967817Y-96077100D01*
X125579915Y-96077100D01*
X125731292Y-95925723D01*
X125912900Y-95487283D01*
X125912900Y-95012717D01*
X125905976Y-94996000D01*
X126904383Y-94996000D01*
X126904383Y-95504000D01*
X126930996Y-95637793D01*
X127006783Y-95751217D01*
X127120207Y-95827004D01*
X127254000Y-95853617D01*
X129286000Y-95853617D01*
X129339878Y-95842900D01*
X129732253Y-95842900D01*
X129973674Y-95942900D01*
X130249326Y-95942900D01*
X130503996Y-95837412D01*
X130698912Y-95642496D01*
X130804400Y-95387826D01*
X130804400Y-95112174D01*
X130698912Y-94857504D01*
X130503996Y-94662588D01*
X130249326Y-94557100D01*
X129973674Y-94557100D01*
X129732253Y-94657100D01*
X129339878Y-94657100D01*
X129286000Y-94646383D01*
X127254000Y-94646383D01*
X127120207Y-94672996D01*
X127006783Y-94748783D01*
X126930996Y-94862207D01*
X126904383Y-94996000D01*
X125905976Y-94996000D01*
X125731292Y-94574277D01*
X125579915Y-94422900D01*
X126967817Y-94422900D01*
X127006783Y-94481217D01*
X127120207Y-94557004D01*
X127254000Y-94583617D01*
X129286000Y-94583617D01*
X129419793Y-94557004D01*
X129533217Y-94481217D01*
X129609004Y-94367793D01*
X129635617Y-94234000D01*
X129635617Y-93726000D01*
X129609004Y-93592207D01*
X129533217Y-93478783D01*
X129419793Y-93402996D01*
X129286000Y-93376383D01*
X127254000Y-93376383D01*
X127120207Y-93402996D01*
X127006783Y-93478783D01*
X126967817Y-93537100D01*
X125579915Y-93537100D01*
X125731292Y-93385723D01*
X125827731Y-93152900D01*
X126967817Y-93152900D01*
X127006783Y-93211217D01*
X127120207Y-93287004D01*
X127254000Y-93313617D01*
X129286000Y-93313617D01*
X129419793Y-93287004D01*
X129533217Y-93211217D01*
X129609004Y-93097793D01*
X129635617Y-92964000D01*
X129635617Y-92456000D01*
X129609004Y-92322207D01*
X129533217Y-92208783D01*
X129419793Y-92132996D01*
X129286000Y-92106383D01*
X127254000Y-92106383D01*
X127120207Y-92132996D01*
X127006783Y-92208783D01*
X126967817Y-92267100D01*
X125827731Y-92267100D01*
X125731292Y-92034277D01*
X125579915Y-91882900D01*
X126967817Y-91882900D01*
X127006783Y-91941217D01*
X127120207Y-92017004D01*
X127254000Y-92043617D01*
X129286000Y-92043617D01*
X129419793Y-92017004D01*
X129533217Y-91941217D01*
X129609004Y-91827793D01*
X129635617Y-91694000D01*
X129635617Y-91186000D01*
X129609004Y-91052207D01*
X129533217Y-90938783D01*
X129419793Y-90862996D01*
X129286000Y-90836383D01*
X127254000Y-90836383D01*
X127120207Y-90862996D01*
X127006783Y-90938783D01*
X126967817Y-90997100D01*
X125579915Y-90997100D01*
X125731292Y-90845723D01*
X125827731Y-90612900D01*
X126967817Y-90612900D01*
X127006783Y-90671217D01*
X127120207Y-90747004D01*
X127254000Y-90773617D01*
X129286000Y-90773617D01*
X129419793Y-90747004D01*
X129533217Y-90671217D01*
X129609004Y-90557793D01*
X129635617Y-90424000D01*
X129635617Y-89916000D01*
X129609004Y-89782207D01*
X129533217Y-89668783D01*
X129419793Y-89592996D01*
X129286000Y-89566383D01*
X127254000Y-89566383D01*
X127120207Y-89592996D01*
X127006783Y-89668783D01*
X126967817Y-89727100D01*
X125827731Y-89727100D01*
X125731292Y-89494277D01*
X125395723Y-89158708D01*
X125125374Y-89046726D01*
X125448111Y-88913045D01*
X125533599Y-88677086D01*
X124720000Y-87863487D01*
X123906401Y-88677086D01*
X123991889Y-88913045D01*
X124350572Y-89031837D01*
X124044277Y-89158708D01*
X123708708Y-89494277D01*
X123527100Y-89932717D01*
X123527100Y-90407283D01*
X123708708Y-90845723D01*
X123860085Y-90997100D01*
X123027731Y-90997100D01*
X122931292Y-90764277D01*
X122595723Y-90428708D01*
X122157283Y-90247100D01*
X121682717Y-90247100D01*
X121244277Y-90428708D01*
X120908708Y-90764277D01*
X120727100Y-91202717D01*
X119797900Y-91202717D01*
X119797900Y-88662717D01*
X120727100Y-88662717D01*
X120727100Y-89137283D01*
X120908708Y-89575723D01*
X121244277Y-89911292D01*
X121682717Y-90092900D01*
X122157283Y-90092900D01*
X122595723Y-89911292D01*
X122931292Y-89575723D01*
X123112900Y-89137283D01*
X123112900Y-88662717D01*
X122931292Y-88224277D01*
X122595723Y-87888708D01*
X122157283Y-87707100D01*
X121682717Y-87707100D01*
X121244277Y-87888708D01*
X120908708Y-88224277D01*
X120727100Y-88662717D01*
X119797900Y-88662717D01*
X119797900Y-81098312D01*
X120455986Y-81098312D01*
X120497899Y-81672397D01*
X120636955Y-82008111D01*
X120872914Y-82093599D01*
X121686513Y-81280000D01*
X122153487Y-81280000D01*
X122967086Y-82093599D01*
X123203045Y-82008111D01*
X123384014Y-81461688D01*
X123342101Y-80887603D01*
X123203045Y-80551889D01*
X122967086Y-80466401D01*
X122153487Y-81280000D01*
X121686513Y-81280000D01*
X120872914Y-80466401D01*
X120636955Y-80551889D01*
X120455986Y-81098312D01*
X119797900Y-81098312D01*
X119797900Y-75962717D01*
X120727100Y-75962717D01*
X120727100Y-76437283D01*
X120908708Y-76875723D01*
X121244277Y-77211292D01*
X121682717Y-77392900D01*
X122157283Y-77392900D01*
X122595723Y-77211292D01*
X122931292Y-76875723D01*
X123027731Y-76642900D01*
X123860085Y-76642900D01*
X123708708Y-76794277D01*
X123527100Y-77232717D01*
X123527100Y-77707283D01*
X123708708Y-78145723D01*
X123860085Y-78297100D01*
X123027731Y-78297100D01*
X122931292Y-78064277D01*
X122595723Y-77728708D01*
X122157283Y-77547100D01*
X121682717Y-77547100D01*
X121244277Y-77728708D01*
X120908708Y-78064277D01*
X120727100Y-78502717D01*
X120727100Y-78977283D01*
X120908708Y-79415723D01*
X121244277Y-79751292D01*
X121514626Y-79863274D01*
X121191889Y-79996955D01*
X121106401Y-80232914D01*
X121920000Y-81046513D01*
X122733599Y-80232914D01*
X122648111Y-79996955D01*
X122289428Y-79878163D01*
X122595723Y-79751292D01*
X122931292Y-79415723D01*
X123027731Y-79182900D01*
X123860085Y-79182900D01*
X123708708Y-79334277D01*
X123527100Y-79772717D01*
X123527100Y-80247283D01*
X123708708Y-80685723D01*
X124044277Y-81021292D01*
X124482717Y-81202900D01*
X124957283Y-81202900D01*
X125395723Y-81021292D01*
X125731292Y-80685723D01*
X125827731Y-80452900D01*
X126943545Y-80452900D01*
X128620993Y-82130348D01*
X128504118Y-82107100D01*
X128504113Y-82107100D01*
X128460500Y-82098425D01*
X128416887Y-82107100D01*
X125827731Y-82107100D01*
X125731292Y-81874277D01*
X125395723Y-81538708D01*
X124957283Y-81357100D01*
X124482717Y-81357100D01*
X124044277Y-81538708D01*
X123708708Y-81874277D01*
X123527100Y-82312717D01*
X123527100Y-82787283D01*
X123708708Y-83225723D01*
X123860085Y-83377100D01*
X123027731Y-83377100D01*
X122931292Y-83144277D01*
X122595723Y-82808708D01*
X122325374Y-82696726D01*
X122648111Y-82563045D01*
X122733599Y-82327086D01*
X121920000Y-81513487D01*
X121106401Y-82327086D01*
X121191889Y-82563045D01*
X121550572Y-82681837D01*
X121244277Y-82808708D01*
X120908708Y-83144277D01*
X120727100Y-83582717D01*
X120727100Y-84057283D01*
X120908708Y-84495723D01*
X121244277Y-84831292D01*
X121682717Y-85012900D01*
X122157283Y-85012900D01*
X122595723Y-84831292D01*
X122931292Y-84495723D01*
X123027731Y-84262900D01*
X123860085Y-84262900D01*
X123708708Y-84414277D01*
X123527100Y-84852717D01*
X123527100Y-85327283D01*
X123708708Y-85765723D01*
X123860085Y-85917100D01*
X123027731Y-85917100D01*
X122931292Y-85684277D01*
X122595723Y-85348708D01*
X122157283Y-85167100D01*
X121682717Y-85167100D01*
X121244277Y-85348708D01*
X120908708Y-85684277D01*
X120727100Y-86122717D01*
X120727100Y-86597283D01*
X120908708Y-87035723D01*
X121244277Y-87371292D01*
X121682717Y-87552900D01*
X122157283Y-87552900D01*
X122595723Y-87371292D01*
X122931292Y-87035723D01*
X123027731Y-86802900D01*
X123659411Y-86802900D01*
X123672913Y-86816402D01*
X123436955Y-86901889D01*
X123255986Y-87448312D01*
X123297899Y-88022397D01*
X123436955Y-88358111D01*
X123672914Y-88443599D01*
X124486513Y-87630000D01*
X124472371Y-87615858D01*
X124705858Y-87382371D01*
X124720000Y-87396513D01*
X124734142Y-87382371D01*
X124967629Y-87615858D01*
X124953487Y-87630000D01*
X125767086Y-88443599D01*
X126003045Y-88358111D01*
X126184014Y-87811688D01*
X126142101Y-87237603D01*
X126003045Y-86901889D01*
X125767087Y-86816402D01*
X125780589Y-86802900D01*
X128531045Y-86802900D01*
X130002297Y-88274152D01*
X129922753Y-88307100D01*
X129339878Y-88307100D01*
X129286000Y-88296383D01*
X127254000Y-88296383D01*
X127120207Y-88322996D01*
X127006783Y-88398783D01*
X126930996Y-88512207D01*
X126904383Y-88646000D01*
X126904383Y-89154000D01*
X126930996Y-89287793D01*
X127006783Y-89401217D01*
X127120207Y-89477004D01*
X127254000Y-89503617D01*
X129286000Y-89503617D01*
X129339878Y-89492900D01*
X129922753Y-89492900D01*
X130164174Y-89592900D01*
X130439826Y-89592900D01*
X130694496Y-89487412D01*
X130889412Y-89292496D01*
X130927848Y-89199703D01*
X130938601Y-89210456D01*
X130938600Y-99016386D01*
X130929925Y-99060000D01*
X130938600Y-99103613D01*
X130938600Y-99103617D01*
X130964298Y-99232810D01*
X131037480Y-99342335D01*
X131037482Y-99342337D01*
X131062188Y-99379312D01*
X131099163Y-99404019D01*
X132307483Y-100612339D01*
X132332188Y-100649312D01*
X132369161Y-100674017D01*
X132369164Y-100674020D01*
X132478689Y-100747202D01*
X132607882Y-100772900D01*
X132607886Y-100772900D01*
X132651499Y-100781575D01*
X132695113Y-100772900D01*
X137127817Y-100772900D01*
X137166783Y-100831217D01*
X137280207Y-100907004D01*
X137414000Y-100933617D01*
X139446000Y-100933617D01*
X139579793Y-100907004D01*
X139693217Y-100831217D01*
X139769004Y-100717793D01*
X139795617Y-100584000D01*
X139795617Y-100076000D01*
X139769004Y-99942207D01*
X139693217Y-99828783D01*
X139579793Y-99752996D01*
X139446000Y-99726383D01*
X137414000Y-99726383D01*
X137280207Y-99752996D01*
X137166783Y-99828783D01*
X137127817Y-99887100D01*
X132834956Y-99887100D01*
X131824400Y-98876545D01*
X131824400Y-98541755D01*
X132624980Y-99342335D01*
X132649688Y-99379312D01*
X132686664Y-99404019D01*
X132686665Y-99404020D01*
X132752176Y-99447793D01*
X132796189Y-99477202D01*
X132925382Y-99502900D01*
X132925386Y-99502900D01*
X132969000Y-99511575D01*
X133012613Y-99502900D01*
X137127817Y-99502900D01*
X137166783Y-99561217D01*
X137280207Y-99637004D01*
X137414000Y-99663617D01*
X139446000Y-99663617D01*
X139579793Y-99637004D01*
X139693217Y-99561217D01*
X139769004Y-99447793D01*
X139795617Y-99314000D01*
X139795617Y-98806000D01*
X139769004Y-98672207D01*
X139693217Y-98558783D01*
X139579793Y-98482996D01*
X139446000Y-98456383D01*
X137414000Y-98456383D01*
X137280207Y-98482996D01*
X137166783Y-98558783D01*
X137127817Y-98617100D01*
X133152455Y-98617100D01*
X132522900Y-97987545D01*
X132522900Y-97716255D01*
X132878983Y-98072339D01*
X132903688Y-98109312D01*
X132940661Y-98134017D01*
X132940664Y-98134020D01*
X133050189Y-98207202D01*
X133179382Y-98232900D01*
X133179386Y-98232900D01*
X133222999Y-98241575D01*
X133266613Y-98232900D01*
X137127817Y-98232900D01*
X137166783Y-98291217D01*
X137280207Y-98367004D01*
X137414000Y-98393617D01*
X139446000Y-98393617D01*
X139579793Y-98367004D01*
X139693217Y-98291217D01*
X139769004Y-98177793D01*
X139795617Y-98044000D01*
X139795617Y-97536000D01*
X139769004Y-97402207D01*
X139693217Y-97288783D01*
X139579793Y-97212996D01*
X139446000Y-97186383D01*
X137414000Y-97186383D01*
X137280207Y-97212996D01*
X137166783Y-97288783D01*
X137127817Y-97347100D01*
X133406456Y-97347100D01*
X133094400Y-97035045D01*
X133094400Y-95188454D01*
X133131164Y-95213019D01*
X134720481Y-96802336D01*
X134745188Y-96839312D01*
X134782164Y-96864019D01*
X134782165Y-96864020D01*
X134847676Y-96907793D01*
X134891689Y-96937202D01*
X135020882Y-96962900D01*
X135020886Y-96962900D01*
X135064500Y-96971575D01*
X135108113Y-96962900D01*
X137127817Y-96962900D01*
X137166783Y-97021217D01*
X137280207Y-97097004D01*
X137414000Y-97123617D01*
X139446000Y-97123617D01*
X139579793Y-97097004D01*
X139693217Y-97021217D01*
X139769004Y-96907793D01*
X139795617Y-96774000D01*
X139795617Y-96266000D01*
X139769004Y-96132207D01*
X139708340Y-96041416D01*
X139784117Y-96010028D01*
X139952027Y-95842117D01*
X140042900Y-95622731D01*
X140042900Y-95526225D01*
X139893675Y-95377000D01*
X138595100Y-95377000D01*
X138595100Y-95435100D01*
X138264900Y-95435100D01*
X138264900Y-95377000D01*
X136966325Y-95377000D01*
X136817100Y-95526225D01*
X136817100Y-95622731D01*
X136907973Y-95842117D01*
X137075883Y-96010028D01*
X137151660Y-96041416D01*
X137127817Y-96077100D01*
X135247955Y-96077100D01*
X133856400Y-94685545D01*
X133856400Y-93144255D01*
X134974481Y-94262336D01*
X134999188Y-94299312D01*
X135036164Y-94324019D01*
X135036165Y-94324020D01*
X135101676Y-94367793D01*
X135145689Y-94397202D01*
X135274882Y-94422900D01*
X135274886Y-94422900D01*
X135318500Y-94431575D01*
X135362113Y-94422900D01*
X137127817Y-94422900D01*
X137151660Y-94458584D01*
X137075883Y-94489972D01*
X136907973Y-94657883D01*
X136817100Y-94877269D01*
X136817100Y-94973775D01*
X136966325Y-95123000D01*
X138264900Y-95123000D01*
X138264900Y-95064900D01*
X138595100Y-95064900D01*
X138595100Y-95123000D01*
X139893675Y-95123000D01*
X139904501Y-95112174D01*
X140277100Y-95112174D01*
X140277100Y-95387826D01*
X140382588Y-95642496D01*
X140577504Y-95837412D01*
X140832174Y-95942900D01*
X141107826Y-95942900D01*
X141349247Y-95842900D01*
X141805122Y-95842900D01*
X141859000Y-95853617D01*
X143891000Y-95853617D01*
X144024793Y-95827004D01*
X144138217Y-95751217D01*
X144214004Y-95637793D01*
X144240617Y-95504000D01*
X144240617Y-94996000D01*
X144214004Y-94862207D01*
X144138217Y-94748783D01*
X144024793Y-94672996D01*
X143891000Y-94646383D01*
X141859000Y-94646383D01*
X141805122Y-94657100D01*
X141349247Y-94657100D01*
X141107826Y-94557100D01*
X140832174Y-94557100D01*
X140577504Y-94662588D01*
X140382588Y-94857504D01*
X140277100Y-95112174D01*
X139904501Y-95112174D01*
X140042900Y-94973775D01*
X140042900Y-94877269D01*
X139952027Y-94657883D01*
X139784117Y-94489972D01*
X139708340Y-94458584D01*
X139769004Y-94367793D01*
X139795617Y-94234000D01*
X139795617Y-93726000D01*
X139769004Y-93592207D01*
X139693217Y-93478783D01*
X139579793Y-93402996D01*
X139446000Y-93376383D01*
X137414000Y-93376383D01*
X137280207Y-93402996D01*
X137166783Y-93478783D01*
X137127817Y-93537100D01*
X135501955Y-93537100D01*
X135094507Y-93129652D01*
X135211382Y-93152900D01*
X135211386Y-93152900D01*
X135255000Y-93161575D01*
X135298613Y-93152900D01*
X137127817Y-93152900D01*
X137166783Y-93211217D01*
X137280207Y-93287004D01*
X137414000Y-93313617D01*
X139446000Y-93313617D01*
X139579793Y-93287004D01*
X139693217Y-93211217D01*
X139769004Y-93097793D01*
X139795617Y-92964000D01*
X139795617Y-92456000D01*
X139769004Y-92322207D01*
X139693217Y-92208783D01*
X139579793Y-92132996D01*
X139446000Y-92106383D01*
X137414000Y-92106383D01*
X137280207Y-92132996D01*
X137166783Y-92208783D01*
X137127817Y-92267100D01*
X135438455Y-92267100D01*
X135253400Y-92082045D01*
X135253400Y-90921755D01*
X136053981Y-91722336D01*
X136078688Y-91759312D01*
X136115664Y-91784019D01*
X136115665Y-91784020D01*
X136160421Y-91813925D01*
X136225189Y-91857202D01*
X136354382Y-91882900D01*
X136354386Y-91882900D01*
X136398000Y-91891575D01*
X136441613Y-91882900D01*
X137127817Y-91882900D01*
X137166783Y-91941217D01*
X137280207Y-92017004D01*
X137414000Y-92043617D01*
X139446000Y-92043617D01*
X139579793Y-92017004D01*
X139693217Y-91941217D01*
X139769004Y-91827793D01*
X139795617Y-91694000D01*
X139795617Y-91186000D01*
X139769004Y-91052207D01*
X139693217Y-90938783D01*
X139579793Y-90862996D01*
X139446000Y-90836383D01*
X137414000Y-90836383D01*
X137280207Y-90862996D01*
X137166783Y-90938783D01*
X137127817Y-90997100D01*
X136581455Y-90997100D01*
X135951900Y-90367545D01*
X135951900Y-90044954D01*
X135988664Y-90069519D01*
X136371481Y-90452336D01*
X136396188Y-90489312D01*
X136433164Y-90514019D01*
X136433165Y-90514020D01*
X136498676Y-90557793D01*
X136542689Y-90587202D01*
X136671882Y-90612900D01*
X136671886Y-90612900D01*
X136715500Y-90621575D01*
X136759113Y-90612900D01*
X137127817Y-90612900D01*
X137166783Y-90671217D01*
X137280207Y-90747004D01*
X137414000Y-90773617D01*
X139446000Y-90773617D01*
X139579793Y-90747004D01*
X139693217Y-90671217D01*
X139769004Y-90557793D01*
X139795617Y-90424000D01*
X139795617Y-89916000D01*
X141509383Y-89916000D01*
X141509383Y-90424000D01*
X141535996Y-90557793D01*
X141611783Y-90671217D01*
X141725207Y-90747004D01*
X141859000Y-90773617D01*
X143891000Y-90773617D01*
X144024793Y-90747004D01*
X144138217Y-90671217D01*
X144177183Y-90612900D01*
X145180887Y-90612900D01*
X145224500Y-90621575D01*
X145268113Y-90612900D01*
X145268118Y-90612900D01*
X145397311Y-90587202D01*
X145491180Y-90524480D01*
X145506835Y-90514020D01*
X145506836Y-90514019D01*
X145543812Y-90489312D01*
X145568519Y-90452336D01*
X146051600Y-89969255D01*
X146051600Y-90685044D01*
X145739545Y-90997100D01*
X144177183Y-90997100D01*
X144138217Y-90938783D01*
X144024793Y-90862996D01*
X143891000Y-90836383D01*
X141859000Y-90836383D01*
X141725207Y-90862996D01*
X141611783Y-90938783D01*
X141535996Y-91052207D01*
X141509383Y-91186000D01*
X141509383Y-91694000D01*
X141535996Y-91827793D01*
X141611783Y-91941217D01*
X141725207Y-92017004D01*
X141859000Y-92043617D01*
X143891000Y-92043617D01*
X144024793Y-92017004D01*
X144138217Y-91941217D01*
X144177183Y-91882900D01*
X145879387Y-91882900D01*
X145923000Y-91891575D01*
X145966613Y-91882900D01*
X145966618Y-91882900D01*
X146095811Y-91857202D01*
X146160579Y-91813925D01*
X146205335Y-91784020D01*
X146205336Y-91784019D01*
X146242312Y-91759312D01*
X146267018Y-91722337D01*
X146623100Y-91366256D01*
X146623100Y-91764545D01*
X146120545Y-92267100D01*
X144177183Y-92267100D01*
X144138217Y-92208783D01*
X144024793Y-92132996D01*
X143891000Y-92106383D01*
X141859000Y-92106383D01*
X141725207Y-92132996D01*
X141611783Y-92208783D01*
X141535996Y-92322207D01*
X141509383Y-92456000D01*
X141509383Y-92964000D01*
X141535996Y-93097793D01*
X141611783Y-93211217D01*
X141725207Y-93287004D01*
X141859000Y-93313617D01*
X143891000Y-93313617D01*
X144024793Y-93287004D01*
X144138217Y-93211217D01*
X144177183Y-93152900D01*
X146260387Y-93152900D01*
X146304000Y-93161575D01*
X146347613Y-93152900D01*
X146347618Y-93152900D01*
X146476811Y-93127202D01*
X146541370Y-93084064D01*
X146586335Y-93054020D01*
X146586336Y-93054019D01*
X146623312Y-93029312D01*
X146648019Y-92992336D01*
X147194600Y-92445755D01*
X147194600Y-92590045D01*
X146247545Y-93537100D01*
X144177183Y-93537100D01*
X144138217Y-93478783D01*
X144024793Y-93402996D01*
X143891000Y-93376383D01*
X141859000Y-93376383D01*
X141725207Y-93402996D01*
X141611783Y-93478783D01*
X141535996Y-93592207D01*
X141509383Y-93726000D01*
X141509383Y-94234000D01*
X141535996Y-94367793D01*
X141611783Y-94481217D01*
X141725207Y-94557004D01*
X141859000Y-94583617D01*
X143891000Y-94583617D01*
X144024793Y-94557004D01*
X144138217Y-94481217D01*
X144177183Y-94422900D01*
X146387387Y-94422900D01*
X146431000Y-94431575D01*
X146474613Y-94422900D01*
X146474618Y-94422900D01*
X146603811Y-94397202D01*
X146668370Y-94354064D01*
X146713335Y-94324020D01*
X146713336Y-94324019D01*
X146750312Y-94299312D01*
X146775019Y-94262336D01*
X147829600Y-93207755D01*
X147829600Y-94050544D01*
X145803045Y-96077100D01*
X144177183Y-96077100D01*
X144138217Y-96018783D01*
X144024793Y-95942996D01*
X143891000Y-95916383D01*
X141859000Y-95916383D01*
X141725207Y-95942996D01*
X141611783Y-96018783D01*
X141535996Y-96132207D01*
X141509383Y-96266000D01*
X141509383Y-96774000D01*
X141535996Y-96907793D01*
X141611783Y-97021217D01*
X141725207Y-97097004D01*
X141859000Y-97123617D01*
X143891000Y-97123617D01*
X144024793Y-97097004D01*
X144138217Y-97021217D01*
X144177183Y-96962900D01*
X145942887Y-96962900D01*
X145986500Y-96971575D01*
X146030113Y-96962900D01*
X146030118Y-96962900D01*
X146159311Y-96937202D01*
X146253180Y-96874480D01*
X146268835Y-96864020D01*
X146268836Y-96864019D01*
X146305812Y-96839312D01*
X146330519Y-96802336D01*
X148464600Y-94668256D01*
X148464600Y-94749045D01*
X145866545Y-97347100D01*
X144177183Y-97347100D01*
X144138217Y-97288783D01*
X144024793Y-97212996D01*
X143891000Y-97186383D01*
X141859000Y-97186383D01*
X141725207Y-97212996D01*
X141611783Y-97288783D01*
X141535996Y-97402207D01*
X141509383Y-97536000D01*
X141509383Y-98044000D01*
X141535996Y-98177793D01*
X141611783Y-98291217D01*
X141725207Y-98367004D01*
X141859000Y-98393617D01*
X143891000Y-98393617D01*
X144024793Y-98367004D01*
X144138217Y-98291217D01*
X144177183Y-98232900D01*
X146006387Y-98232900D01*
X146050000Y-98241575D01*
X146093613Y-98232900D01*
X146093618Y-98232900D01*
X146222811Y-98207202D01*
X146287370Y-98164064D01*
X146332335Y-98134020D01*
X146332336Y-98134019D01*
X146369312Y-98109312D01*
X146394019Y-98072336D01*
X149163100Y-95303255D01*
X149163100Y-95384045D01*
X145930045Y-98617100D01*
X144177183Y-98617100D01*
X144138217Y-98558783D01*
X144024793Y-98482996D01*
X143891000Y-98456383D01*
X141859000Y-98456383D01*
X141725207Y-98482996D01*
X141611783Y-98558783D01*
X141535996Y-98672207D01*
X141509383Y-98806000D01*
X141509383Y-99314000D01*
X141535996Y-99447793D01*
X141611783Y-99561217D01*
X141725207Y-99637004D01*
X141859000Y-99663617D01*
X143891000Y-99663617D01*
X144024793Y-99637004D01*
X144138217Y-99561217D01*
X144177183Y-99502900D01*
X146069887Y-99502900D01*
X146113500Y-99511575D01*
X146157113Y-99502900D01*
X146157118Y-99502900D01*
X146286311Y-99477202D01*
X146350870Y-99434064D01*
X146395835Y-99404020D01*
X146395836Y-99404019D01*
X146432812Y-99379312D01*
X146457520Y-99342335D01*
X149861600Y-95938255D01*
X149861600Y-95955544D01*
X145930045Y-99887100D01*
X144177183Y-99887100D01*
X144138217Y-99828783D01*
X144024793Y-99752996D01*
X143891000Y-99726383D01*
X141859000Y-99726383D01*
X141725207Y-99752996D01*
X141611783Y-99828783D01*
X141535996Y-99942207D01*
X141509383Y-100076000D01*
X141509383Y-100584000D01*
X141535996Y-100717793D01*
X141611783Y-100831217D01*
X141725207Y-100907004D01*
X141859000Y-100933617D01*
X143891000Y-100933617D01*
X144024793Y-100907004D01*
X144138217Y-100831217D01*
X144177183Y-100772900D01*
X146069887Y-100772900D01*
X146113500Y-100781575D01*
X146157113Y-100772900D01*
X146157118Y-100772900D01*
X146286311Y-100747202D01*
X146350870Y-100704064D01*
X146395835Y-100674020D01*
X146395836Y-100674019D01*
X146432812Y-100649312D01*
X146457519Y-100612336D01*
X150586840Y-96483016D01*
X150623812Y-96458312D01*
X150648517Y-96421339D01*
X150648520Y-96421336D01*
X150721702Y-96311811D01*
X150731751Y-96261292D01*
X150747400Y-96182618D01*
X150747400Y-96182614D01*
X150756075Y-96139001D01*
X150747400Y-96095387D01*
X150747400Y-95526225D01*
X151422100Y-95526225D01*
X151422100Y-95622731D01*
X151512973Y-95842117D01*
X151680883Y-96010028D01*
X151756660Y-96041416D01*
X151695996Y-96132207D01*
X151669383Y-96266000D01*
X151669383Y-96774000D01*
X151695996Y-96907793D01*
X151771783Y-97021217D01*
X151885207Y-97097004D01*
X152019000Y-97123617D01*
X154051000Y-97123617D01*
X154184793Y-97097004D01*
X154298217Y-97021217D01*
X154337183Y-96962900D01*
X155226269Y-96962900D01*
X155322708Y-97195723D01*
X155474085Y-97347100D01*
X154337183Y-97347100D01*
X154298217Y-97288783D01*
X154184793Y-97212996D01*
X154051000Y-97186383D01*
X152019000Y-97186383D01*
X151885207Y-97212996D01*
X151771783Y-97288783D01*
X151695996Y-97402207D01*
X151669383Y-97536000D01*
X151669383Y-98044000D01*
X151695996Y-98177793D01*
X151771783Y-98291217D01*
X151885207Y-98367004D01*
X152019000Y-98393617D01*
X154051000Y-98393617D01*
X154184793Y-98367004D01*
X154298217Y-98291217D01*
X154337183Y-98232900D01*
X155474085Y-98232900D01*
X155322708Y-98384277D01*
X155226269Y-98617100D01*
X154337183Y-98617100D01*
X154298217Y-98558783D01*
X154184793Y-98482996D01*
X154051000Y-98456383D01*
X152019000Y-98456383D01*
X151885207Y-98482996D01*
X151771783Y-98558783D01*
X151695996Y-98672207D01*
X151669383Y-98806000D01*
X151669383Y-99314000D01*
X151695996Y-99447793D01*
X151771783Y-99561217D01*
X151885207Y-99637004D01*
X152019000Y-99663617D01*
X154051000Y-99663617D01*
X154184793Y-99637004D01*
X154298217Y-99561217D01*
X154337183Y-99502900D01*
X155226269Y-99502900D01*
X155322708Y-99735723D01*
X155474085Y-99887100D01*
X154337183Y-99887100D01*
X154298217Y-99828783D01*
X154184793Y-99752996D01*
X154051000Y-99726383D01*
X152019000Y-99726383D01*
X151885207Y-99752996D01*
X151771783Y-99828783D01*
X151695996Y-99942207D01*
X151669383Y-100076000D01*
X151669383Y-100584000D01*
X151695996Y-100717793D01*
X151771783Y-100831217D01*
X151885207Y-100907004D01*
X152019000Y-100933617D01*
X154051000Y-100933617D01*
X154184793Y-100907004D01*
X154298217Y-100831217D01*
X154337183Y-100772900D01*
X155474085Y-100772900D01*
X155322708Y-100924277D01*
X155141100Y-101362717D01*
X155141100Y-101837283D01*
X155322708Y-102275723D01*
X155658277Y-102611292D01*
X156096717Y-102792900D01*
X156571283Y-102792900D01*
X156957998Y-102632717D01*
X157941100Y-102632717D01*
X157941100Y-103107283D01*
X158122708Y-103545723D01*
X158458277Y-103881292D01*
X158896717Y-104062900D01*
X159371283Y-104062900D01*
X159809723Y-103881292D01*
X160145292Y-103545723D01*
X160326900Y-103107283D01*
X160326900Y-102632717D01*
X160145292Y-102194277D01*
X159809723Y-101858708D01*
X159371283Y-101677100D01*
X158896717Y-101677100D01*
X158458277Y-101858708D01*
X158122708Y-102194277D01*
X157941100Y-102632717D01*
X156957998Y-102632717D01*
X157009723Y-102611292D01*
X157345292Y-102275723D01*
X157526900Y-101837283D01*
X157526900Y-101362717D01*
X157345292Y-100924277D01*
X157193915Y-100772900D01*
X158026269Y-100772900D01*
X158122708Y-101005723D01*
X158458277Y-101341292D01*
X158896717Y-101522900D01*
X159371283Y-101522900D01*
X159809723Y-101341292D01*
X160145292Y-101005723D01*
X160326900Y-100567283D01*
X160326900Y-100092717D01*
X160145292Y-99654277D01*
X159809723Y-99318708D01*
X159371283Y-99137100D01*
X158896717Y-99137100D01*
X158458277Y-99318708D01*
X158122708Y-99654277D01*
X158026269Y-99887100D01*
X157193915Y-99887100D01*
X157345292Y-99735723D01*
X157526900Y-99297283D01*
X157526900Y-98822717D01*
X157345292Y-98384277D01*
X157193915Y-98232900D01*
X158026269Y-98232900D01*
X158122708Y-98465723D01*
X158458277Y-98801292D01*
X158896717Y-98982900D01*
X159371283Y-98982900D01*
X159809723Y-98801292D01*
X160145292Y-98465723D01*
X160326900Y-98027283D01*
X160326900Y-97552717D01*
X160145292Y-97114277D01*
X159809723Y-96778708D01*
X159371283Y-96597100D01*
X158896717Y-96597100D01*
X158458277Y-96778708D01*
X158122708Y-97114277D01*
X158026269Y-97347100D01*
X157193915Y-97347100D01*
X157345292Y-97195723D01*
X157526900Y-96757283D01*
X157526900Y-96282717D01*
X157345292Y-95844277D01*
X157009723Y-95508708D01*
X156571283Y-95327100D01*
X156096717Y-95327100D01*
X155658277Y-95508708D01*
X155322708Y-95844277D01*
X155226269Y-96077100D01*
X154337183Y-96077100D01*
X154313340Y-96041416D01*
X154389117Y-96010028D01*
X154557027Y-95842117D01*
X154647900Y-95622731D01*
X154647900Y-95526225D01*
X154498675Y-95377000D01*
X153200100Y-95377000D01*
X153200100Y-95435100D01*
X152869900Y-95435100D01*
X152869900Y-95377000D01*
X151571325Y-95377000D01*
X151422100Y-95526225D01*
X150747400Y-95526225D01*
X150747400Y-89210455D01*
X150781630Y-89176225D01*
X151422100Y-89176225D01*
X151422100Y-89272731D01*
X151512973Y-89492117D01*
X151680883Y-89660028D01*
X151756660Y-89691416D01*
X151695996Y-89782207D01*
X151669383Y-89916000D01*
X151669383Y-90424000D01*
X151695996Y-90557793D01*
X151771783Y-90671217D01*
X151885207Y-90747004D01*
X152019000Y-90773617D01*
X154051000Y-90773617D01*
X154184793Y-90747004D01*
X154298217Y-90671217D01*
X154337183Y-90612900D01*
X155474085Y-90612900D01*
X155322708Y-90764277D01*
X155226269Y-90997100D01*
X154337183Y-90997100D01*
X154298217Y-90938783D01*
X154184793Y-90862996D01*
X154051000Y-90836383D01*
X152019000Y-90836383D01*
X151885207Y-90862996D01*
X151771783Y-90938783D01*
X151695996Y-91052207D01*
X151669383Y-91186000D01*
X151669383Y-91694000D01*
X151695996Y-91827793D01*
X151771783Y-91941217D01*
X151885207Y-92017004D01*
X152019000Y-92043617D01*
X154051000Y-92043617D01*
X154184793Y-92017004D01*
X154298217Y-91941217D01*
X154337183Y-91882900D01*
X155226269Y-91882900D01*
X155322708Y-92115723D01*
X155474085Y-92267100D01*
X154337183Y-92267100D01*
X154298217Y-92208783D01*
X154184793Y-92132996D01*
X154051000Y-92106383D01*
X152019000Y-92106383D01*
X151885207Y-92132996D01*
X151771783Y-92208783D01*
X151695996Y-92322207D01*
X151669383Y-92456000D01*
X151669383Y-92964000D01*
X151695996Y-93097793D01*
X151771783Y-93211217D01*
X151885207Y-93287004D01*
X152019000Y-93313617D01*
X154051000Y-93313617D01*
X154184793Y-93287004D01*
X154298217Y-93211217D01*
X154337183Y-93152900D01*
X155474085Y-93152900D01*
X155322708Y-93304277D01*
X155226269Y-93537100D01*
X154337183Y-93537100D01*
X154298217Y-93478783D01*
X154184793Y-93402996D01*
X154051000Y-93376383D01*
X152019000Y-93376383D01*
X151885207Y-93402996D01*
X151771783Y-93478783D01*
X151695996Y-93592207D01*
X151669383Y-93726000D01*
X151669383Y-94234000D01*
X151695996Y-94367793D01*
X151756660Y-94458584D01*
X151680883Y-94489972D01*
X151512973Y-94657883D01*
X151422100Y-94877269D01*
X151422100Y-94973775D01*
X151571325Y-95123000D01*
X152869900Y-95123000D01*
X152869900Y-95064900D01*
X153200100Y-95064900D01*
X153200100Y-95123000D01*
X154498675Y-95123000D01*
X154647900Y-94973775D01*
X154647900Y-94877269D01*
X154557027Y-94657883D01*
X154389117Y-94489972D01*
X154313340Y-94458584D01*
X154337183Y-94422900D01*
X155226269Y-94422900D01*
X155322708Y-94655723D01*
X155658277Y-94991292D01*
X156096717Y-95172900D01*
X156571283Y-95172900D01*
X156957998Y-95012717D01*
X157941100Y-95012717D01*
X157941100Y-95487283D01*
X158122708Y-95925723D01*
X158458277Y-96261292D01*
X158896717Y-96442900D01*
X159371283Y-96442900D01*
X159809723Y-96261292D01*
X160145292Y-95925723D01*
X160326900Y-95487283D01*
X160326900Y-95012717D01*
X160145292Y-94574277D01*
X159809723Y-94238708D01*
X159371283Y-94057100D01*
X158896717Y-94057100D01*
X158458277Y-94238708D01*
X158122708Y-94574277D01*
X157941100Y-95012717D01*
X156957998Y-95012717D01*
X157009723Y-94991292D01*
X157345292Y-94655723D01*
X157526900Y-94217283D01*
X157526900Y-93742717D01*
X157345292Y-93304277D01*
X157193915Y-93152900D01*
X158026269Y-93152900D01*
X158122708Y-93385723D01*
X158458277Y-93721292D01*
X158896717Y-93902900D01*
X159371283Y-93902900D01*
X159809723Y-93721292D01*
X160145292Y-93385723D01*
X160326900Y-92947283D01*
X160326900Y-92472717D01*
X160145292Y-92034277D01*
X159809723Y-91698708D01*
X159371283Y-91517100D01*
X158896717Y-91517100D01*
X158458277Y-91698708D01*
X158122708Y-92034277D01*
X158026269Y-92267100D01*
X157193915Y-92267100D01*
X157345292Y-92115723D01*
X157526900Y-91677283D01*
X157526900Y-91202717D01*
X157345292Y-90764277D01*
X157193915Y-90612900D01*
X158026269Y-90612900D01*
X158122708Y-90845723D01*
X158458277Y-91181292D01*
X158896717Y-91362900D01*
X159371283Y-91362900D01*
X159809723Y-91181292D01*
X160145292Y-90845723D01*
X160326900Y-90407283D01*
X160326900Y-89932717D01*
X160145292Y-89494277D01*
X159809723Y-89158708D01*
X159539374Y-89046726D01*
X159862111Y-88913045D01*
X159947599Y-88677086D01*
X159134000Y-87863487D01*
X158320401Y-88677086D01*
X158405889Y-88913045D01*
X158764572Y-89031837D01*
X158458277Y-89158708D01*
X158122708Y-89494277D01*
X158026269Y-89727100D01*
X157193915Y-89727100D01*
X157345292Y-89575723D01*
X157526900Y-89137283D01*
X157526900Y-88662717D01*
X157345292Y-88224277D01*
X157009723Y-87888708D01*
X156571283Y-87707100D01*
X156096717Y-87707100D01*
X155658277Y-87888708D01*
X155322708Y-88224277D01*
X155141100Y-88662717D01*
X155141100Y-89137283D01*
X155322708Y-89575723D01*
X155474085Y-89727100D01*
X154337183Y-89727100D01*
X154313340Y-89691416D01*
X154389117Y-89660028D01*
X154557027Y-89492117D01*
X154647900Y-89272731D01*
X154647900Y-89176225D01*
X154498675Y-89027000D01*
X153200100Y-89027000D01*
X153200100Y-89085100D01*
X152869900Y-89085100D01*
X152869900Y-89027000D01*
X151571325Y-89027000D01*
X151422100Y-89176225D01*
X150781630Y-89176225D01*
X151422100Y-88535755D01*
X151422100Y-88623775D01*
X151571325Y-88773000D01*
X152869900Y-88773000D01*
X152869900Y-88198325D01*
X153200100Y-88198325D01*
X153200100Y-88773000D01*
X154498675Y-88773000D01*
X154647900Y-88623775D01*
X154647900Y-88527269D01*
X154557027Y-88307883D01*
X154389117Y-88139972D01*
X154169731Y-88049100D01*
X153349325Y-88049100D01*
X153200100Y-88198325D01*
X152869900Y-88198325D01*
X152720675Y-88049100D01*
X151908755Y-88049100D01*
X153154955Y-86802900D01*
X155226269Y-86802900D01*
X155322708Y-87035723D01*
X155658277Y-87371292D01*
X156096717Y-87552900D01*
X156571283Y-87552900D01*
X156823780Y-87448312D01*
X157669986Y-87448312D01*
X157711899Y-88022397D01*
X157850955Y-88358111D01*
X158086914Y-88443599D01*
X158900513Y-87630000D01*
X159367487Y-87630000D01*
X160181086Y-88443599D01*
X160417045Y-88358111D01*
X160598014Y-87811688D01*
X160556101Y-87237603D01*
X160417045Y-86901889D01*
X160181086Y-86816401D01*
X159367487Y-87630000D01*
X158900513Y-87630000D01*
X158086914Y-86816401D01*
X157850955Y-86901889D01*
X157669986Y-87448312D01*
X156823780Y-87448312D01*
X157009723Y-87371292D01*
X157345292Y-87035723D01*
X157526900Y-86597283D01*
X157526900Y-86122717D01*
X157345292Y-85684277D01*
X157193915Y-85532900D01*
X158026269Y-85532900D01*
X158122708Y-85765723D01*
X158458277Y-86101292D01*
X158728626Y-86213274D01*
X158405889Y-86346955D01*
X158320401Y-86582914D01*
X159134000Y-87396513D01*
X159947599Y-86582914D01*
X159862111Y-86346955D01*
X159503428Y-86228163D01*
X159809723Y-86101292D01*
X160145292Y-85765723D01*
X160326900Y-85327283D01*
X160326900Y-84852717D01*
X160145292Y-84414277D01*
X159809723Y-84078708D01*
X159371283Y-83897100D01*
X158896717Y-83897100D01*
X158458277Y-84078708D01*
X158122708Y-84414277D01*
X158026269Y-84647100D01*
X157193915Y-84647100D01*
X157345292Y-84495723D01*
X157526900Y-84057283D01*
X157526900Y-83582717D01*
X157345292Y-83144277D01*
X157193915Y-82992900D01*
X158026269Y-82992900D01*
X158122708Y-83225723D01*
X158458277Y-83561292D01*
X158896717Y-83742900D01*
X159371283Y-83742900D01*
X159809723Y-83561292D01*
X160145292Y-83225723D01*
X160326900Y-82787283D01*
X160326900Y-82312717D01*
X160145292Y-81874277D01*
X159809723Y-81538708D01*
X159371283Y-81357100D01*
X158896717Y-81357100D01*
X158458277Y-81538708D01*
X158122708Y-81874277D01*
X158026269Y-82107100D01*
X157394589Y-82107100D01*
X157381087Y-82093598D01*
X157617045Y-82008111D01*
X157798014Y-81461688D01*
X157756101Y-80887603D01*
X157617045Y-80551889D01*
X157381087Y-80466402D01*
X157394589Y-80452900D01*
X158026269Y-80452900D01*
X158122708Y-80685723D01*
X158458277Y-81021292D01*
X158896717Y-81202900D01*
X159371283Y-81202900D01*
X159809723Y-81021292D01*
X160145292Y-80685723D01*
X160326900Y-80247283D01*
X160326900Y-79772717D01*
X160145292Y-79334277D01*
X159809723Y-78998708D01*
X159371283Y-78817100D01*
X158896717Y-78817100D01*
X158458277Y-78998708D01*
X158122708Y-79334277D01*
X158026269Y-79567100D01*
X157193915Y-79567100D01*
X157345292Y-79415723D01*
X157526900Y-78977283D01*
X157526900Y-78502717D01*
X157345292Y-78064277D01*
X157193915Y-77912900D01*
X158026269Y-77912900D01*
X158122708Y-78145723D01*
X158458277Y-78481292D01*
X158896717Y-78662900D01*
X159371283Y-78662900D01*
X159809723Y-78481292D01*
X160145292Y-78145723D01*
X160326900Y-77707283D01*
X160326900Y-77232717D01*
X160145292Y-76794277D01*
X159809723Y-76458708D01*
X159371283Y-76277100D01*
X158896717Y-76277100D01*
X158458277Y-76458708D01*
X158122708Y-76794277D01*
X158026269Y-77027100D01*
X157193915Y-77027100D01*
X157345292Y-76875723D01*
X157526900Y-76437283D01*
X157526900Y-75962717D01*
X157345292Y-75524277D01*
X157009723Y-75188708D01*
X156571283Y-75007100D01*
X156096717Y-75007100D01*
X155658277Y-75188708D01*
X155322708Y-75524277D01*
X155226269Y-75757100D01*
X154602613Y-75757100D01*
X154559000Y-75748425D01*
X154515386Y-75757100D01*
X154515382Y-75757100D01*
X154386189Y-75782798D01*
X154276665Y-75855980D01*
X154276664Y-75855981D01*
X154239688Y-75880688D01*
X154214981Y-75917664D01*
X145577162Y-84555483D01*
X145540189Y-84580188D01*
X145515484Y-84617161D01*
X145515480Y-84617165D01*
X145442298Y-84726690D01*
X145407925Y-84899500D01*
X145416601Y-84943118D01*
X145416600Y-89351545D01*
X145041045Y-89727100D01*
X144177183Y-89727100D01*
X144138217Y-89668783D01*
X144024793Y-89592996D01*
X143891000Y-89566383D01*
X141859000Y-89566383D01*
X141725207Y-89592996D01*
X141611783Y-89668783D01*
X141535996Y-89782207D01*
X141509383Y-89916000D01*
X139795617Y-89916000D01*
X139769004Y-89782207D01*
X139708340Y-89691416D01*
X139784117Y-89660028D01*
X139952027Y-89492117D01*
X140042900Y-89272731D01*
X140042900Y-89176225D01*
X139893675Y-89027000D01*
X138595100Y-89027000D01*
X138595100Y-89085100D01*
X138264900Y-89085100D01*
X138264900Y-89027000D01*
X136966325Y-89027000D01*
X136817100Y-89176225D01*
X136817100Y-89272731D01*
X136907973Y-89492117D01*
X137075883Y-89660028D01*
X137151660Y-89691416D01*
X137127817Y-89727100D01*
X136898955Y-89727100D01*
X136713900Y-89542045D01*
X136713900Y-88527269D01*
X136817100Y-88527269D01*
X136817100Y-88623775D01*
X136966325Y-88773000D01*
X138264900Y-88773000D01*
X138264900Y-88198325D01*
X138595100Y-88198325D01*
X138595100Y-88773000D01*
X139893675Y-88773000D01*
X140042900Y-88623775D01*
X140042900Y-88527269D01*
X139952027Y-88307883D01*
X139784117Y-88139972D01*
X139564731Y-88049100D01*
X138744325Y-88049100D01*
X138595100Y-88198325D01*
X138264900Y-88198325D01*
X138115675Y-88049100D01*
X137295269Y-88049100D01*
X137075883Y-88139972D01*
X136907973Y-88307883D01*
X136817100Y-88527269D01*
X136713900Y-88527269D01*
X136713900Y-86674325D01*
X138873100Y-86674325D01*
X138873100Y-87103731D01*
X138963972Y-87323117D01*
X139131883Y-87491027D01*
X139351269Y-87581900D01*
X139655675Y-87581900D01*
X139804900Y-87432675D01*
X139804900Y-86525100D01*
X140135100Y-86525100D01*
X140135100Y-87432675D01*
X140284325Y-87581900D01*
X140588731Y-87581900D01*
X140808117Y-87491027D01*
X140976028Y-87323117D01*
X141066900Y-87103731D01*
X141066900Y-86674325D01*
X140917675Y-86525100D01*
X140135100Y-86525100D01*
X139804900Y-86525100D01*
X139022325Y-86525100D01*
X138873100Y-86674325D01*
X136713900Y-86674325D01*
X136713900Y-85616269D01*
X138873100Y-85616269D01*
X138873100Y-86045675D01*
X139022325Y-86194900D01*
X139804900Y-86194900D01*
X139804900Y-85287325D01*
X140135100Y-85287325D01*
X140135100Y-86194900D01*
X140917675Y-86194900D01*
X141066900Y-86045675D01*
X141066900Y-85735000D01*
X141120383Y-85735000D01*
X141120383Y-86985000D01*
X141146996Y-87118793D01*
X141222783Y-87232217D01*
X141336207Y-87308004D01*
X141377101Y-87316138D01*
X141377101Y-87936603D01*
X141365485Y-87995000D01*
X141411501Y-88226337D01*
X141418402Y-88236665D01*
X141542544Y-88422457D01*
X141579476Y-88447134D01*
X141535996Y-88512207D01*
X141509383Y-88646000D01*
X141509383Y-89154000D01*
X141535996Y-89287793D01*
X141611783Y-89401217D01*
X141725207Y-89477004D01*
X141859000Y-89503617D01*
X142870485Y-89503617D01*
X142874999Y-89504515D01*
X142879513Y-89503617D01*
X143891000Y-89503617D01*
X144024793Y-89477004D01*
X144138217Y-89401217D01*
X144214004Y-89287793D01*
X144240617Y-89154000D01*
X144240617Y-88646000D01*
X144214004Y-88512207D01*
X144138217Y-88398783D01*
X144024793Y-88322996D01*
X143891000Y-88296383D01*
X143109870Y-88296383D01*
X142562900Y-87749414D01*
X142562900Y-87316138D01*
X142603793Y-87308004D01*
X142717217Y-87232217D01*
X142793004Y-87118793D01*
X142819617Y-86985000D01*
X142819617Y-86952900D01*
X142940253Y-86952900D01*
X143181674Y-87052900D01*
X143457326Y-87052900D01*
X143711996Y-86947412D01*
X143906912Y-86752496D01*
X144012400Y-86497826D01*
X144012400Y-86222174D01*
X143906912Y-85967504D01*
X143711996Y-85772588D01*
X143457326Y-85667100D01*
X143181674Y-85667100D01*
X142940253Y-85767100D01*
X142819617Y-85767100D01*
X142819617Y-85735000D01*
X142793004Y-85601207D01*
X142717217Y-85487783D01*
X142603793Y-85411996D01*
X142470000Y-85385383D01*
X141470000Y-85385383D01*
X141336207Y-85411996D01*
X141222783Y-85487783D01*
X141146996Y-85601207D01*
X141120383Y-85735000D01*
X141066900Y-85735000D01*
X141066900Y-85616269D01*
X140976028Y-85396883D01*
X140808117Y-85228973D01*
X140588731Y-85138100D01*
X140284325Y-85138100D01*
X140135100Y-85287325D01*
X139804900Y-85287325D01*
X139655675Y-85138100D01*
X139351269Y-85138100D01*
X139131883Y-85228973D01*
X138963972Y-85396883D01*
X138873100Y-85616269D01*
X136713900Y-85616269D01*
X136713900Y-85324113D01*
X136722575Y-85280499D01*
X136713900Y-85236886D01*
X136713900Y-85236882D01*
X136688202Y-85107689D01*
X136590312Y-84961188D01*
X136553336Y-84936481D01*
X134481180Y-82864325D01*
X136573100Y-82864325D01*
X136573100Y-83918731D01*
X136663972Y-84138117D01*
X136831883Y-84306027D01*
X137051269Y-84396900D01*
X138130675Y-84396900D01*
X138279900Y-84247675D01*
X138279900Y-82715100D01*
X138610100Y-82715100D01*
X138610100Y-84247675D01*
X138759325Y-84396900D01*
X139838731Y-84396900D01*
X140058117Y-84306027D01*
X140226028Y-84138117D01*
X140316900Y-83918731D01*
X140316900Y-82864325D01*
X140167675Y-82715100D01*
X138610100Y-82715100D01*
X138279900Y-82715100D01*
X136722325Y-82715100D01*
X136573100Y-82864325D01*
X134481180Y-82864325D01*
X132798124Y-81181269D01*
X136573100Y-81181269D01*
X136573100Y-82235675D01*
X136722325Y-82384900D01*
X138279900Y-82384900D01*
X138279900Y-80852325D01*
X138610100Y-80852325D01*
X138610100Y-82384900D01*
X140167675Y-82384900D01*
X140316900Y-82235675D01*
X140316900Y-81300000D01*
X141870383Y-81300000D01*
X141870383Y-83800000D01*
X141896996Y-83933793D01*
X141972783Y-84047217D01*
X142086207Y-84123004D01*
X142220000Y-84149617D01*
X144770000Y-84149617D01*
X144903793Y-84123004D01*
X145017217Y-84047217D01*
X145093004Y-83933793D01*
X145119617Y-83800000D01*
X145119617Y-83392900D01*
X146154163Y-83392900D01*
X146232366Y-83360507D01*
X146315383Y-83343994D01*
X146385762Y-83296968D01*
X146463964Y-83264576D01*
X146523816Y-83204724D01*
X146594197Y-83157697D01*
X146641224Y-83087316D01*
X146701076Y-83027464D01*
X146733468Y-82949262D01*
X146780494Y-82878883D01*
X146797007Y-82795866D01*
X146829400Y-82717663D01*
X146829400Y-82633015D01*
X146845913Y-82550000D01*
X146829400Y-82466984D01*
X146829400Y-82382337D01*
X146797007Y-82304134D01*
X146780494Y-82221117D01*
X146733468Y-82150738D01*
X146701076Y-82072536D01*
X146641224Y-82012684D01*
X146594197Y-81942303D01*
X146523816Y-81895276D01*
X146463964Y-81835424D01*
X146385762Y-81803032D01*
X146315383Y-81756006D01*
X146232366Y-81739493D01*
X146154163Y-81707100D01*
X145119617Y-81707100D01*
X145119617Y-81300000D01*
X145093004Y-81166207D01*
X145017217Y-81052783D01*
X144903793Y-80976996D01*
X144770000Y-80950383D01*
X144337900Y-80950383D01*
X144337900Y-79578876D01*
X144352900Y-79542663D01*
X144352900Y-79458016D01*
X144369413Y-79375001D01*
X144352900Y-79291986D01*
X144352900Y-79207337D01*
X144320505Y-79129129D01*
X144303993Y-79046118D01*
X144256971Y-78975745D01*
X144224576Y-78897536D01*
X144164719Y-78837679D01*
X144117696Y-78767304D01*
X144047321Y-78720281D01*
X143987464Y-78660424D01*
X143909255Y-78628029D01*
X143838882Y-78581007D01*
X143755871Y-78564495D01*
X143677663Y-78532100D01*
X143593014Y-78532100D01*
X143509999Y-78515587D01*
X143426984Y-78532100D01*
X143342337Y-78532100D01*
X143264130Y-78564494D01*
X143181117Y-78581007D01*
X143110742Y-78628030D01*
X143032536Y-78660424D01*
X142957682Y-78735278D01*
X142887304Y-78782303D01*
X142840279Y-78852681D01*
X142795424Y-78897536D01*
X142771148Y-78956143D01*
X142701007Y-79061117D01*
X142676376Y-79184942D01*
X142667100Y-79207337D01*
X142667100Y-79231576D01*
X142635587Y-79390000D01*
X142652101Y-79473020D01*
X142652101Y-80950383D01*
X142220000Y-80950383D01*
X142086207Y-80976996D01*
X141972783Y-81052783D01*
X141896996Y-81166207D01*
X141870383Y-81300000D01*
X140316900Y-81300000D01*
X140316900Y-81181269D01*
X140226028Y-80961883D01*
X140058117Y-80793973D01*
X139838731Y-80703100D01*
X138759325Y-80703100D01*
X138610100Y-80852325D01*
X138279900Y-80852325D01*
X138130675Y-80703100D01*
X137051269Y-80703100D01*
X136831883Y-80793973D01*
X136663972Y-80961883D01*
X136573100Y-81181269D01*
X132798124Y-81181269D01*
X127534519Y-75917664D01*
X127509812Y-75880688D01*
X127472836Y-75855981D01*
X127472835Y-75855980D01*
X127427870Y-75825936D01*
X127363311Y-75782798D01*
X127234118Y-75757100D01*
X127234113Y-75757100D01*
X127190500Y-75748425D01*
X127146887Y-75757100D01*
X123027731Y-75757100D01*
X122931292Y-75524277D01*
X122595723Y-75188708D01*
X122157283Y-75007100D01*
X121682717Y-75007100D01*
X121244277Y-75188708D01*
X120908708Y-75524277D01*
X120727100Y-75962717D01*
X119797900Y-75962717D01*
X119797900Y-74256557D01*
X161455100Y-74193535D01*
X161455100Y-127217100D01*
G36*
X156581629Y-81265858D02*
X156567487Y-81280000D01*
X156581629Y-81294142D01*
X156348142Y-81527629D01*
X156334000Y-81513487D01*
X156319858Y-81527629D01*
X156086371Y-81294142D01*
X156100513Y-81280000D01*
X156086371Y-81265858D01*
X156319858Y-81032371D01*
X156334000Y-81046513D01*
X156348142Y-81032371D01*
X156581629Y-81265858D01*
X156581629Y-81265858D01*
G37*
X156581629Y-81265858D02*
X156567487Y-81280000D01*
X156581629Y-81294142D01*
X156348142Y-81527629D01*
X156334000Y-81513487D01*
X156319858Y-81527629D01*
X156086371Y-81294142D01*
X156100513Y-81280000D01*
X156086371Y-81265858D01*
X156319858Y-81032371D01*
X156334000Y-81046513D01*
X156348142Y-81032371D01*
X156581629Y-81265858D01*
G04 #@! TD*
M02*
