G04 #@! TF.GenerationSoftware,KiCad,Pcbnew,(5.0.1-3-g963ef8bb5)*
G04 #@! TF.CreationDate,2019-05-18T08:25:07-07:00*
G04 #@! TF.ProjectId,oakram,6F616B72616D2E6B696361645F706362,rev?*
G04 #@! TF.SameCoordinates,Original*
G04 #@! TF.FileFunction,Soldermask,Top*
G04 #@! TF.FilePolarity,Negative*
%FSLAX46Y46*%
G04 Gerber Fmt 4.6, Leading zero omitted, Abs format (unit mm)*
G04 Created by KiCad (PCBNEW (5.0.1-3-g963ef8bb5)) date Saturday, May 18, 2019 at 08:25:07 AM*
%MOMM*%
%LPD*%
G01*
G04 APERTURE LIST*
%ADD10C,0.100000*%
G04 APERTURE END LIST*
D10*
G36*
X159381934Y-124912664D02*
X159536627Y-124976740D01*
X159675847Y-125069764D01*
X159794236Y-125188153D01*
X159887260Y-125327373D01*
X159951336Y-125482066D01*
X159984000Y-125646281D01*
X159984000Y-125813719D01*
X159951336Y-125977934D01*
X159887260Y-126132627D01*
X159794236Y-126271847D01*
X159675847Y-126390236D01*
X159536627Y-126483260D01*
X159381934Y-126547336D01*
X159217719Y-126580000D01*
X159050281Y-126580000D01*
X158886066Y-126547336D01*
X158731373Y-126483260D01*
X158592153Y-126390236D01*
X158473764Y-126271847D01*
X158380740Y-126132627D01*
X158316664Y-125977934D01*
X158284000Y-125813719D01*
X158284000Y-125646281D01*
X158316664Y-125482066D01*
X158380740Y-125327373D01*
X158473764Y-125188153D01*
X158592153Y-125069764D01*
X158731373Y-124976740D01*
X158886066Y-124912664D01*
X159050281Y-124880000D01*
X159217719Y-124880000D01*
X159381934Y-124912664D01*
X159381934Y-124912664D01*
G37*
G36*
X124967934Y-124912664D02*
X125122627Y-124976740D01*
X125261847Y-125069764D01*
X125380236Y-125188153D01*
X125473260Y-125327373D01*
X125537336Y-125482066D01*
X125570000Y-125646281D01*
X125570000Y-125813719D01*
X125537336Y-125977934D01*
X125473260Y-126132627D01*
X125380236Y-126271847D01*
X125261847Y-126390236D01*
X125122627Y-126483260D01*
X124967934Y-126547336D01*
X124803719Y-126580000D01*
X124636281Y-126580000D01*
X124472066Y-126547336D01*
X124317373Y-126483260D01*
X124178153Y-126390236D01*
X124059764Y-126271847D01*
X123966740Y-126132627D01*
X123902664Y-125977934D01*
X123870000Y-125813719D01*
X123870000Y-125646281D01*
X123902664Y-125482066D01*
X123966740Y-125327373D01*
X124059764Y-125188153D01*
X124178153Y-125069764D01*
X124317373Y-124976740D01*
X124472066Y-124912664D01*
X124636281Y-124880000D01*
X124803719Y-124880000D01*
X124967934Y-124912664D01*
X124967934Y-124912664D01*
G37*
G36*
X145768466Y-119132064D02*
X145761068Y-124976740D01*
X145760000Y-125820000D01*
X143277168Y-125825317D01*
X136432311Y-125839974D01*
X136432309Y-125839974D01*
X136420000Y-125840000D01*
X136420000Y-117930000D01*
X140539499Y-117925594D01*
X145757690Y-117920013D01*
X145757691Y-117920013D01*
X145770000Y-117920000D01*
X145768466Y-119132064D01*
X145768466Y-119132064D01*
G37*
G36*
X122167934Y-123642664D02*
X122322627Y-123706740D01*
X122461847Y-123799764D01*
X122580236Y-123918153D01*
X122673260Y-124057373D01*
X122737336Y-124212066D01*
X122770000Y-124376281D01*
X122770000Y-124543719D01*
X122737336Y-124707934D01*
X122673260Y-124862627D01*
X122580236Y-125001847D01*
X122461847Y-125120236D01*
X122322627Y-125213260D01*
X122167934Y-125277336D01*
X122003719Y-125310000D01*
X121836281Y-125310000D01*
X121672066Y-125277336D01*
X121517373Y-125213260D01*
X121378153Y-125120236D01*
X121259764Y-125001847D01*
X121166740Y-124862627D01*
X121102664Y-124707934D01*
X121070000Y-124543719D01*
X121070000Y-124376281D01*
X121102664Y-124212066D01*
X121166740Y-124057373D01*
X121259764Y-123918153D01*
X121378153Y-123799764D01*
X121517373Y-123706740D01*
X121672066Y-123642664D01*
X121836281Y-123610000D01*
X122003719Y-123610000D01*
X122167934Y-123642664D01*
X122167934Y-123642664D01*
G37*
G36*
X156581934Y-123642664D02*
X156736627Y-123706740D01*
X156875847Y-123799764D01*
X156994236Y-123918153D01*
X157087260Y-124057373D01*
X157151336Y-124212066D01*
X157184000Y-124376281D01*
X157184000Y-124543719D01*
X157151336Y-124707934D01*
X157087260Y-124862627D01*
X156994236Y-125001847D01*
X156875847Y-125120236D01*
X156736627Y-125213260D01*
X156581934Y-125277336D01*
X156417719Y-125310000D01*
X156250281Y-125310000D01*
X156086066Y-125277336D01*
X155931373Y-125213260D01*
X155792153Y-125120236D01*
X155673764Y-125001847D01*
X155580740Y-124862627D01*
X155516664Y-124707934D01*
X155484000Y-124543719D01*
X155484000Y-124376281D01*
X155516664Y-124212066D01*
X155580740Y-124057373D01*
X155673764Y-123918153D01*
X155792153Y-123799764D01*
X155931373Y-123706740D01*
X156086066Y-123642664D01*
X156250281Y-123610000D01*
X156417719Y-123610000D01*
X156581934Y-123642664D01*
X156581934Y-123642664D01*
G37*
G36*
X159381934Y-122372664D02*
X159536627Y-122436740D01*
X159675847Y-122529764D01*
X159794236Y-122648153D01*
X159887260Y-122787373D01*
X159951336Y-122942066D01*
X159984000Y-123106281D01*
X159984000Y-123273719D01*
X159951336Y-123437934D01*
X159887260Y-123592627D01*
X159794236Y-123731847D01*
X159675847Y-123850236D01*
X159536627Y-123943260D01*
X159381934Y-124007336D01*
X159217719Y-124040000D01*
X159050281Y-124040000D01*
X158886066Y-124007336D01*
X158731373Y-123943260D01*
X158592153Y-123850236D01*
X158473764Y-123731847D01*
X158380740Y-123592627D01*
X158316664Y-123437934D01*
X158284000Y-123273719D01*
X158284000Y-123106281D01*
X158316664Y-122942066D01*
X158380740Y-122787373D01*
X158473764Y-122648153D01*
X158592153Y-122529764D01*
X158731373Y-122436740D01*
X158886066Y-122372664D01*
X159050281Y-122340000D01*
X159217719Y-122340000D01*
X159381934Y-122372664D01*
X159381934Y-122372664D01*
G37*
G36*
X124967934Y-122372664D02*
X125122627Y-122436740D01*
X125261847Y-122529764D01*
X125380236Y-122648153D01*
X125473260Y-122787373D01*
X125537336Y-122942066D01*
X125570000Y-123106281D01*
X125570000Y-123273719D01*
X125537336Y-123437934D01*
X125473260Y-123592627D01*
X125380236Y-123731847D01*
X125261847Y-123850236D01*
X125122627Y-123943260D01*
X124967934Y-124007336D01*
X124803719Y-124040000D01*
X124636281Y-124040000D01*
X124472066Y-124007336D01*
X124317373Y-123943260D01*
X124178153Y-123850236D01*
X124059764Y-123731847D01*
X123966740Y-123592627D01*
X123902664Y-123437934D01*
X123870000Y-123273719D01*
X123870000Y-123106281D01*
X123902664Y-122942066D01*
X123966740Y-122787373D01*
X124059764Y-122648153D01*
X124178153Y-122529764D01*
X124317373Y-122436740D01*
X124472066Y-122372664D01*
X124636281Y-122340000D01*
X124803719Y-122340000D01*
X124967934Y-122372664D01*
X124967934Y-122372664D01*
G37*
G36*
X122167934Y-121102664D02*
X122322627Y-121166740D01*
X122461847Y-121259764D01*
X122580236Y-121378153D01*
X122673260Y-121517373D01*
X122737336Y-121672066D01*
X122770000Y-121836281D01*
X122770000Y-122003719D01*
X122737336Y-122167934D01*
X122673260Y-122322627D01*
X122580236Y-122461847D01*
X122461847Y-122580236D01*
X122322627Y-122673260D01*
X122167934Y-122737336D01*
X122003719Y-122770000D01*
X121836281Y-122770000D01*
X121672066Y-122737336D01*
X121517373Y-122673260D01*
X121378153Y-122580236D01*
X121259764Y-122461847D01*
X121166740Y-122322627D01*
X121102664Y-122167934D01*
X121070000Y-122003719D01*
X121070000Y-121836281D01*
X121102664Y-121672066D01*
X121166740Y-121517373D01*
X121259764Y-121378153D01*
X121378153Y-121259764D01*
X121517373Y-121166740D01*
X121672066Y-121102664D01*
X121836281Y-121070000D01*
X122003719Y-121070000D01*
X122167934Y-121102664D01*
X122167934Y-121102664D01*
G37*
G36*
X156581934Y-121102664D02*
X156736627Y-121166740D01*
X156875847Y-121259764D01*
X156994236Y-121378153D01*
X157087260Y-121517373D01*
X157151336Y-121672066D01*
X157184000Y-121836281D01*
X157184000Y-122003719D01*
X157151336Y-122167934D01*
X157087260Y-122322627D01*
X156994236Y-122461847D01*
X156875847Y-122580236D01*
X156736627Y-122673260D01*
X156581934Y-122737336D01*
X156417719Y-122770000D01*
X156250281Y-122770000D01*
X156086066Y-122737336D01*
X155931373Y-122673260D01*
X155792153Y-122580236D01*
X155673764Y-122461847D01*
X155580740Y-122322627D01*
X155516664Y-122167934D01*
X155484000Y-122003719D01*
X155484000Y-121836281D01*
X155516664Y-121672066D01*
X155580740Y-121517373D01*
X155673764Y-121378153D01*
X155792153Y-121259764D01*
X155931373Y-121166740D01*
X156086066Y-121102664D01*
X156250281Y-121070000D01*
X156417719Y-121070000D01*
X156581934Y-121102664D01*
X156581934Y-121102664D01*
G37*
G36*
X124967934Y-119832664D02*
X125122627Y-119896740D01*
X125261847Y-119989764D01*
X125380236Y-120108153D01*
X125473260Y-120247373D01*
X125537336Y-120402066D01*
X125570000Y-120566281D01*
X125570000Y-120733719D01*
X125537336Y-120897934D01*
X125473260Y-121052627D01*
X125380236Y-121191847D01*
X125261847Y-121310236D01*
X125122627Y-121403260D01*
X124967934Y-121467336D01*
X124803719Y-121500000D01*
X124636281Y-121500000D01*
X124472066Y-121467336D01*
X124317373Y-121403260D01*
X124178153Y-121310236D01*
X124059764Y-121191847D01*
X123966740Y-121052627D01*
X123902664Y-120897934D01*
X123870000Y-120733719D01*
X123870000Y-120566281D01*
X123902664Y-120402066D01*
X123966740Y-120247373D01*
X124059764Y-120108153D01*
X124178153Y-119989764D01*
X124317373Y-119896740D01*
X124472066Y-119832664D01*
X124636281Y-119800000D01*
X124803719Y-119800000D01*
X124967934Y-119832664D01*
X124967934Y-119832664D01*
G37*
G36*
X159381934Y-119832664D02*
X159536627Y-119896740D01*
X159675847Y-119989764D01*
X159794236Y-120108153D01*
X159887260Y-120247373D01*
X159951336Y-120402066D01*
X159984000Y-120566281D01*
X159984000Y-120733719D01*
X159951336Y-120897934D01*
X159887260Y-121052627D01*
X159794236Y-121191847D01*
X159675847Y-121310236D01*
X159536627Y-121403260D01*
X159381934Y-121467336D01*
X159217719Y-121500000D01*
X159050281Y-121500000D01*
X158886066Y-121467336D01*
X158731373Y-121403260D01*
X158592153Y-121310236D01*
X158473764Y-121191847D01*
X158380740Y-121052627D01*
X158316664Y-120897934D01*
X158284000Y-120733719D01*
X158284000Y-120566281D01*
X158316664Y-120402066D01*
X158380740Y-120247373D01*
X158473764Y-120108153D01*
X158592153Y-119989764D01*
X158731373Y-119896740D01*
X158886066Y-119832664D01*
X159050281Y-119800000D01*
X159217719Y-119800000D01*
X159381934Y-119832664D01*
X159381934Y-119832664D01*
G37*
G36*
X156581934Y-118562664D02*
X156736627Y-118626740D01*
X156875847Y-118719764D01*
X156994236Y-118838153D01*
X157087260Y-118977373D01*
X157151336Y-119132066D01*
X157184000Y-119296281D01*
X157184000Y-119463719D01*
X157151336Y-119627934D01*
X157087260Y-119782627D01*
X156994236Y-119921847D01*
X156875847Y-120040236D01*
X156736627Y-120133260D01*
X156581934Y-120197336D01*
X156417719Y-120230000D01*
X156250281Y-120230000D01*
X156086066Y-120197336D01*
X155931373Y-120133260D01*
X155792153Y-120040236D01*
X155673764Y-119921847D01*
X155580740Y-119782627D01*
X155516664Y-119627934D01*
X155484000Y-119463719D01*
X155484000Y-119296281D01*
X155516664Y-119132066D01*
X155580740Y-118977373D01*
X155673764Y-118838153D01*
X155792153Y-118719764D01*
X155931373Y-118626740D01*
X156086066Y-118562664D01*
X156250281Y-118530000D01*
X156417719Y-118530000D01*
X156581934Y-118562664D01*
X156581934Y-118562664D01*
G37*
G36*
X122167934Y-118562664D02*
X122322627Y-118626740D01*
X122461847Y-118719764D01*
X122580236Y-118838153D01*
X122673260Y-118977373D01*
X122737336Y-119132066D01*
X122770000Y-119296281D01*
X122770000Y-119463719D01*
X122737336Y-119627934D01*
X122673260Y-119782627D01*
X122580236Y-119921847D01*
X122461847Y-120040236D01*
X122322627Y-120133260D01*
X122167934Y-120197336D01*
X122003719Y-120230000D01*
X121836281Y-120230000D01*
X121672066Y-120197336D01*
X121517373Y-120133260D01*
X121378153Y-120040236D01*
X121259764Y-119921847D01*
X121166740Y-119782627D01*
X121102664Y-119627934D01*
X121070000Y-119463719D01*
X121070000Y-119296281D01*
X121102664Y-119132066D01*
X121166740Y-118977373D01*
X121259764Y-118838153D01*
X121378153Y-118719764D01*
X121517373Y-118626740D01*
X121672066Y-118562664D01*
X121836281Y-118530000D01*
X122003719Y-118530000D01*
X122167934Y-118562664D01*
X122167934Y-118562664D01*
G37*
G36*
X159381934Y-117292664D02*
X159536627Y-117356740D01*
X159675847Y-117449764D01*
X159794236Y-117568153D01*
X159887260Y-117707373D01*
X159951336Y-117862066D01*
X159984000Y-118026281D01*
X159984000Y-118193719D01*
X159951336Y-118357934D01*
X159887260Y-118512627D01*
X159794236Y-118651847D01*
X159675847Y-118770236D01*
X159536627Y-118863260D01*
X159381934Y-118927336D01*
X159217719Y-118960000D01*
X159050281Y-118960000D01*
X158886066Y-118927336D01*
X158731373Y-118863260D01*
X158592153Y-118770236D01*
X158473764Y-118651847D01*
X158380740Y-118512627D01*
X158316664Y-118357934D01*
X158284000Y-118193719D01*
X158284000Y-118026281D01*
X158316664Y-117862066D01*
X158380740Y-117707373D01*
X158473764Y-117568153D01*
X158592153Y-117449764D01*
X158731373Y-117356740D01*
X158886066Y-117292664D01*
X159050281Y-117260000D01*
X159217719Y-117260000D01*
X159381934Y-117292664D01*
X159381934Y-117292664D01*
G37*
G36*
X124967934Y-117292664D02*
X125122627Y-117356740D01*
X125261847Y-117449764D01*
X125380236Y-117568153D01*
X125473260Y-117707373D01*
X125537336Y-117862066D01*
X125570000Y-118026281D01*
X125570000Y-118193719D01*
X125537336Y-118357934D01*
X125473260Y-118512627D01*
X125380236Y-118651847D01*
X125261847Y-118770236D01*
X125122627Y-118863260D01*
X124967934Y-118927336D01*
X124803719Y-118960000D01*
X124636281Y-118960000D01*
X124472066Y-118927336D01*
X124317373Y-118863260D01*
X124178153Y-118770236D01*
X124059764Y-118651847D01*
X123966740Y-118512627D01*
X123902664Y-118357934D01*
X123870000Y-118193719D01*
X123870000Y-118026281D01*
X123902664Y-117862066D01*
X123966740Y-117707373D01*
X124059764Y-117568153D01*
X124178153Y-117449764D01*
X124317373Y-117356740D01*
X124472066Y-117292664D01*
X124636281Y-117260000D01*
X124803719Y-117260000D01*
X124967934Y-117292664D01*
X124967934Y-117292664D01*
G37*
G36*
X156581934Y-116022664D02*
X156736627Y-116086740D01*
X156875847Y-116179764D01*
X156994236Y-116298153D01*
X157087260Y-116437373D01*
X157151336Y-116592066D01*
X157184000Y-116756281D01*
X157184000Y-116923719D01*
X157151336Y-117087934D01*
X157087260Y-117242627D01*
X156994236Y-117381847D01*
X156875847Y-117500236D01*
X156736627Y-117593260D01*
X156581934Y-117657336D01*
X156417719Y-117690000D01*
X156250281Y-117690000D01*
X156086066Y-117657336D01*
X155931373Y-117593260D01*
X155792153Y-117500236D01*
X155673764Y-117381847D01*
X155580740Y-117242627D01*
X155516664Y-117087934D01*
X155484000Y-116923719D01*
X155484000Y-116756281D01*
X155516664Y-116592066D01*
X155580740Y-116437373D01*
X155673764Y-116298153D01*
X155792153Y-116179764D01*
X155931373Y-116086740D01*
X156086066Y-116022664D01*
X156250281Y-115990000D01*
X156417719Y-115990000D01*
X156581934Y-116022664D01*
X156581934Y-116022664D01*
G37*
G36*
X122167934Y-116022664D02*
X122322627Y-116086740D01*
X122461847Y-116179764D01*
X122580236Y-116298153D01*
X122673260Y-116437373D01*
X122737336Y-116592066D01*
X122770000Y-116756281D01*
X122770000Y-116923719D01*
X122737336Y-117087934D01*
X122673260Y-117242627D01*
X122580236Y-117381847D01*
X122461847Y-117500236D01*
X122322627Y-117593260D01*
X122167934Y-117657336D01*
X122003719Y-117690000D01*
X121836281Y-117690000D01*
X121672066Y-117657336D01*
X121517373Y-117593260D01*
X121378153Y-117500236D01*
X121259764Y-117381847D01*
X121166740Y-117242627D01*
X121102664Y-117087934D01*
X121070000Y-116923719D01*
X121070000Y-116756281D01*
X121102664Y-116592066D01*
X121166740Y-116437373D01*
X121259764Y-116298153D01*
X121378153Y-116179764D01*
X121517373Y-116086740D01*
X121672066Y-116022664D01*
X121836281Y-115990000D01*
X122003719Y-115990000D01*
X122167934Y-116022664D01*
X122167934Y-116022664D01*
G37*
G36*
X129240000Y-117030000D02*
X127840000Y-117030000D01*
X127840000Y-115380000D01*
X129240000Y-115380000D01*
X129240000Y-117030000D01*
X129240000Y-117030000D01*
G37*
G36*
X131240000Y-117030000D02*
X129840000Y-117030000D01*
X129840000Y-115380000D01*
X131240000Y-115380000D01*
X131240000Y-117030000D01*
X131240000Y-117030000D01*
G37*
G36*
X145845000Y-117030000D02*
X144445000Y-117030000D01*
X144445000Y-115380000D01*
X145845000Y-115380000D01*
X145845000Y-117030000D01*
X145845000Y-117030000D01*
G37*
G36*
X143845000Y-117030000D02*
X142445000Y-117030000D01*
X142445000Y-115380000D01*
X143845000Y-115380000D01*
X143845000Y-117030000D01*
X143845000Y-117030000D01*
G37*
G36*
X159381934Y-114752664D02*
X159536627Y-114816740D01*
X159675847Y-114909764D01*
X159794236Y-115028153D01*
X159887260Y-115167373D01*
X159951336Y-115322066D01*
X159984000Y-115486281D01*
X159984000Y-115653719D01*
X159951336Y-115817934D01*
X159887260Y-115972627D01*
X159794236Y-116111847D01*
X159675847Y-116230236D01*
X159536627Y-116323260D01*
X159381934Y-116387336D01*
X159217719Y-116420000D01*
X159050281Y-116420000D01*
X158886066Y-116387336D01*
X158731373Y-116323260D01*
X158592153Y-116230236D01*
X158473764Y-116111847D01*
X158380740Y-115972627D01*
X158316664Y-115817934D01*
X158284000Y-115653719D01*
X158284000Y-115486281D01*
X158316664Y-115322066D01*
X158380740Y-115167373D01*
X158473764Y-115028153D01*
X158592153Y-114909764D01*
X158731373Y-114816740D01*
X158886066Y-114752664D01*
X159050281Y-114720000D01*
X159217719Y-114720000D01*
X159381934Y-114752664D01*
X159381934Y-114752664D01*
G37*
G36*
X124967934Y-114752664D02*
X125122627Y-114816740D01*
X125261847Y-114909764D01*
X125380236Y-115028153D01*
X125473260Y-115167373D01*
X125537336Y-115322066D01*
X125570000Y-115486281D01*
X125570000Y-115653719D01*
X125537336Y-115817934D01*
X125473260Y-115972627D01*
X125380236Y-116111847D01*
X125261847Y-116230236D01*
X125122627Y-116323260D01*
X124967934Y-116387336D01*
X124803719Y-116420000D01*
X124636281Y-116420000D01*
X124472066Y-116387336D01*
X124317373Y-116323260D01*
X124178153Y-116230236D01*
X124059764Y-116111847D01*
X123966740Y-115972627D01*
X123902664Y-115817934D01*
X123870000Y-115653719D01*
X123870000Y-115486281D01*
X123902664Y-115322066D01*
X123966740Y-115167373D01*
X124059764Y-115028153D01*
X124178153Y-114909764D01*
X124317373Y-114816740D01*
X124472066Y-114752664D01*
X124636281Y-114720000D01*
X124803719Y-114720000D01*
X124967934Y-114752664D01*
X124967934Y-114752664D01*
G37*
G36*
X122167934Y-113482664D02*
X122322627Y-113546740D01*
X122461847Y-113639764D01*
X122580236Y-113758153D01*
X122673260Y-113897373D01*
X122737336Y-114052066D01*
X122770000Y-114216281D01*
X122770000Y-114383719D01*
X122737336Y-114547934D01*
X122673260Y-114702627D01*
X122580236Y-114841847D01*
X122461847Y-114960236D01*
X122322627Y-115053260D01*
X122167934Y-115117336D01*
X122003719Y-115150000D01*
X121836281Y-115150000D01*
X121672066Y-115117336D01*
X121517373Y-115053260D01*
X121378153Y-114960236D01*
X121259764Y-114841847D01*
X121166740Y-114702627D01*
X121102664Y-114547934D01*
X121070000Y-114383719D01*
X121070000Y-114216281D01*
X121102664Y-114052066D01*
X121166740Y-113897373D01*
X121259764Y-113758153D01*
X121378153Y-113639764D01*
X121517373Y-113546740D01*
X121672066Y-113482664D01*
X121836281Y-113450000D01*
X122003719Y-113450000D01*
X122167934Y-113482664D01*
X122167934Y-113482664D01*
G37*
G36*
X156581934Y-113482664D02*
X156736627Y-113546740D01*
X156875847Y-113639764D01*
X156994236Y-113758153D01*
X157087260Y-113897373D01*
X157151336Y-114052066D01*
X157184000Y-114216281D01*
X157184000Y-114383719D01*
X157151336Y-114547934D01*
X157087260Y-114702627D01*
X156994236Y-114841847D01*
X156875847Y-114960236D01*
X156736627Y-115053260D01*
X156581934Y-115117336D01*
X156417719Y-115150000D01*
X156250281Y-115150000D01*
X156086066Y-115117336D01*
X155931373Y-115053260D01*
X155792153Y-114960236D01*
X155673764Y-114841847D01*
X155580740Y-114702627D01*
X155516664Y-114547934D01*
X155484000Y-114383719D01*
X155484000Y-114216281D01*
X155516664Y-114052066D01*
X155580740Y-113897373D01*
X155673764Y-113758153D01*
X155792153Y-113639764D01*
X155931373Y-113546740D01*
X156086066Y-113482664D01*
X156250281Y-113450000D01*
X156417719Y-113450000D01*
X156581934Y-113482664D01*
X156581934Y-113482664D01*
G37*
G36*
X129486000Y-114754000D02*
X127054000Y-114754000D01*
X127054000Y-113846000D01*
X129486000Y-113846000D01*
X129486000Y-114754000D01*
X129486000Y-114754000D01*
G37*
G36*
X154251000Y-114754000D02*
X151819000Y-114754000D01*
X151819000Y-113846000D01*
X154251000Y-113846000D01*
X154251000Y-114754000D01*
X154251000Y-114754000D01*
G37*
G36*
X144091000Y-114754000D02*
X141659000Y-114754000D01*
X141659000Y-113846000D01*
X144091000Y-113846000D01*
X144091000Y-114754000D01*
X144091000Y-114754000D01*
G37*
G36*
X139646000Y-114754000D02*
X137214000Y-114754000D01*
X137214000Y-113846000D01*
X139646000Y-113846000D01*
X139646000Y-114754000D01*
X139646000Y-114754000D01*
G37*
G36*
X159381934Y-112212664D02*
X159536627Y-112276740D01*
X159675847Y-112369764D01*
X159794236Y-112488153D01*
X159887260Y-112627373D01*
X159951336Y-112782066D01*
X159984000Y-112946281D01*
X159984000Y-113113719D01*
X159951336Y-113277934D01*
X159887260Y-113432627D01*
X159794236Y-113571847D01*
X159675847Y-113690236D01*
X159536627Y-113783260D01*
X159381934Y-113847336D01*
X159217719Y-113880000D01*
X159050281Y-113880000D01*
X158886066Y-113847336D01*
X158731373Y-113783260D01*
X158592153Y-113690236D01*
X158473764Y-113571847D01*
X158380740Y-113432627D01*
X158316664Y-113277934D01*
X158284000Y-113113719D01*
X158284000Y-112946281D01*
X158316664Y-112782066D01*
X158380740Y-112627373D01*
X158473764Y-112488153D01*
X158592153Y-112369764D01*
X158731373Y-112276740D01*
X158886066Y-112212664D01*
X159050281Y-112180000D01*
X159217719Y-112180000D01*
X159381934Y-112212664D01*
X159381934Y-112212664D01*
G37*
G36*
X124967934Y-112212664D02*
X125122627Y-112276740D01*
X125261847Y-112369764D01*
X125380236Y-112488153D01*
X125473260Y-112627373D01*
X125537336Y-112782066D01*
X125570000Y-112946281D01*
X125570000Y-113113719D01*
X125537336Y-113277934D01*
X125473260Y-113432627D01*
X125380236Y-113571847D01*
X125261847Y-113690236D01*
X125122627Y-113783260D01*
X124967934Y-113847336D01*
X124803719Y-113880000D01*
X124636281Y-113880000D01*
X124472066Y-113847336D01*
X124317373Y-113783260D01*
X124178153Y-113690236D01*
X124059764Y-113571847D01*
X123966740Y-113432627D01*
X123902664Y-113277934D01*
X123870000Y-113113719D01*
X123870000Y-112946281D01*
X123902664Y-112782066D01*
X123966740Y-112627373D01*
X124059764Y-112488153D01*
X124178153Y-112369764D01*
X124317373Y-112276740D01*
X124472066Y-112212664D01*
X124636281Y-112180000D01*
X124803719Y-112180000D01*
X124967934Y-112212664D01*
X124967934Y-112212664D01*
G37*
G36*
X129486000Y-113484000D02*
X127054000Y-113484000D01*
X127054000Y-112576000D01*
X129486000Y-112576000D01*
X129486000Y-113484000D01*
X129486000Y-113484000D01*
G37*
G36*
X139646000Y-113484000D02*
X137214000Y-113484000D01*
X137214000Y-112576000D01*
X139646000Y-112576000D01*
X139646000Y-113484000D01*
X139646000Y-113484000D01*
G37*
G36*
X154251000Y-113484000D02*
X151819000Y-113484000D01*
X151819000Y-112576000D01*
X154251000Y-112576000D01*
X154251000Y-113484000D01*
X154251000Y-113484000D01*
G37*
G36*
X144091000Y-113484000D02*
X141659000Y-113484000D01*
X141659000Y-112576000D01*
X144091000Y-112576000D01*
X144091000Y-113484000D01*
X144091000Y-113484000D01*
G37*
G36*
X156581934Y-110942664D02*
X156736627Y-111006740D01*
X156875847Y-111099764D01*
X156994236Y-111218153D01*
X157087260Y-111357373D01*
X157151336Y-111512066D01*
X157184000Y-111676281D01*
X157184000Y-111843719D01*
X157151336Y-112007934D01*
X157087260Y-112162627D01*
X156994236Y-112301847D01*
X156875847Y-112420236D01*
X156736627Y-112513260D01*
X156581934Y-112577336D01*
X156417719Y-112610000D01*
X156250281Y-112610000D01*
X156086066Y-112577336D01*
X155931373Y-112513260D01*
X155792153Y-112420236D01*
X155673764Y-112301847D01*
X155580740Y-112162627D01*
X155516664Y-112007934D01*
X155484000Y-111843719D01*
X155484000Y-111676281D01*
X155516664Y-111512066D01*
X155580740Y-111357373D01*
X155673764Y-111218153D01*
X155792153Y-111099764D01*
X155931373Y-111006740D01*
X156086066Y-110942664D01*
X156250281Y-110910000D01*
X156417719Y-110910000D01*
X156581934Y-110942664D01*
X156581934Y-110942664D01*
G37*
G36*
X122167934Y-110942664D02*
X122322627Y-111006740D01*
X122461847Y-111099764D01*
X122580236Y-111218153D01*
X122673260Y-111357373D01*
X122737336Y-111512066D01*
X122770000Y-111676281D01*
X122770000Y-111843719D01*
X122737336Y-112007934D01*
X122673260Y-112162627D01*
X122580236Y-112301847D01*
X122461847Y-112420236D01*
X122322627Y-112513260D01*
X122167934Y-112577336D01*
X122003719Y-112610000D01*
X121836281Y-112610000D01*
X121672066Y-112577336D01*
X121517373Y-112513260D01*
X121378153Y-112420236D01*
X121259764Y-112301847D01*
X121166740Y-112162627D01*
X121102664Y-112007934D01*
X121070000Y-111843719D01*
X121070000Y-111676281D01*
X121102664Y-111512066D01*
X121166740Y-111357373D01*
X121259764Y-111218153D01*
X121378153Y-111099764D01*
X121517373Y-111006740D01*
X121672066Y-110942664D01*
X121836281Y-110910000D01*
X122003719Y-110910000D01*
X122167934Y-110942664D01*
X122167934Y-110942664D01*
G37*
G36*
X129486000Y-112214000D02*
X127054000Y-112214000D01*
X127054000Y-111306000D01*
X129486000Y-111306000D01*
X129486000Y-112214000D01*
X129486000Y-112214000D01*
G37*
G36*
X139646000Y-112214000D02*
X137214000Y-112214000D01*
X137214000Y-111306000D01*
X139646000Y-111306000D01*
X139646000Y-112214000D01*
X139646000Y-112214000D01*
G37*
G36*
X144091000Y-112214000D02*
X141659000Y-112214000D01*
X141659000Y-111306000D01*
X144091000Y-111306000D01*
X144091000Y-112214000D01*
X144091000Y-112214000D01*
G37*
G36*
X154251000Y-112214000D02*
X151819000Y-112214000D01*
X151819000Y-111306000D01*
X154251000Y-111306000D01*
X154251000Y-112214000D01*
X154251000Y-112214000D01*
G37*
G36*
X124967934Y-109672664D02*
X125122627Y-109736740D01*
X125261847Y-109829764D01*
X125380236Y-109948153D01*
X125473260Y-110087373D01*
X125537336Y-110242066D01*
X125570000Y-110406281D01*
X125570000Y-110573719D01*
X125537336Y-110737934D01*
X125473260Y-110892627D01*
X125380236Y-111031847D01*
X125261847Y-111150236D01*
X125122627Y-111243260D01*
X124967934Y-111307336D01*
X124803719Y-111340000D01*
X124636281Y-111340000D01*
X124472066Y-111307336D01*
X124317373Y-111243260D01*
X124178153Y-111150236D01*
X124059764Y-111031847D01*
X123966740Y-110892627D01*
X123902664Y-110737934D01*
X123870000Y-110573719D01*
X123870000Y-110406281D01*
X123902664Y-110242066D01*
X123966740Y-110087373D01*
X124059764Y-109948153D01*
X124178153Y-109829764D01*
X124317373Y-109736740D01*
X124472066Y-109672664D01*
X124636281Y-109640000D01*
X124803719Y-109640000D01*
X124967934Y-109672664D01*
X124967934Y-109672664D01*
G37*
G36*
X159381934Y-109672664D02*
X159536627Y-109736740D01*
X159675847Y-109829764D01*
X159794236Y-109948153D01*
X159887260Y-110087373D01*
X159951336Y-110242066D01*
X159984000Y-110406281D01*
X159984000Y-110573719D01*
X159951336Y-110737934D01*
X159887260Y-110892627D01*
X159794236Y-111031847D01*
X159675847Y-111150236D01*
X159536627Y-111243260D01*
X159381934Y-111307336D01*
X159217719Y-111340000D01*
X159050281Y-111340000D01*
X158886066Y-111307336D01*
X158731373Y-111243260D01*
X158592153Y-111150236D01*
X158473764Y-111031847D01*
X158380740Y-110892627D01*
X158316664Y-110737934D01*
X158284000Y-110573719D01*
X158284000Y-110406281D01*
X158316664Y-110242066D01*
X158380740Y-110087373D01*
X158473764Y-109948153D01*
X158592153Y-109829764D01*
X158731373Y-109736740D01*
X158886066Y-109672664D01*
X159050281Y-109640000D01*
X159217719Y-109640000D01*
X159381934Y-109672664D01*
X159381934Y-109672664D01*
G37*
G36*
X144091000Y-110944000D02*
X141659000Y-110944000D01*
X141659000Y-110036000D01*
X144091000Y-110036000D01*
X144091000Y-110944000D01*
X144091000Y-110944000D01*
G37*
G36*
X139646000Y-110944000D02*
X137214000Y-110944000D01*
X137214000Y-110036000D01*
X139646000Y-110036000D01*
X139646000Y-110944000D01*
X139646000Y-110944000D01*
G37*
G36*
X129486000Y-110944000D02*
X127054000Y-110944000D01*
X127054000Y-110036000D01*
X129486000Y-110036000D01*
X129486000Y-110944000D01*
X129486000Y-110944000D01*
G37*
G36*
X154251000Y-110944000D02*
X151819000Y-110944000D01*
X151819000Y-110036000D01*
X154251000Y-110036000D01*
X154251000Y-110944000D01*
X154251000Y-110944000D01*
G37*
G36*
X156581934Y-108402664D02*
X156736627Y-108466740D01*
X156875847Y-108559764D01*
X156994236Y-108678153D01*
X157087260Y-108817373D01*
X157151336Y-108972066D01*
X157184000Y-109136281D01*
X157184000Y-109303719D01*
X157151336Y-109467934D01*
X157087260Y-109622627D01*
X156994236Y-109761847D01*
X156875847Y-109880236D01*
X156736627Y-109973260D01*
X156581934Y-110037336D01*
X156417719Y-110070000D01*
X156250281Y-110070000D01*
X156086066Y-110037336D01*
X155931373Y-109973260D01*
X155792153Y-109880236D01*
X155673764Y-109761847D01*
X155580740Y-109622627D01*
X155516664Y-109467934D01*
X155484000Y-109303719D01*
X155484000Y-109136281D01*
X155516664Y-108972066D01*
X155580740Y-108817373D01*
X155673764Y-108678153D01*
X155792153Y-108559764D01*
X155931373Y-108466740D01*
X156086066Y-108402664D01*
X156250281Y-108370000D01*
X156417719Y-108370000D01*
X156581934Y-108402664D01*
X156581934Y-108402664D01*
G37*
G36*
X122167934Y-108402664D02*
X122322627Y-108466740D01*
X122461847Y-108559764D01*
X122580236Y-108678153D01*
X122673260Y-108817373D01*
X122737336Y-108972066D01*
X122770000Y-109136281D01*
X122770000Y-109303719D01*
X122737336Y-109467934D01*
X122673260Y-109622627D01*
X122580236Y-109761847D01*
X122461847Y-109880236D01*
X122322627Y-109973260D01*
X122167934Y-110037336D01*
X122003719Y-110070000D01*
X121836281Y-110070000D01*
X121672066Y-110037336D01*
X121517373Y-109973260D01*
X121378153Y-109880236D01*
X121259764Y-109761847D01*
X121166740Y-109622627D01*
X121102664Y-109467934D01*
X121070000Y-109303719D01*
X121070000Y-109136281D01*
X121102664Y-108972066D01*
X121166740Y-108817373D01*
X121259764Y-108678153D01*
X121378153Y-108559764D01*
X121517373Y-108466740D01*
X121672066Y-108402664D01*
X121836281Y-108370000D01*
X122003719Y-108370000D01*
X122167934Y-108402664D01*
X122167934Y-108402664D01*
G37*
G36*
X139646000Y-109674000D02*
X137214000Y-109674000D01*
X137214000Y-108766000D01*
X139646000Y-108766000D01*
X139646000Y-109674000D01*
X139646000Y-109674000D01*
G37*
G36*
X129486000Y-109674000D02*
X127054000Y-109674000D01*
X127054000Y-108766000D01*
X129486000Y-108766000D01*
X129486000Y-109674000D01*
X129486000Y-109674000D01*
G37*
G36*
X144091000Y-109674000D02*
X141659000Y-109674000D01*
X141659000Y-108766000D01*
X144091000Y-108766000D01*
X144091000Y-109674000D01*
X144091000Y-109674000D01*
G37*
G36*
X154251000Y-109674000D02*
X151819000Y-109674000D01*
X151819000Y-108766000D01*
X154251000Y-108766000D01*
X154251000Y-109674000D01*
X154251000Y-109674000D01*
G37*
G36*
X124967934Y-107132664D02*
X125122627Y-107196740D01*
X125261847Y-107289764D01*
X125380236Y-107408153D01*
X125473260Y-107547373D01*
X125537336Y-107702066D01*
X125570000Y-107866281D01*
X125570000Y-108033719D01*
X125537336Y-108197934D01*
X125473260Y-108352627D01*
X125380236Y-108491847D01*
X125261847Y-108610236D01*
X125122627Y-108703260D01*
X124967934Y-108767336D01*
X124803719Y-108800000D01*
X124636281Y-108800000D01*
X124472066Y-108767336D01*
X124317373Y-108703260D01*
X124178153Y-108610236D01*
X124059764Y-108491847D01*
X123966740Y-108352627D01*
X123902664Y-108197934D01*
X123870000Y-108033719D01*
X123870000Y-107866281D01*
X123902664Y-107702066D01*
X123966740Y-107547373D01*
X124059764Y-107408153D01*
X124178153Y-107289764D01*
X124317373Y-107196740D01*
X124472066Y-107132664D01*
X124636281Y-107100000D01*
X124803719Y-107100000D01*
X124967934Y-107132664D01*
X124967934Y-107132664D01*
G37*
G36*
X159381934Y-107132664D02*
X159536627Y-107196740D01*
X159675847Y-107289764D01*
X159794236Y-107408153D01*
X159887260Y-107547373D01*
X159951336Y-107702066D01*
X159984000Y-107866281D01*
X159984000Y-108033719D01*
X159951336Y-108197934D01*
X159887260Y-108352627D01*
X159794236Y-108491847D01*
X159675847Y-108610236D01*
X159536627Y-108703260D01*
X159381934Y-108767336D01*
X159217719Y-108800000D01*
X159050281Y-108800000D01*
X158886066Y-108767336D01*
X158731373Y-108703260D01*
X158592153Y-108610236D01*
X158473764Y-108491847D01*
X158380740Y-108352627D01*
X158316664Y-108197934D01*
X158284000Y-108033719D01*
X158284000Y-107866281D01*
X158316664Y-107702066D01*
X158380740Y-107547373D01*
X158473764Y-107408153D01*
X158592153Y-107289764D01*
X158731373Y-107196740D01*
X158886066Y-107132664D01*
X159050281Y-107100000D01*
X159217719Y-107100000D01*
X159381934Y-107132664D01*
X159381934Y-107132664D01*
G37*
G36*
X129486000Y-108404000D02*
X127054000Y-108404000D01*
X127054000Y-107496000D01*
X129486000Y-107496000D01*
X129486000Y-108404000D01*
X129486000Y-108404000D01*
G37*
G36*
X139646000Y-108404000D02*
X137214000Y-108404000D01*
X137214000Y-107496000D01*
X139646000Y-107496000D01*
X139646000Y-108404000D01*
X139646000Y-108404000D01*
G37*
G36*
X154251000Y-108404000D02*
X151819000Y-108404000D01*
X151819000Y-107496000D01*
X154251000Y-107496000D01*
X154251000Y-108404000D01*
X154251000Y-108404000D01*
G37*
G36*
X144091000Y-108404000D02*
X141659000Y-108404000D01*
X141659000Y-107496000D01*
X144091000Y-107496000D01*
X144091000Y-108404000D01*
X144091000Y-108404000D01*
G37*
G36*
X122167934Y-105862664D02*
X122322627Y-105926740D01*
X122461847Y-106019764D01*
X122580236Y-106138153D01*
X122673260Y-106277373D01*
X122737336Y-106432066D01*
X122770000Y-106596281D01*
X122770000Y-106763719D01*
X122737336Y-106927934D01*
X122673260Y-107082627D01*
X122580236Y-107221847D01*
X122461847Y-107340236D01*
X122322627Y-107433260D01*
X122167934Y-107497336D01*
X122003719Y-107530000D01*
X121836281Y-107530000D01*
X121672066Y-107497336D01*
X121517373Y-107433260D01*
X121378153Y-107340236D01*
X121259764Y-107221847D01*
X121166740Y-107082627D01*
X121102664Y-106927934D01*
X121070000Y-106763719D01*
X121070000Y-106596281D01*
X121102664Y-106432066D01*
X121166740Y-106277373D01*
X121259764Y-106138153D01*
X121378153Y-106019764D01*
X121517373Y-105926740D01*
X121672066Y-105862664D01*
X121836281Y-105830000D01*
X122003719Y-105830000D01*
X122167934Y-105862664D01*
X122167934Y-105862664D01*
G37*
G36*
X156581934Y-105862664D02*
X156736627Y-105926740D01*
X156875847Y-106019764D01*
X156994236Y-106138153D01*
X157087260Y-106277373D01*
X157151336Y-106432066D01*
X157184000Y-106596281D01*
X157184000Y-106763719D01*
X157151336Y-106927934D01*
X157087260Y-107082627D01*
X156994236Y-107221847D01*
X156875847Y-107340236D01*
X156736627Y-107433260D01*
X156581934Y-107497336D01*
X156417719Y-107530000D01*
X156250281Y-107530000D01*
X156086066Y-107497336D01*
X155931373Y-107433260D01*
X155792153Y-107340236D01*
X155673764Y-107221847D01*
X155580740Y-107082627D01*
X155516664Y-106927934D01*
X155484000Y-106763719D01*
X155484000Y-106596281D01*
X155516664Y-106432066D01*
X155580740Y-106277373D01*
X155673764Y-106138153D01*
X155792153Y-106019764D01*
X155931373Y-105926740D01*
X156086066Y-105862664D01*
X156250281Y-105830000D01*
X156417719Y-105830000D01*
X156581934Y-105862664D01*
X156581934Y-105862664D01*
G37*
G36*
X129486000Y-107134000D02*
X127054000Y-107134000D01*
X127054000Y-106226000D01*
X129486000Y-106226000D01*
X129486000Y-107134000D01*
X129486000Y-107134000D01*
G37*
G36*
X144091000Y-107134000D02*
X141659000Y-107134000D01*
X141659000Y-106226000D01*
X144091000Y-106226000D01*
X144091000Y-107134000D01*
X144091000Y-107134000D01*
G37*
G36*
X139646000Y-107134000D02*
X137214000Y-107134000D01*
X137214000Y-106226000D01*
X139646000Y-106226000D01*
X139646000Y-107134000D01*
X139646000Y-107134000D01*
G37*
G36*
X154251000Y-107134000D02*
X151819000Y-107134000D01*
X151819000Y-106226000D01*
X154251000Y-106226000D01*
X154251000Y-107134000D01*
X154251000Y-107134000D01*
G37*
G36*
X124967934Y-104592664D02*
X125122627Y-104656740D01*
X125261847Y-104749764D01*
X125380236Y-104868153D01*
X125473260Y-105007373D01*
X125537336Y-105162066D01*
X125570000Y-105326281D01*
X125570000Y-105493719D01*
X125537336Y-105657934D01*
X125473260Y-105812627D01*
X125380236Y-105951847D01*
X125261847Y-106070236D01*
X125122627Y-106163260D01*
X124967934Y-106227336D01*
X124803719Y-106260000D01*
X124636281Y-106260000D01*
X124472066Y-106227336D01*
X124317373Y-106163260D01*
X124178153Y-106070236D01*
X124059764Y-105951847D01*
X123966740Y-105812627D01*
X123902664Y-105657934D01*
X123870000Y-105493719D01*
X123870000Y-105326281D01*
X123902664Y-105162066D01*
X123966740Y-105007373D01*
X124059764Y-104868153D01*
X124178153Y-104749764D01*
X124317373Y-104656740D01*
X124472066Y-104592664D01*
X124636281Y-104560000D01*
X124803719Y-104560000D01*
X124967934Y-104592664D01*
X124967934Y-104592664D01*
G37*
G36*
X159381934Y-104592664D02*
X159536627Y-104656740D01*
X159675847Y-104749764D01*
X159794236Y-104868153D01*
X159887260Y-105007373D01*
X159951336Y-105162066D01*
X159984000Y-105326281D01*
X159984000Y-105493719D01*
X159951336Y-105657934D01*
X159887260Y-105812627D01*
X159794236Y-105951847D01*
X159675847Y-106070236D01*
X159536627Y-106163260D01*
X159381934Y-106227336D01*
X159217719Y-106260000D01*
X159050281Y-106260000D01*
X158886066Y-106227336D01*
X158731373Y-106163260D01*
X158592153Y-106070236D01*
X158473764Y-105951847D01*
X158380740Y-105812627D01*
X158316664Y-105657934D01*
X158284000Y-105493719D01*
X158284000Y-105326281D01*
X158316664Y-105162066D01*
X158380740Y-105007373D01*
X158473764Y-104868153D01*
X158592153Y-104749764D01*
X158731373Y-104656740D01*
X158886066Y-104592664D01*
X159050281Y-104560000D01*
X159217719Y-104560000D01*
X159381934Y-104592664D01*
X159381934Y-104592664D01*
G37*
G36*
X144091000Y-105864000D02*
X141659000Y-105864000D01*
X141659000Y-104956000D01*
X144091000Y-104956000D01*
X144091000Y-105864000D01*
X144091000Y-105864000D01*
G37*
G36*
X129486000Y-105864000D02*
X127054000Y-105864000D01*
X127054000Y-104956000D01*
X129486000Y-104956000D01*
X129486000Y-105864000D01*
X129486000Y-105864000D01*
G37*
G36*
X139646000Y-105864000D02*
X137214000Y-105864000D01*
X137214000Y-104956000D01*
X139646000Y-104956000D01*
X139646000Y-105864000D01*
X139646000Y-105864000D01*
G37*
G36*
X154251000Y-105864000D02*
X151819000Y-105864000D01*
X151819000Y-104956000D01*
X154251000Y-104956000D01*
X154251000Y-105864000D01*
X154251000Y-105864000D01*
G37*
G36*
X122167934Y-103322664D02*
X122322627Y-103386740D01*
X122461847Y-103479764D01*
X122580236Y-103598153D01*
X122673260Y-103737373D01*
X122737336Y-103892066D01*
X122770000Y-104056281D01*
X122770000Y-104223719D01*
X122737336Y-104387934D01*
X122673260Y-104542627D01*
X122580236Y-104681847D01*
X122461847Y-104800236D01*
X122322627Y-104893260D01*
X122167934Y-104957336D01*
X122003719Y-104990000D01*
X121836281Y-104990000D01*
X121672066Y-104957336D01*
X121517373Y-104893260D01*
X121378153Y-104800236D01*
X121259764Y-104681847D01*
X121166740Y-104542627D01*
X121102664Y-104387934D01*
X121070000Y-104223719D01*
X121070000Y-104056281D01*
X121102664Y-103892066D01*
X121166740Y-103737373D01*
X121259764Y-103598153D01*
X121378153Y-103479764D01*
X121517373Y-103386740D01*
X121672066Y-103322664D01*
X121836281Y-103290000D01*
X122003719Y-103290000D01*
X122167934Y-103322664D01*
X122167934Y-103322664D01*
G37*
G36*
X156581934Y-103322664D02*
X156736627Y-103386740D01*
X156875847Y-103479764D01*
X156994236Y-103598153D01*
X157087260Y-103737373D01*
X157151336Y-103892066D01*
X157184000Y-104056281D01*
X157184000Y-104223719D01*
X157151336Y-104387934D01*
X157087260Y-104542627D01*
X156994236Y-104681847D01*
X156875847Y-104800236D01*
X156736627Y-104893260D01*
X156581934Y-104957336D01*
X156417719Y-104990000D01*
X156250281Y-104990000D01*
X156086066Y-104957336D01*
X155931373Y-104893260D01*
X155792153Y-104800236D01*
X155673764Y-104681847D01*
X155580740Y-104542627D01*
X155516664Y-104387934D01*
X155484000Y-104223719D01*
X155484000Y-104056281D01*
X155516664Y-103892066D01*
X155580740Y-103737373D01*
X155673764Y-103598153D01*
X155792153Y-103479764D01*
X155931373Y-103386740D01*
X156086066Y-103322664D01*
X156250281Y-103290000D01*
X156417719Y-103290000D01*
X156581934Y-103322664D01*
X156581934Y-103322664D01*
G37*
G36*
X129486000Y-104594000D02*
X127054000Y-104594000D01*
X127054000Y-103686000D01*
X129486000Y-103686000D01*
X129486000Y-104594000D01*
X129486000Y-104594000D01*
G37*
G36*
X154251000Y-104594000D02*
X151819000Y-104594000D01*
X151819000Y-103686000D01*
X154251000Y-103686000D01*
X154251000Y-104594000D01*
X154251000Y-104594000D01*
G37*
G36*
X144091000Y-104594000D02*
X141659000Y-104594000D01*
X141659000Y-103686000D01*
X144091000Y-103686000D01*
X144091000Y-104594000D01*
X144091000Y-104594000D01*
G37*
G36*
X139646000Y-104594000D02*
X137214000Y-104594000D01*
X137214000Y-103686000D01*
X139646000Y-103686000D01*
X139646000Y-104594000D01*
X139646000Y-104594000D01*
G37*
G36*
X124967934Y-102052664D02*
X125122627Y-102116740D01*
X125261847Y-102209764D01*
X125380236Y-102328153D01*
X125473260Y-102467373D01*
X125537336Y-102622066D01*
X125570000Y-102786281D01*
X125570000Y-102953719D01*
X125537336Y-103117934D01*
X125473260Y-103272627D01*
X125380236Y-103411847D01*
X125261847Y-103530236D01*
X125122627Y-103623260D01*
X124967934Y-103687336D01*
X124803719Y-103720000D01*
X124636281Y-103720000D01*
X124472066Y-103687336D01*
X124317373Y-103623260D01*
X124178153Y-103530236D01*
X124059764Y-103411847D01*
X123966740Y-103272627D01*
X123902664Y-103117934D01*
X123870000Y-102953719D01*
X123870000Y-102786281D01*
X123902664Y-102622066D01*
X123966740Y-102467373D01*
X124059764Y-102328153D01*
X124178153Y-102209764D01*
X124317373Y-102116740D01*
X124472066Y-102052664D01*
X124636281Y-102020000D01*
X124803719Y-102020000D01*
X124967934Y-102052664D01*
X124967934Y-102052664D01*
G37*
G36*
X159381934Y-102052664D02*
X159536627Y-102116740D01*
X159675847Y-102209764D01*
X159794236Y-102328153D01*
X159887260Y-102467373D01*
X159951336Y-102622066D01*
X159984000Y-102786281D01*
X159984000Y-102953719D01*
X159951336Y-103117934D01*
X159887260Y-103272627D01*
X159794236Y-103411847D01*
X159675847Y-103530236D01*
X159536627Y-103623260D01*
X159381934Y-103687336D01*
X159217719Y-103720000D01*
X159050281Y-103720000D01*
X158886066Y-103687336D01*
X158731373Y-103623260D01*
X158592153Y-103530236D01*
X158473764Y-103411847D01*
X158380740Y-103272627D01*
X158316664Y-103117934D01*
X158284000Y-102953719D01*
X158284000Y-102786281D01*
X158316664Y-102622066D01*
X158380740Y-102467373D01*
X158473764Y-102328153D01*
X158592153Y-102209764D01*
X158731373Y-102116740D01*
X158886066Y-102052664D01*
X159050281Y-102020000D01*
X159217719Y-102020000D01*
X159381934Y-102052664D01*
X159381934Y-102052664D01*
G37*
G36*
X154251000Y-103324000D02*
X151819000Y-103324000D01*
X151819000Y-102416000D01*
X154251000Y-102416000D01*
X154251000Y-103324000D01*
X154251000Y-103324000D01*
G37*
G36*
X129486000Y-103324000D02*
X127054000Y-103324000D01*
X127054000Y-102416000D01*
X129486000Y-102416000D01*
X129486000Y-103324000D01*
X129486000Y-103324000D01*
G37*
G36*
X139646000Y-103324000D02*
X137214000Y-103324000D01*
X137214000Y-102416000D01*
X139646000Y-102416000D01*
X139646000Y-103324000D01*
X139646000Y-103324000D01*
G37*
G36*
X144091000Y-103324000D02*
X141659000Y-103324000D01*
X141659000Y-102416000D01*
X144091000Y-102416000D01*
X144091000Y-103324000D01*
X144091000Y-103324000D01*
G37*
G36*
X156581934Y-100782664D02*
X156736627Y-100846740D01*
X156875847Y-100939764D01*
X156994236Y-101058153D01*
X157087260Y-101197373D01*
X157151336Y-101352066D01*
X157184000Y-101516281D01*
X157184000Y-101683719D01*
X157151336Y-101847934D01*
X157087260Y-102002627D01*
X156994236Y-102141847D01*
X156875847Y-102260236D01*
X156736627Y-102353260D01*
X156581934Y-102417336D01*
X156417719Y-102450000D01*
X156250281Y-102450000D01*
X156086066Y-102417336D01*
X155931373Y-102353260D01*
X155792153Y-102260236D01*
X155673764Y-102141847D01*
X155580740Y-102002627D01*
X155516664Y-101847934D01*
X155484000Y-101683719D01*
X155484000Y-101516281D01*
X155516664Y-101352066D01*
X155580740Y-101197373D01*
X155673764Y-101058153D01*
X155792153Y-100939764D01*
X155931373Y-100846740D01*
X156086066Y-100782664D01*
X156250281Y-100750000D01*
X156417719Y-100750000D01*
X156581934Y-100782664D01*
X156581934Y-100782664D01*
G37*
G36*
X122167934Y-100782664D02*
X122322627Y-100846740D01*
X122461847Y-100939764D01*
X122580236Y-101058153D01*
X122673260Y-101197373D01*
X122737336Y-101352066D01*
X122770000Y-101516281D01*
X122770000Y-101683719D01*
X122737336Y-101847934D01*
X122673260Y-102002627D01*
X122580236Y-102141847D01*
X122461847Y-102260236D01*
X122322627Y-102353260D01*
X122167934Y-102417336D01*
X122003719Y-102450000D01*
X121836281Y-102450000D01*
X121672066Y-102417336D01*
X121517373Y-102353260D01*
X121378153Y-102260236D01*
X121259764Y-102141847D01*
X121166740Y-102002627D01*
X121102664Y-101847934D01*
X121070000Y-101683719D01*
X121070000Y-101516281D01*
X121102664Y-101352066D01*
X121166740Y-101197373D01*
X121259764Y-101058153D01*
X121378153Y-100939764D01*
X121517373Y-100846740D01*
X121672066Y-100782664D01*
X121836281Y-100750000D01*
X122003719Y-100750000D01*
X122167934Y-100782664D01*
X122167934Y-100782664D01*
G37*
G36*
X154251000Y-102054000D02*
X151819000Y-102054000D01*
X151819000Y-101146000D01*
X154251000Y-101146000D01*
X154251000Y-102054000D01*
X154251000Y-102054000D01*
G37*
G36*
X129486000Y-102054000D02*
X127054000Y-102054000D01*
X127054000Y-101146000D01*
X129486000Y-101146000D01*
X129486000Y-102054000D01*
X129486000Y-102054000D01*
G37*
G36*
X144091000Y-102054000D02*
X141659000Y-102054000D01*
X141659000Y-101146000D01*
X144091000Y-101146000D01*
X144091000Y-102054000D01*
X144091000Y-102054000D01*
G37*
G36*
X139646000Y-102054000D02*
X137214000Y-102054000D01*
X137214000Y-101146000D01*
X139646000Y-101146000D01*
X139646000Y-102054000D01*
X139646000Y-102054000D01*
G37*
G36*
X159381934Y-99512664D02*
X159536627Y-99576740D01*
X159675847Y-99669764D01*
X159794236Y-99788153D01*
X159887260Y-99927373D01*
X159951336Y-100082066D01*
X159984000Y-100246281D01*
X159984000Y-100413719D01*
X159951336Y-100577934D01*
X159887260Y-100732627D01*
X159794236Y-100871847D01*
X159675847Y-100990236D01*
X159536627Y-101083260D01*
X159381934Y-101147336D01*
X159217719Y-101180000D01*
X159050281Y-101180000D01*
X158886066Y-101147336D01*
X158731373Y-101083260D01*
X158592153Y-100990236D01*
X158473764Y-100871847D01*
X158380740Y-100732627D01*
X158316664Y-100577934D01*
X158284000Y-100413719D01*
X158284000Y-100246281D01*
X158316664Y-100082066D01*
X158380740Y-99927373D01*
X158473764Y-99788153D01*
X158592153Y-99669764D01*
X158731373Y-99576740D01*
X158886066Y-99512664D01*
X159050281Y-99480000D01*
X159217719Y-99480000D01*
X159381934Y-99512664D01*
X159381934Y-99512664D01*
G37*
G36*
X124967934Y-99512664D02*
X125122627Y-99576740D01*
X125261847Y-99669764D01*
X125380236Y-99788153D01*
X125473260Y-99927373D01*
X125537336Y-100082066D01*
X125570000Y-100246281D01*
X125570000Y-100413719D01*
X125537336Y-100577934D01*
X125473260Y-100732627D01*
X125380236Y-100871847D01*
X125261847Y-100990236D01*
X125122627Y-101083260D01*
X124967934Y-101147336D01*
X124803719Y-101180000D01*
X124636281Y-101180000D01*
X124472066Y-101147336D01*
X124317373Y-101083260D01*
X124178153Y-100990236D01*
X124059764Y-100871847D01*
X123966740Y-100732627D01*
X123902664Y-100577934D01*
X123870000Y-100413719D01*
X123870000Y-100246281D01*
X123902664Y-100082066D01*
X123966740Y-99927373D01*
X124059764Y-99788153D01*
X124178153Y-99669764D01*
X124317373Y-99576740D01*
X124472066Y-99512664D01*
X124636281Y-99480000D01*
X124803719Y-99480000D01*
X124967934Y-99512664D01*
X124967934Y-99512664D01*
G37*
G36*
X129486000Y-100784000D02*
X127054000Y-100784000D01*
X127054000Y-99876000D01*
X129486000Y-99876000D01*
X129486000Y-100784000D01*
X129486000Y-100784000D01*
G37*
G36*
X139646000Y-100784000D02*
X137214000Y-100784000D01*
X137214000Y-99876000D01*
X139646000Y-99876000D01*
X139646000Y-100784000D01*
X139646000Y-100784000D01*
G37*
G36*
X144091000Y-100784000D02*
X141659000Y-100784000D01*
X141659000Y-99876000D01*
X144091000Y-99876000D01*
X144091000Y-100784000D01*
X144091000Y-100784000D01*
G37*
G36*
X154251000Y-100784000D02*
X151819000Y-100784000D01*
X151819000Y-99876000D01*
X154251000Y-99876000D01*
X154251000Y-100784000D01*
X154251000Y-100784000D01*
G37*
G36*
X122167934Y-98242664D02*
X122322627Y-98306740D01*
X122461847Y-98399764D01*
X122580236Y-98518153D01*
X122673260Y-98657373D01*
X122737336Y-98812066D01*
X122770000Y-98976281D01*
X122770000Y-99143719D01*
X122737336Y-99307934D01*
X122673260Y-99462627D01*
X122580236Y-99601847D01*
X122461847Y-99720236D01*
X122322627Y-99813260D01*
X122167934Y-99877336D01*
X122003719Y-99910000D01*
X121836281Y-99910000D01*
X121672066Y-99877336D01*
X121517373Y-99813260D01*
X121378153Y-99720236D01*
X121259764Y-99601847D01*
X121166740Y-99462627D01*
X121102664Y-99307934D01*
X121070000Y-99143719D01*
X121070000Y-98976281D01*
X121102664Y-98812066D01*
X121166740Y-98657373D01*
X121259764Y-98518153D01*
X121378153Y-98399764D01*
X121517373Y-98306740D01*
X121672066Y-98242664D01*
X121836281Y-98210000D01*
X122003719Y-98210000D01*
X122167934Y-98242664D01*
X122167934Y-98242664D01*
G37*
G36*
X156581934Y-98242664D02*
X156736627Y-98306740D01*
X156875847Y-98399764D01*
X156994236Y-98518153D01*
X157087260Y-98657373D01*
X157151336Y-98812066D01*
X157184000Y-98976281D01*
X157184000Y-99143719D01*
X157151336Y-99307934D01*
X157087260Y-99462627D01*
X156994236Y-99601847D01*
X156875847Y-99720236D01*
X156736627Y-99813260D01*
X156581934Y-99877336D01*
X156417719Y-99910000D01*
X156250281Y-99910000D01*
X156086066Y-99877336D01*
X155931373Y-99813260D01*
X155792153Y-99720236D01*
X155673764Y-99601847D01*
X155580740Y-99462627D01*
X155516664Y-99307934D01*
X155484000Y-99143719D01*
X155484000Y-98976281D01*
X155516664Y-98812066D01*
X155580740Y-98657373D01*
X155673764Y-98518153D01*
X155792153Y-98399764D01*
X155931373Y-98306740D01*
X156086066Y-98242664D01*
X156250281Y-98210000D01*
X156417719Y-98210000D01*
X156581934Y-98242664D01*
X156581934Y-98242664D01*
G37*
G36*
X154251000Y-99514000D02*
X151819000Y-99514000D01*
X151819000Y-98606000D01*
X154251000Y-98606000D01*
X154251000Y-99514000D01*
X154251000Y-99514000D01*
G37*
G36*
X139646000Y-99514000D02*
X137214000Y-99514000D01*
X137214000Y-98606000D01*
X139646000Y-98606000D01*
X139646000Y-99514000D01*
X139646000Y-99514000D01*
G37*
G36*
X144091000Y-99514000D02*
X141659000Y-99514000D01*
X141659000Y-98606000D01*
X144091000Y-98606000D01*
X144091000Y-99514000D01*
X144091000Y-99514000D01*
G37*
G36*
X129486000Y-99514000D02*
X127054000Y-99514000D01*
X127054000Y-98606000D01*
X129486000Y-98606000D01*
X129486000Y-99514000D01*
X129486000Y-99514000D01*
G37*
G36*
X124967934Y-96972664D02*
X125122627Y-97036740D01*
X125261847Y-97129764D01*
X125380236Y-97248153D01*
X125473260Y-97387373D01*
X125537336Y-97542066D01*
X125570000Y-97706281D01*
X125570000Y-97873719D01*
X125537336Y-98037934D01*
X125473260Y-98192627D01*
X125380236Y-98331847D01*
X125261847Y-98450236D01*
X125122627Y-98543260D01*
X124967934Y-98607336D01*
X124803719Y-98640000D01*
X124636281Y-98640000D01*
X124472066Y-98607336D01*
X124317373Y-98543260D01*
X124178153Y-98450236D01*
X124059764Y-98331847D01*
X123966740Y-98192627D01*
X123902664Y-98037934D01*
X123870000Y-97873719D01*
X123870000Y-97706281D01*
X123902664Y-97542066D01*
X123966740Y-97387373D01*
X124059764Y-97248153D01*
X124178153Y-97129764D01*
X124317373Y-97036740D01*
X124472066Y-96972664D01*
X124636281Y-96940000D01*
X124803719Y-96940000D01*
X124967934Y-96972664D01*
X124967934Y-96972664D01*
G37*
G36*
X159381934Y-96972664D02*
X159536627Y-97036740D01*
X159675847Y-97129764D01*
X159794236Y-97248153D01*
X159887260Y-97387373D01*
X159951336Y-97542066D01*
X159984000Y-97706281D01*
X159984000Y-97873719D01*
X159951336Y-98037934D01*
X159887260Y-98192627D01*
X159794236Y-98331847D01*
X159675847Y-98450236D01*
X159536627Y-98543260D01*
X159381934Y-98607336D01*
X159217719Y-98640000D01*
X159050281Y-98640000D01*
X158886066Y-98607336D01*
X158731373Y-98543260D01*
X158592153Y-98450236D01*
X158473764Y-98331847D01*
X158380740Y-98192627D01*
X158316664Y-98037934D01*
X158284000Y-97873719D01*
X158284000Y-97706281D01*
X158316664Y-97542066D01*
X158380740Y-97387373D01*
X158473764Y-97248153D01*
X158592153Y-97129764D01*
X158731373Y-97036740D01*
X158886066Y-96972664D01*
X159050281Y-96940000D01*
X159217719Y-96940000D01*
X159381934Y-96972664D01*
X159381934Y-96972664D01*
G37*
G36*
X129486000Y-98244000D02*
X127054000Y-98244000D01*
X127054000Y-97336000D01*
X129486000Y-97336000D01*
X129486000Y-98244000D01*
X129486000Y-98244000D01*
G37*
G36*
X139646000Y-98244000D02*
X137214000Y-98244000D01*
X137214000Y-97336000D01*
X139646000Y-97336000D01*
X139646000Y-98244000D01*
X139646000Y-98244000D01*
G37*
G36*
X144091000Y-98244000D02*
X141659000Y-98244000D01*
X141659000Y-97336000D01*
X144091000Y-97336000D01*
X144091000Y-98244000D01*
X144091000Y-98244000D01*
G37*
G36*
X154251000Y-98244000D02*
X151819000Y-98244000D01*
X151819000Y-97336000D01*
X154251000Y-97336000D01*
X154251000Y-98244000D01*
X154251000Y-98244000D01*
G37*
G36*
X156581934Y-95702664D02*
X156736627Y-95766740D01*
X156875847Y-95859764D01*
X156994236Y-95978153D01*
X157087260Y-96117373D01*
X157151336Y-96272066D01*
X157184000Y-96436281D01*
X157184000Y-96603719D01*
X157151336Y-96767934D01*
X157087260Y-96922627D01*
X156994236Y-97061847D01*
X156875847Y-97180236D01*
X156736627Y-97273260D01*
X156581934Y-97337336D01*
X156417719Y-97370000D01*
X156250281Y-97370000D01*
X156086066Y-97337336D01*
X155931373Y-97273260D01*
X155792153Y-97180236D01*
X155673764Y-97061847D01*
X155580740Y-96922627D01*
X155516664Y-96767934D01*
X155484000Y-96603719D01*
X155484000Y-96436281D01*
X155516664Y-96272066D01*
X155580740Y-96117373D01*
X155673764Y-95978153D01*
X155792153Y-95859764D01*
X155931373Y-95766740D01*
X156086066Y-95702664D01*
X156250281Y-95670000D01*
X156417719Y-95670000D01*
X156581934Y-95702664D01*
X156581934Y-95702664D01*
G37*
G36*
X122167934Y-95702664D02*
X122322627Y-95766740D01*
X122461847Y-95859764D01*
X122580236Y-95978153D01*
X122673260Y-96117373D01*
X122737336Y-96272066D01*
X122770000Y-96436281D01*
X122770000Y-96603719D01*
X122737336Y-96767934D01*
X122673260Y-96922627D01*
X122580236Y-97061847D01*
X122461847Y-97180236D01*
X122322627Y-97273260D01*
X122167934Y-97337336D01*
X122003719Y-97370000D01*
X121836281Y-97370000D01*
X121672066Y-97337336D01*
X121517373Y-97273260D01*
X121378153Y-97180236D01*
X121259764Y-97061847D01*
X121166740Y-96922627D01*
X121102664Y-96767934D01*
X121070000Y-96603719D01*
X121070000Y-96436281D01*
X121102664Y-96272066D01*
X121166740Y-96117373D01*
X121259764Y-95978153D01*
X121378153Y-95859764D01*
X121517373Y-95766740D01*
X121672066Y-95702664D01*
X121836281Y-95670000D01*
X122003719Y-95670000D01*
X122167934Y-95702664D01*
X122167934Y-95702664D01*
G37*
G36*
X129486000Y-96974000D02*
X127054000Y-96974000D01*
X127054000Y-96066000D01*
X129486000Y-96066000D01*
X129486000Y-96974000D01*
X129486000Y-96974000D01*
G37*
G36*
X139646000Y-96974000D02*
X137214000Y-96974000D01*
X137214000Y-96066000D01*
X139646000Y-96066000D01*
X139646000Y-96974000D01*
X139646000Y-96974000D01*
G37*
G36*
X144091000Y-96974000D02*
X141659000Y-96974000D01*
X141659000Y-96066000D01*
X144091000Y-96066000D01*
X144091000Y-96974000D01*
X144091000Y-96974000D01*
G37*
G36*
X154251000Y-96974000D02*
X151819000Y-96974000D01*
X151819000Y-96066000D01*
X154251000Y-96066000D01*
X154251000Y-96974000D01*
X154251000Y-96974000D01*
G37*
G36*
X124967934Y-94432664D02*
X125122627Y-94496740D01*
X125261847Y-94589764D01*
X125380236Y-94708153D01*
X125473260Y-94847373D01*
X125537336Y-95002066D01*
X125570000Y-95166281D01*
X125570000Y-95333719D01*
X125537336Y-95497934D01*
X125473260Y-95652627D01*
X125380236Y-95791847D01*
X125261847Y-95910236D01*
X125122627Y-96003260D01*
X124967934Y-96067336D01*
X124803719Y-96100000D01*
X124636281Y-96100000D01*
X124472066Y-96067336D01*
X124317373Y-96003260D01*
X124178153Y-95910236D01*
X124059764Y-95791847D01*
X123966740Y-95652627D01*
X123902664Y-95497934D01*
X123870000Y-95333719D01*
X123870000Y-95166281D01*
X123902664Y-95002066D01*
X123966740Y-94847373D01*
X124059764Y-94708153D01*
X124178153Y-94589764D01*
X124317373Y-94496740D01*
X124472066Y-94432664D01*
X124636281Y-94400000D01*
X124803719Y-94400000D01*
X124967934Y-94432664D01*
X124967934Y-94432664D01*
G37*
G36*
X159381934Y-94432664D02*
X159536627Y-94496740D01*
X159675847Y-94589764D01*
X159794236Y-94708153D01*
X159887260Y-94847373D01*
X159951336Y-95002066D01*
X159984000Y-95166281D01*
X159984000Y-95333719D01*
X159951336Y-95497934D01*
X159887260Y-95652627D01*
X159794236Y-95791847D01*
X159675847Y-95910236D01*
X159536627Y-96003260D01*
X159381934Y-96067336D01*
X159217719Y-96100000D01*
X159050281Y-96100000D01*
X158886066Y-96067336D01*
X158731373Y-96003260D01*
X158592153Y-95910236D01*
X158473764Y-95791847D01*
X158380740Y-95652627D01*
X158316664Y-95497934D01*
X158284000Y-95333719D01*
X158284000Y-95166281D01*
X158316664Y-95002066D01*
X158380740Y-94847373D01*
X158473764Y-94708153D01*
X158592153Y-94589764D01*
X158731373Y-94496740D01*
X158886066Y-94432664D01*
X159050281Y-94400000D01*
X159217719Y-94400000D01*
X159381934Y-94432664D01*
X159381934Y-94432664D01*
G37*
G36*
X129486000Y-95704000D02*
X127054000Y-95704000D01*
X127054000Y-94796000D01*
X129486000Y-94796000D01*
X129486000Y-95704000D01*
X129486000Y-95704000D01*
G37*
G36*
X144091000Y-95704000D02*
X141659000Y-95704000D01*
X141659000Y-94796000D01*
X144091000Y-94796000D01*
X144091000Y-95704000D01*
X144091000Y-95704000D01*
G37*
G36*
X154251000Y-95704000D02*
X151819000Y-95704000D01*
X151819000Y-94796000D01*
X154251000Y-94796000D01*
X154251000Y-95704000D01*
X154251000Y-95704000D01*
G37*
G36*
X139646000Y-95704000D02*
X137214000Y-95704000D01*
X137214000Y-94796000D01*
X139646000Y-94796000D01*
X139646000Y-95704000D01*
X139646000Y-95704000D01*
G37*
G36*
X156581934Y-93162664D02*
X156736627Y-93226740D01*
X156875847Y-93319764D01*
X156994236Y-93438153D01*
X157087260Y-93577373D01*
X157151336Y-93732066D01*
X157184000Y-93896281D01*
X157184000Y-94063719D01*
X157151336Y-94227934D01*
X157087260Y-94382627D01*
X156994236Y-94521847D01*
X156875847Y-94640236D01*
X156736627Y-94733260D01*
X156581934Y-94797336D01*
X156417719Y-94830000D01*
X156250281Y-94830000D01*
X156086066Y-94797336D01*
X155931373Y-94733260D01*
X155792153Y-94640236D01*
X155673764Y-94521847D01*
X155580740Y-94382627D01*
X155516664Y-94227934D01*
X155484000Y-94063719D01*
X155484000Y-93896281D01*
X155516664Y-93732066D01*
X155580740Y-93577373D01*
X155673764Y-93438153D01*
X155792153Y-93319764D01*
X155931373Y-93226740D01*
X156086066Y-93162664D01*
X156250281Y-93130000D01*
X156417719Y-93130000D01*
X156581934Y-93162664D01*
X156581934Y-93162664D01*
G37*
G36*
X122167934Y-93162664D02*
X122322627Y-93226740D01*
X122461847Y-93319764D01*
X122580236Y-93438153D01*
X122673260Y-93577373D01*
X122737336Y-93732066D01*
X122770000Y-93896281D01*
X122770000Y-94063719D01*
X122737336Y-94227934D01*
X122673260Y-94382627D01*
X122580236Y-94521847D01*
X122461847Y-94640236D01*
X122322627Y-94733260D01*
X122167934Y-94797336D01*
X122003719Y-94830000D01*
X121836281Y-94830000D01*
X121672066Y-94797336D01*
X121517373Y-94733260D01*
X121378153Y-94640236D01*
X121259764Y-94521847D01*
X121166740Y-94382627D01*
X121102664Y-94227934D01*
X121070000Y-94063719D01*
X121070000Y-93896281D01*
X121102664Y-93732066D01*
X121166740Y-93577373D01*
X121259764Y-93438153D01*
X121378153Y-93319764D01*
X121517373Y-93226740D01*
X121672066Y-93162664D01*
X121836281Y-93130000D01*
X122003719Y-93130000D01*
X122167934Y-93162664D01*
X122167934Y-93162664D01*
G37*
G36*
X154251000Y-94434000D02*
X151819000Y-94434000D01*
X151819000Y-93526000D01*
X154251000Y-93526000D01*
X154251000Y-94434000D01*
X154251000Y-94434000D01*
G37*
G36*
X139646000Y-94434000D02*
X137214000Y-94434000D01*
X137214000Y-93526000D01*
X139646000Y-93526000D01*
X139646000Y-94434000D01*
X139646000Y-94434000D01*
G37*
G36*
X129486000Y-94434000D02*
X127054000Y-94434000D01*
X127054000Y-93526000D01*
X129486000Y-93526000D01*
X129486000Y-94434000D01*
X129486000Y-94434000D01*
G37*
G36*
X144091000Y-94434000D02*
X141659000Y-94434000D01*
X141659000Y-93526000D01*
X144091000Y-93526000D01*
X144091000Y-94434000D01*
X144091000Y-94434000D01*
G37*
G36*
X159381934Y-91892664D02*
X159536627Y-91956740D01*
X159675847Y-92049764D01*
X159794236Y-92168153D01*
X159887260Y-92307373D01*
X159951336Y-92462066D01*
X159984000Y-92626281D01*
X159984000Y-92793719D01*
X159951336Y-92957934D01*
X159887260Y-93112627D01*
X159794236Y-93251847D01*
X159675847Y-93370236D01*
X159536627Y-93463260D01*
X159381934Y-93527336D01*
X159217719Y-93560000D01*
X159050281Y-93560000D01*
X158886066Y-93527336D01*
X158731373Y-93463260D01*
X158592153Y-93370236D01*
X158473764Y-93251847D01*
X158380740Y-93112627D01*
X158316664Y-92957934D01*
X158284000Y-92793719D01*
X158284000Y-92626281D01*
X158316664Y-92462066D01*
X158380740Y-92307373D01*
X158473764Y-92168153D01*
X158592153Y-92049764D01*
X158731373Y-91956740D01*
X158886066Y-91892664D01*
X159050281Y-91860000D01*
X159217719Y-91860000D01*
X159381934Y-91892664D01*
X159381934Y-91892664D01*
G37*
G36*
X124967934Y-91892664D02*
X125122627Y-91956740D01*
X125261847Y-92049764D01*
X125380236Y-92168153D01*
X125473260Y-92307373D01*
X125537336Y-92462066D01*
X125570000Y-92626281D01*
X125570000Y-92793719D01*
X125537336Y-92957934D01*
X125473260Y-93112627D01*
X125380236Y-93251847D01*
X125261847Y-93370236D01*
X125122627Y-93463260D01*
X124967934Y-93527336D01*
X124803719Y-93560000D01*
X124636281Y-93560000D01*
X124472066Y-93527336D01*
X124317373Y-93463260D01*
X124178153Y-93370236D01*
X124059764Y-93251847D01*
X123966740Y-93112627D01*
X123902664Y-92957934D01*
X123870000Y-92793719D01*
X123870000Y-92626281D01*
X123902664Y-92462066D01*
X123966740Y-92307373D01*
X124059764Y-92168153D01*
X124178153Y-92049764D01*
X124317373Y-91956740D01*
X124472066Y-91892664D01*
X124636281Y-91860000D01*
X124803719Y-91860000D01*
X124967934Y-91892664D01*
X124967934Y-91892664D01*
G37*
G36*
X144091000Y-93164000D02*
X141659000Y-93164000D01*
X141659000Y-92256000D01*
X144091000Y-92256000D01*
X144091000Y-93164000D01*
X144091000Y-93164000D01*
G37*
G36*
X129486000Y-93164000D02*
X127054000Y-93164000D01*
X127054000Y-92256000D01*
X129486000Y-92256000D01*
X129486000Y-93164000D01*
X129486000Y-93164000D01*
G37*
G36*
X139646000Y-93164000D02*
X137214000Y-93164000D01*
X137214000Y-92256000D01*
X139646000Y-92256000D01*
X139646000Y-93164000D01*
X139646000Y-93164000D01*
G37*
G36*
X154251000Y-93164000D02*
X151819000Y-93164000D01*
X151819000Y-92256000D01*
X154251000Y-92256000D01*
X154251000Y-93164000D01*
X154251000Y-93164000D01*
G37*
G36*
X156581934Y-90622664D02*
X156736627Y-90686740D01*
X156875847Y-90779764D01*
X156994236Y-90898153D01*
X157087260Y-91037373D01*
X157151336Y-91192066D01*
X157184000Y-91356281D01*
X157184000Y-91523719D01*
X157151336Y-91687934D01*
X157087260Y-91842627D01*
X156994236Y-91981847D01*
X156875847Y-92100236D01*
X156736627Y-92193260D01*
X156581934Y-92257336D01*
X156417719Y-92290000D01*
X156250281Y-92290000D01*
X156086066Y-92257336D01*
X155931373Y-92193260D01*
X155792153Y-92100236D01*
X155673764Y-91981847D01*
X155580740Y-91842627D01*
X155516664Y-91687934D01*
X155484000Y-91523719D01*
X155484000Y-91356281D01*
X155516664Y-91192066D01*
X155580740Y-91037373D01*
X155673764Y-90898153D01*
X155792153Y-90779764D01*
X155931373Y-90686740D01*
X156086066Y-90622664D01*
X156250281Y-90590000D01*
X156417719Y-90590000D01*
X156581934Y-90622664D01*
X156581934Y-90622664D01*
G37*
G36*
X122167934Y-90622664D02*
X122322627Y-90686740D01*
X122461847Y-90779764D01*
X122580236Y-90898153D01*
X122673260Y-91037373D01*
X122737336Y-91192066D01*
X122770000Y-91356281D01*
X122770000Y-91523719D01*
X122737336Y-91687934D01*
X122673260Y-91842627D01*
X122580236Y-91981847D01*
X122461847Y-92100236D01*
X122322627Y-92193260D01*
X122167934Y-92257336D01*
X122003719Y-92290000D01*
X121836281Y-92290000D01*
X121672066Y-92257336D01*
X121517373Y-92193260D01*
X121378153Y-92100236D01*
X121259764Y-91981847D01*
X121166740Y-91842627D01*
X121102664Y-91687934D01*
X121070000Y-91523719D01*
X121070000Y-91356281D01*
X121102664Y-91192066D01*
X121166740Y-91037373D01*
X121259764Y-90898153D01*
X121378153Y-90779764D01*
X121517373Y-90686740D01*
X121672066Y-90622664D01*
X121836281Y-90590000D01*
X122003719Y-90590000D01*
X122167934Y-90622664D01*
X122167934Y-90622664D01*
G37*
G36*
X144091000Y-91894000D02*
X141659000Y-91894000D01*
X141659000Y-90986000D01*
X144091000Y-90986000D01*
X144091000Y-91894000D01*
X144091000Y-91894000D01*
G37*
G36*
X129486000Y-91894000D02*
X127054000Y-91894000D01*
X127054000Y-90986000D01*
X129486000Y-90986000D01*
X129486000Y-91894000D01*
X129486000Y-91894000D01*
G37*
G36*
X154251000Y-91894000D02*
X151819000Y-91894000D01*
X151819000Y-90986000D01*
X154251000Y-90986000D01*
X154251000Y-91894000D01*
X154251000Y-91894000D01*
G37*
G36*
X139646000Y-91894000D02*
X137214000Y-91894000D01*
X137214000Y-90986000D01*
X139646000Y-90986000D01*
X139646000Y-91894000D01*
X139646000Y-91894000D01*
G37*
G36*
X124967934Y-89352664D02*
X125122627Y-89416740D01*
X125261847Y-89509764D01*
X125380236Y-89628153D01*
X125473260Y-89767373D01*
X125537336Y-89922066D01*
X125570000Y-90086281D01*
X125570000Y-90253719D01*
X125537336Y-90417934D01*
X125473260Y-90572627D01*
X125380236Y-90711847D01*
X125261847Y-90830236D01*
X125122627Y-90923260D01*
X124967934Y-90987336D01*
X124803719Y-91020000D01*
X124636281Y-91020000D01*
X124472066Y-90987336D01*
X124317373Y-90923260D01*
X124178153Y-90830236D01*
X124059764Y-90711847D01*
X123966740Y-90572627D01*
X123902664Y-90417934D01*
X123870000Y-90253719D01*
X123870000Y-90086281D01*
X123902664Y-89922066D01*
X123966740Y-89767373D01*
X124059764Y-89628153D01*
X124178153Y-89509764D01*
X124317373Y-89416740D01*
X124472066Y-89352664D01*
X124636281Y-89320000D01*
X124803719Y-89320000D01*
X124967934Y-89352664D01*
X124967934Y-89352664D01*
G37*
G36*
X159381934Y-89352664D02*
X159536627Y-89416740D01*
X159675847Y-89509764D01*
X159794236Y-89628153D01*
X159887260Y-89767373D01*
X159951336Y-89922066D01*
X159984000Y-90086281D01*
X159984000Y-90253719D01*
X159951336Y-90417934D01*
X159887260Y-90572627D01*
X159794236Y-90711847D01*
X159675847Y-90830236D01*
X159536627Y-90923260D01*
X159381934Y-90987336D01*
X159217719Y-91020000D01*
X159050281Y-91020000D01*
X158886066Y-90987336D01*
X158731373Y-90923260D01*
X158592153Y-90830236D01*
X158473764Y-90711847D01*
X158380740Y-90572627D01*
X158316664Y-90417934D01*
X158284000Y-90253719D01*
X158284000Y-90086281D01*
X158316664Y-89922066D01*
X158380740Y-89767373D01*
X158473764Y-89628153D01*
X158592153Y-89509764D01*
X158731373Y-89416740D01*
X158886066Y-89352664D01*
X159050281Y-89320000D01*
X159217719Y-89320000D01*
X159381934Y-89352664D01*
X159381934Y-89352664D01*
G37*
G36*
X129486000Y-90624000D02*
X127054000Y-90624000D01*
X127054000Y-89716000D01*
X129486000Y-89716000D01*
X129486000Y-90624000D01*
X129486000Y-90624000D01*
G37*
G36*
X139646000Y-90624000D02*
X137214000Y-90624000D01*
X137214000Y-89716000D01*
X139646000Y-89716000D01*
X139646000Y-90624000D01*
X139646000Y-90624000D01*
G37*
G36*
X154251000Y-90624000D02*
X151819000Y-90624000D01*
X151819000Y-89716000D01*
X154251000Y-89716000D01*
X154251000Y-90624000D01*
X154251000Y-90624000D01*
G37*
G36*
X144091000Y-90624000D02*
X141659000Y-90624000D01*
X141659000Y-89716000D01*
X144091000Y-89716000D01*
X144091000Y-90624000D01*
X144091000Y-90624000D01*
G37*
G36*
X122167934Y-88082664D02*
X122322627Y-88146740D01*
X122461847Y-88239764D01*
X122580236Y-88358153D01*
X122673260Y-88497373D01*
X122737336Y-88652066D01*
X122770000Y-88816281D01*
X122770000Y-88983719D01*
X122737336Y-89147934D01*
X122673260Y-89302627D01*
X122580236Y-89441847D01*
X122461847Y-89560236D01*
X122322627Y-89653260D01*
X122167934Y-89717336D01*
X122003719Y-89750000D01*
X121836281Y-89750000D01*
X121672066Y-89717336D01*
X121517373Y-89653260D01*
X121378153Y-89560236D01*
X121259764Y-89441847D01*
X121166740Y-89302627D01*
X121102664Y-89147934D01*
X121070000Y-88983719D01*
X121070000Y-88816281D01*
X121102664Y-88652066D01*
X121166740Y-88497373D01*
X121259764Y-88358153D01*
X121378153Y-88239764D01*
X121517373Y-88146740D01*
X121672066Y-88082664D01*
X121836281Y-88050000D01*
X122003719Y-88050000D01*
X122167934Y-88082664D01*
X122167934Y-88082664D01*
G37*
G36*
X156581934Y-88082664D02*
X156736627Y-88146740D01*
X156875847Y-88239764D01*
X156994236Y-88358153D01*
X157087260Y-88497373D01*
X157151336Y-88652066D01*
X157184000Y-88816281D01*
X157184000Y-88983719D01*
X157151336Y-89147934D01*
X157087260Y-89302627D01*
X156994236Y-89441847D01*
X156875847Y-89560236D01*
X156736627Y-89653260D01*
X156581934Y-89717336D01*
X156417719Y-89750000D01*
X156250281Y-89750000D01*
X156086066Y-89717336D01*
X155931373Y-89653260D01*
X155792153Y-89560236D01*
X155673764Y-89441847D01*
X155580740Y-89302627D01*
X155516664Y-89147934D01*
X155484000Y-88983719D01*
X155484000Y-88816281D01*
X155516664Y-88652066D01*
X155580740Y-88497373D01*
X155673764Y-88358153D01*
X155792153Y-88239764D01*
X155931373Y-88146740D01*
X156086066Y-88082664D01*
X156250281Y-88050000D01*
X156417719Y-88050000D01*
X156581934Y-88082664D01*
X156581934Y-88082664D01*
G37*
G36*
X144091000Y-89354000D02*
X141659000Y-89354000D01*
X141659000Y-88446000D01*
X144091000Y-88446000D01*
X144091000Y-89354000D01*
X144091000Y-89354000D01*
G37*
G36*
X129486000Y-89354000D02*
X127054000Y-89354000D01*
X127054000Y-88446000D01*
X129486000Y-88446000D01*
X129486000Y-89354000D01*
X129486000Y-89354000D01*
G37*
G36*
X139646000Y-89354000D02*
X137214000Y-89354000D01*
X137214000Y-88446000D01*
X139646000Y-88446000D01*
X139646000Y-89354000D01*
X139646000Y-89354000D01*
G37*
G36*
X154251000Y-89354000D02*
X151819000Y-89354000D01*
X151819000Y-88446000D01*
X154251000Y-88446000D01*
X154251000Y-89354000D01*
X154251000Y-89354000D01*
G37*
G36*
X159381934Y-86812664D02*
X159536627Y-86876740D01*
X159675847Y-86969764D01*
X159794236Y-87088153D01*
X159887260Y-87227373D01*
X159951336Y-87382066D01*
X159984000Y-87546281D01*
X159984000Y-87713719D01*
X159951336Y-87877934D01*
X159887260Y-88032627D01*
X159794236Y-88171847D01*
X159675847Y-88290236D01*
X159536627Y-88383260D01*
X159381934Y-88447336D01*
X159217719Y-88480000D01*
X159050281Y-88480000D01*
X158886066Y-88447336D01*
X158731373Y-88383260D01*
X158592153Y-88290236D01*
X158473764Y-88171847D01*
X158380740Y-88032627D01*
X158316664Y-87877934D01*
X158284000Y-87713719D01*
X158284000Y-87546281D01*
X158316664Y-87382066D01*
X158380740Y-87227373D01*
X158473764Y-87088153D01*
X158592153Y-86969764D01*
X158731373Y-86876740D01*
X158886066Y-86812664D01*
X159050281Y-86780000D01*
X159217719Y-86780000D01*
X159381934Y-86812664D01*
X159381934Y-86812664D01*
G37*
G36*
X124967934Y-86812664D02*
X125122627Y-86876740D01*
X125261847Y-86969764D01*
X125380236Y-87088153D01*
X125473260Y-87227373D01*
X125537336Y-87382066D01*
X125570000Y-87546281D01*
X125570000Y-87713719D01*
X125537336Y-87877934D01*
X125473260Y-88032627D01*
X125380236Y-88171847D01*
X125261847Y-88290236D01*
X125122627Y-88383260D01*
X124967934Y-88447336D01*
X124803719Y-88480000D01*
X124636281Y-88480000D01*
X124472066Y-88447336D01*
X124317373Y-88383260D01*
X124178153Y-88290236D01*
X124059764Y-88171847D01*
X123966740Y-88032627D01*
X123902664Y-87877934D01*
X123870000Y-87713719D01*
X123870000Y-87546281D01*
X123902664Y-87382066D01*
X123966740Y-87227373D01*
X124059764Y-87088153D01*
X124178153Y-86969764D01*
X124317373Y-86876740D01*
X124472066Y-86812664D01*
X124636281Y-86780000D01*
X124803719Y-86780000D01*
X124967934Y-86812664D01*
X124967934Y-86812664D01*
G37*
G36*
X122167934Y-85542664D02*
X122322627Y-85606740D01*
X122461847Y-85699764D01*
X122580236Y-85818153D01*
X122673260Y-85957373D01*
X122737336Y-86112066D01*
X122770000Y-86276281D01*
X122770000Y-86443719D01*
X122737336Y-86607934D01*
X122673260Y-86762627D01*
X122580236Y-86901847D01*
X122461847Y-87020236D01*
X122322627Y-87113260D01*
X122167934Y-87177336D01*
X122003719Y-87210000D01*
X121836281Y-87210000D01*
X121672066Y-87177336D01*
X121517373Y-87113260D01*
X121378153Y-87020236D01*
X121259764Y-86901847D01*
X121166740Y-86762627D01*
X121102664Y-86607934D01*
X121070000Y-86443719D01*
X121070000Y-86276281D01*
X121102664Y-86112066D01*
X121166740Y-85957373D01*
X121259764Y-85818153D01*
X121378153Y-85699764D01*
X121517373Y-85606740D01*
X121672066Y-85542664D01*
X121836281Y-85510000D01*
X122003719Y-85510000D01*
X122167934Y-85542664D01*
X122167934Y-85542664D01*
G37*
G36*
X156581934Y-85542664D02*
X156736627Y-85606740D01*
X156875847Y-85699764D01*
X156994236Y-85818153D01*
X157087260Y-85957373D01*
X157151336Y-86112066D01*
X157184000Y-86276281D01*
X157184000Y-86443719D01*
X157151336Y-86607934D01*
X157087260Y-86762627D01*
X156994236Y-86901847D01*
X156875847Y-87020236D01*
X156736627Y-87113260D01*
X156581934Y-87177336D01*
X156417719Y-87210000D01*
X156250281Y-87210000D01*
X156086066Y-87177336D01*
X155931373Y-87113260D01*
X155792153Y-87020236D01*
X155673764Y-86901847D01*
X155580740Y-86762627D01*
X155516664Y-86607934D01*
X155484000Y-86443719D01*
X155484000Y-86276281D01*
X155516664Y-86112066D01*
X155580740Y-85957373D01*
X155673764Y-85818153D01*
X155792153Y-85699764D01*
X155931373Y-85606740D01*
X156086066Y-85542664D01*
X156250281Y-85510000D01*
X156417719Y-85510000D01*
X156581934Y-85542664D01*
X156581934Y-85542664D01*
G37*
G36*
X140670000Y-87185000D02*
X139270000Y-87185000D01*
X139270000Y-85535000D01*
X140670000Y-85535000D01*
X140670000Y-87185000D01*
X140670000Y-87185000D01*
G37*
G36*
X142670000Y-87185000D02*
X141270000Y-87185000D01*
X141270000Y-85535000D01*
X142670000Y-85535000D01*
X142670000Y-87185000D01*
X142670000Y-87185000D01*
G37*
G36*
X159381934Y-84272664D02*
X159536627Y-84336740D01*
X159675847Y-84429764D01*
X159794236Y-84548153D01*
X159887260Y-84687373D01*
X159951336Y-84842066D01*
X159984000Y-85006281D01*
X159984000Y-85173719D01*
X159951336Y-85337934D01*
X159887260Y-85492627D01*
X159794236Y-85631847D01*
X159675847Y-85750236D01*
X159536627Y-85843260D01*
X159381934Y-85907336D01*
X159217719Y-85940000D01*
X159050281Y-85940000D01*
X158886066Y-85907336D01*
X158731373Y-85843260D01*
X158592153Y-85750236D01*
X158473764Y-85631847D01*
X158380740Y-85492627D01*
X158316664Y-85337934D01*
X158284000Y-85173719D01*
X158284000Y-85006281D01*
X158316664Y-84842066D01*
X158380740Y-84687373D01*
X158473764Y-84548153D01*
X158592153Y-84429764D01*
X158731373Y-84336740D01*
X158886066Y-84272664D01*
X159050281Y-84240000D01*
X159217719Y-84240000D01*
X159381934Y-84272664D01*
X159381934Y-84272664D01*
G37*
G36*
X124967934Y-84272664D02*
X125122627Y-84336740D01*
X125261847Y-84429764D01*
X125380236Y-84548153D01*
X125473260Y-84687373D01*
X125537336Y-84842066D01*
X125570000Y-85006281D01*
X125570000Y-85173719D01*
X125537336Y-85337934D01*
X125473260Y-85492627D01*
X125380236Y-85631847D01*
X125261847Y-85750236D01*
X125122627Y-85843260D01*
X124967934Y-85907336D01*
X124803719Y-85940000D01*
X124636281Y-85940000D01*
X124472066Y-85907336D01*
X124317373Y-85843260D01*
X124178153Y-85750236D01*
X124059764Y-85631847D01*
X123966740Y-85492627D01*
X123902664Y-85337934D01*
X123870000Y-85173719D01*
X123870000Y-85006281D01*
X123902664Y-84842066D01*
X123966740Y-84687373D01*
X124059764Y-84548153D01*
X124178153Y-84429764D01*
X124317373Y-84336740D01*
X124472066Y-84272664D01*
X124636281Y-84240000D01*
X124803719Y-84240000D01*
X124967934Y-84272664D01*
X124967934Y-84272664D01*
G37*
G36*
X122167934Y-83002664D02*
X122322627Y-83066740D01*
X122461847Y-83159764D01*
X122580236Y-83278153D01*
X122673260Y-83417373D01*
X122737336Y-83572066D01*
X122770000Y-83736281D01*
X122770000Y-83903719D01*
X122737336Y-84067934D01*
X122673260Y-84222627D01*
X122580236Y-84361847D01*
X122461847Y-84480236D01*
X122322627Y-84573260D01*
X122167934Y-84637336D01*
X122003719Y-84670000D01*
X121836281Y-84670000D01*
X121672066Y-84637336D01*
X121517373Y-84573260D01*
X121378153Y-84480236D01*
X121259764Y-84361847D01*
X121166740Y-84222627D01*
X121102664Y-84067934D01*
X121070000Y-83903719D01*
X121070000Y-83736281D01*
X121102664Y-83572066D01*
X121166740Y-83417373D01*
X121259764Y-83278153D01*
X121378153Y-83159764D01*
X121517373Y-83066740D01*
X121672066Y-83002664D01*
X121836281Y-82970000D01*
X122003719Y-82970000D01*
X122167934Y-83002664D01*
X122167934Y-83002664D01*
G37*
G36*
X156581934Y-83002664D02*
X156736627Y-83066740D01*
X156875847Y-83159764D01*
X156994236Y-83278153D01*
X157087260Y-83417373D01*
X157151336Y-83572066D01*
X157184000Y-83736281D01*
X157184000Y-83903719D01*
X157151336Y-84067934D01*
X157087260Y-84222627D01*
X156994236Y-84361847D01*
X156875847Y-84480236D01*
X156736627Y-84573260D01*
X156581934Y-84637336D01*
X156417719Y-84670000D01*
X156250281Y-84670000D01*
X156086066Y-84637336D01*
X155931373Y-84573260D01*
X155792153Y-84480236D01*
X155673764Y-84361847D01*
X155580740Y-84222627D01*
X155516664Y-84067934D01*
X155484000Y-83903719D01*
X155484000Y-83736281D01*
X155516664Y-83572066D01*
X155580740Y-83417373D01*
X155673764Y-83278153D01*
X155792153Y-83159764D01*
X155931373Y-83066740D01*
X156086066Y-83002664D01*
X156250281Y-82970000D01*
X156417719Y-82970000D01*
X156581934Y-83002664D01*
X156581934Y-83002664D01*
G37*
G36*
X144970000Y-84000000D02*
X142020000Y-84000000D01*
X142020000Y-81100000D01*
X144970000Y-81100000D01*
X144970000Y-84000000D01*
X144970000Y-84000000D01*
G37*
G36*
X139920000Y-84000000D02*
X136970000Y-84000000D01*
X136970000Y-81100000D01*
X139920000Y-81100000D01*
X139920000Y-84000000D01*
X139920000Y-84000000D01*
G37*
G36*
X159381934Y-81732664D02*
X159536627Y-81796740D01*
X159675847Y-81889764D01*
X159794236Y-82008153D01*
X159887260Y-82147373D01*
X159951336Y-82302066D01*
X159984000Y-82466281D01*
X159984000Y-82633719D01*
X159951336Y-82797934D01*
X159887260Y-82952627D01*
X159794236Y-83091847D01*
X159675847Y-83210236D01*
X159536627Y-83303260D01*
X159381934Y-83367336D01*
X159217719Y-83400000D01*
X159050281Y-83400000D01*
X158886066Y-83367336D01*
X158731373Y-83303260D01*
X158592153Y-83210236D01*
X158473764Y-83091847D01*
X158380740Y-82952627D01*
X158316664Y-82797934D01*
X158284000Y-82633719D01*
X158284000Y-82466281D01*
X158316664Y-82302066D01*
X158380740Y-82147373D01*
X158473764Y-82008153D01*
X158592153Y-81889764D01*
X158731373Y-81796740D01*
X158886066Y-81732664D01*
X159050281Y-81700000D01*
X159217719Y-81700000D01*
X159381934Y-81732664D01*
X159381934Y-81732664D01*
G37*
G36*
X124967934Y-81732664D02*
X125122627Y-81796740D01*
X125261847Y-81889764D01*
X125380236Y-82008153D01*
X125473260Y-82147373D01*
X125537336Y-82302066D01*
X125570000Y-82466281D01*
X125570000Y-82633719D01*
X125537336Y-82797934D01*
X125473260Y-82952627D01*
X125380236Y-83091847D01*
X125261847Y-83210236D01*
X125122627Y-83303260D01*
X124967934Y-83367336D01*
X124803719Y-83400000D01*
X124636281Y-83400000D01*
X124472066Y-83367336D01*
X124317373Y-83303260D01*
X124178153Y-83210236D01*
X124059764Y-83091847D01*
X123966740Y-82952627D01*
X123902664Y-82797934D01*
X123870000Y-82633719D01*
X123870000Y-82466281D01*
X123902664Y-82302066D01*
X123966740Y-82147373D01*
X124059764Y-82008153D01*
X124178153Y-81889764D01*
X124317373Y-81796740D01*
X124472066Y-81732664D01*
X124636281Y-81700000D01*
X124803719Y-81700000D01*
X124967934Y-81732664D01*
X124967934Y-81732664D01*
G37*
G36*
X122167934Y-80462664D02*
X122322627Y-80526740D01*
X122461847Y-80619764D01*
X122580236Y-80738153D01*
X122673260Y-80877373D01*
X122737336Y-81032066D01*
X122770000Y-81196281D01*
X122770000Y-81363719D01*
X122737336Y-81527934D01*
X122673260Y-81682627D01*
X122580236Y-81821847D01*
X122461847Y-81940236D01*
X122322627Y-82033260D01*
X122167934Y-82097336D01*
X122003719Y-82130000D01*
X121836281Y-82130000D01*
X121672066Y-82097336D01*
X121517373Y-82033260D01*
X121378153Y-81940236D01*
X121259764Y-81821847D01*
X121166740Y-81682627D01*
X121102664Y-81527934D01*
X121070000Y-81363719D01*
X121070000Y-81196281D01*
X121102664Y-81032066D01*
X121166740Y-80877373D01*
X121259764Y-80738153D01*
X121378153Y-80619764D01*
X121517373Y-80526740D01*
X121672066Y-80462664D01*
X121836281Y-80430000D01*
X122003719Y-80430000D01*
X122167934Y-80462664D01*
X122167934Y-80462664D01*
G37*
G36*
X156581934Y-80462664D02*
X156736627Y-80526740D01*
X156875847Y-80619764D01*
X156994236Y-80738153D01*
X157087260Y-80877373D01*
X157151336Y-81032066D01*
X157184000Y-81196281D01*
X157184000Y-81363719D01*
X157151336Y-81527934D01*
X157087260Y-81682627D01*
X156994236Y-81821847D01*
X156875847Y-81940236D01*
X156736627Y-82033260D01*
X156581934Y-82097336D01*
X156417719Y-82130000D01*
X156250281Y-82130000D01*
X156086066Y-82097336D01*
X155931373Y-82033260D01*
X155792153Y-81940236D01*
X155673764Y-81821847D01*
X155580740Y-81682627D01*
X155516664Y-81527934D01*
X155484000Y-81363719D01*
X155484000Y-81196281D01*
X155516664Y-81032066D01*
X155580740Y-80877373D01*
X155673764Y-80738153D01*
X155792153Y-80619764D01*
X155931373Y-80526740D01*
X156086066Y-80462664D01*
X156250281Y-80430000D01*
X156417719Y-80430000D01*
X156581934Y-80462664D01*
X156581934Y-80462664D01*
G37*
G36*
X159381934Y-79192664D02*
X159536627Y-79256740D01*
X159675847Y-79349764D01*
X159794236Y-79468153D01*
X159887260Y-79607373D01*
X159951336Y-79762066D01*
X159984000Y-79926281D01*
X159984000Y-80093719D01*
X159951336Y-80257934D01*
X159887260Y-80412627D01*
X159794236Y-80551847D01*
X159675847Y-80670236D01*
X159536627Y-80763260D01*
X159381934Y-80827336D01*
X159217719Y-80860000D01*
X159050281Y-80860000D01*
X158886066Y-80827336D01*
X158731373Y-80763260D01*
X158592153Y-80670236D01*
X158473764Y-80551847D01*
X158380740Y-80412627D01*
X158316664Y-80257934D01*
X158284000Y-80093719D01*
X158284000Y-79926281D01*
X158316664Y-79762066D01*
X158380740Y-79607373D01*
X158473764Y-79468153D01*
X158592153Y-79349764D01*
X158731373Y-79256740D01*
X158886066Y-79192664D01*
X159050281Y-79160000D01*
X159217719Y-79160000D01*
X159381934Y-79192664D01*
X159381934Y-79192664D01*
G37*
G36*
X124967934Y-79192664D02*
X125122627Y-79256740D01*
X125261847Y-79349764D01*
X125380236Y-79468153D01*
X125473260Y-79607373D01*
X125537336Y-79762066D01*
X125570000Y-79926281D01*
X125570000Y-80093719D01*
X125537336Y-80257934D01*
X125473260Y-80412627D01*
X125380236Y-80551847D01*
X125261847Y-80670236D01*
X125122627Y-80763260D01*
X124967934Y-80827336D01*
X124803719Y-80860000D01*
X124636281Y-80860000D01*
X124472066Y-80827336D01*
X124317373Y-80763260D01*
X124178153Y-80670236D01*
X124059764Y-80551847D01*
X123966740Y-80412627D01*
X123902664Y-80257934D01*
X123870000Y-80093719D01*
X123870000Y-79926281D01*
X123902664Y-79762066D01*
X123966740Y-79607373D01*
X124059764Y-79468153D01*
X124178153Y-79349764D01*
X124317373Y-79256740D01*
X124472066Y-79192664D01*
X124636281Y-79160000D01*
X124803719Y-79160000D01*
X124967934Y-79192664D01*
X124967934Y-79192664D01*
G37*
G36*
X156581934Y-77922664D02*
X156736627Y-77986740D01*
X156875847Y-78079764D01*
X156994236Y-78198153D01*
X157087260Y-78337373D01*
X157151336Y-78492066D01*
X157184000Y-78656281D01*
X157184000Y-78823719D01*
X157151336Y-78987934D01*
X157087260Y-79142627D01*
X156994236Y-79281847D01*
X156875847Y-79400236D01*
X156736627Y-79493260D01*
X156581934Y-79557336D01*
X156417719Y-79590000D01*
X156250281Y-79590000D01*
X156086066Y-79557336D01*
X155931373Y-79493260D01*
X155792153Y-79400236D01*
X155673764Y-79281847D01*
X155580740Y-79142627D01*
X155516664Y-78987934D01*
X155484000Y-78823719D01*
X155484000Y-78656281D01*
X155516664Y-78492066D01*
X155580740Y-78337373D01*
X155673764Y-78198153D01*
X155792153Y-78079764D01*
X155931373Y-77986740D01*
X156086066Y-77922664D01*
X156250281Y-77890000D01*
X156417719Y-77890000D01*
X156581934Y-77922664D01*
X156581934Y-77922664D01*
G37*
G36*
X122167934Y-77922664D02*
X122322627Y-77986740D01*
X122461847Y-78079764D01*
X122580236Y-78198153D01*
X122673260Y-78337373D01*
X122737336Y-78492066D01*
X122770000Y-78656281D01*
X122770000Y-78823719D01*
X122737336Y-78987934D01*
X122673260Y-79142627D01*
X122580236Y-79281847D01*
X122461847Y-79400236D01*
X122322627Y-79493260D01*
X122167934Y-79557336D01*
X122003719Y-79590000D01*
X121836281Y-79590000D01*
X121672066Y-79557336D01*
X121517373Y-79493260D01*
X121378153Y-79400236D01*
X121259764Y-79281847D01*
X121166740Y-79142627D01*
X121102664Y-78987934D01*
X121070000Y-78823719D01*
X121070000Y-78656281D01*
X121102664Y-78492066D01*
X121166740Y-78337373D01*
X121259764Y-78198153D01*
X121378153Y-78079764D01*
X121517373Y-77986740D01*
X121672066Y-77922664D01*
X121836281Y-77890000D01*
X122003719Y-77890000D01*
X122167934Y-77922664D01*
X122167934Y-77922664D01*
G37*
G36*
X124967934Y-76652664D02*
X125122627Y-76716740D01*
X125261847Y-76809764D01*
X125380236Y-76928153D01*
X125473260Y-77067373D01*
X125537336Y-77222066D01*
X125570000Y-77386281D01*
X125570000Y-77553719D01*
X125537336Y-77717934D01*
X125473260Y-77872627D01*
X125380236Y-78011847D01*
X125261847Y-78130236D01*
X125122627Y-78223260D01*
X124967934Y-78287336D01*
X124803719Y-78320000D01*
X124636281Y-78320000D01*
X124472066Y-78287336D01*
X124317373Y-78223260D01*
X124178153Y-78130236D01*
X124059764Y-78011847D01*
X123966740Y-77872627D01*
X123902664Y-77717934D01*
X123870000Y-77553719D01*
X123870000Y-77386281D01*
X123902664Y-77222066D01*
X123966740Y-77067373D01*
X124059764Y-76928153D01*
X124178153Y-76809764D01*
X124317373Y-76716740D01*
X124472066Y-76652664D01*
X124636281Y-76620000D01*
X124803719Y-76620000D01*
X124967934Y-76652664D01*
X124967934Y-76652664D01*
G37*
G36*
X159381934Y-76652664D02*
X159536627Y-76716740D01*
X159675847Y-76809764D01*
X159794236Y-76928153D01*
X159887260Y-77067373D01*
X159951336Y-77222066D01*
X159984000Y-77386281D01*
X159984000Y-77553719D01*
X159951336Y-77717934D01*
X159887260Y-77872627D01*
X159794236Y-78011847D01*
X159675847Y-78130236D01*
X159536627Y-78223260D01*
X159381934Y-78287336D01*
X159217719Y-78320000D01*
X159050281Y-78320000D01*
X158886066Y-78287336D01*
X158731373Y-78223260D01*
X158592153Y-78130236D01*
X158473764Y-78011847D01*
X158380740Y-77872627D01*
X158316664Y-77717934D01*
X158284000Y-77553719D01*
X158284000Y-77386281D01*
X158316664Y-77222066D01*
X158380740Y-77067373D01*
X158473764Y-76928153D01*
X158592153Y-76809764D01*
X158731373Y-76716740D01*
X158886066Y-76652664D01*
X159050281Y-76620000D01*
X159217719Y-76620000D01*
X159381934Y-76652664D01*
X159381934Y-76652664D01*
G37*
G36*
X156581934Y-75382664D02*
X156736627Y-75446740D01*
X156875847Y-75539764D01*
X156994236Y-75658153D01*
X157087260Y-75797373D01*
X157151336Y-75952066D01*
X157184000Y-76116281D01*
X157184000Y-76283719D01*
X157151336Y-76447934D01*
X157087260Y-76602627D01*
X156994236Y-76741847D01*
X156875847Y-76860236D01*
X156736627Y-76953260D01*
X156581934Y-77017336D01*
X156417719Y-77050000D01*
X156250281Y-77050000D01*
X156086066Y-77017336D01*
X155931373Y-76953260D01*
X155792153Y-76860236D01*
X155673764Y-76741847D01*
X155580740Y-76602627D01*
X155516664Y-76447934D01*
X155484000Y-76283719D01*
X155484000Y-76116281D01*
X155516664Y-75952066D01*
X155580740Y-75797373D01*
X155673764Y-75658153D01*
X155792153Y-75539764D01*
X155931373Y-75446740D01*
X156086066Y-75382664D01*
X156250281Y-75350000D01*
X156417719Y-75350000D01*
X156581934Y-75382664D01*
X156581934Y-75382664D01*
G37*
G36*
X122167934Y-75382664D02*
X122322627Y-75446740D01*
X122461847Y-75539764D01*
X122580236Y-75658153D01*
X122673260Y-75797373D01*
X122737336Y-75952066D01*
X122770000Y-76116281D01*
X122770000Y-76283719D01*
X122737336Y-76447934D01*
X122673260Y-76602627D01*
X122580236Y-76741847D01*
X122461847Y-76860236D01*
X122322627Y-76953260D01*
X122167934Y-77017336D01*
X122003719Y-77050000D01*
X121836281Y-77050000D01*
X121672066Y-77017336D01*
X121517373Y-76953260D01*
X121378153Y-76860236D01*
X121259764Y-76741847D01*
X121166740Y-76602627D01*
X121102664Y-76447934D01*
X121070000Y-76283719D01*
X121070000Y-76116281D01*
X121102664Y-75952066D01*
X121166740Y-75797373D01*
X121259764Y-75658153D01*
X121378153Y-75539764D01*
X121517373Y-75446740D01*
X121672066Y-75382664D01*
X121836281Y-75350000D01*
X122003719Y-75350000D01*
X122167934Y-75382664D01*
X122167934Y-75382664D01*
G37*
M02*
