G04 #@! TF.GenerationSoftware,KiCad,Pcbnew,(5.0.1-3-g963ef8bb5)*
G04 #@! TF.CreationDate,2019-05-18T06:39:01-07:00*
G04 #@! TF.ProjectId,oakram,6F616B72616D2E6B696361645F706362,3.0*
G04 #@! TF.SameCoordinates,Original*
G04 #@! TF.FileFunction,Copper,L3,Inr,Plane*
G04 #@! TF.FilePolarity,Positive*
%FSLAX46Y46*%
G04 Gerber Fmt 4.6, Leading zero omitted, Abs format (unit mm)*
G04 Created by KiCad (PCBNEW (5.0.1-3-g963ef8bb5)) date Saturday, May 18, 2019 at 06:39:01 AM*
%MOMM*%
%LPD*%
G01*
G04 APERTURE LIST*
G04 #@! TA.AperFunction,ViaPad*
%ADD10C,1.700000*%
G04 #@! TD*
G04 #@! TA.AperFunction,ViaPad*
%ADD11C,0.700000*%
G04 #@! TD*
G04 #@! TA.AperFunction,ViaPad*
%ADD12C,1.000000*%
G04 #@! TD*
G04 #@! TA.AperFunction,Conductor*
%ADD13C,0.177800*%
G04 #@! TD*
G04 APERTURE END LIST*
D10*
G04 #@! TO.N,/D8*
G04 #@! TO.C,X1*
X121920000Y-76200000D03*
G04 #@! TO.N,/D9*
X124720000Y-77470000D03*
G04 #@! TO.N,/D10*
X121920000Y-78740000D03*
G04 #@! TO.N,/D11*
X124720000Y-80010000D03*
G04 #@! TO.N,/D13*
X121920000Y-83820000D03*
G04 #@! TO.N,VSS*
X121920000Y-81280000D03*
G04 #@! TO.N,/D12*
X124720000Y-82550000D03*
G04 #@! TO.N,/D14*
X124720000Y-85090000D03*
G04 #@! TO.N,VCC*
X121920000Y-88900000D03*
X124720000Y-95250000D03*
G04 #@! TO.N,/D15*
X121920000Y-86360000D03*
G04 #@! TO.N,/D2*
X124720000Y-92710000D03*
G04 #@! TO.N,VSS*
X124720000Y-87630000D03*
G04 #@! TO.N,/D0*
X124720000Y-90170000D03*
G04 #@! TO.N,/D1*
X121920000Y-91440000D03*
G04 #@! TO.N,/D3*
X121920000Y-93980000D03*
G04 #@! TO.N,/D6*
X121920000Y-99060000D03*
G04 #@! TO.N,/A1*
X121920000Y-109220000D03*
G04 #@! TO.N,/~RAS*
X124720000Y-105410000D03*
G04 #@! TO.N,/D4*
X121920000Y-96520000D03*
G04 #@! TO.N,/A2*
X124720000Y-110490000D03*
G04 #@! TO.N,Net-(X1-Pad25)*
X121920000Y-106680000D03*
G04 #@! TO.N,/A9*
X124720000Y-102870000D03*
G04 #@! TO.N,Net-(X1-Pad32)*
X124720000Y-115570000D03*
G04 #@! TO.N,/D5*
X124720000Y-97790000D03*
G04 #@! TO.N,/D7*
X124720000Y-100330000D03*
G04 #@! TO.N,Net-(X1-Pad21)*
X121920000Y-101600000D03*
G04 #@! TO.N,/~WE*
X121920000Y-104140000D03*
G04 #@! TO.N,/A0*
X124720000Y-107950000D03*
G04 #@! TO.N,/A3*
X121920000Y-111760000D03*
G04 #@! TO.N,VSS*
X121920000Y-114300000D03*
G04 #@! TO.N,VCC*
X124720000Y-113030000D03*
G04 #@! TO.N,/~OE*
X121920000Y-121920000D03*
G04 #@! TO.N,Net-(X1-Pad34)*
X124720000Y-118110000D03*
G04 #@! TO.N,Net-(X1-Pad36)*
X124720000Y-120650000D03*
G04 #@! TO.N,/~CAS0*
X121920000Y-124460000D03*
G04 #@! TO.N,Net-(X1-Pad40)*
X124720000Y-125730000D03*
G04 #@! TO.N,Net-(X1-Pad35)*
X121920000Y-119380000D03*
G04 #@! TO.N,Net-(X1-Pad33)*
X121920000Y-116840000D03*
G04 #@! TO.N,/~CAS1*
X124720000Y-123190000D03*
G04 #@! TD*
G04 #@! TO.N,/~CAS3*
G04 #@! TO.C,X2*
X159134000Y-123190000D03*
G04 #@! TO.N,/A5*
X156334000Y-116840000D03*
G04 #@! TO.N,/A7*
X156334000Y-119380000D03*
G04 #@! TO.N,Net-(X2-Pad40)*
X159134000Y-125730000D03*
G04 #@! TO.N,/~CAS2*
X156334000Y-124460000D03*
G04 #@! TO.N,/A8*
X159134000Y-120650000D03*
G04 #@! TO.N,/A6*
X159134000Y-118110000D03*
G04 #@! TO.N,/~OE*
X156334000Y-121920000D03*
G04 #@! TO.N,VCC*
X159134000Y-113030000D03*
G04 #@! TO.N,VSS*
X156334000Y-114300000D03*
G04 #@! TO.N,Net-(X2-Pad29)*
X156334000Y-111760000D03*
G04 #@! TO.N,Net-(X2-Pad26)*
X159134000Y-107950000D03*
G04 #@! TO.N,Net-(X2-Pad23)*
X156334000Y-104140000D03*
G04 #@! TO.N,Net-(X2-Pad21)*
X156334000Y-101600000D03*
G04 #@! TO.N,/D23*
X159134000Y-100330000D03*
G04 #@! TO.N,/D21*
X159134000Y-97790000D03*
G04 #@! TO.N,/A4*
X159134000Y-115570000D03*
G04 #@! TO.N,Net-(X2-Pad22)*
X159134000Y-102870000D03*
G04 #@! TO.N,Net-(X2-Pad25)*
X156334000Y-106680000D03*
G04 #@! TO.N,Net-(X2-Pad28)*
X159134000Y-110490000D03*
G04 #@! TO.N,/D20*
X156334000Y-96520000D03*
G04 #@! TO.N,Net-(X2-Pad24)*
X159134000Y-105410000D03*
G04 #@! TO.N,Net-(X2-Pad27)*
X156334000Y-109220000D03*
G04 #@! TO.N,/D22*
X156334000Y-99060000D03*
G04 #@! TO.N,/D19*
X156334000Y-93980000D03*
G04 #@! TO.N,/D17*
X156334000Y-91440000D03*
G04 #@! TO.N,/D16*
X159134000Y-90170000D03*
G04 #@! TO.N,VSS*
X159134000Y-87630000D03*
G04 #@! TO.N,/D18*
X159134000Y-92710000D03*
G04 #@! TO.N,/D31*
X156334000Y-86360000D03*
G04 #@! TO.N,VCC*
X159134000Y-95250000D03*
X156334000Y-88900000D03*
G04 #@! TO.N,/D30*
X159134000Y-85090000D03*
G04 #@! TO.N,/D28*
X159134000Y-82550000D03*
G04 #@! TO.N,VSS*
X156334000Y-81280000D03*
G04 #@! TO.N,/D29*
X156334000Y-83820000D03*
G04 #@! TO.N,/D27*
X159134000Y-80010000D03*
G04 #@! TO.N,/D26*
X156334000Y-78740000D03*
G04 #@! TO.N,/D25*
X159134000Y-77470000D03*
G04 #@! TO.N,/D24*
X156334000Y-76200000D03*
G04 #@! TD*
D11*
G04 #@! TO.N,/A9*
X134747000Y-102235000D03*
X136017000Y-106680000D03*
G04 #@! TO.N,/A4*
X149860000Y-113030000D03*
G04 #@! TO.N,/~OE*
X132588000Y-121793000D03*
X134620000Y-105537000D03*
X145796000Y-105537000D03*
G04 #@! TO.N,/A6*
X147955000Y-110490000D03*
G04 #@! TO.N,/A8*
X146431000Y-107950000D03*
G04 #@! TO.N,/~CAS0*
X132207000Y-102870000D03*
G04 #@! TO.N,/A7*
X147193000Y-109220000D03*
G04 #@! TO.N,/A5*
X148844000Y-111760000D03*
G04 #@! TO.N,/~CAS1*
X130937000Y-104267000D03*
G04 #@! TO.N,VSS*
X130302000Y-92837000D03*
X153035000Y-87947500D03*
X140208000Y-88900000D03*
X151066500Y-95250000D03*
X136398000Y-95250000D03*
X138620500Y-86360000D03*
X136207500Y-82550000D03*
X150939500Y-114300000D03*
X138430000Y-115189000D03*
X145097500Y-117538500D03*
X131572000Y-116141500D03*
X140970000Y-99250500D03*
X130175000Y-99250500D03*
G04 #@! TO.N,VCC*
X130302000Y-88900000D03*
D12*
X145986500Y-82550000D03*
X143510000Y-79375000D03*
D11*
X141986000Y-116205000D03*
X127317500Y-116268500D03*
X143319500Y-86360000D03*
X140970000Y-95250000D03*
X130111500Y-95250000D03*
G04 #@! TD*
D13*
G04 #@! TO.N,VCC*
G36*
X161138018Y-114148471D02*
X159917357Y-114160557D01*
X159947599Y-114077086D01*
X159134000Y-113263487D01*
X158320401Y-114077086D01*
X158356242Y-114176014D01*
X157526900Y-114184225D01*
X157526900Y-114062717D01*
X157345292Y-113624277D01*
X157009723Y-113288708D01*
X156571283Y-113107100D01*
X156096717Y-113107100D01*
X155658277Y-113288708D01*
X155322708Y-113624277D01*
X155141100Y-114062717D01*
X155141100Y-114207847D01*
X154838802Y-114210840D01*
X154843798Y-111522717D01*
X155141100Y-111522717D01*
X155141100Y-111997283D01*
X155322708Y-112435723D01*
X155658277Y-112771292D01*
X156096717Y-112952900D01*
X156571283Y-112952900D01*
X156823780Y-112848312D01*
X157669986Y-112848312D01*
X157711899Y-113422397D01*
X157850955Y-113758111D01*
X158086914Y-113843599D01*
X158900513Y-113030000D01*
X159367487Y-113030000D01*
X160181086Y-113843599D01*
X160417045Y-113758111D01*
X160598014Y-113211688D01*
X160556101Y-112637603D01*
X160417045Y-112301889D01*
X160181086Y-112216401D01*
X159367487Y-113030000D01*
X158900513Y-113030000D01*
X158086914Y-112216401D01*
X157850955Y-112301889D01*
X157669986Y-112848312D01*
X156823780Y-112848312D01*
X157009723Y-112771292D01*
X157345292Y-112435723D01*
X157526900Y-111997283D01*
X157526900Y-111522717D01*
X157345292Y-111084277D01*
X157009723Y-110748708D01*
X156571283Y-110567100D01*
X156096717Y-110567100D01*
X155658277Y-110748708D01*
X155322708Y-111084277D01*
X155141100Y-111522717D01*
X154843798Y-111522717D01*
X154848519Y-108982717D01*
X155141100Y-108982717D01*
X155141100Y-109457283D01*
X155322708Y-109895723D01*
X155658277Y-110231292D01*
X156096717Y-110412900D01*
X156571283Y-110412900D01*
X156957998Y-110252717D01*
X157941100Y-110252717D01*
X157941100Y-110727283D01*
X158122708Y-111165723D01*
X158458277Y-111501292D01*
X158728626Y-111613274D01*
X158405889Y-111746955D01*
X158320401Y-111982914D01*
X159134000Y-112796513D01*
X159947599Y-111982914D01*
X159862111Y-111746955D01*
X159503428Y-111628163D01*
X159809723Y-111501292D01*
X160145292Y-111165723D01*
X160326900Y-110727283D01*
X160326900Y-110252717D01*
X160145292Y-109814277D01*
X159809723Y-109478708D01*
X159371283Y-109297100D01*
X158896717Y-109297100D01*
X158458277Y-109478708D01*
X158122708Y-109814277D01*
X157941100Y-110252717D01*
X156957998Y-110252717D01*
X157009723Y-110231292D01*
X157345292Y-109895723D01*
X157526900Y-109457283D01*
X157526900Y-108982717D01*
X157345292Y-108544277D01*
X157009723Y-108208708D01*
X156571283Y-108027100D01*
X156096717Y-108027100D01*
X155658277Y-108208708D01*
X155322708Y-108544277D01*
X155141100Y-108982717D01*
X154848519Y-108982717D01*
X154853240Y-106442717D01*
X155141100Y-106442717D01*
X155141100Y-106917283D01*
X155322708Y-107355723D01*
X155658277Y-107691292D01*
X156096717Y-107872900D01*
X156571283Y-107872900D01*
X156957998Y-107712717D01*
X157941100Y-107712717D01*
X157941100Y-108187283D01*
X158122708Y-108625723D01*
X158458277Y-108961292D01*
X158896717Y-109142900D01*
X159371283Y-109142900D01*
X159809723Y-108961292D01*
X160145292Y-108625723D01*
X160326900Y-108187283D01*
X160326900Y-107712717D01*
X160145292Y-107274277D01*
X159809723Y-106938708D01*
X159371283Y-106757100D01*
X158896717Y-106757100D01*
X158458277Y-106938708D01*
X158122708Y-107274277D01*
X157941100Y-107712717D01*
X156957998Y-107712717D01*
X157009723Y-107691292D01*
X157345292Y-107355723D01*
X157526900Y-106917283D01*
X157526900Y-106442717D01*
X157345292Y-106004277D01*
X157009723Y-105668708D01*
X156571283Y-105487100D01*
X156096717Y-105487100D01*
X155658277Y-105668708D01*
X155322708Y-106004277D01*
X155141100Y-106442717D01*
X154853240Y-106442717D01*
X154857961Y-103902717D01*
X155141100Y-103902717D01*
X155141100Y-104377283D01*
X155322708Y-104815723D01*
X155658277Y-105151292D01*
X156096717Y-105332900D01*
X156571283Y-105332900D01*
X156957998Y-105172717D01*
X157941100Y-105172717D01*
X157941100Y-105647283D01*
X158122708Y-106085723D01*
X158458277Y-106421292D01*
X158896717Y-106602900D01*
X159371283Y-106602900D01*
X159809723Y-106421292D01*
X160145292Y-106085723D01*
X160326900Y-105647283D01*
X160326900Y-105172717D01*
X160145292Y-104734277D01*
X159809723Y-104398708D01*
X159371283Y-104217100D01*
X158896717Y-104217100D01*
X158458277Y-104398708D01*
X158122708Y-104734277D01*
X157941100Y-105172717D01*
X156957998Y-105172717D01*
X157009723Y-105151292D01*
X157345292Y-104815723D01*
X157526900Y-104377283D01*
X157526900Y-103902717D01*
X157345292Y-103464277D01*
X157009723Y-103128708D01*
X156571283Y-102947100D01*
X156096717Y-102947100D01*
X155658277Y-103128708D01*
X155322708Y-103464277D01*
X155141100Y-103902717D01*
X154857961Y-103902717D01*
X154862682Y-101362717D01*
X155141100Y-101362717D01*
X155141100Y-101837283D01*
X155322708Y-102275723D01*
X155658277Y-102611292D01*
X156096717Y-102792900D01*
X156571283Y-102792900D01*
X156957998Y-102632717D01*
X157941100Y-102632717D01*
X157941100Y-103107283D01*
X158122708Y-103545723D01*
X158458277Y-103881292D01*
X158896717Y-104062900D01*
X159371283Y-104062900D01*
X159809723Y-103881292D01*
X160145292Y-103545723D01*
X160326900Y-103107283D01*
X160326900Y-102632717D01*
X160145292Y-102194277D01*
X159809723Y-101858708D01*
X159371283Y-101677100D01*
X158896717Y-101677100D01*
X158458277Y-101858708D01*
X158122708Y-102194277D01*
X157941100Y-102632717D01*
X156957998Y-102632717D01*
X157009723Y-102611292D01*
X157345292Y-102275723D01*
X157526900Y-101837283D01*
X157526900Y-101362717D01*
X157345292Y-100924277D01*
X157009723Y-100588708D01*
X156571283Y-100407100D01*
X156096717Y-100407100D01*
X155658277Y-100588708D01*
X155322708Y-100924277D01*
X155141100Y-101362717D01*
X154862682Y-101362717D01*
X154867403Y-98822717D01*
X155141100Y-98822717D01*
X155141100Y-99297283D01*
X155322708Y-99735723D01*
X155658277Y-100071292D01*
X156096717Y-100252900D01*
X156571283Y-100252900D01*
X156957998Y-100092717D01*
X157941100Y-100092717D01*
X157941100Y-100567283D01*
X158122708Y-101005723D01*
X158458277Y-101341292D01*
X158896717Y-101522900D01*
X159371283Y-101522900D01*
X159809723Y-101341292D01*
X160145292Y-101005723D01*
X160326900Y-100567283D01*
X160326900Y-100092717D01*
X160145292Y-99654277D01*
X159809723Y-99318708D01*
X159371283Y-99137100D01*
X158896717Y-99137100D01*
X158458277Y-99318708D01*
X158122708Y-99654277D01*
X157941100Y-100092717D01*
X156957998Y-100092717D01*
X157009723Y-100071292D01*
X157345292Y-99735723D01*
X157526900Y-99297283D01*
X157526900Y-98822717D01*
X157345292Y-98384277D01*
X157009723Y-98048708D01*
X156571283Y-97867100D01*
X156096717Y-97867100D01*
X155658277Y-98048708D01*
X155322708Y-98384277D01*
X155141100Y-98822717D01*
X154867403Y-98822717D01*
X154872124Y-96282717D01*
X155141100Y-96282717D01*
X155141100Y-96757283D01*
X155322708Y-97195723D01*
X155658277Y-97531292D01*
X156096717Y-97712900D01*
X156571283Y-97712900D01*
X156957998Y-97552717D01*
X157941100Y-97552717D01*
X157941100Y-98027283D01*
X158122708Y-98465723D01*
X158458277Y-98801292D01*
X158896717Y-98982900D01*
X159371283Y-98982900D01*
X159809723Y-98801292D01*
X160145292Y-98465723D01*
X160326900Y-98027283D01*
X160326900Y-97552717D01*
X160145292Y-97114277D01*
X159809723Y-96778708D01*
X159539374Y-96666726D01*
X159862111Y-96533045D01*
X159947599Y-96297086D01*
X159134000Y-95483487D01*
X158320401Y-96297086D01*
X158405889Y-96533045D01*
X158764572Y-96651837D01*
X158458277Y-96778708D01*
X158122708Y-97114277D01*
X157941100Y-97552717D01*
X156957998Y-97552717D01*
X157009723Y-97531292D01*
X157345292Y-97195723D01*
X157526900Y-96757283D01*
X157526900Y-96282717D01*
X157345292Y-95844277D01*
X157009723Y-95508708D01*
X156571283Y-95327100D01*
X156096717Y-95327100D01*
X155658277Y-95508708D01*
X155322708Y-95844277D01*
X155141100Y-96282717D01*
X154872124Y-96282717D01*
X154876845Y-93742717D01*
X155141100Y-93742717D01*
X155141100Y-94217283D01*
X155322708Y-94655723D01*
X155658277Y-94991292D01*
X156096717Y-95172900D01*
X156571283Y-95172900D01*
X156823780Y-95068312D01*
X157669986Y-95068312D01*
X157711899Y-95642397D01*
X157850955Y-95978111D01*
X158086914Y-96063599D01*
X158900513Y-95250000D01*
X159367487Y-95250000D01*
X160181086Y-96063599D01*
X160417045Y-95978111D01*
X160598014Y-95431688D01*
X160556101Y-94857603D01*
X160417045Y-94521889D01*
X160181086Y-94436401D01*
X159367487Y-95250000D01*
X158900513Y-95250000D01*
X158086914Y-94436401D01*
X157850955Y-94521889D01*
X157669986Y-95068312D01*
X156823780Y-95068312D01*
X157009723Y-94991292D01*
X157345292Y-94655723D01*
X157526900Y-94217283D01*
X157526900Y-93742717D01*
X157345292Y-93304277D01*
X157009723Y-92968708D01*
X156571283Y-92787100D01*
X156096717Y-92787100D01*
X155658277Y-92968708D01*
X155322708Y-93304277D01*
X155141100Y-93742717D01*
X154876845Y-93742717D01*
X154881567Y-91202717D01*
X155141100Y-91202717D01*
X155141100Y-91677283D01*
X155322708Y-92115723D01*
X155658277Y-92451292D01*
X156096717Y-92632900D01*
X156571283Y-92632900D01*
X156957998Y-92472717D01*
X157941100Y-92472717D01*
X157941100Y-92947283D01*
X158122708Y-93385723D01*
X158458277Y-93721292D01*
X158728626Y-93833274D01*
X158405889Y-93966955D01*
X158320401Y-94202914D01*
X159134000Y-95016513D01*
X159947599Y-94202914D01*
X159862111Y-93966955D01*
X159503428Y-93848163D01*
X159809723Y-93721292D01*
X160145292Y-93385723D01*
X160326900Y-92947283D01*
X160326900Y-92472717D01*
X160145292Y-92034277D01*
X159809723Y-91698708D01*
X159371283Y-91517100D01*
X158896717Y-91517100D01*
X158458277Y-91698708D01*
X158122708Y-92034277D01*
X157941100Y-92472717D01*
X156957998Y-92472717D01*
X157009723Y-92451292D01*
X157345292Y-92115723D01*
X157526900Y-91677283D01*
X157526900Y-91202717D01*
X157345292Y-90764277D01*
X157009723Y-90428708D01*
X156739374Y-90316726D01*
X157062111Y-90183045D01*
X157147599Y-89947086D01*
X157133230Y-89932717D01*
X157941100Y-89932717D01*
X157941100Y-90407283D01*
X158122708Y-90845723D01*
X158458277Y-91181292D01*
X158896717Y-91362900D01*
X159371283Y-91362900D01*
X159809723Y-91181292D01*
X160145292Y-90845723D01*
X160326900Y-90407283D01*
X160326900Y-89932717D01*
X160145292Y-89494277D01*
X159809723Y-89158708D01*
X159371283Y-88977100D01*
X158896717Y-88977100D01*
X158458277Y-89158708D01*
X158122708Y-89494277D01*
X157941100Y-89932717D01*
X157133230Y-89932717D01*
X156334000Y-89133487D01*
X155520401Y-89947086D01*
X155605889Y-90183045D01*
X155964572Y-90301837D01*
X155658277Y-90428708D01*
X155322708Y-90764277D01*
X155141100Y-91202717D01*
X154881567Y-91202717D01*
X154885784Y-88934695D01*
X154911899Y-89292397D01*
X155050955Y-89628111D01*
X155286914Y-89713599D01*
X156100513Y-88900000D01*
X156567487Y-88900000D01*
X157381086Y-89713599D01*
X157617045Y-89628111D01*
X157798014Y-89081688D01*
X157756101Y-88507603D01*
X157617045Y-88171889D01*
X157381086Y-88086401D01*
X156567487Y-88900000D01*
X156100513Y-88900000D01*
X155286914Y-88086401D01*
X155050955Y-88171889D01*
X154886277Y-88669121D01*
X154891010Y-86122717D01*
X155141100Y-86122717D01*
X155141100Y-86597283D01*
X155322708Y-87035723D01*
X155658277Y-87371292D01*
X155928626Y-87483274D01*
X155605889Y-87616955D01*
X155520401Y-87852914D01*
X156334000Y-88666513D01*
X157147599Y-87852914D01*
X157062111Y-87616955D01*
X156703428Y-87498163D01*
X156957998Y-87392717D01*
X157941100Y-87392717D01*
X157941100Y-87867283D01*
X158122708Y-88305723D01*
X158458277Y-88641292D01*
X158896717Y-88822900D01*
X159371283Y-88822900D01*
X159809723Y-88641292D01*
X160145292Y-88305723D01*
X160326900Y-87867283D01*
X160326900Y-87392717D01*
X160145292Y-86954277D01*
X159809723Y-86618708D01*
X159371283Y-86437100D01*
X158896717Y-86437100D01*
X158458277Y-86618708D01*
X158122708Y-86954277D01*
X157941100Y-87392717D01*
X156957998Y-87392717D01*
X157009723Y-87371292D01*
X157345292Y-87035723D01*
X157526900Y-86597283D01*
X157526900Y-86122717D01*
X157345292Y-85684277D01*
X157009723Y-85348708D01*
X156571283Y-85167100D01*
X156096717Y-85167100D01*
X155658277Y-85348708D01*
X155322708Y-85684277D01*
X155141100Y-86122717D01*
X154891010Y-86122717D01*
X154895731Y-83582717D01*
X155141100Y-83582717D01*
X155141100Y-84057283D01*
X155322708Y-84495723D01*
X155658277Y-84831292D01*
X156096717Y-85012900D01*
X156571283Y-85012900D01*
X156957998Y-84852717D01*
X157941100Y-84852717D01*
X157941100Y-85327283D01*
X158122708Y-85765723D01*
X158458277Y-86101292D01*
X158896717Y-86282900D01*
X159371283Y-86282900D01*
X159809723Y-86101292D01*
X160145292Y-85765723D01*
X160326900Y-85327283D01*
X160326900Y-84852717D01*
X160145292Y-84414277D01*
X159809723Y-84078708D01*
X159371283Y-83897100D01*
X158896717Y-83897100D01*
X158458277Y-84078708D01*
X158122708Y-84414277D01*
X157941100Y-84852717D01*
X156957998Y-84852717D01*
X157009723Y-84831292D01*
X157345292Y-84495723D01*
X157526900Y-84057283D01*
X157526900Y-83582717D01*
X157345292Y-83144277D01*
X157009723Y-82808708D01*
X156571283Y-82627100D01*
X156096717Y-82627100D01*
X155658277Y-82808708D01*
X155322708Y-83144277D01*
X155141100Y-83582717D01*
X154895731Y-83582717D01*
X154900452Y-81042717D01*
X155141100Y-81042717D01*
X155141100Y-81517283D01*
X155322708Y-81955723D01*
X155658277Y-82291292D01*
X156096717Y-82472900D01*
X156571283Y-82472900D01*
X156957998Y-82312717D01*
X157941100Y-82312717D01*
X157941100Y-82787283D01*
X158122708Y-83225723D01*
X158458277Y-83561292D01*
X158896717Y-83742900D01*
X159371283Y-83742900D01*
X159809723Y-83561292D01*
X160145292Y-83225723D01*
X160326900Y-82787283D01*
X160326900Y-82312717D01*
X160145292Y-81874277D01*
X159809723Y-81538708D01*
X159371283Y-81357100D01*
X158896717Y-81357100D01*
X158458277Y-81538708D01*
X158122708Y-81874277D01*
X157941100Y-82312717D01*
X156957998Y-82312717D01*
X157009723Y-82291292D01*
X157345292Y-81955723D01*
X157526900Y-81517283D01*
X157526900Y-81042717D01*
X157345292Y-80604277D01*
X157009723Y-80268708D01*
X156571283Y-80087100D01*
X156096717Y-80087100D01*
X155658277Y-80268708D01*
X155322708Y-80604277D01*
X155141100Y-81042717D01*
X154900452Y-81042717D01*
X154901900Y-80264165D01*
X154895196Y-80230132D01*
X154875979Y-80201255D01*
X154847173Y-80181930D01*
X154812802Y-80175100D01*
X126237802Y-80238600D01*
X126203797Y-80245443D01*
X126174999Y-80264778D01*
X126155792Y-80293662D01*
X126149100Y-80327500D01*
X126149100Y-94953469D01*
X126142101Y-94857603D01*
X126003045Y-94521889D01*
X125767086Y-94436401D01*
X124953487Y-95250000D01*
X125767086Y-96063599D01*
X126003045Y-95978111D01*
X126149100Y-95537108D01*
X126149100Y-112733469D01*
X126142101Y-112637603D01*
X126003045Y-112301889D01*
X125767086Y-112216401D01*
X124953487Y-113030000D01*
X125767086Y-113843599D01*
X126003045Y-113758111D01*
X126149100Y-113317108D01*
X126149100Y-114211100D01*
X125485046Y-114211100D01*
X125533599Y-114077086D01*
X124720000Y-113263487D01*
X123906401Y-114077086D01*
X123954954Y-114211100D01*
X123112900Y-114211100D01*
X123112900Y-114062717D01*
X122931292Y-113624277D01*
X122595723Y-113288708D01*
X122157283Y-113107100D01*
X121682717Y-113107100D01*
X121244277Y-113288708D01*
X120908708Y-113624277D01*
X120727100Y-114062717D01*
X120727100Y-114211100D01*
X119849900Y-114211100D01*
X119849900Y-111522717D01*
X120727100Y-111522717D01*
X120727100Y-111997283D01*
X120908708Y-112435723D01*
X121244277Y-112771292D01*
X121682717Y-112952900D01*
X122157283Y-112952900D01*
X122409780Y-112848312D01*
X123255986Y-112848312D01*
X123297899Y-113422397D01*
X123436955Y-113758111D01*
X123672914Y-113843599D01*
X124486513Y-113030000D01*
X123672914Y-112216401D01*
X123436955Y-112301889D01*
X123255986Y-112848312D01*
X122409780Y-112848312D01*
X122595723Y-112771292D01*
X122931292Y-112435723D01*
X123112900Y-111997283D01*
X123112900Y-111522717D01*
X122931292Y-111084277D01*
X122595723Y-110748708D01*
X122157283Y-110567100D01*
X121682717Y-110567100D01*
X121244277Y-110748708D01*
X120908708Y-111084277D01*
X120727100Y-111522717D01*
X119849900Y-111522717D01*
X119849900Y-108982717D01*
X120727100Y-108982717D01*
X120727100Y-109457283D01*
X120908708Y-109895723D01*
X121244277Y-110231292D01*
X121682717Y-110412900D01*
X122157283Y-110412900D01*
X122543998Y-110252717D01*
X123527100Y-110252717D01*
X123527100Y-110727283D01*
X123708708Y-111165723D01*
X124044277Y-111501292D01*
X124314626Y-111613274D01*
X123991889Y-111746955D01*
X123906401Y-111982914D01*
X124720000Y-112796513D01*
X125533599Y-111982914D01*
X125448111Y-111746955D01*
X125089428Y-111628163D01*
X125395723Y-111501292D01*
X125731292Y-111165723D01*
X125912900Y-110727283D01*
X125912900Y-110252717D01*
X125731292Y-109814277D01*
X125395723Y-109478708D01*
X124957283Y-109297100D01*
X124482717Y-109297100D01*
X124044277Y-109478708D01*
X123708708Y-109814277D01*
X123527100Y-110252717D01*
X122543998Y-110252717D01*
X122595723Y-110231292D01*
X122931292Y-109895723D01*
X123112900Y-109457283D01*
X123112900Y-108982717D01*
X122931292Y-108544277D01*
X122595723Y-108208708D01*
X122157283Y-108027100D01*
X121682717Y-108027100D01*
X121244277Y-108208708D01*
X120908708Y-108544277D01*
X120727100Y-108982717D01*
X119849900Y-108982717D01*
X119849900Y-106442717D01*
X120727100Y-106442717D01*
X120727100Y-106917283D01*
X120908708Y-107355723D01*
X121244277Y-107691292D01*
X121682717Y-107872900D01*
X122157283Y-107872900D01*
X122543998Y-107712717D01*
X123527100Y-107712717D01*
X123527100Y-108187283D01*
X123708708Y-108625723D01*
X124044277Y-108961292D01*
X124482717Y-109142900D01*
X124957283Y-109142900D01*
X125395723Y-108961292D01*
X125731292Y-108625723D01*
X125912900Y-108187283D01*
X125912900Y-107712717D01*
X125731292Y-107274277D01*
X125395723Y-106938708D01*
X124957283Y-106757100D01*
X124482717Y-106757100D01*
X124044277Y-106938708D01*
X123708708Y-107274277D01*
X123527100Y-107712717D01*
X122543998Y-107712717D01*
X122595723Y-107691292D01*
X122931292Y-107355723D01*
X123112900Y-106917283D01*
X123112900Y-106442717D01*
X122931292Y-106004277D01*
X122595723Y-105668708D01*
X122157283Y-105487100D01*
X121682717Y-105487100D01*
X121244277Y-105668708D01*
X120908708Y-106004277D01*
X120727100Y-106442717D01*
X119849900Y-106442717D01*
X119849900Y-103902717D01*
X120727100Y-103902717D01*
X120727100Y-104377283D01*
X120908708Y-104815723D01*
X121244277Y-105151292D01*
X121682717Y-105332900D01*
X122157283Y-105332900D01*
X122543998Y-105172717D01*
X123527100Y-105172717D01*
X123527100Y-105647283D01*
X123708708Y-106085723D01*
X124044277Y-106421292D01*
X124482717Y-106602900D01*
X124957283Y-106602900D01*
X125395723Y-106421292D01*
X125731292Y-106085723D01*
X125912900Y-105647283D01*
X125912900Y-105172717D01*
X125731292Y-104734277D01*
X125395723Y-104398708D01*
X124957283Y-104217100D01*
X124482717Y-104217100D01*
X124044277Y-104398708D01*
X123708708Y-104734277D01*
X123527100Y-105172717D01*
X122543998Y-105172717D01*
X122595723Y-105151292D01*
X122931292Y-104815723D01*
X123112900Y-104377283D01*
X123112900Y-103902717D01*
X122931292Y-103464277D01*
X122595723Y-103128708D01*
X122157283Y-102947100D01*
X121682717Y-102947100D01*
X121244277Y-103128708D01*
X120908708Y-103464277D01*
X120727100Y-103902717D01*
X119849900Y-103902717D01*
X119849900Y-101362717D01*
X120727100Y-101362717D01*
X120727100Y-101837283D01*
X120908708Y-102275723D01*
X121244277Y-102611292D01*
X121682717Y-102792900D01*
X122157283Y-102792900D01*
X122543998Y-102632717D01*
X123527100Y-102632717D01*
X123527100Y-103107283D01*
X123708708Y-103545723D01*
X124044277Y-103881292D01*
X124482717Y-104062900D01*
X124957283Y-104062900D01*
X125395723Y-103881292D01*
X125731292Y-103545723D01*
X125912900Y-103107283D01*
X125912900Y-102632717D01*
X125731292Y-102194277D01*
X125395723Y-101858708D01*
X124957283Y-101677100D01*
X124482717Y-101677100D01*
X124044277Y-101858708D01*
X123708708Y-102194277D01*
X123527100Y-102632717D01*
X122543998Y-102632717D01*
X122595723Y-102611292D01*
X122931292Y-102275723D01*
X123112900Y-101837283D01*
X123112900Y-101362717D01*
X122931292Y-100924277D01*
X122595723Y-100588708D01*
X122157283Y-100407100D01*
X121682717Y-100407100D01*
X121244277Y-100588708D01*
X120908708Y-100924277D01*
X120727100Y-101362717D01*
X119849900Y-101362717D01*
X119849900Y-98822717D01*
X120727100Y-98822717D01*
X120727100Y-99297283D01*
X120908708Y-99735723D01*
X121244277Y-100071292D01*
X121682717Y-100252900D01*
X122157283Y-100252900D01*
X122543998Y-100092717D01*
X123527100Y-100092717D01*
X123527100Y-100567283D01*
X123708708Y-101005723D01*
X124044277Y-101341292D01*
X124482717Y-101522900D01*
X124957283Y-101522900D01*
X125395723Y-101341292D01*
X125731292Y-101005723D01*
X125912900Y-100567283D01*
X125912900Y-100092717D01*
X125731292Y-99654277D01*
X125395723Y-99318708D01*
X124957283Y-99137100D01*
X124482717Y-99137100D01*
X124044277Y-99318708D01*
X123708708Y-99654277D01*
X123527100Y-100092717D01*
X122543998Y-100092717D01*
X122595723Y-100071292D01*
X122931292Y-99735723D01*
X123112900Y-99297283D01*
X123112900Y-98822717D01*
X122931292Y-98384277D01*
X122595723Y-98048708D01*
X122157283Y-97867100D01*
X121682717Y-97867100D01*
X121244277Y-98048708D01*
X120908708Y-98384277D01*
X120727100Y-98822717D01*
X119849900Y-98822717D01*
X119849900Y-96282717D01*
X120727100Y-96282717D01*
X120727100Y-96757283D01*
X120908708Y-97195723D01*
X121244277Y-97531292D01*
X121682717Y-97712900D01*
X122157283Y-97712900D01*
X122543998Y-97552717D01*
X123527100Y-97552717D01*
X123527100Y-98027283D01*
X123708708Y-98465723D01*
X124044277Y-98801292D01*
X124482717Y-98982900D01*
X124957283Y-98982900D01*
X125395723Y-98801292D01*
X125731292Y-98465723D01*
X125912900Y-98027283D01*
X125912900Y-97552717D01*
X125731292Y-97114277D01*
X125395723Y-96778708D01*
X125125374Y-96666726D01*
X125448111Y-96533045D01*
X125533599Y-96297086D01*
X124720000Y-95483487D01*
X123906401Y-96297086D01*
X123991889Y-96533045D01*
X124350572Y-96651837D01*
X124044277Y-96778708D01*
X123708708Y-97114277D01*
X123527100Y-97552717D01*
X122543998Y-97552717D01*
X122595723Y-97531292D01*
X122931292Y-97195723D01*
X123112900Y-96757283D01*
X123112900Y-96282717D01*
X122931292Y-95844277D01*
X122595723Y-95508708D01*
X122157283Y-95327100D01*
X121682717Y-95327100D01*
X121244277Y-95508708D01*
X120908708Y-95844277D01*
X120727100Y-96282717D01*
X119849900Y-96282717D01*
X119849900Y-93742717D01*
X120727100Y-93742717D01*
X120727100Y-94217283D01*
X120908708Y-94655723D01*
X121244277Y-94991292D01*
X121682717Y-95172900D01*
X122157283Y-95172900D01*
X122409780Y-95068312D01*
X123255986Y-95068312D01*
X123297899Y-95642397D01*
X123436955Y-95978111D01*
X123672914Y-96063599D01*
X124486513Y-95250000D01*
X123672914Y-94436401D01*
X123436955Y-94521889D01*
X123255986Y-95068312D01*
X122409780Y-95068312D01*
X122595723Y-94991292D01*
X122931292Y-94655723D01*
X123112900Y-94217283D01*
X123112900Y-93742717D01*
X122931292Y-93304277D01*
X122595723Y-92968708D01*
X122157283Y-92787100D01*
X121682717Y-92787100D01*
X121244277Y-92968708D01*
X120908708Y-93304277D01*
X120727100Y-93742717D01*
X119849900Y-93742717D01*
X119849900Y-91202717D01*
X120727100Y-91202717D01*
X120727100Y-91677283D01*
X120908708Y-92115723D01*
X121244277Y-92451292D01*
X121682717Y-92632900D01*
X122157283Y-92632900D01*
X122543998Y-92472717D01*
X123527100Y-92472717D01*
X123527100Y-92947283D01*
X123708708Y-93385723D01*
X124044277Y-93721292D01*
X124314626Y-93833274D01*
X123991889Y-93966955D01*
X123906401Y-94202914D01*
X124720000Y-95016513D01*
X125533599Y-94202914D01*
X125448111Y-93966955D01*
X125089428Y-93848163D01*
X125395723Y-93721292D01*
X125731292Y-93385723D01*
X125912900Y-92947283D01*
X125912900Y-92472717D01*
X125731292Y-92034277D01*
X125395723Y-91698708D01*
X124957283Y-91517100D01*
X124482717Y-91517100D01*
X124044277Y-91698708D01*
X123708708Y-92034277D01*
X123527100Y-92472717D01*
X122543998Y-92472717D01*
X122595723Y-92451292D01*
X122931292Y-92115723D01*
X123112900Y-91677283D01*
X123112900Y-91202717D01*
X122931292Y-90764277D01*
X122595723Y-90428708D01*
X122325374Y-90316726D01*
X122648111Y-90183045D01*
X122733599Y-89947086D01*
X122719230Y-89932717D01*
X123527100Y-89932717D01*
X123527100Y-90407283D01*
X123708708Y-90845723D01*
X124044277Y-91181292D01*
X124482717Y-91362900D01*
X124957283Y-91362900D01*
X125395723Y-91181292D01*
X125731292Y-90845723D01*
X125912900Y-90407283D01*
X125912900Y-89932717D01*
X125731292Y-89494277D01*
X125395723Y-89158708D01*
X124957283Y-88977100D01*
X124482717Y-88977100D01*
X124044277Y-89158708D01*
X123708708Y-89494277D01*
X123527100Y-89932717D01*
X122719230Y-89932717D01*
X121920000Y-89133487D01*
X121106401Y-89947086D01*
X121191889Y-90183045D01*
X121550572Y-90301837D01*
X121244277Y-90428708D01*
X120908708Y-90764277D01*
X120727100Y-91202717D01*
X119849900Y-91202717D01*
X119849900Y-88718312D01*
X120455986Y-88718312D01*
X120497899Y-89292397D01*
X120636955Y-89628111D01*
X120872914Y-89713599D01*
X121686513Y-88900000D01*
X122153487Y-88900000D01*
X122967086Y-89713599D01*
X123203045Y-89628111D01*
X123384014Y-89081688D01*
X123342101Y-88507603D01*
X123203045Y-88171889D01*
X122967086Y-88086401D01*
X122153487Y-88900000D01*
X121686513Y-88900000D01*
X120872914Y-88086401D01*
X120636955Y-88171889D01*
X120455986Y-88718312D01*
X119849900Y-88718312D01*
X119849900Y-86122717D01*
X120727100Y-86122717D01*
X120727100Y-86597283D01*
X120908708Y-87035723D01*
X121244277Y-87371292D01*
X121514626Y-87483274D01*
X121191889Y-87616955D01*
X121106401Y-87852914D01*
X121920000Y-88666513D01*
X122733599Y-87852914D01*
X122648111Y-87616955D01*
X122289428Y-87498163D01*
X122543998Y-87392717D01*
X123527100Y-87392717D01*
X123527100Y-87867283D01*
X123708708Y-88305723D01*
X124044277Y-88641292D01*
X124482717Y-88822900D01*
X124957283Y-88822900D01*
X125395723Y-88641292D01*
X125731292Y-88305723D01*
X125912900Y-87867283D01*
X125912900Y-87392717D01*
X125731292Y-86954277D01*
X125395723Y-86618708D01*
X124957283Y-86437100D01*
X124482717Y-86437100D01*
X124044277Y-86618708D01*
X123708708Y-86954277D01*
X123527100Y-87392717D01*
X122543998Y-87392717D01*
X122595723Y-87371292D01*
X122931292Y-87035723D01*
X123112900Y-86597283D01*
X123112900Y-86122717D01*
X122931292Y-85684277D01*
X122595723Y-85348708D01*
X122157283Y-85167100D01*
X121682717Y-85167100D01*
X121244277Y-85348708D01*
X120908708Y-85684277D01*
X120727100Y-86122717D01*
X119849900Y-86122717D01*
X119849900Y-83582717D01*
X120727100Y-83582717D01*
X120727100Y-84057283D01*
X120908708Y-84495723D01*
X121244277Y-84831292D01*
X121682717Y-85012900D01*
X122157283Y-85012900D01*
X122543998Y-84852717D01*
X123527100Y-84852717D01*
X123527100Y-85327283D01*
X123708708Y-85765723D01*
X124044277Y-86101292D01*
X124482717Y-86282900D01*
X124957283Y-86282900D01*
X125395723Y-86101292D01*
X125731292Y-85765723D01*
X125912900Y-85327283D01*
X125912900Y-84852717D01*
X125731292Y-84414277D01*
X125395723Y-84078708D01*
X124957283Y-83897100D01*
X124482717Y-83897100D01*
X124044277Y-84078708D01*
X123708708Y-84414277D01*
X123527100Y-84852717D01*
X122543998Y-84852717D01*
X122595723Y-84831292D01*
X122931292Y-84495723D01*
X123112900Y-84057283D01*
X123112900Y-83582717D01*
X122931292Y-83144277D01*
X122595723Y-82808708D01*
X122157283Y-82627100D01*
X121682717Y-82627100D01*
X121244277Y-82808708D01*
X120908708Y-83144277D01*
X120727100Y-83582717D01*
X119849900Y-83582717D01*
X119849900Y-81042717D01*
X120727100Y-81042717D01*
X120727100Y-81517283D01*
X120908708Y-81955723D01*
X121244277Y-82291292D01*
X121682717Y-82472900D01*
X122157283Y-82472900D01*
X122543998Y-82312717D01*
X123527100Y-82312717D01*
X123527100Y-82787283D01*
X123708708Y-83225723D01*
X124044277Y-83561292D01*
X124482717Y-83742900D01*
X124957283Y-83742900D01*
X125395723Y-83561292D01*
X125731292Y-83225723D01*
X125912900Y-82787283D01*
X125912900Y-82312717D01*
X125731292Y-81874277D01*
X125395723Y-81538708D01*
X124957283Y-81357100D01*
X124482717Y-81357100D01*
X124044277Y-81538708D01*
X123708708Y-81874277D01*
X123527100Y-82312717D01*
X122543998Y-82312717D01*
X122595723Y-82291292D01*
X122931292Y-81955723D01*
X123112900Y-81517283D01*
X123112900Y-81042717D01*
X122931292Y-80604277D01*
X122595723Y-80268708D01*
X122157283Y-80087100D01*
X121682717Y-80087100D01*
X121244277Y-80268708D01*
X120908708Y-80604277D01*
X120727100Y-81042717D01*
X119849900Y-81042717D01*
X119849900Y-78502717D01*
X120727100Y-78502717D01*
X120727100Y-78977283D01*
X120908708Y-79415723D01*
X121244277Y-79751292D01*
X121682717Y-79932900D01*
X122157283Y-79932900D01*
X122543998Y-79772717D01*
X123527100Y-79772717D01*
X123527100Y-80247283D01*
X123708708Y-80685723D01*
X124044277Y-81021292D01*
X124482717Y-81202900D01*
X124957283Y-81202900D01*
X125395723Y-81021292D01*
X125731292Y-80685723D01*
X125912900Y-80247283D01*
X125912900Y-79772717D01*
X125731292Y-79334277D01*
X125395723Y-78998708D01*
X124957283Y-78817100D01*
X124482717Y-78817100D01*
X124044277Y-78998708D01*
X123708708Y-79334277D01*
X123527100Y-79772717D01*
X122543998Y-79772717D01*
X122595723Y-79751292D01*
X122931292Y-79415723D01*
X123112900Y-78977283D01*
X123112900Y-78502717D01*
X122931292Y-78064277D01*
X122595723Y-77728708D01*
X122157283Y-77547100D01*
X121682717Y-77547100D01*
X121244277Y-77728708D01*
X120908708Y-78064277D01*
X120727100Y-78502717D01*
X119849900Y-78502717D01*
X119849900Y-75962717D01*
X120727100Y-75962717D01*
X120727100Y-76437283D01*
X120908708Y-76875723D01*
X121244277Y-77211292D01*
X121682717Y-77392900D01*
X122157283Y-77392900D01*
X122543998Y-77232717D01*
X123527100Y-77232717D01*
X123527100Y-77707283D01*
X123708708Y-78145723D01*
X124044277Y-78481292D01*
X124482717Y-78662900D01*
X124957283Y-78662900D01*
X125343998Y-78502717D01*
X155141100Y-78502717D01*
X155141100Y-78977283D01*
X155322708Y-79415723D01*
X155658277Y-79751292D01*
X156096717Y-79932900D01*
X156571283Y-79932900D01*
X156957998Y-79772717D01*
X157941100Y-79772717D01*
X157941100Y-80247283D01*
X158122708Y-80685723D01*
X158458277Y-81021292D01*
X158896717Y-81202900D01*
X159371283Y-81202900D01*
X159809723Y-81021292D01*
X160145292Y-80685723D01*
X160326900Y-80247283D01*
X160326900Y-79772717D01*
X160145292Y-79334277D01*
X159809723Y-78998708D01*
X159371283Y-78817100D01*
X158896717Y-78817100D01*
X158458277Y-78998708D01*
X158122708Y-79334277D01*
X157941100Y-79772717D01*
X156957998Y-79772717D01*
X157009723Y-79751292D01*
X157345292Y-79415723D01*
X157526900Y-78977283D01*
X157526900Y-78502717D01*
X157345292Y-78064277D01*
X157009723Y-77728708D01*
X156571283Y-77547100D01*
X156096717Y-77547100D01*
X155658277Y-77728708D01*
X155322708Y-78064277D01*
X155141100Y-78502717D01*
X125343998Y-78502717D01*
X125395723Y-78481292D01*
X125731292Y-78145723D01*
X125912900Y-77707283D01*
X125912900Y-77232717D01*
X125731292Y-76794277D01*
X125395723Y-76458708D01*
X124957283Y-76277100D01*
X124482717Y-76277100D01*
X124044277Y-76458708D01*
X123708708Y-76794277D01*
X123527100Y-77232717D01*
X122543998Y-77232717D01*
X122595723Y-77211292D01*
X122931292Y-76875723D01*
X123112900Y-76437283D01*
X123112900Y-75962717D01*
X155141100Y-75962717D01*
X155141100Y-76437283D01*
X155322708Y-76875723D01*
X155658277Y-77211292D01*
X156096717Y-77392900D01*
X156571283Y-77392900D01*
X156957998Y-77232717D01*
X157941100Y-77232717D01*
X157941100Y-77707283D01*
X158122708Y-78145723D01*
X158458277Y-78481292D01*
X158896717Y-78662900D01*
X159371283Y-78662900D01*
X159809723Y-78481292D01*
X160145292Y-78145723D01*
X160326900Y-77707283D01*
X160326900Y-77232717D01*
X160145292Y-76794277D01*
X159809723Y-76458708D01*
X159371283Y-76277100D01*
X158896717Y-76277100D01*
X158458277Y-76458708D01*
X158122708Y-76794277D01*
X157941100Y-77232717D01*
X156957998Y-77232717D01*
X157009723Y-77211292D01*
X157345292Y-76875723D01*
X157526900Y-76437283D01*
X157526900Y-75962717D01*
X157345292Y-75524277D01*
X157009723Y-75188708D01*
X156571283Y-75007100D01*
X156096717Y-75007100D01*
X155658277Y-75188708D01*
X155322708Y-75524277D01*
X155141100Y-75962717D01*
X123112900Y-75962717D01*
X122931292Y-75524277D01*
X122595723Y-75188708D01*
X122157283Y-75007100D01*
X121682717Y-75007100D01*
X121244277Y-75188708D01*
X120908708Y-75524277D01*
X120727100Y-75962717D01*
X119849900Y-75962717D01*
X119849900Y-74320400D01*
X161327676Y-74320400D01*
X161138018Y-114148471D01*
X161138018Y-114148471D01*
G37*
X161138018Y-114148471D02*
X159917357Y-114160557D01*
X159947599Y-114077086D01*
X159134000Y-113263487D01*
X158320401Y-114077086D01*
X158356242Y-114176014D01*
X157526900Y-114184225D01*
X157526900Y-114062717D01*
X157345292Y-113624277D01*
X157009723Y-113288708D01*
X156571283Y-113107100D01*
X156096717Y-113107100D01*
X155658277Y-113288708D01*
X155322708Y-113624277D01*
X155141100Y-114062717D01*
X155141100Y-114207847D01*
X154838802Y-114210840D01*
X154843798Y-111522717D01*
X155141100Y-111522717D01*
X155141100Y-111997283D01*
X155322708Y-112435723D01*
X155658277Y-112771292D01*
X156096717Y-112952900D01*
X156571283Y-112952900D01*
X156823780Y-112848312D01*
X157669986Y-112848312D01*
X157711899Y-113422397D01*
X157850955Y-113758111D01*
X158086914Y-113843599D01*
X158900513Y-113030000D01*
X159367487Y-113030000D01*
X160181086Y-113843599D01*
X160417045Y-113758111D01*
X160598014Y-113211688D01*
X160556101Y-112637603D01*
X160417045Y-112301889D01*
X160181086Y-112216401D01*
X159367487Y-113030000D01*
X158900513Y-113030000D01*
X158086914Y-112216401D01*
X157850955Y-112301889D01*
X157669986Y-112848312D01*
X156823780Y-112848312D01*
X157009723Y-112771292D01*
X157345292Y-112435723D01*
X157526900Y-111997283D01*
X157526900Y-111522717D01*
X157345292Y-111084277D01*
X157009723Y-110748708D01*
X156571283Y-110567100D01*
X156096717Y-110567100D01*
X155658277Y-110748708D01*
X155322708Y-111084277D01*
X155141100Y-111522717D01*
X154843798Y-111522717D01*
X154848519Y-108982717D01*
X155141100Y-108982717D01*
X155141100Y-109457283D01*
X155322708Y-109895723D01*
X155658277Y-110231292D01*
X156096717Y-110412900D01*
X156571283Y-110412900D01*
X156957998Y-110252717D01*
X157941100Y-110252717D01*
X157941100Y-110727283D01*
X158122708Y-111165723D01*
X158458277Y-111501292D01*
X158728626Y-111613274D01*
X158405889Y-111746955D01*
X158320401Y-111982914D01*
X159134000Y-112796513D01*
X159947599Y-111982914D01*
X159862111Y-111746955D01*
X159503428Y-111628163D01*
X159809723Y-111501292D01*
X160145292Y-111165723D01*
X160326900Y-110727283D01*
X160326900Y-110252717D01*
X160145292Y-109814277D01*
X159809723Y-109478708D01*
X159371283Y-109297100D01*
X158896717Y-109297100D01*
X158458277Y-109478708D01*
X158122708Y-109814277D01*
X157941100Y-110252717D01*
X156957998Y-110252717D01*
X157009723Y-110231292D01*
X157345292Y-109895723D01*
X157526900Y-109457283D01*
X157526900Y-108982717D01*
X157345292Y-108544277D01*
X157009723Y-108208708D01*
X156571283Y-108027100D01*
X156096717Y-108027100D01*
X155658277Y-108208708D01*
X155322708Y-108544277D01*
X155141100Y-108982717D01*
X154848519Y-108982717D01*
X154853240Y-106442717D01*
X155141100Y-106442717D01*
X155141100Y-106917283D01*
X155322708Y-107355723D01*
X155658277Y-107691292D01*
X156096717Y-107872900D01*
X156571283Y-107872900D01*
X156957998Y-107712717D01*
X157941100Y-107712717D01*
X157941100Y-108187283D01*
X158122708Y-108625723D01*
X158458277Y-108961292D01*
X158896717Y-109142900D01*
X159371283Y-109142900D01*
X159809723Y-108961292D01*
X160145292Y-108625723D01*
X160326900Y-108187283D01*
X160326900Y-107712717D01*
X160145292Y-107274277D01*
X159809723Y-106938708D01*
X159371283Y-106757100D01*
X158896717Y-106757100D01*
X158458277Y-106938708D01*
X158122708Y-107274277D01*
X157941100Y-107712717D01*
X156957998Y-107712717D01*
X157009723Y-107691292D01*
X157345292Y-107355723D01*
X157526900Y-106917283D01*
X157526900Y-106442717D01*
X157345292Y-106004277D01*
X157009723Y-105668708D01*
X156571283Y-105487100D01*
X156096717Y-105487100D01*
X155658277Y-105668708D01*
X155322708Y-106004277D01*
X155141100Y-106442717D01*
X154853240Y-106442717D01*
X154857961Y-103902717D01*
X155141100Y-103902717D01*
X155141100Y-104377283D01*
X155322708Y-104815723D01*
X155658277Y-105151292D01*
X156096717Y-105332900D01*
X156571283Y-105332900D01*
X156957998Y-105172717D01*
X157941100Y-105172717D01*
X157941100Y-105647283D01*
X158122708Y-106085723D01*
X158458277Y-106421292D01*
X158896717Y-106602900D01*
X159371283Y-106602900D01*
X159809723Y-106421292D01*
X160145292Y-106085723D01*
X160326900Y-105647283D01*
X160326900Y-105172717D01*
X160145292Y-104734277D01*
X159809723Y-104398708D01*
X159371283Y-104217100D01*
X158896717Y-104217100D01*
X158458277Y-104398708D01*
X158122708Y-104734277D01*
X157941100Y-105172717D01*
X156957998Y-105172717D01*
X157009723Y-105151292D01*
X157345292Y-104815723D01*
X157526900Y-104377283D01*
X157526900Y-103902717D01*
X157345292Y-103464277D01*
X157009723Y-103128708D01*
X156571283Y-102947100D01*
X156096717Y-102947100D01*
X155658277Y-103128708D01*
X155322708Y-103464277D01*
X155141100Y-103902717D01*
X154857961Y-103902717D01*
X154862682Y-101362717D01*
X155141100Y-101362717D01*
X155141100Y-101837283D01*
X155322708Y-102275723D01*
X155658277Y-102611292D01*
X156096717Y-102792900D01*
X156571283Y-102792900D01*
X156957998Y-102632717D01*
X157941100Y-102632717D01*
X157941100Y-103107283D01*
X158122708Y-103545723D01*
X158458277Y-103881292D01*
X158896717Y-104062900D01*
X159371283Y-104062900D01*
X159809723Y-103881292D01*
X160145292Y-103545723D01*
X160326900Y-103107283D01*
X160326900Y-102632717D01*
X160145292Y-102194277D01*
X159809723Y-101858708D01*
X159371283Y-101677100D01*
X158896717Y-101677100D01*
X158458277Y-101858708D01*
X158122708Y-102194277D01*
X157941100Y-102632717D01*
X156957998Y-102632717D01*
X157009723Y-102611292D01*
X157345292Y-102275723D01*
X157526900Y-101837283D01*
X157526900Y-101362717D01*
X157345292Y-100924277D01*
X157009723Y-100588708D01*
X156571283Y-100407100D01*
X156096717Y-100407100D01*
X155658277Y-100588708D01*
X155322708Y-100924277D01*
X155141100Y-101362717D01*
X154862682Y-101362717D01*
X154867403Y-98822717D01*
X155141100Y-98822717D01*
X155141100Y-99297283D01*
X155322708Y-99735723D01*
X155658277Y-100071292D01*
X156096717Y-100252900D01*
X156571283Y-100252900D01*
X156957998Y-100092717D01*
X157941100Y-100092717D01*
X157941100Y-100567283D01*
X158122708Y-101005723D01*
X158458277Y-101341292D01*
X158896717Y-101522900D01*
X159371283Y-101522900D01*
X159809723Y-101341292D01*
X160145292Y-101005723D01*
X160326900Y-100567283D01*
X160326900Y-100092717D01*
X160145292Y-99654277D01*
X159809723Y-99318708D01*
X159371283Y-99137100D01*
X158896717Y-99137100D01*
X158458277Y-99318708D01*
X158122708Y-99654277D01*
X157941100Y-100092717D01*
X156957998Y-100092717D01*
X157009723Y-100071292D01*
X157345292Y-99735723D01*
X157526900Y-99297283D01*
X157526900Y-98822717D01*
X157345292Y-98384277D01*
X157009723Y-98048708D01*
X156571283Y-97867100D01*
X156096717Y-97867100D01*
X155658277Y-98048708D01*
X155322708Y-98384277D01*
X155141100Y-98822717D01*
X154867403Y-98822717D01*
X154872124Y-96282717D01*
X155141100Y-96282717D01*
X155141100Y-96757283D01*
X155322708Y-97195723D01*
X155658277Y-97531292D01*
X156096717Y-97712900D01*
X156571283Y-97712900D01*
X156957998Y-97552717D01*
X157941100Y-97552717D01*
X157941100Y-98027283D01*
X158122708Y-98465723D01*
X158458277Y-98801292D01*
X158896717Y-98982900D01*
X159371283Y-98982900D01*
X159809723Y-98801292D01*
X160145292Y-98465723D01*
X160326900Y-98027283D01*
X160326900Y-97552717D01*
X160145292Y-97114277D01*
X159809723Y-96778708D01*
X159539374Y-96666726D01*
X159862111Y-96533045D01*
X159947599Y-96297086D01*
X159134000Y-95483487D01*
X158320401Y-96297086D01*
X158405889Y-96533045D01*
X158764572Y-96651837D01*
X158458277Y-96778708D01*
X158122708Y-97114277D01*
X157941100Y-97552717D01*
X156957998Y-97552717D01*
X157009723Y-97531292D01*
X157345292Y-97195723D01*
X157526900Y-96757283D01*
X157526900Y-96282717D01*
X157345292Y-95844277D01*
X157009723Y-95508708D01*
X156571283Y-95327100D01*
X156096717Y-95327100D01*
X155658277Y-95508708D01*
X155322708Y-95844277D01*
X155141100Y-96282717D01*
X154872124Y-96282717D01*
X154876845Y-93742717D01*
X155141100Y-93742717D01*
X155141100Y-94217283D01*
X155322708Y-94655723D01*
X155658277Y-94991292D01*
X156096717Y-95172900D01*
X156571283Y-95172900D01*
X156823780Y-95068312D01*
X157669986Y-95068312D01*
X157711899Y-95642397D01*
X157850955Y-95978111D01*
X158086914Y-96063599D01*
X158900513Y-95250000D01*
X159367487Y-95250000D01*
X160181086Y-96063599D01*
X160417045Y-95978111D01*
X160598014Y-95431688D01*
X160556101Y-94857603D01*
X160417045Y-94521889D01*
X160181086Y-94436401D01*
X159367487Y-95250000D01*
X158900513Y-95250000D01*
X158086914Y-94436401D01*
X157850955Y-94521889D01*
X157669986Y-95068312D01*
X156823780Y-95068312D01*
X157009723Y-94991292D01*
X157345292Y-94655723D01*
X157526900Y-94217283D01*
X157526900Y-93742717D01*
X157345292Y-93304277D01*
X157009723Y-92968708D01*
X156571283Y-92787100D01*
X156096717Y-92787100D01*
X155658277Y-92968708D01*
X155322708Y-93304277D01*
X155141100Y-93742717D01*
X154876845Y-93742717D01*
X154881567Y-91202717D01*
X155141100Y-91202717D01*
X155141100Y-91677283D01*
X155322708Y-92115723D01*
X155658277Y-92451292D01*
X156096717Y-92632900D01*
X156571283Y-92632900D01*
X156957998Y-92472717D01*
X157941100Y-92472717D01*
X157941100Y-92947283D01*
X158122708Y-93385723D01*
X158458277Y-93721292D01*
X158728626Y-93833274D01*
X158405889Y-93966955D01*
X158320401Y-94202914D01*
X159134000Y-95016513D01*
X159947599Y-94202914D01*
X159862111Y-93966955D01*
X159503428Y-93848163D01*
X159809723Y-93721292D01*
X160145292Y-93385723D01*
X160326900Y-92947283D01*
X160326900Y-92472717D01*
X160145292Y-92034277D01*
X159809723Y-91698708D01*
X159371283Y-91517100D01*
X158896717Y-91517100D01*
X158458277Y-91698708D01*
X158122708Y-92034277D01*
X157941100Y-92472717D01*
X156957998Y-92472717D01*
X157009723Y-92451292D01*
X157345292Y-92115723D01*
X157526900Y-91677283D01*
X157526900Y-91202717D01*
X157345292Y-90764277D01*
X157009723Y-90428708D01*
X156739374Y-90316726D01*
X157062111Y-90183045D01*
X157147599Y-89947086D01*
X157133230Y-89932717D01*
X157941100Y-89932717D01*
X157941100Y-90407283D01*
X158122708Y-90845723D01*
X158458277Y-91181292D01*
X158896717Y-91362900D01*
X159371283Y-91362900D01*
X159809723Y-91181292D01*
X160145292Y-90845723D01*
X160326900Y-90407283D01*
X160326900Y-89932717D01*
X160145292Y-89494277D01*
X159809723Y-89158708D01*
X159371283Y-88977100D01*
X158896717Y-88977100D01*
X158458277Y-89158708D01*
X158122708Y-89494277D01*
X157941100Y-89932717D01*
X157133230Y-89932717D01*
X156334000Y-89133487D01*
X155520401Y-89947086D01*
X155605889Y-90183045D01*
X155964572Y-90301837D01*
X155658277Y-90428708D01*
X155322708Y-90764277D01*
X155141100Y-91202717D01*
X154881567Y-91202717D01*
X154885784Y-88934695D01*
X154911899Y-89292397D01*
X155050955Y-89628111D01*
X155286914Y-89713599D01*
X156100513Y-88900000D01*
X156567487Y-88900000D01*
X157381086Y-89713599D01*
X157617045Y-89628111D01*
X157798014Y-89081688D01*
X157756101Y-88507603D01*
X157617045Y-88171889D01*
X157381086Y-88086401D01*
X156567487Y-88900000D01*
X156100513Y-88900000D01*
X155286914Y-88086401D01*
X155050955Y-88171889D01*
X154886277Y-88669121D01*
X154891010Y-86122717D01*
X155141100Y-86122717D01*
X155141100Y-86597283D01*
X155322708Y-87035723D01*
X155658277Y-87371292D01*
X155928626Y-87483274D01*
X155605889Y-87616955D01*
X155520401Y-87852914D01*
X156334000Y-88666513D01*
X157147599Y-87852914D01*
X157062111Y-87616955D01*
X156703428Y-87498163D01*
X156957998Y-87392717D01*
X157941100Y-87392717D01*
X157941100Y-87867283D01*
X158122708Y-88305723D01*
X158458277Y-88641292D01*
X158896717Y-88822900D01*
X159371283Y-88822900D01*
X159809723Y-88641292D01*
X160145292Y-88305723D01*
X160326900Y-87867283D01*
X160326900Y-87392717D01*
X160145292Y-86954277D01*
X159809723Y-86618708D01*
X159371283Y-86437100D01*
X158896717Y-86437100D01*
X158458277Y-86618708D01*
X158122708Y-86954277D01*
X157941100Y-87392717D01*
X156957998Y-87392717D01*
X157009723Y-87371292D01*
X157345292Y-87035723D01*
X157526900Y-86597283D01*
X157526900Y-86122717D01*
X157345292Y-85684277D01*
X157009723Y-85348708D01*
X156571283Y-85167100D01*
X156096717Y-85167100D01*
X155658277Y-85348708D01*
X155322708Y-85684277D01*
X155141100Y-86122717D01*
X154891010Y-86122717D01*
X154895731Y-83582717D01*
X155141100Y-83582717D01*
X155141100Y-84057283D01*
X155322708Y-84495723D01*
X155658277Y-84831292D01*
X156096717Y-85012900D01*
X156571283Y-85012900D01*
X156957998Y-84852717D01*
X157941100Y-84852717D01*
X157941100Y-85327283D01*
X158122708Y-85765723D01*
X158458277Y-86101292D01*
X158896717Y-86282900D01*
X159371283Y-86282900D01*
X159809723Y-86101292D01*
X160145292Y-85765723D01*
X160326900Y-85327283D01*
X160326900Y-84852717D01*
X160145292Y-84414277D01*
X159809723Y-84078708D01*
X159371283Y-83897100D01*
X158896717Y-83897100D01*
X158458277Y-84078708D01*
X158122708Y-84414277D01*
X157941100Y-84852717D01*
X156957998Y-84852717D01*
X157009723Y-84831292D01*
X157345292Y-84495723D01*
X157526900Y-84057283D01*
X157526900Y-83582717D01*
X157345292Y-83144277D01*
X157009723Y-82808708D01*
X156571283Y-82627100D01*
X156096717Y-82627100D01*
X155658277Y-82808708D01*
X155322708Y-83144277D01*
X155141100Y-83582717D01*
X154895731Y-83582717D01*
X154900452Y-81042717D01*
X155141100Y-81042717D01*
X155141100Y-81517283D01*
X155322708Y-81955723D01*
X155658277Y-82291292D01*
X156096717Y-82472900D01*
X156571283Y-82472900D01*
X156957998Y-82312717D01*
X157941100Y-82312717D01*
X157941100Y-82787283D01*
X158122708Y-83225723D01*
X158458277Y-83561292D01*
X158896717Y-83742900D01*
X159371283Y-83742900D01*
X159809723Y-83561292D01*
X160145292Y-83225723D01*
X160326900Y-82787283D01*
X160326900Y-82312717D01*
X160145292Y-81874277D01*
X159809723Y-81538708D01*
X159371283Y-81357100D01*
X158896717Y-81357100D01*
X158458277Y-81538708D01*
X158122708Y-81874277D01*
X157941100Y-82312717D01*
X156957998Y-82312717D01*
X157009723Y-82291292D01*
X157345292Y-81955723D01*
X157526900Y-81517283D01*
X157526900Y-81042717D01*
X157345292Y-80604277D01*
X157009723Y-80268708D01*
X156571283Y-80087100D01*
X156096717Y-80087100D01*
X155658277Y-80268708D01*
X155322708Y-80604277D01*
X155141100Y-81042717D01*
X154900452Y-81042717D01*
X154901900Y-80264165D01*
X154895196Y-80230132D01*
X154875979Y-80201255D01*
X154847173Y-80181930D01*
X154812802Y-80175100D01*
X126237802Y-80238600D01*
X126203797Y-80245443D01*
X126174999Y-80264778D01*
X126155792Y-80293662D01*
X126149100Y-80327500D01*
X126149100Y-94953469D01*
X126142101Y-94857603D01*
X126003045Y-94521889D01*
X125767086Y-94436401D01*
X124953487Y-95250000D01*
X125767086Y-96063599D01*
X126003045Y-95978111D01*
X126149100Y-95537108D01*
X126149100Y-112733469D01*
X126142101Y-112637603D01*
X126003045Y-112301889D01*
X125767086Y-112216401D01*
X124953487Y-113030000D01*
X125767086Y-113843599D01*
X126003045Y-113758111D01*
X126149100Y-113317108D01*
X126149100Y-114211100D01*
X125485046Y-114211100D01*
X125533599Y-114077086D01*
X124720000Y-113263487D01*
X123906401Y-114077086D01*
X123954954Y-114211100D01*
X123112900Y-114211100D01*
X123112900Y-114062717D01*
X122931292Y-113624277D01*
X122595723Y-113288708D01*
X122157283Y-113107100D01*
X121682717Y-113107100D01*
X121244277Y-113288708D01*
X120908708Y-113624277D01*
X120727100Y-114062717D01*
X120727100Y-114211100D01*
X119849900Y-114211100D01*
X119849900Y-111522717D01*
X120727100Y-111522717D01*
X120727100Y-111997283D01*
X120908708Y-112435723D01*
X121244277Y-112771292D01*
X121682717Y-112952900D01*
X122157283Y-112952900D01*
X122409780Y-112848312D01*
X123255986Y-112848312D01*
X123297899Y-113422397D01*
X123436955Y-113758111D01*
X123672914Y-113843599D01*
X124486513Y-113030000D01*
X123672914Y-112216401D01*
X123436955Y-112301889D01*
X123255986Y-112848312D01*
X122409780Y-112848312D01*
X122595723Y-112771292D01*
X122931292Y-112435723D01*
X123112900Y-111997283D01*
X123112900Y-111522717D01*
X122931292Y-111084277D01*
X122595723Y-110748708D01*
X122157283Y-110567100D01*
X121682717Y-110567100D01*
X121244277Y-110748708D01*
X120908708Y-111084277D01*
X120727100Y-111522717D01*
X119849900Y-111522717D01*
X119849900Y-108982717D01*
X120727100Y-108982717D01*
X120727100Y-109457283D01*
X120908708Y-109895723D01*
X121244277Y-110231292D01*
X121682717Y-110412900D01*
X122157283Y-110412900D01*
X122543998Y-110252717D01*
X123527100Y-110252717D01*
X123527100Y-110727283D01*
X123708708Y-111165723D01*
X124044277Y-111501292D01*
X124314626Y-111613274D01*
X123991889Y-111746955D01*
X123906401Y-111982914D01*
X124720000Y-112796513D01*
X125533599Y-111982914D01*
X125448111Y-111746955D01*
X125089428Y-111628163D01*
X125395723Y-111501292D01*
X125731292Y-111165723D01*
X125912900Y-110727283D01*
X125912900Y-110252717D01*
X125731292Y-109814277D01*
X125395723Y-109478708D01*
X124957283Y-109297100D01*
X124482717Y-109297100D01*
X124044277Y-109478708D01*
X123708708Y-109814277D01*
X123527100Y-110252717D01*
X122543998Y-110252717D01*
X122595723Y-110231292D01*
X122931292Y-109895723D01*
X123112900Y-109457283D01*
X123112900Y-108982717D01*
X122931292Y-108544277D01*
X122595723Y-108208708D01*
X122157283Y-108027100D01*
X121682717Y-108027100D01*
X121244277Y-108208708D01*
X120908708Y-108544277D01*
X120727100Y-108982717D01*
X119849900Y-108982717D01*
X119849900Y-106442717D01*
X120727100Y-106442717D01*
X120727100Y-106917283D01*
X120908708Y-107355723D01*
X121244277Y-107691292D01*
X121682717Y-107872900D01*
X122157283Y-107872900D01*
X122543998Y-107712717D01*
X123527100Y-107712717D01*
X123527100Y-108187283D01*
X123708708Y-108625723D01*
X124044277Y-108961292D01*
X124482717Y-109142900D01*
X124957283Y-109142900D01*
X125395723Y-108961292D01*
X125731292Y-108625723D01*
X125912900Y-108187283D01*
X125912900Y-107712717D01*
X125731292Y-107274277D01*
X125395723Y-106938708D01*
X124957283Y-106757100D01*
X124482717Y-106757100D01*
X124044277Y-106938708D01*
X123708708Y-107274277D01*
X123527100Y-107712717D01*
X122543998Y-107712717D01*
X122595723Y-107691292D01*
X122931292Y-107355723D01*
X123112900Y-106917283D01*
X123112900Y-106442717D01*
X122931292Y-106004277D01*
X122595723Y-105668708D01*
X122157283Y-105487100D01*
X121682717Y-105487100D01*
X121244277Y-105668708D01*
X120908708Y-106004277D01*
X120727100Y-106442717D01*
X119849900Y-106442717D01*
X119849900Y-103902717D01*
X120727100Y-103902717D01*
X120727100Y-104377283D01*
X120908708Y-104815723D01*
X121244277Y-105151292D01*
X121682717Y-105332900D01*
X122157283Y-105332900D01*
X122543998Y-105172717D01*
X123527100Y-105172717D01*
X123527100Y-105647283D01*
X123708708Y-106085723D01*
X124044277Y-106421292D01*
X124482717Y-106602900D01*
X124957283Y-106602900D01*
X125395723Y-106421292D01*
X125731292Y-106085723D01*
X125912900Y-105647283D01*
X125912900Y-105172717D01*
X125731292Y-104734277D01*
X125395723Y-104398708D01*
X124957283Y-104217100D01*
X124482717Y-104217100D01*
X124044277Y-104398708D01*
X123708708Y-104734277D01*
X123527100Y-105172717D01*
X122543998Y-105172717D01*
X122595723Y-105151292D01*
X122931292Y-104815723D01*
X123112900Y-104377283D01*
X123112900Y-103902717D01*
X122931292Y-103464277D01*
X122595723Y-103128708D01*
X122157283Y-102947100D01*
X121682717Y-102947100D01*
X121244277Y-103128708D01*
X120908708Y-103464277D01*
X120727100Y-103902717D01*
X119849900Y-103902717D01*
X119849900Y-101362717D01*
X120727100Y-101362717D01*
X120727100Y-101837283D01*
X120908708Y-102275723D01*
X121244277Y-102611292D01*
X121682717Y-102792900D01*
X122157283Y-102792900D01*
X122543998Y-102632717D01*
X123527100Y-102632717D01*
X123527100Y-103107283D01*
X123708708Y-103545723D01*
X124044277Y-103881292D01*
X124482717Y-104062900D01*
X124957283Y-104062900D01*
X125395723Y-103881292D01*
X125731292Y-103545723D01*
X125912900Y-103107283D01*
X125912900Y-102632717D01*
X125731292Y-102194277D01*
X125395723Y-101858708D01*
X124957283Y-101677100D01*
X124482717Y-101677100D01*
X124044277Y-101858708D01*
X123708708Y-102194277D01*
X123527100Y-102632717D01*
X122543998Y-102632717D01*
X122595723Y-102611292D01*
X122931292Y-102275723D01*
X123112900Y-101837283D01*
X123112900Y-101362717D01*
X122931292Y-100924277D01*
X122595723Y-100588708D01*
X122157283Y-100407100D01*
X121682717Y-100407100D01*
X121244277Y-100588708D01*
X120908708Y-100924277D01*
X120727100Y-101362717D01*
X119849900Y-101362717D01*
X119849900Y-98822717D01*
X120727100Y-98822717D01*
X120727100Y-99297283D01*
X120908708Y-99735723D01*
X121244277Y-100071292D01*
X121682717Y-100252900D01*
X122157283Y-100252900D01*
X122543998Y-100092717D01*
X123527100Y-100092717D01*
X123527100Y-100567283D01*
X123708708Y-101005723D01*
X124044277Y-101341292D01*
X124482717Y-101522900D01*
X124957283Y-101522900D01*
X125395723Y-101341292D01*
X125731292Y-101005723D01*
X125912900Y-100567283D01*
X125912900Y-100092717D01*
X125731292Y-99654277D01*
X125395723Y-99318708D01*
X124957283Y-99137100D01*
X124482717Y-99137100D01*
X124044277Y-99318708D01*
X123708708Y-99654277D01*
X123527100Y-100092717D01*
X122543998Y-100092717D01*
X122595723Y-100071292D01*
X122931292Y-99735723D01*
X123112900Y-99297283D01*
X123112900Y-98822717D01*
X122931292Y-98384277D01*
X122595723Y-98048708D01*
X122157283Y-97867100D01*
X121682717Y-97867100D01*
X121244277Y-98048708D01*
X120908708Y-98384277D01*
X120727100Y-98822717D01*
X119849900Y-98822717D01*
X119849900Y-96282717D01*
X120727100Y-96282717D01*
X120727100Y-96757283D01*
X120908708Y-97195723D01*
X121244277Y-97531292D01*
X121682717Y-97712900D01*
X122157283Y-97712900D01*
X122543998Y-97552717D01*
X123527100Y-97552717D01*
X123527100Y-98027283D01*
X123708708Y-98465723D01*
X124044277Y-98801292D01*
X124482717Y-98982900D01*
X124957283Y-98982900D01*
X125395723Y-98801292D01*
X125731292Y-98465723D01*
X125912900Y-98027283D01*
X125912900Y-97552717D01*
X125731292Y-97114277D01*
X125395723Y-96778708D01*
X125125374Y-96666726D01*
X125448111Y-96533045D01*
X125533599Y-96297086D01*
X124720000Y-95483487D01*
X123906401Y-96297086D01*
X123991889Y-96533045D01*
X124350572Y-96651837D01*
X124044277Y-96778708D01*
X123708708Y-97114277D01*
X123527100Y-97552717D01*
X122543998Y-97552717D01*
X122595723Y-97531292D01*
X122931292Y-97195723D01*
X123112900Y-96757283D01*
X123112900Y-96282717D01*
X122931292Y-95844277D01*
X122595723Y-95508708D01*
X122157283Y-95327100D01*
X121682717Y-95327100D01*
X121244277Y-95508708D01*
X120908708Y-95844277D01*
X120727100Y-96282717D01*
X119849900Y-96282717D01*
X119849900Y-93742717D01*
X120727100Y-93742717D01*
X120727100Y-94217283D01*
X120908708Y-94655723D01*
X121244277Y-94991292D01*
X121682717Y-95172900D01*
X122157283Y-95172900D01*
X122409780Y-95068312D01*
X123255986Y-95068312D01*
X123297899Y-95642397D01*
X123436955Y-95978111D01*
X123672914Y-96063599D01*
X124486513Y-95250000D01*
X123672914Y-94436401D01*
X123436955Y-94521889D01*
X123255986Y-95068312D01*
X122409780Y-95068312D01*
X122595723Y-94991292D01*
X122931292Y-94655723D01*
X123112900Y-94217283D01*
X123112900Y-93742717D01*
X122931292Y-93304277D01*
X122595723Y-92968708D01*
X122157283Y-92787100D01*
X121682717Y-92787100D01*
X121244277Y-92968708D01*
X120908708Y-93304277D01*
X120727100Y-93742717D01*
X119849900Y-93742717D01*
X119849900Y-91202717D01*
X120727100Y-91202717D01*
X120727100Y-91677283D01*
X120908708Y-92115723D01*
X121244277Y-92451292D01*
X121682717Y-92632900D01*
X122157283Y-92632900D01*
X122543998Y-92472717D01*
X123527100Y-92472717D01*
X123527100Y-92947283D01*
X123708708Y-93385723D01*
X124044277Y-93721292D01*
X124314626Y-93833274D01*
X123991889Y-93966955D01*
X123906401Y-94202914D01*
X124720000Y-95016513D01*
X125533599Y-94202914D01*
X125448111Y-93966955D01*
X125089428Y-93848163D01*
X125395723Y-93721292D01*
X125731292Y-93385723D01*
X125912900Y-92947283D01*
X125912900Y-92472717D01*
X125731292Y-92034277D01*
X125395723Y-91698708D01*
X124957283Y-91517100D01*
X124482717Y-91517100D01*
X124044277Y-91698708D01*
X123708708Y-92034277D01*
X123527100Y-92472717D01*
X122543998Y-92472717D01*
X122595723Y-92451292D01*
X122931292Y-92115723D01*
X123112900Y-91677283D01*
X123112900Y-91202717D01*
X122931292Y-90764277D01*
X122595723Y-90428708D01*
X122325374Y-90316726D01*
X122648111Y-90183045D01*
X122733599Y-89947086D01*
X122719230Y-89932717D01*
X123527100Y-89932717D01*
X123527100Y-90407283D01*
X123708708Y-90845723D01*
X124044277Y-91181292D01*
X124482717Y-91362900D01*
X124957283Y-91362900D01*
X125395723Y-91181292D01*
X125731292Y-90845723D01*
X125912900Y-90407283D01*
X125912900Y-89932717D01*
X125731292Y-89494277D01*
X125395723Y-89158708D01*
X124957283Y-88977100D01*
X124482717Y-88977100D01*
X124044277Y-89158708D01*
X123708708Y-89494277D01*
X123527100Y-89932717D01*
X122719230Y-89932717D01*
X121920000Y-89133487D01*
X121106401Y-89947086D01*
X121191889Y-90183045D01*
X121550572Y-90301837D01*
X121244277Y-90428708D01*
X120908708Y-90764277D01*
X120727100Y-91202717D01*
X119849900Y-91202717D01*
X119849900Y-88718312D01*
X120455986Y-88718312D01*
X120497899Y-89292397D01*
X120636955Y-89628111D01*
X120872914Y-89713599D01*
X121686513Y-88900000D01*
X122153487Y-88900000D01*
X122967086Y-89713599D01*
X123203045Y-89628111D01*
X123384014Y-89081688D01*
X123342101Y-88507603D01*
X123203045Y-88171889D01*
X122967086Y-88086401D01*
X122153487Y-88900000D01*
X121686513Y-88900000D01*
X120872914Y-88086401D01*
X120636955Y-88171889D01*
X120455986Y-88718312D01*
X119849900Y-88718312D01*
X119849900Y-86122717D01*
X120727100Y-86122717D01*
X120727100Y-86597283D01*
X120908708Y-87035723D01*
X121244277Y-87371292D01*
X121514626Y-87483274D01*
X121191889Y-87616955D01*
X121106401Y-87852914D01*
X121920000Y-88666513D01*
X122733599Y-87852914D01*
X122648111Y-87616955D01*
X122289428Y-87498163D01*
X122543998Y-87392717D01*
X123527100Y-87392717D01*
X123527100Y-87867283D01*
X123708708Y-88305723D01*
X124044277Y-88641292D01*
X124482717Y-88822900D01*
X124957283Y-88822900D01*
X125395723Y-88641292D01*
X125731292Y-88305723D01*
X125912900Y-87867283D01*
X125912900Y-87392717D01*
X125731292Y-86954277D01*
X125395723Y-86618708D01*
X124957283Y-86437100D01*
X124482717Y-86437100D01*
X124044277Y-86618708D01*
X123708708Y-86954277D01*
X123527100Y-87392717D01*
X122543998Y-87392717D01*
X122595723Y-87371292D01*
X122931292Y-87035723D01*
X123112900Y-86597283D01*
X123112900Y-86122717D01*
X122931292Y-85684277D01*
X122595723Y-85348708D01*
X122157283Y-85167100D01*
X121682717Y-85167100D01*
X121244277Y-85348708D01*
X120908708Y-85684277D01*
X120727100Y-86122717D01*
X119849900Y-86122717D01*
X119849900Y-83582717D01*
X120727100Y-83582717D01*
X120727100Y-84057283D01*
X120908708Y-84495723D01*
X121244277Y-84831292D01*
X121682717Y-85012900D01*
X122157283Y-85012900D01*
X122543998Y-84852717D01*
X123527100Y-84852717D01*
X123527100Y-85327283D01*
X123708708Y-85765723D01*
X124044277Y-86101292D01*
X124482717Y-86282900D01*
X124957283Y-86282900D01*
X125395723Y-86101292D01*
X125731292Y-85765723D01*
X125912900Y-85327283D01*
X125912900Y-84852717D01*
X125731292Y-84414277D01*
X125395723Y-84078708D01*
X124957283Y-83897100D01*
X124482717Y-83897100D01*
X124044277Y-84078708D01*
X123708708Y-84414277D01*
X123527100Y-84852717D01*
X122543998Y-84852717D01*
X122595723Y-84831292D01*
X122931292Y-84495723D01*
X123112900Y-84057283D01*
X123112900Y-83582717D01*
X122931292Y-83144277D01*
X122595723Y-82808708D01*
X122157283Y-82627100D01*
X121682717Y-82627100D01*
X121244277Y-82808708D01*
X120908708Y-83144277D01*
X120727100Y-83582717D01*
X119849900Y-83582717D01*
X119849900Y-81042717D01*
X120727100Y-81042717D01*
X120727100Y-81517283D01*
X120908708Y-81955723D01*
X121244277Y-82291292D01*
X121682717Y-82472900D01*
X122157283Y-82472900D01*
X122543998Y-82312717D01*
X123527100Y-82312717D01*
X123527100Y-82787283D01*
X123708708Y-83225723D01*
X124044277Y-83561292D01*
X124482717Y-83742900D01*
X124957283Y-83742900D01*
X125395723Y-83561292D01*
X125731292Y-83225723D01*
X125912900Y-82787283D01*
X125912900Y-82312717D01*
X125731292Y-81874277D01*
X125395723Y-81538708D01*
X124957283Y-81357100D01*
X124482717Y-81357100D01*
X124044277Y-81538708D01*
X123708708Y-81874277D01*
X123527100Y-82312717D01*
X122543998Y-82312717D01*
X122595723Y-82291292D01*
X122931292Y-81955723D01*
X123112900Y-81517283D01*
X123112900Y-81042717D01*
X122931292Y-80604277D01*
X122595723Y-80268708D01*
X122157283Y-80087100D01*
X121682717Y-80087100D01*
X121244277Y-80268708D01*
X120908708Y-80604277D01*
X120727100Y-81042717D01*
X119849900Y-81042717D01*
X119849900Y-78502717D01*
X120727100Y-78502717D01*
X120727100Y-78977283D01*
X120908708Y-79415723D01*
X121244277Y-79751292D01*
X121682717Y-79932900D01*
X122157283Y-79932900D01*
X122543998Y-79772717D01*
X123527100Y-79772717D01*
X123527100Y-80247283D01*
X123708708Y-80685723D01*
X124044277Y-81021292D01*
X124482717Y-81202900D01*
X124957283Y-81202900D01*
X125395723Y-81021292D01*
X125731292Y-80685723D01*
X125912900Y-80247283D01*
X125912900Y-79772717D01*
X125731292Y-79334277D01*
X125395723Y-78998708D01*
X124957283Y-78817100D01*
X124482717Y-78817100D01*
X124044277Y-78998708D01*
X123708708Y-79334277D01*
X123527100Y-79772717D01*
X122543998Y-79772717D01*
X122595723Y-79751292D01*
X122931292Y-79415723D01*
X123112900Y-78977283D01*
X123112900Y-78502717D01*
X122931292Y-78064277D01*
X122595723Y-77728708D01*
X122157283Y-77547100D01*
X121682717Y-77547100D01*
X121244277Y-77728708D01*
X120908708Y-78064277D01*
X120727100Y-78502717D01*
X119849900Y-78502717D01*
X119849900Y-75962717D01*
X120727100Y-75962717D01*
X120727100Y-76437283D01*
X120908708Y-76875723D01*
X121244277Y-77211292D01*
X121682717Y-77392900D01*
X122157283Y-77392900D01*
X122543998Y-77232717D01*
X123527100Y-77232717D01*
X123527100Y-77707283D01*
X123708708Y-78145723D01*
X124044277Y-78481292D01*
X124482717Y-78662900D01*
X124957283Y-78662900D01*
X125343998Y-78502717D01*
X155141100Y-78502717D01*
X155141100Y-78977283D01*
X155322708Y-79415723D01*
X155658277Y-79751292D01*
X156096717Y-79932900D01*
X156571283Y-79932900D01*
X156957998Y-79772717D01*
X157941100Y-79772717D01*
X157941100Y-80247283D01*
X158122708Y-80685723D01*
X158458277Y-81021292D01*
X158896717Y-81202900D01*
X159371283Y-81202900D01*
X159809723Y-81021292D01*
X160145292Y-80685723D01*
X160326900Y-80247283D01*
X160326900Y-79772717D01*
X160145292Y-79334277D01*
X159809723Y-78998708D01*
X159371283Y-78817100D01*
X158896717Y-78817100D01*
X158458277Y-78998708D01*
X158122708Y-79334277D01*
X157941100Y-79772717D01*
X156957998Y-79772717D01*
X157009723Y-79751292D01*
X157345292Y-79415723D01*
X157526900Y-78977283D01*
X157526900Y-78502717D01*
X157345292Y-78064277D01*
X157009723Y-77728708D01*
X156571283Y-77547100D01*
X156096717Y-77547100D01*
X155658277Y-77728708D01*
X155322708Y-78064277D01*
X155141100Y-78502717D01*
X125343998Y-78502717D01*
X125395723Y-78481292D01*
X125731292Y-78145723D01*
X125912900Y-77707283D01*
X125912900Y-77232717D01*
X125731292Y-76794277D01*
X125395723Y-76458708D01*
X124957283Y-76277100D01*
X124482717Y-76277100D01*
X124044277Y-76458708D01*
X123708708Y-76794277D01*
X123527100Y-77232717D01*
X122543998Y-77232717D01*
X122595723Y-77211292D01*
X122931292Y-76875723D01*
X123112900Y-76437283D01*
X123112900Y-75962717D01*
X155141100Y-75962717D01*
X155141100Y-76437283D01*
X155322708Y-76875723D01*
X155658277Y-77211292D01*
X156096717Y-77392900D01*
X156571283Y-77392900D01*
X156957998Y-77232717D01*
X157941100Y-77232717D01*
X157941100Y-77707283D01*
X158122708Y-78145723D01*
X158458277Y-78481292D01*
X158896717Y-78662900D01*
X159371283Y-78662900D01*
X159809723Y-78481292D01*
X160145292Y-78145723D01*
X160326900Y-77707283D01*
X160326900Y-77232717D01*
X160145292Y-76794277D01*
X159809723Y-76458708D01*
X159371283Y-76277100D01*
X158896717Y-76277100D01*
X158458277Y-76458708D01*
X158122708Y-76794277D01*
X157941100Y-77232717D01*
X156957998Y-77232717D01*
X157009723Y-77211292D01*
X157345292Y-76875723D01*
X157526900Y-76437283D01*
X157526900Y-75962717D01*
X157345292Y-75524277D01*
X157009723Y-75188708D01*
X156571283Y-75007100D01*
X156096717Y-75007100D01*
X155658277Y-75188708D01*
X155322708Y-75524277D01*
X155141100Y-75962717D01*
X123112900Y-75962717D01*
X122931292Y-75524277D01*
X122595723Y-75188708D01*
X122157283Y-75007100D01*
X121682717Y-75007100D01*
X121244277Y-75188708D01*
X120908708Y-75524277D01*
X120727100Y-75962717D01*
X119849900Y-75962717D01*
X119849900Y-74320400D01*
X161327676Y-74320400D01*
X161138018Y-114148471D01*
G36*
X154406600Y-114617333D02*
X154413303Y-114651366D01*
X154432520Y-114680244D01*
X154461325Y-114699569D01*
X154495500Y-114706400D01*
X155211151Y-114706400D01*
X155322708Y-114975723D01*
X155658277Y-115311292D01*
X156096717Y-115492900D01*
X156571283Y-115492900D01*
X157009723Y-115311292D01*
X157345292Y-114975723D01*
X157456849Y-114706400D01*
X158310585Y-114706400D01*
X158122708Y-114894277D01*
X157941100Y-115332717D01*
X157941100Y-115807283D01*
X158122708Y-116245723D01*
X158458277Y-116581292D01*
X158896717Y-116762900D01*
X159371283Y-116762900D01*
X159809723Y-116581292D01*
X160145292Y-116245723D01*
X160326900Y-115807283D01*
X160326900Y-115332717D01*
X160145292Y-114894277D01*
X159957415Y-114706400D01*
X161201100Y-114706400D01*
X161201100Y-127101600D01*
X119797900Y-127101600D01*
X119797900Y-124222717D01*
X120727100Y-124222717D01*
X120727100Y-124697283D01*
X120908708Y-125135723D01*
X121244277Y-125471292D01*
X121682717Y-125652900D01*
X122157283Y-125652900D01*
X122543998Y-125492717D01*
X123527100Y-125492717D01*
X123527100Y-125967283D01*
X123708708Y-126405723D01*
X124044277Y-126741292D01*
X124482717Y-126922900D01*
X124957283Y-126922900D01*
X125395723Y-126741292D01*
X125731292Y-126405723D01*
X125912900Y-125967283D01*
X125912900Y-125492717D01*
X125731292Y-125054277D01*
X125395723Y-124718708D01*
X124957283Y-124537100D01*
X124482717Y-124537100D01*
X124044277Y-124718708D01*
X123708708Y-125054277D01*
X123527100Y-125492717D01*
X122543998Y-125492717D01*
X122595723Y-125471292D01*
X122931292Y-125135723D01*
X123112900Y-124697283D01*
X123112900Y-124222717D01*
X122931292Y-123784277D01*
X122595723Y-123448708D01*
X122157283Y-123267100D01*
X121682717Y-123267100D01*
X121244277Y-123448708D01*
X120908708Y-123784277D01*
X120727100Y-124222717D01*
X119797900Y-124222717D01*
X119797900Y-121682717D01*
X120727100Y-121682717D01*
X120727100Y-122157283D01*
X120908708Y-122595723D01*
X121244277Y-122931292D01*
X121682717Y-123112900D01*
X122157283Y-123112900D01*
X122543998Y-122952717D01*
X123527100Y-122952717D01*
X123527100Y-123427283D01*
X123708708Y-123865723D01*
X124044277Y-124201292D01*
X124482717Y-124382900D01*
X124957283Y-124382900D01*
X125343998Y-124222717D01*
X155141100Y-124222717D01*
X155141100Y-124697283D01*
X155322708Y-125135723D01*
X155658277Y-125471292D01*
X156096717Y-125652900D01*
X156571283Y-125652900D01*
X156957998Y-125492717D01*
X157941100Y-125492717D01*
X157941100Y-125967283D01*
X158122708Y-126405723D01*
X158458277Y-126741292D01*
X158896717Y-126922900D01*
X159371283Y-126922900D01*
X159809723Y-126741292D01*
X160145292Y-126405723D01*
X160326900Y-125967283D01*
X160326900Y-125492717D01*
X160145292Y-125054277D01*
X159809723Y-124718708D01*
X159371283Y-124537100D01*
X158896717Y-124537100D01*
X158458277Y-124718708D01*
X158122708Y-125054277D01*
X157941100Y-125492717D01*
X156957998Y-125492717D01*
X157009723Y-125471292D01*
X157345292Y-125135723D01*
X157526900Y-124697283D01*
X157526900Y-124222717D01*
X157345292Y-123784277D01*
X157009723Y-123448708D01*
X156571283Y-123267100D01*
X156096717Y-123267100D01*
X155658277Y-123448708D01*
X155322708Y-123784277D01*
X155141100Y-124222717D01*
X125343998Y-124222717D01*
X125395723Y-124201292D01*
X125731292Y-123865723D01*
X125912900Y-123427283D01*
X125912900Y-122952717D01*
X125731292Y-122514277D01*
X125395723Y-122178708D01*
X124957283Y-121997100D01*
X124482717Y-121997100D01*
X124044277Y-122178708D01*
X123708708Y-122514277D01*
X123527100Y-122952717D01*
X122543998Y-122952717D01*
X122595723Y-122931292D01*
X122931292Y-122595723D01*
X123112900Y-122157283D01*
X123112900Y-121682717D01*
X122931292Y-121244277D01*
X122595723Y-120908708D01*
X122157283Y-120727100D01*
X121682717Y-120727100D01*
X121244277Y-120908708D01*
X120908708Y-121244277D01*
X120727100Y-121682717D01*
X119797900Y-121682717D01*
X119797900Y-119142717D01*
X120727100Y-119142717D01*
X120727100Y-119617283D01*
X120908708Y-120055723D01*
X121244277Y-120391292D01*
X121682717Y-120572900D01*
X122157283Y-120572900D01*
X122543998Y-120412717D01*
X123527100Y-120412717D01*
X123527100Y-120887283D01*
X123708708Y-121325723D01*
X124044277Y-121661292D01*
X124482717Y-121842900D01*
X124957283Y-121842900D01*
X125395723Y-121661292D01*
X125401841Y-121655174D01*
X131895100Y-121655174D01*
X131895100Y-121930826D01*
X132000588Y-122185496D01*
X132195504Y-122380412D01*
X132450174Y-122485900D01*
X132725826Y-122485900D01*
X132980496Y-122380412D01*
X133175412Y-122185496D01*
X133280900Y-121930826D01*
X133280900Y-121682717D01*
X155141100Y-121682717D01*
X155141100Y-122157283D01*
X155322708Y-122595723D01*
X155658277Y-122931292D01*
X156096717Y-123112900D01*
X156571283Y-123112900D01*
X156957998Y-122952717D01*
X157941100Y-122952717D01*
X157941100Y-123427283D01*
X158122708Y-123865723D01*
X158458277Y-124201292D01*
X158896717Y-124382900D01*
X159371283Y-124382900D01*
X159809723Y-124201292D01*
X160145292Y-123865723D01*
X160326900Y-123427283D01*
X160326900Y-122952717D01*
X160145292Y-122514277D01*
X159809723Y-122178708D01*
X159371283Y-121997100D01*
X158896717Y-121997100D01*
X158458277Y-122178708D01*
X158122708Y-122514277D01*
X157941100Y-122952717D01*
X156957998Y-122952717D01*
X157009723Y-122931292D01*
X157345292Y-122595723D01*
X157526900Y-122157283D01*
X157526900Y-121682717D01*
X157345292Y-121244277D01*
X157009723Y-120908708D01*
X156571283Y-120727100D01*
X156096717Y-120727100D01*
X155658277Y-120908708D01*
X155322708Y-121244277D01*
X155141100Y-121682717D01*
X133280900Y-121682717D01*
X133280900Y-121655174D01*
X133175412Y-121400504D01*
X132980496Y-121205588D01*
X132725826Y-121100100D01*
X132450174Y-121100100D01*
X132195504Y-121205588D01*
X132000588Y-121400504D01*
X131895100Y-121655174D01*
X125401841Y-121655174D01*
X125731292Y-121325723D01*
X125912900Y-120887283D01*
X125912900Y-120412717D01*
X125731292Y-119974277D01*
X125395723Y-119638708D01*
X124957283Y-119457100D01*
X124482717Y-119457100D01*
X124044277Y-119638708D01*
X123708708Y-119974277D01*
X123527100Y-120412717D01*
X122543998Y-120412717D01*
X122595723Y-120391292D01*
X122931292Y-120055723D01*
X123112900Y-119617283D01*
X123112900Y-119142717D01*
X122931292Y-118704277D01*
X122595723Y-118368708D01*
X122157283Y-118187100D01*
X121682717Y-118187100D01*
X121244277Y-118368708D01*
X120908708Y-118704277D01*
X120727100Y-119142717D01*
X119797900Y-119142717D01*
X119797900Y-116602717D01*
X120727100Y-116602717D01*
X120727100Y-117077283D01*
X120908708Y-117515723D01*
X121244277Y-117851292D01*
X121682717Y-118032900D01*
X122157283Y-118032900D01*
X122543998Y-117872717D01*
X123527100Y-117872717D01*
X123527100Y-118347283D01*
X123708708Y-118785723D01*
X124044277Y-119121292D01*
X124482717Y-119302900D01*
X124957283Y-119302900D01*
X125343998Y-119142717D01*
X155141100Y-119142717D01*
X155141100Y-119617283D01*
X155322708Y-120055723D01*
X155658277Y-120391292D01*
X156096717Y-120572900D01*
X156571283Y-120572900D01*
X156957998Y-120412717D01*
X157941100Y-120412717D01*
X157941100Y-120887283D01*
X158122708Y-121325723D01*
X158458277Y-121661292D01*
X158896717Y-121842900D01*
X159371283Y-121842900D01*
X159809723Y-121661292D01*
X160145292Y-121325723D01*
X160326900Y-120887283D01*
X160326900Y-120412717D01*
X160145292Y-119974277D01*
X159809723Y-119638708D01*
X159371283Y-119457100D01*
X158896717Y-119457100D01*
X158458277Y-119638708D01*
X158122708Y-119974277D01*
X157941100Y-120412717D01*
X156957998Y-120412717D01*
X157009723Y-120391292D01*
X157345292Y-120055723D01*
X157526900Y-119617283D01*
X157526900Y-119142717D01*
X157345292Y-118704277D01*
X157009723Y-118368708D01*
X156571283Y-118187100D01*
X156096717Y-118187100D01*
X155658277Y-118368708D01*
X155322708Y-118704277D01*
X155141100Y-119142717D01*
X125343998Y-119142717D01*
X125395723Y-119121292D01*
X125731292Y-118785723D01*
X125912900Y-118347283D01*
X125912900Y-117872717D01*
X125731292Y-117434277D01*
X125697689Y-117400674D01*
X144404600Y-117400674D01*
X144404600Y-117676326D01*
X144510088Y-117930996D01*
X144705004Y-118125912D01*
X144959674Y-118231400D01*
X145235326Y-118231400D01*
X145489996Y-118125912D01*
X145684912Y-117930996D01*
X145790400Y-117676326D01*
X145790400Y-117400674D01*
X145684912Y-117146004D01*
X145489996Y-116951088D01*
X145235326Y-116845600D01*
X144959674Y-116845600D01*
X144705004Y-116951088D01*
X144510088Y-117146004D01*
X144404600Y-117400674D01*
X125697689Y-117400674D01*
X125395723Y-117098708D01*
X124957283Y-116917100D01*
X124482717Y-116917100D01*
X124044277Y-117098708D01*
X123708708Y-117434277D01*
X123527100Y-117872717D01*
X122543998Y-117872717D01*
X122595723Y-117851292D01*
X122931292Y-117515723D01*
X123112900Y-117077283D01*
X123112900Y-116602717D01*
X122931292Y-116164277D01*
X122595723Y-115828708D01*
X122157283Y-115647100D01*
X121682717Y-115647100D01*
X121244277Y-115828708D01*
X120908708Y-116164277D01*
X120727100Y-116602717D01*
X119797900Y-116602717D01*
X119797900Y-114834907D01*
X120854395Y-114844600D01*
X120908708Y-114975723D01*
X121244277Y-115311292D01*
X121682717Y-115492900D01*
X122157283Y-115492900D01*
X122595723Y-115311292D01*
X122931292Y-114975723D01*
X122977537Y-114864078D01*
X123731985Y-114871000D01*
X123708708Y-114894277D01*
X123527100Y-115332717D01*
X123527100Y-115807283D01*
X123708708Y-116245723D01*
X124044277Y-116581292D01*
X124482717Y-116762900D01*
X124957283Y-116762900D01*
X125395723Y-116581292D01*
X125731292Y-116245723D01*
X125831552Y-116003674D01*
X130879100Y-116003674D01*
X130879100Y-116279326D01*
X130984588Y-116533996D01*
X131179504Y-116728912D01*
X131434174Y-116834400D01*
X131709826Y-116834400D01*
X131964496Y-116728912D01*
X132090691Y-116602717D01*
X155141100Y-116602717D01*
X155141100Y-117077283D01*
X155322708Y-117515723D01*
X155658277Y-117851292D01*
X156096717Y-118032900D01*
X156571283Y-118032900D01*
X156957998Y-117872717D01*
X157941100Y-117872717D01*
X157941100Y-118347283D01*
X158122708Y-118785723D01*
X158458277Y-119121292D01*
X158896717Y-119302900D01*
X159371283Y-119302900D01*
X159809723Y-119121292D01*
X160145292Y-118785723D01*
X160326900Y-118347283D01*
X160326900Y-117872717D01*
X160145292Y-117434277D01*
X159809723Y-117098708D01*
X159371283Y-116917100D01*
X158896717Y-116917100D01*
X158458277Y-117098708D01*
X158122708Y-117434277D01*
X157941100Y-117872717D01*
X156957998Y-117872717D01*
X157009723Y-117851292D01*
X157345292Y-117515723D01*
X157526900Y-117077283D01*
X157526900Y-116602717D01*
X157345292Y-116164277D01*
X157009723Y-115828708D01*
X156571283Y-115647100D01*
X156096717Y-115647100D01*
X155658277Y-115828708D01*
X155322708Y-116164277D01*
X155141100Y-116602717D01*
X132090691Y-116602717D01*
X132159412Y-116533996D01*
X132264900Y-116279326D01*
X132264900Y-116003674D01*
X132159412Y-115749004D01*
X131964496Y-115554088D01*
X131709826Y-115448600D01*
X131434174Y-115448600D01*
X131179504Y-115554088D01*
X130984588Y-115749004D01*
X130879100Y-116003674D01*
X125831552Y-116003674D01*
X125912900Y-115807283D01*
X125912900Y-115332717D01*
X125796281Y-115051174D01*
X137737100Y-115051174D01*
X137737100Y-115326826D01*
X137842588Y-115581496D01*
X138037504Y-115776412D01*
X138292174Y-115881900D01*
X138567826Y-115881900D01*
X138822496Y-115776412D01*
X139017412Y-115581496D01*
X139122900Y-115326826D01*
X139122900Y-115051174D01*
X139017412Y-114796504D01*
X138822496Y-114601588D01*
X138567826Y-114496100D01*
X138292174Y-114496100D01*
X138037504Y-114601588D01*
X137842588Y-114796504D01*
X137737100Y-115051174D01*
X125796281Y-115051174D01*
X125731292Y-114894277D01*
X125726311Y-114889296D01*
X126554684Y-114896896D01*
X126588766Y-114890442D01*
X126617782Y-114871436D01*
X126637317Y-114842773D01*
X126644400Y-114808000D01*
X126644400Y-114162174D01*
X150246600Y-114162174D01*
X150246600Y-114437826D01*
X150352088Y-114692496D01*
X150547004Y-114887412D01*
X150801674Y-114992900D01*
X151077326Y-114992900D01*
X151331996Y-114887412D01*
X151526912Y-114692496D01*
X151632400Y-114437826D01*
X151632400Y-114162174D01*
X151526912Y-113907504D01*
X151331996Y-113712588D01*
X151077326Y-113607100D01*
X150801674Y-113607100D01*
X150547004Y-113712588D01*
X150352088Y-113907504D01*
X150246600Y-114162174D01*
X126644400Y-114162174D01*
X126644400Y-112892174D01*
X149167100Y-112892174D01*
X149167100Y-113167826D01*
X149272588Y-113422496D01*
X149467504Y-113617412D01*
X149722174Y-113722900D01*
X149997826Y-113722900D01*
X150252496Y-113617412D01*
X150447412Y-113422496D01*
X150552900Y-113167826D01*
X150552900Y-112892174D01*
X150447412Y-112637504D01*
X150252496Y-112442588D01*
X149997826Y-112337100D01*
X149722174Y-112337100D01*
X149467504Y-112442588D01*
X149272588Y-112637504D01*
X149167100Y-112892174D01*
X126644400Y-112892174D01*
X126644400Y-111622174D01*
X148151100Y-111622174D01*
X148151100Y-111897826D01*
X148256588Y-112152496D01*
X148451504Y-112347412D01*
X148706174Y-112452900D01*
X148981826Y-112452900D01*
X149236496Y-112347412D01*
X149431412Y-112152496D01*
X149536900Y-111897826D01*
X149536900Y-111622174D01*
X149431412Y-111367504D01*
X149236496Y-111172588D01*
X148981826Y-111067100D01*
X148706174Y-111067100D01*
X148451504Y-111172588D01*
X148256588Y-111367504D01*
X148151100Y-111622174D01*
X126644400Y-111622174D01*
X126644400Y-110352174D01*
X147262100Y-110352174D01*
X147262100Y-110627826D01*
X147367588Y-110882496D01*
X147562504Y-111077412D01*
X147817174Y-111182900D01*
X148092826Y-111182900D01*
X148347496Y-111077412D01*
X148542412Y-110882496D01*
X148647900Y-110627826D01*
X148647900Y-110352174D01*
X148542412Y-110097504D01*
X148347496Y-109902588D01*
X148092826Y-109797100D01*
X147817174Y-109797100D01*
X147562504Y-109902588D01*
X147367588Y-110097504D01*
X147262100Y-110352174D01*
X126644400Y-110352174D01*
X126644400Y-109082174D01*
X146500100Y-109082174D01*
X146500100Y-109357826D01*
X146605588Y-109612496D01*
X146800504Y-109807412D01*
X147055174Y-109912900D01*
X147330826Y-109912900D01*
X147585496Y-109807412D01*
X147780412Y-109612496D01*
X147885900Y-109357826D01*
X147885900Y-109082174D01*
X147780412Y-108827504D01*
X147585496Y-108632588D01*
X147330826Y-108527100D01*
X147055174Y-108527100D01*
X146800504Y-108632588D01*
X146605588Y-108827504D01*
X146500100Y-109082174D01*
X126644400Y-109082174D01*
X126644400Y-107812174D01*
X145738100Y-107812174D01*
X145738100Y-108087826D01*
X145843588Y-108342496D01*
X146038504Y-108537412D01*
X146293174Y-108642900D01*
X146568826Y-108642900D01*
X146823496Y-108537412D01*
X147018412Y-108342496D01*
X147123900Y-108087826D01*
X147123900Y-107812174D01*
X147018412Y-107557504D01*
X146823496Y-107362588D01*
X146568826Y-107257100D01*
X146293174Y-107257100D01*
X146038504Y-107362588D01*
X145843588Y-107557504D01*
X145738100Y-107812174D01*
X126644400Y-107812174D01*
X126644400Y-106542174D01*
X135324100Y-106542174D01*
X135324100Y-106817826D01*
X135429588Y-107072496D01*
X135624504Y-107267412D01*
X135879174Y-107372900D01*
X136154826Y-107372900D01*
X136409496Y-107267412D01*
X136604412Y-107072496D01*
X136709900Y-106817826D01*
X136709900Y-106542174D01*
X136604412Y-106287504D01*
X136409496Y-106092588D01*
X136154826Y-105987100D01*
X135879174Y-105987100D01*
X135624504Y-106092588D01*
X135429588Y-106287504D01*
X135324100Y-106542174D01*
X126644400Y-106542174D01*
X126644400Y-105399174D01*
X133927100Y-105399174D01*
X133927100Y-105674826D01*
X134032588Y-105929496D01*
X134227504Y-106124412D01*
X134482174Y-106229900D01*
X134757826Y-106229900D01*
X135012496Y-106124412D01*
X135207412Y-105929496D01*
X135312900Y-105674826D01*
X135312900Y-105399174D01*
X145103100Y-105399174D01*
X145103100Y-105674826D01*
X145208588Y-105929496D01*
X145403504Y-106124412D01*
X145658174Y-106229900D01*
X145933826Y-106229900D01*
X146188496Y-106124412D01*
X146383412Y-105929496D01*
X146488900Y-105674826D01*
X146488900Y-105399174D01*
X146383412Y-105144504D01*
X146188496Y-104949588D01*
X145933826Y-104844100D01*
X145658174Y-104844100D01*
X145403504Y-104949588D01*
X145208588Y-105144504D01*
X145103100Y-105399174D01*
X135312900Y-105399174D01*
X135207412Y-105144504D01*
X135012496Y-104949588D01*
X134757826Y-104844100D01*
X134482174Y-104844100D01*
X134227504Y-104949588D01*
X134032588Y-105144504D01*
X133927100Y-105399174D01*
X126644400Y-105399174D01*
X126644400Y-104129174D01*
X130244100Y-104129174D01*
X130244100Y-104404826D01*
X130349588Y-104659496D01*
X130544504Y-104854412D01*
X130799174Y-104959900D01*
X131074826Y-104959900D01*
X131329496Y-104854412D01*
X131524412Y-104659496D01*
X131629900Y-104404826D01*
X131629900Y-104129174D01*
X131524412Y-103874504D01*
X131329496Y-103679588D01*
X131074826Y-103574100D01*
X130799174Y-103574100D01*
X130544504Y-103679588D01*
X130349588Y-103874504D01*
X130244100Y-104129174D01*
X126644400Y-104129174D01*
X126644400Y-102732174D01*
X131514100Y-102732174D01*
X131514100Y-103007826D01*
X131619588Y-103262496D01*
X131814504Y-103457412D01*
X132069174Y-103562900D01*
X132344826Y-103562900D01*
X132599496Y-103457412D01*
X132794412Y-103262496D01*
X132899900Y-103007826D01*
X132899900Y-102732174D01*
X132794412Y-102477504D01*
X132599496Y-102282588D01*
X132344826Y-102177100D01*
X132069174Y-102177100D01*
X131814504Y-102282588D01*
X131619588Y-102477504D01*
X131514100Y-102732174D01*
X126644400Y-102732174D01*
X126644400Y-102097174D01*
X134054100Y-102097174D01*
X134054100Y-102372826D01*
X134159588Y-102627496D01*
X134354504Y-102822412D01*
X134609174Y-102927900D01*
X134884826Y-102927900D01*
X135139496Y-102822412D01*
X135334412Y-102627496D01*
X135439900Y-102372826D01*
X135439900Y-102097174D01*
X135334412Y-101842504D01*
X135139496Y-101647588D01*
X134884826Y-101542100D01*
X134609174Y-101542100D01*
X134354504Y-101647588D01*
X134159588Y-101842504D01*
X134054100Y-102097174D01*
X126644400Y-102097174D01*
X126644400Y-99112674D01*
X129482100Y-99112674D01*
X129482100Y-99388326D01*
X129587588Y-99642996D01*
X129782504Y-99837912D01*
X130037174Y-99943400D01*
X130312826Y-99943400D01*
X130567496Y-99837912D01*
X130762412Y-99642996D01*
X130867900Y-99388326D01*
X130867900Y-99112674D01*
X140277100Y-99112674D01*
X140277100Y-99388326D01*
X140382588Y-99642996D01*
X140577504Y-99837912D01*
X140832174Y-99943400D01*
X141107826Y-99943400D01*
X141362496Y-99837912D01*
X141557412Y-99642996D01*
X141662900Y-99388326D01*
X141662900Y-99112674D01*
X141557412Y-98858004D01*
X141362496Y-98663088D01*
X141107826Y-98557600D01*
X140832174Y-98557600D01*
X140577504Y-98663088D01*
X140382588Y-98858004D01*
X140277100Y-99112674D01*
X130867900Y-99112674D01*
X130762412Y-98858004D01*
X130567496Y-98663088D01*
X130312826Y-98557600D01*
X130037174Y-98557600D01*
X129782504Y-98663088D01*
X129587588Y-98858004D01*
X129482100Y-99112674D01*
X126644400Y-99112674D01*
X126644400Y-95112174D01*
X135705100Y-95112174D01*
X135705100Y-95387826D01*
X135810588Y-95642496D01*
X136005504Y-95837412D01*
X136260174Y-95942900D01*
X136535826Y-95942900D01*
X136790496Y-95837412D01*
X136985412Y-95642496D01*
X137090900Y-95387826D01*
X137090900Y-95112174D01*
X150373600Y-95112174D01*
X150373600Y-95387826D01*
X150479088Y-95642496D01*
X150674004Y-95837412D01*
X150928674Y-95942900D01*
X151204326Y-95942900D01*
X151458996Y-95837412D01*
X151653912Y-95642496D01*
X151759400Y-95387826D01*
X151759400Y-95112174D01*
X151653912Y-94857504D01*
X151458996Y-94662588D01*
X151204326Y-94557100D01*
X150928674Y-94557100D01*
X150674004Y-94662588D01*
X150479088Y-94857504D01*
X150373600Y-95112174D01*
X137090900Y-95112174D01*
X136985412Y-94857504D01*
X136790496Y-94662588D01*
X136535826Y-94557100D01*
X136260174Y-94557100D01*
X136005504Y-94662588D01*
X135810588Y-94857504D01*
X135705100Y-95112174D01*
X126644400Y-95112174D01*
X126644400Y-92699174D01*
X129609100Y-92699174D01*
X129609100Y-92974826D01*
X129714588Y-93229496D01*
X129909504Y-93424412D01*
X130164174Y-93529900D01*
X130439826Y-93529900D01*
X130694496Y-93424412D01*
X130889412Y-93229496D01*
X130994900Y-92974826D01*
X130994900Y-92699174D01*
X130889412Y-92444504D01*
X130694496Y-92249588D01*
X130439826Y-92144100D01*
X130164174Y-92144100D01*
X129909504Y-92249588D01*
X129714588Y-92444504D01*
X129609100Y-92699174D01*
X126644400Y-92699174D01*
X126644400Y-88762174D01*
X139515100Y-88762174D01*
X139515100Y-89037826D01*
X139620588Y-89292496D01*
X139815504Y-89487412D01*
X140070174Y-89592900D01*
X140345826Y-89592900D01*
X140600496Y-89487412D01*
X140795412Y-89292496D01*
X140900900Y-89037826D01*
X140900900Y-88762174D01*
X140795412Y-88507504D01*
X140600496Y-88312588D01*
X140345826Y-88207100D01*
X140070174Y-88207100D01*
X139815504Y-88312588D01*
X139620588Y-88507504D01*
X139515100Y-88762174D01*
X126644400Y-88762174D01*
X126644400Y-87809674D01*
X152342100Y-87809674D01*
X152342100Y-88085326D01*
X152447588Y-88339996D01*
X152642504Y-88534912D01*
X152897174Y-88640400D01*
X153172826Y-88640400D01*
X153427496Y-88534912D01*
X153622412Y-88339996D01*
X153727900Y-88085326D01*
X153727900Y-87809674D01*
X153622412Y-87555004D01*
X153427496Y-87360088D01*
X153172826Y-87254600D01*
X152897174Y-87254600D01*
X152642504Y-87360088D01*
X152447588Y-87555004D01*
X152342100Y-87809674D01*
X126644400Y-87809674D01*
X126644400Y-86222174D01*
X137927600Y-86222174D01*
X137927600Y-86497826D01*
X138033088Y-86752496D01*
X138228004Y-86947412D01*
X138482674Y-87052900D01*
X138758326Y-87052900D01*
X139012996Y-86947412D01*
X139207912Y-86752496D01*
X139313400Y-86497826D01*
X139313400Y-86222174D01*
X139207912Y-85967504D01*
X139012996Y-85772588D01*
X138758326Y-85667100D01*
X138482674Y-85667100D01*
X138228004Y-85772588D01*
X138033088Y-85967504D01*
X137927600Y-86222174D01*
X126644400Y-86222174D01*
X126644400Y-82412174D01*
X135514600Y-82412174D01*
X135514600Y-82687826D01*
X135620088Y-82942496D01*
X135815004Y-83137412D01*
X136069674Y-83242900D01*
X136345326Y-83242900D01*
X136599996Y-83137412D01*
X136794912Y-82942496D01*
X136900400Y-82687826D01*
X136900400Y-82412174D01*
X136794912Y-82157504D01*
X136599996Y-81962588D01*
X136345326Y-81857100D01*
X136069674Y-81857100D01*
X135815004Y-81962588D01*
X135620088Y-82157504D01*
X135514600Y-82412174D01*
X126644400Y-82412174D01*
X126644400Y-80924199D01*
X154469933Y-80861102D01*
X154406600Y-114617333D01*
X154406600Y-114617333D01*
G37*
X154406600Y-114617333D02*
X154413303Y-114651366D01*
X154432520Y-114680244D01*
X154461325Y-114699569D01*
X154495500Y-114706400D01*
X155211151Y-114706400D01*
X155322708Y-114975723D01*
X155658277Y-115311292D01*
X156096717Y-115492900D01*
X156571283Y-115492900D01*
X157009723Y-115311292D01*
X157345292Y-114975723D01*
X157456849Y-114706400D01*
X158310585Y-114706400D01*
X158122708Y-114894277D01*
X157941100Y-115332717D01*
X157941100Y-115807283D01*
X158122708Y-116245723D01*
X158458277Y-116581292D01*
X158896717Y-116762900D01*
X159371283Y-116762900D01*
X159809723Y-116581292D01*
X160145292Y-116245723D01*
X160326900Y-115807283D01*
X160326900Y-115332717D01*
X160145292Y-114894277D01*
X159957415Y-114706400D01*
X161201100Y-114706400D01*
X161201100Y-127101600D01*
X119797900Y-127101600D01*
X119797900Y-124222717D01*
X120727100Y-124222717D01*
X120727100Y-124697283D01*
X120908708Y-125135723D01*
X121244277Y-125471292D01*
X121682717Y-125652900D01*
X122157283Y-125652900D01*
X122543998Y-125492717D01*
X123527100Y-125492717D01*
X123527100Y-125967283D01*
X123708708Y-126405723D01*
X124044277Y-126741292D01*
X124482717Y-126922900D01*
X124957283Y-126922900D01*
X125395723Y-126741292D01*
X125731292Y-126405723D01*
X125912900Y-125967283D01*
X125912900Y-125492717D01*
X125731292Y-125054277D01*
X125395723Y-124718708D01*
X124957283Y-124537100D01*
X124482717Y-124537100D01*
X124044277Y-124718708D01*
X123708708Y-125054277D01*
X123527100Y-125492717D01*
X122543998Y-125492717D01*
X122595723Y-125471292D01*
X122931292Y-125135723D01*
X123112900Y-124697283D01*
X123112900Y-124222717D01*
X122931292Y-123784277D01*
X122595723Y-123448708D01*
X122157283Y-123267100D01*
X121682717Y-123267100D01*
X121244277Y-123448708D01*
X120908708Y-123784277D01*
X120727100Y-124222717D01*
X119797900Y-124222717D01*
X119797900Y-121682717D01*
X120727100Y-121682717D01*
X120727100Y-122157283D01*
X120908708Y-122595723D01*
X121244277Y-122931292D01*
X121682717Y-123112900D01*
X122157283Y-123112900D01*
X122543998Y-122952717D01*
X123527100Y-122952717D01*
X123527100Y-123427283D01*
X123708708Y-123865723D01*
X124044277Y-124201292D01*
X124482717Y-124382900D01*
X124957283Y-124382900D01*
X125343998Y-124222717D01*
X155141100Y-124222717D01*
X155141100Y-124697283D01*
X155322708Y-125135723D01*
X155658277Y-125471292D01*
X156096717Y-125652900D01*
X156571283Y-125652900D01*
X156957998Y-125492717D01*
X157941100Y-125492717D01*
X157941100Y-125967283D01*
X158122708Y-126405723D01*
X158458277Y-126741292D01*
X158896717Y-126922900D01*
X159371283Y-126922900D01*
X159809723Y-126741292D01*
X160145292Y-126405723D01*
X160326900Y-125967283D01*
X160326900Y-125492717D01*
X160145292Y-125054277D01*
X159809723Y-124718708D01*
X159371283Y-124537100D01*
X158896717Y-124537100D01*
X158458277Y-124718708D01*
X158122708Y-125054277D01*
X157941100Y-125492717D01*
X156957998Y-125492717D01*
X157009723Y-125471292D01*
X157345292Y-125135723D01*
X157526900Y-124697283D01*
X157526900Y-124222717D01*
X157345292Y-123784277D01*
X157009723Y-123448708D01*
X156571283Y-123267100D01*
X156096717Y-123267100D01*
X155658277Y-123448708D01*
X155322708Y-123784277D01*
X155141100Y-124222717D01*
X125343998Y-124222717D01*
X125395723Y-124201292D01*
X125731292Y-123865723D01*
X125912900Y-123427283D01*
X125912900Y-122952717D01*
X125731292Y-122514277D01*
X125395723Y-122178708D01*
X124957283Y-121997100D01*
X124482717Y-121997100D01*
X124044277Y-122178708D01*
X123708708Y-122514277D01*
X123527100Y-122952717D01*
X122543998Y-122952717D01*
X122595723Y-122931292D01*
X122931292Y-122595723D01*
X123112900Y-122157283D01*
X123112900Y-121682717D01*
X122931292Y-121244277D01*
X122595723Y-120908708D01*
X122157283Y-120727100D01*
X121682717Y-120727100D01*
X121244277Y-120908708D01*
X120908708Y-121244277D01*
X120727100Y-121682717D01*
X119797900Y-121682717D01*
X119797900Y-119142717D01*
X120727100Y-119142717D01*
X120727100Y-119617283D01*
X120908708Y-120055723D01*
X121244277Y-120391292D01*
X121682717Y-120572900D01*
X122157283Y-120572900D01*
X122543998Y-120412717D01*
X123527100Y-120412717D01*
X123527100Y-120887283D01*
X123708708Y-121325723D01*
X124044277Y-121661292D01*
X124482717Y-121842900D01*
X124957283Y-121842900D01*
X125395723Y-121661292D01*
X125401841Y-121655174D01*
X131895100Y-121655174D01*
X131895100Y-121930826D01*
X132000588Y-122185496D01*
X132195504Y-122380412D01*
X132450174Y-122485900D01*
X132725826Y-122485900D01*
X132980496Y-122380412D01*
X133175412Y-122185496D01*
X133280900Y-121930826D01*
X133280900Y-121682717D01*
X155141100Y-121682717D01*
X155141100Y-122157283D01*
X155322708Y-122595723D01*
X155658277Y-122931292D01*
X156096717Y-123112900D01*
X156571283Y-123112900D01*
X156957998Y-122952717D01*
X157941100Y-122952717D01*
X157941100Y-123427283D01*
X158122708Y-123865723D01*
X158458277Y-124201292D01*
X158896717Y-124382900D01*
X159371283Y-124382900D01*
X159809723Y-124201292D01*
X160145292Y-123865723D01*
X160326900Y-123427283D01*
X160326900Y-122952717D01*
X160145292Y-122514277D01*
X159809723Y-122178708D01*
X159371283Y-121997100D01*
X158896717Y-121997100D01*
X158458277Y-122178708D01*
X158122708Y-122514277D01*
X157941100Y-122952717D01*
X156957998Y-122952717D01*
X157009723Y-122931292D01*
X157345292Y-122595723D01*
X157526900Y-122157283D01*
X157526900Y-121682717D01*
X157345292Y-121244277D01*
X157009723Y-120908708D01*
X156571283Y-120727100D01*
X156096717Y-120727100D01*
X155658277Y-120908708D01*
X155322708Y-121244277D01*
X155141100Y-121682717D01*
X133280900Y-121682717D01*
X133280900Y-121655174D01*
X133175412Y-121400504D01*
X132980496Y-121205588D01*
X132725826Y-121100100D01*
X132450174Y-121100100D01*
X132195504Y-121205588D01*
X132000588Y-121400504D01*
X131895100Y-121655174D01*
X125401841Y-121655174D01*
X125731292Y-121325723D01*
X125912900Y-120887283D01*
X125912900Y-120412717D01*
X125731292Y-119974277D01*
X125395723Y-119638708D01*
X124957283Y-119457100D01*
X124482717Y-119457100D01*
X124044277Y-119638708D01*
X123708708Y-119974277D01*
X123527100Y-120412717D01*
X122543998Y-120412717D01*
X122595723Y-120391292D01*
X122931292Y-120055723D01*
X123112900Y-119617283D01*
X123112900Y-119142717D01*
X122931292Y-118704277D01*
X122595723Y-118368708D01*
X122157283Y-118187100D01*
X121682717Y-118187100D01*
X121244277Y-118368708D01*
X120908708Y-118704277D01*
X120727100Y-119142717D01*
X119797900Y-119142717D01*
X119797900Y-116602717D01*
X120727100Y-116602717D01*
X120727100Y-117077283D01*
X120908708Y-117515723D01*
X121244277Y-117851292D01*
X121682717Y-118032900D01*
X122157283Y-118032900D01*
X122543998Y-117872717D01*
X123527100Y-117872717D01*
X123527100Y-118347283D01*
X123708708Y-118785723D01*
X124044277Y-119121292D01*
X124482717Y-119302900D01*
X124957283Y-119302900D01*
X125343998Y-119142717D01*
X155141100Y-119142717D01*
X155141100Y-119617283D01*
X155322708Y-120055723D01*
X155658277Y-120391292D01*
X156096717Y-120572900D01*
X156571283Y-120572900D01*
X156957998Y-120412717D01*
X157941100Y-120412717D01*
X157941100Y-120887283D01*
X158122708Y-121325723D01*
X158458277Y-121661292D01*
X158896717Y-121842900D01*
X159371283Y-121842900D01*
X159809723Y-121661292D01*
X160145292Y-121325723D01*
X160326900Y-120887283D01*
X160326900Y-120412717D01*
X160145292Y-119974277D01*
X159809723Y-119638708D01*
X159371283Y-119457100D01*
X158896717Y-119457100D01*
X158458277Y-119638708D01*
X158122708Y-119974277D01*
X157941100Y-120412717D01*
X156957998Y-120412717D01*
X157009723Y-120391292D01*
X157345292Y-120055723D01*
X157526900Y-119617283D01*
X157526900Y-119142717D01*
X157345292Y-118704277D01*
X157009723Y-118368708D01*
X156571283Y-118187100D01*
X156096717Y-118187100D01*
X155658277Y-118368708D01*
X155322708Y-118704277D01*
X155141100Y-119142717D01*
X125343998Y-119142717D01*
X125395723Y-119121292D01*
X125731292Y-118785723D01*
X125912900Y-118347283D01*
X125912900Y-117872717D01*
X125731292Y-117434277D01*
X125697689Y-117400674D01*
X144404600Y-117400674D01*
X144404600Y-117676326D01*
X144510088Y-117930996D01*
X144705004Y-118125912D01*
X144959674Y-118231400D01*
X145235326Y-118231400D01*
X145489996Y-118125912D01*
X145684912Y-117930996D01*
X145790400Y-117676326D01*
X145790400Y-117400674D01*
X145684912Y-117146004D01*
X145489996Y-116951088D01*
X145235326Y-116845600D01*
X144959674Y-116845600D01*
X144705004Y-116951088D01*
X144510088Y-117146004D01*
X144404600Y-117400674D01*
X125697689Y-117400674D01*
X125395723Y-117098708D01*
X124957283Y-116917100D01*
X124482717Y-116917100D01*
X124044277Y-117098708D01*
X123708708Y-117434277D01*
X123527100Y-117872717D01*
X122543998Y-117872717D01*
X122595723Y-117851292D01*
X122931292Y-117515723D01*
X123112900Y-117077283D01*
X123112900Y-116602717D01*
X122931292Y-116164277D01*
X122595723Y-115828708D01*
X122157283Y-115647100D01*
X121682717Y-115647100D01*
X121244277Y-115828708D01*
X120908708Y-116164277D01*
X120727100Y-116602717D01*
X119797900Y-116602717D01*
X119797900Y-114834907D01*
X120854395Y-114844600D01*
X120908708Y-114975723D01*
X121244277Y-115311292D01*
X121682717Y-115492900D01*
X122157283Y-115492900D01*
X122595723Y-115311292D01*
X122931292Y-114975723D01*
X122977537Y-114864078D01*
X123731985Y-114871000D01*
X123708708Y-114894277D01*
X123527100Y-115332717D01*
X123527100Y-115807283D01*
X123708708Y-116245723D01*
X124044277Y-116581292D01*
X124482717Y-116762900D01*
X124957283Y-116762900D01*
X125395723Y-116581292D01*
X125731292Y-116245723D01*
X125831552Y-116003674D01*
X130879100Y-116003674D01*
X130879100Y-116279326D01*
X130984588Y-116533996D01*
X131179504Y-116728912D01*
X131434174Y-116834400D01*
X131709826Y-116834400D01*
X131964496Y-116728912D01*
X132090691Y-116602717D01*
X155141100Y-116602717D01*
X155141100Y-117077283D01*
X155322708Y-117515723D01*
X155658277Y-117851292D01*
X156096717Y-118032900D01*
X156571283Y-118032900D01*
X156957998Y-117872717D01*
X157941100Y-117872717D01*
X157941100Y-118347283D01*
X158122708Y-118785723D01*
X158458277Y-119121292D01*
X158896717Y-119302900D01*
X159371283Y-119302900D01*
X159809723Y-119121292D01*
X160145292Y-118785723D01*
X160326900Y-118347283D01*
X160326900Y-117872717D01*
X160145292Y-117434277D01*
X159809723Y-117098708D01*
X159371283Y-116917100D01*
X158896717Y-116917100D01*
X158458277Y-117098708D01*
X158122708Y-117434277D01*
X157941100Y-117872717D01*
X156957998Y-117872717D01*
X157009723Y-117851292D01*
X157345292Y-117515723D01*
X157526900Y-117077283D01*
X157526900Y-116602717D01*
X157345292Y-116164277D01*
X157009723Y-115828708D01*
X156571283Y-115647100D01*
X156096717Y-115647100D01*
X155658277Y-115828708D01*
X155322708Y-116164277D01*
X155141100Y-116602717D01*
X132090691Y-116602717D01*
X132159412Y-116533996D01*
X132264900Y-116279326D01*
X132264900Y-116003674D01*
X132159412Y-115749004D01*
X131964496Y-115554088D01*
X131709826Y-115448600D01*
X131434174Y-115448600D01*
X131179504Y-115554088D01*
X130984588Y-115749004D01*
X130879100Y-116003674D01*
X125831552Y-116003674D01*
X125912900Y-115807283D01*
X125912900Y-115332717D01*
X125796281Y-115051174D01*
X137737100Y-115051174D01*
X137737100Y-115326826D01*
X137842588Y-115581496D01*
X138037504Y-115776412D01*
X138292174Y-115881900D01*
X138567826Y-115881900D01*
X138822496Y-115776412D01*
X139017412Y-115581496D01*
X139122900Y-115326826D01*
X139122900Y-115051174D01*
X139017412Y-114796504D01*
X138822496Y-114601588D01*
X138567826Y-114496100D01*
X138292174Y-114496100D01*
X138037504Y-114601588D01*
X137842588Y-114796504D01*
X137737100Y-115051174D01*
X125796281Y-115051174D01*
X125731292Y-114894277D01*
X125726311Y-114889296D01*
X126554684Y-114896896D01*
X126588766Y-114890442D01*
X126617782Y-114871436D01*
X126637317Y-114842773D01*
X126644400Y-114808000D01*
X126644400Y-114162174D01*
X150246600Y-114162174D01*
X150246600Y-114437826D01*
X150352088Y-114692496D01*
X150547004Y-114887412D01*
X150801674Y-114992900D01*
X151077326Y-114992900D01*
X151331996Y-114887412D01*
X151526912Y-114692496D01*
X151632400Y-114437826D01*
X151632400Y-114162174D01*
X151526912Y-113907504D01*
X151331996Y-113712588D01*
X151077326Y-113607100D01*
X150801674Y-113607100D01*
X150547004Y-113712588D01*
X150352088Y-113907504D01*
X150246600Y-114162174D01*
X126644400Y-114162174D01*
X126644400Y-112892174D01*
X149167100Y-112892174D01*
X149167100Y-113167826D01*
X149272588Y-113422496D01*
X149467504Y-113617412D01*
X149722174Y-113722900D01*
X149997826Y-113722900D01*
X150252496Y-113617412D01*
X150447412Y-113422496D01*
X150552900Y-113167826D01*
X150552900Y-112892174D01*
X150447412Y-112637504D01*
X150252496Y-112442588D01*
X149997826Y-112337100D01*
X149722174Y-112337100D01*
X149467504Y-112442588D01*
X149272588Y-112637504D01*
X149167100Y-112892174D01*
X126644400Y-112892174D01*
X126644400Y-111622174D01*
X148151100Y-111622174D01*
X148151100Y-111897826D01*
X148256588Y-112152496D01*
X148451504Y-112347412D01*
X148706174Y-112452900D01*
X148981826Y-112452900D01*
X149236496Y-112347412D01*
X149431412Y-112152496D01*
X149536900Y-111897826D01*
X149536900Y-111622174D01*
X149431412Y-111367504D01*
X149236496Y-111172588D01*
X148981826Y-111067100D01*
X148706174Y-111067100D01*
X148451504Y-111172588D01*
X148256588Y-111367504D01*
X148151100Y-111622174D01*
X126644400Y-111622174D01*
X126644400Y-110352174D01*
X147262100Y-110352174D01*
X147262100Y-110627826D01*
X147367588Y-110882496D01*
X147562504Y-111077412D01*
X147817174Y-111182900D01*
X148092826Y-111182900D01*
X148347496Y-111077412D01*
X148542412Y-110882496D01*
X148647900Y-110627826D01*
X148647900Y-110352174D01*
X148542412Y-110097504D01*
X148347496Y-109902588D01*
X148092826Y-109797100D01*
X147817174Y-109797100D01*
X147562504Y-109902588D01*
X147367588Y-110097504D01*
X147262100Y-110352174D01*
X126644400Y-110352174D01*
X126644400Y-109082174D01*
X146500100Y-109082174D01*
X146500100Y-109357826D01*
X146605588Y-109612496D01*
X146800504Y-109807412D01*
X147055174Y-109912900D01*
X147330826Y-109912900D01*
X147585496Y-109807412D01*
X147780412Y-109612496D01*
X147885900Y-109357826D01*
X147885900Y-109082174D01*
X147780412Y-108827504D01*
X147585496Y-108632588D01*
X147330826Y-108527100D01*
X147055174Y-108527100D01*
X146800504Y-108632588D01*
X146605588Y-108827504D01*
X146500100Y-109082174D01*
X126644400Y-109082174D01*
X126644400Y-107812174D01*
X145738100Y-107812174D01*
X145738100Y-108087826D01*
X145843588Y-108342496D01*
X146038504Y-108537412D01*
X146293174Y-108642900D01*
X146568826Y-108642900D01*
X146823496Y-108537412D01*
X147018412Y-108342496D01*
X147123900Y-108087826D01*
X147123900Y-107812174D01*
X147018412Y-107557504D01*
X146823496Y-107362588D01*
X146568826Y-107257100D01*
X146293174Y-107257100D01*
X146038504Y-107362588D01*
X145843588Y-107557504D01*
X145738100Y-107812174D01*
X126644400Y-107812174D01*
X126644400Y-106542174D01*
X135324100Y-106542174D01*
X135324100Y-106817826D01*
X135429588Y-107072496D01*
X135624504Y-107267412D01*
X135879174Y-107372900D01*
X136154826Y-107372900D01*
X136409496Y-107267412D01*
X136604412Y-107072496D01*
X136709900Y-106817826D01*
X136709900Y-106542174D01*
X136604412Y-106287504D01*
X136409496Y-106092588D01*
X136154826Y-105987100D01*
X135879174Y-105987100D01*
X135624504Y-106092588D01*
X135429588Y-106287504D01*
X135324100Y-106542174D01*
X126644400Y-106542174D01*
X126644400Y-105399174D01*
X133927100Y-105399174D01*
X133927100Y-105674826D01*
X134032588Y-105929496D01*
X134227504Y-106124412D01*
X134482174Y-106229900D01*
X134757826Y-106229900D01*
X135012496Y-106124412D01*
X135207412Y-105929496D01*
X135312900Y-105674826D01*
X135312900Y-105399174D01*
X145103100Y-105399174D01*
X145103100Y-105674826D01*
X145208588Y-105929496D01*
X145403504Y-106124412D01*
X145658174Y-106229900D01*
X145933826Y-106229900D01*
X146188496Y-106124412D01*
X146383412Y-105929496D01*
X146488900Y-105674826D01*
X146488900Y-105399174D01*
X146383412Y-105144504D01*
X146188496Y-104949588D01*
X145933826Y-104844100D01*
X145658174Y-104844100D01*
X145403504Y-104949588D01*
X145208588Y-105144504D01*
X145103100Y-105399174D01*
X135312900Y-105399174D01*
X135207412Y-105144504D01*
X135012496Y-104949588D01*
X134757826Y-104844100D01*
X134482174Y-104844100D01*
X134227504Y-104949588D01*
X134032588Y-105144504D01*
X133927100Y-105399174D01*
X126644400Y-105399174D01*
X126644400Y-104129174D01*
X130244100Y-104129174D01*
X130244100Y-104404826D01*
X130349588Y-104659496D01*
X130544504Y-104854412D01*
X130799174Y-104959900D01*
X131074826Y-104959900D01*
X131329496Y-104854412D01*
X131524412Y-104659496D01*
X131629900Y-104404826D01*
X131629900Y-104129174D01*
X131524412Y-103874504D01*
X131329496Y-103679588D01*
X131074826Y-103574100D01*
X130799174Y-103574100D01*
X130544504Y-103679588D01*
X130349588Y-103874504D01*
X130244100Y-104129174D01*
X126644400Y-104129174D01*
X126644400Y-102732174D01*
X131514100Y-102732174D01*
X131514100Y-103007826D01*
X131619588Y-103262496D01*
X131814504Y-103457412D01*
X132069174Y-103562900D01*
X132344826Y-103562900D01*
X132599496Y-103457412D01*
X132794412Y-103262496D01*
X132899900Y-103007826D01*
X132899900Y-102732174D01*
X132794412Y-102477504D01*
X132599496Y-102282588D01*
X132344826Y-102177100D01*
X132069174Y-102177100D01*
X131814504Y-102282588D01*
X131619588Y-102477504D01*
X131514100Y-102732174D01*
X126644400Y-102732174D01*
X126644400Y-102097174D01*
X134054100Y-102097174D01*
X134054100Y-102372826D01*
X134159588Y-102627496D01*
X134354504Y-102822412D01*
X134609174Y-102927900D01*
X134884826Y-102927900D01*
X135139496Y-102822412D01*
X135334412Y-102627496D01*
X135439900Y-102372826D01*
X135439900Y-102097174D01*
X135334412Y-101842504D01*
X135139496Y-101647588D01*
X134884826Y-101542100D01*
X134609174Y-101542100D01*
X134354504Y-101647588D01*
X134159588Y-101842504D01*
X134054100Y-102097174D01*
X126644400Y-102097174D01*
X126644400Y-99112674D01*
X129482100Y-99112674D01*
X129482100Y-99388326D01*
X129587588Y-99642996D01*
X129782504Y-99837912D01*
X130037174Y-99943400D01*
X130312826Y-99943400D01*
X130567496Y-99837912D01*
X130762412Y-99642996D01*
X130867900Y-99388326D01*
X130867900Y-99112674D01*
X140277100Y-99112674D01*
X140277100Y-99388326D01*
X140382588Y-99642996D01*
X140577504Y-99837912D01*
X140832174Y-99943400D01*
X141107826Y-99943400D01*
X141362496Y-99837912D01*
X141557412Y-99642996D01*
X141662900Y-99388326D01*
X141662900Y-99112674D01*
X141557412Y-98858004D01*
X141362496Y-98663088D01*
X141107826Y-98557600D01*
X140832174Y-98557600D01*
X140577504Y-98663088D01*
X140382588Y-98858004D01*
X140277100Y-99112674D01*
X130867900Y-99112674D01*
X130762412Y-98858004D01*
X130567496Y-98663088D01*
X130312826Y-98557600D01*
X130037174Y-98557600D01*
X129782504Y-98663088D01*
X129587588Y-98858004D01*
X129482100Y-99112674D01*
X126644400Y-99112674D01*
X126644400Y-95112174D01*
X135705100Y-95112174D01*
X135705100Y-95387826D01*
X135810588Y-95642496D01*
X136005504Y-95837412D01*
X136260174Y-95942900D01*
X136535826Y-95942900D01*
X136790496Y-95837412D01*
X136985412Y-95642496D01*
X137090900Y-95387826D01*
X137090900Y-95112174D01*
X150373600Y-95112174D01*
X150373600Y-95387826D01*
X150479088Y-95642496D01*
X150674004Y-95837412D01*
X150928674Y-95942900D01*
X151204326Y-95942900D01*
X151458996Y-95837412D01*
X151653912Y-95642496D01*
X151759400Y-95387826D01*
X151759400Y-95112174D01*
X151653912Y-94857504D01*
X151458996Y-94662588D01*
X151204326Y-94557100D01*
X150928674Y-94557100D01*
X150674004Y-94662588D01*
X150479088Y-94857504D01*
X150373600Y-95112174D01*
X137090900Y-95112174D01*
X136985412Y-94857504D01*
X136790496Y-94662588D01*
X136535826Y-94557100D01*
X136260174Y-94557100D01*
X136005504Y-94662588D01*
X135810588Y-94857504D01*
X135705100Y-95112174D01*
X126644400Y-95112174D01*
X126644400Y-92699174D01*
X129609100Y-92699174D01*
X129609100Y-92974826D01*
X129714588Y-93229496D01*
X129909504Y-93424412D01*
X130164174Y-93529900D01*
X130439826Y-93529900D01*
X130694496Y-93424412D01*
X130889412Y-93229496D01*
X130994900Y-92974826D01*
X130994900Y-92699174D01*
X130889412Y-92444504D01*
X130694496Y-92249588D01*
X130439826Y-92144100D01*
X130164174Y-92144100D01*
X129909504Y-92249588D01*
X129714588Y-92444504D01*
X129609100Y-92699174D01*
X126644400Y-92699174D01*
X126644400Y-88762174D01*
X139515100Y-88762174D01*
X139515100Y-89037826D01*
X139620588Y-89292496D01*
X139815504Y-89487412D01*
X140070174Y-89592900D01*
X140345826Y-89592900D01*
X140600496Y-89487412D01*
X140795412Y-89292496D01*
X140900900Y-89037826D01*
X140900900Y-88762174D01*
X140795412Y-88507504D01*
X140600496Y-88312588D01*
X140345826Y-88207100D01*
X140070174Y-88207100D01*
X139815504Y-88312588D01*
X139620588Y-88507504D01*
X139515100Y-88762174D01*
X126644400Y-88762174D01*
X126644400Y-87809674D01*
X152342100Y-87809674D01*
X152342100Y-88085326D01*
X152447588Y-88339996D01*
X152642504Y-88534912D01*
X152897174Y-88640400D01*
X153172826Y-88640400D01*
X153427496Y-88534912D01*
X153622412Y-88339996D01*
X153727900Y-88085326D01*
X153727900Y-87809674D01*
X153622412Y-87555004D01*
X153427496Y-87360088D01*
X153172826Y-87254600D01*
X152897174Y-87254600D01*
X152642504Y-87360088D01*
X152447588Y-87555004D01*
X152342100Y-87809674D01*
X126644400Y-87809674D01*
X126644400Y-86222174D01*
X137927600Y-86222174D01*
X137927600Y-86497826D01*
X138033088Y-86752496D01*
X138228004Y-86947412D01*
X138482674Y-87052900D01*
X138758326Y-87052900D01*
X139012996Y-86947412D01*
X139207912Y-86752496D01*
X139313400Y-86497826D01*
X139313400Y-86222174D01*
X139207912Y-85967504D01*
X139012996Y-85772588D01*
X138758326Y-85667100D01*
X138482674Y-85667100D01*
X138228004Y-85772588D01*
X138033088Y-85967504D01*
X137927600Y-86222174D01*
X126644400Y-86222174D01*
X126644400Y-82412174D01*
X135514600Y-82412174D01*
X135514600Y-82687826D01*
X135620088Y-82942496D01*
X135815004Y-83137412D01*
X136069674Y-83242900D01*
X136345326Y-83242900D01*
X136599996Y-83137412D01*
X136794912Y-82942496D01*
X136900400Y-82687826D01*
X136900400Y-82412174D01*
X136794912Y-82157504D01*
X136599996Y-81962588D01*
X136345326Y-81857100D01*
X136069674Y-81857100D01*
X135815004Y-81962588D01*
X135620088Y-82157504D01*
X135514600Y-82412174D01*
X126644400Y-82412174D01*
X126644400Y-80924199D01*
X154469933Y-80861102D01*
X154406600Y-114617333D01*
G04 #@! TD*
M02*
