G04 #@! TF.GenerationSoftware,KiCad,Pcbnew,(5.0.1-3-g963ef8bb5)*
G04 #@! TF.CreationDate,2019-05-18T06:30:10-07:00*
G04 #@! TF.ProjectId,oakram,6F616B72616D2E6B696361645F706362,3.0*
G04 #@! TF.SameCoordinates,Original*
G04 #@! TF.FileFunction,Legend,Top*
G04 #@! TF.FilePolarity,Positive*
%FSLAX46Y46*%
G04 Gerber Fmt 4.6, Leading zero omitted, Abs format (unit mm)*
G04 Created by KiCad (PCBNEW (5.0.1-3-g963ef8bb5)) date Saturday, May 18, 2019 at 06:30:10 AM*
%MOMM*%
%LPD*%
G01*
G04 APERTURE LIST*
%ADD10C,0.200000*%
%ADD11C,0.300000*%
%ADD12C,0.120000*%
%ADD13C,0.150000*%
%ADD14C,0.100000*%
G04 APERTURE END LIST*
D10*
X131192166Y-120989833D02*
X131144547Y-120942214D01*
X131049309Y-120799357D01*
X131001690Y-120704119D01*
X130954071Y-120561261D01*
X130906452Y-120323166D01*
X130906452Y-120132690D01*
X130954071Y-119894595D01*
X131001690Y-119751738D01*
X131049309Y-119656500D01*
X131144547Y-119513642D01*
X131192166Y-119466023D01*
X132001690Y-120561261D02*
X131906452Y-120608880D01*
X131715976Y-120608880D01*
X131620738Y-120561261D01*
X131573119Y-120513642D01*
X131525499Y-120418404D01*
X131525499Y-120132690D01*
X131573119Y-120037452D01*
X131620738Y-119989833D01*
X131715976Y-119942214D01*
X131906452Y-119942214D01*
X132001690Y-119989833D01*
X132335023Y-120989833D02*
X132382642Y-120942214D01*
X132477880Y-120799357D01*
X132525499Y-120704119D01*
X132573119Y-120561261D01*
X132620738Y-120323166D01*
X132620738Y-120132690D01*
X132573119Y-119894595D01*
X132525499Y-119751738D01*
X132477880Y-119656500D01*
X132382642Y-119513642D01*
X132335023Y-119466023D01*
X133811214Y-119704119D02*
X133858833Y-119656500D01*
X133954071Y-119608880D01*
X134192166Y-119608880D01*
X134287404Y-119656500D01*
X134335023Y-119704119D01*
X134382642Y-119799357D01*
X134382642Y-119894595D01*
X134335023Y-120037452D01*
X133763595Y-120608880D01*
X134382642Y-120608880D01*
X135001690Y-119608880D02*
X135096928Y-119608880D01*
X135192166Y-119656500D01*
X135239785Y-119704119D01*
X135287404Y-119799357D01*
X135335023Y-119989833D01*
X135335023Y-120227928D01*
X135287404Y-120418404D01*
X135239785Y-120513642D01*
X135192166Y-120561261D01*
X135096928Y-120608880D01*
X135001690Y-120608880D01*
X134906452Y-120561261D01*
X134858833Y-120513642D01*
X134811214Y-120418404D01*
X134763595Y-120227928D01*
X134763595Y-119989833D01*
X134811214Y-119799357D01*
X134858833Y-119704119D01*
X134906452Y-119656500D01*
X135001690Y-119608880D01*
X136287404Y-120608880D02*
X135715976Y-120608880D01*
X136001690Y-120608880D02*
X136001690Y-119608880D01*
X135906452Y-119751738D01*
X135811214Y-119846976D01*
X135715976Y-119894595D01*
X136620738Y-119608880D02*
X137287404Y-119608880D01*
X136858833Y-120608880D01*
X138287404Y-119608880D02*
X138858833Y-119608880D01*
X138573119Y-120608880D02*
X138573119Y-119608880D01*
X139192166Y-120608880D02*
X139192166Y-119942214D01*
X139192166Y-119608880D02*
X139144547Y-119656500D01*
X139192166Y-119704119D01*
X139239785Y-119656500D01*
X139192166Y-119608880D01*
X139192166Y-119704119D01*
X139668357Y-120608880D02*
X139668357Y-119942214D01*
X139668357Y-120037452D02*
X139715976Y-119989833D01*
X139811214Y-119942214D01*
X139954071Y-119942214D01*
X140049309Y-119989833D01*
X140096928Y-120085071D01*
X140096928Y-120608880D01*
X140096928Y-120085071D02*
X140144547Y-119989833D01*
X140239785Y-119942214D01*
X140382642Y-119942214D01*
X140477880Y-119989833D01*
X140525500Y-120085071D01*
X140525500Y-120608880D01*
X141620738Y-119608880D02*
X142192166Y-119608880D01*
X141906452Y-120608880D02*
X141906452Y-119608880D01*
X142954071Y-120608880D02*
X142954071Y-120085071D01*
X142906452Y-119989833D01*
X142811214Y-119942214D01*
X142620738Y-119942214D01*
X142525500Y-119989833D01*
X142954071Y-120561261D02*
X142858833Y-120608880D01*
X142620738Y-120608880D01*
X142525500Y-120561261D01*
X142477880Y-120466023D01*
X142477880Y-120370785D01*
X142525500Y-120275547D01*
X142620738Y-120227928D01*
X142858833Y-120227928D01*
X142954071Y-120180309D01*
X143382642Y-120561261D02*
X143477880Y-120608880D01*
X143668357Y-120608880D01*
X143763595Y-120561261D01*
X143811214Y-120466023D01*
X143811214Y-120418404D01*
X143763595Y-120323166D01*
X143668357Y-120275547D01*
X143525500Y-120275547D01*
X143430261Y-120227928D01*
X143382642Y-120132690D01*
X143382642Y-120085071D01*
X143430261Y-119989833D01*
X143525500Y-119942214D01*
X143668357Y-119942214D01*
X143763595Y-119989833D01*
X144239785Y-120608880D02*
X144239785Y-119608880D01*
X144668357Y-120608880D02*
X144668357Y-120085071D01*
X144620738Y-119989833D01*
X144525500Y-119942214D01*
X144382642Y-119942214D01*
X144287404Y-119989833D01*
X144239785Y-120037452D01*
X145144547Y-119942214D02*
X145144547Y-120942214D01*
X145144547Y-119989833D02*
X145239785Y-119942214D01*
X145430261Y-119942214D01*
X145525500Y-119989833D01*
X145573119Y-120037452D01*
X145620738Y-120132690D01*
X145620738Y-120418404D01*
X145573119Y-120513642D01*
X145525500Y-120561261D01*
X145430261Y-120608880D01*
X145239785Y-120608880D01*
X145144547Y-120561261D01*
X146477880Y-119942214D02*
X146477880Y-120608880D01*
X146049309Y-119942214D02*
X146049309Y-120466023D01*
X146096928Y-120561261D01*
X146192166Y-120608880D01*
X146335023Y-120608880D01*
X146430261Y-120561261D01*
X146477880Y-120513642D01*
X147096928Y-120608880D02*
X147001690Y-120561261D01*
X146954071Y-120466023D01*
X146954071Y-119608880D01*
X147906452Y-120608880D02*
X147906452Y-120085071D01*
X147858833Y-119989833D01*
X147763595Y-119942214D01*
X147573119Y-119942214D01*
X147477880Y-119989833D01*
X147906452Y-120561261D02*
X147811214Y-120608880D01*
X147573119Y-120608880D01*
X147477880Y-120561261D01*
X147430261Y-120466023D01*
X147430261Y-120370785D01*
X147477880Y-120275547D01*
X147573119Y-120227928D01*
X147811214Y-120227928D01*
X147906452Y-120180309D01*
X148239785Y-119942214D02*
X148620738Y-119942214D01*
X148382642Y-119608880D02*
X148382642Y-120466023D01*
X148430261Y-120561261D01*
X148525500Y-120608880D01*
X148620738Y-120608880D01*
X149096928Y-120608880D02*
X149001690Y-120561261D01*
X148954071Y-120513642D01*
X148906452Y-120418404D01*
X148906452Y-120132690D01*
X148954071Y-120037452D01*
X149001690Y-119989833D01*
X149096928Y-119942214D01*
X149239785Y-119942214D01*
X149335023Y-119989833D01*
X149382642Y-120037452D01*
X149430261Y-120132690D01*
X149430261Y-120418404D01*
X149382642Y-120513642D01*
X149335023Y-120561261D01*
X149239785Y-120608880D01*
X149096928Y-120608880D01*
X149763595Y-119942214D02*
X150001690Y-120608880D01*
X150239785Y-119942214D01*
X131335023Y-122689833D02*
X131287404Y-122642214D01*
X131192166Y-122499357D01*
X131144547Y-122404119D01*
X131096928Y-122261261D01*
X131049309Y-122023166D01*
X131049309Y-121832690D01*
X131096928Y-121594595D01*
X131144547Y-121451738D01*
X131192166Y-121356500D01*
X131287404Y-121213642D01*
X131335023Y-121166023D01*
X132144547Y-122261261D02*
X132049309Y-122308880D01*
X131858833Y-122308880D01*
X131763595Y-122261261D01*
X131715976Y-122213642D01*
X131668357Y-122118404D01*
X131668357Y-121832690D01*
X131715976Y-121737452D01*
X131763595Y-121689833D01*
X131858833Y-121642214D01*
X132049309Y-121642214D01*
X132144547Y-121689833D01*
X132477880Y-122689833D02*
X132525500Y-122642214D01*
X132620738Y-122499357D01*
X132668357Y-122404119D01*
X132715976Y-122261261D01*
X132763595Y-122023166D01*
X132763595Y-121832690D01*
X132715976Y-121594595D01*
X132668357Y-121451738D01*
X132620738Y-121356500D01*
X132525500Y-121213642D01*
X132477880Y-121166023D01*
X133954071Y-121404119D02*
X134001690Y-121356500D01*
X134096928Y-121308880D01*
X134335023Y-121308880D01*
X134430261Y-121356500D01*
X134477880Y-121404119D01*
X134525500Y-121499357D01*
X134525500Y-121594595D01*
X134477880Y-121737452D01*
X133906452Y-122308880D01*
X134525500Y-122308880D01*
X135144547Y-121308880D02*
X135239785Y-121308880D01*
X135335023Y-121356500D01*
X135382642Y-121404119D01*
X135430261Y-121499357D01*
X135477880Y-121689833D01*
X135477880Y-121927928D01*
X135430261Y-122118404D01*
X135382642Y-122213642D01*
X135335023Y-122261261D01*
X135239785Y-122308880D01*
X135144547Y-122308880D01*
X135049309Y-122261261D01*
X135001690Y-122213642D01*
X134954071Y-122118404D01*
X134906452Y-121927928D01*
X134906452Y-121689833D01*
X134954071Y-121499357D01*
X135001690Y-121404119D01*
X135049309Y-121356500D01*
X135144547Y-121308880D01*
X136430261Y-122308880D02*
X135858833Y-122308880D01*
X136144547Y-122308880D02*
X136144547Y-121308880D01*
X136049309Y-121451738D01*
X135954071Y-121546976D01*
X135858833Y-121594595D01*
X137001690Y-121737452D02*
X136906452Y-121689833D01*
X136858833Y-121642214D01*
X136811214Y-121546976D01*
X136811214Y-121499357D01*
X136858833Y-121404119D01*
X136906452Y-121356500D01*
X137001690Y-121308880D01*
X137192166Y-121308880D01*
X137287404Y-121356500D01*
X137335023Y-121404119D01*
X137382642Y-121499357D01*
X137382642Y-121546976D01*
X137335023Y-121642214D01*
X137287404Y-121689833D01*
X137192166Y-121737452D01*
X137001690Y-121737452D01*
X136906452Y-121785071D01*
X136858833Y-121832690D01*
X136811214Y-121927928D01*
X136811214Y-122118404D01*
X136858833Y-122213642D01*
X136906452Y-122261261D01*
X137001690Y-122308880D01*
X137192166Y-122308880D01*
X137287404Y-122261261D01*
X137335023Y-122213642D01*
X137382642Y-122118404D01*
X137382642Y-121927928D01*
X137335023Y-121832690D01*
X137287404Y-121785071D01*
X137192166Y-121737452D01*
X138573119Y-122308880D02*
X138573119Y-121308880D01*
X138811214Y-121308880D01*
X138954071Y-121356500D01*
X139049309Y-121451738D01*
X139096928Y-121546976D01*
X139144547Y-121737452D01*
X139144547Y-121880309D01*
X139096928Y-122070785D01*
X139049309Y-122166023D01*
X138954071Y-122261261D01*
X138811214Y-122308880D01*
X138573119Y-122308880D01*
X140001690Y-122308880D02*
X140001690Y-121785071D01*
X139954071Y-121689833D01*
X139858833Y-121642214D01*
X139668357Y-121642214D01*
X139573119Y-121689833D01*
X140001690Y-122261261D02*
X139906452Y-122308880D01*
X139668357Y-122308880D01*
X139573119Y-122261261D01*
X139525500Y-122166023D01*
X139525500Y-122070785D01*
X139573119Y-121975547D01*
X139668357Y-121927928D01*
X139906452Y-121927928D01*
X140001690Y-121880309D01*
X140477880Y-121642214D02*
X140477880Y-122308880D01*
X140477880Y-121737452D02*
X140525500Y-121689833D01*
X140620738Y-121642214D01*
X140763595Y-121642214D01*
X140858833Y-121689833D01*
X140906452Y-121785071D01*
X140906452Y-122308880D01*
X141382642Y-122308880D02*
X141382642Y-121642214D01*
X141382642Y-121308880D02*
X141335023Y-121356500D01*
X141382642Y-121404119D01*
X141430261Y-121356500D01*
X141382642Y-121308880D01*
X141382642Y-121404119D01*
X142239785Y-122261261D02*
X142144547Y-122308880D01*
X141954071Y-122308880D01*
X141858833Y-122261261D01*
X141811214Y-122166023D01*
X141811214Y-121785071D01*
X141858833Y-121689833D01*
X141954071Y-121642214D01*
X142144547Y-121642214D01*
X142239785Y-121689833D01*
X142287404Y-121785071D01*
X142287404Y-121880309D01*
X141811214Y-121975547D01*
X142858833Y-122308880D02*
X142763595Y-122261261D01*
X142715976Y-122166023D01*
X142715976Y-121308880D01*
X144287404Y-121308880D02*
X144287404Y-122023166D01*
X144239785Y-122166023D01*
X144144547Y-122261261D01*
X144001690Y-122308880D01*
X143906452Y-122308880D01*
X145192166Y-122308880D02*
X145192166Y-121785071D01*
X145144547Y-121689833D01*
X145049309Y-121642214D01*
X144858833Y-121642214D01*
X144763595Y-121689833D01*
X145192166Y-122261261D02*
X145096928Y-122308880D01*
X144858833Y-122308880D01*
X144763595Y-122261261D01*
X144715976Y-122166023D01*
X144715976Y-122070785D01*
X144763595Y-121975547D01*
X144858833Y-121927928D01*
X145096928Y-121927928D01*
X145192166Y-121880309D01*
X145668357Y-122308880D02*
X145668357Y-121642214D01*
X145668357Y-121737452D02*
X145715976Y-121689833D01*
X145811214Y-121642214D01*
X145954071Y-121642214D01*
X146049309Y-121689833D01*
X146096928Y-121785071D01*
X146096928Y-122308880D01*
X146096928Y-121785071D02*
X146144547Y-121689833D01*
X146239785Y-121642214D01*
X146382642Y-121642214D01*
X146477880Y-121689833D01*
X146525500Y-121785071D01*
X146525500Y-122308880D01*
X147382642Y-122261261D02*
X147287404Y-122308880D01*
X147096928Y-122308880D01*
X147001690Y-122261261D01*
X146954071Y-122166023D01*
X146954071Y-121785071D01*
X147001690Y-121689833D01*
X147096928Y-121642214D01*
X147287404Y-121642214D01*
X147382642Y-121689833D01*
X147430261Y-121785071D01*
X147430261Y-121880309D01*
X146954071Y-121975547D01*
X147811214Y-122261261D02*
X147906452Y-122308880D01*
X148096928Y-122308880D01*
X148192166Y-122261261D01*
X148239785Y-122166023D01*
X148239785Y-122118404D01*
X148192166Y-122023166D01*
X148096928Y-121975547D01*
X147954071Y-121975547D01*
X147858833Y-121927928D01*
X147811214Y-121832690D01*
X147811214Y-121785071D01*
X147858833Y-121689833D01*
X147954071Y-121642214D01*
X148096928Y-121642214D01*
X148192166Y-121689833D01*
X148811214Y-122308880D02*
X148715976Y-122261261D01*
X148668357Y-122213642D01*
X148620738Y-122118404D01*
X148620738Y-121832690D01*
X148668357Y-121737452D01*
X148715976Y-121689833D01*
X148811214Y-121642214D01*
X148954071Y-121642214D01*
X149049309Y-121689833D01*
X149096928Y-121737452D01*
X149144547Y-121832690D01*
X149144547Y-122118404D01*
X149096928Y-122213642D01*
X149049309Y-122261261D01*
X148954071Y-122308880D01*
X148811214Y-122308880D01*
X149573119Y-121642214D02*
X149573119Y-122308880D01*
X149573119Y-121737452D02*
X149620738Y-121689833D01*
X149715976Y-121642214D01*
X149858833Y-121642214D01*
X149954071Y-121689833D01*
X150001690Y-121785071D01*
X150001690Y-122308880D01*
X128311214Y-123913642D02*
X128263595Y-123961261D01*
X128120738Y-124008880D01*
X128025500Y-124008880D01*
X127882642Y-123961261D01*
X127787404Y-123866023D01*
X127739785Y-123770785D01*
X127692166Y-123580309D01*
X127692166Y-123437452D01*
X127739785Y-123246976D01*
X127787404Y-123151738D01*
X127882642Y-123056500D01*
X128025500Y-123008880D01*
X128120738Y-123008880D01*
X128263595Y-123056500D01*
X128311214Y-123104119D01*
X128739785Y-124008880D02*
X128739785Y-123342214D01*
X128739785Y-123532690D02*
X128787404Y-123437452D01*
X128835023Y-123389833D01*
X128930261Y-123342214D01*
X129025500Y-123342214D01*
X129739785Y-123961261D02*
X129644547Y-124008880D01*
X129454071Y-124008880D01*
X129358833Y-123961261D01*
X129311214Y-123866023D01*
X129311214Y-123485071D01*
X129358833Y-123389833D01*
X129454071Y-123342214D01*
X129644547Y-123342214D01*
X129739785Y-123389833D01*
X129787404Y-123485071D01*
X129787404Y-123580309D01*
X129311214Y-123675547D01*
X130644547Y-124008880D02*
X130644547Y-123485071D01*
X130596928Y-123389833D01*
X130501690Y-123342214D01*
X130311214Y-123342214D01*
X130215976Y-123389833D01*
X130644547Y-123961261D02*
X130549309Y-124008880D01*
X130311214Y-124008880D01*
X130215976Y-123961261D01*
X130168357Y-123866023D01*
X130168357Y-123770785D01*
X130215976Y-123675547D01*
X130311214Y-123627928D01*
X130549309Y-123627928D01*
X130644547Y-123580309D01*
X130977880Y-123342214D02*
X131358833Y-123342214D01*
X131120738Y-123008880D02*
X131120738Y-123866023D01*
X131168357Y-123961261D01*
X131263595Y-124008880D01*
X131358833Y-124008880D01*
X131692166Y-124008880D02*
X131692166Y-123342214D01*
X131692166Y-123008880D02*
X131644547Y-123056500D01*
X131692166Y-123104119D01*
X131739785Y-123056500D01*
X131692166Y-123008880D01*
X131692166Y-123104119D01*
X132073119Y-123342214D02*
X132311214Y-124008880D01*
X132549309Y-123342214D01*
X133311214Y-123961261D02*
X133215976Y-124008880D01*
X133025500Y-124008880D01*
X132930261Y-123961261D01*
X132882642Y-123866023D01*
X132882642Y-123485071D01*
X132930261Y-123389833D01*
X133025500Y-123342214D01*
X133215976Y-123342214D01*
X133311214Y-123389833D01*
X133358833Y-123485071D01*
X133358833Y-123580309D01*
X132882642Y-123675547D01*
X135120738Y-123913642D02*
X135073119Y-123961261D01*
X134930261Y-124008880D01*
X134835023Y-124008880D01*
X134692166Y-123961261D01*
X134596928Y-123866023D01*
X134549309Y-123770785D01*
X134501690Y-123580309D01*
X134501690Y-123437452D01*
X134549309Y-123246976D01*
X134596928Y-123151738D01*
X134692166Y-123056500D01*
X134835023Y-123008880D01*
X134930261Y-123008880D01*
X135073119Y-123056500D01*
X135120738Y-123104119D01*
X135692166Y-124008880D02*
X135596928Y-123961261D01*
X135549309Y-123913642D01*
X135501690Y-123818404D01*
X135501690Y-123532690D01*
X135549309Y-123437452D01*
X135596928Y-123389833D01*
X135692166Y-123342214D01*
X135835023Y-123342214D01*
X135930261Y-123389833D01*
X135977880Y-123437452D01*
X136025500Y-123532690D01*
X136025500Y-123818404D01*
X135977880Y-123913642D01*
X135930261Y-123961261D01*
X135835023Y-124008880D01*
X135692166Y-124008880D01*
X136454071Y-124008880D02*
X136454071Y-123342214D01*
X136454071Y-123437452D02*
X136501690Y-123389833D01*
X136596928Y-123342214D01*
X136739785Y-123342214D01*
X136835023Y-123389833D01*
X136882642Y-123485071D01*
X136882642Y-124008880D01*
X136882642Y-123485071D02*
X136930261Y-123389833D01*
X137025500Y-123342214D01*
X137168357Y-123342214D01*
X137263595Y-123389833D01*
X137311214Y-123485071D01*
X137311214Y-124008880D01*
X137787404Y-124008880D02*
X137787404Y-123342214D01*
X137787404Y-123437452D02*
X137835023Y-123389833D01*
X137930261Y-123342214D01*
X138073119Y-123342214D01*
X138168357Y-123389833D01*
X138215976Y-123485071D01*
X138215976Y-124008880D01*
X138215976Y-123485071D02*
X138263595Y-123389833D01*
X138358833Y-123342214D01*
X138501690Y-123342214D01*
X138596928Y-123389833D01*
X138644547Y-123485071D01*
X138644547Y-124008880D01*
X139263595Y-124008880D02*
X139168357Y-123961261D01*
X139120738Y-123913642D01*
X139073119Y-123818404D01*
X139073119Y-123532690D01*
X139120738Y-123437452D01*
X139168357Y-123389833D01*
X139263595Y-123342214D01*
X139406452Y-123342214D01*
X139501690Y-123389833D01*
X139549309Y-123437452D01*
X139596928Y-123532690D01*
X139596928Y-123818404D01*
X139549309Y-123913642D01*
X139501690Y-123961261D01*
X139406452Y-124008880D01*
X139263595Y-124008880D01*
X140025500Y-123342214D02*
X140025500Y-124008880D01*
X140025500Y-123437452D02*
X140073119Y-123389833D01*
X140168357Y-123342214D01*
X140311214Y-123342214D01*
X140406452Y-123389833D01*
X140454071Y-123485071D01*
X140454071Y-124008880D01*
X140882642Y-123961261D02*
X140977880Y-124008880D01*
X141168357Y-124008880D01*
X141263595Y-123961261D01*
X141311214Y-123866023D01*
X141311214Y-123818404D01*
X141263595Y-123723166D01*
X141168357Y-123675547D01*
X141025500Y-123675547D01*
X140930261Y-123627928D01*
X140882642Y-123532690D01*
X140882642Y-123485071D01*
X140930261Y-123389833D01*
X141025500Y-123342214D01*
X141168357Y-123342214D01*
X141263595Y-123389833D01*
X143073119Y-123913642D02*
X143025500Y-123961261D01*
X142882642Y-124008880D01*
X142787404Y-124008880D01*
X142644547Y-123961261D01*
X142549309Y-123866023D01*
X142501690Y-123770785D01*
X142454071Y-123580309D01*
X142454071Y-123437452D01*
X142501690Y-123246976D01*
X142549309Y-123151738D01*
X142644547Y-123056500D01*
X142787404Y-123008880D01*
X142882642Y-123008880D01*
X143025500Y-123056500D01*
X143073119Y-123104119D01*
X144073119Y-123913642D02*
X144025500Y-123961261D01*
X143882642Y-124008880D01*
X143787404Y-124008880D01*
X143644547Y-123961261D01*
X143549309Y-123866023D01*
X143501690Y-123770785D01*
X143454071Y-123580309D01*
X143454071Y-123437452D01*
X143501690Y-123246976D01*
X143549309Y-123151738D01*
X143644547Y-123056500D01*
X143787404Y-123008880D01*
X143882642Y-123008880D01*
X144025500Y-123056500D01*
X144073119Y-123104119D01*
X144501690Y-123627928D02*
X145263595Y-123627928D01*
X146073119Y-123485071D02*
X146215976Y-123532690D01*
X146263595Y-123580309D01*
X146311214Y-123675547D01*
X146311214Y-123818404D01*
X146263595Y-123913642D01*
X146215976Y-123961261D01*
X146120738Y-124008880D01*
X145739785Y-124008880D01*
X145739785Y-123008880D01*
X146073119Y-123008880D01*
X146168357Y-123056500D01*
X146215976Y-123104119D01*
X146263595Y-123199357D01*
X146263595Y-123294595D01*
X146215976Y-123389833D01*
X146168357Y-123437452D01*
X146073119Y-123485071D01*
X145739785Y-123485071D01*
X146930261Y-123532690D02*
X146930261Y-124008880D01*
X146596928Y-123008880D02*
X146930261Y-123532690D01*
X147263595Y-123008880D01*
X147596928Y-123627928D02*
X148358833Y-123627928D01*
X148787404Y-123961261D02*
X148930261Y-124008880D01*
X149168357Y-124008880D01*
X149263595Y-123961261D01*
X149311214Y-123913642D01*
X149358833Y-123818404D01*
X149358833Y-123723166D01*
X149311214Y-123627928D01*
X149263595Y-123580309D01*
X149168357Y-123532690D01*
X148977880Y-123485071D01*
X148882642Y-123437452D01*
X148835023Y-123389833D01*
X148787404Y-123294595D01*
X148787404Y-123199357D01*
X148835023Y-123104119D01*
X148882642Y-123056500D01*
X148977880Y-123008880D01*
X149215976Y-123008880D01*
X149358833Y-123056500D01*
X149739785Y-123723166D02*
X150215976Y-123723166D01*
X149644547Y-124008880D02*
X149977880Y-123008880D01*
X150311214Y-124008880D01*
X151835023Y-123342214D02*
X151835023Y-124008880D01*
X151596928Y-122961261D02*
X151358833Y-123675547D01*
X151977880Y-123675547D01*
X152358833Y-123913642D02*
X152406452Y-123961261D01*
X152358833Y-124008880D01*
X152311214Y-123961261D01*
X152358833Y-123913642D01*
X152358833Y-124008880D01*
X153025500Y-123008880D02*
X153120738Y-123008880D01*
X153215976Y-123056500D01*
X153263595Y-123104119D01*
X153311214Y-123199357D01*
X153358833Y-123389833D01*
X153358833Y-123627928D01*
X153311214Y-123818404D01*
X153263595Y-123913642D01*
X153215976Y-123961261D01*
X153120738Y-124008880D01*
X153025500Y-124008880D01*
X152930261Y-123961261D01*
X152882642Y-123913642D01*
X152835023Y-123818404D01*
X152787404Y-123627928D01*
X152787404Y-123389833D01*
X152835023Y-123199357D01*
X152882642Y-123104119D01*
X152930261Y-123056500D01*
X153025500Y-123008880D01*
D11*
X153935571Y-81641142D02*
X154435571Y-81641142D01*
X154435571Y-80855428D02*
X154435571Y-82355428D01*
X153721285Y-82355428D01*
X152292714Y-80855428D02*
X152792714Y-81569714D01*
X153149857Y-80855428D02*
X153149857Y-82355428D01*
X152578428Y-82355428D01*
X152435571Y-82284000D01*
X152364142Y-82212571D01*
X152292714Y-82069714D01*
X152292714Y-81855428D01*
X152364142Y-81712571D01*
X152435571Y-81641142D01*
X152578428Y-81569714D01*
X153149857Y-81569714D01*
X151364142Y-82355428D02*
X151078428Y-82355428D01*
X150935571Y-82284000D01*
X150792714Y-82141142D01*
X150721285Y-81855428D01*
X150721285Y-81355428D01*
X150792714Y-81069714D01*
X150935571Y-80926857D01*
X151078428Y-80855428D01*
X151364142Y-80855428D01*
X151507000Y-80926857D01*
X151649857Y-81069714D01*
X151721285Y-81355428D01*
X151721285Y-81855428D01*
X151649857Y-82141142D01*
X151507000Y-82284000D01*
X151364142Y-82355428D01*
X150078428Y-80855428D02*
X150078428Y-82355428D01*
X149221285Y-80855428D01*
X149221285Y-82355428D01*
X148721285Y-82355428D02*
X147864142Y-82355428D01*
X148292714Y-80855428D02*
X148292714Y-82355428D01*
D10*
X151257000Y-77343000D02*
X150749000Y-77851000D01*
X151765000Y-77851000D02*
X151257000Y-77343000D01*
X151257000Y-77343000D02*
X151765000Y-77851000D01*
X151257000Y-79375000D02*
X151257000Y-77343000D01*
X151257000Y-77470000D02*
X151257000Y-79375000D01*
X136040238Y-83360333D02*
X135564047Y-83360333D01*
X136135476Y-83074619D02*
X135802142Y-84074619D01*
X135468809Y-83074619D01*
X134706904Y-83122238D02*
X134802142Y-83074619D01*
X134992619Y-83074619D01*
X135087857Y-83122238D01*
X135135476Y-83169857D01*
X135183095Y-83265095D01*
X135183095Y-83550809D01*
X135135476Y-83646047D01*
X135087857Y-83693666D01*
X134992619Y-83741285D01*
X134802142Y-83741285D01*
X134706904Y-83693666D01*
X134135476Y-83074619D02*
X134230714Y-83122238D01*
X134278333Y-83169857D01*
X134325952Y-83265095D01*
X134325952Y-83550809D01*
X134278333Y-83646047D01*
X134230714Y-83693666D01*
X134135476Y-83741285D01*
X133992619Y-83741285D01*
X133897380Y-83693666D01*
X133849761Y-83646047D01*
X133802142Y-83550809D01*
X133802142Y-83265095D01*
X133849761Y-83169857D01*
X133897380Y-83122238D01*
X133992619Y-83074619D01*
X134135476Y-83074619D01*
X133373571Y-83074619D02*
X133373571Y-83741285D01*
X133373571Y-83550809D02*
X133325952Y-83646047D01*
X133278333Y-83693666D01*
X133183095Y-83741285D01*
X133087857Y-83741285D01*
X132754523Y-83741285D02*
X132754523Y-83074619D01*
X132754523Y-83646047D02*
X132706904Y-83693666D01*
X132611666Y-83741285D01*
X132468809Y-83741285D01*
X132373571Y-83693666D01*
X132325952Y-83598428D01*
X132325952Y-83074619D01*
X131135476Y-83360333D02*
X130659285Y-83360333D01*
X131230714Y-83074619D02*
X130897380Y-84074619D01*
X130564047Y-83074619D01*
X130325952Y-84074619D02*
X129706904Y-84074619D01*
X130040238Y-83693666D01*
X129897380Y-83693666D01*
X129802142Y-83646047D01*
X129754523Y-83598428D01*
X129706904Y-83503190D01*
X129706904Y-83265095D01*
X129754523Y-83169857D01*
X129802142Y-83122238D01*
X129897380Y-83074619D01*
X130183095Y-83074619D01*
X130278333Y-83122238D01*
X130325952Y-83169857D01*
X129087857Y-84074619D02*
X128992619Y-84074619D01*
X128897380Y-84027000D01*
X128849761Y-83979380D01*
X128802142Y-83884142D01*
X128754523Y-83693666D01*
X128754523Y-83455571D01*
X128802142Y-83265095D01*
X128849761Y-83169857D01*
X128897380Y-83122238D01*
X128992619Y-83074619D01*
X129087857Y-83074619D01*
X129183095Y-83122238D01*
X129230714Y-83169857D01*
X129278333Y-83265095D01*
X129325952Y-83455571D01*
X129325952Y-83693666D01*
X129278333Y-83884142D01*
X129230714Y-83979380D01*
X129183095Y-84027000D01*
X129087857Y-84074619D01*
X127802142Y-83074619D02*
X128373571Y-83074619D01*
X128087857Y-83074619D02*
X128087857Y-84074619D01*
X128183095Y-83931761D01*
X128278333Y-83836523D01*
X128373571Y-83788904D01*
X127183095Y-84074619D02*
X127087857Y-84074619D01*
X126992619Y-84027000D01*
X126945000Y-83979380D01*
X126897380Y-83884142D01*
X126849761Y-83693666D01*
X126849761Y-83455571D01*
X126897380Y-83265095D01*
X126945000Y-83169857D01*
X126992619Y-83122238D01*
X127087857Y-83074619D01*
X127183095Y-83074619D01*
X127278333Y-83122238D01*
X127325952Y-83169857D01*
X127373571Y-83265095D01*
X127421190Y-83455571D01*
X127421190Y-83693666D01*
X127373571Y-83884142D01*
X127325952Y-83979380D01*
X127278333Y-84027000D01*
X127183095Y-84074619D01*
X134206904Y-82041285D02*
X134206904Y-81374619D01*
X134445000Y-82422238D02*
X134683095Y-81707952D01*
X134064047Y-81707952D01*
X133683095Y-81374619D02*
X133683095Y-82374619D01*
X133349761Y-81660333D01*
X133016428Y-82374619D01*
X133016428Y-81374619D01*
X132206904Y-81898428D02*
X132064047Y-81850809D01*
X132016428Y-81803190D01*
X131968809Y-81707952D01*
X131968809Y-81565095D01*
X132016428Y-81469857D01*
X132064047Y-81422238D01*
X132159285Y-81374619D01*
X132540238Y-81374619D01*
X132540238Y-82374619D01*
X132206904Y-82374619D01*
X132111666Y-82327000D01*
X132064047Y-82279380D01*
X132016428Y-82184142D01*
X132016428Y-82088904D01*
X132064047Y-81993666D01*
X132111666Y-81946047D01*
X132206904Y-81898428D01*
X132540238Y-81898428D01*
X130206904Y-81374619D02*
X130540238Y-81850809D01*
X130778333Y-81374619D02*
X130778333Y-82374619D01*
X130397380Y-82374619D01*
X130302142Y-82327000D01*
X130254523Y-82279380D01*
X130206904Y-82184142D01*
X130206904Y-82041285D01*
X130254523Y-81946047D01*
X130302142Y-81898428D01*
X130397380Y-81850809D01*
X130778333Y-81850809D01*
X129825952Y-81660333D02*
X129349761Y-81660333D01*
X129921190Y-81374619D02*
X129587857Y-82374619D01*
X129254523Y-81374619D01*
X128921190Y-81374619D02*
X128921190Y-82374619D01*
X128587857Y-81660333D01*
X128254523Y-82374619D01*
X128254523Y-81374619D01*
D12*
G04 #@! TO.C,C7*
X145070000Y-84400000D02*
X145070000Y-80700000D01*
X145070000Y-80700000D02*
X137970000Y-80700000D01*
X145070000Y-84400000D02*
X137970000Y-84400000D01*
D13*
G04 #@! TO.C,U2*
X137160000Y-87884000D02*
X137160000Y-115316000D01*
X129540000Y-115316000D02*
X129540000Y-87884000D01*
X129540000Y-87884000D02*
X137160000Y-87884000D01*
X129540000Y-115316000D02*
X137160000Y-115316000D01*
X132588000Y-89408000D02*
G75*
G03X132588000Y-89408000I-1270000J0D01*
G01*
G04 #@! TO.C,U1*
X147193000Y-89408000D02*
G75*
G03X147193000Y-89408000I-1270000J0D01*
G01*
X144145000Y-115316000D02*
X151765000Y-115316000D01*
X144145000Y-87884000D02*
X151765000Y-87884000D01*
X144145000Y-115316000D02*
X144145000Y-87884000D01*
X151765000Y-87884000D02*
X151765000Y-115316000D01*
D14*
G04 #@! TO.C,X1*
X120520000Y-74930000D02*
X126120000Y-74930000D01*
X126120000Y-74930000D02*
X126120000Y-127000000D01*
X126120000Y-127000000D02*
X120520000Y-127000000D01*
X120520000Y-127000000D02*
X120520000Y-74930000D01*
G04 #@! TO.C,X2*
X154934000Y-127000000D02*
X154934000Y-74930000D01*
X160534000Y-127000000D02*
X154934000Y-127000000D01*
X160534000Y-74930000D02*
X160534000Y-127000000D01*
X154934000Y-74930000D02*
X160534000Y-74930000D01*
D12*
G04 #@! TO.C,C1*
X129040000Y-117055000D02*
X130040000Y-117055000D01*
X130040000Y-115355000D02*
X129040000Y-115355000D01*
G04 #@! TO.C,C3*
X143645000Y-117055000D02*
X144645000Y-117055000D01*
X144645000Y-115355000D02*
X143645000Y-115355000D01*
G04 #@! TO.C,C6*
X140470000Y-87210000D02*
X141470000Y-87210000D01*
X141470000Y-85510000D02*
X140470000Y-85510000D01*
G04 #@! TO.C,C7*
D13*
X140930333Y-80240142D02*
X140882714Y-80287761D01*
X140739857Y-80335380D01*
X140644619Y-80335380D01*
X140501761Y-80287761D01*
X140406523Y-80192523D01*
X140358904Y-80097285D01*
X140311285Y-79906809D01*
X140311285Y-79763952D01*
X140358904Y-79573476D01*
X140406523Y-79478238D01*
X140501761Y-79383000D01*
X140644619Y-79335380D01*
X140739857Y-79335380D01*
X140882714Y-79383000D01*
X140930333Y-79430619D01*
X141263666Y-79335380D02*
X141930333Y-79335380D01*
X141501761Y-80335380D01*
G04 #@! TO.C,U2*
X132802380Y-102361904D02*
X133611904Y-102361904D01*
X133707142Y-102314285D01*
X133754761Y-102266666D01*
X133802380Y-102171428D01*
X133802380Y-101980952D01*
X133754761Y-101885714D01*
X133707142Y-101838095D01*
X133611904Y-101790476D01*
X132802380Y-101790476D01*
X132897619Y-101361904D02*
X132850000Y-101314285D01*
X132802380Y-101219047D01*
X132802380Y-100980952D01*
X132850000Y-100885714D01*
X132897619Y-100838095D01*
X132992857Y-100790476D01*
X133088095Y-100790476D01*
X133230952Y-100838095D01*
X133802380Y-101409523D01*
X133802380Y-100790476D01*
G04 #@! TO.C,U1*
X147407380Y-102361904D02*
X148216904Y-102361904D01*
X148312142Y-102314285D01*
X148359761Y-102266666D01*
X148407380Y-102171428D01*
X148407380Y-101980952D01*
X148359761Y-101885714D01*
X148312142Y-101838095D01*
X148216904Y-101790476D01*
X147407380Y-101790476D01*
X148407380Y-100790476D02*
X148407380Y-101361904D01*
X148407380Y-101076190D02*
X147407380Y-101076190D01*
X147550238Y-101171428D01*
X147645476Y-101266666D01*
X147693095Y-101361904D01*
G04 #@! TO.C,X1*
X127079476Y-75144380D02*
X127746142Y-76144380D01*
X127746142Y-75144380D02*
X127079476Y-76144380D01*
X128650904Y-76144380D02*
X128079476Y-76144380D01*
X128365190Y-76144380D02*
X128365190Y-75144380D01*
X128269952Y-75287238D01*
X128174714Y-75382476D01*
X128079476Y-75430095D01*
G04 #@! TO.C,X2*
X152606476Y-75271380D02*
X153273142Y-76271380D01*
X153273142Y-75271380D02*
X152606476Y-76271380D01*
X153606476Y-75366619D02*
X153654095Y-75319000D01*
X153749333Y-75271380D01*
X153987428Y-75271380D01*
X154082666Y-75319000D01*
X154130285Y-75366619D01*
X154177904Y-75461857D01*
X154177904Y-75557095D01*
X154130285Y-75699952D01*
X153558857Y-76271380D01*
X154177904Y-76271380D01*
G04 #@! TO.C,C1*
X131532333Y-118213142D02*
X131484714Y-118260761D01*
X131341857Y-118308380D01*
X131246619Y-118308380D01*
X131103761Y-118260761D01*
X131008523Y-118165523D01*
X130960904Y-118070285D01*
X130913285Y-117879809D01*
X130913285Y-117736952D01*
X130960904Y-117546476D01*
X131008523Y-117451238D01*
X131103761Y-117356000D01*
X131246619Y-117308380D01*
X131341857Y-117308380D01*
X131484714Y-117356000D01*
X131532333Y-117403619D01*
X132484714Y-118308380D02*
X131913285Y-118308380D01*
X132199000Y-118308380D02*
X132199000Y-117308380D01*
X132103761Y-117451238D01*
X132008523Y-117546476D01*
X131913285Y-117594095D01*
G04 #@! TO.C,C3*
X146391333Y-118213142D02*
X146343714Y-118260761D01*
X146200857Y-118308380D01*
X146105619Y-118308380D01*
X145962761Y-118260761D01*
X145867523Y-118165523D01*
X145819904Y-118070285D01*
X145772285Y-117879809D01*
X145772285Y-117736952D01*
X145819904Y-117546476D01*
X145867523Y-117451238D01*
X145962761Y-117356000D01*
X146105619Y-117308380D01*
X146200857Y-117308380D01*
X146343714Y-117356000D01*
X146391333Y-117403619D01*
X146724666Y-117308380D02*
X147343714Y-117308380D01*
X147010380Y-117689333D01*
X147153238Y-117689333D01*
X147248476Y-117736952D01*
X147296095Y-117784571D01*
X147343714Y-117879809D01*
X147343714Y-118117904D01*
X147296095Y-118213142D01*
X147248476Y-118260761D01*
X147153238Y-118308380D01*
X146867523Y-118308380D01*
X146772285Y-118260761D01*
X146724666Y-118213142D01*
G04 #@! TO.C,C6*
X138009333Y-86717142D02*
X137961714Y-86764761D01*
X137818857Y-86812380D01*
X137723619Y-86812380D01*
X137580761Y-86764761D01*
X137485523Y-86669523D01*
X137437904Y-86574285D01*
X137390285Y-86383809D01*
X137390285Y-86240952D01*
X137437904Y-86050476D01*
X137485523Y-85955238D01*
X137580761Y-85860000D01*
X137723619Y-85812380D01*
X137818857Y-85812380D01*
X137961714Y-85860000D01*
X138009333Y-85907619D01*
X138866476Y-85812380D02*
X138676000Y-85812380D01*
X138580761Y-85860000D01*
X138533142Y-85907619D01*
X138437904Y-86050476D01*
X138390285Y-86240952D01*
X138390285Y-86621904D01*
X138437904Y-86717142D01*
X138485523Y-86764761D01*
X138580761Y-86812380D01*
X138771238Y-86812380D01*
X138866476Y-86764761D01*
X138914095Y-86717142D01*
X138961714Y-86621904D01*
X138961714Y-86383809D01*
X138914095Y-86288571D01*
X138866476Y-86240952D01*
X138771238Y-86193333D01*
X138580761Y-86193333D01*
X138485523Y-86240952D01*
X138437904Y-86288571D01*
X138390285Y-86383809D01*
G04 #@! TD*
M02*
