G04 #@! TF.GenerationSoftware,KiCad,Pcbnew,(5.0.1-3-g963ef8bb5)*
G04 #@! TF.CreationDate,2019-05-18T06:30:10-07:00*
G04 #@! TF.ProjectId,oakram,6F616B72616D2E6B696361645F706362,3.0*
G04 #@! TF.SameCoordinates,Original*
G04 #@! TF.FileFunction,Copper,L2,Inr,Plane*
G04 #@! TF.FilePolarity,Positive*
%FSLAX46Y46*%
G04 Gerber Fmt 4.6, Leading zero omitted, Abs format (unit mm)*
G04 Created by KiCad (PCBNEW (5.0.1-3-g963ef8bb5)) date Saturday, May 18, 2019 at 06:30:10 AM*
%MOMM*%
%LPD*%
G01*
G04 APERTURE LIST*
G04 #@! TA.AperFunction,ViaPad*
%ADD10C,1.700000*%
G04 #@! TD*
G04 #@! TA.AperFunction,ViaPad*
%ADD11C,0.700000*%
G04 #@! TD*
G04 #@! TA.AperFunction,ViaPad*
%ADD12C,1.000000*%
G04 #@! TD*
G04 #@! TA.AperFunction,Conductor*
%ADD13C,0.025400*%
G04 #@! TD*
G04 APERTURE END LIST*
D10*
G04 #@! TO.N,/D8*
G04 #@! TO.C,X1*
X121920000Y-76200000D03*
G04 #@! TO.N,/D9*
X124720000Y-77470000D03*
G04 #@! TO.N,/D10*
X121920000Y-78740000D03*
G04 #@! TO.N,/D11*
X124720000Y-80010000D03*
G04 #@! TO.N,/D13*
X121920000Y-83820000D03*
G04 #@! TO.N,VSS*
X121920000Y-81280000D03*
G04 #@! TO.N,/D12*
X124720000Y-82550000D03*
G04 #@! TO.N,/D14*
X124720000Y-85090000D03*
G04 #@! TO.N,VCC*
X121920000Y-88900000D03*
X124720000Y-95250000D03*
G04 #@! TO.N,/D15*
X121920000Y-86360000D03*
G04 #@! TO.N,/D2*
X124720000Y-92710000D03*
G04 #@! TO.N,VSS*
X124720000Y-87630000D03*
G04 #@! TO.N,/D0*
X124720000Y-90170000D03*
G04 #@! TO.N,/D1*
X121920000Y-91440000D03*
G04 #@! TO.N,/D3*
X121920000Y-93980000D03*
G04 #@! TO.N,/D6*
X121920000Y-99060000D03*
G04 #@! TO.N,/A1*
X121920000Y-109220000D03*
G04 #@! TO.N,/~RAS*
X124720000Y-105410000D03*
G04 #@! TO.N,/D4*
X121920000Y-96520000D03*
G04 #@! TO.N,/A2*
X124720000Y-110490000D03*
G04 #@! TO.N,Net-(X1-Pad25)*
X121920000Y-106680000D03*
G04 #@! TO.N,/A9*
X124720000Y-102870000D03*
G04 #@! TO.N,Net-(X1-Pad32)*
X124720000Y-115570000D03*
G04 #@! TO.N,/D5*
X124720000Y-97790000D03*
G04 #@! TO.N,/D7*
X124720000Y-100330000D03*
G04 #@! TO.N,Net-(X1-Pad21)*
X121920000Y-101600000D03*
G04 #@! TO.N,/~WE*
X121920000Y-104140000D03*
G04 #@! TO.N,/A0*
X124720000Y-107950000D03*
G04 #@! TO.N,/A3*
X121920000Y-111760000D03*
G04 #@! TO.N,VSS*
X121920000Y-114300000D03*
G04 #@! TO.N,VCC*
X124720000Y-113030000D03*
G04 #@! TO.N,/~OE*
X121920000Y-121920000D03*
G04 #@! TO.N,Net-(X1-Pad34)*
X124720000Y-118110000D03*
G04 #@! TO.N,Net-(X1-Pad36)*
X124720000Y-120650000D03*
G04 #@! TO.N,/~CAS0*
X121920000Y-124460000D03*
G04 #@! TO.N,Net-(X1-Pad40)*
X124720000Y-125730000D03*
G04 #@! TO.N,Net-(X1-Pad35)*
X121920000Y-119380000D03*
G04 #@! TO.N,Net-(X1-Pad33)*
X121920000Y-116840000D03*
G04 #@! TO.N,/~CAS1*
X124720000Y-123190000D03*
G04 #@! TD*
G04 #@! TO.N,/~CAS3*
G04 #@! TO.C,X2*
X159134000Y-123190000D03*
G04 #@! TO.N,/A5*
X156334000Y-116840000D03*
G04 #@! TO.N,/A7*
X156334000Y-119380000D03*
G04 #@! TO.N,Net-(X2-Pad40)*
X159134000Y-125730000D03*
G04 #@! TO.N,/~CAS2*
X156334000Y-124460000D03*
G04 #@! TO.N,/A8*
X159134000Y-120650000D03*
G04 #@! TO.N,/A6*
X159134000Y-118110000D03*
G04 #@! TO.N,/~OE*
X156334000Y-121920000D03*
G04 #@! TO.N,VCC*
X159134000Y-113030000D03*
G04 #@! TO.N,VSS*
X156334000Y-114300000D03*
G04 #@! TO.N,Net-(X2-Pad29)*
X156334000Y-111760000D03*
G04 #@! TO.N,Net-(X2-Pad26)*
X159134000Y-107950000D03*
G04 #@! TO.N,Net-(X2-Pad23)*
X156334000Y-104140000D03*
G04 #@! TO.N,Net-(X2-Pad21)*
X156334000Y-101600000D03*
G04 #@! TO.N,/D23*
X159134000Y-100330000D03*
G04 #@! TO.N,/D21*
X159134000Y-97790000D03*
G04 #@! TO.N,/A4*
X159134000Y-115570000D03*
G04 #@! TO.N,Net-(X2-Pad22)*
X159134000Y-102870000D03*
G04 #@! TO.N,Net-(X2-Pad25)*
X156334000Y-106680000D03*
G04 #@! TO.N,Net-(X2-Pad28)*
X159134000Y-110490000D03*
G04 #@! TO.N,/D20*
X156334000Y-96520000D03*
G04 #@! TO.N,Net-(X2-Pad24)*
X159134000Y-105410000D03*
G04 #@! TO.N,Net-(X2-Pad27)*
X156334000Y-109220000D03*
G04 #@! TO.N,/D22*
X156334000Y-99060000D03*
G04 #@! TO.N,/D19*
X156334000Y-93980000D03*
G04 #@! TO.N,/D17*
X156334000Y-91440000D03*
G04 #@! TO.N,/D16*
X159134000Y-90170000D03*
G04 #@! TO.N,VSS*
X159134000Y-87630000D03*
G04 #@! TO.N,/D18*
X159134000Y-92710000D03*
G04 #@! TO.N,/D31*
X156334000Y-86360000D03*
G04 #@! TO.N,VCC*
X159134000Y-95250000D03*
X156334000Y-88900000D03*
G04 #@! TO.N,/D30*
X159134000Y-85090000D03*
G04 #@! TO.N,/D28*
X159134000Y-82550000D03*
G04 #@! TO.N,VSS*
X156334000Y-81280000D03*
G04 #@! TO.N,/D29*
X156334000Y-83820000D03*
G04 #@! TO.N,/D27*
X159134000Y-80010000D03*
G04 #@! TO.N,/D26*
X156334000Y-78740000D03*
G04 #@! TO.N,/D25*
X159134000Y-77470000D03*
G04 #@! TO.N,/D24*
X156334000Y-76200000D03*
G04 #@! TD*
D11*
G04 #@! TO.N,/A9*
X134747000Y-102235000D03*
X136017000Y-106680000D03*
G04 #@! TO.N,/A4*
X149860000Y-113030000D03*
G04 #@! TO.N,/~OE*
X132588000Y-121793000D03*
X134620000Y-105537000D03*
X145796000Y-105537000D03*
G04 #@! TO.N,/A6*
X147955000Y-110490000D03*
G04 #@! TO.N,/A8*
X146431000Y-107950000D03*
G04 #@! TO.N,/~CAS0*
X132207000Y-102870000D03*
G04 #@! TO.N,/A7*
X147193000Y-109220000D03*
G04 #@! TO.N,/A5*
X148844000Y-111760000D03*
G04 #@! TO.N,/~CAS1*
X130937000Y-104267000D03*
G04 #@! TO.N,VSS*
X130302000Y-92837000D03*
X153035000Y-87947500D03*
X140208000Y-88900000D03*
X151066500Y-95250000D03*
X136398000Y-95250000D03*
X138620500Y-86360000D03*
X136207500Y-82550000D03*
X150939500Y-114300000D03*
X138430000Y-115189000D03*
X145097500Y-117538500D03*
X131572000Y-116141500D03*
X140970000Y-99250500D03*
X130175000Y-99250500D03*
G04 #@! TO.N,VCC*
X130302000Y-88900000D03*
D12*
X145986500Y-82550000D03*
X143510000Y-79375000D03*
D11*
X141986000Y-116205000D03*
X127317500Y-116268500D03*
X143319500Y-86360000D03*
X140970000Y-95250000D03*
X130111500Y-95250000D03*
G04 #@! TD*
D13*
G04 #@! TO.N,VSS*
G36*
X161467770Y-74117162D02*
X161341009Y-127293300D01*
X119721700Y-127293300D01*
X119721700Y-125951151D01*
X123603107Y-125951151D01*
X123772756Y-126361733D01*
X124086615Y-126676140D01*
X124496900Y-126846505D01*
X124941151Y-126846893D01*
X125351733Y-126677244D01*
X125666140Y-126363385D01*
X125836505Y-125953100D01*
X125836506Y-125951151D01*
X158017107Y-125951151D01*
X158186756Y-126361733D01*
X158500615Y-126676140D01*
X158910900Y-126846505D01*
X159355151Y-126846893D01*
X159765733Y-126677244D01*
X160080140Y-126363385D01*
X160250505Y-125953100D01*
X160250893Y-125508849D01*
X160081244Y-125098267D01*
X159767385Y-124783860D01*
X159357100Y-124613495D01*
X158912849Y-124613107D01*
X158502267Y-124782756D01*
X158187860Y-125096615D01*
X158017495Y-125506900D01*
X158017107Y-125951151D01*
X125836506Y-125951151D01*
X125836893Y-125508849D01*
X125667244Y-125098267D01*
X125353385Y-124783860D01*
X125106034Y-124681151D01*
X155217107Y-124681151D01*
X155386756Y-125091733D01*
X155700615Y-125406140D01*
X156110900Y-125576505D01*
X156555151Y-125576893D01*
X156965733Y-125407244D01*
X157280140Y-125093385D01*
X157450505Y-124683100D01*
X157450893Y-124238849D01*
X157281244Y-123828267D01*
X156967385Y-123513860D01*
X156720034Y-123411151D01*
X158017107Y-123411151D01*
X158186756Y-123821733D01*
X158500615Y-124136140D01*
X158910900Y-124306505D01*
X159355151Y-124306893D01*
X159765733Y-124137244D01*
X160080140Y-123823385D01*
X160250505Y-123413100D01*
X160250893Y-122968849D01*
X160081244Y-122558267D01*
X159767385Y-122243860D01*
X159357100Y-122073495D01*
X158912849Y-122073107D01*
X158502267Y-122242756D01*
X158187860Y-122556615D01*
X158017495Y-122966900D01*
X158017107Y-123411151D01*
X156720034Y-123411151D01*
X156557100Y-123343495D01*
X156112849Y-123343107D01*
X155702267Y-123512756D01*
X155387860Y-123826615D01*
X155217495Y-124236900D01*
X155217107Y-124681151D01*
X125106034Y-124681151D01*
X124943100Y-124613495D01*
X124498849Y-124613107D01*
X124088267Y-124782756D01*
X123773860Y-125096615D01*
X123603495Y-125506900D01*
X123603107Y-125951151D01*
X119721700Y-125951151D01*
X119721700Y-124681151D01*
X120803107Y-124681151D01*
X120972756Y-125091733D01*
X121286615Y-125406140D01*
X121696900Y-125576505D01*
X122141151Y-125576893D01*
X122551733Y-125407244D01*
X122866140Y-125093385D01*
X123036505Y-124683100D01*
X123036893Y-124238849D01*
X122867244Y-123828267D01*
X122553385Y-123513860D01*
X122306034Y-123411151D01*
X123603107Y-123411151D01*
X123772756Y-123821733D01*
X124086615Y-124136140D01*
X124496900Y-124306505D01*
X124941151Y-124306893D01*
X125351733Y-124137244D01*
X125666140Y-123823385D01*
X125836505Y-123413100D01*
X125836893Y-122968849D01*
X125667244Y-122558267D01*
X125353385Y-122243860D01*
X124943100Y-122073495D01*
X124498849Y-122073107D01*
X124088267Y-122242756D01*
X123773860Y-122556615D01*
X123603495Y-122966900D01*
X123603107Y-123411151D01*
X122306034Y-123411151D01*
X122143100Y-123343495D01*
X121698849Y-123343107D01*
X121288267Y-123512756D01*
X120973860Y-123826615D01*
X120803495Y-124236900D01*
X120803107Y-124681151D01*
X119721700Y-124681151D01*
X119721700Y-122141151D01*
X120803107Y-122141151D01*
X120972756Y-122551733D01*
X121286615Y-122866140D01*
X121696900Y-123036505D01*
X122141151Y-123036893D01*
X122551733Y-122867244D01*
X122866140Y-122553385D01*
X123036505Y-122143100D01*
X123036704Y-121915131D01*
X131971193Y-121915131D01*
X132064882Y-122141876D01*
X132238211Y-122315508D01*
X132464793Y-122409593D01*
X132710131Y-122409807D01*
X132936876Y-122316118D01*
X133110508Y-122142789D01*
X133111188Y-122141151D01*
X155217107Y-122141151D01*
X155386756Y-122551733D01*
X155700615Y-122866140D01*
X156110900Y-123036505D01*
X156555151Y-123036893D01*
X156965733Y-122867244D01*
X157280140Y-122553385D01*
X157450505Y-122143100D01*
X157450893Y-121698849D01*
X157281244Y-121288267D01*
X156967385Y-120973860D01*
X156720034Y-120871151D01*
X158017107Y-120871151D01*
X158186756Y-121281733D01*
X158500615Y-121596140D01*
X158910900Y-121766505D01*
X159355151Y-121766893D01*
X159765733Y-121597244D01*
X160080140Y-121283385D01*
X160250505Y-120873100D01*
X160250893Y-120428849D01*
X160081244Y-120018267D01*
X159767385Y-119703860D01*
X159357100Y-119533495D01*
X158912849Y-119533107D01*
X158502267Y-119702756D01*
X158187860Y-120016615D01*
X158017495Y-120426900D01*
X158017107Y-120871151D01*
X156720034Y-120871151D01*
X156557100Y-120803495D01*
X156112849Y-120803107D01*
X155702267Y-120972756D01*
X155387860Y-121286615D01*
X155217495Y-121696900D01*
X155217107Y-122141151D01*
X133111188Y-122141151D01*
X133204593Y-121916207D01*
X133204807Y-121670869D01*
X133111118Y-121444124D01*
X132937789Y-121270492D01*
X132711207Y-121176407D01*
X132465869Y-121176193D01*
X132239124Y-121269882D01*
X132065492Y-121443211D01*
X131971407Y-121669793D01*
X131971193Y-121915131D01*
X123036704Y-121915131D01*
X123036893Y-121698849D01*
X122867244Y-121288267D01*
X122553385Y-120973860D01*
X122306034Y-120871151D01*
X123603107Y-120871151D01*
X123772756Y-121281733D01*
X124086615Y-121596140D01*
X124496900Y-121766505D01*
X124941151Y-121766893D01*
X125351733Y-121597244D01*
X125666140Y-121283385D01*
X125836505Y-120873100D01*
X125836893Y-120428849D01*
X125667244Y-120018267D01*
X125353385Y-119703860D01*
X125106034Y-119601151D01*
X155217107Y-119601151D01*
X155386756Y-120011733D01*
X155700615Y-120326140D01*
X156110900Y-120496505D01*
X156555151Y-120496893D01*
X156965733Y-120327244D01*
X157280140Y-120013385D01*
X157450505Y-119603100D01*
X157450893Y-119158849D01*
X157281244Y-118748267D01*
X156967385Y-118433860D01*
X156720034Y-118331151D01*
X158017107Y-118331151D01*
X158186756Y-118741733D01*
X158500615Y-119056140D01*
X158910900Y-119226505D01*
X159355151Y-119226893D01*
X159765733Y-119057244D01*
X160080140Y-118743385D01*
X160250505Y-118333100D01*
X160250893Y-117888849D01*
X160081244Y-117478267D01*
X159767385Y-117163860D01*
X159357100Y-116993495D01*
X158912849Y-116993107D01*
X158502267Y-117162756D01*
X158187860Y-117476615D01*
X158017495Y-117886900D01*
X158017107Y-118331151D01*
X156720034Y-118331151D01*
X156557100Y-118263495D01*
X156112849Y-118263107D01*
X155702267Y-118432756D01*
X155387860Y-118746615D01*
X155217495Y-119156900D01*
X155217107Y-119601151D01*
X125106034Y-119601151D01*
X124943100Y-119533495D01*
X124498849Y-119533107D01*
X124088267Y-119702756D01*
X123773860Y-120016615D01*
X123603495Y-120426900D01*
X123603107Y-120871151D01*
X122306034Y-120871151D01*
X122143100Y-120803495D01*
X121698849Y-120803107D01*
X121288267Y-120972756D01*
X120973860Y-121286615D01*
X120803495Y-121696900D01*
X120803107Y-122141151D01*
X119721700Y-122141151D01*
X119721700Y-119601151D01*
X120803107Y-119601151D01*
X120972756Y-120011733D01*
X121286615Y-120326140D01*
X121696900Y-120496505D01*
X122141151Y-120496893D01*
X122551733Y-120327244D01*
X122866140Y-120013385D01*
X123036505Y-119603100D01*
X123036893Y-119158849D01*
X122867244Y-118748267D01*
X122553385Y-118433860D01*
X122306034Y-118331151D01*
X123603107Y-118331151D01*
X123772756Y-118741733D01*
X124086615Y-119056140D01*
X124496900Y-119226505D01*
X124941151Y-119226893D01*
X125351733Y-119057244D01*
X125666140Y-118743385D01*
X125836505Y-118333100D01*
X125836893Y-117888849D01*
X125667244Y-117478267D01*
X125353385Y-117163860D01*
X125106034Y-117061151D01*
X155217107Y-117061151D01*
X155386756Y-117471733D01*
X155700615Y-117786140D01*
X156110900Y-117956505D01*
X156555151Y-117956893D01*
X156965733Y-117787244D01*
X157280140Y-117473385D01*
X157450505Y-117063100D01*
X157450893Y-116618849D01*
X157281244Y-116208267D01*
X156967385Y-115893860D01*
X156720034Y-115791151D01*
X158017107Y-115791151D01*
X158186756Y-116201733D01*
X158500615Y-116516140D01*
X158910900Y-116686505D01*
X159355151Y-116686893D01*
X159765733Y-116517244D01*
X160080140Y-116203385D01*
X160250505Y-115793100D01*
X160250893Y-115348849D01*
X160081244Y-114938267D01*
X159767385Y-114623860D01*
X159357100Y-114453495D01*
X158912849Y-114453107D01*
X158502267Y-114622756D01*
X158187860Y-114936615D01*
X158017495Y-115346900D01*
X158017107Y-115791151D01*
X156720034Y-115791151D01*
X156557100Y-115723495D01*
X156112849Y-115723107D01*
X155702267Y-115892756D01*
X155387860Y-116206615D01*
X155217495Y-116616900D01*
X155217107Y-117061151D01*
X125106034Y-117061151D01*
X124943100Y-116993495D01*
X124498849Y-116993107D01*
X124088267Y-117162756D01*
X123773860Y-117476615D01*
X123603495Y-117886900D01*
X123603107Y-118331151D01*
X122306034Y-118331151D01*
X122143100Y-118263495D01*
X121698849Y-118263107D01*
X121288267Y-118432756D01*
X120973860Y-118746615D01*
X120803495Y-119156900D01*
X120803107Y-119601151D01*
X119721700Y-119601151D01*
X119721700Y-117061151D01*
X120803107Y-117061151D01*
X120972756Y-117471733D01*
X121286615Y-117786140D01*
X121696900Y-117956505D01*
X122141151Y-117956893D01*
X122551733Y-117787244D01*
X122866140Y-117473385D01*
X123036505Y-117063100D01*
X123036893Y-116618849D01*
X122867244Y-116208267D01*
X122553385Y-115893860D01*
X122306034Y-115791151D01*
X123603107Y-115791151D01*
X123772756Y-116201733D01*
X124086615Y-116516140D01*
X124496900Y-116686505D01*
X124941151Y-116686893D01*
X125351733Y-116517244D01*
X125478567Y-116390631D01*
X126700693Y-116390631D01*
X126794382Y-116617376D01*
X126967711Y-116791008D01*
X127194293Y-116885093D01*
X127439631Y-116885307D01*
X127666376Y-116791618D01*
X127840008Y-116618289D01*
X127934093Y-116391707D01*
X127934149Y-116327131D01*
X141369193Y-116327131D01*
X141462882Y-116553876D01*
X141636211Y-116727508D01*
X141862793Y-116821593D01*
X142108131Y-116821807D01*
X142334876Y-116728118D01*
X142508508Y-116554789D01*
X142602593Y-116328207D01*
X142602807Y-116082869D01*
X142509118Y-115856124D01*
X142335789Y-115682492D01*
X142109207Y-115588407D01*
X141863869Y-115588193D01*
X141637124Y-115681882D01*
X141463492Y-115855211D01*
X141369407Y-116081793D01*
X141369193Y-116327131D01*
X127934149Y-116327131D01*
X127934307Y-116146369D01*
X127840618Y-115919624D01*
X127667289Y-115745992D01*
X127440707Y-115651907D01*
X127195369Y-115651693D01*
X126968624Y-115745382D01*
X126794992Y-115918711D01*
X126700907Y-116145293D01*
X126700693Y-116390631D01*
X125478567Y-116390631D01*
X125666140Y-116203385D01*
X125836505Y-115793100D01*
X125836891Y-115350404D01*
X155624845Y-115350404D01*
X155720091Y-115555497D01*
X156247280Y-115694861D01*
X156787671Y-115621870D01*
X156947909Y-115555497D01*
X157043155Y-115350404D01*
X156334000Y-114641250D01*
X155624845Y-115350404D01*
X125836891Y-115350404D01*
X125836893Y-115348849D01*
X125667244Y-114938267D01*
X125353385Y-114623860D01*
X124943100Y-114453495D01*
X124498849Y-114453107D01*
X124088267Y-114622756D01*
X123773860Y-114936615D01*
X123603495Y-115346900D01*
X123603107Y-115791151D01*
X122306034Y-115791151D01*
X122143100Y-115723495D01*
X121698849Y-115723107D01*
X121288267Y-115892756D01*
X120973860Y-116206615D01*
X120803495Y-116616900D01*
X120803107Y-117061151D01*
X119721700Y-117061151D01*
X119721700Y-115350404D01*
X121210845Y-115350404D01*
X121306091Y-115555497D01*
X121833280Y-115694861D01*
X122373671Y-115621870D01*
X122533909Y-115555497D01*
X122629155Y-115350404D01*
X121920000Y-114641250D01*
X121210845Y-115350404D01*
X119721700Y-115350404D01*
X119721700Y-114213280D01*
X120525139Y-114213280D01*
X120598130Y-114753671D01*
X120664503Y-114913909D01*
X120869596Y-115009155D01*
X121578750Y-114300000D01*
X122261250Y-114300000D01*
X122970404Y-115009155D01*
X123175497Y-114913909D01*
X123314861Y-114386720D01*
X123291435Y-114213280D01*
X154939139Y-114213280D01*
X155012130Y-114753671D01*
X155078503Y-114913909D01*
X155283596Y-115009155D01*
X155992750Y-114300000D01*
X156675250Y-114300000D01*
X157384404Y-115009155D01*
X157589497Y-114913909D01*
X157728861Y-114386720D01*
X157655870Y-113846329D01*
X157589497Y-113686091D01*
X157384404Y-113590845D01*
X156675250Y-114300000D01*
X155992750Y-114300000D01*
X155283596Y-113590845D01*
X155078503Y-113686091D01*
X154939139Y-114213280D01*
X123291435Y-114213280D01*
X123241870Y-113846329D01*
X123175497Y-113686091D01*
X122970404Y-113590845D01*
X122261250Y-114300000D01*
X121578750Y-114300000D01*
X120869596Y-113590845D01*
X120664503Y-113686091D01*
X120525139Y-114213280D01*
X119721700Y-114213280D01*
X119721700Y-113249596D01*
X121210845Y-113249596D01*
X121920000Y-113958750D01*
X122627599Y-113251151D01*
X123603107Y-113251151D01*
X123772756Y-113661733D01*
X124086615Y-113976140D01*
X124496900Y-114146505D01*
X124941151Y-114146893D01*
X125351733Y-113977244D01*
X125666140Y-113663385D01*
X125836505Y-113253100D01*
X125836593Y-113152131D01*
X149243193Y-113152131D01*
X149336882Y-113378876D01*
X149510211Y-113552508D01*
X149736793Y-113646593D01*
X149982131Y-113646807D01*
X150208876Y-113553118D01*
X150382508Y-113379789D01*
X150436568Y-113249596D01*
X155624845Y-113249596D01*
X156334000Y-113958750D01*
X157041599Y-113251151D01*
X158017107Y-113251151D01*
X158186756Y-113661733D01*
X158500615Y-113976140D01*
X158910900Y-114146505D01*
X159355151Y-114146893D01*
X159765733Y-113977244D01*
X160080140Y-113663385D01*
X160250505Y-113253100D01*
X160250893Y-112808849D01*
X160081244Y-112398267D01*
X159767385Y-112083860D01*
X159357100Y-111913495D01*
X158912849Y-111913107D01*
X158502267Y-112082756D01*
X158187860Y-112396615D01*
X158017495Y-112806900D01*
X158017107Y-113251151D01*
X157041599Y-113251151D01*
X157043155Y-113249596D01*
X156947909Y-113044503D01*
X156420720Y-112905139D01*
X155880329Y-112978130D01*
X155720091Y-113044503D01*
X155624845Y-113249596D01*
X150436568Y-113249596D01*
X150476593Y-113153207D01*
X150476807Y-112907869D01*
X150383118Y-112681124D01*
X150209789Y-112507492D01*
X149983207Y-112413407D01*
X149737869Y-112413193D01*
X149511124Y-112506882D01*
X149337492Y-112680211D01*
X149243407Y-112906793D01*
X149243193Y-113152131D01*
X125836593Y-113152131D01*
X125836893Y-112808849D01*
X125667244Y-112398267D01*
X125353385Y-112083860D01*
X124943100Y-111913495D01*
X124498849Y-111913107D01*
X124088267Y-112082756D01*
X123773860Y-112396615D01*
X123603495Y-112806900D01*
X123603107Y-113251151D01*
X122627599Y-113251151D01*
X122629155Y-113249596D01*
X122533909Y-113044503D01*
X122006720Y-112905139D01*
X121466329Y-112978130D01*
X121306091Y-113044503D01*
X121210845Y-113249596D01*
X119721700Y-113249596D01*
X119721700Y-111981151D01*
X120803107Y-111981151D01*
X120972756Y-112391733D01*
X121286615Y-112706140D01*
X121696900Y-112876505D01*
X122141151Y-112876893D01*
X122551733Y-112707244D01*
X122866140Y-112393385D01*
X123036505Y-111983100D01*
X123036593Y-111882131D01*
X148227193Y-111882131D01*
X148320882Y-112108876D01*
X148494211Y-112282508D01*
X148720793Y-112376593D01*
X148966131Y-112376807D01*
X149192876Y-112283118D01*
X149366508Y-112109789D01*
X149419923Y-111981151D01*
X155217107Y-111981151D01*
X155386756Y-112391733D01*
X155700615Y-112706140D01*
X156110900Y-112876505D01*
X156555151Y-112876893D01*
X156965733Y-112707244D01*
X157280140Y-112393385D01*
X157450505Y-111983100D01*
X157450893Y-111538849D01*
X157281244Y-111128267D01*
X156967385Y-110813860D01*
X156720034Y-110711151D01*
X158017107Y-110711151D01*
X158186756Y-111121733D01*
X158500615Y-111436140D01*
X158910900Y-111606505D01*
X159355151Y-111606893D01*
X159765733Y-111437244D01*
X160080140Y-111123385D01*
X160250505Y-110713100D01*
X160250893Y-110268849D01*
X160081244Y-109858267D01*
X159767385Y-109543860D01*
X159357100Y-109373495D01*
X158912849Y-109373107D01*
X158502267Y-109542756D01*
X158187860Y-109856615D01*
X158017495Y-110266900D01*
X158017107Y-110711151D01*
X156720034Y-110711151D01*
X156557100Y-110643495D01*
X156112849Y-110643107D01*
X155702267Y-110812756D01*
X155387860Y-111126615D01*
X155217495Y-111536900D01*
X155217107Y-111981151D01*
X149419923Y-111981151D01*
X149460593Y-111883207D01*
X149460807Y-111637869D01*
X149367118Y-111411124D01*
X149193789Y-111237492D01*
X148967207Y-111143407D01*
X148721869Y-111143193D01*
X148495124Y-111236882D01*
X148321492Y-111410211D01*
X148227407Y-111636793D01*
X148227193Y-111882131D01*
X123036593Y-111882131D01*
X123036893Y-111538849D01*
X122867244Y-111128267D01*
X122553385Y-110813860D01*
X122306034Y-110711151D01*
X123603107Y-110711151D01*
X123772756Y-111121733D01*
X124086615Y-111436140D01*
X124496900Y-111606505D01*
X124941151Y-111606893D01*
X125351733Y-111437244D01*
X125666140Y-111123385D01*
X125836505Y-110713100D01*
X125836593Y-110612131D01*
X147338193Y-110612131D01*
X147431882Y-110838876D01*
X147605211Y-111012508D01*
X147831793Y-111106593D01*
X148077131Y-111106807D01*
X148303876Y-111013118D01*
X148477508Y-110839789D01*
X148571593Y-110613207D01*
X148571807Y-110367869D01*
X148478118Y-110141124D01*
X148304789Y-109967492D01*
X148078207Y-109873407D01*
X147832869Y-109873193D01*
X147606124Y-109966882D01*
X147432492Y-110140211D01*
X147338407Y-110366793D01*
X147338193Y-110612131D01*
X125836593Y-110612131D01*
X125836893Y-110268849D01*
X125667244Y-109858267D01*
X125353385Y-109543860D01*
X124943100Y-109373495D01*
X124498849Y-109373107D01*
X124088267Y-109542756D01*
X123773860Y-109856615D01*
X123603495Y-110266900D01*
X123603107Y-110711151D01*
X122306034Y-110711151D01*
X122143100Y-110643495D01*
X121698849Y-110643107D01*
X121288267Y-110812756D01*
X120973860Y-111126615D01*
X120803495Y-111536900D01*
X120803107Y-111981151D01*
X119721700Y-111981151D01*
X119721700Y-109441151D01*
X120803107Y-109441151D01*
X120972756Y-109851733D01*
X121286615Y-110166140D01*
X121696900Y-110336505D01*
X122141151Y-110336893D01*
X122551733Y-110167244D01*
X122866140Y-109853385D01*
X123036505Y-109443100D01*
X123036593Y-109342131D01*
X146576193Y-109342131D01*
X146669882Y-109568876D01*
X146843211Y-109742508D01*
X147069793Y-109836593D01*
X147315131Y-109836807D01*
X147541876Y-109743118D01*
X147715508Y-109569789D01*
X147768923Y-109441151D01*
X155217107Y-109441151D01*
X155386756Y-109851733D01*
X155700615Y-110166140D01*
X156110900Y-110336505D01*
X156555151Y-110336893D01*
X156965733Y-110167244D01*
X157280140Y-109853385D01*
X157450505Y-109443100D01*
X157450893Y-108998849D01*
X157281244Y-108588267D01*
X156967385Y-108273860D01*
X156720034Y-108171151D01*
X158017107Y-108171151D01*
X158186756Y-108581733D01*
X158500615Y-108896140D01*
X158910900Y-109066505D01*
X159355151Y-109066893D01*
X159765733Y-108897244D01*
X160080140Y-108583385D01*
X160250505Y-108173100D01*
X160250893Y-107728849D01*
X160081244Y-107318267D01*
X159767385Y-107003860D01*
X159357100Y-106833495D01*
X158912849Y-106833107D01*
X158502267Y-107002756D01*
X158187860Y-107316615D01*
X158017495Y-107726900D01*
X158017107Y-108171151D01*
X156720034Y-108171151D01*
X156557100Y-108103495D01*
X156112849Y-108103107D01*
X155702267Y-108272756D01*
X155387860Y-108586615D01*
X155217495Y-108996900D01*
X155217107Y-109441151D01*
X147768923Y-109441151D01*
X147809593Y-109343207D01*
X147809807Y-109097869D01*
X147716118Y-108871124D01*
X147542789Y-108697492D01*
X147316207Y-108603407D01*
X147070869Y-108603193D01*
X146844124Y-108696882D01*
X146670492Y-108870211D01*
X146576407Y-109096793D01*
X146576193Y-109342131D01*
X123036593Y-109342131D01*
X123036893Y-108998849D01*
X122867244Y-108588267D01*
X122553385Y-108273860D01*
X122306034Y-108171151D01*
X123603107Y-108171151D01*
X123772756Y-108581733D01*
X124086615Y-108896140D01*
X124496900Y-109066505D01*
X124941151Y-109066893D01*
X125351733Y-108897244D01*
X125666140Y-108583385D01*
X125836505Y-108173100D01*
X125836593Y-108072131D01*
X145814193Y-108072131D01*
X145907882Y-108298876D01*
X146081211Y-108472508D01*
X146307793Y-108566593D01*
X146553131Y-108566807D01*
X146779876Y-108473118D01*
X146953508Y-108299789D01*
X147047593Y-108073207D01*
X147047807Y-107827869D01*
X146954118Y-107601124D01*
X146780789Y-107427492D01*
X146554207Y-107333407D01*
X146308869Y-107333193D01*
X146082124Y-107426882D01*
X145908492Y-107600211D01*
X145814407Y-107826793D01*
X145814193Y-108072131D01*
X125836593Y-108072131D01*
X125836893Y-107728849D01*
X125667244Y-107318267D01*
X125353385Y-107003860D01*
X124943100Y-106833495D01*
X124498849Y-106833107D01*
X124088267Y-107002756D01*
X123773860Y-107316615D01*
X123603495Y-107726900D01*
X123603107Y-108171151D01*
X122306034Y-108171151D01*
X122143100Y-108103495D01*
X121698849Y-108103107D01*
X121288267Y-108272756D01*
X120973860Y-108586615D01*
X120803495Y-108996900D01*
X120803107Y-109441151D01*
X119721700Y-109441151D01*
X119721700Y-106901151D01*
X120803107Y-106901151D01*
X120972756Y-107311733D01*
X121286615Y-107626140D01*
X121696900Y-107796505D01*
X122141151Y-107796893D01*
X122551733Y-107627244D01*
X122866140Y-107313385D01*
X123036505Y-106903100D01*
X123036593Y-106802131D01*
X135400193Y-106802131D01*
X135493882Y-107028876D01*
X135667211Y-107202508D01*
X135893793Y-107296593D01*
X136139131Y-107296807D01*
X136365876Y-107203118D01*
X136539508Y-107029789D01*
X136592923Y-106901151D01*
X155217107Y-106901151D01*
X155386756Y-107311733D01*
X155700615Y-107626140D01*
X156110900Y-107796505D01*
X156555151Y-107796893D01*
X156965733Y-107627244D01*
X157280140Y-107313385D01*
X157450505Y-106903100D01*
X157450893Y-106458849D01*
X157281244Y-106048267D01*
X156967385Y-105733860D01*
X156720034Y-105631151D01*
X158017107Y-105631151D01*
X158186756Y-106041733D01*
X158500615Y-106356140D01*
X158910900Y-106526505D01*
X159355151Y-106526893D01*
X159765733Y-106357244D01*
X160080140Y-106043385D01*
X160250505Y-105633100D01*
X160250893Y-105188849D01*
X160081244Y-104778267D01*
X159767385Y-104463860D01*
X159357100Y-104293495D01*
X158912849Y-104293107D01*
X158502267Y-104462756D01*
X158187860Y-104776615D01*
X158017495Y-105186900D01*
X158017107Y-105631151D01*
X156720034Y-105631151D01*
X156557100Y-105563495D01*
X156112849Y-105563107D01*
X155702267Y-105732756D01*
X155387860Y-106046615D01*
X155217495Y-106456900D01*
X155217107Y-106901151D01*
X136592923Y-106901151D01*
X136633593Y-106803207D01*
X136633807Y-106557869D01*
X136540118Y-106331124D01*
X136366789Y-106157492D01*
X136140207Y-106063407D01*
X135894869Y-106063193D01*
X135668124Y-106156882D01*
X135494492Y-106330211D01*
X135400407Y-106556793D01*
X135400193Y-106802131D01*
X123036593Y-106802131D01*
X123036893Y-106458849D01*
X122867244Y-106048267D01*
X122553385Y-105733860D01*
X122306034Y-105631151D01*
X123603107Y-105631151D01*
X123772756Y-106041733D01*
X124086615Y-106356140D01*
X124496900Y-106526505D01*
X124941151Y-106526893D01*
X125351733Y-106357244D01*
X125666140Y-106043385D01*
X125825695Y-105659131D01*
X134003193Y-105659131D01*
X134096882Y-105885876D01*
X134270211Y-106059508D01*
X134496793Y-106153593D01*
X134742131Y-106153807D01*
X134968876Y-106060118D01*
X135142508Y-105886789D01*
X135236593Y-105660207D01*
X135236593Y-105659131D01*
X145179193Y-105659131D01*
X145272882Y-105885876D01*
X145446211Y-106059508D01*
X145672793Y-106153593D01*
X145918131Y-106153807D01*
X146144876Y-106060118D01*
X146318508Y-105886789D01*
X146412593Y-105660207D01*
X146412807Y-105414869D01*
X146319118Y-105188124D01*
X146145789Y-105014492D01*
X145919207Y-104920407D01*
X145673869Y-104920193D01*
X145447124Y-105013882D01*
X145273492Y-105187211D01*
X145179407Y-105413793D01*
X145179193Y-105659131D01*
X135236593Y-105659131D01*
X135236807Y-105414869D01*
X135143118Y-105188124D01*
X134969789Y-105014492D01*
X134743207Y-104920407D01*
X134497869Y-104920193D01*
X134271124Y-105013882D01*
X134097492Y-105187211D01*
X134003407Y-105413793D01*
X134003193Y-105659131D01*
X125825695Y-105659131D01*
X125836505Y-105633100D01*
X125836893Y-105188849D01*
X125667244Y-104778267D01*
X125353385Y-104463860D01*
X125173418Y-104389131D01*
X130320193Y-104389131D01*
X130413882Y-104615876D01*
X130587211Y-104789508D01*
X130813793Y-104883593D01*
X131059131Y-104883807D01*
X131285876Y-104790118D01*
X131459508Y-104616789D01*
X131553593Y-104390207D01*
X131553618Y-104361151D01*
X155217107Y-104361151D01*
X155386756Y-104771733D01*
X155700615Y-105086140D01*
X156110900Y-105256505D01*
X156555151Y-105256893D01*
X156965733Y-105087244D01*
X157280140Y-104773385D01*
X157450505Y-104363100D01*
X157450893Y-103918849D01*
X157281244Y-103508267D01*
X156967385Y-103193860D01*
X156720034Y-103091151D01*
X158017107Y-103091151D01*
X158186756Y-103501733D01*
X158500615Y-103816140D01*
X158910900Y-103986505D01*
X159355151Y-103986893D01*
X159765733Y-103817244D01*
X160080140Y-103503385D01*
X160250505Y-103093100D01*
X160250893Y-102648849D01*
X160081244Y-102238267D01*
X159767385Y-101923860D01*
X159357100Y-101753495D01*
X158912849Y-101753107D01*
X158502267Y-101922756D01*
X158187860Y-102236615D01*
X158017495Y-102646900D01*
X158017107Y-103091151D01*
X156720034Y-103091151D01*
X156557100Y-103023495D01*
X156112849Y-103023107D01*
X155702267Y-103192756D01*
X155387860Y-103506615D01*
X155217495Y-103916900D01*
X155217107Y-104361151D01*
X131553618Y-104361151D01*
X131553807Y-104144869D01*
X131460118Y-103918124D01*
X131286789Y-103744492D01*
X131060207Y-103650407D01*
X130814869Y-103650193D01*
X130588124Y-103743882D01*
X130414492Y-103917211D01*
X130320407Y-104143793D01*
X130320193Y-104389131D01*
X125173418Y-104389131D01*
X124943100Y-104293495D01*
X124498849Y-104293107D01*
X124088267Y-104462756D01*
X123773860Y-104776615D01*
X123603495Y-105186900D01*
X123603107Y-105631151D01*
X122306034Y-105631151D01*
X122143100Y-105563495D01*
X121698849Y-105563107D01*
X121288267Y-105732756D01*
X120973860Y-106046615D01*
X120803495Y-106456900D01*
X120803107Y-106901151D01*
X119721700Y-106901151D01*
X119721700Y-104361151D01*
X120803107Y-104361151D01*
X120972756Y-104771733D01*
X121286615Y-105086140D01*
X121696900Y-105256505D01*
X122141151Y-105256893D01*
X122551733Y-105087244D01*
X122866140Y-104773385D01*
X123036505Y-104363100D01*
X123036893Y-103918849D01*
X122867244Y-103508267D01*
X122553385Y-103193860D01*
X122306034Y-103091151D01*
X123603107Y-103091151D01*
X123772756Y-103501733D01*
X124086615Y-103816140D01*
X124496900Y-103986505D01*
X124941151Y-103986893D01*
X125351733Y-103817244D01*
X125666140Y-103503385D01*
X125836505Y-103093100D01*
X125836593Y-102992131D01*
X131590193Y-102992131D01*
X131683882Y-103218876D01*
X131857211Y-103392508D01*
X132083793Y-103486593D01*
X132329131Y-103486807D01*
X132555876Y-103393118D01*
X132729508Y-103219789D01*
X132823593Y-102993207D01*
X132823807Y-102747869D01*
X132730118Y-102521124D01*
X132566412Y-102357131D01*
X134130193Y-102357131D01*
X134223882Y-102583876D01*
X134397211Y-102757508D01*
X134623793Y-102851593D01*
X134869131Y-102851807D01*
X135095876Y-102758118D01*
X135269508Y-102584789D01*
X135363593Y-102358207D01*
X135363807Y-102112869D01*
X135270118Y-101886124D01*
X135205259Y-101821151D01*
X155217107Y-101821151D01*
X155386756Y-102231733D01*
X155700615Y-102546140D01*
X156110900Y-102716505D01*
X156555151Y-102716893D01*
X156965733Y-102547244D01*
X157280140Y-102233385D01*
X157450505Y-101823100D01*
X157450893Y-101378849D01*
X157281244Y-100968267D01*
X156967385Y-100653860D01*
X156720034Y-100551151D01*
X158017107Y-100551151D01*
X158186756Y-100961733D01*
X158500615Y-101276140D01*
X158910900Y-101446505D01*
X159355151Y-101446893D01*
X159765733Y-101277244D01*
X160080140Y-100963385D01*
X160250505Y-100553100D01*
X160250893Y-100108849D01*
X160081244Y-99698267D01*
X159767385Y-99383860D01*
X159357100Y-99213495D01*
X158912849Y-99213107D01*
X158502267Y-99382756D01*
X158187860Y-99696615D01*
X158017495Y-100106900D01*
X158017107Y-100551151D01*
X156720034Y-100551151D01*
X156557100Y-100483495D01*
X156112849Y-100483107D01*
X155702267Y-100652756D01*
X155387860Y-100966615D01*
X155217495Y-101376900D01*
X155217107Y-101821151D01*
X135205259Y-101821151D01*
X135096789Y-101712492D01*
X134870207Y-101618407D01*
X134624869Y-101618193D01*
X134398124Y-101711882D01*
X134224492Y-101885211D01*
X134130407Y-102111793D01*
X134130193Y-102357131D01*
X132566412Y-102357131D01*
X132556789Y-102347492D01*
X132330207Y-102253407D01*
X132084869Y-102253193D01*
X131858124Y-102346882D01*
X131684492Y-102520211D01*
X131590407Y-102746793D01*
X131590193Y-102992131D01*
X125836593Y-102992131D01*
X125836893Y-102648849D01*
X125667244Y-102238267D01*
X125353385Y-101923860D01*
X124943100Y-101753495D01*
X124498849Y-101753107D01*
X124088267Y-101922756D01*
X123773860Y-102236615D01*
X123603495Y-102646900D01*
X123603107Y-103091151D01*
X122306034Y-103091151D01*
X122143100Y-103023495D01*
X121698849Y-103023107D01*
X121288267Y-103192756D01*
X120973860Y-103506615D01*
X120803495Y-103916900D01*
X120803107Y-104361151D01*
X119721700Y-104361151D01*
X119721700Y-101821151D01*
X120803107Y-101821151D01*
X120972756Y-102231733D01*
X121286615Y-102546140D01*
X121696900Y-102716505D01*
X122141151Y-102716893D01*
X122551733Y-102547244D01*
X122866140Y-102233385D01*
X123036505Y-101823100D01*
X123036893Y-101378849D01*
X122867244Y-100968267D01*
X122553385Y-100653860D01*
X122306034Y-100551151D01*
X123603107Y-100551151D01*
X123772756Y-100961733D01*
X124086615Y-101276140D01*
X124496900Y-101446505D01*
X124941151Y-101446893D01*
X125351733Y-101277244D01*
X125666140Y-100963385D01*
X125836505Y-100553100D01*
X125836893Y-100108849D01*
X125667244Y-99698267D01*
X125353385Y-99383860D01*
X125106034Y-99281151D01*
X155217107Y-99281151D01*
X155386756Y-99691733D01*
X155700615Y-100006140D01*
X156110900Y-100176505D01*
X156555151Y-100176893D01*
X156965733Y-100007244D01*
X157280140Y-99693385D01*
X157450505Y-99283100D01*
X157450893Y-98838849D01*
X157281244Y-98428267D01*
X156967385Y-98113860D01*
X156720034Y-98011151D01*
X158017107Y-98011151D01*
X158186756Y-98421733D01*
X158500615Y-98736140D01*
X158910900Y-98906505D01*
X159355151Y-98906893D01*
X159765733Y-98737244D01*
X160080140Y-98423385D01*
X160250505Y-98013100D01*
X160250893Y-97568849D01*
X160081244Y-97158267D01*
X159767385Y-96843860D01*
X159357100Y-96673495D01*
X158912849Y-96673107D01*
X158502267Y-96842756D01*
X158187860Y-97156615D01*
X158017495Y-97566900D01*
X158017107Y-98011151D01*
X156720034Y-98011151D01*
X156557100Y-97943495D01*
X156112849Y-97943107D01*
X155702267Y-98112756D01*
X155387860Y-98426615D01*
X155217495Y-98836900D01*
X155217107Y-99281151D01*
X125106034Y-99281151D01*
X124943100Y-99213495D01*
X124498849Y-99213107D01*
X124088267Y-99382756D01*
X123773860Y-99696615D01*
X123603495Y-100106900D01*
X123603107Y-100551151D01*
X122306034Y-100551151D01*
X122143100Y-100483495D01*
X121698849Y-100483107D01*
X121288267Y-100652756D01*
X120973860Y-100966615D01*
X120803495Y-101376900D01*
X120803107Y-101821151D01*
X119721700Y-101821151D01*
X119721700Y-99281151D01*
X120803107Y-99281151D01*
X120972756Y-99691733D01*
X121286615Y-100006140D01*
X121696900Y-100176505D01*
X122141151Y-100176893D01*
X122551733Y-100007244D01*
X122866140Y-99693385D01*
X123036505Y-99283100D01*
X123036893Y-98838849D01*
X122867244Y-98428267D01*
X122553385Y-98113860D01*
X122306034Y-98011151D01*
X123603107Y-98011151D01*
X123772756Y-98421733D01*
X124086615Y-98736140D01*
X124496900Y-98906505D01*
X124941151Y-98906893D01*
X125351733Y-98737244D01*
X125666140Y-98423385D01*
X125836505Y-98013100D01*
X125836893Y-97568849D01*
X125667244Y-97158267D01*
X125353385Y-96843860D01*
X125106034Y-96741151D01*
X155217107Y-96741151D01*
X155386756Y-97151733D01*
X155700615Y-97466140D01*
X156110900Y-97636505D01*
X156555151Y-97636893D01*
X156965733Y-97467244D01*
X157280140Y-97153385D01*
X157450505Y-96743100D01*
X157450893Y-96298849D01*
X157281244Y-95888267D01*
X156967385Y-95573860D01*
X156720034Y-95471151D01*
X158017107Y-95471151D01*
X158186756Y-95881733D01*
X158500615Y-96196140D01*
X158910900Y-96366505D01*
X159355151Y-96366893D01*
X159765733Y-96197244D01*
X160080140Y-95883385D01*
X160250505Y-95473100D01*
X160250893Y-95028849D01*
X160081244Y-94618267D01*
X159767385Y-94303860D01*
X159357100Y-94133495D01*
X158912849Y-94133107D01*
X158502267Y-94302756D01*
X158187860Y-94616615D01*
X158017495Y-95026900D01*
X158017107Y-95471151D01*
X156720034Y-95471151D01*
X156557100Y-95403495D01*
X156112849Y-95403107D01*
X155702267Y-95572756D01*
X155387860Y-95886615D01*
X155217495Y-96296900D01*
X155217107Y-96741151D01*
X125106034Y-96741151D01*
X124943100Y-96673495D01*
X124498849Y-96673107D01*
X124088267Y-96842756D01*
X123773860Y-97156615D01*
X123603495Y-97566900D01*
X123603107Y-98011151D01*
X122306034Y-98011151D01*
X122143100Y-97943495D01*
X121698849Y-97943107D01*
X121288267Y-98112756D01*
X120973860Y-98426615D01*
X120803495Y-98836900D01*
X120803107Y-99281151D01*
X119721700Y-99281151D01*
X119721700Y-96741151D01*
X120803107Y-96741151D01*
X120972756Y-97151733D01*
X121286615Y-97466140D01*
X121696900Y-97636505D01*
X122141151Y-97636893D01*
X122551733Y-97467244D01*
X122866140Y-97153385D01*
X123036505Y-96743100D01*
X123036893Y-96298849D01*
X122867244Y-95888267D01*
X122553385Y-95573860D01*
X122306034Y-95471151D01*
X123603107Y-95471151D01*
X123772756Y-95881733D01*
X124086615Y-96196140D01*
X124496900Y-96366505D01*
X124941151Y-96366893D01*
X125351733Y-96197244D01*
X125666140Y-95883385D01*
X125836505Y-95473100D01*
X125836593Y-95372131D01*
X129494693Y-95372131D01*
X129588382Y-95598876D01*
X129761711Y-95772508D01*
X129988293Y-95866593D01*
X130233631Y-95866807D01*
X130460376Y-95773118D01*
X130634008Y-95599789D01*
X130728093Y-95373207D01*
X130728093Y-95372131D01*
X140353193Y-95372131D01*
X140446882Y-95598876D01*
X140620211Y-95772508D01*
X140846793Y-95866593D01*
X141092131Y-95866807D01*
X141318876Y-95773118D01*
X141492508Y-95599789D01*
X141586593Y-95373207D01*
X141586807Y-95127869D01*
X141493118Y-94901124D01*
X141319789Y-94727492D01*
X141093207Y-94633407D01*
X140847869Y-94633193D01*
X140621124Y-94726882D01*
X140447492Y-94900211D01*
X140353407Y-95126793D01*
X140353193Y-95372131D01*
X130728093Y-95372131D01*
X130728307Y-95127869D01*
X130634618Y-94901124D01*
X130461289Y-94727492D01*
X130234707Y-94633407D01*
X129989369Y-94633193D01*
X129762624Y-94726882D01*
X129588992Y-94900211D01*
X129494907Y-95126793D01*
X129494693Y-95372131D01*
X125836593Y-95372131D01*
X125836893Y-95028849D01*
X125667244Y-94618267D01*
X125353385Y-94303860D01*
X125106034Y-94201151D01*
X155217107Y-94201151D01*
X155386756Y-94611733D01*
X155700615Y-94926140D01*
X156110900Y-95096505D01*
X156555151Y-95096893D01*
X156965733Y-94927244D01*
X157280140Y-94613385D01*
X157450505Y-94203100D01*
X157450893Y-93758849D01*
X157281244Y-93348267D01*
X156967385Y-93033860D01*
X156720034Y-92931151D01*
X158017107Y-92931151D01*
X158186756Y-93341733D01*
X158500615Y-93656140D01*
X158910900Y-93826505D01*
X159355151Y-93826893D01*
X159765733Y-93657244D01*
X160080140Y-93343385D01*
X160250505Y-92933100D01*
X160250893Y-92488849D01*
X160081244Y-92078267D01*
X159767385Y-91763860D01*
X159357100Y-91593495D01*
X158912849Y-91593107D01*
X158502267Y-91762756D01*
X158187860Y-92076615D01*
X158017495Y-92486900D01*
X158017107Y-92931151D01*
X156720034Y-92931151D01*
X156557100Y-92863495D01*
X156112849Y-92863107D01*
X155702267Y-93032756D01*
X155387860Y-93346615D01*
X155217495Y-93756900D01*
X155217107Y-94201151D01*
X125106034Y-94201151D01*
X124943100Y-94133495D01*
X124498849Y-94133107D01*
X124088267Y-94302756D01*
X123773860Y-94616615D01*
X123603495Y-95026900D01*
X123603107Y-95471151D01*
X122306034Y-95471151D01*
X122143100Y-95403495D01*
X121698849Y-95403107D01*
X121288267Y-95572756D01*
X120973860Y-95886615D01*
X120803495Y-96296900D01*
X120803107Y-96741151D01*
X119721700Y-96741151D01*
X119721700Y-94201151D01*
X120803107Y-94201151D01*
X120972756Y-94611733D01*
X121286615Y-94926140D01*
X121696900Y-95096505D01*
X122141151Y-95096893D01*
X122551733Y-94927244D01*
X122866140Y-94613385D01*
X123036505Y-94203100D01*
X123036893Y-93758849D01*
X122867244Y-93348267D01*
X122553385Y-93033860D01*
X122306034Y-92931151D01*
X123603107Y-92931151D01*
X123772756Y-93341733D01*
X124086615Y-93656140D01*
X124496900Y-93826505D01*
X124941151Y-93826893D01*
X125351733Y-93657244D01*
X125666140Y-93343385D01*
X125836505Y-92933100D01*
X125836893Y-92488849D01*
X125667244Y-92078267D01*
X125353385Y-91763860D01*
X125106034Y-91661151D01*
X155217107Y-91661151D01*
X155386756Y-92071733D01*
X155700615Y-92386140D01*
X156110900Y-92556505D01*
X156555151Y-92556893D01*
X156965733Y-92387244D01*
X157280140Y-92073385D01*
X157450505Y-91663100D01*
X157450893Y-91218849D01*
X157281244Y-90808267D01*
X156967385Y-90493860D01*
X156720034Y-90391151D01*
X158017107Y-90391151D01*
X158186756Y-90801733D01*
X158500615Y-91116140D01*
X158910900Y-91286505D01*
X159355151Y-91286893D01*
X159765733Y-91117244D01*
X160080140Y-90803385D01*
X160250505Y-90393100D01*
X160250893Y-89948849D01*
X160081244Y-89538267D01*
X159767385Y-89223860D01*
X159357100Y-89053495D01*
X158912849Y-89053107D01*
X158502267Y-89222756D01*
X158187860Y-89536615D01*
X158017495Y-89946900D01*
X158017107Y-90391151D01*
X156720034Y-90391151D01*
X156557100Y-90323495D01*
X156112849Y-90323107D01*
X155702267Y-90492756D01*
X155387860Y-90806615D01*
X155217495Y-91216900D01*
X155217107Y-91661151D01*
X125106034Y-91661151D01*
X124943100Y-91593495D01*
X124498849Y-91593107D01*
X124088267Y-91762756D01*
X123773860Y-92076615D01*
X123603495Y-92486900D01*
X123603107Y-92931151D01*
X122306034Y-92931151D01*
X122143100Y-92863495D01*
X121698849Y-92863107D01*
X121288267Y-93032756D01*
X120973860Y-93346615D01*
X120803495Y-93756900D01*
X120803107Y-94201151D01*
X119721700Y-94201151D01*
X119721700Y-91661151D01*
X120803107Y-91661151D01*
X120972756Y-92071733D01*
X121286615Y-92386140D01*
X121696900Y-92556505D01*
X122141151Y-92556893D01*
X122551733Y-92387244D01*
X122866140Y-92073385D01*
X123036505Y-91663100D01*
X123036893Y-91218849D01*
X122867244Y-90808267D01*
X122553385Y-90493860D01*
X122306034Y-90391151D01*
X123603107Y-90391151D01*
X123772756Y-90801733D01*
X124086615Y-91116140D01*
X124496900Y-91286505D01*
X124941151Y-91286893D01*
X125351733Y-91117244D01*
X125666140Y-90803385D01*
X125836505Y-90393100D01*
X125836893Y-89948849D01*
X125667244Y-89538267D01*
X125353385Y-89223860D01*
X124943100Y-89053495D01*
X124498849Y-89053107D01*
X124088267Y-89222756D01*
X123773860Y-89536615D01*
X123603495Y-89946900D01*
X123603107Y-90391151D01*
X122306034Y-90391151D01*
X122143100Y-90323495D01*
X121698849Y-90323107D01*
X121288267Y-90492756D01*
X120973860Y-90806615D01*
X120803495Y-91216900D01*
X120803107Y-91661151D01*
X119721700Y-91661151D01*
X119721700Y-89121151D01*
X120803107Y-89121151D01*
X120972756Y-89531733D01*
X121286615Y-89846140D01*
X121696900Y-90016505D01*
X122141151Y-90016893D01*
X122551733Y-89847244D01*
X122866140Y-89533385D01*
X123036505Y-89123100D01*
X123036891Y-88680404D01*
X124010845Y-88680404D01*
X124106091Y-88885497D01*
X124633280Y-89024861D01*
X124653491Y-89022131D01*
X129685193Y-89022131D01*
X129778882Y-89248876D01*
X129952211Y-89422508D01*
X130178793Y-89516593D01*
X130424131Y-89516807D01*
X130650876Y-89423118D01*
X130824508Y-89249789D01*
X130877923Y-89121151D01*
X155217107Y-89121151D01*
X155386756Y-89531733D01*
X155700615Y-89846140D01*
X156110900Y-90016505D01*
X156555151Y-90016893D01*
X156965733Y-89847244D01*
X157280140Y-89533385D01*
X157450505Y-89123100D01*
X157450891Y-88680404D01*
X158424845Y-88680404D01*
X158520091Y-88885497D01*
X159047280Y-89024861D01*
X159587671Y-88951870D01*
X159747909Y-88885497D01*
X159843155Y-88680404D01*
X159134000Y-87971250D01*
X158424845Y-88680404D01*
X157450891Y-88680404D01*
X157450893Y-88678849D01*
X157281244Y-88268267D01*
X156967385Y-87953860D01*
X156557100Y-87783495D01*
X156112849Y-87783107D01*
X155702267Y-87952756D01*
X155387860Y-88266615D01*
X155217495Y-88676900D01*
X155217107Y-89121151D01*
X130877923Y-89121151D01*
X130918593Y-89023207D01*
X130918807Y-88777869D01*
X130825118Y-88551124D01*
X130651789Y-88377492D01*
X130425207Y-88283407D01*
X130179869Y-88283193D01*
X129953124Y-88376882D01*
X129779492Y-88550211D01*
X129685407Y-88776793D01*
X129685193Y-89022131D01*
X124653491Y-89022131D01*
X125173671Y-88951870D01*
X125333909Y-88885497D01*
X125429155Y-88680404D01*
X124720000Y-87971250D01*
X124010845Y-88680404D01*
X123036891Y-88680404D01*
X123036893Y-88678849D01*
X122867244Y-88268267D01*
X122553385Y-87953860D01*
X122143100Y-87783495D01*
X121698849Y-87783107D01*
X121288267Y-87952756D01*
X120973860Y-88266615D01*
X120803495Y-88676900D01*
X120803107Y-89121151D01*
X119721700Y-89121151D01*
X119721700Y-87543280D01*
X123325139Y-87543280D01*
X123398130Y-88083671D01*
X123464503Y-88243909D01*
X123669596Y-88339155D01*
X124378750Y-87630000D01*
X125061250Y-87630000D01*
X125770404Y-88339155D01*
X125975497Y-88243909D01*
X126114861Y-87716720D01*
X126091435Y-87543280D01*
X157739139Y-87543280D01*
X157812130Y-88083671D01*
X157878503Y-88243909D01*
X158083596Y-88339155D01*
X158792750Y-87630000D01*
X159475250Y-87630000D01*
X160184404Y-88339155D01*
X160389497Y-88243909D01*
X160528861Y-87716720D01*
X160455870Y-87176329D01*
X160389497Y-87016091D01*
X160184404Y-86920845D01*
X159475250Y-87630000D01*
X158792750Y-87630000D01*
X158083596Y-86920845D01*
X157878503Y-87016091D01*
X157739139Y-87543280D01*
X126091435Y-87543280D01*
X126041870Y-87176329D01*
X125975497Y-87016091D01*
X125770404Y-86920845D01*
X125061250Y-87630000D01*
X124378750Y-87630000D01*
X123669596Y-86920845D01*
X123464503Y-87016091D01*
X123325139Y-87543280D01*
X119721700Y-87543280D01*
X119721700Y-86581151D01*
X120803107Y-86581151D01*
X120972756Y-86991733D01*
X121286615Y-87306140D01*
X121696900Y-87476505D01*
X122141151Y-87476893D01*
X122551733Y-87307244D01*
X122866140Y-86993385D01*
X123036505Y-86583100D01*
X123036508Y-86579596D01*
X124010845Y-86579596D01*
X124720000Y-87288750D01*
X125429155Y-86579596D01*
X125383892Y-86482131D01*
X142702693Y-86482131D01*
X142796382Y-86708876D01*
X142969711Y-86882508D01*
X143196293Y-86976593D01*
X143441631Y-86976807D01*
X143668376Y-86883118D01*
X143842008Y-86709789D01*
X143895423Y-86581151D01*
X155217107Y-86581151D01*
X155386756Y-86991733D01*
X155700615Y-87306140D01*
X156110900Y-87476505D01*
X156555151Y-87476893D01*
X156965733Y-87307244D01*
X157280140Y-86993385D01*
X157450505Y-86583100D01*
X157450508Y-86579596D01*
X158424845Y-86579596D01*
X159134000Y-87288750D01*
X159843155Y-86579596D01*
X159747909Y-86374503D01*
X159220720Y-86235139D01*
X158680329Y-86308130D01*
X158520091Y-86374503D01*
X158424845Y-86579596D01*
X157450508Y-86579596D01*
X157450893Y-86138849D01*
X157281244Y-85728267D01*
X156967385Y-85413860D01*
X156720034Y-85311151D01*
X158017107Y-85311151D01*
X158186756Y-85721733D01*
X158500615Y-86036140D01*
X158910900Y-86206505D01*
X159355151Y-86206893D01*
X159765733Y-86037244D01*
X160080140Y-85723385D01*
X160250505Y-85313100D01*
X160250893Y-84868849D01*
X160081244Y-84458267D01*
X159767385Y-84143860D01*
X159357100Y-83973495D01*
X158912849Y-83973107D01*
X158502267Y-84142756D01*
X158187860Y-84456615D01*
X158017495Y-84866900D01*
X158017107Y-85311151D01*
X156720034Y-85311151D01*
X156557100Y-85243495D01*
X156112849Y-85243107D01*
X155702267Y-85412756D01*
X155387860Y-85726615D01*
X155217495Y-86136900D01*
X155217107Y-86581151D01*
X143895423Y-86581151D01*
X143936093Y-86483207D01*
X143936307Y-86237869D01*
X143842618Y-86011124D01*
X143669289Y-85837492D01*
X143442707Y-85743407D01*
X143197369Y-85743193D01*
X142970624Y-85836882D01*
X142796992Y-86010211D01*
X142702907Y-86236793D01*
X142702693Y-86482131D01*
X125383892Y-86482131D01*
X125333909Y-86374503D01*
X124806720Y-86235139D01*
X124266329Y-86308130D01*
X124106091Y-86374503D01*
X124010845Y-86579596D01*
X123036508Y-86579596D01*
X123036893Y-86138849D01*
X122867244Y-85728267D01*
X122553385Y-85413860D01*
X122306034Y-85311151D01*
X123603107Y-85311151D01*
X123772756Y-85721733D01*
X124086615Y-86036140D01*
X124496900Y-86206505D01*
X124941151Y-86206893D01*
X125351733Y-86037244D01*
X125666140Y-85723385D01*
X125836505Y-85313100D01*
X125836893Y-84868849D01*
X125667244Y-84458267D01*
X125353385Y-84143860D01*
X125106034Y-84041151D01*
X155217107Y-84041151D01*
X155386756Y-84451733D01*
X155700615Y-84766140D01*
X156110900Y-84936505D01*
X156555151Y-84936893D01*
X156965733Y-84767244D01*
X157280140Y-84453385D01*
X157450505Y-84043100D01*
X157450893Y-83598849D01*
X157281244Y-83188267D01*
X156967385Y-82873860D01*
X156720034Y-82771151D01*
X158017107Y-82771151D01*
X158186756Y-83181733D01*
X158500615Y-83496140D01*
X158910900Y-83666505D01*
X159355151Y-83666893D01*
X159765733Y-83497244D01*
X160080140Y-83183385D01*
X160250505Y-82773100D01*
X160250893Y-82328849D01*
X160081244Y-81918267D01*
X159767385Y-81603860D01*
X159357100Y-81433495D01*
X158912849Y-81433107D01*
X158502267Y-81602756D01*
X158187860Y-81916615D01*
X158017495Y-82326900D01*
X158017107Y-82771151D01*
X156720034Y-82771151D01*
X156557100Y-82703495D01*
X156112849Y-82703107D01*
X155702267Y-82872756D01*
X155387860Y-83186615D01*
X155217495Y-83596900D01*
X155217107Y-84041151D01*
X125106034Y-84041151D01*
X124943100Y-83973495D01*
X124498849Y-83973107D01*
X124088267Y-84142756D01*
X123773860Y-84456615D01*
X123603495Y-84866900D01*
X123603107Y-85311151D01*
X122306034Y-85311151D01*
X122143100Y-85243495D01*
X121698849Y-85243107D01*
X121288267Y-85412756D01*
X120973860Y-85726615D01*
X120803495Y-86136900D01*
X120803107Y-86581151D01*
X119721700Y-86581151D01*
X119721700Y-84041151D01*
X120803107Y-84041151D01*
X120972756Y-84451733D01*
X121286615Y-84766140D01*
X121696900Y-84936505D01*
X122141151Y-84936893D01*
X122551733Y-84767244D01*
X122866140Y-84453385D01*
X123036505Y-84043100D01*
X123036893Y-83598849D01*
X122867244Y-83188267D01*
X122553385Y-82873860D01*
X122306034Y-82771151D01*
X123603107Y-82771151D01*
X123772756Y-83181733D01*
X124086615Y-83496140D01*
X124496900Y-83666505D01*
X124941151Y-83666893D01*
X125351733Y-83497244D01*
X125666140Y-83183385D01*
X125836505Y-82773100D01*
X125836567Y-82701837D01*
X145219667Y-82701837D01*
X145336144Y-82983734D01*
X145551632Y-83199598D01*
X145833325Y-83316567D01*
X146138337Y-83316833D01*
X146420234Y-83200356D01*
X146636098Y-82984868D01*
X146753067Y-82703175D01*
X146753333Y-82398163D01*
X146725336Y-82330404D01*
X155624845Y-82330404D01*
X155720091Y-82535497D01*
X156247280Y-82674861D01*
X156787671Y-82601870D01*
X156947909Y-82535497D01*
X157043155Y-82330404D01*
X156334000Y-81621250D01*
X155624845Y-82330404D01*
X146725336Y-82330404D01*
X146636856Y-82116266D01*
X146421368Y-81900402D01*
X146139675Y-81783433D01*
X145834663Y-81783167D01*
X145552766Y-81899644D01*
X145336902Y-82115132D01*
X145219933Y-82396825D01*
X145219667Y-82701837D01*
X125836567Y-82701837D01*
X125836893Y-82328849D01*
X125667244Y-81918267D01*
X125353385Y-81603860D01*
X124943100Y-81433495D01*
X124498849Y-81433107D01*
X124088267Y-81602756D01*
X123773860Y-81916615D01*
X123603495Y-82326900D01*
X123603107Y-82771151D01*
X122306034Y-82771151D01*
X122143100Y-82703495D01*
X121698849Y-82703107D01*
X121288267Y-82872756D01*
X120973860Y-83186615D01*
X120803495Y-83596900D01*
X120803107Y-84041151D01*
X119721700Y-84041151D01*
X119721700Y-82330404D01*
X121210845Y-82330404D01*
X121306091Y-82535497D01*
X121833280Y-82674861D01*
X122373671Y-82601870D01*
X122533909Y-82535497D01*
X122629155Y-82330404D01*
X121920000Y-81621250D01*
X121210845Y-82330404D01*
X119721700Y-82330404D01*
X119721700Y-81193280D01*
X120525139Y-81193280D01*
X120598130Y-81733671D01*
X120664503Y-81893909D01*
X120869596Y-81989155D01*
X121578750Y-81280000D01*
X122261250Y-81280000D01*
X122970404Y-81989155D01*
X123175497Y-81893909D01*
X123314861Y-81366720D01*
X123291435Y-81193280D01*
X154939139Y-81193280D01*
X155012130Y-81733671D01*
X155078503Y-81893909D01*
X155283596Y-81989155D01*
X155992750Y-81280000D01*
X156675250Y-81280000D01*
X157384404Y-81989155D01*
X157589497Y-81893909D01*
X157728861Y-81366720D01*
X157655870Y-80826329D01*
X157589497Y-80666091D01*
X157384404Y-80570845D01*
X156675250Y-81280000D01*
X155992750Y-81280000D01*
X155283596Y-80570845D01*
X155078503Y-80666091D01*
X154939139Y-81193280D01*
X123291435Y-81193280D01*
X123241870Y-80826329D01*
X123175497Y-80666091D01*
X122970404Y-80570845D01*
X122261250Y-81280000D01*
X121578750Y-81280000D01*
X120869596Y-80570845D01*
X120664503Y-80666091D01*
X120525139Y-81193280D01*
X119721700Y-81193280D01*
X119721700Y-80229596D01*
X121210845Y-80229596D01*
X121920000Y-80938750D01*
X122627599Y-80231151D01*
X123603107Y-80231151D01*
X123772756Y-80641733D01*
X124086615Y-80956140D01*
X124496900Y-81126505D01*
X124941151Y-81126893D01*
X125351733Y-80957244D01*
X125666140Y-80643385D01*
X125836505Y-80233100D01*
X125836508Y-80229596D01*
X155624845Y-80229596D01*
X156334000Y-80938750D01*
X157041599Y-80231151D01*
X158017107Y-80231151D01*
X158186756Y-80641733D01*
X158500615Y-80956140D01*
X158910900Y-81126505D01*
X159355151Y-81126893D01*
X159765733Y-80957244D01*
X160080140Y-80643385D01*
X160250505Y-80233100D01*
X160250893Y-79788849D01*
X160081244Y-79378267D01*
X159767385Y-79063860D01*
X159357100Y-78893495D01*
X158912849Y-78893107D01*
X158502267Y-79062756D01*
X158187860Y-79376615D01*
X158017495Y-79786900D01*
X158017107Y-80231151D01*
X157041599Y-80231151D01*
X157043155Y-80229596D01*
X156947909Y-80024503D01*
X156420720Y-79885139D01*
X155880329Y-79958130D01*
X155720091Y-80024503D01*
X155624845Y-80229596D01*
X125836508Y-80229596D01*
X125836893Y-79788849D01*
X125728632Y-79526837D01*
X142743167Y-79526837D01*
X142859644Y-79808734D01*
X143075132Y-80024598D01*
X143356825Y-80141567D01*
X143661837Y-80141833D01*
X143943734Y-80025356D01*
X144159598Y-79809868D01*
X144276567Y-79528175D01*
X144276833Y-79223163D01*
X144168573Y-78961151D01*
X155217107Y-78961151D01*
X155386756Y-79371733D01*
X155700615Y-79686140D01*
X156110900Y-79856505D01*
X156555151Y-79856893D01*
X156965733Y-79687244D01*
X157280140Y-79373385D01*
X157450505Y-78963100D01*
X157450893Y-78518849D01*
X157281244Y-78108267D01*
X156967385Y-77793860D01*
X156720034Y-77691151D01*
X158017107Y-77691151D01*
X158186756Y-78101733D01*
X158500615Y-78416140D01*
X158910900Y-78586505D01*
X159355151Y-78586893D01*
X159765733Y-78417244D01*
X160080140Y-78103385D01*
X160250505Y-77693100D01*
X160250893Y-77248849D01*
X160081244Y-76838267D01*
X159767385Y-76523860D01*
X159357100Y-76353495D01*
X158912849Y-76353107D01*
X158502267Y-76522756D01*
X158187860Y-76836615D01*
X158017495Y-77246900D01*
X158017107Y-77691151D01*
X156720034Y-77691151D01*
X156557100Y-77623495D01*
X156112849Y-77623107D01*
X155702267Y-77792756D01*
X155387860Y-78106615D01*
X155217495Y-78516900D01*
X155217107Y-78961151D01*
X144168573Y-78961151D01*
X144160356Y-78941266D01*
X143944868Y-78725402D01*
X143663175Y-78608433D01*
X143358163Y-78608167D01*
X143076266Y-78724644D01*
X142860402Y-78940132D01*
X142743433Y-79221825D01*
X142743167Y-79526837D01*
X125728632Y-79526837D01*
X125667244Y-79378267D01*
X125353385Y-79063860D01*
X124943100Y-78893495D01*
X124498849Y-78893107D01*
X124088267Y-79062756D01*
X123773860Y-79376615D01*
X123603495Y-79786900D01*
X123603107Y-80231151D01*
X122627599Y-80231151D01*
X122629155Y-80229596D01*
X122533909Y-80024503D01*
X122006720Y-79885139D01*
X121466329Y-79958130D01*
X121306091Y-80024503D01*
X121210845Y-80229596D01*
X119721700Y-80229596D01*
X119721700Y-78961151D01*
X120803107Y-78961151D01*
X120972756Y-79371733D01*
X121286615Y-79686140D01*
X121696900Y-79856505D01*
X122141151Y-79856893D01*
X122551733Y-79687244D01*
X122866140Y-79373385D01*
X123036505Y-78963100D01*
X123036893Y-78518849D01*
X122867244Y-78108267D01*
X122553385Y-77793860D01*
X122306034Y-77691151D01*
X123603107Y-77691151D01*
X123772756Y-78101733D01*
X124086615Y-78416140D01*
X124496900Y-78586505D01*
X124941151Y-78586893D01*
X125351733Y-78417244D01*
X125666140Y-78103385D01*
X125836505Y-77693100D01*
X125836893Y-77248849D01*
X125667244Y-76838267D01*
X125353385Y-76523860D01*
X125106034Y-76421151D01*
X155217107Y-76421151D01*
X155386756Y-76831733D01*
X155700615Y-77146140D01*
X156110900Y-77316505D01*
X156555151Y-77316893D01*
X156965733Y-77147244D01*
X157280140Y-76833385D01*
X157450505Y-76423100D01*
X157450893Y-75978849D01*
X157281244Y-75568267D01*
X156967385Y-75253860D01*
X156557100Y-75083495D01*
X156112849Y-75083107D01*
X155702267Y-75252756D01*
X155387860Y-75566615D01*
X155217495Y-75976900D01*
X155217107Y-76421151D01*
X125106034Y-76421151D01*
X124943100Y-76353495D01*
X124498849Y-76353107D01*
X124088267Y-76522756D01*
X123773860Y-76836615D01*
X123603495Y-77246900D01*
X123603107Y-77691151D01*
X122306034Y-77691151D01*
X122143100Y-77623495D01*
X121698849Y-77623107D01*
X121288267Y-77792756D01*
X120973860Y-78106615D01*
X120803495Y-78516900D01*
X120803107Y-78961151D01*
X119721700Y-78961151D01*
X119721700Y-76421151D01*
X120803107Y-76421151D01*
X120972756Y-76831733D01*
X121286615Y-77146140D01*
X121696900Y-77316505D01*
X122141151Y-77316893D01*
X122551733Y-77147244D01*
X122866140Y-76833385D01*
X123036505Y-76423100D01*
X123036893Y-75978849D01*
X122867244Y-75568267D01*
X122553385Y-75253860D01*
X122143100Y-75083495D01*
X121698849Y-75083107D01*
X121288267Y-75252756D01*
X120973860Y-75566615D01*
X120803495Y-75976900D01*
X120803107Y-76421151D01*
X119721700Y-76421151D01*
X119721700Y-74001700D01*
X123249823Y-74001700D01*
X161467770Y-74117162D01*
X161467770Y-74117162D01*
G37*
X161467770Y-74117162D02*
X161341009Y-127293300D01*
X119721700Y-127293300D01*
X119721700Y-125951151D01*
X123603107Y-125951151D01*
X123772756Y-126361733D01*
X124086615Y-126676140D01*
X124496900Y-126846505D01*
X124941151Y-126846893D01*
X125351733Y-126677244D01*
X125666140Y-126363385D01*
X125836505Y-125953100D01*
X125836506Y-125951151D01*
X158017107Y-125951151D01*
X158186756Y-126361733D01*
X158500615Y-126676140D01*
X158910900Y-126846505D01*
X159355151Y-126846893D01*
X159765733Y-126677244D01*
X160080140Y-126363385D01*
X160250505Y-125953100D01*
X160250893Y-125508849D01*
X160081244Y-125098267D01*
X159767385Y-124783860D01*
X159357100Y-124613495D01*
X158912849Y-124613107D01*
X158502267Y-124782756D01*
X158187860Y-125096615D01*
X158017495Y-125506900D01*
X158017107Y-125951151D01*
X125836506Y-125951151D01*
X125836893Y-125508849D01*
X125667244Y-125098267D01*
X125353385Y-124783860D01*
X125106034Y-124681151D01*
X155217107Y-124681151D01*
X155386756Y-125091733D01*
X155700615Y-125406140D01*
X156110900Y-125576505D01*
X156555151Y-125576893D01*
X156965733Y-125407244D01*
X157280140Y-125093385D01*
X157450505Y-124683100D01*
X157450893Y-124238849D01*
X157281244Y-123828267D01*
X156967385Y-123513860D01*
X156720034Y-123411151D01*
X158017107Y-123411151D01*
X158186756Y-123821733D01*
X158500615Y-124136140D01*
X158910900Y-124306505D01*
X159355151Y-124306893D01*
X159765733Y-124137244D01*
X160080140Y-123823385D01*
X160250505Y-123413100D01*
X160250893Y-122968849D01*
X160081244Y-122558267D01*
X159767385Y-122243860D01*
X159357100Y-122073495D01*
X158912849Y-122073107D01*
X158502267Y-122242756D01*
X158187860Y-122556615D01*
X158017495Y-122966900D01*
X158017107Y-123411151D01*
X156720034Y-123411151D01*
X156557100Y-123343495D01*
X156112849Y-123343107D01*
X155702267Y-123512756D01*
X155387860Y-123826615D01*
X155217495Y-124236900D01*
X155217107Y-124681151D01*
X125106034Y-124681151D01*
X124943100Y-124613495D01*
X124498849Y-124613107D01*
X124088267Y-124782756D01*
X123773860Y-125096615D01*
X123603495Y-125506900D01*
X123603107Y-125951151D01*
X119721700Y-125951151D01*
X119721700Y-124681151D01*
X120803107Y-124681151D01*
X120972756Y-125091733D01*
X121286615Y-125406140D01*
X121696900Y-125576505D01*
X122141151Y-125576893D01*
X122551733Y-125407244D01*
X122866140Y-125093385D01*
X123036505Y-124683100D01*
X123036893Y-124238849D01*
X122867244Y-123828267D01*
X122553385Y-123513860D01*
X122306034Y-123411151D01*
X123603107Y-123411151D01*
X123772756Y-123821733D01*
X124086615Y-124136140D01*
X124496900Y-124306505D01*
X124941151Y-124306893D01*
X125351733Y-124137244D01*
X125666140Y-123823385D01*
X125836505Y-123413100D01*
X125836893Y-122968849D01*
X125667244Y-122558267D01*
X125353385Y-122243860D01*
X124943100Y-122073495D01*
X124498849Y-122073107D01*
X124088267Y-122242756D01*
X123773860Y-122556615D01*
X123603495Y-122966900D01*
X123603107Y-123411151D01*
X122306034Y-123411151D01*
X122143100Y-123343495D01*
X121698849Y-123343107D01*
X121288267Y-123512756D01*
X120973860Y-123826615D01*
X120803495Y-124236900D01*
X120803107Y-124681151D01*
X119721700Y-124681151D01*
X119721700Y-122141151D01*
X120803107Y-122141151D01*
X120972756Y-122551733D01*
X121286615Y-122866140D01*
X121696900Y-123036505D01*
X122141151Y-123036893D01*
X122551733Y-122867244D01*
X122866140Y-122553385D01*
X123036505Y-122143100D01*
X123036704Y-121915131D01*
X131971193Y-121915131D01*
X132064882Y-122141876D01*
X132238211Y-122315508D01*
X132464793Y-122409593D01*
X132710131Y-122409807D01*
X132936876Y-122316118D01*
X133110508Y-122142789D01*
X133111188Y-122141151D01*
X155217107Y-122141151D01*
X155386756Y-122551733D01*
X155700615Y-122866140D01*
X156110900Y-123036505D01*
X156555151Y-123036893D01*
X156965733Y-122867244D01*
X157280140Y-122553385D01*
X157450505Y-122143100D01*
X157450893Y-121698849D01*
X157281244Y-121288267D01*
X156967385Y-120973860D01*
X156720034Y-120871151D01*
X158017107Y-120871151D01*
X158186756Y-121281733D01*
X158500615Y-121596140D01*
X158910900Y-121766505D01*
X159355151Y-121766893D01*
X159765733Y-121597244D01*
X160080140Y-121283385D01*
X160250505Y-120873100D01*
X160250893Y-120428849D01*
X160081244Y-120018267D01*
X159767385Y-119703860D01*
X159357100Y-119533495D01*
X158912849Y-119533107D01*
X158502267Y-119702756D01*
X158187860Y-120016615D01*
X158017495Y-120426900D01*
X158017107Y-120871151D01*
X156720034Y-120871151D01*
X156557100Y-120803495D01*
X156112849Y-120803107D01*
X155702267Y-120972756D01*
X155387860Y-121286615D01*
X155217495Y-121696900D01*
X155217107Y-122141151D01*
X133111188Y-122141151D01*
X133204593Y-121916207D01*
X133204807Y-121670869D01*
X133111118Y-121444124D01*
X132937789Y-121270492D01*
X132711207Y-121176407D01*
X132465869Y-121176193D01*
X132239124Y-121269882D01*
X132065492Y-121443211D01*
X131971407Y-121669793D01*
X131971193Y-121915131D01*
X123036704Y-121915131D01*
X123036893Y-121698849D01*
X122867244Y-121288267D01*
X122553385Y-120973860D01*
X122306034Y-120871151D01*
X123603107Y-120871151D01*
X123772756Y-121281733D01*
X124086615Y-121596140D01*
X124496900Y-121766505D01*
X124941151Y-121766893D01*
X125351733Y-121597244D01*
X125666140Y-121283385D01*
X125836505Y-120873100D01*
X125836893Y-120428849D01*
X125667244Y-120018267D01*
X125353385Y-119703860D01*
X125106034Y-119601151D01*
X155217107Y-119601151D01*
X155386756Y-120011733D01*
X155700615Y-120326140D01*
X156110900Y-120496505D01*
X156555151Y-120496893D01*
X156965733Y-120327244D01*
X157280140Y-120013385D01*
X157450505Y-119603100D01*
X157450893Y-119158849D01*
X157281244Y-118748267D01*
X156967385Y-118433860D01*
X156720034Y-118331151D01*
X158017107Y-118331151D01*
X158186756Y-118741733D01*
X158500615Y-119056140D01*
X158910900Y-119226505D01*
X159355151Y-119226893D01*
X159765733Y-119057244D01*
X160080140Y-118743385D01*
X160250505Y-118333100D01*
X160250893Y-117888849D01*
X160081244Y-117478267D01*
X159767385Y-117163860D01*
X159357100Y-116993495D01*
X158912849Y-116993107D01*
X158502267Y-117162756D01*
X158187860Y-117476615D01*
X158017495Y-117886900D01*
X158017107Y-118331151D01*
X156720034Y-118331151D01*
X156557100Y-118263495D01*
X156112849Y-118263107D01*
X155702267Y-118432756D01*
X155387860Y-118746615D01*
X155217495Y-119156900D01*
X155217107Y-119601151D01*
X125106034Y-119601151D01*
X124943100Y-119533495D01*
X124498849Y-119533107D01*
X124088267Y-119702756D01*
X123773860Y-120016615D01*
X123603495Y-120426900D01*
X123603107Y-120871151D01*
X122306034Y-120871151D01*
X122143100Y-120803495D01*
X121698849Y-120803107D01*
X121288267Y-120972756D01*
X120973860Y-121286615D01*
X120803495Y-121696900D01*
X120803107Y-122141151D01*
X119721700Y-122141151D01*
X119721700Y-119601151D01*
X120803107Y-119601151D01*
X120972756Y-120011733D01*
X121286615Y-120326140D01*
X121696900Y-120496505D01*
X122141151Y-120496893D01*
X122551733Y-120327244D01*
X122866140Y-120013385D01*
X123036505Y-119603100D01*
X123036893Y-119158849D01*
X122867244Y-118748267D01*
X122553385Y-118433860D01*
X122306034Y-118331151D01*
X123603107Y-118331151D01*
X123772756Y-118741733D01*
X124086615Y-119056140D01*
X124496900Y-119226505D01*
X124941151Y-119226893D01*
X125351733Y-119057244D01*
X125666140Y-118743385D01*
X125836505Y-118333100D01*
X125836893Y-117888849D01*
X125667244Y-117478267D01*
X125353385Y-117163860D01*
X125106034Y-117061151D01*
X155217107Y-117061151D01*
X155386756Y-117471733D01*
X155700615Y-117786140D01*
X156110900Y-117956505D01*
X156555151Y-117956893D01*
X156965733Y-117787244D01*
X157280140Y-117473385D01*
X157450505Y-117063100D01*
X157450893Y-116618849D01*
X157281244Y-116208267D01*
X156967385Y-115893860D01*
X156720034Y-115791151D01*
X158017107Y-115791151D01*
X158186756Y-116201733D01*
X158500615Y-116516140D01*
X158910900Y-116686505D01*
X159355151Y-116686893D01*
X159765733Y-116517244D01*
X160080140Y-116203385D01*
X160250505Y-115793100D01*
X160250893Y-115348849D01*
X160081244Y-114938267D01*
X159767385Y-114623860D01*
X159357100Y-114453495D01*
X158912849Y-114453107D01*
X158502267Y-114622756D01*
X158187860Y-114936615D01*
X158017495Y-115346900D01*
X158017107Y-115791151D01*
X156720034Y-115791151D01*
X156557100Y-115723495D01*
X156112849Y-115723107D01*
X155702267Y-115892756D01*
X155387860Y-116206615D01*
X155217495Y-116616900D01*
X155217107Y-117061151D01*
X125106034Y-117061151D01*
X124943100Y-116993495D01*
X124498849Y-116993107D01*
X124088267Y-117162756D01*
X123773860Y-117476615D01*
X123603495Y-117886900D01*
X123603107Y-118331151D01*
X122306034Y-118331151D01*
X122143100Y-118263495D01*
X121698849Y-118263107D01*
X121288267Y-118432756D01*
X120973860Y-118746615D01*
X120803495Y-119156900D01*
X120803107Y-119601151D01*
X119721700Y-119601151D01*
X119721700Y-117061151D01*
X120803107Y-117061151D01*
X120972756Y-117471733D01*
X121286615Y-117786140D01*
X121696900Y-117956505D01*
X122141151Y-117956893D01*
X122551733Y-117787244D01*
X122866140Y-117473385D01*
X123036505Y-117063100D01*
X123036893Y-116618849D01*
X122867244Y-116208267D01*
X122553385Y-115893860D01*
X122306034Y-115791151D01*
X123603107Y-115791151D01*
X123772756Y-116201733D01*
X124086615Y-116516140D01*
X124496900Y-116686505D01*
X124941151Y-116686893D01*
X125351733Y-116517244D01*
X125478567Y-116390631D01*
X126700693Y-116390631D01*
X126794382Y-116617376D01*
X126967711Y-116791008D01*
X127194293Y-116885093D01*
X127439631Y-116885307D01*
X127666376Y-116791618D01*
X127840008Y-116618289D01*
X127934093Y-116391707D01*
X127934149Y-116327131D01*
X141369193Y-116327131D01*
X141462882Y-116553876D01*
X141636211Y-116727508D01*
X141862793Y-116821593D01*
X142108131Y-116821807D01*
X142334876Y-116728118D01*
X142508508Y-116554789D01*
X142602593Y-116328207D01*
X142602807Y-116082869D01*
X142509118Y-115856124D01*
X142335789Y-115682492D01*
X142109207Y-115588407D01*
X141863869Y-115588193D01*
X141637124Y-115681882D01*
X141463492Y-115855211D01*
X141369407Y-116081793D01*
X141369193Y-116327131D01*
X127934149Y-116327131D01*
X127934307Y-116146369D01*
X127840618Y-115919624D01*
X127667289Y-115745992D01*
X127440707Y-115651907D01*
X127195369Y-115651693D01*
X126968624Y-115745382D01*
X126794992Y-115918711D01*
X126700907Y-116145293D01*
X126700693Y-116390631D01*
X125478567Y-116390631D01*
X125666140Y-116203385D01*
X125836505Y-115793100D01*
X125836891Y-115350404D01*
X155624845Y-115350404D01*
X155720091Y-115555497D01*
X156247280Y-115694861D01*
X156787671Y-115621870D01*
X156947909Y-115555497D01*
X157043155Y-115350404D01*
X156334000Y-114641250D01*
X155624845Y-115350404D01*
X125836891Y-115350404D01*
X125836893Y-115348849D01*
X125667244Y-114938267D01*
X125353385Y-114623860D01*
X124943100Y-114453495D01*
X124498849Y-114453107D01*
X124088267Y-114622756D01*
X123773860Y-114936615D01*
X123603495Y-115346900D01*
X123603107Y-115791151D01*
X122306034Y-115791151D01*
X122143100Y-115723495D01*
X121698849Y-115723107D01*
X121288267Y-115892756D01*
X120973860Y-116206615D01*
X120803495Y-116616900D01*
X120803107Y-117061151D01*
X119721700Y-117061151D01*
X119721700Y-115350404D01*
X121210845Y-115350404D01*
X121306091Y-115555497D01*
X121833280Y-115694861D01*
X122373671Y-115621870D01*
X122533909Y-115555497D01*
X122629155Y-115350404D01*
X121920000Y-114641250D01*
X121210845Y-115350404D01*
X119721700Y-115350404D01*
X119721700Y-114213280D01*
X120525139Y-114213280D01*
X120598130Y-114753671D01*
X120664503Y-114913909D01*
X120869596Y-115009155D01*
X121578750Y-114300000D01*
X122261250Y-114300000D01*
X122970404Y-115009155D01*
X123175497Y-114913909D01*
X123314861Y-114386720D01*
X123291435Y-114213280D01*
X154939139Y-114213280D01*
X155012130Y-114753671D01*
X155078503Y-114913909D01*
X155283596Y-115009155D01*
X155992750Y-114300000D01*
X156675250Y-114300000D01*
X157384404Y-115009155D01*
X157589497Y-114913909D01*
X157728861Y-114386720D01*
X157655870Y-113846329D01*
X157589497Y-113686091D01*
X157384404Y-113590845D01*
X156675250Y-114300000D01*
X155992750Y-114300000D01*
X155283596Y-113590845D01*
X155078503Y-113686091D01*
X154939139Y-114213280D01*
X123291435Y-114213280D01*
X123241870Y-113846329D01*
X123175497Y-113686091D01*
X122970404Y-113590845D01*
X122261250Y-114300000D01*
X121578750Y-114300000D01*
X120869596Y-113590845D01*
X120664503Y-113686091D01*
X120525139Y-114213280D01*
X119721700Y-114213280D01*
X119721700Y-113249596D01*
X121210845Y-113249596D01*
X121920000Y-113958750D01*
X122627599Y-113251151D01*
X123603107Y-113251151D01*
X123772756Y-113661733D01*
X124086615Y-113976140D01*
X124496900Y-114146505D01*
X124941151Y-114146893D01*
X125351733Y-113977244D01*
X125666140Y-113663385D01*
X125836505Y-113253100D01*
X125836593Y-113152131D01*
X149243193Y-113152131D01*
X149336882Y-113378876D01*
X149510211Y-113552508D01*
X149736793Y-113646593D01*
X149982131Y-113646807D01*
X150208876Y-113553118D01*
X150382508Y-113379789D01*
X150436568Y-113249596D01*
X155624845Y-113249596D01*
X156334000Y-113958750D01*
X157041599Y-113251151D01*
X158017107Y-113251151D01*
X158186756Y-113661733D01*
X158500615Y-113976140D01*
X158910900Y-114146505D01*
X159355151Y-114146893D01*
X159765733Y-113977244D01*
X160080140Y-113663385D01*
X160250505Y-113253100D01*
X160250893Y-112808849D01*
X160081244Y-112398267D01*
X159767385Y-112083860D01*
X159357100Y-111913495D01*
X158912849Y-111913107D01*
X158502267Y-112082756D01*
X158187860Y-112396615D01*
X158017495Y-112806900D01*
X158017107Y-113251151D01*
X157041599Y-113251151D01*
X157043155Y-113249596D01*
X156947909Y-113044503D01*
X156420720Y-112905139D01*
X155880329Y-112978130D01*
X155720091Y-113044503D01*
X155624845Y-113249596D01*
X150436568Y-113249596D01*
X150476593Y-113153207D01*
X150476807Y-112907869D01*
X150383118Y-112681124D01*
X150209789Y-112507492D01*
X149983207Y-112413407D01*
X149737869Y-112413193D01*
X149511124Y-112506882D01*
X149337492Y-112680211D01*
X149243407Y-112906793D01*
X149243193Y-113152131D01*
X125836593Y-113152131D01*
X125836893Y-112808849D01*
X125667244Y-112398267D01*
X125353385Y-112083860D01*
X124943100Y-111913495D01*
X124498849Y-111913107D01*
X124088267Y-112082756D01*
X123773860Y-112396615D01*
X123603495Y-112806900D01*
X123603107Y-113251151D01*
X122627599Y-113251151D01*
X122629155Y-113249596D01*
X122533909Y-113044503D01*
X122006720Y-112905139D01*
X121466329Y-112978130D01*
X121306091Y-113044503D01*
X121210845Y-113249596D01*
X119721700Y-113249596D01*
X119721700Y-111981151D01*
X120803107Y-111981151D01*
X120972756Y-112391733D01*
X121286615Y-112706140D01*
X121696900Y-112876505D01*
X122141151Y-112876893D01*
X122551733Y-112707244D01*
X122866140Y-112393385D01*
X123036505Y-111983100D01*
X123036593Y-111882131D01*
X148227193Y-111882131D01*
X148320882Y-112108876D01*
X148494211Y-112282508D01*
X148720793Y-112376593D01*
X148966131Y-112376807D01*
X149192876Y-112283118D01*
X149366508Y-112109789D01*
X149419923Y-111981151D01*
X155217107Y-111981151D01*
X155386756Y-112391733D01*
X155700615Y-112706140D01*
X156110900Y-112876505D01*
X156555151Y-112876893D01*
X156965733Y-112707244D01*
X157280140Y-112393385D01*
X157450505Y-111983100D01*
X157450893Y-111538849D01*
X157281244Y-111128267D01*
X156967385Y-110813860D01*
X156720034Y-110711151D01*
X158017107Y-110711151D01*
X158186756Y-111121733D01*
X158500615Y-111436140D01*
X158910900Y-111606505D01*
X159355151Y-111606893D01*
X159765733Y-111437244D01*
X160080140Y-111123385D01*
X160250505Y-110713100D01*
X160250893Y-110268849D01*
X160081244Y-109858267D01*
X159767385Y-109543860D01*
X159357100Y-109373495D01*
X158912849Y-109373107D01*
X158502267Y-109542756D01*
X158187860Y-109856615D01*
X158017495Y-110266900D01*
X158017107Y-110711151D01*
X156720034Y-110711151D01*
X156557100Y-110643495D01*
X156112849Y-110643107D01*
X155702267Y-110812756D01*
X155387860Y-111126615D01*
X155217495Y-111536900D01*
X155217107Y-111981151D01*
X149419923Y-111981151D01*
X149460593Y-111883207D01*
X149460807Y-111637869D01*
X149367118Y-111411124D01*
X149193789Y-111237492D01*
X148967207Y-111143407D01*
X148721869Y-111143193D01*
X148495124Y-111236882D01*
X148321492Y-111410211D01*
X148227407Y-111636793D01*
X148227193Y-111882131D01*
X123036593Y-111882131D01*
X123036893Y-111538849D01*
X122867244Y-111128267D01*
X122553385Y-110813860D01*
X122306034Y-110711151D01*
X123603107Y-110711151D01*
X123772756Y-111121733D01*
X124086615Y-111436140D01*
X124496900Y-111606505D01*
X124941151Y-111606893D01*
X125351733Y-111437244D01*
X125666140Y-111123385D01*
X125836505Y-110713100D01*
X125836593Y-110612131D01*
X147338193Y-110612131D01*
X147431882Y-110838876D01*
X147605211Y-111012508D01*
X147831793Y-111106593D01*
X148077131Y-111106807D01*
X148303876Y-111013118D01*
X148477508Y-110839789D01*
X148571593Y-110613207D01*
X148571807Y-110367869D01*
X148478118Y-110141124D01*
X148304789Y-109967492D01*
X148078207Y-109873407D01*
X147832869Y-109873193D01*
X147606124Y-109966882D01*
X147432492Y-110140211D01*
X147338407Y-110366793D01*
X147338193Y-110612131D01*
X125836593Y-110612131D01*
X125836893Y-110268849D01*
X125667244Y-109858267D01*
X125353385Y-109543860D01*
X124943100Y-109373495D01*
X124498849Y-109373107D01*
X124088267Y-109542756D01*
X123773860Y-109856615D01*
X123603495Y-110266900D01*
X123603107Y-110711151D01*
X122306034Y-110711151D01*
X122143100Y-110643495D01*
X121698849Y-110643107D01*
X121288267Y-110812756D01*
X120973860Y-111126615D01*
X120803495Y-111536900D01*
X120803107Y-111981151D01*
X119721700Y-111981151D01*
X119721700Y-109441151D01*
X120803107Y-109441151D01*
X120972756Y-109851733D01*
X121286615Y-110166140D01*
X121696900Y-110336505D01*
X122141151Y-110336893D01*
X122551733Y-110167244D01*
X122866140Y-109853385D01*
X123036505Y-109443100D01*
X123036593Y-109342131D01*
X146576193Y-109342131D01*
X146669882Y-109568876D01*
X146843211Y-109742508D01*
X147069793Y-109836593D01*
X147315131Y-109836807D01*
X147541876Y-109743118D01*
X147715508Y-109569789D01*
X147768923Y-109441151D01*
X155217107Y-109441151D01*
X155386756Y-109851733D01*
X155700615Y-110166140D01*
X156110900Y-110336505D01*
X156555151Y-110336893D01*
X156965733Y-110167244D01*
X157280140Y-109853385D01*
X157450505Y-109443100D01*
X157450893Y-108998849D01*
X157281244Y-108588267D01*
X156967385Y-108273860D01*
X156720034Y-108171151D01*
X158017107Y-108171151D01*
X158186756Y-108581733D01*
X158500615Y-108896140D01*
X158910900Y-109066505D01*
X159355151Y-109066893D01*
X159765733Y-108897244D01*
X160080140Y-108583385D01*
X160250505Y-108173100D01*
X160250893Y-107728849D01*
X160081244Y-107318267D01*
X159767385Y-107003860D01*
X159357100Y-106833495D01*
X158912849Y-106833107D01*
X158502267Y-107002756D01*
X158187860Y-107316615D01*
X158017495Y-107726900D01*
X158017107Y-108171151D01*
X156720034Y-108171151D01*
X156557100Y-108103495D01*
X156112849Y-108103107D01*
X155702267Y-108272756D01*
X155387860Y-108586615D01*
X155217495Y-108996900D01*
X155217107Y-109441151D01*
X147768923Y-109441151D01*
X147809593Y-109343207D01*
X147809807Y-109097869D01*
X147716118Y-108871124D01*
X147542789Y-108697492D01*
X147316207Y-108603407D01*
X147070869Y-108603193D01*
X146844124Y-108696882D01*
X146670492Y-108870211D01*
X146576407Y-109096793D01*
X146576193Y-109342131D01*
X123036593Y-109342131D01*
X123036893Y-108998849D01*
X122867244Y-108588267D01*
X122553385Y-108273860D01*
X122306034Y-108171151D01*
X123603107Y-108171151D01*
X123772756Y-108581733D01*
X124086615Y-108896140D01*
X124496900Y-109066505D01*
X124941151Y-109066893D01*
X125351733Y-108897244D01*
X125666140Y-108583385D01*
X125836505Y-108173100D01*
X125836593Y-108072131D01*
X145814193Y-108072131D01*
X145907882Y-108298876D01*
X146081211Y-108472508D01*
X146307793Y-108566593D01*
X146553131Y-108566807D01*
X146779876Y-108473118D01*
X146953508Y-108299789D01*
X147047593Y-108073207D01*
X147047807Y-107827869D01*
X146954118Y-107601124D01*
X146780789Y-107427492D01*
X146554207Y-107333407D01*
X146308869Y-107333193D01*
X146082124Y-107426882D01*
X145908492Y-107600211D01*
X145814407Y-107826793D01*
X145814193Y-108072131D01*
X125836593Y-108072131D01*
X125836893Y-107728849D01*
X125667244Y-107318267D01*
X125353385Y-107003860D01*
X124943100Y-106833495D01*
X124498849Y-106833107D01*
X124088267Y-107002756D01*
X123773860Y-107316615D01*
X123603495Y-107726900D01*
X123603107Y-108171151D01*
X122306034Y-108171151D01*
X122143100Y-108103495D01*
X121698849Y-108103107D01*
X121288267Y-108272756D01*
X120973860Y-108586615D01*
X120803495Y-108996900D01*
X120803107Y-109441151D01*
X119721700Y-109441151D01*
X119721700Y-106901151D01*
X120803107Y-106901151D01*
X120972756Y-107311733D01*
X121286615Y-107626140D01*
X121696900Y-107796505D01*
X122141151Y-107796893D01*
X122551733Y-107627244D01*
X122866140Y-107313385D01*
X123036505Y-106903100D01*
X123036593Y-106802131D01*
X135400193Y-106802131D01*
X135493882Y-107028876D01*
X135667211Y-107202508D01*
X135893793Y-107296593D01*
X136139131Y-107296807D01*
X136365876Y-107203118D01*
X136539508Y-107029789D01*
X136592923Y-106901151D01*
X155217107Y-106901151D01*
X155386756Y-107311733D01*
X155700615Y-107626140D01*
X156110900Y-107796505D01*
X156555151Y-107796893D01*
X156965733Y-107627244D01*
X157280140Y-107313385D01*
X157450505Y-106903100D01*
X157450893Y-106458849D01*
X157281244Y-106048267D01*
X156967385Y-105733860D01*
X156720034Y-105631151D01*
X158017107Y-105631151D01*
X158186756Y-106041733D01*
X158500615Y-106356140D01*
X158910900Y-106526505D01*
X159355151Y-106526893D01*
X159765733Y-106357244D01*
X160080140Y-106043385D01*
X160250505Y-105633100D01*
X160250893Y-105188849D01*
X160081244Y-104778267D01*
X159767385Y-104463860D01*
X159357100Y-104293495D01*
X158912849Y-104293107D01*
X158502267Y-104462756D01*
X158187860Y-104776615D01*
X158017495Y-105186900D01*
X158017107Y-105631151D01*
X156720034Y-105631151D01*
X156557100Y-105563495D01*
X156112849Y-105563107D01*
X155702267Y-105732756D01*
X155387860Y-106046615D01*
X155217495Y-106456900D01*
X155217107Y-106901151D01*
X136592923Y-106901151D01*
X136633593Y-106803207D01*
X136633807Y-106557869D01*
X136540118Y-106331124D01*
X136366789Y-106157492D01*
X136140207Y-106063407D01*
X135894869Y-106063193D01*
X135668124Y-106156882D01*
X135494492Y-106330211D01*
X135400407Y-106556793D01*
X135400193Y-106802131D01*
X123036593Y-106802131D01*
X123036893Y-106458849D01*
X122867244Y-106048267D01*
X122553385Y-105733860D01*
X122306034Y-105631151D01*
X123603107Y-105631151D01*
X123772756Y-106041733D01*
X124086615Y-106356140D01*
X124496900Y-106526505D01*
X124941151Y-106526893D01*
X125351733Y-106357244D01*
X125666140Y-106043385D01*
X125825695Y-105659131D01*
X134003193Y-105659131D01*
X134096882Y-105885876D01*
X134270211Y-106059508D01*
X134496793Y-106153593D01*
X134742131Y-106153807D01*
X134968876Y-106060118D01*
X135142508Y-105886789D01*
X135236593Y-105660207D01*
X135236593Y-105659131D01*
X145179193Y-105659131D01*
X145272882Y-105885876D01*
X145446211Y-106059508D01*
X145672793Y-106153593D01*
X145918131Y-106153807D01*
X146144876Y-106060118D01*
X146318508Y-105886789D01*
X146412593Y-105660207D01*
X146412807Y-105414869D01*
X146319118Y-105188124D01*
X146145789Y-105014492D01*
X145919207Y-104920407D01*
X145673869Y-104920193D01*
X145447124Y-105013882D01*
X145273492Y-105187211D01*
X145179407Y-105413793D01*
X145179193Y-105659131D01*
X135236593Y-105659131D01*
X135236807Y-105414869D01*
X135143118Y-105188124D01*
X134969789Y-105014492D01*
X134743207Y-104920407D01*
X134497869Y-104920193D01*
X134271124Y-105013882D01*
X134097492Y-105187211D01*
X134003407Y-105413793D01*
X134003193Y-105659131D01*
X125825695Y-105659131D01*
X125836505Y-105633100D01*
X125836893Y-105188849D01*
X125667244Y-104778267D01*
X125353385Y-104463860D01*
X125173418Y-104389131D01*
X130320193Y-104389131D01*
X130413882Y-104615876D01*
X130587211Y-104789508D01*
X130813793Y-104883593D01*
X131059131Y-104883807D01*
X131285876Y-104790118D01*
X131459508Y-104616789D01*
X131553593Y-104390207D01*
X131553618Y-104361151D01*
X155217107Y-104361151D01*
X155386756Y-104771733D01*
X155700615Y-105086140D01*
X156110900Y-105256505D01*
X156555151Y-105256893D01*
X156965733Y-105087244D01*
X157280140Y-104773385D01*
X157450505Y-104363100D01*
X157450893Y-103918849D01*
X157281244Y-103508267D01*
X156967385Y-103193860D01*
X156720034Y-103091151D01*
X158017107Y-103091151D01*
X158186756Y-103501733D01*
X158500615Y-103816140D01*
X158910900Y-103986505D01*
X159355151Y-103986893D01*
X159765733Y-103817244D01*
X160080140Y-103503385D01*
X160250505Y-103093100D01*
X160250893Y-102648849D01*
X160081244Y-102238267D01*
X159767385Y-101923860D01*
X159357100Y-101753495D01*
X158912849Y-101753107D01*
X158502267Y-101922756D01*
X158187860Y-102236615D01*
X158017495Y-102646900D01*
X158017107Y-103091151D01*
X156720034Y-103091151D01*
X156557100Y-103023495D01*
X156112849Y-103023107D01*
X155702267Y-103192756D01*
X155387860Y-103506615D01*
X155217495Y-103916900D01*
X155217107Y-104361151D01*
X131553618Y-104361151D01*
X131553807Y-104144869D01*
X131460118Y-103918124D01*
X131286789Y-103744492D01*
X131060207Y-103650407D01*
X130814869Y-103650193D01*
X130588124Y-103743882D01*
X130414492Y-103917211D01*
X130320407Y-104143793D01*
X130320193Y-104389131D01*
X125173418Y-104389131D01*
X124943100Y-104293495D01*
X124498849Y-104293107D01*
X124088267Y-104462756D01*
X123773860Y-104776615D01*
X123603495Y-105186900D01*
X123603107Y-105631151D01*
X122306034Y-105631151D01*
X122143100Y-105563495D01*
X121698849Y-105563107D01*
X121288267Y-105732756D01*
X120973860Y-106046615D01*
X120803495Y-106456900D01*
X120803107Y-106901151D01*
X119721700Y-106901151D01*
X119721700Y-104361151D01*
X120803107Y-104361151D01*
X120972756Y-104771733D01*
X121286615Y-105086140D01*
X121696900Y-105256505D01*
X122141151Y-105256893D01*
X122551733Y-105087244D01*
X122866140Y-104773385D01*
X123036505Y-104363100D01*
X123036893Y-103918849D01*
X122867244Y-103508267D01*
X122553385Y-103193860D01*
X122306034Y-103091151D01*
X123603107Y-103091151D01*
X123772756Y-103501733D01*
X124086615Y-103816140D01*
X124496900Y-103986505D01*
X124941151Y-103986893D01*
X125351733Y-103817244D01*
X125666140Y-103503385D01*
X125836505Y-103093100D01*
X125836593Y-102992131D01*
X131590193Y-102992131D01*
X131683882Y-103218876D01*
X131857211Y-103392508D01*
X132083793Y-103486593D01*
X132329131Y-103486807D01*
X132555876Y-103393118D01*
X132729508Y-103219789D01*
X132823593Y-102993207D01*
X132823807Y-102747869D01*
X132730118Y-102521124D01*
X132566412Y-102357131D01*
X134130193Y-102357131D01*
X134223882Y-102583876D01*
X134397211Y-102757508D01*
X134623793Y-102851593D01*
X134869131Y-102851807D01*
X135095876Y-102758118D01*
X135269508Y-102584789D01*
X135363593Y-102358207D01*
X135363807Y-102112869D01*
X135270118Y-101886124D01*
X135205259Y-101821151D01*
X155217107Y-101821151D01*
X155386756Y-102231733D01*
X155700615Y-102546140D01*
X156110900Y-102716505D01*
X156555151Y-102716893D01*
X156965733Y-102547244D01*
X157280140Y-102233385D01*
X157450505Y-101823100D01*
X157450893Y-101378849D01*
X157281244Y-100968267D01*
X156967385Y-100653860D01*
X156720034Y-100551151D01*
X158017107Y-100551151D01*
X158186756Y-100961733D01*
X158500615Y-101276140D01*
X158910900Y-101446505D01*
X159355151Y-101446893D01*
X159765733Y-101277244D01*
X160080140Y-100963385D01*
X160250505Y-100553100D01*
X160250893Y-100108849D01*
X160081244Y-99698267D01*
X159767385Y-99383860D01*
X159357100Y-99213495D01*
X158912849Y-99213107D01*
X158502267Y-99382756D01*
X158187860Y-99696615D01*
X158017495Y-100106900D01*
X158017107Y-100551151D01*
X156720034Y-100551151D01*
X156557100Y-100483495D01*
X156112849Y-100483107D01*
X155702267Y-100652756D01*
X155387860Y-100966615D01*
X155217495Y-101376900D01*
X155217107Y-101821151D01*
X135205259Y-101821151D01*
X135096789Y-101712492D01*
X134870207Y-101618407D01*
X134624869Y-101618193D01*
X134398124Y-101711882D01*
X134224492Y-101885211D01*
X134130407Y-102111793D01*
X134130193Y-102357131D01*
X132566412Y-102357131D01*
X132556789Y-102347492D01*
X132330207Y-102253407D01*
X132084869Y-102253193D01*
X131858124Y-102346882D01*
X131684492Y-102520211D01*
X131590407Y-102746793D01*
X131590193Y-102992131D01*
X125836593Y-102992131D01*
X125836893Y-102648849D01*
X125667244Y-102238267D01*
X125353385Y-101923860D01*
X124943100Y-101753495D01*
X124498849Y-101753107D01*
X124088267Y-101922756D01*
X123773860Y-102236615D01*
X123603495Y-102646900D01*
X123603107Y-103091151D01*
X122306034Y-103091151D01*
X122143100Y-103023495D01*
X121698849Y-103023107D01*
X121288267Y-103192756D01*
X120973860Y-103506615D01*
X120803495Y-103916900D01*
X120803107Y-104361151D01*
X119721700Y-104361151D01*
X119721700Y-101821151D01*
X120803107Y-101821151D01*
X120972756Y-102231733D01*
X121286615Y-102546140D01*
X121696900Y-102716505D01*
X122141151Y-102716893D01*
X122551733Y-102547244D01*
X122866140Y-102233385D01*
X123036505Y-101823100D01*
X123036893Y-101378849D01*
X122867244Y-100968267D01*
X122553385Y-100653860D01*
X122306034Y-100551151D01*
X123603107Y-100551151D01*
X123772756Y-100961733D01*
X124086615Y-101276140D01*
X124496900Y-101446505D01*
X124941151Y-101446893D01*
X125351733Y-101277244D01*
X125666140Y-100963385D01*
X125836505Y-100553100D01*
X125836893Y-100108849D01*
X125667244Y-99698267D01*
X125353385Y-99383860D01*
X125106034Y-99281151D01*
X155217107Y-99281151D01*
X155386756Y-99691733D01*
X155700615Y-100006140D01*
X156110900Y-100176505D01*
X156555151Y-100176893D01*
X156965733Y-100007244D01*
X157280140Y-99693385D01*
X157450505Y-99283100D01*
X157450893Y-98838849D01*
X157281244Y-98428267D01*
X156967385Y-98113860D01*
X156720034Y-98011151D01*
X158017107Y-98011151D01*
X158186756Y-98421733D01*
X158500615Y-98736140D01*
X158910900Y-98906505D01*
X159355151Y-98906893D01*
X159765733Y-98737244D01*
X160080140Y-98423385D01*
X160250505Y-98013100D01*
X160250893Y-97568849D01*
X160081244Y-97158267D01*
X159767385Y-96843860D01*
X159357100Y-96673495D01*
X158912849Y-96673107D01*
X158502267Y-96842756D01*
X158187860Y-97156615D01*
X158017495Y-97566900D01*
X158017107Y-98011151D01*
X156720034Y-98011151D01*
X156557100Y-97943495D01*
X156112849Y-97943107D01*
X155702267Y-98112756D01*
X155387860Y-98426615D01*
X155217495Y-98836900D01*
X155217107Y-99281151D01*
X125106034Y-99281151D01*
X124943100Y-99213495D01*
X124498849Y-99213107D01*
X124088267Y-99382756D01*
X123773860Y-99696615D01*
X123603495Y-100106900D01*
X123603107Y-100551151D01*
X122306034Y-100551151D01*
X122143100Y-100483495D01*
X121698849Y-100483107D01*
X121288267Y-100652756D01*
X120973860Y-100966615D01*
X120803495Y-101376900D01*
X120803107Y-101821151D01*
X119721700Y-101821151D01*
X119721700Y-99281151D01*
X120803107Y-99281151D01*
X120972756Y-99691733D01*
X121286615Y-100006140D01*
X121696900Y-100176505D01*
X122141151Y-100176893D01*
X122551733Y-100007244D01*
X122866140Y-99693385D01*
X123036505Y-99283100D01*
X123036893Y-98838849D01*
X122867244Y-98428267D01*
X122553385Y-98113860D01*
X122306034Y-98011151D01*
X123603107Y-98011151D01*
X123772756Y-98421733D01*
X124086615Y-98736140D01*
X124496900Y-98906505D01*
X124941151Y-98906893D01*
X125351733Y-98737244D01*
X125666140Y-98423385D01*
X125836505Y-98013100D01*
X125836893Y-97568849D01*
X125667244Y-97158267D01*
X125353385Y-96843860D01*
X125106034Y-96741151D01*
X155217107Y-96741151D01*
X155386756Y-97151733D01*
X155700615Y-97466140D01*
X156110900Y-97636505D01*
X156555151Y-97636893D01*
X156965733Y-97467244D01*
X157280140Y-97153385D01*
X157450505Y-96743100D01*
X157450893Y-96298849D01*
X157281244Y-95888267D01*
X156967385Y-95573860D01*
X156720034Y-95471151D01*
X158017107Y-95471151D01*
X158186756Y-95881733D01*
X158500615Y-96196140D01*
X158910900Y-96366505D01*
X159355151Y-96366893D01*
X159765733Y-96197244D01*
X160080140Y-95883385D01*
X160250505Y-95473100D01*
X160250893Y-95028849D01*
X160081244Y-94618267D01*
X159767385Y-94303860D01*
X159357100Y-94133495D01*
X158912849Y-94133107D01*
X158502267Y-94302756D01*
X158187860Y-94616615D01*
X158017495Y-95026900D01*
X158017107Y-95471151D01*
X156720034Y-95471151D01*
X156557100Y-95403495D01*
X156112849Y-95403107D01*
X155702267Y-95572756D01*
X155387860Y-95886615D01*
X155217495Y-96296900D01*
X155217107Y-96741151D01*
X125106034Y-96741151D01*
X124943100Y-96673495D01*
X124498849Y-96673107D01*
X124088267Y-96842756D01*
X123773860Y-97156615D01*
X123603495Y-97566900D01*
X123603107Y-98011151D01*
X122306034Y-98011151D01*
X122143100Y-97943495D01*
X121698849Y-97943107D01*
X121288267Y-98112756D01*
X120973860Y-98426615D01*
X120803495Y-98836900D01*
X120803107Y-99281151D01*
X119721700Y-99281151D01*
X119721700Y-96741151D01*
X120803107Y-96741151D01*
X120972756Y-97151733D01*
X121286615Y-97466140D01*
X121696900Y-97636505D01*
X122141151Y-97636893D01*
X122551733Y-97467244D01*
X122866140Y-97153385D01*
X123036505Y-96743100D01*
X123036893Y-96298849D01*
X122867244Y-95888267D01*
X122553385Y-95573860D01*
X122306034Y-95471151D01*
X123603107Y-95471151D01*
X123772756Y-95881733D01*
X124086615Y-96196140D01*
X124496900Y-96366505D01*
X124941151Y-96366893D01*
X125351733Y-96197244D01*
X125666140Y-95883385D01*
X125836505Y-95473100D01*
X125836593Y-95372131D01*
X129494693Y-95372131D01*
X129588382Y-95598876D01*
X129761711Y-95772508D01*
X129988293Y-95866593D01*
X130233631Y-95866807D01*
X130460376Y-95773118D01*
X130634008Y-95599789D01*
X130728093Y-95373207D01*
X130728093Y-95372131D01*
X140353193Y-95372131D01*
X140446882Y-95598876D01*
X140620211Y-95772508D01*
X140846793Y-95866593D01*
X141092131Y-95866807D01*
X141318876Y-95773118D01*
X141492508Y-95599789D01*
X141586593Y-95373207D01*
X141586807Y-95127869D01*
X141493118Y-94901124D01*
X141319789Y-94727492D01*
X141093207Y-94633407D01*
X140847869Y-94633193D01*
X140621124Y-94726882D01*
X140447492Y-94900211D01*
X140353407Y-95126793D01*
X140353193Y-95372131D01*
X130728093Y-95372131D01*
X130728307Y-95127869D01*
X130634618Y-94901124D01*
X130461289Y-94727492D01*
X130234707Y-94633407D01*
X129989369Y-94633193D01*
X129762624Y-94726882D01*
X129588992Y-94900211D01*
X129494907Y-95126793D01*
X129494693Y-95372131D01*
X125836593Y-95372131D01*
X125836893Y-95028849D01*
X125667244Y-94618267D01*
X125353385Y-94303860D01*
X125106034Y-94201151D01*
X155217107Y-94201151D01*
X155386756Y-94611733D01*
X155700615Y-94926140D01*
X156110900Y-95096505D01*
X156555151Y-95096893D01*
X156965733Y-94927244D01*
X157280140Y-94613385D01*
X157450505Y-94203100D01*
X157450893Y-93758849D01*
X157281244Y-93348267D01*
X156967385Y-93033860D01*
X156720034Y-92931151D01*
X158017107Y-92931151D01*
X158186756Y-93341733D01*
X158500615Y-93656140D01*
X158910900Y-93826505D01*
X159355151Y-93826893D01*
X159765733Y-93657244D01*
X160080140Y-93343385D01*
X160250505Y-92933100D01*
X160250893Y-92488849D01*
X160081244Y-92078267D01*
X159767385Y-91763860D01*
X159357100Y-91593495D01*
X158912849Y-91593107D01*
X158502267Y-91762756D01*
X158187860Y-92076615D01*
X158017495Y-92486900D01*
X158017107Y-92931151D01*
X156720034Y-92931151D01*
X156557100Y-92863495D01*
X156112849Y-92863107D01*
X155702267Y-93032756D01*
X155387860Y-93346615D01*
X155217495Y-93756900D01*
X155217107Y-94201151D01*
X125106034Y-94201151D01*
X124943100Y-94133495D01*
X124498849Y-94133107D01*
X124088267Y-94302756D01*
X123773860Y-94616615D01*
X123603495Y-95026900D01*
X123603107Y-95471151D01*
X122306034Y-95471151D01*
X122143100Y-95403495D01*
X121698849Y-95403107D01*
X121288267Y-95572756D01*
X120973860Y-95886615D01*
X120803495Y-96296900D01*
X120803107Y-96741151D01*
X119721700Y-96741151D01*
X119721700Y-94201151D01*
X120803107Y-94201151D01*
X120972756Y-94611733D01*
X121286615Y-94926140D01*
X121696900Y-95096505D01*
X122141151Y-95096893D01*
X122551733Y-94927244D01*
X122866140Y-94613385D01*
X123036505Y-94203100D01*
X123036893Y-93758849D01*
X122867244Y-93348267D01*
X122553385Y-93033860D01*
X122306034Y-92931151D01*
X123603107Y-92931151D01*
X123772756Y-93341733D01*
X124086615Y-93656140D01*
X124496900Y-93826505D01*
X124941151Y-93826893D01*
X125351733Y-93657244D01*
X125666140Y-93343385D01*
X125836505Y-92933100D01*
X125836893Y-92488849D01*
X125667244Y-92078267D01*
X125353385Y-91763860D01*
X125106034Y-91661151D01*
X155217107Y-91661151D01*
X155386756Y-92071733D01*
X155700615Y-92386140D01*
X156110900Y-92556505D01*
X156555151Y-92556893D01*
X156965733Y-92387244D01*
X157280140Y-92073385D01*
X157450505Y-91663100D01*
X157450893Y-91218849D01*
X157281244Y-90808267D01*
X156967385Y-90493860D01*
X156720034Y-90391151D01*
X158017107Y-90391151D01*
X158186756Y-90801733D01*
X158500615Y-91116140D01*
X158910900Y-91286505D01*
X159355151Y-91286893D01*
X159765733Y-91117244D01*
X160080140Y-90803385D01*
X160250505Y-90393100D01*
X160250893Y-89948849D01*
X160081244Y-89538267D01*
X159767385Y-89223860D01*
X159357100Y-89053495D01*
X158912849Y-89053107D01*
X158502267Y-89222756D01*
X158187860Y-89536615D01*
X158017495Y-89946900D01*
X158017107Y-90391151D01*
X156720034Y-90391151D01*
X156557100Y-90323495D01*
X156112849Y-90323107D01*
X155702267Y-90492756D01*
X155387860Y-90806615D01*
X155217495Y-91216900D01*
X155217107Y-91661151D01*
X125106034Y-91661151D01*
X124943100Y-91593495D01*
X124498849Y-91593107D01*
X124088267Y-91762756D01*
X123773860Y-92076615D01*
X123603495Y-92486900D01*
X123603107Y-92931151D01*
X122306034Y-92931151D01*
X122143100Y-92863495D01*
X121698849Y-92863107D01*
X121288267Y-93032756D01*
X120973860Y-93346615D01*
X120803495Y-93756900D01*
X120803107Y-94201151D01*
X119721700Y-94201151D01*
X119721700Y-91661151D01*
X120803107Y-91661151D01*
X120972756Y-92071733D01*
X121286615Y-92386140D01*
X121696900Y-92556505D01*
X122141151Y-92556893D01*
X122551733Y-92387244D01*
X122866140Y-92073385D01*
X123036505Y-91663100D01*
X123036893Y-91218849D01*
X122867244Y-90808267D01*
X122553385Y-90493860D01*
X122306034Y-90391151D01*
X123603107Y-90391151D01*
X123772756Y-90801733D01*
X124086615Y-91116140D01*
X124496900Y-91286505D01*
X124941151Y-91286893D01*
X125351733Y-91117244D01*
X125666140Y-90803385D01*
X125836505Y-90393100D01*
X125836893Y-89948849D01*
X125667244Y-89538267D01*
X125353385Y-89223860D01*
X124943100Y-89053495D01*
X124498849Y-89053107D01*
X124088267Y-89222756D01*
X123773860Y-89536615D01*
X123603495Y-89946900D01*
X123603107Y-90391151D01*
X122306034Y-90391151D01*
X122143100Y-90323495D01*
X121698849Y-90323107D01*
X121288267Y-90492756D01*
X120973860Y-90806615D01*
X120803495Y-91216900D01*
X120803107Y-91661151D01*
X119721700Y-91661151D01*
X119721700Y-89121151D01*
X120803107Y-89121151D01*
X120972756Y-89531733D01*
X121286615Y-89846140D01*
X121696900Y-90016505D01*
X122141151Y-90016893D01*
X122551733Y-89847244D01*
X122866140Y-89533385D01*
X123036505Y-89123100D01*
X123036891Y-88680404D01*
X124010845Y-88680404D01*
X124106091Y-88885497D01*
X124633280Y-89024861D01*
X124653491Y-89022131D01*
X129685193Y-89022131D01*
X129778882Y-89248876D01*
X129952211Y-89422508D01*
X130178793Y-89516593D01*
X130424131Y-89516807D01*
X130650876Y-89423118D01*
X130824508Y-89249789D01*
X130877923Y-89121151D01*
X155217107Y-89121151D01*
X155386756Y-89531733D01*
X155700615Y-89846140D01*
X156110900Y-90016505D01*
X156555151Y-90016893D01*
X156965733Y-89847244D01*
X157280140Y-89533385D01*
X157450505Y-89123100D01*
X157450891Y-88680404D01*
X158424845Y-88680404D01*
X158520091Y-88885497D01*
X159047280Y-89024861D01*
X159587671Y-88951870D01*
X159747909Y-88885497D01*
X159843155Y-88680404D01*
X159134000Y-87971250D01*
X158424845Y-88680404D01*
X157450891Y-88680404D01*
X157450893Y-88678849D01*
X157281244Y-88268267D01*
X156967385Y-87953860D01*
X156557100Y-87783495D01*
X156112849Y-87783107D01*
X155702267Y-87952756D01*
X155387860Y-88266615D01*
X155217495Y-88676900D01*
X155217107Y-89121151D01*
X130877923Y-89121151D01*
X130918593Y-89023207D01*
X130918807Y-88777869D01*
X130825118Y-88551124D01*
X130651789Y-88377492D01*
X130425207Y-88283407D01*
X130179869Y-88283193D01*
X129953124Y-88376882D01*
X129779492Y-88550211D01*
X129685407Y-88776793D01*
X129685193Y-89022131D01*
X124653491Y-89022131D01*
X125173671Y-88951870D01*
X125333909Y-88885497D01*
X125429155Y-88680404D01*
X124720000Y-87971250D01*
X124010845Y-88680404D01*
X123036891Y-88680404D01*
X123036893Y-88678849D01*
X122867244Y-88268267D01*
X122553385Y-87953860D01*
X122143100Y-87783495D01*
X121698849Y-87783107D01*
X121288267Y-87952756D01*
X120973860Y-88266615D01*
X120803495Y-88676900D01*
X120803107Y-89121151D01*
X119721700Y-89121151D01*
X119721700Y-87543280D01*
X123325139Y-87543280D01*
X123398130Y-88083671D01*
X123464503Y-88243909D01*
X123669596Y-88339155D01*
X124378750Y-87630000D01*
X125061250Y-87630000D01*
X125770404Y-88339155D01*
X125975497Y-88243909D01*
X126114861Y-87716720D01*
X126091435Y-87543280D01*
X157739139Y-87543280D01*
X157812130Y-88083671D01*
X157878503Y-88243909D01*
X158083596Y-88339155D01*
X158792750Y-87630000D01*
X159475250Y-87630000D01*
X160184404Y-88339155D01*
X160389497Y-88243909D01*
X160528861Y-87716720D01*
X160455870Y-87176329D01*
X160389497Y-87016091D01*
X160184404Y-86920845D01*
X159475250Y-87630000D01*
X158792750Y-87630000D01*
X158083596Y-86920845D01*
X157878503Y-87016091D01*
X157739139Y-87543280D01*
X126091435Y-87543280D01*
X126041870Y-87176329D01*
X125975497Y-87016091D01*
X125770404Y-86920845D01*
X125061250Y-87630000D01*
X124378750Y-87630000D01*
X123669596Y-86920845D01*
X123464503Y-87016091D01*
X123325139Y-87543280D01*
X119721700Y-87543280D01*
X119721700Y-86581151D01*
X120803107Y-86581151D01*
X120972756Y-86991733D01*
X121286615Y-87306140D01*
X121696900Y-87476505D01*
X122141151Y-87476893D01*
X122551733Y-87307244D01*
X122866140Y-86993385D01*
X123036505Y-86583100D01*
X123036508Y-86579596D01*
X124010845Y-86579596D01*
X124720000Y-87288750D01*
X125429155Y-86579596D01*
X125383892Y-86482131D01*
X142702693Y-86482131D01*
X142796382Y-86708876D01*
X142969711Y-86882508D01*
X143196293Y-86976593D01*
X143441631Y-86976807D01*
X143668376Y-86883118D01*
X143842008Y-86709789D01*
X143895423Y-86581151D01*
X155217107Y-86581151D01*
X155386756Y-86991733D01*
X155700615Y-87306140D01*
X156110900Y-87476505D01*
X156555151Y-87476893D01*
X156965733Y-87307244D01*
X157280140Y-86993385D01*
X157450505Y-86583100D01*
X157450508Y-86579596D01*
X158424845Y-86579596D01*
X159134000Y-87288750D01*
X159843155Y-86579596D01*
X159747909Y-86374503D01*
X159220720Y-86235139D01*
X158680329Y-86308130D01*
X158520091Y-86374503D01*
X158424845Y-86579596D01*
X157450508Y-86579596D01*
X157450893Y-86138849D01*
X157281244Y-85728267D01*
X156967385Y-85413860D01*
X156720034Y-85311151D01*
X158017107Y-85311151D01*
X158186756Y-85721733D01*
X158500615Y-86036140D01*
X158910900Y-86206505D01*
X159355151Y-86206893D01*
X159765733Y-86037244D01*
X160080140Y-85723385D01*
X160250505Y-85313100D01*
X160250893Y-84868849D01*
X160081244Y-84458267D01*
X159767385Y-84143860D01*
X159357100Y-83973495D01*
X158912849Y-83973107D01*
X158502267Y-84142756D01*
X158187860Y-84456615D01*
X158017495Y-84866900D01*
X158017107Y-85311151D01*
X156720034Y-85311151D01*
X156557100Y-85243495D01*
X156112849Y-85243107D01*
X155702267Y-85412756D01*
X155387860Y-85726615D01*
X155217495Y-86136900D01*
X155217107Y-86581151D01*
X143895423Y-86581151D01*
X143936093Y-86483207D01*
X143936307Y-86237869D01*
X143842618Y-86011124D01*
X143669289Y-85837492D01*
X143442707Y-85743407D01*
X143197369Y-85743193D01*
X142970624Y-85836882D01*
X142796992Y-86010211D01*
X142702907Y-86236793D01*
X142702693Y-86482131D01*
X125383892Y-86482131D01*
X125333909Y-86374503D01*
X124806720Y-86235139D01*
X124266329Y-86308130D01*
X124106091Y-86374503D01*
X124010845Y-86579596D01*
X123036508Y-86579596D01*
X123036893Y-86138849D01*
X122867244Y-85728267D01*
X122553385Y-85413860D01*
X122306034Y-85311151D01*
X123603107Y-85311151D01*
X123772756Y-85721733D01*
X124086615Y-86036140D01*
X124496900Y-86206505D01*
X124941151Y-86206893D01*
X125351733Y-86037244D01*
X125666140Y-85723385D01*
X125836505Y-85313100D01*
X125836893Y-84868849D01*
X125667244Y-84458267D01*
X125353385Y-84143860D01*
X125106034Y-84041151D01*
X155217107Y-84041151D01*
X155386756Y-84451733D01*
X155700615Y-84766140D01*
X156110900Y-84936505D01*
X156555151Y-84936893D01*
X156965733Y-84767244D01*
X157280140Y-84453385D01*
X157450505Y-84043100D01*
X157450893Y-83598849D01*
X157281244Y-83188267D01*
X156967385Y-82873860D01*
X156720034Y-82771151D01*
X158017107Y-82771151D01*
X158186756Y-83181733D01*
X158500615Y-83496140D01*
X158910900Y-83666505D01*
X159355151Y-83666893D01*
X159765733Y-83497244D01*
X160080140Y-83183385D01*
X160250505Y-82773100D01*
X160250893Y-82328849D01*
X160081244Y-81918267D01*
X159767385Y-81603860D01*
X159357100Y-81433495D01*
X158912849Y-81433107D01*
X158502267Y-81602756D01*
X158187860Y-81916615D01*
X158017495Y-82326900D01*
X158017107Y-82771151D01*
X156720034Y-82771151D01*
X156557100Y-82703495D01*
X156112849Y-82703107D01*
X155702267Y-82872756D01*
X155387860Y-83186615D01*
X155217495Y-83596900D01*
X155217107Y-84041151D01*
X125106034Y-84041151D01*
X124943100Y-83973495D01*
X124498849Y-83973107D01*
X124088267Y-84142756D01*
X123773860Y-84456615D01*
X123603495Y-84866900D01*
X123603107Y-85311151D01*
X122306034Y-85311151D01*
X122143100Y-85243495D01*
X121698849Y-85243107D01*
X121288267Y-85412756D01*
X120973860Y-85726615D01*
X120803495Y-86136900D01*
X120803107Y-86581151D01*
X119721700Y-86581151D01*
X119721700Y-84041151D01*
X120803107Y-84041151D01*
X120972756Y-84451733D01*
X121286615Y-84766140D01*
X121696900Y-84936505D01*
X122141151Y-84936893D01*
X122551733Y-84767244D01*
X122866140Y-84453385D01*
X123036505Y-84043100D01*
X123036893Y-83598849D01*
X122867244Y-83188267D01*
X122553385Y-82873860D01*
X122306034Y-82771151D01*
X123603107Y-82771151D01*
X123772756Y-83181733D01*
X124086615Y-83496140D01*
X124496900Y-83666505D01*
X124941151Y-83666893D01*
X125351733Y-83497244D01*
X125666140Y-83183385D01*
X125836505Y-82773100D01*
X125836567Y-82701837D01*
X145219667Y-82701837D01*
X145336144Y-82983734D01*
X145551632Y-83199598D01*
X145833325Y-83316567D01*
X146138337Y-83316833D01*
X146420234Y-83200356D01*
X146636098Y-82984868D01*
X146753067Y-82703175D01*
X146753333Y-82398163D01*
X146725336Y-82330404D01*
X155624845Y-82330404D01*
X155720091Y-82535497D01*
X156247280Y-82674861D01*
X156787671Y-82601870D01*
X156947909Y-82535497D01*
X157043155Y-82330404D01*
X156334000Y-81621250D01*
X155624845Y-82330404D01*
X146725336Y-82330404D01*
X146636856Y-82116266D01*
X146421368Y-81900402D01*
X146139675Y-81783433D01*
X145834663Y-81783167D01*
X145552766Y-81899644D01*
X145336902Y-82115132D01*
X145219933Y-82396825D01*
X145219667Y-82701837D01*
X125836567Y-82701837D01*
X125836893Y-82328849D01*
X125667244Y-81918267D01*
X125353385Y-81603860D01*
X124943100Y-81433495D01*
X124498849Y-81433107D01*
X124088267Y-81602756D01*
X123773860Y-81916615D01*
X123603495Y-82326900D01*
X123603107Y-82771151D01*
X122306034Y-82771151D01*
X122143100Y-82703495D01*
X121698849Y-82703107D01*
X121288267Y-82872756D01*
X120973860Y-83186615D01*
X120803495Y-83596900D01*
X120803107Y-84041151D01*
X119721700Y-84041151D01*
X119721700Y-82330404D01*
X121210845Y-82330404D01*
X121306091Y-82535497D01*
X121833280Y-82674861D01*
X122373671Y-82601870D01*
X122533909Y-82535497D01*
X122629155Y-82330404D01*
X121920000Y-81621250D01*
X121210845Y-82330404D01*
X119721700Y-82330404D01*
X119721700Y-81193280D01*
X120525139Y-81193280D01*
X120598130Y-81733671D01*
X120664503Y-81893909D01*
X120869596Y-81989155D01*
X121578750Y-81280000D01*
X122261250Y-81280000D01*
X122970404Y-81989155D01*
X123175497Y-81893909D01*
X123314861Y-81366720D01*
X123291435Y-81193280D01*
X154939139Y-81193280D01*
X155012130Y-81733671D01*
X155078503Y-81893909D01*
X155283596Y-81989155D01*
X155992750Y-81280000D01*
X156675250Y-81280000D01*
X157384404Y-81989155D01*
X157589497Y-81893909D01*
X157728861Y-81366720D01*
X157655870Y-80826329D01*
X157589497Y-80666091D01*
X157384404Y-80570845D01*
X156675250Y-81280000D01*
X155992750Y-81280000D01*
X155283596Y-80570845D01*
X155078503Y-80666091D01*
X154939139Y-81193280D01*
X123291435Y-81193280D01*
X123241870Y-80826329D01*
X123175497Y-80666091D01*
X122970404Y-80570845D01*
X122261250Y-81280000D01*
X121578750Y-81280000D01*
X120869596Y-80570845D01*
X120664503Y-80666091D01*
X120525139Y-81193280D01*
X119721700Y-81193280D01*
X119721700Y-80229596D01*
X121210845Y-80229596D01*
X121920000Y-80938750D01*
X122627599Y-80231151D01*
X123603107Y-80231151D01*
X123772756Y-80641733D01*
X124086615Y-80956140D01*
X124496900Y-81126505D01*
X124941151Y-81126893D01*
X125351733Y-80957244D01*
X125666140Y-80643385D01*
X125836505Y-80233100D01*
X125836508Y-80229596D01*
X155624845Y-80229596D01*
X156334000Y-80938750D01*
X157041599Y-80231151D01*
X158017107Y-80231151D01*
X158186756Y-80641733D01*
X158500615Y-80956140D01*
X158910900Y-81126505D01*
X159355151Y-81126893D01*
X159765733Y-80957244D01*
X160080140Y-80643385D01*
X160250505Y-80233100D01*
X160250893Y-79788849D01*
X160081244Y-79378267D01*
X159767385Y-79063860D01*
X159357100Y-78893495D01*
X158912849Y-78893107D01*
X158502267Y-79062756D01*
X158187860Y-79376615D01*
X158017495Y-79786900D01*
X158017107Y-80231151D01*
X157041599Y-80231151D01*
X157043155Y-80229596D01*
X156947909Y-80024503D01*
X156420720Y-79885139D01*
X155880329Y-79958130D01*
X155720091Y-80024503D01*
X155624845Y-80229596D01*
X125836508Y-80229596D01*
X125836893Y-79788849D01*
X125728632Y-79526837D01*
X142743167Y-79526837D01*
X142859644Y-79808734D01*
X143075132Y-80024598D01*
X143356825Y-80141567D01*
X143661837Y-80141833D01*
X143943734Y-80025356D01*
X144159598Y-79809868D01*
X144276567Y-79528175D01*
X144276833Y-79223163D01*
X144168573Y-78961151D01*
X155217107Y-78961151D01*
X155386756Y-79371733D01*
X155700615Y-79686140D01*
X156110900Y-79856505D01*
X156555151Y-79856893D01*
X156965733Y-79687244D01*
X157280140Y-79373385D01*
X157450505Y-78963100D01*
X157450893Y-78518849D01*
X157281244Y-78108267D01*
X156967385Y-77793860D01*
X156720034Y-77691151D01*
X158017107Y-77691151D01*
X158186756Y-78101733D01*
X158500615Y-78416140D01*
X158910900Y-78586505D01*
X159355151Y-78586893D01*
X159765733Y-78417244D01*
X160080140Y-78103385D01*
X160250505Y-77693100D01*
X160250893Y-77248849D01*
X160081244Y-76838267D01*
X159767385Y-76523860D01*
X159357100Y-76353495D01*
X158912849Y-76353107D01*
X158502267Y-76522756D01*
X158187860Y-76836615D01*
X158017495Y-77246900D01*
X158017107Y-77691151D01*
X156720034Y-77691151D01*
X156557100Y-77623495D01*
X156112849Y-77623107D01*
X155702267Y-77792756D01*
X155387860Y-78106615D01*
X155217495Y-78516900D01*
X155217107Y-78961151D01*
X144168573Y-78961151D01*
X144160356Y-78941266D01*
X143944868Y-78725402D01*
X143663175Y-78608433D01*
X143358163Y-78608167D01*
X143076266Y-78724644D01*
X142860402Y-78940132D01*
X142743433Y-79221825D01*
X142743167Y-79526837D01*
X125728632Y-79526837D01*
X125667244Y-79378267D01*
X125353385Y-79063860D01*
X124943100Y-78893495D01*
X124498849Y-78893107D01*
X124088267Y-79062756D01*
X123773860Y-79376615D01*
X123603495Y-79786900D01*
X123603107Y-80231151D01*
X122627599Y-80231151D01*
X122629155Y-80229596D01*
X122533909Y-80024503D01*
X122006720Y-79885139D01*
X121466329Y-79958130D01*
X121306091Y-80024503D01*
X121210845Y-80229596D01*
X119721700Y-80229596D01*
X119721700Y-78961151D01*
X120803107Y-78961151D01*
X120972756Y-79371733D01*
X121286615Y-79686140D01*
X121696900Y-79856505D01*
X122141151Y-79856893D01*
X122551733Y-79687244D01*
X122866140Y-79373385D01*
X123036505Y-78963100D01*
X123036893Y-78518849D01*
X122867244Y-78108267D01*
X122553385Y-77793860D01*
X122306034Y-77691151D01*
X123603107Y-77691151D01*
X123772756Y-78101733D01*
X124086615Y-78416140D01*
X124496900Y-78586505D01*
X124941151Y-78586893D01*
X125351733Y-78417244D01*
X125666140Y-78103385D01*
X125836505Y-77693100D01*
X125836893Y-77248849D01*
X125667244Y-76838267D01*
X125353385Y-76523860D01*
X125106034Y-76421151D01*
X155217107Y-76421151D01*
X155386756Y-76831733D01*
X155700615Y-77146140D01*
X156110900Y-77316505D01*
X156555151Y-77316893D01*
X156965733Y-77147244D01*
X157280140Y-76833385D01*
X157450505Y-76423100D01*
X157450893Y-75978849D01*
X157281244Y-75568267D01*
X156967385Y-75253860D01*
X156557100Y-75083495D01*
X156112849Y-75083107D01*
X155702267Y-75252756D01*
X155387860Y-75566615D01*
X155217495Y-75976900D01*
X155217107Y-76421151D01*
X125106034Y-76421151D01*
X124943100Y-76353495D01*
X124498849Y-76353107D01*
X124088267Y-76522756D01*
X123773860Y-76836615D01*
X123603495Y-77246900D01*
X123603107Y-77691151D01*
X122306034Y-77691151D01*
X122143100Y-77623495D01*
X121698849Y-77623107D01*
X121288267Y-77792756D01*
X120973860Y-78106615D01*
X120803495Y-78516900D01*
X120803107Y-78961151D01*
X119721700Y-78961151D01*
X119721700Y-76421151D01*
X120803107Y-76421151D01*
X120972756Y-76831733D01*
X121286615Y-77146140D01*
X121696900Y-77316505D01*
X122141151Y-77316893D01*
X122551733Y-77147244D01*
X122866140Y-76833385D01*
X123036505Y-76423100D01*
X123036893Y-75978849D01*
X122867244Y-75568267D01*
X122553385Y-75253860D01*
X122143100Y-75083495D01*
X121698849Y-75083107D01*
X121288267Y-75252756D01*
X120973860Y-75566615D01*
X120803495Y-75976900D01*
X120803107Y-76421151D01*
X119721700Y-76421151D01*
X119721700Y-74001700D01*
X123249823Y-74001700D01*
X161467770Y-74117162D01*
G04 #@! TD*
M02*
