G04 #@! TF.GenerationSoftware,KiCad,Pcbnew,(5.0.1-3-g963ef8bb5)*
G04 #@! TF.CreationDate,2019-05-18T08:25:07-07:00*
G04 #@! TF.ProjectId,oakram,6F616B72616D2E6B696361645F706362,rev?*
G04 #@! TF.SameCoordinates,Original*
G04 #@! TF.FileFunction,Copper,L2,Bot,Signal*
G04 #@! TF.FilePolarity,Positive*
%FSLAX46Y46*%
G04 Gerber Fmt 4.6, Leading zero omitted, Abs format (unit mm)*
G04 Created by KiCad (PCBNEW (5.0.1-3-g963ef8bb5)) date Saturday, May 18, 2019 at 08:25:07 AM*
%MOMM*%
%LPD*%
G01*
G04 APERTURE LIST*
G04 #@! TA.AperFunction,ViaPad*
%ADD10C,0.600000*%
G04 #@! TD*
G04 #@! TA.AperFunction,ComponentPad*
%ADD11C,1.300000*%
G04 #@! TD*
G04 #@! TA.AperFunction,SMDPad,CuDef*
%ADD12R,1.250000X1.000000*%
G04 #@! TD*
G04 #@! TA.AperFunction,ViaPad*
%ADD13C,0.700000*%
G04 #@! TD*
G04 #@! TA.AperFunction,Conductor*
%ADD14C,0.200000*%
G04 #@! TD*
G04 #@! TA.AperFunction,Conductor*
%ADD15C,0.500000*%
G04 #@! TD*
G04 #@! TA.AperFunction,Conductor*
%ADD16C,0.177800*%
G04 #@! TD*
G04 APERTURE END LIST*
D10*
G04 #@! TO.N,VSS*
G04 #@! TO.C,*
X148336000Y-77724000D03*
G04 #@! TD*
G04 #@! TO.N,VSS*
G04 #@! TO.C,*
X140081000Y-77724000D03*
G04 #@! TD*
G04 #@! TO.N,VSS*
G04 #@! TO.C,*
X144399000Y-77724000D03*
G04 #@! TD*
G04 #@! TO.N,VSS*
G04 #@! TO.C,*
X132334000Y-77724000D03*
G04 #@! TD*
G04 #@! TO.N,VSS*
G04 #@! TO.C,*
X136271000Y-77724000D03*
G04 #@! TD*
G04 #@! TO.N,VSS*
G04 #@! TO.C,*
X136271000Y-77724000D03*
G04 #@! TD*
G04 #@! TO.N,VSS*
G04 #@! TO.C,*
X147828000Y-123317000D03*
G04 #@! TD*
G04 #@! TO.N,VSS*
G04 #@! TO.C,*
X132334000Y-77724000D03*
G04 #@! TD*
G04 #@! TO.N,VSS*
G04 #@! TO.C,*
X133985000Y-123190000D03*
G04 #@! TD*
D11*
G04 #@! TO.P,X1,1*
G04 #@! TO.N,/D8*
X121920000Y-76200000D03*
G04 #@! TO.P,X1,2*
G04 #@! TO.N,/D9*
X124720000Y-77470000D03*
G04 #@! TO.P,X1,3*
G04 #@! TO.N,/D10*
X121920000Y-78740000D03*
G04 #@! TO.P,X1,4*
G04 #@! TO.N,/D11*
X124720000Y-80010000D03*
G04 #@! TO.P,X1,7*
G04 #@! TO.N,/D13*
X121920000Y-83820000D03*
G04 #@! TO.P,X1,5*
G04 #@! TO.N,VSS*
X121920000Y-81280000D03*
G04 #@! TO.P,X1,6*
G04 #@! TO.N,/D12*
X124720000Y-82550000D03*
G04 #@! TO.P,X1,8*
G04 #@! TO.N,/D14*
X124720000Y-85090000D03*
G04 #@! TO.P,X1,11*
G04 #@! TO.N,VCC*
X121920000Y-88900000D03*
G04 #@! TO.P,X1,16*
X124720000Y-95250000D03*
G04 #@! TO.P,X1,9*
G04 #@! TO.N,/D15*
X121920000Y-86360000D03*
G04 #@! TO.P,X1,14*
G04 #@! TO.N,/D2*
X124720000Y-92710000D03*
G04 #@! TO.P,X1,10*
G04 #@! TO.N,VSS*
X124720000Y-87630000D03*
G04 #@! TO.P,X1,12*
G04 #@! TO.N,/D0*
X124720000Y-90170000D03*
G04 #@! TO.P,X1,13*
G04 #@! TO.N,/D1*
X121920000Y-91440000D03*
G04 #@! TO.P,X1,15*
G04 #@! TO.N,/D3*
X121920000Y-93980000D03*
G04 #@! TO.P,X1,19*
G04 #@! TO.N,/D6*
X121920000Y-99060000D03*
G04 #@! TO.P,X1,27*
G04 #@! TO.N,/A1*
X121920000Y-109220000D03*
G04 #@! TO.P,X1,24*
G04 #@! TO.N,/~RAS*
X124720000Y-105410000D03*
G04 #@! TO.P,X1,17*
G04 #@! TO.N,/D4*
X121920000Y-96520000D03*
G04 #@! TO.P,X1,28*
G04 #@! TO.N,/A2*
X124720000Y-110490000D03*
G04 #@! TO.P,X1,25*
G04 #@! TO.N,Net-(X1-Pad25)*
X121920000Y-106680000D03*
G04 #@! TO.P,X1,22*
G04 #@! TO.N,/A9*
X124720000Y-102870000D03*
G04 #@! TO.P,X1,32*
G04 #@! TO.N,Net-(X1-Pad32)*
X124720000Y-115570000D03*
G04 #@! TO.P,X1,18*
G04 #@! TO.N,/D5*
X124720000Y-97790000D03*
G04 #@! TO.P,X1,20*
G04 #@! TO.N,/D7*
X124720000Y-100330000D03*
G04 #@! TO.P,X1,21*
G04 #@! TO.N,Net-(X1-Pad21)*
X121920000Y-101600000D03*
G04 #@! TO.P,X1,23*
G04 #@! TO.N,/~WE*
X121920000Y-104140000D03*
G04 #@! TO.P,X1,26*
G04 #@! TO.N,/A0*
X124720000Y-107950000D03*
G04 #@! TO.P,X1,29*
G04 #@! TO.N,/A3*
X121920000Y-111760000D03*
G04 #@! TO.P,X1,31*
G04 #@! TO.N,VSS*
X121920000Y-114300000D03*
G04 #@! TO.P,X1,30*
G04 #@! TO.N,VCC*
X124720000Y-113030000D03*
G04 #@! TO.P,X1,37*
G04 #@! TO.N,/~OE1*
X121920000Y-121920000D03*
G04 #@! TO.P,X1,34*
G04 #@! TO.N,Net-(X1-Pad34)*
X124720000Y-118110000D03*
G04 #@! TO.P,X1,36*
G04 #@! TO.N,Net-(X1-Pad36)*
X124720000Y-120650000D03*
G04 #@! TO.P,X1,39*
G04 #@! TO.N,/~CAS0*
X121920000Y-124460000D03*
G04 #@! TO.P,X1,40*
G04 #@! TO.N,Net-(X1-Pad40)*
X124720000Y-125730000D03*
G04 #@! TO.P,X1,35*
G04 #@! TO.N,Net-(X1-Pad35)*
X121920000Y-119380000D03*
G04 #@! TO.P,X1,33*
G04 #@! TO.N,Net-(X1-Pad33)*
X121920000Y-116840000D03*
G04 #@! TO.P,X1,38*
G04 #@! TO.N,/~CAS1*
X124720000Y-123190000D03*
G04 #@! TD*
G04 #@! TO.P,X2,38*
G04 #@! TO.N,/~CAS3*
X159134000Y-123190000D03*
G04 #@! TO.P,X2,33*
G04 #@! TO.N,/A5*
X156334000Y-116840000D03*
G04 #@! TO.P,X2,35*
G04 #@! TO.N,/A7*
X156334000Y-119380000D03*
G04 #@! TO.P,X2,40*
G04 #@! TO.N,Net-(X2-Pad40)*
X159134000Y-125730000D03*
G04 #@! TO.P,X2,39*
G04 #@! TO.N,/~CAS2*
X156334000Y-124460000D03*
G04 #@! TO.P,X2,36*
G04 #@! TO.N,/A8*
X159134000Y-120650000D03*
G04 #@! TO.P,X2,34*
G04 #@! TO.N,/A6*
X159134000Y-118110000D03*
G04 #@! TO.P,X2,37*
G04 #@! TO.N,/~OE2*
X156334000Y-121920000D03*
G04 #@! TO.P,X2,30*
G04 #@! TO.N,VCC*
X159134000Y-113030000D03*
G04 #@! TO.P,X2,31*
G04 #@! TO.N,VSS*
X156334000Y-114300000D03*
G04 #@! TO.P,X2,29*
G04 #@! TO.N,Net-(X2-Pad29)*
X156334000Y-111760000D03*
G04 #@! TO.P,X2,26*
G04 #@! TO.N,Net-(X2-Pad26)*
X159134000Y-107950000D03*
G04 #@! TO.P,X2,23*
G04 #@! TO.N,Net-(X2-Pad23)*
X156334000Y-104140000D03*
G04 #@! TO.P,X2,21*
G04 #@! TO.N,Net-(X2-Pad21)*
X156334000Y-101600000D03*
G04 #@! TO.P,X2,20*
G04 #@! TO.N,/D23*
X159134000Y-100330000D03*
G04 #@! TO.P,X2,18*
G04 #@! TO.N,/D21*
X159134000Y-97790000D03*
G04 #@! TO.P,X2,32*
G04 #@! TO.N,/A4*
X159134000Y-115570000D03*
G04 #@! TO.P,X2,22*
G04 #@! TO.N,Net-(X2-Pad22)*
X159134000Y-102870000D03*
G04 #@! TO.P,X2,25*
G04 #@! TO.N,Net-(X2-Pad25)*
X156334000Y-106680000D03*
G04 #@! TO.P,X2,28*
G04 #@! TO.N,Net-(X2-Pad28)*
X159134000Y-110490000D03*
G04 #@! TO.P,X2,17*
G04 #@! TO.N,/D20*
X156334000Y-96520000D03*
G04 #@! TO.P,X2,24*
G04 #@! TO.N,Net-(X2-Pad24)*
X159134000Y-105410000D03*
G04 #@! TO.P,X2,27*
G04 #@! TO.N,Net-(X2-Pad27)*
X156334000Y-109220000D03*
G04 #@! TO.P,X2,19*
G04 #@! TO.N,/D22*
X156334000Y-99060000D03*
G04 #@! TO.P,X2,15*
G04 #@! TO.N,/D19*
X156334000Y-93980000D03*
G04 #@! TO.P,X2,13*
G04 #@! TO.N,/D17*
X156334000Y-91440000D03*
G04 #@! TO.P,X2,12*
G04 #@! TO.N,/D16*
X159134000Y-90170000D03*
G04 #@! TO.P,X2,10*
G04 #@! TO.N,VSS*
X159134000Y-87630000D03*
G04 #@! TO.P,X2,14*
G04 #@! TO.N,/D18*
X159134000Y-92710000D03*
G04 #@! TO.P,X2,9*
G04 #@! TO.N,/D31*
X156334000Y-86360000D03*
G04 #@! TO.P,X2,16*
G04 #@! TO.N,VCC*
X159134000Y-95250000D03*
G04 #@! TO.P,X2,11*
X156334000Y-88900000D03*
G04 #@! TO.P,X2,8*
G04 #@! TO.N,/D30*
X159134000Y-85090000D03*
G04 #@! TO.P,X2,6*
G04 #@! TO.N,/D28*
X159134000Y-82550000D03*
G04 #@! TO.P,X2,5*
G04 #@! TO.N,VSS*
X156334000Y-81280000D03*
G04 #@! TO.P,X2,7*
G04 #@! TO.N,/D29*
X156334000Y-83820000D03*
G04 #@! TO.P,X2,4*
G04 #@! TO.N,/D27*
X159134000Y-80010000D03*
G04 #@! TO.P,X2,3*
G04 #@! TO.N,/D26*
X156334000Y-78740000D03*
G04 #@! TO.P,X2,2*
G04 #@! TO.N,/D25*
X159134000Y-77470000D03*
G04 #@! TO.P,X2,1*
G04 #@! TO.N,/D24*
X156334000Y-76200000D03*
G04 #@! TD*
D12*
G04 #@! TO.P,C2,1*
G04 #@! TO.N,VCC*
X130175000Y-96155000D03*
G04 #@! TO.P,C2,2*
G04 #@! TO.N,VSS*
X130175000Y-98155000D03*
G04 #@! TD*
G04 #@! TO.P,C4,1*
G04 #@! TO.N,VCC*
X140970000Y-96155000D03*
G04 #@! TO.P,C4,2*
G04 #@! TO.N,VSS*
X140970000Y-98155000D03*
G04 #@! TD*
G04 #@! TO.P,C5,2*
G04 #@! TO.N,VSS*
X129540000Y-91170000D03*
G04 #@! TO.P,C5,1*
G04 #@! TO.N,VCC*
X129540000Y-89170000D03*
G04 #@! TD*
D13*
G04 #@! TO.N,/A9*
X134747000Y-102235000D03*
X136017000Y-106680000D03*
G04 #@! TO.N,/A4*
X151450000Y-113000000D03*
G04 #@! TO.N,/A6*
X148980000Y-110550000D03*
G04 #@! TO.N,/A8*
X146820000Y-107930000D03*
G04 #@! TO.N,/~CAS0*
X132207000Y-102870000D03*
G04 #@! TO.N,/A7*
X147910000Y-109120000D03*
G04 #@! TO.N,/A5*
X150080000Y-111790000D03*
G04 #@! TO.N,/~CAS1*
X130937000Y-104267000D03*
G04 #@! TO.N,VSS*
X140970000Y-98806000D03*
X130175000Y-98679000D03*
X130175000Y-91694000D03*
G04 #@! TO.N,VCC*
X129540000Y-88519000D03*
X142367000Y-116205000D03*
X141605000Y-95250000D03*
X129413000Y-95250000D03*
X142748000Y-86360000D03*
X144018000Y-88519000D03*
X143510000Y-83947000D03*
X145034000Y-82550000D03*
X143510000Y-81026000D03*
G04 #@! TO.N,/~OE1*
X132588000Y-121793000D03*
X134620000Y-105537000D03*
G04 #@! TO.N,/~OE2*
X145796000Y-105537000D03*
G04 #@! TD*
D14*
G04 #@! TO.N,/A9*
X136000000Y-103488000D02*
X134747000Y-102235000D01*
X136000000Y-106663000D02*
X136000000Y-103488000D01*
X136017000Y-106680000D02*
X136000000Y-106663000D01*
G04 #@! TO.N,/A4*
X159134000Y-115570000D02*
X154020000Y-115570000D01*
X154020000Y-115570000D02*
X151799999Y-113349999D01*
X151799999Y-113349999D02*
X151450000Y-113000000D01*
G04 #@! TO.N,/A6*
X148980000Y-111044974D02*
X148980000Y-110550000D01*
X148980000Y-114010000D02*
X148980000Y-111044974D01*
X153080000Y-118110000D02*
X148980000Y-114010000D01*
X159134000Y-118110000D02*
X153080000Y-118110000D01*
G04 #@! TO.N,/A8*
X146820000Y-108424974D02*
X146820000Y-107930000D01*
X146820000Y-115170000D02*
X146820000Y-108424974D01*
X152300000Y-120650000D02*
X146820000Y-115170000D01*
X159134000Y-120650000D02*
X152300000Y-120650000D01*
G04 #@! TO.N,/~CAS0*
X121920000Y-124460000D02*
X126492000Y-124460000D01*
X132207000Y-118745000D02*
X132207000Y-102870000D01*
X126492000Y-124460000D02*
X132207000Y-118745000D01*
G04 #@! TO.N,/A7*
X147910000Y-114630000D02*
X147910000Y-109614974D01*
X152660000Y-119380000D02*
X147910000Y-114630000D01*
X147910000Y-109614974D02*
X147910000Y-109120000D01*
X156334000Y-119380000D02*
X152660000Y-119380000D01*
G04 #@! TO.N,/A5*
X150080000Y-112284974D02*
X150080000Y-111790000D01*
X150080000Y-113250000D02*
X150080000Y-112284974D01*
X153670000Y-116840000D02*
X150080000Y-113250000D01*
X156334000Y-116840000D02*
X153670000Y-116840000D01*
G04 #@! TO.N,/~CAS1*
X130937000Y-104267000D02*
X130937000Y-118618000D01*
X126365000Y-123190000D02*
X124720000Y-123190000D01*
X130937000Y-118618000D02*
X126365000Y-123190000D01*
G04 #@! TO.N,VSS*
X140970000Y-98155000D02*
X140970000Y-98806000D01*
X130175000Y-98155000D02*
X130175000Y-98679000D01*
X129540000Y-91170000D02*
X129651000Y-91170000D01*
X129651000Y-91170000D02*
X130175000Y-91694000D01*
X129540000Y-91170000D02*
X129540000Y-91313000D01*
G04 #@! TO.N,VCC*
X129540000Y-88519000D02*
X129540000Y-89170000D01*
X129540000Y-89170000D02*
X129540000Y-88773000D01*
D15*
X121920000Y-88900000D02*
X120667599Y-87647599D01*
X142748000Y-81788000D02*
X142748000Y-86360000D01*
X143510000Y-81026000D02*
X142748000Y-81788000D01*
X142748000Y-87249000D02*
X144018000Y-88519000D01*
X142748000Y-86360000D02*
X142748000Y-87249000D01*
X141605000Y-90932000D02*
X141605000Y-95250000D01*
X144018000Y-88519000D02*
X141605000Y-90932000D01*
X156334000Y-88900000D02*
X160346401Y-88900000D01*
X160346401Y-88900000D02*
X160386401Y-88860000D01*
X142367000Y-126969401D02*
X142380000Y-126982401D01*
X142367000Y-116205000D02*
X142367000Y-126969401D01*
X120687599Y-113030000D02*
X120667599Y-113050000D01*
X124720000Y-113030000D02*
X120687599Y-113030000D01*
X120737599Y-95250000D02*
X120667599Y-95320000D01*
X124720000Y-95250000D02*
X120737599Y-95250000D01*
X124720000Y-95250000D02*
X129413000Y-95250000D01*
X129159000Y-88900000D02*
X129540000Y-88519000D01*
X121920000Y-88900000D02*
X129159000Y-88900000D01*
X129413000Y-95393000D02*
X130175000Y-96155000D01*
X129413000Y-95250000D02*
X129413000Y-95393000D01*
X141605000Y-95520000D02*
X140970000Y-96155000D01*
X141605000Y-95250000D02*
X141605000Y-95520000D01*
X160970000Y-114866000D02*
X159134000Y-113030000D01*
X160970000Y-125747554D02*
X160970000Y-114866000D01*
X159735153Y-126982401D02*
X160970000Y-125747554D01*
X142380000Y-126982401D02*
X159735153Y-126982401D01*
X159983999Y-112180001D02*
X159134000Y-113030000D01*
X160940000Y-111224000D02*
X159983999Y-112180001D01*
X160940000Y-97056000D02*
X160940000Y-111224000D01*
X159134000Y-95250000D02*
X160940000Y-97056000D01*
X159983999Y-94400001D02*
X159134000Y-95250000D01*
X160830000Y-93554000D02*
X159983999Y-94400001D01*
X160830000Y-89303599D02*
X160830000Y-93554000D01*
X160386401Y-88860000D02*
X160830000Y-89303599D01*
X160980000Y-88266401D02*
X160386401Y-88860000D01*
X160980000Y-76760000D02*
X160980000Y-88266401D01*
X121520000Y-74450000D02*
X141830000Y-74450000D01*
X120180000Y-75790000D02*
X121520000Y-74450000D01*
X120180000Y-87160000D02*
X120180000Y-75790000D01*
X120667599Y-87647599D02*
X120180000Y-87160000D01*
X120180000Y-94832401D02*
X120667599Y-95320000D01*
X120180000Y-88135198D02*
X120180000Y-94832401D01*
X120667599Y-87647599D02*
X120180000Y-88135198D01*
X120210000Y-112592401D02*
X120667599Y-113050000D01*
X120210000Y-95777599D02*
X120210000Y-112592401D01*
X120667599Y-95320000D02*
X120210000Y-95777599D01*
X120180000Y-125150000D02*
X122012401Y-126982401D01*
X120180000Y-113537599D02*
X120180000Y-125150000D01*
X122012401Y-126982401D02*
X142380000Y-126982401D01*
X120667599Y-113050000D02*
X120180000Y-113537599D01*
X158670000Y-74450000D02*
X159570000Y-75350000D01*
X159570000Y-75350000D02*
X160980000Y-76760000D01*
X143510000Y-81026000D02*
X143510000Y-74450000D01*
X143510000Y-74450000D02*
X158670000Y-74450000D01*
X141830000Y-74450000D02*
X143510000Y-74450000D01*
D14*
G04 #@! TO.N,/~OE1*
X134620000Y-119761000D02*
X132588000Y-121793000D01*
X134620000Y-105537000D02*
X134620000Y-119761000D01*
G04 #@! TO.N,/~OE2*
X151660000Y-121920000D02*
X156334000Y-121920000D01*
X145796000Y-116056000D02*
X151660000Y-121920000D01*
X145796000Y-105537000D02*
X145796000Y-116056000D01*
G04 #@! TD*
D16*
G04 #@! TO.N,VSS*
G36*
X142993300Y-80670554D02*
X142987187Y-80676667D01*
X142893300Y-80903331D01*
X142893300Y-80911976D01*
X142418622Y-81386655D01*
X142375481Y-81415481D01*
X142261280Y-81586395D01*
X142231300Y-81737114D01*
X142231300Y-81737118D01*
X142221179Y-81788000D01*
X142231300Y-81838882D01*
X142231301Y-86004553D01*
X142225187Y-86010667D01*
X142131300Y-86237331D01*
X142131300Y-86482669D01*
X142225187Y-86709333D01*
X142231300Y-86715446D01*
X142231301Y-87198114D01*
X142221179Y-87249000D01*
X142231301Y-87299887D01*
X142243578Y-87361605D01*
X142261281Y-87450606D01*
X142346656Y-87578379D01*
X142346658Y-87578381D01*
X142375482Y-87621519D01*
X142418620Y-87650343D01*
X143287276Y-88519000D01*
X141275622Y-90530655D01*
X141232481Y-90559481D01*
X141118280Y-90730395D01*
X141088300Y-90881114D01*
X141088300Y-90881118D01*
X141078179Y-90932000D01*
X141088300Y-90982882D01*
X141088301Y-94894553D01*
X141082187Y-94900667D01*
X140988300Y-95127331D01*
X140988300Y-95372669D01*
X140992611Y-95383076D01*
X140345000Y-95383076D01*
X140240939Y-95403775D01*
X140152721Y-95462721D01*
X140093775Y-95550939D01*
X140073076Y-95655000D01*
X140073076Y-96655000D01*
X140093775Y-96759061D01*
X140152721Y-96847279D01*
X140240939Y-96906225D01*
X140345000Y-96926924D01*
X141595000Y-96926924D01*
X141699061Y-96906225D01*
X141787279Y-96847279D01*
X141846225Y-96759061D01*
X141866924Y-96655000D01*
X141866924Y-96337657D01*
X155417300Y-96337657D01*
X155417300Y-96702343D01*
X155556859Y-97039269D01*
X155814731Y-97297141D01*
X156151657Y-97436700D01*
X156516343Y-97436700D01*
X156853269Y-97297141D01*
X157111141Y-97039269D01*
X157250700Y-96702343D01*
X157250700Y-96337657D01*
X157111141Y-96000731D01*
X156853269Y-95742859D01*
X156516343Y-95603300D01*
X156151657Y-95603300D01*
X155814731Y-95742859D01*
X155556859Y-96000731D01*
X155417300Y-96337657D01*
X141866924Y-96337657D01*
X141866924Y-95988800D01*
X141934381Y-95921343D01*
X141977519Y-95892519D01*
X142006344Y-95849380D01*
X142091720Y-95721606D01*
X142098995Y-95685033D01*
X142113119Y-95614027D01*
X142127813Y-95599333D01*
X142221700Y-95372669D01*
X142221700Y-95127331D01*
X142127813Y-94900667D01*
X142121700Y-94894554D01*
X142121700Y-93797657D01*
X155417300Y-93797657D01*
X155417300Y-94162343D01*
X155556859Y-94499269D01*
X155814731Y-94757141D01*
X156151657Y-94896700D01*
X156516343Y-94896700D01*
X156853269Y-94757141D01*
X157111141Y-94499269D01*
X157250700Y-94162343D01*
X157250700Y-93797657D01*
X157111141Y-93460731D01*
X156853269Y-93202859D01*
X156516343Y-93063300D01*
X156151657Y-93063300D01*
X155814731Y-93202859D01*
X155556859Y-93460731D01*
X155417300Y-93797657D01*
X142121700Y-93797657D01*
X142121700Y-92527657D01*
X158217300Y-92527657D01*
X158217300Y-92892343D01*
X158356859Y-93229269D01*
X158614731Y-93487141D01*
X158951657Y-93626700D01*
X159316343Y-93626700D01*
X159653269Y-93487141D01*
X159911141Y-93229269D01*
X160050700Y-92892343D01*
X160050700Y-92527657D01*
X159911141Y-92190731D01*
X159653269Y-91932859D01*
X159316343Y-91793300D01*
X158951657Y-91793300D01*
X158614731Y-91932859D01*
X158356859Y-92190731D01*
X158217300Y-92527657D01*
X142121700Y-92527657D01*
X142121700Y-91257657D01*
X155417300Y-91257657D01*
X155417300Y-91622343D01*
X155556859Y-91959269D01*
X155814731Y-92217141D01*
X156151657Y-92356700D01*
X156516343Y-92356700D01*
X156853269Y-92217141D01*
X157111141Y-91959269D01*
X157250700Y-91622343D01*
X157250700Y-91257657D01*
X157111141Y-90920731D01*
X156853269Y-90662859D01*
X156516343Y-90523300D01*
X156151657Y-90523300D01*
X155814731Y-90662859D01*
X155556859Y-90920731D01*
X155417300Y-91257657D01*
X142121700Y-91257657D01*
X142121700Y-91146023D01*
X144132024Y-89135700D01*
X144140669Y-89135700D01*
X144367333Y-89041813D01*
X144540813Y-88868333D01*
X144634700Y-88641669D01*
X144634700Y-88396331D01*
X144540813Y-88169667D01*
X144367333Y-87996187D01*
X144140669Y-87902300D01*
X144132024Y-87902300D01*
X144055610Y-87825886D01*
X158140780Y-87825886D01*
X158291347Y-88191064D01*
X158293175Y-88193800D01*
X158452389Y-88257729D01*
X159080118Y-87630000D01*
X159187882Y-87630000D01*
X159815611Y-88257729D01*
X159974825Y-88193800D01*
X160126578Y-87829113D01*
X160127220Y-87434114D01*
X159976653Y-87068936D01*
X159974825Y-87066200D01*
X159815611Y-87002271D01*
X159187882Y-87630000D01*
X159080118Y-87630000D01*
X158452389Y-87002271D01*
X158293175Y-87066200D01*
X158141422Y-87430887D01*
X158140780Y-87825886D01*
X144055610Y-87825886D01*
X143264700Y-87034977D01*
X143264700Y-86715446D01*
X143270813Y-86709333D01*
X143364700Y-86482669D01*
X143364700Y-86237331D01*
X143339983Y-86177657D01*
X155417300Y-86177657D01*
X155417300Y-86542343D01*
X155556859Y-86879269D01*
X155814731Y-87137141D01*
X156151657Y-87276700D01*
X156516343Y-87276700D01*
X156853269Y-87137141D01*
X157042021Y-86948389D01*
X158506271Y-86948389D01*
X159134000Y-87576118D01*
X159761729Y-86948389D01*
X159697800Y-86789175D01*
X159333113Y-86637422D01*
X158938114Y-86636780D01*
X158572936Y-86787347D01*
X158570200Y-86789175D01*
X158506271Y-86948389D01*
X157042021Y-86948389D01*
X157111141Y-86879269D01*
X157250700Y-86542343D01*
X157250700Y-86177657D01*
X157111141Y-85840731D01*
X156853269Y-85582859D01*
X156516343Y-85443300D01*
X156151657Y-85443300D01*
X155814731Y-85582859D01*
X155556859Y-85840731D01*
X155417300Y-86177657D01*
X143339983Y-86177657D01*
X143270813Y-86010667D01*
X143264700Y-86004554D01*
X143264700Y-84907657D01*
X158217300Y-84907657D01*
X158217300Y-85272343D01*
X158356859Y-85609269D01*
X158614731Y-85867141D01*
X158951657Y-86006700D01*
X159316343Y-86006700D01*
X159653269Y-85867141D01*
X159911141Y-85609269D01*
X160050700Y-85272343D01*
X160050700Y-84907657D01*
X159911141Y-84570731D01*
X159653269Y-84312859D01*
X159316343Y-84173300D01*
X158951657Y-84173300D01*
X158614731Y-84312859D01*
X158356859Y-84570731D01*
X158217300Y-84907657D01*
X143264700Y-84907657D01*
X143264700Y-84512905D01*
X143387331Y-84563700D01*
X143632669Y-84563700D01*
X143859333Y-84469813D01*
X144032813Y-84296333D01*
X144126700Y-84069669D01*
X144126700Y-83824331D01*
X144049378Y-83637657D01*
X155417300Y-83637657D01*
X155417300Y-84002343D01*
X155556859Y-84339269D01*
X155814731Y-84597141D01*
X156151657Y-84736700D01*
X156516343Y-84736700D01*
X156853269Y-84597141D01*
X157111141Y-84339269D01*
X157250700Y-84002343D01*
X157250700Y-83637657D01*
X157111141Y-83300731D01*
X156853269Y-83042859D01*
X156516343Y-82903300D01*
X156151657Y-82903300D01*
X155814731Y-83042859D01*
X155556859Y-83300731D01*
X155417300Y-83637657D01*
X144049378Y-83637657D01*
X144032813Y-83597667D01*
X143859333Y-83424187D01*
X143632669Y-83330300D01*
X143387331Y-83330300D01*
X143264700Y-83381095D01*
X143264700Y-82427331D01*
X144417300Y-82427331D01*
X144417300Y-82672669D01*
X144511187Y-82899333D01*
X144684667Y-83072813D01*
X144911331Y-83166700D01*
X145156669Y-83166700D01*
X145383333Y-83072813D01*
X145556813Y-82899333D01*
X145650700Y-82672669D01*
X145650700Y-82427331D01*
X145625983Y-82367657D01*
X158217300Y-82367657D01*
X158217300Y-82732343D01*
X158356859Y-83069269D01*
X158614731Y-83327141D01*
X158951657Y-83466700D01*
X159316343Y-83466700D01*
X159653269Y-83327141D01*
X159911141Y-83069269D01*
X160050700Y-82732343D01*
X160050700Y-82367657D01*
X159911141Y-82030731D01*
X159653269Y-81772859D01*
X159316343Y-81633300D01*
X158951657Y-81633300D01*
X158614731Y-81772859D01*
X158356859Y-82030731D01*
X158217300Y-82367657D01*
X145625983Y-82367657D01*
X145556813Y-82200667D01*
X145383333Y-82027187D01*
X145225019Y-81961611D01*
X155706271Y-81961611D01*
X155770200Y-82120825D01*
X156134887Y-82272578D01*
X156529886Y-82273220D01*
X156895064Y-82122653D01*
X156897800Y-82120825D01*
X156961729Y-81961611D01*
X156334000Y-81333882D01*
X155706271Y-81961611D01*
X145225019Y-81961611D01*
X145156669Y-81933300D01*
X144911331Y-81933300D01*
X144684667Y-82027187D01*
X144511187Y-82200667D01*
X144417300Y-82427331D01*
X143264700Y-82427331D01*
X143264700Y-82002023D01*
X143624024Y-81642700D01*
X143632669Y-81642700D01*
X143859333Y-81548813D01*
X143932260Y-81475886D01*
X155340780Y-81475886D01*
X155491347Y-81841064D01*
X155493175Y-81843800D01*
X155652389Y-81907729D01*
X156280118Y-81280000D01*
X156387882Y-81280000D01*
X157015611Y-81907729D01*
X157174825Y-81843800D01*
X157326578Y-81479113D01*
X157327220Y-81084114D01*
X157176653Y-80718936D01*
X157174825Y-80716200D01*
X157015611Y-80652271D01*
X156387882Y-81280000D01*
X156280118Y-81280000D01*
X155652389Y-80652271D01*
X155493175Y-80716200D01*
X155341422Y-81080887D01*
X155340780Y-81475886D01*
X143932260Y-81475886D01*
X144032813Y-81375333D01*
X144126700Y-81148669D01*
X144126700Y-80903331D01*
X144032813Y-80676667D01*
X144026700Y-80670554D01*
X144026700Y-80598389D01*
X155706271Y-80598389D01*
X156334000Y-81226118D01*
X156961729Y-80598389D01*
X156897800Y-80439175D01*
X156533113Y-80287422D01*
X156138114Y-80286780D01*
X155772936Y-80437347D01*
X155770200Y-80439175D01*
X155706271Y-80598389D01*
X144026700Y-80598389D01*
X144026700Y-79827657D01*
X158217300Y-79827657D01*
X158217300Y-80192343D01*
X158356859Y-80529269D01*
X158614731Y-80787141D01*
X158951657Y-80926700D01*
X159316343Y-80926700D01*
X159653269Y-80787141D01*
X159911141Y-80529269D01*
X160050700Y-80192343D01*
X160050700Y-79827657D01*
X159911141Y-79490731D01*
X159653269Y-79232859D01*
X159316343Y-79093300D01*
X158951657Y-79093300D01*
X158614731Y-79232859D01*
X158356859Y-79490731D01*
X158217300Y-79827657D01*
X144026700Y-79827657D01*
X144026700Y-78557657D01*
X155417300Y-78557657D01*
X155417300Y-78922343D01*
X155556859Y-79259269D01*
X155814731Y-79517141D01*
X156151657Y-79656700D01*
X156516343Y-79656700D01*
X156853269Y-79517141D01*
X157111141Y-79259269D01*
X157250700Y-78922343D01*
X157250700Y-78557657D01*
X157111141Y-78220731D01*
X156853269Y-77962859D01*
X156516343Y-77823300D01*
X156151657Y-77823300D01*
X155814731Y-77962859D01*
X155556859Y-78220731D01*
X155417300Y-78557657D01*
X144026700Y-78557657D01*
X144026700Y-77287657D01*
X158217300Y-77287657D01*
X158217300Y-77652343D01*
X158356859Y-77989269D01*
X158614731Y-78247141D01*
X158951657Y-78386700D01*
X159316343Y-78386700D01*
X159653269Y-78247141D01*
X159911141Y-77989269D01*
X160050700Y-77652343D01*
X160050700Y-77287657D01*
X159911141Y-76950731D01*
X159653269Y-76692859D01*
X159316343Y-76553300D01*
X158951657Y-76553300D01*
X158614731Y-76692859D01*
X158356859Y-76950731D01*
X158217300Y-77287657D01*
X144026700Y-77287657D01*
X144026700Y-76017657D01*
X155417300Y-76017657D01*
X155417300Y-76382343D01*
X155556859Y-76719269D01*
X155814731Y-76977141D01*
X156151657Y-77116700D01*
X156516343Y-77116700D01*
X156853269Y-76977141D01*
X157111141Y-76719269D01*
X157250700Y-76382343D01*
X157250700Y-76017657D01*
X157111141Y-75680731D01*
X156853269Y-75422859D01*
X156516343Y-75283300D01*
X156151657Y-75283300D01*
X155814731Y-75422859D01*
X155556859Y-75680731D01*
X155417300Y-76017657D01*
X144026700Y-76017657D01*
X144026700Y-74966700D01*
X158455977Y-74966700D01*
X159240620Y-75751344D01*
X159240623Y-75751346D01*
X160463300Y-76974024D01*
X160463301Y-88052376D01*
X160132378Y-88383300D01*
X159732944Y-88383300D01*
X159761729Y-88311611D01*
X159134000Y-87683882D01*
X158506271Y-88311611D01*
X158535056Y-88383300D01*
X157112205Y-88383300D01*
X157111141Y-88380731D01*
X156853269Y-88122859D01*
X156516343Y-87983300D01*
X156151657Y-87983300D01*
X155814731Y-88122859D01*
X155556859Y-88380731D01*
X155417300Y-88717657D01*
X155417300Y-89082343D01*
X155556859Y-89419269D01*
X155814731Y-89677141D01*
X156151657Y-89816700D01*
X156516343Y-89816700D01*
X156853269Y-89677141D01*
X157111141Y-89419269D01*
X157112205Y-89416700D01*
X158590890Y-89416700D01*
X158356859Y-89650731D01*
X158217300Y-89987657D01*
X158217300Y-90352343D01*
X158356859Y-90689269D01*
X158614731Y-90947141D01*
X158951657Y-91086700D01*
X159316343Y-91086700D01*
X159653269Y-90947141D01*
X159911141Y-90689269D01*
X160050700Y-90352343D01*
X160050700Y-89987657D01*
X159911141Y-89650731D01*
X159677110Y-89416700D01*
X160212378Y-89416700D01*
X160313300Y-89517623D01*
X160313301Y-93339975D01*
X159654622Y-93998655D01*
X159654619Y-93998657D01*
X159318912Y-94334364D01*
X159316343Y-94333300D01*
X158951657Y-94333300D01*
X158614731Y-94472859D01*
X158356859Y-94730731D01*
X158217300Y-95067657D01*
X158217300Y-95432343D01*
X158356859Y-95769269D01*
X158614731Y-96027141D01*
X158951657Y-96166700D01*
X159316343Y-96166700D01*
X159318912Y-96165636D01*
X160423300Y-97270024D01*
X160423301Y-111009975D01*
X159654622Y-111778655D01*
X159654619Y-111778657D01*
X159318912Y-112114364D01*
X159316343Y-112113300D01*
X158951657Y-112113300D01*
X158614731Y-112252859D01*
X158356859Y-112510731D01*
X158217300Y-112847657D01*
X158217300Y-113212343D01*
X158356859Y-113549269D01*
X158614731Y-113807141D01*
X158951657Y-113946700D01*
X159316343Y-113946700D01*
X159318912Y-113945636D01*
X160453301Y-115080025D01*
X160453300Y-125533530D01*
X160033880Y-125952951D01*
X160050700Y-125912343D01*
X160050700Y-125547657D01*
X159911141Y-125210731D01*
X159653269Y-124952859D01*
X159316343Y-124813300D01*
X158951657Y-124813300D01*
X158614731Y-124952859D01*
X158356859Y-125210731D01*
X158217300Y-125547657D01*
X158217300Y-125912343D01*
X158356859Y-126249269D01*
X158573291Y-126465701D01*
X142883700Y-126465701D01*
X142883700Y-124277657D01*
X155417300Y-124277657D01*
X155417300Y-124642343D01*
X155556859Y-124979269D01*
X155814731Y-125237141D01*
X156151657Y-125376700D01*
X156516343Y-125376700D01*
X156853269Y-125237141D01*
X157111141Y-124979269D01*
X157250700Y-124642343D01*
X157250700Y-124277657D01*
X157111141Y-123940731D01*
X156853269Y-123682859D01*
X156516343Y-123543300D01*
X156151657Y-123543300D01*
X155814731Y-123682859D01*
X155556859Y-123940731D01*
X155417300Y-124277657D01*
X142883700Y-124277657D01*
X142883700Y-123007657D01*
X158217300Y-123007657D01*
X158217300Y-123372343D01*
X158356859Y-123709269D01*
X158614731Y-123967141D01*
X158951657Y-124106700D01*
X159316343Y-124106700D01*
X159653269Y-123967141D01*
X159911141Y-123709269D01*
X160050700Y-123372343D01*
X160050700Y-123007657D01*
X159911141Y-122670731D01*
X159653269Y-122412859D01*
X159316343Y-122273300D01*
X158951657Y-122273300D01*
X158614731Y-122412859D01*
X158356859Y-122670731D01*
X158217300Y-123007657D01*
X142883700Y-123007657D01*
X142883700Y-116560446D01*
X142889813Y-116554333D01*
X142983700Y-116327669D01*
X142983700Y-116082331D01*
X142889813Y-115855667D01*
X142716333Y-115682187D01*
X142489669Y-115588300D01*
X142244331Y-115588300D01*
X142017667Y-115682187D01*
X141844187Y-115855667D01*
X141750300Y-116082331D01*
X141750300Y-116327669D01*
X141844187Y-116554333D01*
X141850300Y-116560446D01*
X141850301Y-126465701D01*
X125280709Y-126465701D01*
X125497141Y-126249269D01*
X125636700Y-125912343D01*
X125636700Y-125547657D01*
X125497141Y-125210731D01*
X125239269Y-124952859D01*
X124934694Y-124826700D01*
X126455885Y-124826700D01*
X126492000Y-124833884D01*
X126528115Y-124826700D01*
X126528117Y-124826700D01*
X126635079Y-124805424D01*
X126756376Y-124724376D01*
X126776837Y-124693754D01*
X129800260Y-121670331D01*
X131971300Y-121670331D01*
X131971300Y-121915669D01*
X132065187Y-122142333D01*
X132238667Y-122315813D01*
X132465331Y-122409700D01*
X132710669Y-122409700D01*
X132937333Y-122315813D01*
X133110813Y-122142333D01*
X133204700Y-121915669D01*
X133204700Y-121694891D01*
X134853757Y-120045835D01*
X134884376Y-120025376D01*
X134965424Y-119904079D01*
X134986700Y-119797117D01*
X134986700Y-119797116D01*
X134993884Y-119761000D01*
X134986700Y-119724885D01*
X134986700Y-106042446D01*
X135142813Y-105886333D01*
X135236700Y-105659669D01*
X135236700Y-105414331D01*
X135142813Y-105187667D01*
X134969333Y-105014187D01*
X134742669Y-104920300D01*
X134497331Y-104920300D01*
X134270667Y-105014187D01*
X134097187Y-105187667D01*
X134003300Y-105414331D01*
X134003300Y-105659669D01*
X134097187Y-105886333D01*
X134253300Y-106042446D01*
X134253301Y-119609107D01*
X132686109Y-121176300D01*
X132465331Y-121176300D01*
X132238667Y-121270187D01*
X132065187Y-121443667D01*
X131971300Y-121670331D01*
X129800260Y-121670331D01*
X132440758Y-119029834D01*
X132471376Y-119009376D01*
X132509605Y-118952162D01*
X132552424Y-118888080D01*
X132580884Y-118745000D01*
X132573700Y-118708883D01*
X132573700Y-103375446D01*
X132729813Y-103219333D01*
X132823700Y-102992669D01*
X132823700Y-102747331D01*
X132729813Y-102520667D01*
X132556333Y-102347187D01*
X132329669Y-102253300D01*
X132084331Y-102253300D01*
X131857667Y-102347187D01*
X131684187Y-102520667D01*
X131590300Y-102747331D01*
X131590300Y-102992669D01*
X131684187Y-103219333D01*
X131840301Y-103375447D01*
X131840300Y-118593108D01*
X126340109Y-124093300D01*
X124934694Y-124093300D01*
X125239269Y-123967141D01*
X125497141Y-123709269D01*
X125560337Y-123556700D01*
X126328885Y-123556700D01*
X126365000Y-123563884D01*
X126401115Y-123556700D01*
X126401117Y-123556700D01*
X126508079Y-123535424D01*
X126629376Y-123454376D01*
X126649837Y-123423754D01*
X131170757Y-118902835D01*
X131201376Y-118882376D01*
X131282424Y-118761079D01*
X131303700Y-118654117D01*
X131303700Y-118654113D01*
X131310883Y-118618001D01*
X131303700Y-118581889D01*
X131303700Y-104772446D01*
X131459813Y-104616333D01*
X131553700Y-104389669D01*
X131553700Y-104144331D01*
X131459813Y-103917667D01*
X131286333Y-103744187D01*
X131059669Y-103650300D01*
X130814331Y-103650300D01*
X130587667Y-103744187D01*
X130414187Y-103917667D01*
X130320300Y-104144331D01*
X130320300Y-104389669D01*
X130414187Y-104616333D01*
X130570300Y-104772446D01*
X130570301Y-118466107D01*
X126213109Y-122823300D01*
X125560337Y-122823300D01*
X125497141Y-122670731D01*
X125239269Y-122412859D01*
X124902343Y-122273300D01*
X124537657Y-122273300D01*
X124200731Y-122412859D01*
X123942859Y-122670731D01*
X123803300Y-123007657D01*
X123803300Y-123372343D01*
X123942859Y-123709269D01*
X124200731Y-123967141D01*
X124505306Y-124093300D01*
X122760337Y-124093300D01*
X122697141Y-123940731D01*
X122439269Y-123682859D01*
X122102343Y-123543300D01*
X121737657Y-123543300D01*
X121400731Y-123682859D01*
X121142859Y-123940731D01*
X121003300Y-124277657D01*
X121003300Y-124642343D01*
X121142859Y-124979269D01*
X121400731Y-125237141D01*
X121737657Y-125376700D01*
X122102343Y-125376700D01*
X122439269Y-125237141D01*
X122697141Y-124979269D01*
X122760337Y-124826700D01*
X124505306Y-124826700D01*
X124200731Y-124952859D01*
X123942859Y-125210731D01*
X123803300Y-125547657D01*
X123803300Y-125912343D01*
X123942859Y-126249269D01*
X124159291Y-126465701D01*
X122226425Y-126465701D01*
X120696700Y-124935977D01*
X120696700Y-121737657D01*
X121003300Y-121737657D01*
X121003300Y-122102343D01*
X121142859Y-122439269D01*
X121400731Y-122697141D01*
X121737657Y-122836700D01*
X122102343Y-122836700D01*
X122439269Y-122697141D01*
X122697141Y-122439269D01*
X122836700Y-122102343D01*
X122836700Y-121737657D01*
X122697141Y-121400731D01*
X122439269Y-121142859D01*
X122102343Y-121003300D01*
X121737657Y-121003300D01*
X121400731Y-121142859D01*
X121142859Y-121400731D01*
X121003300Y-121737657D01*
X120696700Y-121737657D01*
X120696700Y-120467657D01*
X123803300Y-120467657D01*
X123803300Y-120832343D01*
X123942859Y-121169269D01*
X124200731Y-121427141D01*
X124537657Y-121566700D01*
X124902343Y-121566700D01*
X125239269Y-121427141D01*
X125497141Y-121169269D01*
X125636700Y-120832343D01*
X125636700Y-120467657D01*
X125497141Y-120130731D01*
X125239269Y-119872859D01*
X124902343Y-119733300D01*
X124537657Y-119733300D01*
X124200731Y-119872859D01*
X123942859Y-120130731D01*
X123803300Y-120467657D01*
X120696700Y-120467657D01*
X120696700Y-119197657D01*
X121003300Y-119197657D01*
X121003300Y-119562343D01*
X121142859Y-119899269D01*
X121400731Y-120157141D01*
X121737657Y-120296700D01*
X122102343Y-120296700D01*
X122439269Y-120157141D01*
X122697141Y-119899269D01*
X122836700Y-119562343D01*
X122836700Y-119197657D01*
X122697141Y-118860731D01*
X122439269Y-118602859D01*
X122102343Y-118463300D01*
X121737657Y-118463300D01*
X121400731Y-118602859D01*
X121142859Y-118860731D01*
X121003300Y-119197657D01*
X120696700Y-119197657D01*
X120696700Y-117927657D01*
X123803300Y-117927657D01*
X123803300Y-118292343D01*
X123942859Y-118629269D01*
X124200731Y-118887141D01*
X124537657Y-119026700D01*
X124902343Y-119026700D01*
X125239269Y-118887141D01*
X125497141Y-118629269D01*
X125636700Y-118292343D01*
X125636700Y-117927657D01*
X125497141Y-117590731D01*
X125239269Y-117332859D01*
X124902343Y-117193300D01*
X124537657Y-117193300D01*
X124200731Y-117332859D01*
X123942859Y-117590731D01*
X123803300Y-117927657D01*
X120696700Y-117927657D01*
X120696700Y-116657657D01*
X121003300Y-116657657D01*
X121003300Y-117022343D01*
X121142859Y-117359269D01*
X121400731Y-117617141D01*
X121737657Y-117756700D01*
X122102343Y-117756700D01*
X122439269Y-117617141D01*
X122697141Y-117359269D01*
X122836700Y-117022343D01*
X122836700Y-116657657D01*
X122697141Y-116320731D01*
X122439269Y-116062859D01*
X122102343Y-115923300D01*
X121737657Y-115923300D01*
X121400731Y-116062859D01*
X121142859Y-116320731D01*
X121003300Y-116657657D01*
X120696700Y-116657657D01*
X120696700Y-115387657D01*
X123803300Y-115387657D01*
X123803300Y-115752343D01*
X123942859Y-116089269D01*
X124200731Y-116347141D01*
X124537657Y-116486700D01*
X124902343Y-116486700D01*
X125239269Y-116347141D01*
X125497141Y-116089269D01*
X125636700Y-115752343D01*
X125636700Y-115387657D01*
X125497141Y-115050731D01*
X125239269Y-114792859D01*
X124902343Y-114653300D01*
X124537657Y-114653300D01*
X124200731Y-114792859D01*
X123942859Y-115050731D01*
X123803300Y-115387657D01*
X120696700Y-115387657D01*
X120696700Y-114981611D01*
X121292271Y-114981611D01*
X121356200Y-115140825D01*
X121720887Y-115292578D01*
X122115886Y-115293220D01*
X122481064Y-115142653D01*
X122483800Y-115140825D01*
X122547729Y-114981611D01*
X121920000Y-114353882D01*
X121292271Y-114981611D01*
X120696700Y-114981611D01*
X120696700Y-114495886D01*
X120926780Y-114495886D01*
X121077347Y-114861064D01*
X121079175Y-114863800D01*
X121238389Y-114927729D01*
X121866118Y-114300000D01*
X121973882Y-114300000D01*
X122601611Y-114927729D01*
X122760825Y-114863800D01*
X122912578Y-114499113D01*
X122913220Y-114104114D01*
X122762653Y-113738936D01*
X122760825Y-113736200D01*
X122601611Y-113672271D01*
X121973882Y-114300000D01*
X121866118Y-114300000D01*
X121238389Y-113672271D01*
X121079175Y-113736200D01*
X120927422Y-114100887D01*
X120926780Y-114495886D01*
X120696700Y-114495886D01*
X120696700Y-113751622D01*
X120901623Y-113546700D01*
X121321056Y-113546700D01*
X121292271Y-113618389D01*
X121920000Y-114246118D01*
X122547729Y-113618389D01*
X122518944Y-113546700D01*
X123941795Y-113546700D01*
X123942859Y-113549269D01*
X124200731Y-113807141D01*
X124537657Y-113946700D01*
X124902343Y-113946700D01*
X125239269Y-113807141D01*
X125497141Y-113549269D01*
X125636700Y-113212343D01*
X125636700Y-112847657D01*
X125497141Y-112510731D01*
X125239269Y-112252859D01*
X124902343Y-112113300D01*
X124537657Y-112113300D01*
X124200731Y-112252859D01*
X123942859Y-112510731D01*
X123941795Y-112513300D01*
X122463110Y-112513300D01*
X122697141Y-112279269D01*
X122836700Y-111942343D01*
X122836700Y-111577657D01*
X122697141Y-111240731D01*
X122439269Y-110982859D01*
X122102343Y-110843300D01*
X121737657Y-110843300D01*
X121400731Y-110982859D01*
X121142859Y-111240731D01*
X121003300Y-111577657D01*
X121003300Y-111942343D01*
X121142859Y-112279269D01*
X121376890Y-112513300D01*
X120861623Y-112513300D01*
X120726700Y-112378378D01*
X120726700Y-110307657D01*
X123803300Y-110307657D01*
X123803300Y-110672343D01*
X123942859Y-111009269D01*
X124200731Y-111267141D01*
X124537657Y-111406700D01*
X124902343Y-111406700D01*
X125239269Y-111267141D01*
X125497141Y-111009269D01*
X125636700Y-110672343D01*
X125636700Y-110307657D01*
X125497141Y-109970731D01*
X125239269Y-109712859D01*
X124902343Y-109573300D01*
X124537657Y-109573300D01*
X124200731Y-109712859D01*
X123942859Y-109970731D01*
X123803300Y-110307657D01*
X120726700Y-110307657D01*
X120726700Y-109037657D01*
X121003300Y-109037657D01*
X121003300Y-109402343D01*
X121142859Y-109739269D01*
X121400731Y-109997141D01*
X121737657Y-110136700D01*
X122102343Y-110136700D01*
X122439269Y-109997141D01*
X122697141Y-109739269D01*
X122836700Y-109402343D01*
X122836700Y-109037657D01*
X122697141Y-108700731D01*
X122439269Y-108442859D01*
X122102343Y-108303300D01*
X121737657Y-108303300D01*
X121400731Y-108442859D01*
X121142859Y-108700731D01*
X121003300Y-109037657D01*
X120726700Y-109037657D01*
X120726700Y-107767657D01*
X123803300Y-107767657D01*
X123803300Y-108132343D01*
X123942859Y-108469269D01*
X124200731Y-108727141D01*
X124537657Y-108866700D01*
X124902343Y-108866700D01*
X125239269Y-108727141D01*
X125497141Y-108469269D01*
X125636700Y-108132343D01*
X125636700Y-107767657D01*
X125497141Y-107430731D01*
X125239269Y-107172859D01*
X124902343Y-107033300D01*
X124537657Y-107033300D01*
X124200731Y-107172859D01*
X123942859Y-107430731D01*
X123803300Y-107767657D01*
X120726700Y-107767657D01*
X120726700Y-106497657D01*
X121003300Y-106497657D01*
X121003300Y-106862343D01*
X121142859Y-107199269D01*
X121400731Y-107457141D01*
X121737657Y-107596700D01*
X122102343Y-107596700D01*
X122439269Y-107457141D01*
X122697141Y-107199269D01*
X122836700Y-106862343D01*
X122836700Y-106497657D01*
X122697141Y-106160731D01*
X122439269Y-105902859D01*
X122102343Y-105763300D01*
X121737657Y-105763300D01*
X121400731Y-105902859D01*
X121142859Y-106160731D01*
X121003300Y-106497657D01*
X120726700Y-106497657D01*
X120726700Y-105227657D01*
X123803300Y-105227657D01*
X123803300Y-105592343D01*
X123942859Y-105929269D01*
X124200731Y-106187141D01*
X124537657Y-106326700D01*
X124902343Y-106326700D01*
X125239269Y-106187141D01*
X125497141Y-105929269D01*
X125636700Y-105592343D01*
X125636700Y-105227657D01*
X125497141Y-104890731D01*
X125239269Y-104632859D01*
X124902343Y-104493300D01*
X124537657Y-104493300D01*
X124200731Y-104632859D01*
X123942859Y-104890731D01*
X123803300Y-105227657D01*
X120726700Y-105227657D01*
X120726700Y-103957657D01*
X121003300Y-103957657D01*
X121003300Y-104322343D01*
X121142859Y-104659269D01*
X121400731Y-104917141D01*
X121737657Y-105056700D01*
X122102343Y-105056700D01*
X122439269Y-104917141D01*
X122697141Y-104659269D01*
X122836700Y-104322343D01*
X122836700Y-103957657D01*
X122697141Y-103620731D01*
X122439269Y-103362859D01*
X122102343Y-103223300D01*
X121737657Y-103223300D01*
X121400731Y-103362859D01*
X121142859Y-103620731D01*
X121003300Y-103957657D01*
X120726700Y-103957657D01*
X120726700Y-102687657D01*
X123803300Y-102687657D01*
X123803300Y-103052343D01*
X123942859Y-103389269D01*
X124200731Y-103647141D01*
X124537657Y-103786700D01*
X124902343Y-103786700D01*
X125239269Y-103647141D01*
X125497141Y-103389269D01*
X125636700Y-103052343D01*
X125636700Y-102687657D01*
X125497141Y-102350731D01*
X125258741Y-102112331D01*
X134130300Y-102112331D01*
X134130300Y-102357669D01*
X134224187Y-102584333D01*
X134397667Y-102757813D01*
X134624331Y-102851700D01*
X134845109Y-102851700D01*
X135633301Y-103639893D01*
X135633300Y-106191554D01*
X135494187Y-106330667D01*
X135400300Y-106557331D01*
X135400300Y-106802669D01*
X135494187Y-107029333D01*
X135667667Y-107202813D01*
X135894331Y-107296700D01*
X136139669Y-107296700D01*
X136366333Y-107202813D01*
X136539813Y-107029333D01*
X136633700Y-106802669D01*
X136633700Y-106557331D01*
X136539813Y-106330667D01*
X136366700Y-106157554D01*
X136366700Y-105414331D01*
X145179300Y-105414331D01*
X145179300Y-105659669D01*
X145273187Y-105886333D01*
X145429300Y-106042446D01*
X145429301Y-116019880D01*
X145422116Y-116056000D01*
X145441633Y-116154114D01*
X145450577Y-116199079D01*
X145531625Y-116320376D01*
X145562244Y-116340835D01*
X151375165Y-122153757D01*
X151395624Y-122184376D01*
X151516921Y-122265424D01*
X151623883Y-122286700D01*
X151623887Y-122286700D01*
X151659999Y-122293883D01*
X151696111Y-122286700D01*
X155493663Y-122286700D01*
X155556859Y-122439269D01*
X155814731Y-122697141D01*
X156151657Y-122836700D01*
X156516343Y-122836700D01*
X156853269Y-122697141D01*
X157111141Y-122439269D01*
X157250700Y-122102343D01*
X157250700Y-121737657D01*
X157111141Y-121400731D01*
X156853269Y-121142859D01*
X156548694Y-121016700D01*
X158293663Y-121016700D01*
X158356859Y-121169269D01*
X158614731Y-121427141D01*
X158951657Y-121566700D01*
X159316343Y-121566700D01*
X159653269Y-121427141D01*
X159911141Y-121169269D01*
X160050700Y-120832343D01*
X160050700Y-120467657D01*
X159911141Y-120130731D01*
X159653269Y-119872859D01*
X159316343Y-119733300D01*
X158951657Y-119733300D01*
X158614731Y-119872859D01*
X158356859Y-120130731D01*
X158293663Y-120283300D01*
X156548694Y-120283300D01*
X156853269Y-120157141D01*
X157111141Y-119899269D01*
X157250700Y-119562343D01*
X157250700Y-119197657D01*
X157111141Y-118860731D01*
X156853269Y-118602859D01*
X156548694Y-118476700D01*
X158293663Y-118476700D01*
X158356859Y-118629269D01*
X158614731Y-118887141D01*
X158951657Y-119026700D01*
X159316343Y-119026700D01*
X159653269Y-118887141D01*
X159911141Y-118629269D01*
X160050700Y-118292343D01*
X160050700Y-117927657D01*
X159911141Y-117590731D01*
X159653269Y-117332859D01*
X159316343Y-117193300D01*
X158951657Y-117193300D01*
X158614731Y-117332859D01*
X158356859Y-117590731D01*
X158293663Y-117743300D01*
X156548694Y-117743300D01*
X156853269Y-117617141D01*
X157111141Y-117359269D01*
X157250700Y-117022343D01*
X157250700Y-116657657D01*
X157111141Y-116320731D01*
X156853269Y-116062859D01*
X156548694Y-115936700D01*
X158293663Y-115936700D01*
X158356859Y-116089269D01*
X158614731Y-116347141D01*
X158951657Y-116486700D01*
X159316343Y-116486700D01*
X159653269Y-116347141D01*
X159911141Y-116089269D01*
X160050700Y-115752343D01*
X160050700Y-115387657D01*
X159911141Y-115050731D01*
X159653269Y-114792859D01*
X159316343Y-114653300D01*
X158951657Y-114653300D01*
X158614731Y-114792859D01*
X158356859Y-115050731D01*
X158293663Y-115203300D01*
X156747974Y-115203300D01*
X156895064Y-115142653D01*
X156897800Y-115140825D01*
X156961729Y-114981611D01*
X156334000Y-114353882D01*
X155706271Y-114981611D01*
X155770200Y-115140825D01*
X155920338Y-115203300D01*
X154171892Y-115203300D01*
X153464478Y-114495886D01*
X155340780Y-114495886D01*
X155491347Y-114861064D01*
X155493175Y-114863800D01*
X155652389Y-114927729D01*
X156280118Y-114300000D01*
X156387882Y-114300000D01*
X157015611Y-114927729D01*
X157174825Y-114863800D01*
X157326578Y-114499113D01*
X157327220Y-114104114D01*
X157176653Y-113738936D01*
X157174825Y-113736200D01*
X157015611Y-113672271D01*
X156387882Y-114300000D01*
X156280118Y-114300000D01*
X155652389Y-113672271D01*
X155493175Y-113736200D01*
X155341422Y-114100887D01*
X155340780Y-114495886D01*
X153464478Y-114495886D01*
X152586981Y-113618389D01*
X155706271Y-113618389D01*
X156334000Y-114246118D01*
X156961729Y-113618389D01*
X156897800Y-113459175D01*
X156533113Y-113307422D01*
X156138114Y-113306780D01*
X155772936Y-113457347D01*
X155770200Y-113459175D01*
X155706271Y-113618389D01*
X152586981Y-113618389D01*
X152084835Y-113116244D01*
X152084833Y-113116241D01*
X152066700Y-113098108D01*
X152066700Y-112877331D01*
X151972813Y-112650667D01*
X151799333Y-112477187D01*
X151572669Y-112383300D01*
X151327331Y-112383300D01*
X151100667Y-112477187D01*
X150927187Y-112650667D01*
X150833300Y-112877331D01*
X150833300Y-113122669D01*
X150927187Y-113349333D01*
X151100667Y-113522813D01*
X151327331Y-113616700D01*
X151548108Y-113616700D01*
X151566241Y-113634833D01*
X151566244Y-113634835D01*
X153735165Y-115803757D01*
X153755624Y-115834376D01*
X153812838Y-115872605D01*
X153876920Y-115915424D01*
X154020000Y-115943884D01*
X154056117Y-115936700D01*
X156119306Y-115936700D01*
X155814731Y-116062859D01*
X155556859Y-116320731D01*
X155493663Y-116473300D01*
X153821892Y-116473300D01*
X150446700Y-113098109D01*
X150446700Y-112295446D01*
X150602813Y-112139333D01*
X150696700Y-111912669D01*
X150696700Y-111667331D01*
X150659556Y-111577657D01*
X155417300Y-111577657D01*
X155417300Y-111942343D01*
X155556859Y-112279269D01*
X155814731Y-112537141D01*
X156151657Y-112676700D01*
X156516343Y-112676700D01*
X156853269Y-112537141D01*
X157111141Y-112279269D01*
X157250700Y-111942343D01*
X157250700Y-111577657D01*
X157111141Y-111240731D01*
X156853269Y-110982859D01*
X156516343Y-110843300D01*
X156151657Y-110843300D01*
X155814731Y-110982859D01*
X155556859Y-111240731D01*
X155417300Y-111577657D01*
X150659556Y-111577657D01*
X150602813Y-111440667D01*
X150429333Y-111267187D01*
X150202669Y-111173300D01*
X149957331Y-111173300D01*
X149730667Y-111267187D01*
X149557187Y-111440667D01*
X149463300Y-111667331D01*
X149463300Y-111912669D01*
X149557187Y-112139333D01*
X149713300Y-112295446D01*
X149713300Y-112321090D01*
X149713301Y-112321095D01*
X149713300Y-113213884D01*
X149706116Y-113250000D01*
X149713300Y-113286115D01*
X149713300Y-113286116D01*
X149734576Y-113393078D01*
X149815624Y-113514376D01*
X149846246Y-113534837D01*
X153385165Y-117073757D01*
X153405624Y-117104376D01*
X153436242Y-117124834D01*
X153526920Y-117185424D01*
X153670000Y-117213884D01*
X153706117Y-117206700D01*
X155493663Y-117206700D01*
X155556859Y-117359269D01*
X155814731Y-117617141D01*
X156119306Y-117743300D01*
X153231892Y-117743300D01*
X149346700Y-113858109D01*
X149346700Y-111055446D01*
X149502813Y-110899333D01*
X149596700Y-110672669D01*
X149596700Y-110427331D01*
X149547130Y-110307657D01*
X158217300Y-110307657D01*
X158217300Y-110672343D01*
X158356859Y-111009269D01*
X158614731Y-111267141D01*
X158951657Y-111406700D01*
X159316343Y-111406700D01*
X159653269Y-111267141D01*
X159911141Y-111009269D01*
X160050700Y-110672343D01*
X160050700Y-110307657D01*
X159911141Y-109970731D01*
X159653269Y-109712859D01*
X159316343Y-109573300D01*
X158951657Y-109573300D01*
X158614731Y-109712859D01*
X158356859Y-109970731D01*
X158217300Y-110307657D01*
X149547130Y-110307657D01*
X149502813Y-110200667D01*
X149329333Y-110027187D01*
X149102669Y-109933300D01*
X148857331Y-109933300D01*
X148630667Y-110027187D01*
X148457187Y-110200667D01*
X148363300Y-110427331D01*
X148363300Y-110672669D01*
X148457187Y-110899333D01*
X148613300Y-111055446D01*
X148613300Y-111081090D01*
X148613301Y-111081095D01*
X148613300Y-113973885D01*
X148606116Y-114010000D01*
X148613300Y-114046115D01*
X148613300Y-114046116D01*
X148634576Y-114153078D01*
X148715624Y-114274376D01*
X148746246Y-114294837D01*
X152795165Y-118343757D01*
X152815624Y-118374376D01*
X152872838Y-118412605D01*
X152936920Y-118455424D01*
X153080000Y-118483884D01*
X153116117Y-118476700D01*
X156119306Y-118476700D01*
X155814731Y-118602859D01*
X155556859Y-118860731D01*
X155493663Y-119013300D01*
X152811892Y-119013300D01*
X148276700Y-114478109D01*
X148276700Y-109625446D01*
X148432813Y-109469333D01*
X148526700Y-109242669D01*
X148526700Y-109037657D01*
X155417300Y-109037657D01*
X155417300Y-109402343D01*
X155556859Y-109739269D01*
X155814731Y-109997141D01*
X156151657Y-110136700D01*
X156516343Y-110136700D01*
X156853269Y-109997141D01*
X157111141Y-109739269D01*
X157250700Y-109402343D01*
X157250700Y-109037657D01*
X157111141Y-108700731D01*
X156853269Y-108442859D01*
X156516343Y-108303300D01*
X156151657Y-108303300D01*
X155814731Y-108442859D01*
X155556859Y-108700731D01*
X155417300Y-109037657D01*
X148526700Y-109037657D01*
X148526700Y-108997331D01*
X148432813Y-108770667D01*
X148259333Y-108597187D01*
X148032669Y-108503300D01*
X147787331Y-108503300D01*
X147560667Y-108597187D01*
X147387187Y-108770667D01*
X147293300Y-108997331D01*
X147293300Y-109242669D01*
X147387187Y-109469333D01*
X147543300Y-109625446D01*
X147543300Y-109651090D01*
X147543301Y-109651095D01*
X147543300Y-114593885D01*
X147536116Y-114630000D01*
X147543300Y-114666115D01*
X147543300Y-114666116D01*
X147564576Y-114773078D01*
X147645624Y-114894376D01*
X147676246Y-114914837D01*
X152375165Y-119613757D01*
X152395624Y-119644376D01*
X152516921Y-119725424D01*
X152623883Y-119746700D01*
X152623887Y-119746700D01*
X152659999Y-119753883D01*
X152696111Y-119746700D01*
X155493663Y-119746700D01*
X155556859Y-119899269D01*
X155814731Y-120157141D01*
X156119306Y-120283300D01*
X152451892Y-120283300D01*
X147186700Y-115018109D01*
X147186700Y-108435446D01*
X147342813Y-108279333D01*
X147436700Y-108052669D01*
X147436700Y-107807331D01*
X147420267Y-107767657D01*
X158217300Y-107767657D01*
X158217300Y-108132343D01*
X158356859Y-108469269D01*
X158614731Y-108727141D01*
X158951657Y-108866700D01*
X159316343Y-108866700D01*
X159653269Y-108727141D01*
X159911141Y-108469269D01*
X160050700Y-108132343D01*
X160050700Y-107767657D01*
X159911141Y-107430731D01*
X159653269Y-107172859D01*
X159316343Y-107033300D01*
X158951657Y-107033300D01*
X158614731Y-107172859D01*
X158356859Y-107430731D01*
X158217300Y-107767657D01*
X147420267Y-107767657D01*
X147342813Y-107580667D01*
X147169333Y-107407187D01*
X146942669Y-107313300D01*
X146697331Y-107313300D01*
X146470667Y-107407187D01*
X146297187Y-107580667D01*
X146203300Y-107807331D01*
X146203300Y-108052669D01*
X146297187Y-108279333D01*
X146453300Y-108435446D01*
X146453300Y-108461090D01*
X146453301Y-108461095D01*
X146453300Y-115133885D01*
X146446116Y-115170000D01*
X146453300Y-115206115D01*
X146453300Y-115206116D01*
X146474576Y-115313078D01*
X146555624Y-115434376D01*
X146586246Y-115454837D01*
X152015165Y-120883757D01*
X152035624Y-120914376D01*
X152156921Y-120995424D01*
X152263883Y-121016700D01*
X152263887Y-121016700D01*
X152299999Y-121023883D01*
X152336111Y-121016700D01*
X156119306Y-121016700D01*
X155814731Y-121142859D01*
X155556859Y-121400731D01*
X155493663Y-121553300D01*
X151811892Y-121553300D01*
X146162700Y-115904109D01*
X146162700Y-106497657D01*
X155417300Y-106497657D01*
X155417300Y-106862343D01*
X155556859Y-107199269D01*
X155814731Y-107457141D01*
X156151657Y-107596700D01*
X156516343Y-107596700D01*
X156853269Y-107457141D01*
X157111141Y-107199269D01*
X157250700Y-106862343D01*
X157250700Y-106497657D01*
X157111141Y-106160731D01*
X156853269Y-105902859D01*
X156516343Y-105763300D01*
X156151657Y-105763300D01*
X155814731Y-105902859D01*
X155556859Y-106160731D01*
X155417300Y-106497657D01*
X146162700Y-106497657D01*
X146162700Y-106042446D01*
X146318813Y-105886333D01*
X146412700Y-105659669D01*
X146412700Y-105414331D01*
X146335378Y-105227657D01*
X158217300Y-105227657D01*
X158217300Y-105592343D01*
X158356859Y-105929269D01*
X158614731Y-106187141D01*
X158951657Y-106326700D01*
X159316343Y-106326700D01*
X159653269Y-106187141D01*
X159911141Y-105929269D01*
X160050700Y-105592343D01*
X160050700Y-105227657D01*
X159911141Y-104890731D01*
X159653269Y-104632859D01*
X159316343Y-104493300D01*
X158951657Y-104493300D01*
X158614731Y-104632859D01*
X158356859Y-104890731D01*
X158217300Y-105227657D01*
X146335378Y-105227657D01*
X146318813Y-105187667D01*
X146145333Y-105014187D01*
X145918669Y-104920300D01*
X145673331Y-104920300D01*
X145446667Y-105014187D01*
X145273187Y-105187667D01*
X145179300Y-105414331D01*
X136366700Y-105414331D01*
X136366700Y-103957657D01*
X155417300Y-103957657D01*
X155417300Y-104322343D01*
X155556859Y-104659269D01*
X155814731Y-104917141D01*
X156151657Y-105056700D01*
X156516343Y-105056700D01*
X156853269Y-104917141D01*
X157111141Y-104659269D01*
X157250700Y-104322343D01*
X157250700Y-103957657D01*
X157111141Y-103620731D01*
X156853269Y-103362859D01*
X156516343Y-103223300D01*
X156151657Y-103223300D01*
X155814731Y-103362859D01*
X155556859Y-103620731D01*
X155417300Y-103957657D01*
X136366700Y-103957657D01*
X136366700Y-103524117D01*
X136373884Y-103488000D01*
X136345424Y-103344920D01*
X136284834Y-103254242D01*
X136264376Y-103223624D01*
X136233757Y-103203165D01*
X135718249Y-102687657D01*
X158217300Y-102687657D01*
X158217300Y-103052343D01*
X158356859Y-103389269D01*
X158614731Y-103647141D01*
X158951657Y-103786700D01*
X159316343Y-103786700D01*
X159653269Y-103647141D01*
X159911141Y-103389269D01*
X160050700Y-103052343D01*
X160050700Y-102687657D01*
X159911141Y-102350731D01*
X159653269Y-102092859D01*
X159316343Y-101953300D01*
X158951657Y-101953300D01*
X158614731Y-102092859D01*
X158356859Y-102350731D01*
X158217300Y-102687657D01*
X135718249Y-102687657D01*
X135363700Y-102333109D01*
X135363700Y-102112331D01*
X135269813Y-101885667D01*
X135096333Y-101712187D01*
X134869669Y-101618300D01*
X134624331Y-101618300D01*
X134397667Y-101712187D01*
X134224187Y-101885667D01*
X134130300Y-102112331D01*
X125258741Y-102112331D01*
X125239269Y-102092859D01*
X124902343Y-101953300D01*
X124537657Y-101953300D01*
X124200731Y-102092859D01*
X123942859Y-102350731D01*
X123803300Y-102687657D01*
X120726700Y-102687657D01*
X120726700Y-101417657D01*
X121003300Y-101417657D01*
X121003300Y-101782343D01*
X121142859Y-102119269D01*
X121400731Y-102377141D01*
X121737657Y-102516700D01*
X122102343Y-102516700D01*
X122439269Y-102377141D01*
X122697141Y-102119269D01*
X122836700Y-101782343D01*
X122836700Y-101417657D01*
X155417300Y-101417657D01*
X155417300Y-101782343D01*
X155556859Y-102119269D01*
X155814731Y-102377141D01*
X156151657Y-102516700D01*
X156516343Y-102516700D01*
X156853269Y-102377141D01*
X157111141Y-102119269D01*
X157250700Y-101782343D01*
X157250700Y-101417657D01*
X157111141Y-101080731D01*
X156853269Y-100822859D01*
X156516343Y-100683300D01*
X156151657Y-100683300D01*
X155814731Y-100822859D01*
X155556859Y-101080731D01*
X155417300Y-101417657D01*
X122836700Y-101417657D01*
X122697141Y-101080731D01*
X122439269Y-100822859D01*
X122102343Y-100683300D01*
X121737657Y-100683300D01*
X121400731Y-100822859D01*
X121142859Y-101080731D01*
X121003300Y-101417657D01*
X120726700Y-101417657D01*
X120726700Y-100147657D01*
X123803300Y-100147657D01*
X123803300Y-100512343D01*
X123942859Y-100849269D01*
X124200731Y-101107141D01*
X124537657Y-101246700D01*
X124902343Y-101246700D01*
X125239269Y-101107141D01*
X125497141Y-100849269D01*
X125636700Y-100512343D01*
X125636700Y-100147657D01*
X158217300Y-100147657D01*
X158217300Y-100512343D01*
X158356859Y-100849269D01*
X158614731Y-101107141D01*
X158951657Y-101246700D01*
X159316343Y-101246700D01*
X159653269Y-101107141D01*
X159911141Y-100849269D01*
X160050700Y-100512343D01*
X160050700Y-100147657D01*
X159911141Y-99810731D01*
X159653269Y-99552859D01*
X159316343Y-99413300D01*
X158951657Y-99413300D01*
X158614731Y-99552859D01*
X158356859Y-99810731D01*
X158217300Y-100147657D01*
X125636700Y-100147657D01*
X125497141Y-99810731D01*
X125239269Y-99552859D01*
X124902343Y-99413300D01*
X124537657Y-99413300D01*
X124200731Y-99552859D01*
X123942859Y-99810731D01*
X123803300Y-100147657D01*
X120726700Y-100147657D01*
X120726700Y-98877657D01*
X121003300Y-98877657D01*
X121003300Y-99242343D01*
X121142859Y-99579269D01*
X121400731Y-99837141D01*
X121737657Y-99976700D01*
X122102343Y-99976700D01*
X122439269Y-99837141D01*
X122697141Y-99579269D01*
X122836700Y-99242343D01*
X122836700Y-98877657D01*
X122697141Y-98540731D01*
X122439269Y-98282859D01*
X122102343Y-98143300D01*
X121737657Y-98143300D01*
X121400731Y-98282859D01*
X121142859Y-98540731D01*
X121003300Y-98877657D01*
X120726700Y-98877657D01*
X120726700Y-97607657D01*
X123803300Y-97607657D01*
X123803300Y-97972343D01*
X123942859Y-98309269D01*
X124200731Y-98567141D01*
X124537657Y-98706700D01*
X124902343Y-98706700D01*
X125239269Y-98567141D01*
X125497141Y-98309269D01*
X125509751Y-98278825D01*
X129207100Y-98278825D01*
X129207100Y-98723207D01*
X129259303Y-98849237D01*
X129355763Y-98945697D01*
X129481793Y-98997900D01*
X130051175Y-98997900D01*
X130136900Y-98912175D01*
X130136900Y-98193100D01*
X130213100Y-98193100D01*
X130213100Y-98912175D01*
X130298825Y-98997900D01*
X130868207Y-98997900D01*
X130994237Y-98945697D01*
X131090697Y-98849237D01*
X131142900Y-98723207D01*
X131142900Y-98278825D01*
X140002100Y-98278825D01*
X140002100Y-98723207D01*
X140054303Y-98849237D01*
X140150763Y-98945697D01*
X140276793Y-98997900D01*
X140846175Y-98997900D01*
X140931900Y-98912175D01*
X140931900Y-98193100D01*
X141008100Y-98193100D01*
X141008100Y-98912175D01*
X141093825Y-98997900D01*
X141663207Y-98997900D01*
X141789237Y-98945697D01*
X141857277Y-98877657D01*
X155417300Y-98877657D01*
X155417300Y-99242343D01*
X155556859Y-99579269D01*
X155814731Y-99837141D01*
X156151657Y-99976700D01*
X156516343Y-99976700D01*
X156853269Y-99837141D01*
X157111141Y-99579269D01*
X157250700Y-99242343D01*
X157250700Y-98877657D01*
X157111141Y-98540731D01*
X156853269Y-98282859D01*
X156516343Y-98143300D01*
X156151657Y-98143300D01*
X155814731Y-98282859D01*
X155556859Y-98540731D01*
X155417300Y-98877657D01*
X141857277Y-98877657D01*
X141885697Y-98849237D01*
X141937900Y-98723207D01*
X141937900Y-98278825D01*
X141852175Y-98193100D01*
X141008100Y-98193100D01*
X140931900Y-98193100D01*
X140087825Y-98193100D01*
X140002100Y-98278825D01*
X131142900Y-98278825D01*
X131057175Y-98193100D01*
X130213100Y-98193100D01*
X130136900Y-98193100D01*
X129292825Y-98193100D01*
X129207100Y-98278825D01*
X125509751Y-98278825D01*
X125636700Y-97972343D01*
X125636700Y-97607657D01*
X125628058Y-97586793D01*
X129207100Y-97586793D01*
X129207100Y-98031175D01*
X129292825Y-98116900D01*
X130136900Y-98116900D01*
X130136900Y-97397825D01*
X130213100Y-97397825D01*
X130213100Y-98116900D01*
X131057175Y-98116900D01*
X131142900Y-98031175D01*
X131142900Y-97586793D01*
X140002100Y-97586793D01*
X140002100Y-98031175D01*
X140087825Y-98116900D01*
X140931900Y-98116900D01*
X140931900Y-97397825D01*
X141008100Y-97397825D01*
X141008100Y-98116900D01*
X141852175Y-98116900D01*
X141937900Y-98031175D01*
X141937900Y-97607657D01*
X158217300Y-97607657D01*
X158217300Y-97972343D01*
X158356859Y-98309269D01*
X158614731Y-98567141D01*
X158951657Y-98706700D01*
X159316343Y-98706700D01*
X159653269Y-98567141D01*
X159911141Y-98309269D01*
X160050700Y-97972343D01*
X160050700Y-97607657D01*
X159911141Y-97270731D01*
X159653269Y-97012859D01*
X159316343Y-96873300D01*
X158951657Y-96873300D01*
X158614731Y-97012859D01*
X158356859Y-97270731D01*
X158217300Y-97607657D01*
X141937900Y-97607657D01*
X141937900Y-97586793D01*
X141885697Y-97460763D01*
X141789237Y-97364303D01*
X141663207Y-97312100D01*
X141093825Y-97312100D01*
X141008100Y-97397825D01*
X140931900Y-97397825D01*
X140846175Y-97312100D01*
X140276793Y-97312100D01*
X140150763Y-97364303D01*
X140054303Y-97460763D01*
X140002100Y-97586793D01*
X131142900Y-97586793D01*
X131090697Y-97460763D01*
X130994237Y-97364303D01*
X130868207Y-97312100D01*
X130298825Y-97312100D01*
X130213100Y-97397825D01*
X130136900Y-97397825D01*
X130051175Y-97312100D01*
X129481793Y-97312100D01*
X129355763Y-97364303D01*
X129259303Y-97460763D01*
X129207100Y-97586793D01*
X125628058Y-97586793D01*
X125497141Y-97270731D01*
X125239269Y-97012859D01*
X124902343Y-96873300D01*
X124537657Y-96873300D01*
X124200731Y-97012859D01*
X123942859Y-97270731D01*
X123803300Y-97607657D01*
X120726700Y-97607657D01*
X120726700Y-95991622D01*
X120951623Y-95766700D01*
X121376890Y-95766700D01*
X121142859Y-96000731D01*
X121003300Y-96337657D01*
X121003300Y-96702343D01*
X121142859Y-97039269D01*
X121400731Y-97297141D01*
X121737657Y-97436700D01*
X122102343Y-97436700D01*
X122439269Y-97297141D01*
X122697141Y-97039269D01*
X122836700Y-96702343D01*
X122836700Y-96337657D01*
X122697141Y-96000731D01*
X122463110Y-95766700D01*
X123941795Y-95766700D01*
X123942859Y-95769269D01*
X124200731Y-96027141D01*
X124537657Y-96166700D01*
X124902343Y-96166700D01*
X125239269Y-96027141D01*
X125497141Y-95769269D01*
X125498205Y-95766700D01*
X129042249Y-95766700D01*
X129083620Y-95794343D01*
X129278076Y-95988799D01*
X129278076Y-96655000D01*
X129298775Y-96759061D01*
X129357721Y-96847279D01*
X129445939Y-96906225D01*
X129550000Y-96926924D01*
X130800000Y-96926924D01*
X130904061Y-96906225D01*
X130992279Y-96847279D01*
X131051225Y-96759061D01*
X131071924Y-96655000D01*
X131071924Y-95655000D01*
X131051225Y-95550939D01*
X130992279Y-95462721D01*
X130904061Y-95403775D01*
X130800000Y-95383076D01*
X130133799Y-95383076D01*
X130029700Y-95278977D01*
X130029700Y-95127331D01*
X129935813Y-94900667D01*
X129762333Y-94727187D01*
X129535669Y-94633300D01*
X129290331Y-94633300D01*
X129063667Y-94727187D01*
X129057554Y-94733300D01*
X125498205Y-94733300D01*
X125497141Y-94730731D01*
X125239269Y-94472859D01*
X124902343Y-94333300D01*
X124537657Y-94333300D01*
X124200731Y-94472859D01*
X123942859Y-94730731D01*
X123941795Y-94733300D01*
X122463110Y-94733300D01*
X122697141Y-94499269D01*
X122836700Y-94162343D01*
X122836700Y-93797657D01*
X122697141Y-93460731D01*
X122439269Y-93202859D01*
X122102343Y-93063300D01*
X121737657Y-93063300D01*
X121400731Y-93202859D01*
X121142859Y-93460731D01*
X121003300Y-93797657D01*
X121003300Y-94162343D01*
X121142859Y-94499269D01*
X121376890Y-94733300D01*
X120811623Y-94733300D01*
X120696700Y-94618378D01*
X120696700Y-92527657D01*
X123803300Y-92527657D01*
X123803300Y-92892343D01*
X123942859Y-93229269D01*
X124200731Y-93487141D01*
X124537657Y-93626700D01*
X124902343Y-93626700D01*
X125239269Y-93487141D01*
X125497141Y-93229269D01*
X125636700Y-92892343D01*
X125636700Y-92527657D01*
X125497141Y-92190731D01*
X125239269Y-91932859D01*
X124902343Y-91793300D01*
X124537657Y-91793300D01*
X124200731Y-91932859D01*
X123942859Y-92190731D01*
X123803300Y-92527657D01*
X120696700Y-92527657D01*
X120696700Y-91257657D01*
X121003300Y-91257657D01*
X121003300Y-91622343D01*
X121142859Y-91959269D01*
X121400731Y-92217141D01*
X121737657Y-92356700D01*
X122102343Y-92356700D01*
X122439269Y-92217141D01*
X122697141Y-91959269D01*
X122836700Y-91622343D01*
X122836700Y-91293825D01*
X128572100Y-91293825D01*
X128572100Y-91738207D01*
X128624303Y-91864237D01*
X128720763Y-91960697D01*
X128846793Y-92012900D01*
X129416175Y-92012900D01*
X129501900Y-91927175D01*
X129501900Y-91208100D01*
X129578100Y-91208100D01*
X129578100Y-91927175D01*
X129663825Y-92012900D01*
X130233207Y-92012900D01*
X130359237Y-91960697D01*
X130455697Y-91864237D01*
X130507900Y-91738207D01*
X130507900Y-91293825D01*
X130422175Y-91208100D01*
X129578100Y-91208100D01*
X129501900Y-91208100D01*
X128657825Y-91208100D01*
X128572100Y-91293825D01*
X122836700Y-91293825D01*
X122836700Y-91257657D01*
X122697141Y-90920731D01*
X122439269Y-90662859D01*
X122102343Y-90523300D01*
X121737657Y-90523300D01*
X121400731Y-90662859D01*
X121142859Y-90920731D01*
X121003300Y-91257657D01*
X120696700Y-91257657D01*
X120696700Y-88407423D01*
X121004364Y-88715088D01*
X121003300Y-88717657D01*
X121003300Y-89082343D01*
X121142859Y-89419269D01*
X121400731Y-89677141D01*
X121737657Y-89816700D01*
X122102343Y-89816700D01*
X122439269Y-89677141D01*
X122697141Y-89419269D01*
X122698205Y-89416700D01*
X124176890Y-89416700D01*
X123942859Y-89650731D01*
X123803300Y-89987657D01*
X123803300Y-90352343D01*
X123942859Y-90689269D01*
X124200731Y-90947141D01*
X124537657Y-91086700D01*
X124902343Y-91086700D01*
X125239269Y-90947141D01*
X125497141Y-90689269D01*
X125533374Y-90601793D01*
X128572100Y-90601793D01*
X128572100Y-91046175D01*
X128657825Y-91131900D01*
X129501900Y-91131900D01*
X129501900Y-90412825D01*
X129578100Y-90412825D01*
X129578100Y-91131900D01*
X130422175Y-91131900D01*
X130507900Y-91046175D01*
X130507900Y-90601793D01*
X130455697Y-90475763D01*
X130359237Y-90379303D01*
X130233207Y-90327100D01*
X129663825Y-90327100D01*
X129578100Y-90412825D01*
X129501900Y-90412825D01*
X129416175Y-90327100D01*
X128846793Y-90327100D01*
X128720763Y-90379303D01*
X128624303Y-90475763D01*
X128572100Y-90601793D01*
X125533374Y-90601793D01*
X125636700Y-90352343D01*
X125636700Y-89987657D01*
X125497141Y-89650731D01*
X125263110Y-89416700D01*
X128643076Y-89416700D01*
X128643076Y-89670000D01*
X128663775Y-89774061D01*
X128722721Y-89862279D01*
X128810939Y-89921225D01*
X128915000Y-89941924D01*
X130165000Y-89941924D01*
X130269061Y-89921225D01*
X130357279Y-89862279D01*
X130416225Y-89774061D01*
X130436924Y-89670000D01*
X130436924Y-88670000D01*
X130416225Y-88565939D01*
X130357279Y-88477721D01*
X130269061Y-88418775D01*
X130165000Y-88398076D01*
X130156700Y-88398076D01*
X130156700Y-88396331D01*
X130062813Y-88169667D01*
X129889333Y-87996187D01*
X129662669Y-87902300D01*
X129417331Y-87902300D01*
X129190667Y-87996187D01*
X129017187Y-88169667D01*
X128928698Y-88383300D01*
X125318944Y-88383300D01*
X125347729Y-88311611D01*
X124720000Y-87683882D01*
X124092271Y-88311611D01*
X124121056Y-88383300D01*
X122698205Y-88383300D01*
X122697141Y-88380731D01*
X122439269Y-88122859D01*
X122102343Y-87983300D01*
X121737657Y-87983300D01*
X121735088Y-87984364D01*
X121576610Y-87825886D01*
X123726780Y-87825886D01*
X123877347Y-88191064D01*
X123879175Y-88193800D01*
X124038389Y-88257729D01*
X124666118Y-87630000D01*
X124773882Y-87630000D01*
X125401611Y-88257729D01*
X125560825Y-88193800D01*
X125712578Y-87829113D01*
X125713220Y-87434114D01*
X125562653Y-87068936D01*
X125560825Y-87066200D01*
X125401611Y-87002271D01*
X124773882Y-87630000D01*
X124666118Y-87630000D01*
X124038389Y-87002271D01*
X123879175Y-87066200D01*
X123727422Y-87430887D01*
X123726780Y-87825886D01*
X121576610Y-87825886D01*
X121068945Y-87318222D01*
X121068943Y-87318219D01*
X121068941Y-87318217D01*
X121040118Y-87275080D01*
X120996981Y-87246257D01*
X120696700Y-86945977D01*
X120696700Y-86177657D01*
X121003300Y-86177657D01*
X121003300Y-86542343D01*
X121142859Y-86879269D01*
X121400731Y-87137141D01*
X121737657Y-87276700D01*
X122102343Y-87276700D01*
X122439269Y-87137141D01*
X122628021Y-86948389D01*
X124092271Y-86948389D01*
X124720000Y-87576118D01*
X125347729Y-86948389D01*
X125283800Y-86789175D01*
X124919113Y-86637422D01*
X124524114Y-86636780D01*
X124158936Y-86787347D01*
X124156200Y-86789175D01*
X124092271Y-86948389D01*
X122628021Y-86948389D01*
X122697141Y-86879269D01*
X122836700Y-86542343D01*
X122836700Y-86177657D01*
X122697141Y-85840731D01*
X122439269Y-85582859D01*
X122102343Y-85443300D01*
X121737657Y-85443300D01*
X121400731Y-85582859D01*
X121142859Y-85840731D01*
X121003300Y-86177657D01*
X120696700Y-86177657D01*
X120696700Y-84907657D01*
X123803300Y-84907657D01*
X123803300Y-85272343D01*
X123942859Y-85609269D01*
X124200731Y-85867141D01*
X124537657Y-86006700D01*
X124902343Y-86006700D01*
X125239269Y-85867141D01*
X125497141Y-85609269D01*
X125636700Y-85272343D01*
X125636700Y-84907657D01*
X125497141Y-84570731D01*
X125239269Y-84312859D01*
X124902343Y-84173300D01*
X124537657Y-84173300D01*
X124200731Y-84312859D01*
X123942859Y-84570731D01*
X123803300Y-84907657D01*
X120696700Y-84907657D01*
X120696700Y-83637657D01*
X121003300Y-83637657D01*
X121003300Y-84002343D01*
X121142859Y-84339269D01*
X121400731Y-84597141D01*
X121737657Y-84736700D01*
X122102343Y-84736700D01*
X122439269Y-84597141D01*
X122697141Y-84339269D01*
X122836700Y-84002343D01*
X122836700Y-83637657D01*
X122697141Y-83300731D01*
X122439269Y-83042859D01*
X122102343Y-82903300D01*
X121737657Y-82903300D01*
X121400731Y-83042859D01*
X121142859Y-83300731D01*
X121003300Y-83637657D01*
X120696700Y-83637657D01*
X120696700Y-82367657D01*
X123803300Y-82367657D01*
X123803300Y-82732343D01*
X123942859Y-83069269D01*
X124200731Y-83327141D01*
X124537657Y-83466700D01*
X124902343Y-83466700D01*
X125239269Y-83327141D01*
X125497141Y-83069269D01*
X125636700Y-82732343D01*
X125636700Y-82367657D01*
X125497141Y-82030731D01*
X125239269Y-81772859D01*
X124902343Y-81633300D01*
X124537657Y-81633300D01*
X124200731Y-81772859D01*
X123942859Y-82030731D01*
X123803300Y-82367657D01*
X120696700Y-82367657D01*
X120696700Y-81961611D01*
X121292271Y-81961611D01*
X121356200Y-82120825D01*
X121720887Y-82272578D01*
X122115886Y-82273220D01*
X122481064Y-82122653D01*
X122483800Y-82120825D01*
X122547729Y-81961611D01*
X121920000Y-81333882D01*
X121292271Y-81961611D01*
X120696700Y-81961611D01*
X120696700Y-81475886D01*
X120926780Y-81475886D01*
X121077347Y-81841064D01*
X121079175Y-81843800D01*
X121238389Y-81907729D01*
X121866118Y-81280000D01*
X121973882Y-81280000D01*
X122601611Y-81907729D01*
X122760825Y-81843800D01*
X122912578Y-81479113D01*
X122913220Y-81084114D01*
X122762653Y-80718936D01*
X122760825Y-80716200D01*
X122601611Y-80652271D01*
X121973882Y-81280000D01*
X121866118Y-81280000D01*
X121238389Y-80652271D01*
X121079175Y-80716200D01*
X120927422Y-81080887D01*
X120926780Y-81475886D01*
X120696700Y-81475886D01*
X120696700Y-80598389D01*
X121292271Y-80598389D01*
X121920000Y-81226118D01*
X122547729Y-80598389D01*
X122483800Y-80439175D01*
X122119113Y-80287422D01*
X121724114Y-80286780D01*
X121358936Y-80437347D01*
X121356200Y-80439175D01*
X121292271Y-80598389D01*
X120696700Y-80598389D01*
X120696700Y-79827657D01*
X123803300Y-79827657D01*
X123803300Y-80192343D01*
X123942859Y-80529269D01*
X124200731Y-80787141D01*
X124537657Y-80926700D01*
X124902343Y-80926700D01*
X125239269Y-80787141D01*
X125497141Y-80529269D01*
X125636700Y-80192343D01*
X125636700Y-79827657D01*
X125497141Y-79490731D01*
X125239269Y-79232859D01*
X124902343Y-79093300D01*
X124537657Y-79093300D01*
X124200731Y-79232859D01*
X123942859Y-79490731D01*
X123803300Y-79827657D01*
X120696700Y-79827657D01*
X120696700Y-78557657D01*
X121003300Y-78557657D01*
X121003300Y-78922343D01*
X121142859Y-79259269D01*
X121400731Y-79517141D01*
X121737657Y-79656700D01*
X122102343Y-79656700D01*
X122439269Y-79517141D01*
X122697141Y-79259269D01*
X122836700Y-78922343D01*
X122836700Y-78557657D01*
X122697141Y-78220731D01*
X122439269Y-77962859D01*
X122102343Y-77823300D01*
X121737657Y-77823300D01*
X121400731Y-77962859D01*
X121142859Y-78220731D01*
X121003300Y-78557657D01*
X120696700Y-78557657D01*
X120696700Y-77287657D01*
X123803300Y-77287657D01*
X123803300Y-77652343D01*
X123942859Y-77989269D01*
X124200731Y-78247141D01*
X124537657Y-78386700D01*
X124902343Y-78386700D01*
X125239269Y-78247141D01*
X125497141Y-77989269D01*
X125636700Y-77652343D01*
X125636700Y-77287657D01*
X125497141Y-76950731D01*
X125239269Y-76692859D01*
X124902343Y-76553300D01*
X124537657Y-76553300D01*
X124200731Y-76692859D01*
X123942859Y-76950731D01*
X123803300Y-77287657D01*
X120696700Y-77287657D01*
X120696700Y-76017657D01*
X121003300Y-76017657D01*
X121003300Y-76382343D01*
X121142859Y-76719269D01*
X121400731Y-76977141D01*
X121737657Y-77116700D01*
X122102343Y-77116700D01*
X122439269Y-76977141D01*
X122697141Y-76719269D01*
X122836700Y-76382343D01*
X122836700Y-76017657D01*
X122697141Y-75680731D01*
X122439269Y-75422859D01*
X122102343Y-75283300D01*
X121737657Y-75283300D01*
X121400731Y-75422859D01*
X121142859Y-75680731D01*
X121003300Y-76017657D01*
X120696700Y-76017657D01*
X120696700Y-76004023D01*
X121734024Y-74966700D01*
X142993301Y-74966700D01*
X142993300Y-80670554D01*
X142993300Y-80670554D01*
G37*
X142993300Y-80670554D02*
X142987187Y-80676667D01*
X142893300Y-80903331D01*
X142893300Y-80911976D01*
X142418622Y-81386655D01*
X142375481Y-81415481D01*
X142261280Y-81586395D01*
X142231300Y-81737114D01*
X142231300Y-81737118D01*
X142221179Y-81788000D01*
X142231300Y-81838882D01*
X142231301Y-86004553D01*
X142225187Y-86010667D01*
X142131300Y-86237331D01*
X142131300Y-86482669D01*
X142225187Y-86709333D01*
X142231300Y-86715446D01*
X142231301Y-87198114D01*
X142221179Y-87249000D01*
X142231301Y-87299887D01*
X142243578Y-87361605D01*
X142261281Y-87450606D01*
X142346656Y-87578379D01*
X142346658Y-87578381D01*
X142375482Y-87621519D01*
X142418620Y-87650343D01*
X143287276Y-88519000D01*
X141275622Y-90530655D01*
X141232481Y-90559481D01*
X141118280Y-90730395D01*
X141088300Y-90881114D01*
X141088300Y-90881118D01*
X141078179Y-90932000D01*
X141088300Y-90982882D01*
X141088301Y-94894553D01*
X141082187Y-94900667D01*
X140988300Y-95127331D01*
X140988300Y-95372669D01*
X140992611Y-95383076D01*
X140345000Y-95383076D01*
X140240939Y-95403775D01*
X140152721Y-95462721D01*
X140093775Y-95550939D01*
X140073076Y-95655000D01*
X140073076Y-96655000D01*
X140093775Y-96759061D01*
X140152721Y-96847279D01*
X140240939Y-96906225D01*
X140345000Y-96926924D01*
X141595000Y-96926924D01*
X141699061Y-96906225D01*
X141787279Y-96847279D01*
X141846225Y-96759061D01*
X141866924Y-96655000D01*
X141866924Y-96337657D01*
X155417300Y-96337657D01*
X155417300Y-96702343D01*
X155556859Y-97039269D01*
X155814731Y-97297141D01*
X156151657Y-97436700D01*
X156516343Y-97436700D01*
X156853269Y-97297141D01*
X157111141Y-97039269D01*
X157250700Y-96702343D01*
X157250700Y-96337657D01*
X157111141Y-96000731D01*
X156853269Y-95742859D01*
X156516343Y-95603300D01*
X156151657Y-95603300D01*
X155814731Y-95742859D01*
X155556859Y-96000731D01*
X155417300Y-96337657D01*
X141866924Y-96337657D01*
X141866924Y-95988800D01*
X141934381Y-95921343D01*
X141977519Y-95892519D01*
X142006344Y-95849380D01*
X142091720Y-95721606D01*
X142098995Y-95685033D01*
X142113119Y-95614027D01*
X142127813Y-95599333D01*
X142221700Y-95372669D01*
X142221700Y-95127331D01*
X142127813Y-94900667D01*
X142121700Y-94894554D01*
X142121700Y-93797657D01*
X155417300Y-93797657D01*
X155417300Y-94162343D01*
X155556859Y-94499269D01*
X155814731Y-94757141D01*
X156151657Y-94896700D01*
X156516343Y-94896700D01*
X156853269Y-94757141D01*
X157111141Y-94499269D01*
X157250700Y-94162343D01*
X157250700Y-93797657D01*
X157111141Y-93460731D01*
X156853269Y-93202859D01*
X156516343Y-93063300D01*
X156151657Y-93063300D01*
X155814731Y-93202859D01*
X155556859Y-93460731D01*
X155417300Y-93797657D01*
X142121700Y-93797657D01*
X142121700Y-92527657D01*
X158217300Y-92527657D01*
X158217300Y-92892343D01*
X158356859Y-93229269D01*
X158614731Y-93487141D01*
X158951657Y-93626700D01*
X159316343Y-93626700D01*
X159653269Y-93487141D01*
X159911141Y-93229269D01*
X160050700Y-92892343D01*
X160050700Y-92527657D01*
X159911141Y-92190731D01*
X159653269Y-91932859D01*
X159316343Y-91793300D01*
X158951657Y-91793300D01*
X158614731Y-91932859D01*
X158356859Y-92190731D01*
X158217300Y-92527657D01*
X142121700Y-92527657D01*
X142121700Y-91257657D01*
X155417300Y-91257657D01*
X155417300Y-91622343D01*
X155556859Y-91959269D01*
X155814731Y-92217141D01*
X156151657Y-92356700D01*
X156516343Y-92356700D01*
X156853269Y-92217141D01*
X157111141Y-91959269D01*
X157250700Y-91622343D01*
X157250700Y-91257657D01*
X157111141Y-90920731D01*
X156853269Y-90662859D01*
X156516343Y-90523300D01*
X156151657Y-90523300D01*
X155814731Y-90662859D01*
X155556859Y-90920731D01*
X155417300Y-91257657D01*
X142121700Y-91257657D01*
X142121700Y-91146023D01*
X144132024Y-89135700D01*
X144140669Y-89135700D01*
X144367333Y-89041813D01*
X144540813Y-88868333D01*
X144634700Y-88641669D01*
X144634700Y-88396331D01*
X144540813Y-88169667D01*
X144367333Y-87996187D01*
X144140669Y-87902300D01*
X144132024Y-87902300D01*
X144055610Y-87825886D01*
X158140780Y-87825886D01*
X158291347Y-88191064D01*
X158293175Y-88193800D01*
X158452389Y-88257729D01*
X159080118Y-87630000D01*
X159187882Y-87630000D01*
X159815611Y-88257729D01*
X159974825Y-88193800D01*
X160126578Y-87829113D01*
X160127220Y-87434114D01*
X159976653Y-87068936D01*
X159974825Y-87066200D01*
X159815611Y-87002271D01*
X159187882Y-87630000D01*
X159080118Y-87630000D01*
X158452389Y-87002271D01*
X158293175Y-87066200D01*
X158141422Y-87430887D01*
X158140780Y-87825886D01*
X144055610Y-87825886D01*
X143264700Y-87034977D01*
X143264700Y-86715446D01*
X143270813Y-86709333D01*
X143364700Y-86482669D01*
X143364700Y-86237331D01*
X143339983Y-86177657D01*
X155417300Y-86177657D01*
X155417300Y-86542343D01*
X155556859Y-86879269D01*
X155814731Y-87137141D01*
X156151657Y-87276700D01*
X156516343Y-87276700D01*
X156853269Y-87137141D01*
X157042021Y-86948389D01*
X158506271Y-86948389D01*
X159134000Y-87576118D01*
X159761729Y-86948389D01*
X159697800Y-86789175D01*
X159333113Y-86637422D01*
X158938114Y-86636780D01*
X158572936Y-86787347D01*
X158570200Y-86789175D01*
X158506271Y-86948389D01*
X157042021Y-86948389D01*
X157111141Y-86879269D01*
X157250700Y-86542343D01*
X157250700Y-86177657D01*
X157111141Y-85840731D01*
X156853269Y-85582859D01*
X156516343Y-85443300D01*
X156151657Y-85443300D01*
X155814731Y-85582859D01*
X155556859Y-85840731D01*
X155417300Y-86177657D01*
X143339983Y-86177657D01*
X143270813Y-86010667D01*
X143264700Y-86004554D01*
X143264700Y-84907657D01*
X158217300Y-84907657D01*
X158217300Y-85272343D01*
X158356859Y-85609269D01*
X158614731Y-85867141D01*
X158951657Y-86006700D01*
X159316343Y-86006700D01*
X159653269Y-85867141D01*
X159911141Y-85609269D01*
X160050700Y-85272343D01*
X160050700Y-84907657D01*
X159911141Y-84570731D01*
X159653269Y-84312859D01*
X159316343Y-84173300D01*
X158951657Y-84173300D01*
X158614731Y-84312859D01*
X158356859Y-84570731D01*
X158217300Y-84907657D01*
X143264700Y-84907657D01*
X143264700Y-84512905D01*
X143387331Y-84563700D01*
X143632669Y-84563700D01*
X143859333Y-84469813D01*
X144032813Y-84296333D01*
X144126700Y-84069669D01*
X144126700Y-83824331D01*
X144049378Y-83637657D01*
X155417300Y-83637657D01*
X155417300Y-84002343D01*
X155556859Y-84339269D01*
X155814731Y-84597141D01*
X156151657Y-84736700D01*
X156516343Y-84736700D01*
X156853269Y-84597141D01*
X157111141Y-84339269D01*
X157250700Y-84002343D01*
X157250700Y-83637657D01*
X157111141Y-83300731D01*
X156853269Y-83042859D01*
X156516343Y-82903300D01*
X156151657Y-82903300D01*
X155814731Y-83042859D01*
X155556859Y-83300731D01*
X155417300Y-83637657D01*
X144049378Y-83637657D01*
X144032813Y-83597667D01*
X143859333Y-83424187D01*
X143632669Y-83330300D01*
X143387331Y-83330300D01*
X143264700Y-83381095D01*
X143264700Y-82427331D01*
X144417300Y-82427331D01*
X144417300Y-82672669D01*
X144511187Y-82899333D01*
X144684667Y-83072813D01*
X144911331Y-83166700D01*
X145156669Y-83166700D01*
X145383333Y-83072813D01*
X145556813Y-82899333D01*
X145650700Y-82672669D01*
X145650700Y-82427331D01*
X145625983Y-82367657D01*
X158217300Y-82367657D01*
X158217300Y-82732343D01*
X158356859Y-83069269D01*
X158614731Y-83327141D01*
X158951657Y-83466700D01*
X159316343Y-83466700D01*
X159653269Y-83327141D01*
X159911141Y-83069269D01*
X160050700Y-82732343D01*
X160050700Y-82367657D01*
X159911141Y-82030731D01*
X159653269Y-81772859D01*
X159316343Y-81633300D01*
X158951657Y-81633300D01*
X158614731Y-81772859D01*
X158356859Y-82030731D01*
X158217300Y-82367657D01*
X145625983Y-82367657D01*
X145556813Y-82200667D01*
X145383333Y-82027187D01*
X145225019Y-81961611D01*
X155706271Y-81961611D01*
X155770200Y-82120825D01*
X156134887Y-82272578D01*
X156529886Y-82273220D01*
X156895064Y-82122653D01*
X156897800Y-82120825D01*
X156961729Y-81961611D01*
X156334000Y-81333882D01*
X155706271Y-81961611D01*
X145225019Y-81961611D01*
X145156669Y-81933300D01*
X144911331Y-81933300D01*
X144684667Y-82027187D01*
X144511187Y-82200667D01*
X144417300Y-82427331D01*
X143264700Y-82427331D01*
X143264700Y-82002023D01*
X143624024Y-81642700D01*
X143632669Y-81642700D01*
X143859333Y-81548813D01*
X143932260Y-81475886D01*
X155340780Y-81475886D01*
X155491347Y-81841064D01*
X155493175Y-81843800D01*
X155652389Y-81907729D01*
X156280118Y-81280000D01*
X156387882Y-81280000D01*
X157015611Y-81907729D01*
X157174825Y-81843800D01*
X157326578Y-81479113D01*
X157327220Y-81084114D01*
X157176653Y-80718936D01*
X157174825Y-80716200D01*
X157015611Y-80652271D01*
X156387882Y-81280000D01*
X156280118Y-81280000D01*
X155652389Y-80652271D01*
X155493175Y-80716200D01*
X155341422Y-81080887D01*
X155340780Y-81475886D01*
X143932260Y-81475886D01*
X144032813Y-81375333D01*
X144126700Y-81148669D01*
X144126700Y-80903331D01*
X144032813Y-80676667D01*
X144026700Y-80670554D01*
X144026700Y-80598389D01*
X155706271Y-80598389D01*
X156334000Y-81226118D01*
X156961729Y-80598389D01*
X156897800Y-80439175D01*
X156533113Y-80287422D01*
X156138114Y-80286780D01*
X155772936Y-80437347D01*
X155770200Y-80439175D01*
X155706271Y-80598389D01*
X144026700Y-80598389D01*
X144026700Y-79827657D01*
X158217300Y-79827657D01*
X158217300Y-80192343D01*
X158356859Y-80529269D01*
X158614731Y-80787141D01*
X158951657Y-80926700D01*
X159316343Y-80926700D01*
X159653269Y-80787141D01*
X159911141Y-80529269D01*
X160050700Y-80192343D01*
X160050700Y-79827657D01*
X159911141Y-79490731D01*
X159653269Y-79232859D01*
X159316343Y-79093300D01*
X158951657Y-79093300D01*
X158614731Y-79232859D01*
X158356859Y-79490731D01*
X158217300Y-79827657D01*
X144026700Y-79827657D01*
X144026700Y-78557657D01*
X155417300Y-78557657D01*
X155417300Y-78922343D01*
X155556859Y-79259269D01*
X155814731Y-79517141D01*
X156151657Y-79656700D01*
X156516343Y-79656700D01*
X156853269Y-79517141D01*
X157111141Y-79259269D01*
X157250700Y-78922343D01*
X157250700Y-78557657D01*
X157111141Y-78220731D01*
X156853269Y-77962859D01*
X156516343Y-77823300D01*
X156151657Y-77823300D01*
X155814731Y-77962859D01*
X155556859Y-78220731D01*
X155417300Y-78557657D01*
X144026700Y-78557657D01*
X144026700Y-77287657D01*
X158217300Y-77287657D01*
X158217300Y-77652343D01*
X158356859Y-77989269D01*
X158614731Y-78247141D01*
X158951657Y-78386700D01*
X159316343Y-78386700D01*
X159653269Y-78247141D01*
X159911141Y-77989269D01*
X160050700Y-77652343D01*
X160050700Y-77287657D01*
X159911141Y-76950731D01*
X159653269Y-76692859D01*
X159316343Y-76553300D01*
X158951657Y-76553300D01*
X158614731Y-76692859D01*
X158356859Y-76950731D01*
X158217300Y-77287657D01*
X144026700Y-77287657D01*
X144026700Y-76017657D01*
X155417300Y-76017657D01*
X155417300Y-76382343D01*
X155556859Y-76719269D01*
X155814731Y-76977141D01*
X156151657Y-77116700D01*
X156516343Y-77116700D01*
X156853269Y-76977141D01*
X157111141Y-76719269D01*
X157250700Y-76382343D01*
X157250700Y-76017657D01*
X157111141Y-75680731D01*
X156853269Y-75422859D01*
X156516343Y-75283300D01*
X156151657Y-75283300D01*
X155814731Y-75422859D01*
X155556859Y-75680731D01*
X155417300Y-76017657D01*
X144026700Y-76017657D01*
X144026700Y-74966700D01*
X158455977Y-74966700D01*
X159240620Y-75751344D01*
X159240623Y-75751346D01*
X160463300Y-76974024D01*
X160463301Y-88052376D01*
X160132378Y-88383300D01*
X159732944Y-88383300D01*
X159761729Y-88311611D01*
X159134000Y-87683882D01*
X158506271Y-88311611D01*
X158535056Y-88383300D01*
X157112205Y-88383300D01*
X157111141Y-88380731D01*
X156853269Y-88122859D01*
X156516343Y-87983300D01*
X156151657Y-87983300D01*
X155814731Y-88122859D01*
X155556859Y-88380731D01*
X155417300Y-88717657D01*
X155417300Y-89082343D01*
X155556859Y-89419269D01*
X155814731Y-89677141D01*
X156151657Y-89816700D01*
X156516343Y-89816700D01*
X156853269Y-89677141D01*
X157111141Y-89419269D01*
X157112205Y-89416700D01*
X158590890Y-89416700D01*
X158356859Y-89650731D01*
X158217300Y-89987657D01*
X158217300Y-90352343D01*
X158356859Y-90689269D01*
X158614731Y-90947141D01*
X158951657Y-91086700D01*
X159316343Y-91086700D01*
X159653269Y-90947141D01*
X159911141Y-90689269D01*
X160050700Y-90352343D01*
X160050700Y-89987657D01*
X159911141Y-89650731D01*
X159677110Y-89416700D01*
X160212378Y-89416700D01*
X160313300Y-89517623D01*
X160313301Y-93339975D01*
X159654622Y-93998655D01*
X159654619Y-93998657D01*
X159318912Y-94334364D01*
X159316343Y-94333300D01*
X158951657Y-94333300D01*
X158614731Y-94472859D01*
X158356859Y-94730731D01*
X158217300Y-95067657D01*
X158217300Y-95432343D01*
X158356859Y-95769269D01*
X158614731Y-96027141D01*
X158951657Y-96166700D01*
X159316343Y-96166700D01*
X159318912Y-96165636D01*
X160423300Y-97270024D01*
X160423301Y-111009975D01*
X159654622Y-111778655D01*
X159654619Y-111778657D01*
X159318912Y-112114364D01*
X159316343Y-112113300D01*
X158951657Y-112113300D01*
X158614731Y-112252859D01*
X158356859Y-112510731D01*
X158217300Y-112847657D01*
X158217300Y-113212343D01*
X158356859Y-113549269D01*
X158614731Y-113807141D01*
X158951657Y-113946700D01*
X159316343Y-113946700D01*
X159318912Y-113945636D01*
X160453301Y-115080025D01*
X160453300Y-125533530D01*
X160033880Y-125952951D01*
X160050700Y-125912343D01*
X160050700Y-125547657D01*
X159911141Y-125210731D01*
X159653269Y-124952859D01*
X159316343Y-124813300D01*
X158951657Y-124813300D01*
X158614731Y-124952859D01*
X158356859Y-125210731D01*
X158217300Y-125547657D01*
X158217300Y-125912343D01*
X158356859Y-126249269D01*
X158573291Y-126465701D01*
X142883700Y-126465701D01*
X142883700Y-124277657D01*
X155417300Y-124277657D01*
X155417300Y-124642343D01*
X155556859Y-124979269D01*
X155814731Y-125237141D01*
X156151657Y-125376700D01*
X156516343Y-125376700D01*
X156853269Y-125237141D01*
X157111141Y-124979269D01*
X157250700Y-124642343D01*
X157250700Y-124277657D01*
X157111141Y-123940731D01*
X156853269Y-123682859D01*
X156516343Y-123543300D01*
X156151657Y-123543300D01*
X155814731Y-123682859D01*
X155556859Y-123940731D01*
X155417300Y-124277657D01*
X142883700Y-124277657D01*
X142883700Y-123007657D01*
X158217300Y-123007657D01*
X158217300Y-123372343D01*
X158356859Y-123709269D01*
X158614731Y-123967141D01*
X158951657Y-124106700D01*
X159316343Y-124106700D01*
X159653269Y-123967141D01*
X159911141Y-123709269D01*
X160050700Y-123372343D01*
X160050700Y-123007657D01*
X159911141Y-122670731D01*
X159653269Y-122412859D01*
X159316343Y-122273300D01*
X158951657Y-122273300D01*
X158614731Y-122412859D01*
X158356859Y-122670731D01*
X158217300Y-123007657D01*
X142883700Y-123007657D01*
X142883700Y-116560446D01*
X142889813Y-116554333D01*
X142983700Y-116327669D01*
X142983700Y-116082331D01*
X142889813Y-115855667D01*
X142716333Y-115682187D01*
X142489669Y-115588300D01*
X142244331Y-115588300D01*
X142017667Y-115682187D01*
X141844187Y-115855667D01*
X141750300Y-116082331D01*
X141750300Y-116327669D01*
X141844187Y-116554333D01*
X141850300Y-116560446D01*
X141850301Y-126465701D01*
X125280709Y-126465701D01*
X125497141Y-126249269D01*
X125636700Y-125912343D01*
X125636700Y-125547657D01*
X125497141Y-125210731D01*
X125239269Y-124952859D01*
X124934694Y-124826700D01*
X126455885Y-124826700D01*
X126492000Y-124833884D01*
X126528115Y-124826700D01*
X126528117Y-124826700D01*
X126635079Y-124805424D01*
X126756376Y-124724376D01*
X126776837Y-124693754D01*
X129800260Y-121670331D01*
X131971300Y-121670331D01*
X131971300Y-121915669D01*
X132065187Y-122142333D01*
X132238667Y-122315813D01*
X132465331Y-122409700D01*
X132710669Y-122409700D01*
X132937333Y-122315813D01*
X133110813Y-122142333D01*
X133204700Y-121915669D01*
X133204700Y-121694891D01*
X134853757Y-120045835D01*
X134884376Y-120025376D01*
X134965424Y-119904079D01*
X134986700Y-119797117D01*
X134986700Y-119797116D01*
X134993884Y-119761000D01*
X134986700Y-119724885D01*
X134986700Y-106042446D01*
X135142813Y-105886333D01*
X135236700Y-105659669D01*
X135236700Y-105414331D01*
X135142813Y-105187667D01*
X134969333Y-105014187D01*
X134742669Y-104920300D01*
X134497331Y-104920300D01*
X134270667Y-105014187D01*
X134097187Y-105187667D01*
X134003300Y-105414331D01*
X134003300Y-105659669D01*
X134097187Y-105886333D01*
X134253300Y-106042446D01*
X134253301Y-119609107D01*
X132686109Y-121176300D01*
X132465331Y-121176300D01*
X132238667Y-121270187D01*
X132065187Y-121443667D01*
X131971300Y-121670331D01*
X129800260Y-121670331D01*
X132440758Y-119029834D01*
X132471376Y-119009376D01*
X132509605Y-118952162D01*
X132552424Y-118888080D01*
X132580884Y-118745000D01*
X132573700Y-118708883D01*
X132573700Y-103375446D01*
X132729813Y-103219333D01*
X132823700Y-102992669D01*
X132823700Y-102747331D01*
X132729813Y-102520667D01*
X132556333Y-102347187D01*
X132329669Y-102253300D01*
X132084331Y-102253300D01*
X131857667Y-102347187D01*
X131684187Y-102520667D01*
X131590300Y-102747331D01*
X131590300Y-102992669D01*
X131684187Y-103219333D01*
X131840301Y-103375447D01*
X131840300Y-118593108D01*
X126340109Y-124093300D01*
X124934694Y-124093300D01*
X125239269Y-123967141D01*
X125497141Y-123709269D01*
X125560337Y-123556700D01*
X126328885Y-123556700D01*
X126365000Y-123563884D01*
X126401115Y-123556700D01*
X126401117Y-123556700D01*
X126508079Y-123535424D01*
X126629376Y-123454376D01*
X126649837Y-123423754D01*
X131170757Y-118902835D01*
X131201376Y-118882376D01*
X131282424Y-118761079D01*
X131303700Y-118654117D01*
X131303700Y-118654113D01*
X131310883Y-118618001D01*
X131303700Y-118581889D01*
X131303700Y-104772446D01*
X131459813Y-104616333D01*
X131553700Y-104389669D01*
X131553700Y-104144331D01*
X131459813Y-103917667D01*
X131286333Y-103744187D01*
X131059669Y-103650300D01*
X130814331Y-103650300D01*
X130587667Y-103744187D01*
X130414187Y-103917667D01*
X130320300Y-104144331D01*
X130320300Y-104389669D01*
X130414187Y-104616333D01*
X130570300Y-104772446D01*
X130570301Y-118466107D01*
X126213109Y-122823300D01*
X125560337Y-122823300D01*
X125497141Y-122670731D01*
X125239269Y-122412859D01*
X124902343Y-122273300D01*
X124537657Y-122273300D01*
X124200731Y-122412859D01*
X123942859Y-122670731D01*
X123803300Y-123007657D01*
X123803300Y-123372343D01*
X123942859Y-123709269D01*
X124200731Y-123967141D01*
X124505306Y-124093300D01*
X122760337Y-124093300D01*
X122697141Y-123940731D01*
X122439269Y-123682859D01*
X122102343Y-123543300D01*
X121737657Y-123543300D01*
X121400731Y-123682859D01*
X121142859Y-123940731D01*
X121003300Y-124277657D01*
X121003300Y-124642343D01*
X121142859Y-124979269D01*
X121400731Y-125237141D01*
X121737657Y-125376700D01*
X122102343Y-125376700D01*
X122439269Y-125237141D01*
X122697141Y-124979269D01*
X122760337Y-124826700D01*
X124505306Y-124826700D01*
X124200731Y-124952859D01*
X123942859Y-125210731D01*
X123803300Y-125547657D01*
X123803300Y-125912343D01*
X123942859Y-126249269D01*
X124159291Y-126465701D01*
X122226425Y-126465701D01*
X120696700Y-124935977D01*
X120696700Y-121737657D01*
X121003300Y-121737657D01*
X121003300Y-122102343D01*
X121142859Y-122439269D01*
X121400731Y-122697141D01*
X121737657Y-122836700D01*
X122102343Y-122836700D01*
X122439269Y-122697141D01*
X122697141Y-122439269D01*
X122836700Y-122102343D01*
X122836700Y-121737657D01*
X122697141Y-121400731D01*
X122439269Y-121142859D01*
X122102343Y-121003300D01*
X121737657Y-121003300D01*
X121400731Y-121142859D01*
X121142859Y-121400731D01*
X121003300Y-121737657D01*
X120696700Y-121737657D01*
X120696700Y-120467657D01*
X123803300Y-120467657D01*
X123803300Y-120832343D01*
X123942859Y-121169269D01*
X124200731Y-121427141D01*
X124537657Y-121566700D01*
X124902343Y-121566700D01*
X125239269Y-121427141D01*
X125497141Y-121169269D01*
X125636700Y-120832343D01*
X125636700Y-120467657D01*
X125497141Y-120130731D01*
X125239269Y-119872859D01*
X124902343Y-119733300D01*
X124537657Y-119733300D01*
X124200731Y-119872859D01*
X123942859Y-120130731D01*
X123803300Y-120467657D01*
X120696700Y-120467657D01*
X120696700Y-119197657D01*
X121003300Y-119197657D01*
X121003300Y-119562343D01*
X121142859Y-119899269D01*
X121400731Y-120157141D01*
X121737657Y-120296700D01*
X122102343Y-120296700D01*
X122439269Y-120157141D01*
X122697141Y-119899269D01*
X122836700Y-119562343D01*
X122836700Y-119197657D01*
X122697141Y-118860731D01*
X122439269Y-118602859D01*
X122102343Y-118463300D01*
X121737657Y-118463300D01*
X121400731Y-118602859D01*
X121142859Y-118860731D01*
X121003300Y-119197657D01*
X120696700Y-119197657D01*
X120696700Y-117927657D01*
X123803300Y-117927657D01*
X123803300Y-118292343D01*
X123942859Y-118629269D01*
X124200731Y-118887141D01*
X124537657Y-119026700D01*
X124902343Y-119026700D01*
X125239269Y-118887141D01*
X125497141Y-118629269D01*
X125636700Y-118292343D01*
X125636700Y-117927657D01*
X125497141Y-117590731D01*
X125239269Y-117332859D01*
X124902343Y-117193300D01*
X124537657Y-117193300D01*
X124200731Y-117332859D01*
X123942859Y-117590731D01*
X123803300Y-117927657D01*
X120696700Y-117927657D01*
X120696700Y-116657657D01*
X121003300Y-116657657D01*
X121003300Y-117022343D01*
X121142859Y-117359269D01*
X121400731Y-117617141D01*
X121737657Y-117756700D01*
X122102343Y-117756700D01*
X122439269Y-117617141D01*
X122697141Y-117359269D01*
X122836700Y-117022343D01*
X122836700Y-116657657D01*
X122697141Y-116320731D01*
X122439269Y-116062859D01*
X122102343Y-115923300D01*
X121737657Y-115923300D01*
X121400731Y-116062859D01*
X121142859Y-116320731D01*
X121003300Y-116657657D01*
X120696700Y-116657657D01*
X120696700Y-115387657D01*
X123803300Y-115387657D01*
X123803300Y-115752343D01*
X123942859Y-116089269D01*
X124200731Y-116347141D01*
X124537657Y-116486700D01*
X124902343Y-116486700D01*
X125239269Y-116347141D01*
X125497141Y-116089269D01*
X125636700Y-115752343D01*
X125636700Y-115387657D01*
X125497141Y-115050731D01*
X125239269Y-114792859D01*
X124902343Y-114653300D01*
X124537657Y-114653300D01*
X124200731Y-114792859D01*
X123942859Y-115050731D01*
X123803300Y-115387657D01*
X120696700Y-115387657D01*
X120696700Y-114981611D01*
X121292271Y-114981611D01*
X121356200Y-115140825D01*
X121720887Y-115292578D01*
X122115886Y-115293220D01*
X122481064Y-115142653D01*
X122483800Y-115140825D01*
X122547729Y-114981611D01*
X121920000Y-114353882D01*
X121292271Y-114981611D01*
X120696700Y-114981611D01*
X120696700Y-114495886D01*
X120926780Y-114495886D01*
X121077347Y-114861064D01*
X121079175Y-114863800D01*
X121238389Y-114927729D01*
X121866118Y-114300000D01*
X121973882Y-114300000D01*
X122601611Y-114927729D01*
X122760825Y-114863800D01*
X122912578Y-114499113D01*
X122913220Y-114104114D01*
X122762653Y-113738936D01*
X122760825Y-113736200D01*
X122601611Y-113672271D01*
X121973882Y-114300000D01*
X121866118Y-114300000D01*
X121238389Y-113672271D01*
X121079175Y-113736200D01*
X120927422Y-114100887D01*
X120926780Y-114495886D01*
X120696700Y-114495886D01*
X120696700Y-113751622D01*
X120901623Y-113546700D01*
X121321056Y-113546700D01*
X121292271Y-113618389D01*
X121920000Y-114246118D01*
X122547729Y-113618389D01*
X122518944Y-113546700D01*
X123941795Y-113546700D01*
X123942859Y-113549269D01*
X124200731Y-113807141D01*
X124537657Y-113946700D01*
X124902343Y-113946700D01*
X125239269Y-113807141D01*
X125497141Y-113549269D01*
X125636700Y-113212343D01*
X125636700Y-112847657D01*
X125497141Y-112510731D01*
X125239269Y-112252859D01*
X124902343Y-112113300D01*
X124537657Y-112113300D01*
X124200731Y-112252859D01*
X123942859Y-112510731D01*
X123941795Y-112513300D01*
X122463110Y-112513300D01*
X122697141Y-112279269D01*
X122836700Y-111942343D01*
X122836700Y-111577657D01*
X122697141Y-111240731D01*
X122439269Y-110982859D01*
X122102343Y-110843300D01*
X121737657Y-110843300D01*
X121400731Y-110982859D01*
X121142859Y-111240731D01*
X121003300Y-111577657D01*
X121003300Y-111942343D01*
X121142859Y-112279269D01*
X121376890Y-112513300D01*
X120861623Y-112513300D01*
X120726700Y-112378378D01*
X120726700Y-110307657D01*
X123803300Y-110307657D01*
X123803300Y-110672343D01*
X123942859Y-111009269D01*
X124200731Y-111267141D01*
X124537657Y-111406700D01*
X124902343Y-111406700D01*
X125239269Y-111267141D01*
X125497141Y-111009269D01*
X125636700Y-110672343D01*
X125636700Y-110307657D01*
X125497141Y-109970731D01*
X125239269Y-109712859D01*
X124902343Y-109573300D01*
X124537657Y-109573300D01*
X124200731Y-109712859D01*
X123942859Y-109970731D01*
X123803300Y-110307657D01*
X120726700Y-110307657D01*
X120726700Y-109037657D01*
X121003300Y-109037657D01*
X121003300Y-109402343D01*
X121142859Y-109739269D01*
X121400731Y-109997141D01*
X121737657Y-110136700D01*
X122102343Y-110136700D01*
X122439269Y-109997141D01*
X122697141Y-109739269D01*
X122836700Y-109402343D01*
X122836700Y-109037657D01*
X122697141Y-108700731D01*
X122439269Y-108442859D01*
X122102343Y-108303300D01*
X121737657Y-108303300D01*
X121400731Y-108442859D01*
X121142859Y-108700731D01*
X121003300Y-109037657D01*
X120726700Y-109037657D01*
X120726700Y-107767657D01*
X123803300Y-107767657D01*
X123803300Y-108132343D01*
X123942859Y-108469269D01*
X124200731Y-108727141D01*
X124537657Y-108866700D01*
X124902343Y-108866700D01*
X125239269Y-108727141D01*
X125497141Y-108469269D01*
X125636700Y-108132343D01*
X125636700Y-107767657D01*
X125497141Y-107430731D01*
X125239269Y-107172859D01*
X124902343Y-107033300D01*
X124537657Y-107033300D01*
X124200731Y-107172859D01*
X123942859Y-107430731D01*
X123803300Y-107767657D01*
X120726700Y-107767657D01*
X120726700Y-106497657D01*
X121003300Y-106497657D01*
X121003300Y-106862343D01*
X121142859Y-107199269D01*
X121400731Y-107457141D01*
X121737657Y-107596700D01*
X122102343Y-107596700D01*
X122439269Y-107457141D01*
X122697141Y-107199269D01*
X122836700Y-106862343D01*
X122836700Y-106497657D01*
X122697141Y-106160731D01*
X122439269Y-105902859D01*
X122102343Y-105763300D01*
X121737657Y-105763300D01*
X121400731Y-105902859D01*
X121142859Y-106160731D01*
X121003300Y-106497657D01*
X120726700Y-106497657D01*
X120726700Y-105227657D01*
X123803300Y-105227657D01*
X123803300Y-105592343D01*
X123942859Y-105929269D01*
X124200731Y-106187141D01*
X124537657Y-106326700D01*
X124902343Y-106326700D01*
X125239269Y-106187141D01*
X125497141Y-105929269D01*
X125636700Y-105592343D01*
X125636700Y-105227657D01*
X125497141Y-104890731D01*
X125239269Y-104632859D01*
X124902343Y-104493300D01*
X124537657Y-104493300D01*
X124200731Y-104632859D01*
X123942859Y-104890731D01*
X123803300Y-105227657D01*
X120726700Y-105227657D01*
X120726700Y-103957657D01*
X121003300Y-103957657D01*
X121003300Y-104322343D01*
X121142859Y-104659269D01*
X121400731Y-104917141D01*
X121737657Y-105056700D01*
X122102343Y-105056700D01*
X122439269Y-104917141D01*
X122697141Y-104659269D01*
X122836700Y-104322343D01*
X122836700Y-103957657D01*
X122697141Y-103620731D01*
X122439269Y-103362859D01*
X122102343Y-103223300D01*
X121737657Y-103223300D01*
X121400731Y-103362859D01*
X121142859Y-103620731D01*
X121003300Y-103957657D01*
X120726700Y-103957657D01*
X120726700Y-102687657D01*
X123803300Y-102687657D01*
X123803300Y-103052343D01*
X123942859Y-103389269D01*
X124200731Y-103647141D01*
X124537657Y-103786700D01*
X124902343Y-103786700D01*
X125239269Y-103647141D01*
X125497141Y-103389269D01*
X125636700Y-103052343D01*
X125636700Y-102687657D01*
X125497141Y-102350731D01*
X125258741Y-102112331D01*
X134130300Y-102112331D01*
X134130300Y-102357669D01*
X134224187Y-102584333D01*
X134397667Y-102757813D01*
X134624331Y-102851700D01*
X134845109Y-102851700D01*
X135633301Y-103639893D01*
X135633300Y-106191554D01*
X135494187Y-106330667D01*
X135400300Y-106557331D01*
X135400300Y-106802669D01*
X135494187Y-107029333D01*
X135667667Y-107202813D01*
X135894331Y-107296700D01*
X136139669Y-107296700D01*
X136366333Y-107202813D01*
X136539813Y-107029333D01*
X136633700Y-106802669D01*
X136633700Y-106557331D01*
X136539813Y-106330667D01*
X136366700Y-106157554D01*
X136366700Y-105414331D01*
X145179300Y-105414331D01*
X145179300Y-105659669D01*
X145273187Y-105886333D01*
X145429300Y-106042446D01*
X145429301Y-116019880D01*
X145422116Y-116056000D01*
X145441633Y-116154114D01*
X145450577Y-116199079D01*
X145531625Y-116320376D01*
X145562244Y-116340835D01*
X151375165Y-122153757D01*
X151395624Y-122184376D01*
X151516921Y-122265424D01*
X151623883Y-122286700D01*
X151623887Y-122286700D01*
X151659999Y-122293883D01*
X151696111Y-122286700D01*
X155493663Y-122286700D01*
X155556859Y-122439269D01*
X155814731Y-122697141D01*
X156151657Y-122836700D01*
X156516343Y-122836700D01*
X156853269Y-122697141D01*
X157111141Y-122439269D01*
X157250700Y-122102343D01*
X157250700Y-121737657D01*
X157111141Y-121400731D01*
X156853269Y-121142859D01*
X156548694Y-121016700D01*
X158293663Y-121016700D01*
X158356859Y-121169269D01*
X158614731Y-121427141D01*
X158951657Y-121566700D01*
X159316343Y-121566700D01*
X159653269Y-121427141D01*
X159911141Y-121169269D01*
X160050700Y-120832343D01*
X160050700Y-120467657D01*
X159911141Y-120130731D01*
X159653269Y-119872859D01*
X159316343Y-119733300D01*
X158951657Y-119733300D01*
X158614731Y-119872859D01*
X158356859Y-120130731D01*
X158293663Y-120283300D01*
X156548694Y-120283300D01*
X156853269Y-120157141D01*
X157111141Y-119899269D01*
X157250700Y-119562343D01*
X157250700Y-119197657D01*
X157111141Y-118860731D01*
X156853269Y-118602859D01*
X156548694Y-118476700D01*
X158293663Y-118476700D01*
X158356859Y-118629269D01*
X158614731Y-118887141D01*
X158951657Y-119026700D01*
X159316343Y-119026700D01*
X159653269Y-118887141D01*
X159911141Y-118629269D01*
X160050700Y-118292343D01*
X160050700Y-117927657D01*
X159911141Y-117590731D01*
X159653269Y-117332859D01*
X159316343Y-117193300D01*
X158951657Y-117193300D01*
X158614731Y-117332859D01*
X158356859Y-117590731D01*
X158293663Y-117743300D01*
X156548694Y-117743300D01*
X156853269Y-117617141D01*
X157111141Y-117359269D01*
X157250700Y-117022343D01*
X157250700Y-116657657D01*
X157111141Y-116320731D01*
X156853269Y-116062859D01*
X156548694Y-115936700D01*
X158293663Y-115936700D01*
X158356859Y-116089269D01*
X158614731Y-116347141D01*
X158951657Y-116486700D01*
X159316343Y-116486700D01*
X159653269Y-116347141D01*
X159911141Y-116089269D01*
X160050700Y-115752343D01*
X160050700Y-115387657D01*
X159911141Y-115050731D01*
X159653269Y-114792859D01*
X159316343Y-114653300D01*
X158951657Y-114653300D01*
X158614731Y-114792859D01*
X158356859Y-115050731D01*
X158293663Y-115203300D01*
X156747974Y-115203300D01*
X156895064Y-115142653D01*
X156897800Y-115140825D01*
X156961729Y-114981611D01*
X156334000Y-114353882D01*
X155706271Y-114981611D01*
X155770200Y-115140825D01*
X155920338Y-115203300D01*
X154171892Y-115203300D01*
X153464478Y-114495886D01*
X155340780Y-114495886D01*
X155491347Y-114861064D01*
X155493175Y-114863800D01*
X155652389Y-114927729D01*
X156280118Y-114300000D01*
X156387882Y-114300000D01*
X157015611Y-114927729D01*
X157174825Y-114863800D01*
X157326578Y-114499113D01*
X157327220Y-114104114D01*
X157176653Y-113738936D01*
X157174825Y-113736200D01*
X157015611Y-113672271D01*
X156387882Y-114300000D01*
X156280118Y-114300000D01*
X155652389Y-113672271D01*
X155493175Y-113736200D01*
X155341422Y-114100887D01*
X155340780Y-114495886D01*
X153464478Y-114495886D01*
X152586981Y-113618389D01*
X155706271Y-113618389D01*
X156334000Y-114246118D01*
X156961729Y-113618389D01*
X156897800Y-113459175D01*
X156533113Y-113307422D01*
X156138114Y-113306780D01*
X155772936Y-113457347D01*
X155770200Y-113459175D01*
X155706271Y-113618389D01*
X152586981Y-113618389D01*
X152084835Y-113116244D01*
X152084833Y-113116241D01*
X152066700Y-113098108D01*
X152066700Y-112877331D01*
X151972813Y-112650667D01*
X151799333Y-112477187D01*
X151572669Y-112383300D01*
X151327331Y-112383300D01*
X151100667Y-112477187D01*
X150927187Y-112650667D01*
X150833300Y-112877331D01*
X150833300Y-113122669D01*
X150927187Y-113349333D01*
X151100667Y-113522813D01*
X151327331Y-113616700D01*
X151548108Y-113616700D01*
X151566241Y-113634833D01*
X151566244Y-113634835D01*
X153735165Y-115803757D01*
X153755624Y-115834376D01*
X153812838Y-115872605D01*
X153876920Y-115915424D01*
X154020000Y-115943884D01*
X154056117Y-115936700D01*
X156119306Y-115936700D01*
X155814731Y-116062859D01*
X155556859Y-116320731D01*
X155493663Y-116473300D01*
X153821892Y-116473300D01*
X150446700Y-113098109D01*
X150446700Y-112295446D01*
X150602813Y-112139333D01*
X150696700Y-111912669D01*
X150696700Y-111667331D01*
X150659556Y-111577657D01*
X155417300Y-111577657D01*
X155417300Y-111942343D01*
X155556859Y-112279269D01*
X155814731Y-112537141D01*
X156151657Y-112676700D01*
X156516343Y-112676700D01*
X156853269Y-112537141D01*
X157111141Y-112279269D01*
X157250700Y-111942343D01*
X157250700Y-111577657D01*
X157111141Y-111240731D01*
X156853269Y-110982859D01*
X156516343Y-110843300D01*
X156151657Y-110843300D01*
X155814731Y-110982859D01*
X155556859Y-111240731D01*
X155417300Y-111577657D01*
X150659556Y-111577657D01*
X150602813Y-111440667D01*
X150429333Y-111267187D01*
X150202669Y-111173300D01*
X149957331Y-111173300D01*
X149730667Y-111267187D01*
X149557187Y-111440667D01*
X149463300Y-111667331D01*
X149463300Y-111912669D01*
X149557187Y-112139333D01*
X149713300Y-112295446D01*
X149713300Y-112321090D01*
X149713301Y-112321095D01*
X149713300Y-113213884D01*
X149706116Y-113250000D01*
X149713300Y-113286115D01*
X149713300Y-113286116D01*
X149734576Y-113393078D01*
X149815624Y-113514376D01*
X149846246Y-113534837D01*
X153385165Y-117073757D01*
X153405624Y-117104376D01*
X153436242Y-117124834D01*
X153526920Y-117185424D01*
X153670000Y-117213884D01*
X153706117Y-117206700D01*
X155493663Y-117206700D01*
X155556859Y-117359269D01*
X155814731Y-117617141D01*
X156119306Y-117743300D01*
X153231892Y-117743300D01*
X149346700Y-113858109D01*
X149346700Y-111055446D01*
X149502813Y-110899333D01*
X149596700Y-110672669D01*
X149596700Y-110427331D01*
X149547130Y-110307657D01*
X158217300Y-110307657D01*
X158217300Y-110672343D01*
X158356859Y-111009269D01*
X158614731Y-111267141D01*
X158951657Y-111406700D01*
X159316343Y-111406700D01*
X159653269Y-111267141D01*
X159911141Y-111009269D01*
X160050700Y-110672343D01*
X160050700Y-110307657D01*
X159911141Y-109970731D01*
X159653269Y-109712859D01*
X159316343Y-109573300D01*
X158951657Y-109573300D01*
X158614731Y-109712859D01*
X158356859Y-109970731D01*
X158217300Y-110307657D01*
X149547130Y-110307657D01*
X149502813Y-110200667D01*
X149329333Y-110027187D01*
X149102669Y-109933300D01*
X148857331Y-109933300D01*
X148630667Y-110027187D01*
X148457187Y-110200667D01*
X148363300Y-110427331D01*
X148363300Y-110672669D01*
X148457187Y-110899333D01*
X148613300Y-111055446D01*
X148613300Y-111081090D01*
X148613301Y-111081095D01*
X148613300Y-113973885D01*
X148606116Y-114010000D01*
X148613300Y-114046115D01*
X148613300Y-114046116D01*
X148634576Y-114153078D01*
X148715624Y-114274376D01*
X148746246Y-114294837D01*
X152795165Y-118343757D01*
X152815624Y-118374376D01*
X152872838Y-118412605D01*
X152936920Y-118455424D01*
X153080000Y-118483884D01*
X153116117Y-118476700D01*
X156119306Y-118476700D01*
X155814731Y-118602859D01*
X155556859Y-118860731D01*
X155493663Y-119013300D01*
X152811892Y-119013300D01*
X148276700Y-114478109D01*
X148276700Y-109625446D01*
X148432813Y-109469333D01*
X148526700Y-109242669D01*
X148526700Y-109037657D01*
X155417300Y-109037657D01*
X155417300Y-109402343D01*
X155556859Y-109739269D01*
X155814731Y-109997141D01*
X156151657Y-110136700D01*
X156516343Y-110136700D01*
X156853269Y-109997141D01*
X157111141Y-109739269D01*
X157250700Y-109402343D01*
X157250700Y-109037657D01*
X157111141Y-108700731D01*
X156853269Y-108442859D01*
X156516343Y-108303300D01*
X156151657Y-108303300D01*
X155814731Y-108442859D01*
X155556859Y-108700731D01*
X155417300Y-109037657D01*
X148526700Y-109037657D01*
X148526700Y-108997331D01*
X148432813Y-108770667D01*
X148259333Y-108597187D01*
X148032669Y-108503300D01*
X147787331Y-108503300D01*
X147560667Y-108597187D01*
X147387187Y-108770667D01*
X147293300Y-108997331D01*
X147293300Y-109242669D01*
X147387187Y-109469333D01*
X147543300Y-109625446D01*
X147543300Y-109651090D01*
X147543301Y-109651095D01*
X147543300Y-114593885D01*
X147536116Y-114630000D01*
X147543300Y-114666115D01*
X147543300Y-114666116D01*
X147564576Y-114773078D01*
X147645624Y-114894376D01*
X147676246Y-114914837D01*
X152375165Y-119613757D01*
X152395624Y-119644376D01*
X152516921Y-119725424D01*
X152623883Y-119746700D01*
X152623887Y-119746700D01*
X152659999Y-119753883D01*
X152696111Y-119746700D01*
X155493663Y-119746700D01*
X155556859Y-119899269D01*
X155814731Y-120157141D01*
X156119306Y-120283300D01*
X152451892Y-120283300D01*
X147186700Y-115018109D01*
X147186700Y-108435446D01*
X147342813Y-108279333D01*
X147436700Y-108052669D01*
X147436700Y-107807331D01*
X147420267Y-107767657D01*
X158217300Y-107767657D01*
X158217300Y-108132343D01*
X158356859Y-108469269D01*
X158614731Y-108727141D01*
X158951657Y-108866700D01*
X159316343Y-108866700D01*
X159653269Y-108727141D01*
X159911141Y-108469269D01*
X160050700Y-108132343D01*
X160050700Y-107767657D01*
X159911141Y-107430731D01*
X159653269Y-107172859D01*
X159316343Y-107033300D01*
X158951657Y-107033300D01*
X158614731Y-107172859D01*
X158356859Y-107430731D01*
X158217300Y-107767657D01*
X147420267Y-107767657D01*
X147342813Y-107580667D01*
X147169333Y-107407187D01*
X146942669Y-107313300D01*
X146697331Y-107313300D01*
X146470667Y-107407187D01*
X146297187Y-107580667D01*
X146203300Y-107807331D01*
X146203300Y-108052669D01*
X146297187Y-108279333D01*
X146453300Y-108435446D01*
X146453300Y-108461090D01*
X146453301Y-108461095D01*
X146453300Y-115133885D01*
X146446116Y-115170000D01*
X146453300Y-115206115D01*
X146453300Y-115206116D01*
X146474576Y-115313078D01*
X146555624Y-115434376D01*
X146586246Y-115454837D01*
X152015165Y-120883757D01*
X152035624Y-120914376D01*
X152156921Y-120995424D01*
X152263883Y-121016700D01*
X152263887Y-121016700D01*
X152299999Y-121023883D01*
X152336111Y-121016700D01*
X156119306Y-121016700D01*
X155814731Y-121142859D01*
X155556859Y-121400731D01*
X155493663Y-121553300D01*
X151811892Y-121553300D01*
X146162700Y-115904109D01*
X146162700Y-106497657D01*
X155417300Y-106497657D01*
X155417300Y-106862343D01*
X155556859Y-107199269D01*
X155814731Y-107457141D01*
X156151657Y-107596700D01*
X156516343Y-107596700D01*
X156853269Y-107457141D01*
X157111141Y-107199269D01*
X157250700Y-106862343D01*
X157250700Y-106497657D01*
X157111141Y-106160731D01*
X156853269Y-105902859D01*
X156516343Y-105763300D01*
X156151657Y-105763300D01*
X155814731Y-105902859D01*
X155556859Y-106160731D01*
X155417300Y-106497657D01*
X146162700Y-106497657D01*
X146162700Y-106042446D01*
X146318813Y-105886333D01*
X146412700Y-105659669D01*
X146412700Y-105414331D01*
X146335378Y-105227657D01*
X158217300Y-105227657D01*
X158217300Y-105592343D01*
X158356859Y-105929269D01*
X158614731Y-106187141D01*
X158951657Y-106326700D01*
X159316343Y-106326700D01*
X159653269Y-106187141D01*
X159911141Y-105929269D01*
X160050700Y-105592343D01*
X160050700Y-105227657D01*
X159911141Y-104890731D01*
X159653269Y-104632859D01*
X159316343Y-104493300D01*
X158951657Y-104493300D01*
X158614731Y-104632859D01*
X158356859Y-104890731D01*
X158217300Y-105227657D01*
X146335378Y-105227657D01*
X146318813Y-105187667D01*
X146145333Y-105014187D01*
X145918669Y-104920300D01*
X145673331Y-104920300D01*
X145446667Y-105014187D01*
X145273187Y-105187667D01*
X145179300Y-105414331D01*
X136366700Y-105414331D01*
X136366700Y-103957657D01*
X155417300Y-103957657D01*
X155417300Y-104322343D01*
X155556859Y-104659269D01*
X155814731Y-104917141D01*
X156151657Y-105056700D01*
X156516343Y-105056700D01*
X156853269Y-104917141D01*
X157111141Y-104659269D01*
X157250700Y-104322343D01*
X157250700Y-103957657D01*
X157111141Y-103620731D01*
X156853269Y-103362859D01*
X156516343Y-103223300D01*
X156151657Y-103223300D01*
X155814731Y-103362859D01*
X155556859Y-103620731D01*
X155417300Y-103957657D01*
X136366700Y-103957657D01*
X136366700Y-103524117D01*
X136373884Y-103488000D01*
X136345424Y-103344920D01*
X136284834Y-103254242D01*
X136264376Y-103223624D01*
X136233757Y-103203165D01*
X135718249Y-102687657D01*
X158217300Y-102687657D01*
X158217300Y-103052343D01*
X158356859Y-103389269D01*
X158614731Y-103647141D01*
X158951657Y-103786700D01*
X159316343Y-103786700D01*
X159653269Y-103647141D01*
X159911141Y-103389269D01*
X160050700Y-103052343D01*
X160050700Y-102687657D01*
X159911141Y-102350731D01*
X159653269Y-102092859D01*
X159316343Y-101953300D01*
X158951657Y-101953300D01*
X158614731Y-102092859D01*
X158356859Y-102350731D01*
X158217300Y-102687657D01*
X135718249Y-102687657D01*
X135363700Y-102333109D01*
X135363700Y-102112331D01*
X135269813Y-101885667D01*
X135096333Y-101712187D01*
X134869669Y-101618300D01*
X134624331Y-101618300D01*
X134397667Y-101712187D01*
X134224187Y-101885667D01*
X134130300Y-102112331D01*
X125258741Y-102112331D01*
X125239269Y-102092859D01*
X124902343Y-101953300D01*
X124537657Y-101953300D01*
X124200731Y-102092859D01*
X123942859Y-102350731D01*
X123803300Y-102687657D01*
X120726700Y-102687657D01*
X120726700Y-101417657D01*
X121003300Y-101417657D01*
X121003300Y-101782343D01*
X121142859Y-102119269D01*
X121400731Y-102377141D01*
X121737657Y-102516700D01*
X122102343Y-102516700D01*
X122439269Y-102377141D01*
X122697141Y-102119269D01*
X122836700Y-101782343D01*
X122836700Y-101417657D01*
X155417300Y-101417657D01*
X155417300Y-101782343D01*
X155556859Y-102119269D01*
X155814731Y-102377141D01*
X156151657Y-102516700D01*
X156516343Y-102516700D01*
X156853269Y-102377141D01*
X157111141Y-102119269D01*
X157250700Y-101782343D01*
X157250700Y-101417657D01*
X157111141Y-101080731D01*
X156853269Y-100822859D01*
X156516343Y-100683300D01*
X156151657Y-100683300D01*
X155814731Y-100822859D01*
X155556859Y-101080731D01*
X155417300Y-101417657D01*
X122836700Y-101417657D01*
X122697141Y-101080731D01*
X122439269Y-100822859D01*
X122102343Y-100683300D01*
X121737657Y-100683300D01*
X121400731Y-100822859D01*
X121142859Y-101080731D01*
X121003300Y-101417657D01*
X120726700Y-101417657D01*
X120726700Y-100147657D01*
X123803300Y-100147657D01*
X123803300Y-100512343D01*
X123942859Y-100849269D01*
X124200731Y-101107141D01*
X124537657Y-101246700D01*
X124902343Y-101246700D01*
X125239269Y-101107141D01*
X125497141Y-100849269D01*
X125636700Y-100512343D01*
X125636700Y-100147657D01*
X158217300Y-100147657D01*
X158217300Y-100512343D01*
X158356859Y-100849269D01*
X158614731Y-101107141D01*
X158951657Y-101246700D01*
X159316343Y-101246700D01*
X159653269Y-101107141D01*
X159911141Y-100849269D01*
X160050700Y-100512343D01*
X160050700Y-100147657D01*
X159911141Y-99810731D01*
X159653269Y-99552859D01*
X159316343Y-99413300D01*
X158951657Y-99413300D01*
X158614731Y-99552859D01*
X158356859Y-99810731D01*
X158217300Y-100147657D01*
X125636700Y-100147657D01*
X125497141Y-99810731D01*
X125239269Y-99552859D01*
X124902343Y-99413300D01*
X124537657Y-99413300D01*
X124200731Y-99552859D01*
X123942859Y-99810731D01*
X123803300Y-100147657D01*
X120726700Y-100147657D01*
X120726700Y-98877657D01*
X121003300Y-98877657D01*
X121003300Y-99242343D01*
X121142859Y-99579269D01*
X121400731Y-99837141D01*
X121737657Y-99976700D01*
X122102343Y-99976700D01*
X122439269Y-99837141D01*
X122697141Y-99579269D01*
X122836700Y-99242343D01*
X122836700Y-98877657D01*
X122697141Y-98540731D01*
X122439269Y-98282859D01*
X122102343Y-98143300D01*
X121737657Y-98143300D01*
X121400731Y-98282859D01*
X121142859Y-98540731D01*
X121003300Y-98877657D01*
X120726700Y-98877657D01*
X120726700Y-97607657D01*
X123803300Y-97607657D01*
X123803300Y-97972343D01*
X123942859Y-98309269D01*
X124200731Y-98567141D01*
X124537657Y-98706700D01*
X124902343Y-98706700D01*
X125239269Y-98567141D01*
X125497141Y-98309269D01*
X125509751Y-98278825D01*
X129207100Y-98278825D01*
X129207100Y-98723207D01*
X129259303Y-98849237D01*
X129355763Y-98945697D01*
X129481793Y-98997900D01*
X130051175Y-98997900D01*
X130136900Y-98912175D01*
X130136900Y-98193100D01*
X130213100Y-98193100D01*
X130213100Y-98912175D01*
X130298825Y-98997900D01*
X130868207Y-98997900D01*
X130994237Y-98945697D01*
X131090697Y-98849237D01*
X131142900Y-98723207D01*
X131142900Y-98278825D01*
X140002100Y-98278825D01*
X140002100Y-98723207D01*
X140054303Y-98849237D01*
X140150763Y-98945697D01*
X140276793Y-98997900D01*
X140846175Y-98997900D01*
X140931900Y-98912175D01*
X140931900Y-98193100D01*
X141008100Y-98193100D01*
X141008100Y-98912175D01*
X141093825Y-98997900D01*
X141663207Y-98997900D01*
X141789237Y-98945697D01*
X141857277Y-98877657D01*
X155417300Y-98877657D01*
X155417300Y-99242343D01*
X155556859Y-99579269D01*
X155814731Y-99837141D01*
X156151657Y-99976700D01*
X156516343Y-99976700D01*
X156853269Y-99837141D01*
X157111141Y-99579269D01*
X157250700Y-99242343D01*
X157250700Y-98877657D01*
X157111141Y-98540731D01*
X156853269Y-98282859D01*
X156516343Y-98143300D01*
X156151657Y-98143300D01*
X155814731Y-98282859D01*
X155556859Y-98540731D01*
X155417300Y-98877657D01*
X141857277Y-98877657D01*
X141885697Y-98849237D01*
X141937900Y-98723207D01*
X141937900Y-98278825D01*
X141852175Y-98193100D01*
X141008100Y-98193100D01*
X140931900Y-98193100D01*
X140087825Y-98193100D01*
X140002100Y-98278825D01*
X131142900Y-98278825D01*
X131057175Y-98193100D01*
X130213100Y-98193100D01*
X130136900Y-98193100D01*
X129292825Y-98193100D01*
X129207100Y-98278825D01*
X125509751Y-98278825D01*
X125636700Y-97972343D01*
X125636700Y-97607657D01*
X125628058Y-97586793D01*
X129207100Y-97586793D01*
X129207100Y-98031175D01*
X129292825Y-98116900D01*
X130136900Y-98116900D01*
X130136900Y-97397825D01*
X130213100Y-97397825D01*
X130213100Y-98116900D01*
X131057175Y-98116900D01*
X131142900Y-98031175D01*
X131142900Y-97586793D01*
X140002100Y-97586793D01*
X140002100Y-98031175D01*
X140087825Y-98116900D01*
X140931900Y-98116900D01*
X140931900Y-97397825D01*
X141008100Y-97397825D01*
X141008100Y-98116900D01*
X141852175Y-98116900D01*
X141937900Y-98031175D01*
X141937900Y-97607657D01*
X158217300Y-97607657D01*
X158217300Y-97972343D01*
X158356859Y-98309269D01*
X158614731Y-98567141D01*
X158951657Y-98706700D01*
X159316343Y-98706700D01*
X159653269Y-98567141D01*
X159911141Y-98309269D01*
X160050700Y-97972343D01*
X160050700Y-97607657D01*
X159911141Y-97270731D01*
X159653269Y-97012859D01*
X159316343Y-96873300D01*
X158951657Y-96873300D01*
X158614731Y-97012859D01*
X158356859Y-97270731D01*
X158217300Y-97607657D01*
X141937900Y-97607657D01*
X141937900Y-97586793D01*
X141885697Y-97460763D01*
X141789237Y-97364303D01*
X141663207Y-97312100D01*
X141093825Y-97312100D01*
X141008100Y-97397825D01*
X140931900Y-97397825D01*
X140846175Y-97312100D01*
X140276793Y-97312100D01*
X140150763Y-97364303D01*
X140054303Y-97460763D01*
X140002100Y-97586793D01*
X131142900Y-97586793D01*
X131090697Y-97460763D01*
X130994237Y-97364303D01*
X130868207Y-97312100D01*
X130298825Y-97312100D01*
X130213100Y-97397825D01*
X130136900Y-97397825D01*
X130051175Y-97312100D01*
X129481793Y-97312100D01*
X129355763Y-97364303D01*
X129259303Y-97460763D01*
X129207100Y-97586793D01*
X125628058Y-97586793D01*
X125497141Y-97270731D01*
X125239269Y-97012859D01*
X124902343Y-96873300D01*
X124537657Y-96873300D01*
X124200731Y-97012859D01*
X123942859Y-97270731D01*
X123803300Y-97607657D01*
X120726700Y-97607657D01*
X120726700Y-95991622D01*
X120951623Y-95766700D01*
X121376890Y-95766700D01*
X121142859Y-96000731D01*
X121003300Y-96337657D01*
X121003300Y-96702343D01*
X121142859Y-97039269D01*
X121400731Y-97297141D01*
X121737657Y-97436700D01*
X122102343Y-97436700D01*
X122439269Y-97297141D01*
X122697141Y-97039269D01*
X122836700Y-96702343D01*
X122836700Y-96337657D01*
X122697141Y-96000731D01*
X122463110Y-95766700D01*
X123941795Y-95766700D01*
X123942859Y-95769269D01*
X124200731Y-96027141D01*
X124537657Y-96166700D01*
X124902343Y-96166700D01*
X125239269Y-96027141D01*
X125497141Y-95769269D01*
X125498205Y-95766700D01*
X129042249Y-95766700D01*
X129083620Y-95794343D01*
X129278076Y-95988799D01*
X129278076Y-96655000D01*
X129298775Y-96759061D01*
X129357721Y-96847279D01*
X129445939Y-96906225D01*
X129550000Y-96926924D01*
X130800000Y-96926924D01*
X130904061Y-96906225D01*
X130992279Y-96847279D01*
X131051225Y-96759061D01*
X131071924Y-96655000D01*
X131071924Y-95655000D01*
X131051225Y-95550939D01*
X130992279Y-95462721D01*
X130904061Y-95403775D01*
X130800000Y-95383076D01*
X130133799Y-95383076D01*
X130029700Y-95278977D01*
X130029700Y-95127331D01*
X129935813Y-94900667D01*
X129762333Y-94727187D01*
X129535669Y-94633300D01*
X129290331Y-94633300D01*
X129063667Y-94727187D01*
X129057554Y-94733300D01*
X125498205Y-94733300D01*
X125497141Y-94730731D01*
X125239269Y-94472859D01*
X124902343Y-94333300D01*
X124537657Y-94333300D01*
X124200731Y-94472859D01*
X123942859Y-94730731D01*
X123941795Y-94733300D01*
X122463110Y-94733300D01*
X122697141Y-94499269D01*
X122836700Y-94162343D01*
X122836700Y-93797657D01*
X122697141Y-93460731D01*
X122439269Y-93202859D01*
X122102343Y-93063300D01*
X121737657Y-93063300D01*
X121400731Y-93202859D01*
X121142859Y-93460731D01*
X121003300Y-93797657D01*
X121003300Y-94162343D01*
X121142859Y-94499269D01*
X121376890Y-94733300D01*
X120811623Y-94733300D01*
X120696700Y-94618378D01*
X120696700Y-92527657D01*
X123803300Y-92527657D01*
X123803300Y-92892343D01*
X123942859Y-93229269D01*
X124200731Y-93487141D01*
X124537657Y-93626700D01*
X124902343Y-93626700D01*
X125239269Y-93487141D01*
X125497141Y-93229269D01*
X125636700Y-92892343D01*
X125636700Y-92527657D01*
X125497141Y-92190731D01*
X125239269Y-91932859D01*
X124902343Y-91793300D01*
X124537657Y-91793300D01*
X124200731Y-91932859D01*
X123942859Y-92190731D01*
X123803300Y-92527657D01*
X120696700Y-92527657D01*
X120696700Y-91257657D01*
X121003300Y-91257657D01*
X121003300Y-91622343D01*
X121142859Y-91959269D01*
X121400731Y-92217141D01*
X121737657Y-92356700D01*
X122102343Y-92356700D01*
X122439269Y-92217141D01*
X122697141Y-91959269D01*
X122836700Y-91622343D01*
X122836700Y-91293825D01*
X128572100Y-91293825D01*
X128572100Y-91738207D01*
X128624303Y-91864237D01*
X128720763Y-91960697D01*
X128846793Y-92012900D01*
X129416175Y-92012900D01*
X129501900Y-91927175D01*
X129501900Y-91208100D01*
X129578100Y-91208100D01*
X129578100Y-91927175D01*
X129663825Y-92012900D01*
X130233207Y-92012900D01*
X130359237Y-91960697D01*
X130455697Y-91864237D01*
X130507900Y-91738207D01*
X130507900Y-91293825D01*
X130422175Y-91208100D01*
X129578100Y-91208100D01*
X129501900Y-91208100D01*
X128657825Y-91208100D01*
X128572100Y-91293825D01*
X122836700Y-91293825D01*
X122836700Y-91257657D01*
X122697141Y-90920731D01*
X122439269Y-90662859D01*
X122102343Y-90523300D01*
X121737657Y-90523300D01*
X121400731Y-90662859D01*
X121142859Y-90920731D01*
X121003300Y-91257657D01*
X120696700Y-91257657D01*
X120696700Y-88407423D01*
X121004364Y-88715088D01*
X121003300Y-88717657D01*
X121003300Y-89082343D01*
X121142859Y-89419269D01*
X121400731Y-89677141D01*
X121737657Y-89816700D01*
X122102343Y-89816700D01*
X122439269Y-89677141D01*
X122697141Y-89419269D01*
X122698205Y-89416700D01*
X124176890Y-89416700D01*
X123942859Y-89650731D01*
X123803300Y-89987657D01*
X123803300Y-90352343D01*
X123942859Y-90689269D01*
X124200731Y-90947141D01*
X124537657Y-91086700D01*
X124902343Y-91086700D01*
X125239269Y-90947141D01*
X125497141Y-90689269D01*
X125533374Y-90601793D01*
X128572100Y-90601793D01*
X128572100Y-91046175D01*
X128657825Y-91131900D01*
X129501900Y-91131900D01*
X129501900Y-90412825D01*
X129578100Y-90412825D01*
X129578100Y-91131900D01*
X130422175Y-91131900D01*
X130507900Y-91046175D01*
X130507900Y-90601793D01*
X130455697Y-90475763D01*
X130359237Y-90379303D01*
X130233207Y-90327100D01*
X129663825Y-90327100D01*
X129578100Y-90412825D01*
X129501900Y-90412825D01*
X129416175Y-90327100D01*
X128846793Y-90327100D01*
X128720763Y-90379303D01*
X128624303Y-90475763D01*
X128572100Y-90601793D01*
X125533374Y-90601793D01*
X125636700Y-90352343D01*
X125636700Y-89987657D01*
X125497141Y-89650731D01*
X125263110Y-89416700D01*
X128643076Y-89416700D01*
X128643076Y-89670000D01*
X128663775Y-89774061D01*
X128722721Y-89862279D01*
X128810939Y-89921225D01*
X128915000Y-89941924D01*
X130165000Y-89941924D01*
X130269061Y-89921225D01*
X130357279Y-89862279D01*
X130416225Y-89774061D01*
X130436924Y-89670000D01*
X130436924Y-88670000D01*
X130416225Y-88565939D01*
X130357279Y-88477721D01*
X130269061Y-88418775D01*
X130165000Y-88398076D01*
X130156700Y-88398076D01*
X130156700Y-88396331D01*
X130062813Y-88169667D01*
X129889333Y-87996187D01*
X129662669Y-87902300D01*
X129417331Y-87902300D01*
X129190667Y-87996187D01*
X129017187Y-88169667D01*
X128928698Y-88383300D01*
X125318944Y-88383300D01*
X125347729Y-88311611D01*
X124720000Y-87683882D01*
X124092271Y-88311611D01*
X124121056Y-88383300D01*
X122698205Y-88383300D01*
X122697141Y-88380731D01*
X122439269Y-88122859D01*
X122102343Y-87983300D01*
X121737657Y-87983300D01*
X121735088Y-87984364D01*
X121576610Y-87825886D01*
X123726780Y-87825886D01*
X123877347Y-88191064D01*
X123879175Y-88193800D01*
X124038389Y-88257729D01*
X124666118Y-87630000D01*
X124773882Y-87630000D01*
X125401611Y-88257729D01*
X125560825Y-88193800D01*
X125712578Y-87829113D01*
X125713220Y-87434114D01*
X125562653Y-87068936D01*
X125560825Y-87066200D01*
X125401611Y-87002271D01*
X124773882Y-87630000D01*
X124666118Y-87630000D01*
X124038389Y-87002271D01*
X123879175Y-87066200D01*
X123727422Y-87430887D01*
X123726780Y-87825886D01*
X121576610Y-87825886D01*
X121068945Y-87318222D01*
X121068943Y-87318219D01*
X121068941Y-87318217D01*
X121040118Y-87275080D01*
X120996981Y-87246257D01*
X120696700Y-86945977D01*
X120696700Y-86177657D01*
X121003300Y-86177657D01*
X121003300Y-86542343D01*
X121142859Y-86879269D01*
X121400731Y-87137141D01*
X121737657Y-87276700D01*
X122102343Y-87276700D01*
X122439269Y-87137141D01*
X122628021Y-86948389D01*
X124092271Y-86948389D01*
X124720000Y-87576118D01*
X125347729Y-86948389D01*
X125283800Y-86789175D01*
X124919113Y-86637422D01*
X124524114Y-86636780D01*
X124158936Y-86787347D01*
X124156200Y-86789175D01*
X124092271Y-86948389D01*
X122628021Y-86948389D01*
X122697141Y-86879269D01*
X122836700Y-86542343D01*
X122836700Y-86177657D01*
X122697141Y-85840731D01*
X122439269Y-85582859D01*
X122102343Y-85443300D01*
X121737657Y-85443300D01*
X121400731Y-85582859D01*
X121142859Y-85840731D01*
X121003300Y-86177657D01*
X120696700Y-86177657D01*
X120696700Y-84907657D01*
X123803300Y-84907657D01*
X123803300Y-85272343D01*
X123942859Y-85609269D01*
X124200731Y-85867141D01*
X124537657Y-86006700D01*
X124902343Y-86006700D01*
X125239269Y-85867141D01*
X125497141Y-85609269D01*
X125636700Y-85272343D01*
X125636700Y-84907657D01*
X125497141Y-84570731D01*
X125239269Y-84312859D01*
X124902343Y-84173300D01*
X124537657Y-84173300D01*
X124200731Y-84312859D01*
X123942859Y-84570731D01*
X123803300Y-84907657D01*
X120696700Y-84907657D01*
X120696700Y-83637657D01*
X121003300Y-83637657D01*
X121003300Y-84002343D01*
X121142859Y-84339269D01*
X121400731Y-84597141D01*
X121737657Y-84736700D01*
X122102343Y-84736700D01*
X122439269Y-84597141D01*
X122697141Y-84339269D01*
X122836700Y-84002343D01*
X122836700Y-83637657D01*
X122697141Y-83300731D01*
X122439269Y-83042859D01*
X122102343Y-82903300D01*
X121737657Y-82903300D01*
X121400731Y-83042859D01*
X121142859Y-83300731D01*
X121003300Y-83637657D01*
X120696700Y-83637657D01*
X120696700Y-82367657D01*
X123803300Y-82367657D01*
X123803300Y-82732343D01*
X123942859Y-83069269D01*
X124200731Y-83327141D01*
X124537657Y-83466700D01*
X124902343Y-83466700D01*
X125239269Y-83327141D01*
X125497141Y-83069269D01*
X125636700Y-82732343D01*
X125636700Y-82367657D01*
X125497141Y-82030731D01*
X125239269Y-81772859D01*
X124902343Y-81633300D01*
X124537657Y-81633300D01*
X124200731Y-81772859D01*
X123942859Y-82030731D01*
X123803300Y-82367657D01*
X120696700Y-82367657D01*
X120696700Y-81961611D01*
X121292271Y-81961611D01*
X121356200Y-82120825D01*
X121720887Y-82272578D01*
X122115886Y-82273220D01*
X122481064Y-82122653D01*
X122483800Y-82120825D01*
X122547729Y-81961611D01*
X121920000Y-81333882D01*
X121292271Y-81961611D01*
X120696700Y-81961611D01*
X120696700Y-81475886D01*
X120926780Y-81475886D01*
X121077347Y-81841064D01*
X121079175Y-81843800D01*
X121238389Y-81907729D01*
X121866118Y-81280000D01*
X121973882Y-81280000D01*
X122601611Y-81907729D01*
X122760825Y-81843800D01*
X122912578Y-81479113D01*
X122913220Y-81084114D01*
X122762653Y-80718936D01*
X122760825Y-80716200D01*
X122601611Y-80652271D01*
X121973882Y-81280000D01*
X121866118Y-81280000D01*
X121238389Y-80652271D01*
X121079175Y-80716200D01*
X120927422Y-81080887D01*
X120926780Y-81475886D01*
X120696700Y-81475886D01*
X120696700Y-80598389D01*
X121292271Y-80598389D01*
X121920000Y-81226118D01*
X122547729Y-80598389D01*
X122483800Y-80439175D01*
X122119113Y-80287422D01*
X121724114Y-80286780D01*
X121358936Y-80437347D01*
X121356200Y-80439175D01*
X121292271Y-80598389D01*
X120696700Y-80598389D01*
X120696700Y-79827657D01*
X123803300Y-79827657D01*
X123803300Y-80192343D01*
X123942859Y-80529269D01*
X124200731Y-80787141D01*
X124537657Y-80926700D01*
X124902343Y-80926700D01*
X125239269Y-80787141D01*
X125497141Y-80529269D01*
X125636700Y-80192343D01*
X125636700Y-79827657D01*
X125497141Y-79490731D01*
X125239269Y-79232859D01*
X124902343Y-79093300D01*
X124537657Y-79093300D01*
X124200731Y-79232859D01*
X123942859Y-79490731D01*
X123803300Y-79827657D01*
X120696700Y-79827657D01*
X120696700Y-78557657D01*
X121003300Y-78557657D01*
X121003300Y-78922343D01*
X121142859Y-79259269D01*
X121400731Y-79517141D01*
X121737657Y-79656700D01*
X122102343Y-79656700D01*
X122439269Y-79517141D01*
X122697141Y-79259269D01*
X122836700Y-78922343D01*
X122836700Y-78557657D01*
X122697141Y-78220731D01*
X122439269Y-77962859D01*
X122102343Y-77823300D01*
X121737657Y-77823300D01*
X121400731Y-77962859D01*
X121142859Y-78220731D01*
X121003300Y-78557657D01*
X120696700Y-78557657D01*
X120696700Y-77287657D01*
X123803300Y-77287657D01*
X123803300Y-77652343D01*
X123942859Y-77989269D01*
X124200731Y-78247141D01*
X124537657Y-78386700D01*
X124902343Y-78386700D01*
X125239269Y-78247141D01*
X125497141Y-77989269D01*
X125636700Y-77652343D01*
X125636700Y-77287657D01*
X125497141Y-76950731D01*
X125239269Y-76692859D01*
X124902343Y-76553300D01*
X124537657Y-76553300D01*
X124200731Y-76692859D01*
X123942859Y-76950731D01*
X123803300Y-77287657D01*
X120696700Y-77287657D01*
X120696700Y-76017657D01*
X121003300Y-76017657D01*
X121003300Y-76382343D01*
X121142859Y-76719269D01*
X121400731Y-76977141D01*
X121737657Y-77116700D01*
X122102343Y-77116700D01*
X122439269Y-76977141D01*
X122697141Y-76719269D01*
X122836700Y-76382343D01*
X122836700Y-76017657D01*
X122697141Y-75680731D01*
X122439269Y-75422859D01*
X122102343Y-75283300D01*
X121737657Y-75283300D01*
X121400731Y-75422859D01*
X121142859Y-75680731D01*
X121003300Y-76017657D01*
X120696700Y-76017657D01*
X120696700Y-76004023D01*
X121734024Y-74966700D01*
X142993301Y-74966700D01*
X142993300Y-80670554D01*
G04 #@! TD*
M02*
