G04 #@! TF.GenerationSoftware,KiCad,Pcbnew,(5.0.1-3-g963ef8bb5)*
G04 #@! TF.CreationDate,2019-05-18T06:30:10-07:00*
G04 #@! TF.ProjectId,oakram,6F616B72616D2E6B696361645F706362,3.0*
G04 #@! TF.SameCoordinates,Original*
G04 #@! TF.FileFunction,Legend,Bot*
G04 #@! TF.FilePolarity,Positive*
%FSLAX46Y46*%
G04 Gerber Fmt 4.6, Leading zero omitted, Abs format (unit mm)*
G04 Created by KiCad (PCBNEW (5.0.1-3-g963ef8bb5)) date Saturday, May 18, 2019 at 06:30:10 AM*
%MOMM*%
%LPD*%
G01*
G04 APERTURE LIST*
%ADD10C,0.120000*%
%ADD11C,0.150000*%
G04 APERTURE END LIST*
D10*
G04 #@! TO.C,C2*
X129325000Y-97655000D02*
X129325000Y-96655000D01*
X131025000Y-96655000D02*
X131025000Y-97655000D01*
G04 #@! TO.C,C4*
X140120000Y-97655000D02*
X140120000Y-96655000D01*
X141820000Y-96655000D02*
X141820000Y-97655000D01*
G04 #@! TO.C,C5*
X131152000Y-90305000D02*
X131152000Y-91305000D01*
X129452000Y-91305000D02*
X129452000Y-90305000D01*
G04 #@! TO.C,C2*
D11*
X129032142Y-96988333D02*
X129079761Y-96940714D01*
X129127380Y-96797857D01*
X129127380Y-96702619D01*
X129079761Y-96559761D01*
X128984523Y-96464523D01*
X128889285Y-96416904D01*
X128698809Y-96369285D01*
X128555952Y-96369285D01*
X128365476Y-96416904D01*
X128270238Y-96464523D01*
X128175000Y-96559761D01*
X128127380Y-96702619D01*
X128127380Y-96797857D01*
X128175000Y-96940714D01*
X128222619Y-96988333D01*
X128222619Y-97369285D02*
X128175000Y-97416904D01*
X128127380Y-97512142D01*
X128127380Y-97750238D01*
X128175000Y-97845476D01*
X128222619Y-97893095D01*
X128317857Y-97940714D01*
X128413095Y-97940714D01*
X128555952Y-97893095D01*
X129127380Y-97321666D01*
X129127380Y-97940714D01*
G04 #@! TO.C,C4*
X139827142Y-96988333D02*
X139874761Y-96940714D01*
X139922380Y-96797857D01*
X139922380Y-96702619D01*
X139874761Y-96559761D01*
X139779523Y-96464523D01*
X139684285Y-96416904D01*
X139493809Y-96369285D01*
X139350952Y-96369285D01*
X139160476Y-96416904D01*
X139065238Y-96464523D01*
X138970000Y-96559761D01*
X138922380Y-96702619D01*
X138922380Y-96797857D01*
X138970000Y-96940714D01*
X139017619Y-96988333D01*
X139255714Y-97845476D02*
X139922380Y-97845476D01*
X138874761Y-97607380D02*
X139589047Y-97369285D01*
X139589047Y-97988333D01*
G04 #@! TO.C,C5*
X129159142Y-90638333D02*
X129206761Y-90590714D01*
X129254380Y-90447857D01*
X129254380Y-90352619D01*
X129206761Y-90209761D01*
X129111523Y-90114523D01*
X129016285Y-90066904D01*
X128825809Y-90019285D01*
X128682952Y-90019285D01*
X128492476Y-90066904D01*
X128397238Y-90114523D01*
X128302000Y-90209761D01*
X128254380Y-90352619D01*
X128254380Y-90447857D01*
X128302000Y-90590714D01*
X128349619Y-90638333D01*
X128254380Y-91543095D02*
X128254380Y-91066904D01*
X128730571Y-91019285D01*
X128682952Y-91066904D01*
X128635333Y-91162142D01*
X128635333Y-91400238D01*
X128682952Y-91495476D01*
X128730571Y-91543095D01*
X128825809Y-91590714D01*
X129063904Y-91590714D01*
X129159142Y-91543095D01*
X129206761Y-91495476D01*
X129254380Y-91400238D01*
X129254380Y-91162142D01*
X129206761Y-91066904D01*
X129159142Y-91019285D01*
G04 #@! TD*
M02*
