G04 #@! TF.GenerationSoftware,KiCad,Pcbnew,(5.0.1-3-g963ef8bb5)*
G04 #@! TF.CreationDate,2019-05-17T23:13:26-07:00*
G04 #@! TF.ProjectId,oakram,6F616B72616D2E6B696361645F706362,rev?*
G04 #@! TF.SameCoordinates,Original*
G04 #@! TF.FileFunction,Legend,Bot*
G04 #@! TF.FilePolarity,Positive*
%FSLAX46Y46*%
G04 Gerber Fmt 4.6, Leading zero omitted, Abs format (unit mm)*
G04 Created by KiCad (PCBNEW (5.0.1-3-g963ef8bb5)) date Friday, May 17, 2019 at 11:13:26 PM*
%MOMM*%
%LPD*%
G01*
G04 APERTURE LIST*
%ADD10C,0.120000*%
%ADD11C,0.150000*%
G04 APERTURE END LIST*
D10*
G04 #@! TO.C,C2*
X129325000Y-97655000D02*
X129325000Y-96655000D01*
X131025000Y-96655000D02*
X131025000Y-97655000D01*
G04 #@! TO.C,C4*
X140120000Y-97655000D02*
X140120000Y-96655000D01*
X141820000Y-96655000D02*
X141820000Y-97655000D01*
G04 #@! TO.C,C5*
X130390000Y-89670000D02*
X130390000Y-90670000D01*
X128690000Y-90670000D02*
X128690000Y-89670000D01*
G04 #@! TO.C,C2*
D11*
X129032142Y-96988333D02*
X129079761Y-96940714D01*
X129127380Y-96797857D01*
X129127380Y-96702619D01*
X129079761Y-96559761D01*
X128984523Y-96464523D01*
X128889285Y-96416904D01*
X128698809Y-96369285D01*
X128555952Y-96369285D01*
X128365476Y-96416904D01*
X128270238Y-96464523D01*
X128175000Y-96559761D01*
X128127380Y-96702619D01*
X128127380Y-96797857D01*
X128175000Y-96940714D01*
X128222619Y-96988333D01*
X128222619Y-97369285D02*
X128175000Y-97416904D01*
X128127380Y-97512142D01*
X128127380Y-97750238D01*
X128175000Y-97845476D01*
X128222619Y-97893095D01*
X128317857Y-97940714D01*
X128413095Y-97940714D01*
X128555952Y-97893095D01*
X129127380Y-97321666D01*
X129127380Y-97940714D01*
G04 #@! TO.C,C4*
X139827142Y-96988333D02*
X139874761Y-96940714D01*
X139922380Y-96797857D01*
X139922380Y-96702619D01*
X139874761Y-96559761D01*
X139779523Y-96464523D01*
X139684285Y-96416904D01*
X139493809Y-96369285D01*
X139350952Y-96369285D01*
X139160476Y-96416904D01*
X139065238Y-96464523D01*
X138970000Y-96559761D01*
X138922380Y-96702619D01*
X138922380Y-96797857D01*
X138970000Y-96940714D01*
X139017619Y-96988333D01*
X139255714Y-97845476D02*
X139922380Y-97845476D01*
X138874761Y-97607380D02*
X139589047Y-97369285D01*
X139589047Y-97988333D01*
G04 #@! TO.C,C5*
X128397142Y-90003333D02*
X128444761Y-89955714D01*
X128492380Y-89812857D01*
X128492380Y-89717619D01*
X128444761Y-89574761D01*
X128349523Y-89479523D01*
X128254285Y-89431904D01*
X128063809Y-89384285D01*
X127920952Y-89384285D01*
X127730476Y-89431904D01*
X127635238Y-89479523D01*
X127540000Y-89574761D01*
X127492380Y-89717619D01*
X127492380Y-89812857D01*
X127540000Y-89955714D01*
X127587619Y-90003333D01*
X127492380Y-90908095D02*
X127492380Y-90431904D01*
X127968571Y-90384285D01*
X127920952Y-90431904D01*
X127873333Y-90527142D01*
X127873333Y-90765238D01*
X127920952Y-90860476D01*
X127968571Y-90908095D01*
X128063809Y-90955714D01*
X128301904Y-90955714D01*
X128397142Y-90908095D01*
X128444761Y-90860476D01*
X128492380Y-90765238D01*
X128492380Y-90527142D01*
X128444761Y-90431904D01*
X128397142Y-90384285D01*
G04 #@! TD*
M02*
