G04 #@! TF.GenerationSoftware,KiCad,Pcbnew,(5.0.1-3-g963ef8bb5)*
G04 #@! TF.CreationDate,2019-05-17T23:10:43-07:00*
G04 #@! TF.ProjectId,oakram,6F616B72616D2E6B696361645F706362,rev?*
G04 #@! TF.SameCoordinates,Original*
G04 #@! TF.FileFunction,Paste,Top*
G04 #@! TF.FilePolarity,Positive*
%FSLAX46Y46*%
G04 Gerber Fmt 4.6, Leading zero omitted, Abs format (unit mm)*
G04 Created by KiCad (PCBNEW (5.0.1-3-g963ef8bb5)) date Friday, May 17, 2019 at 11:10:43 PM*
%MOMM*%
%LPD*%
G01*
G04 APERTURE LIST*
%ADD10R,2.032000X0.508000*%
%ADD11R,1.000000X1.250000*%
%ADD12R,2.550000X2.500000*%
G04 APERTURE END LIST*
D10*
G04 #@! TO.C,U2*
X128270000Y-114300000D03*
X128270000Y-113030000D03*
X128270000Y-111760000D03*
X128270000Y-110490000D03*
X128270000Y-109220000D03*
X128270000Y-107950000D03*
X128270000Y-106680000D03*
X128270000Y-105410000D03*
X128270000Y-104140000D03*
X128270000Y-102870000D03*
X138430000Y-114300000D03*
X138430000Y-113030000D03*
X138430000Y-111760000D03*
X138430000Y-110490000D03*
X138430000Y-109220000D03*
X138430000Y-107950000D03*
X138430000Y-106680000D03*
X138430000Y-105410000D03*
X138430000Y-104140000D03*
X138430000Y-102870000D03*
X128270000Y-88900000D03*
X128270000Y-90170000D03*
X128270000Y-91440000D03*
X128270000Y-92710000D03*
X128270000Y-93980000D03*
X128270000Y-95250000D03*
X128270000Y-96520000D03*
X128270000Y-97790000D03*
X128270000Y-99060000D03*
X128270000Y-100330000D03*
X138430000Y-88900000D03*
X138430000Y-90170000D03*
X138430000Y-91440000D03*
X138430000Y-92710000D03*
X138430000Y-93980000D03*
X138430000Y-95250000D03*
X138430000Y-96520000D03*
X138430000Y-97790000D03*
X138430000Y-99060000D03*
X138430000Y-100330000D03*
X128270000Y-101600000D03*
X138430000Y-101600000D03*
G04 #@! TD*
G04 #@! TO.C,U1*
X153035000Y-101600000D03*
X142875000Y-101600000D03*
X153035000Y-100330000D03*
X153035000Y-99060000D03*
X153035000Y-97790000D03*
X153035000Y-96520000D03*
X153035000Y-95250000D03*
X153035000Y-93980000D03*
X153035000Y-92710000D03*
X153035000Y-91440000D03*
X153035000Y-90170000D03*
X153035000Y-88900000D03*
X142875000Y-100330000D03*
X142875000Y-99060000D03*
X142875000Y-97790000D03*
X142875000Y-96520000D03*
X142875000Y-95250000D03*
X142875000Y-93980000D03*
X142875000Y-92710000D03*
X142875000Y-91440000D03*
X142875000Y-90170000D03*
X142875000Y-88900000D03*
X153035000Y-102870000D03*
X153035000Y-104140000D03*
X153035000Y-105410000D03*
X153035000Y-106680000D03*
X153035000Y-107950000D03*
X153035000Y-109220000D03*
X153035000Y-110490000D03*
X153035000Y-111760000D03*
X153035000Y-113030000D03*
X153035000Y-114300000D03*
X142875000Y-102870000D03*
X142875000Y-104140000D03*
X142875000Y-105410000D03*
X142875000Y-106680000D03*
X142875000Y-107950000D03*
X142875000Y-109220000D03*
X142875000Y-110490000D03*
X142875000Y-111760000D03*
X142875000Y-113030000D03*
X142875000Y-114300000D03*
G04 #@! TD*
D11*
G04 #@! TO.C,C1*
X130540000Y-116205000D03*
X128540000Y-116205000D03*
G04 #@! TD*
G04 #@! TO.C,C3*
X145145000Y-116205000D03*
X143145000Y-116205000D03*
G04 #@! TD*
G04 #@! TO.C,C6*
X141970000Y-86360000D03*
X139970000Y-86360000D03*
G04 #@! TD*
D12*
G04 #@! TO.C,C7*
X138445000Y-82550000D03*
X143495000Y-82550000D03*
G04 #@! TD*
M02*
