G04 #@! TF.GenerationSoftware,KiCad,Pcbnew,(5.0.1-3-g963ef8bb5)*
G04 #@! TF.CreationDate,2019-05-17T23:20:08-07:00*
G04 #@! TF.ProjectId,oakram,6F616B72616D2E6B696361645F706362,rev?*
G04 #@! TF.SameCoordinates,Original*
G04 #@! TF.FileFunction,Soldermask,Top*
G04 #@! TF.FilePolarity,Negative*
%FSLAX46Y46*%
G04 Gerber Fmt 4.6, Leading zero omitted, Abs format (unit mm)*
G04 Created by KiCad (PCBNEW (5.0.1-3-g963ef8bb5)) date Friday, May 17, 2019 at 11:20:08 PM*
%MOMM*%
%LPD*%
G01*
G04 APERTURE LIST*
%ADD10C,0.100000*%
G04 APERTURE END LIST*
D10*
G36*
X159259888Y-124684470D02*
X159440274Y-124720350D01*
X159631362Y-124799502D01*
X159803336Y-124914411D01*
X159949589Y-125060664D01*
X160064498Y-125232638D01*
X160143650Y-125423726D01*
X160184000Y-125626584D01*
X160184000Y-125833416D01*
X160143650Y-126036274D01*
X160064498Y-126227362D01*
X159949589Y-126399336D01*
X159803336Y-126545589D01*
X159631362Y-126660498D01*
X159440274Y-126739650D01*
X159259888Y-126775530D01*
X159237417Y-126780000D01*
X159030583Y-126780000D01*
X159008112Y-126775530D01*
X158827726Y-126739650D01*
X158636638Y-126660498D01*
X158464664Y-126545589D01*
X158318411Y-126399336D01*
X158203502Y-126227362D01*
X158124350Y-126036274D01*
X158084000Y-125833416D01*
X158084000Y-125626584D01*
X158124350Y-125423726D01*
X158203502Y-125232638D01*
X158318411Y-125060664D01*
X158464664Y-124914411D01*
X158636638Y-124799502D01*
X158827726Y-124720350D01*
X159008112Y-124684470D01*
X159030583Y-124680000D01*
X159237417Y-124680000D01*
X159259888Y-124684470D01*
X159259888Y-124684470D01*
G37*
G36*
X124845888Y-124684470D02*
X125026274Y-124720350D01*
X125217362Y-124799502D01*
X125389336Y-124914411D01*
X125535589Y-125060664D01*
X125650498Y-125232638D01*
X125729650Y-125423726D01*
X125770000Y-125626584D01*
X125770000Y-125833416D01*
X125729650Y-126036274D01*
X125650498Y-126227362D01*
X125535589Y-126399336D01*
X125389336Y-126545589D01*
X125217362Y-126660498D01*
X125026274Y-126739650D01*
X124845888Y-126775530D01*
X124823417Y-126780000D01*
X124616583Y-126780000D01*
X124594112Y-126775530D01*
X124413726Y-126739650D01*
X124222638Y-126660498D01*
X124050664Y-126545589D01*
X123904411Y-126399336D01*
X123789502Y-126227362D01*
X123710350Y-126036274D01*
X123670000Y-125833416D01*
X123670000Y-125626584D01*
X123710350Y-125423726D01*
X123789502Y-125232638D01*
X123904411Y-125060664D01*
X124050664Y-124914411D01*
X124222638Y-124799502D01*
X124413726Y-124720350D01*
X124594112Y-124684470D01*
X124616583Y-124680000D01*
X124823417Y-124680000D01*
X124845888Y-124684470D01*
X124845888Y-124684470D01*
G37*
G36*
X145542000Y-125730000D02*
X136525000Y-125730000D01*
X136525000Y-120396000D01*
X145542000Y-120396000D01*
X145542000Y-125730000D01*
X145542000Y-125730000D01*
G37*
G36*
X122045888Y-123414470D02*
X122226274Y-123450350D01*
X122417362Y-123529502D01*
X122589336Y-123644411D01*
X122735589Y-123790664D01*
X122850498Y-123962638D01*
X122929650Y-124153726D01*
X122970000Y-124356584D01*
X122970000Y-124563416D01*
X122929650Y-124766274D01*
X122850498Y-124957362D01*
X122735589Y-125129336D01*
X122589336Y-125275589D01*
X122417362Y-125390498D01*
X122226274Y-125469650D01*
X122045888Y-125505530D01*
X122023417Y-125510000D01*
X121816583Y-125510000D01*
X121794112Y-125505530D01*
X121613726Y-125469650D01*
X121422638Y-125390498D01*
X121250664Y-125275589D01*
X121104411Y-125129336D01*
X120989502Y-124957362D01*
X120910350Y-124766274D01*
X120870000Y-124563416D01*
X120870000Y-124356584D01*
X120910350Y-124153726D01*
X120989502Y-123962638D01*
X121104411Y-123790664D01*
X121250664Y-123644411D01*
X121422638Y-123529502D01*
X121613726Y-123450350D01*
X121794112Y-123414470D01*
X121816583Y-123410000D01*
X122023417Y-123410000D01*
X122045888Y-123414470D01*
X122045888Y-123414470D01*
G37*
G36*
X156459888Y-123414470D02*
X156640274Y-123450350D01*
X156831362Y-123529502D01*
X157003336Y-123644411D01*
X157149589Y-123790664D01*
X157264498Y-123962638D01*
X157343650Y-124153726D01*
X157384000Y-124356584D01*
X157384000Y-124563416D01*
X157343650Y-124766274D01*
X157264498Y-124957362D01*
X157149589Y-125129336D01*
X157003336Y-125275589D01*
X156831362Y-125390498D01*
X156640274Y-125469650D01*
X156459888Y-125505530D01*
X156437417Y-125510000D01*
X156230583Y-125510000D01*
X156208112Y-125505530D01*
X156027726Y-125469650D01*
X155836638Y-125390498D01*
X155664664Y-125275589D01*
X155518411Y-125129336D01*
X155403502Y-124957362D01*
X155324350Y-124766274D01*
X155284000Y-124563416D01*
X155284000Y-124356584D01*
X155324350Y-124153726D01*
X155403502Y-123962638D01*
X155518411Y-123790664D01*
X155664664Y-123644411D01*
X155836638Y-123529502D01*
X156027726Y-123450350D01*
X156208112Y-123414470D01*
X156230583Y-123410000D01*
X156437417Y-123410000D01*
X156459888Y-123414470D01*
X156459888Y-123414470D01*
G37*
G36*
X159259888Y-122144470D02*
X159440274Y-122180350D01*
X159631362Y-122259502D01*
X159803336Y-122374411D01*
X159949589Y-122520664D01*
X160064498Y-122692638D01*
X160143650Y-122883726D01*
X160184000Y-123086584D01*
X160184000Y-123293416D01*
X160143650Y-123496274D01*
X160064498Y-123687362D01*
X159949589Y-123859336D01*
X159803336Y-124005589D01*
X159631362Y-124120498D01*
X159440274Y-124199650D01*
X159259888Y-124235530D01*
X159237417Y-124240000D01*
X159030583Y-124240000D01*
X159008112Y-124235530D01*
X158827726Y-124199650D01*
X158636638Y-124120498D01*
X158464664Y-124005589D01*
X158318411Y-123859336D01*
X158203502Y-123687362D01*
X158124350Y-123496274D01*
X158084000Y-123293416D01*
X158084000Y-123086584D01*
X158124350Y-122883726D01*
X158203502Y-122692638D01*
X158318411Y-122520664D01*
X158464664Y-122374411D01*
X158636638Y-122259502D01*
X158827726Y-122180350D01*
X159008112Y-122144470D01*
X159030583Y-122140000D01*
X159237417Y-122140000D01*
X159259888Y-122144470D01*
X159259888Y-122144470D01*
G37*
G36*
X124845888Y-122144470D02*
X125026274Y-122180350D01*
X125217362Y-122259502D01*
X125389336Y-122374411D01*
X125535589Y-122520664D01*
X125650498Y-122692638D01*
X125729650Y-122883726D01*
X125770000Y-123086584D01*
X125770000Y-123293416D01*
X125729650Y-123496274D01*
X125650498Y-123687362D01*
X125535589Y-123859336D01*
X125389336Y-124005589D01*
X125217362Y-124120498D01*
X125026274Y-124199650D01*
X124845888Y-124235530D01*
X124823417Y-124240000D01*
X124616583Y-124240000D01*
X124594112Y-124235530D01*
X124413726Y-124199650D01*
X124222638Y-124120498D01*
X124050664Y-124005589D01*
X123904411Y-123859336D01*
X123789502Y-123687362D01*
X123710350Y-123496274D01*
X123670000Y-123293416D01*
X123670000Y-123086584D01*
X123710350Y-122883726D01*
X123789502Y-122692638D01*
X123904411Y-122520664D01*
X124050664Y-122374411D01*
X124222638Y-122259502D01*
X124413726Y-122180350D01*
X124594112Y-122144470D01*
X124616583Y-122140000D01*
X124823417Y-122140000D01*
X124845888Y-122144470D01*
X124845888Y-122144470D01*
G37*
G36*
X122045888Y-120874470D02*
X122226274Y-120910350D01*
X122417362Y-120989502D01*
X122589336Y-121104411D01*
X122735589Y-121250664D01*
X122850498Y-121422638D01*
X122929650Y-121613726D01*
X122970000Y-121816584D01*
X122970000Y-122023416D01*
X122929650Y-122226274D01*
X122850498Y-122417362D01*
X122735589Y-122589336D01*
X122589336Y-122735589D01*
X122417362Y-122850498D01*
X122226274Y-122929650D01*
X122045888Y-122965530D01*
X122023417Y-122970000D01*
X121816583Y-122970000D01*
X121794112Y-122965530D01*
X121613726Y-122929650D01*
X121422638Y-122850498D01*
X121250664Y-122735589D01*
X121104411Y-122589336D01*
X120989502Y-122417362D01*
X120910350Y-122226274D01*
X120870000Y-122023416D01*
X120870000Y-121816584D01*
X120910350Y-121613726D01*
X120989502Y-121422638D01*
X121104411Y-121250664D01*
X121250664Y-121104411D01*
X121422638Y-120989502D01*
X121613726Y-120910350D01*
X121794112Y-120874470D01*
X121816583Y-120870000D01*
X122023417Y-120870000D01*
X122045888Y-120874470D01*
X122045888Y-120874470D01*
G37*
G36*
X156459888Y-120874470D02*
X156640274Y-120910350D01*
X156831362Y-120989502D01*
X157003336Y-121104411D01*
X157149589Y-121250664D01*
X157264498Y-121422638D01*
X157343650Y-121613726D01*
X157384000Y-121816584D01*
X157384000Y-122023416D01*
X157343650Y-122226274D01*
X157264498Y-122417362D01*
X157149589Y-122589336D01*
X157003336Y-122735589D01*
X156831362Y-122850498D01*
X156640274Y-122929650D01*
X156459888Y-122965530D01*
X156437417Y-122970000D01*
X156230583Y-122970000D01*
X156208112Y-122965530D01*
X156027726Y-122929650D01*
X155836638Y-122850498D01*
X155664664Y-122735589D01*
X155518411Y-122589336D01*
X155403502Y-122417362D01*
X155324350Y-122226274D01*
X155284000Y-122023416D01*
X155284000Y-121816584D01*
X155324350Y-121613726D01*
X155403502Y-121422638D01*
X155518411Y-121250664D01*
X155664664Y-121104411D01*
X155836638Y-120989502D01*
X156027726Y-120910350D01*
X156208112Y-120874470D01*
X156230583Y-120870000D01*
X156437417Y-120870000D01*
X156459888Y-120874470D01*
X156459888Y-120874470D01*
G37*
G36*
X124845888Y-119604470D02*
X125026274Y-119640350D01*
X125217362Y-119719502D01*
X125389336Y-119834411D01*
X125535589Y-119980664D01*
X125650498Y-120152638D01*
X125729650Y-120343726D01*
X125770000Y-120546584D01*
X125770000Y-120753416D01*
X125729650Y-120956274D01*
X125650498Y-121147362D01*
X125535589Y-121319336D01*
X125389336Y-121465589D01*
X125217362Y-121580498D01*
X125026274Y-121659650D01*
X124845888Y-121695530D01*
X124823417Y-121700000D01*
X124616583Y-121700000D01*
X124594112Y-121695530D01*
X124413726Y-121659650D01*
X124222638Y-121580498D01*
X124050664Y-121465589D01*
X123904411Y-121319336D01*
X123789502Y-121147362D01*
X123710350Y-120956274D01*
X123670000Y-120753416D01*
X123670000Y-120546584D01*
X123710350Y-120343726D01*
X123789502Y-120152638D01*
X123904411Y-119980664D01*
X124050664Y-119834411D01*
X124222638Y-119719502D01*
X124413726Y-119640350D01*
X124594112Y-119604470D01*
X124616583Y-119600000D01*
X124823417Y-119600000D01*
X124845888Y-119604470D01*
X124845888Y-119604470D01*
G37*
G36*
X159259888Y-119604470D02*
X159440274Y-119640350D01*
X159631362Y-119719502D01*
X159803336Y-119834411D01*
X159949589Y-119980664D01*
X160064498Y-120152638D01*
X160143650Y-120343726D01*
X160184000Y-120546584D01*
X160184000Y-120753416D01*
X160143650Y-120956274D01*
X160064498Y-121147362D01*
X159949589Y-121319336D01*
X159803336Y-121465589D01*
X159631362Y-121580498D01*
X159440274Y-121659650D01*
X159259888Y-121695530D01*
X159237417Y-121700000D01*
X159030583Y-121700000D01*
X159008112Y-121695530D01*
X158827726Y-121659650D01*
X158636638Y-121580498D01*
X158464664Y-121465589D01*
X158318411Y-121319336D01*
X158203502Y-121147362D01*
X158124350Y-120956274D01*
X158084000Y-120753416D01*
X158084000Y-120546584D01*
X158124350Y-120343726D01*
X158203502Y-120152638D01*
X158318411Y-119980664D01*
X158464664Y-119834411D01*
X158636638Y-119719502D01*
X158827726Y-119640350D01*
X159008112Y-119604470D01*
X159030583Y-119600000D01*
X159237417Y-119600000D01*
X159259888Y-119604470D01*
X159259888Y-119604470D01*
G37*
G36*
X156459888Y-118334470D02*
X156640274Y-118370350D01*
X156831362Y-118449502D01*
X157003336Y-118564411D01*
X157149589Y-118710664D01*
X157264498Y-118882638D01*
X157343650Y-119073726D01*
X157384000Y-119276584D01*
X157384000Y-119483416D01*
X157343650Y-119686274D01*
X157264498Y-119877362D01*
X157149589Y-120049336D01*
X157003336Y-120195589D01*
X156831362Y-120310498D01*
X156640274Y-120389650D01*
X156459888Y-120425530D01*
X156437417Y-120430000D01*
X156230583Y-120430000D01*
X156208112Y-120425530D01*
X156027726Y-120389650D01*
X155836638Y-120310498D01*
X155664664Y-120195589D01*
X155518411Y-120049336D01*
X155403502Y-119877362D01*
X155324350Y-119686274D01*
X155284000Y-119483416D01*
X155284000Y-119276584D01*
X155324350Y-119073726D01*
X155403502Y-118882638D01*
X155518411Y-118710664D01*
X155664664Y-118564411D01*
X155836638Y-118449502D01*
X156027726Y-118370350D01*
X156208112Y-118334470D01*
X156230583Y-118330000D01*
X156437417Y-118330000D01*
X156459888Y-118334470D01*
X156459888Y-118334470D01*
G37*
G36*
X122045888Y-118334470D02*
X122226274Y-118370350D01*
X122417362Y-118449502D01*
X122589336Y-118564411D01*
X122735589Y-118710664D01*
X122850498Y-118882638D01*
X122929650Y-119073726D01*
X122970000Y-119276584D01*
X122970000Y-119483416D01*
X122929650Y-119686274D01*
X122850498Y-119877362D01*
X122735589Y-120049336D01*
X122589336Y-120195589D01*
X122417362Y-120310498D01*
X122226274Y-120389650D01*
X122045888Y-120425530D01*
X122023417Y-120430000D01*
X121816583Y-120430000D01*
X121794112Y-120425530D01*
X121613726Y-120389650D01*
X121422638Y-120310498D01*
X121250664Y-120195589D01*
X121104411Y-120049336D01*
X120989502Y-119877362D01*
X120910350Y-119686274D01*
X120870000Y-119483416D01*
X120870000Y-119276584D01*
X120910350Y-119073726D01*
X120989502Y-118882638D01*
X121104411Y-118710664D01*
X121250664Y-118564411D01*
X121422638Y-118449502D01*
X121613726Y-118370350D01*
X121794112Y-118334470D01*
X121816583Y-118330000D01*
X122023417Y-118330000D01*
X122045888Y-118334470D01*
X122045888Y-118334470D01*
G37*
G36*
X159259888Y-117064470D02*
X159440274Y-117100350D01*
X159631362Y-117179502D01*
X159803336Y-117294411D01*
X159949589Y-117440664D01*
X160064498Y-117612638D01*
X160143650Y-117803726D01*
X160184000Y-118006584D01*
X160184000Y-118213416D01*
X160143650Y-118416274D01*
X160064498Y-118607362D01*
X159949589Y-118779336D01*
X159803336Y-118925589D01*
X159631362Y-119040498D01*
X159440274Y-119119650D01*
X159259888Y-119155530D01*
X159237417Y-119160000D01*
X159030583Y-119160000D01*
X159008112Y-119155530D01*
X158827726Y-119119650D01*
X158636638Y-119040498D01*
X158464664Y-118925589D01*
X158318411Y-118779336D01*
X158203502Y-118607362D01*
X158124350Y-118416274D01*
X158084000Y-118213416D01*
X158084000Y-118006584D01*
X158124350Y-117803726D01*
X158203502Y-117612638D01*
X158318411Y-117440664D01*
X158464664Y-117294411D01*
X158636638Y-117179502D01*
X158827726Y-117100350D01*
X159008112Y-117064470D01*
X159030583Y-117060000D01*
X159237417Y-117060000D01*
X159259888Y-117064470D01*
X159259888Y-117064470D01*
G37*
G36*
X124845888Y-117064470D02*
X125026274Y-117100350D01*
X125217362Y-117179502D01*
X125389336Y-117294411D01*
X125535589Y-117440664D01*
X125650498Y-117612638D01*
X125729650Y-117803726D01*
X125770000Y-118006584D01*
X125770000Y-118213416D01*
X125729650Y-118416274D01*
X125650498Y-118607362D01*
X125535589Y-118779336D01*
X125389336Y-118925589D01*
X125217362Y-119040498D01*
X125026274Y-119119650D01*
X124845888Y-119155530D01*
X124823417Y-119160000D01*
X124616583Y-119160000D01*
X124594112Y-119155530D01*
X124413726Y-119119650D01*
X124222638Y-119040498D01*
X124050664Y-118925589D01*
X123904411Y-118779336D01*
X123789502Y-118607362D01*
X123710350Y-118416274D01*
X123670000Y-118213416D01*
X123670000Y-118006584D01*
X123710350Y-117803726D01*
X123789502Y-117612638D01*
X123904411Y-117440664D01*
X124050664Y-117294411D01*
X124222638Y-117179502D01*
X124413726Y-117100350D01*
X124594112Y-117064470D01*
X124616583Y-117060000D01*
X124823417Y-117060000D01*
X124845888Y-117064470D01*
X124845888Y-117064470D01*
G37*
G36*
X156459888Y-115794470D02*
X156640274Y-115830350D01*
X156831362Y-115909502D01*
X157003336Y-116024411D01*
X157149589Y-116170664D01*
X157264498Y-116342638D01*
X157343650Y-116533726D01*
X157384000Y-116736584D01*
X157384000Y-116943416D01*
X157343650Y-117146274D01*
X157264498Y-117337362D01*
X157149589Y-117509336D01*
X157003336Y-117655589D01*
X156831362Y-117770498D01*
X156640274Y-117849650D01*
X156459888Y-117885530D01*
X156437417Y-117890000D01*
X156230583Y-117890000D01*
X156208112Y-117885530D01*
X156027726Y-117849650D01*
X155836638Y-117770498D01*
X155664664Y-117655589D01*
X155518411Y-117509336D01*
X155403502Y-117337362D01*
X155324350Y-117146274D01*
X155284000Y-116943416D01*
X155284000Y-116736584D01*
X155324350Y-116533726D01*
X155403502Y-116342638D01*
X155518411Y-116170664D01*
X155664664Y-116024411D01*
X155836638Y-115909502D01*
X156027726Y-115830350D01*
X156208112Y-115794470D01*
X156230583Y-115790000D01*
X156437417Y-115790000D01*
X156459888Y-115794470D01*
X156459888Y-115794470D01*
G37*
G36*
X122045888Y-115794470D02*
X122226274Y-115830350D01*
X122417362Y-115909502D01*
X122589336Y-116024411D01*
X122735589Y-116170664D01*
X122850498Y-116342638D01*
X122929650Y-116533726D01*
X122970000Y-116736584D01*
X122970000Y-116943416D01*
X122929650Y-117146274D01*
X122850498Y-117337362D01*
X122735589Y-117509336D01*
X122589336Y-117655589D01*
X122417362Y-117770498D01*
X122226274Y-117849650D01*
X122045888Y-117885530D01*
X122023417Y-117890000D01*
X121816583Y-117890000D01*
X121794112Y-117885530D01*
X121613726Y-117849650D01*
X121422638Y-117770498D01*
X121250664Y-117655589D01*
X121104411Y-117509336D01*
X120989502Y-117337362D01*
X120910350Y-117146274D01*
X120870000Y-116943416D01*
X120870000Y-116736584D01*
X120910350Y-116533726D01*
X120989502Y-116342638D01*
X121104411Y-116170664D01*
X121250664Y-116024411D01*
X121422638Y-115909502D01*
X121613726Y-115830350D01*
X121794112Y-115794470D01*
X121816583Y-115790000D01*
X122023417Y-115790000D01*
X122045888Y-115794470D01*
X122045888Y-115794470D01*
G37*
G36*
X129240000Y-117030000D02*
X127840000Y-117030000D01*
X127840000Y-115380000D01*
X129240000Y-115380000D01*
X129240000Y-117030000D01*
X129240000Y-117030000D01*
G37*
G36*
X131240000Y-117030000D02*
X129840000Y-117030000D01*
X129840000Y-115380000D01*
X131240000Y-115380000D01*
X131240000Y-117030000D01*
X131240000Y-117030000D01*
G37*
G36*
X145845000Y-117030000D02*
X144445000Y-117030000D01*
X144445000Y-115380000D01*
X145845000Y-115380000D01*
X145845000Y-117030000D01*
X145845000Y-117030000D01*
G37*
G36*
X143845000Y-117030000D02*
X142445000Y-117030000D01*
X142445000Y-115380000D01*
X143845000Y-115380000D01*
X143845000Y-117030000D01*
X143845000Y-117030000D01*
G37*
G36*
X159259888Y-114524470D02*
X159440274Y-114560350D01*
X159631362Y-114639502D01*
X159803336Y-114754411D01*
X159949589Y-114900664D01*
X160064498Y-115072638D01*
X160143650Y-115263726D01*
X160184000Y-115466584D01*
X160184000Y-115673416D01*
X160143650Y-115876274D01*
X160064498Y-116067362D01*
X159949589Y-116239336D01*
X159803336Y-116385589D01*
X159631362Y-116500498D01*
X159440274Y-116579650D01*
X159259888Y-116615530D01*
X159237417Y-116620000D01*
X159030583Y-116620000D01*
X159008112Y-116615530D01*
X158827726Y-116579650D01*
X158636638Y-116500498D01*
X158464664Y-116385589D01*
X158318411Y-116239336D01*
X158203502Y-116067362D01*
X158124350Y-115876274D01*
X158084000Y-115673416D01*
X158084000Y-115466584D01*
X158124350Y-115263726D01*
X158203502Y-115072638D01*
X158318411Y-114900664D01*
X158464664Y-114754411D01*
X158636638Y-114639502D01*
X158827726Y-114560350D01*
X159008112Y-114524470D01*
X159030583Y-114520000D01*
X159237417Y-114520000D01*
X159259888Y-114524470D01*
X159259888Y-114524470D01*
G37*
G36*
X124845888Y-114524470D02*
X125026274Y-114560350D01*
X125217362Y-114639502D01*
X125389336Y-114754411D01*
X125535589Y-114900664D01*
X125650498Y-115072638D01*
X125729650Y-115263726D01*
X125770000Y-115466584D01*
X125770000Y-115673416D01*
X125729650Y-115876274D01*
X125650498Y-116067362D01*
X125535589Y-116239336D01*
X125389336Y-116385589D01*
X125217362Y-116500498D01*
X125026274Y-116579650D01*
X124845888Y-116615530D01*
X124823417Y-116620000D01*
X124616583Y-116620000D01*
X124594112Y-116615530D01*
X124413726Y-116579650D01*
X124222638Y-116500498D01*
X124050664Y-116385589D01*
X123904411Y-116239336D01*
X123789502Y-116067362D01*
X123710350Y-115876274D01*
X123670000Y-115673416D01*
X123670000Y-115466584D01*
X123710350Y-115263726D01*
X123789502Y-115072638D01*
X123904411Y-114900664D01*
X124050664Y-114754411D01*
X124222638Y-114639502D01*
X124413726Y-114560350D01*
X124594112Y-114524470D01*
X124616583Y-114520000D01*
X124823417Y-114520000D01*
X124845888Y-114524470D01*
X124845888Y-114524470D01*
G37*
G36*
X122045888Y-113254470D02*
X122226274Y-113290350D01*
X122417362Y-113369502D01*
X122589336Y-113484411D01*
X122735589Y-113630664D01*
X122850498Y-113802638D01*
X122929650Y-113993726D01*
X122970000Y-114196584D01*
X122970000Y-114403416D01*
X122929650Y-114606274D01*
X122850498Y-114797362D01*
X122735589Y-114969336D01*
X122589336Y-115115589D01*
X122417362Y-115230498D01*
X122226274Y-115309650D01*
X122045888Y-115345530D01*
X122023417Y-115350000D01*
X121816583Y-115350000D01*
X121794112Y-115345530D01*
X121613726Y-115309650D01*
X121422638Y-115230498D01*
X121250664Y-115115589D01*
X121104411Y-114969336D01*
X120989502Y-114797362D01*
X120910350Y-114606274D01*
X120870000Y-114403416D01*
X120870000Y-114196584D01*
X120910350Y-113993726D01*
X120989502Y-113802638D01*
X121104411Y-113630664D01*
X121250664Y-113484411D01*
X121422638Y-113369502D01*
X121613726Y-113290350D01*
X121794112Y-113254470D01*
X121816583Y-113250000D01*
X122023417Y-113250000D01*
X122045888Y-113254470D01*
X122045888Y-113254470D01*
G37*
G36*
X156459888Y-113254470D02*
X156640274Y-113290350D01*
X156831362Y-113369502D01*
X157003336Y-113484411D01*
X157149589Y-113630664D01*
X157264498Y-113802638D01*
X157343650Y-113993726D01*
X157384000Y-114196584D01*
X157384000Y-114403416D01*
X157343650Y-114606274D01*
X157264498Y-114797362D01*
X157149589Y-114969336D01*
X157003336Y-115115589D01*
X156831362Y-115230498D01*
X156640274Y-115309650D01*
X156459888Y-115345530D01*
X156437417Y-115350000D01*
X156230583Y-115350000D01*
X156208112Y-115345530D01*
X156027726Y-115309650D01*
X155836638Y-115230498D01*
X155664664Y-115115589D01*
X155518411Y-114969336D01*
X155403502Y-114797362D01*
X155324350Y-114606274D01*
X155284000Y-114403416D01*
X155284000Y-114196584D01*
X155324350Y-113993726D01*
X155403502Y-113802638D01*
X155518411Y-113630664D01*
X155664664Y-113484411D01*
X155836638Y-113369502D01*
X156027726Y-113290350D01*
X156208112Y-113254470D01*
X156230583Y-113250000D01*
X156437417Y-113250000D01*
X156459888Y-113254470D01*
X156459888Y-113254470D01*
G37*
G36*
X129486000Y-114754000D02*
X127054000Y-114754000D01*
X127054000Y-113846000D01*
X129486000Y-113846000D01*
X129486000Y-114754000D01*
X129486000Y-114754000D01*
G37*
G36*
X154251000Y-114754000D02*
X151819000Y-114754000D01*
X151819000Y-113846000D01*
X154251000Y-113846000D01*
X154251000Y-114754000D01*
X154251000Y-114754000D01*
G37*
G36*
X144091000Y-114754000D02*
X141659000Y-114754000D01*
X141659000Y-113846000D01*
X144091000Y-113846000D01*
X144091000Y-114754000D01*
X144091000Y-114754000D01*
G37*
G36*
X139646000Y-114754000D02*
X137214000Y-114754000D01*
X137214000Y-113846000D01*
X139646000Y-113846000D01*
X139646000Y-114754000D01*
X139646000Y-114754000D01*
G37*
G36*
X159259888Y-111984470D02*
X159440274Y-112020350D01*
X159631362Y-112099502D01*
X159803336Y-112214411D01*
X159949589Y-112360664D01*
X160064498Y-112532638D01*
X160143650Y-112723726D01*
X160184000Y-112926584D01*
X160184000Y-113133416D01*
X160143650Y-113336274D01*
X160064498Y-113527362D01*
X159949589Y-113699336D01*
X159803336Y-113845589D01*
X159631362Y-113960498D01*
X159440274Y-114039650D01*
X159259888Y-114075530D01*
X159237417Y-114080000D01*
X159030583Y-114080000D01*
X159008112Y-114075530D01*
X158827726Y-114039650D01*
X158636638Y-113960498D01*
X158464664Y-113845589D01*
X158318411Y-113699336D01*
X158203502Y-113527362D01*
X158124350Y-113336274D01*
X158084000Y-113133416D01*
X158084000Y-112926584D01*
X158124350Y-112723726D01*
X158203502Y-112532638D01*
X158318411Y-112360664D01*
X158464664Y-112214411D01*
X158636638Y-112099502D01*
X158827726Y-112020350D01*
X159008112Y-111984470D01*
X159030583Y-111980000D01*
X159237417Y-111980000D01*
X159259888Y-111984470D01*
X159259888Y-111984470D01*
G37*
G36*
X124845888Y-111984470D02*
X125026274Y-112020350D01*
X125217362Y-112099502D01*
X125389336Y-112214411D01*
X125535589Y-112360664D01*
X125650498Y-112532638D01*
X125729650Y-112723726D01*
X125770000Y-112926584D01*
X125770000Y-113133416D01*
X125729650Y-113336274D01*
X125650498Y-113527362D01*
X125535589Y-113699336D01*
X125389336Y-113845589D01*
X125217362Y-113960498D01*
X125026274Y-114039650D01*
X124845888Y-114075530D01*
X124823417Y-114080000D01*
X124616583Y-114080000D01*
X124594112Y-114075530D01*
X124413726Y-114039650D01*
X124222638Y-113960498D01*
X124050664Y-113845589D01*
X123904411Y-113699336D01*
X123789502Y-113527362D01*
X123710350Y-113336274D01*
X123670000Y-113133416D01*
X123670000Y-112926584D01*
X123710350Y-112723726D01*
X123789502Y-112532638D01*
X123904411Y-112360664D01*
X124050664Y-112214411D01*
X124222638Y-112099502D01*
X124413726Y-112020350D01*
X124594112Y-111984470D01*
X124616583Y-111980000D01*
X124823417Y-111980000D01*
X124845888Y-111984470D01*
X124845888Y-111984470D01*
G37*
G36*
X129486000Y-113484000D02*
X127054000Y-113484000D01*
X127054000Y-112576000D01*
X129486000Y-112576000D01*
X129486000Y-113484000D01*
X129486000Y-113484000D01*
G37*
G36*
X139646000Y-113484000D02*
X137214000Y-113484000D01*
X137214000Y-112576000D01*
X139646000Y-112576000D01*
X139646000Y-113484000D01*
X139646000Y-113484000D01*
G37*
G36*
X154251000Y-113484000D02*
X151819000Y-113484000D01*
X151819000Y-112576000D01*
X154251000Y-112576000D01*
X154251000Y-113484000D01*
X154251000Y-113484000D01*
G37*
G36*
X144091000Y-113484000D02*
X141659000Y-113484000D01*
X141659000Y-112576000D01*
X144091000Y-112576000D01*
X144091000Y-113484000D01*
X144091000Y-113484000D01*
G37*
G36*
X156459888Y-110714470D02*
X156640274Y-110750350D01*
X156831362Y-110829502D01*
X157003336Y-110944411D01*
X157149589Y-111090664D01*
X157264498Y-111262638D01*
X157343650Y-111453726D01*
X157384000Y-111656584D01*
X157384000Y-111863416D01*
X157343650Y-112066274D01*
X157264498Y-112257362D01*
X157149589Y-112429336D01*
X157003336Y-112575589D01*
X156831362Y-112690498D01*
X156640274Y-112769650D01*
X156459888Y-112805530D01*
X156437417Y-112810000D01*
X156230583Y-112810000D01*
X156208112Y-112805530D01*
X156027726Y-112769650D01*
X155836638Y-112690498D01*
X155664664Y-112575589D01*
X155518411Y-112429336D01*
X155403502Y-112257362D01*
X155324350Y-112066274D01*
X155284000Y-111863416D01*
X155284000Y-111656584D01*
X155324350Y-111453726D01*
X155403502Y-111262638D01*
X155518411Y-111090664D01*
X155664664Y-110944411D01*
X155836638Y-110829502D01*
X156027726Y-110750350D01*
X156208112Y-110714470D01*
X156230583Y-110710000D01*
X156437417Y-110710000D01*
X156459888Y-110714470D01*
X156459888Y-110714470D01*
G37*
G36*
X122045888Y-110714470D02*
X122226274Y-110750350D01*
X122417362Y-110829502D01*
X122589336Y-110944411D01*
X122735589Y-111090664D01*
X122850498Y-111262638D01*
X122929650Y-111453726D01*
X122970000Y-111656584D01*
X122970000Y-111863416D01*
X122929650Y-112066274D01*
X122850498Y-112257362D01*
X122735589Y-112429336D01*
X122589336Y-112575589D01*
X122417362Y-112690498D01*
X122226274Y-112769650D01*
X122045888Y-112805530D01*
X122023417Y-112810000D01*
X121816583Y-112810000D01*
X121794112Y-112805530D01*
X121613726Y-112769650D01*
X121422638Y-112690498D01*
X121250664Y-112575589D01*
X121104411Y-112429336D01*
X120989502Y-112257362D01*
X120910350Y-112066274D01*
X120870000Y-111863416D01*
X120870000Y-111656584D01*
X120910350Y-111453726D01*
X120989502Y-111262638D01*
X121104411Y-111090664D01*
X121250664Y-110944411D01*
X121422638Y-110829502D01*
X121613726Y-110750350D01*
X121794112Y-110714470D01*
X121816583Y-110710000D01*
X122023417Y-110710000D01*
X122045888Y-110714470D01*
X122045888Y-110714470D01*
G37*
G36*
X129486000Y-112214000D02*
X127054000Y-112214000D01*
X127054000Y-111306000D01*
X129486000Y-111306000D01*
X129486000Y-112214000D01*
X129486000Y-112214000D01*
G37*
G36*
X139646000Y-112214000D02*
X137214000Y-112214000D01*
X137214000Y-111306000D01*
X139646000Y-111306000D01*
X139646000Y-112214000D01*
X139646000Y-112214000D01*
G37*
G36*
X144091000Y-112214000D02*
X141659000Y-112214000D01*
X141659000Y-111306000D01*
X144091000Y-111306000D01*
X144091000Y-112214000D01*
X144091000Y-112214000D01*
G37*
G36*
X154251000Y-112214000D02*
X151819000Y-112214000D01*
X151819000Y-111306000D01*
X154251000Y-111306000D01*
X154251000Y-112214000D01*
X154251000Y-112214000D01*
G37*
G36*
X124845888Y-109444470D02*
X125026274Y-109480350D01*
X125217362Y-109559502D01*
X125389336Y-109674411D01*
X125535589Y-109820664D01*
X125650498Y-109992638D01*
X125729650Y-110183726D01*
X125770000Y-110386584D01*
X125770000Y-110593416D01*
X125729650Y-110796274D01*
X125650498Y-110987362D01*
X125535589Y-111159336D01*
X125389336Y-111305589D01*
X125217362Y-111420498D01*
X125026274Y-111499650D01*
X124845888Y-111535530D01*
X124823417Y-111540000D01*
X124616583Y-111540000D01*
X124594112Y-111535530D01*
X124413726Y-111499650D01*
X124222638Y-111420498D01*
X124050664Y-111305589D01*
X123904411Y-111159336D01*
X123789502Y-110987362D01*
X123710350Y-110796274D01*
X123670000Y-110593416D01*
X123670000Y-110386584D01*
X123710350Y-110183726D01*
X123789502Y-109992638D01*
X123904411Y-109820664D01*
X124050664Y-109674411D01*
X124222638Y-109559502D01*
X124413726Y-109480350D01*
X124594112Y-109444470D01*
X124616583Y-109440000D01*
X124823417Y-109440000D01*
X124845888Y-109444470D01*
X124845888Y-109444470D01*
G37*
G36*
X159259888Y-109444470D02*
X159440274Y-109480350D01*
X159631362Y-109559502D01*
X159803336Y-109674411D01*
X159949589Y-109820664D01*
X160064498Y-109992638D01*
X160143650Y-110183726D01*
X160184000Y-110386584D01*
X160184000Y-110593416D01*
X160143650Y-110796274D01*
X160064498Y-110987362D01*
X159949589Y-111159336D01*
X159803336Y-111305589D01*
X159631362Y-111420498D01*
X159440274Y-111499650D01*
X159259888Y-111535530D01*
X159237417Y-111540000D01*
X159030583Y-111540000D01*
X159008112Y-111535530D01*
X158827726Y-111499650D01*
X158636638Y-111420498D01*
X158464664Y-111305589D01*
X158318411Y-111159336D01*
X158203502Y-110987362D01*
X158124350Y-110796274D01*
X158084000Y-110593416D01*
X158084000Y-110386584D01*
X158124350Y-110183726D01*
X158203502Y-109992638D01*
X158318411Y-109820664D01*
X158464664Y-109674411D01*
X158636638Y-109559502D01*
X158827726Y-109480350D01*
X159008112Y-109444470D01*
X159030583Y-109440000D01*
X159237417Y-109440000D01*
X159259888Y-109444470D01*
X159259888Y-109444470D01*
G37*
G36*
X144091000Y-110944000D02*
X141659000Y-110944000D01*
X141659000Y-110036000D01*
X144091000Y-110036000D01*
X144091000Y-110944000D01*
X144091000Y-110944000D01*
G37*
G36*
X139646000Y-110944000D02*
X137214000Y-110944000D01*
X137214000Y-110036000D01*
X139646000Y-110036000D01*
X139646000Y-110944000D01*
X139646000Y-110944000D01*
G37*
G36*
X129486000Y-110944000D02*
X127054000Y-110944000D01*
X127054000Y-110036000D01*
X129486000Y-110036000D01*
X129486000Y-110944000D01*
X129486000Y-110944000D01*
G37*
G36*
X154251000Y-110944000D02*
X151819000Y-110944000D01*
X151819000Y-110036000D01*
X154251000Y-110036000D01*
X154251000Y-110944000D01*
X154251000Y-110944000D01*
G37*
G36*
X156459888Y-108174470D02*
X156640274Y-108210350D01*
X156831362Y-108289502D01*
X157003336Y-108404411D01*
X157149589Y-108550664D01*
X157264498Y-108722638D01*
X157343650Y-108913726D01*
X157384000Y-109116584D01*
X157384000Y-109323416D01*
X157343650Y-109526274D01*
X157264498Y-109717362D01*
X157149589Y-109889336D01*
X157003336Y-110035589D01*
X156831362Y-110150498D01*
X156640274Y-110229650D01*
X156459888Y-110265530D01*
X156437417Y-110270000D01*
X156230583Y-110270000D01*
X156208112Y-110265530D01*
X156027726Y-110229650D01*
X155836638Y-110150498D01*
X155664664Y-110035589D01*
X155518411Y-109889336D01*
X155403502Y-109717362D01*
X155324350Y-109526274D01*
X155284000Y-109323416D01*
X155284000Y-109116584D01*
X155324350Y-108913726D01*
X155403502Y-108722638D01*
X155518411Y-108550664D01*
X155664664Y-108404411D01*
X155836638Y-108289502D01*
X156027726Y-108210350D01*
X156208112Y-108174470D01*
X156230583Y-108170000D01*
X156437417Y-108170000D01*
X156459888Y-108174470D01*
X156459888Y-108174470D01*
G37*
G36*
X122045888Y-108174470D02*
X122226274Y-108210350D01*
X122417362Y-108289502D01*
X122589336Y-108404411D01*
X122735589Y-108550664D01*
X122850498Y-108722638D01*
X122929650Y-108913726D01*
X122970000Y-109116584D01*
X122970000Y-109323416D01*
X122929650Y-109526274D01*
X122850498Y-109717362D01*
X122735589Y-109889336D01*
X122589336Y-110035589D01*
X122417362Y-110150498D01*
X122226274Y-110229650D01*
X122045888Y-110265530D01*
X122023417Y-110270000D01*
X121816583Y-110270000D01*
X121794112Y-110265530D01*
X121613726Y-110229650D01*
X121422638Y-110150498D01*
X121250664Y-110035589D01*
X121104411Y-109889336D01*
X120989502Y-109717362D01*
X120910350Y-109526274D01*
X120870000Y-109323416D01*
X120870000Y-109116584D01*
X120910350Y-108913726D01*
X120989502Y-108722638D01*
X121104411Y-108550664D01*
X121250664Y-108404411D01*
X121422638Y-108289502D01*
X121613726Y-108210350D01*
X121794112Y-108174470D01*
X121816583Y-108170000D01*
X122023417Y-108170000D01*
X122045888Y-108174470D01*
X122045888Y-108174470D01*
G37*
G36*
X139646000Y-109674000D02*
X137214000Y-109674000D01*
X137214000Y-108766000D01*
X139646000Y-108766000D01*
X139646000Y-109674000D01*
X139646000Y-109674000D01*
G37*
G36*
X129486000Y-109674000D02*
X127054000Y-109674000D01*
X127054000Y-108766000D01*
X129486000Y-108766000D01*
X129486000Y-109674000D01*
X129486000Y-109674000D01*
G37*
G36*
X144091000Y-109674000D02*
X141659000Y-109674000D01*
X141659000Y-108766000D01*
X144091000Y-108766000D01*
X144091000Y-109674000D01*
X144091000Y-109674000D01*
G37*
G36*
X154251000Y-109674000D02*
X151819000Y-109674000D01*
X151819000Y-108766000D01*
X154251000Y-108766000D01*
X154251000Y-109674000D01*
X154251000Y-109674000D01*
G37*
G36*
X124845888Y-106904470D02*
X125026274Y-106940350D01*
X125217362Y-107019502D01*
X125389336Y-107134411D01*
X125535589Y-107280664D01*
X125650498Y-107452638D01*
X125729650Y-107643726D01*
X125770000Y-107846584D01*
X125770000Y-108053416D01*
X125729650Y-108256274D01*
X125650498Y-108447362D01*
X125535589Y-108619336D01*
X125389336Y-108765589D01*
X125217362Y-108880498D01*
X125026274Y-108959650D01*
X124845888Y-108995530D01*
X124823417Y-109000000D01*
X124616583Y-109000000D01*
X124594112Y-108995530D01*
X124413726Y-108959650D01*
X124222638Y-108880498D01*
X124050664Y-108765589D01*
X123904411Y-108619336D01*
X123789502Y-108447362D01*
X123710350Y-108256274D01*
X123670000Y-108053416D01*
X123670000Y-107846584D01*
X123710350Y-107643726D01*
X123789502Y-107452638D01*
X123904411Y-107280664D01*
X124050664Y-107134411D01*
X124222638Y-107019502D01*
X124413726Y-106940350D01*
X124594112Y-106904470D01*
X124616583Y-106900000D01*
X124823417Y-106900000D01*
X124845888Y-106904470D01*
X124845888Y-106904470D01*
G37*
G36*
X159259888Y-106904470D02*
X159440274Y-106940350D01*
X159631362Y-107019502D01*
X159803336Y-107134411D01*
X159949589Y-107280664D01*
X160064498Y-107452638D01*
X160143650Y-107643726D01*
X160184000Y-107846584D01*
X160184000Y-108053416D01*
X160143650Y-108256274D01*
X160064498Y-108447362D01*
X159949589Y-108619336D01*
X159803336Y-108765589D01*
X159631362Y-108880498D01*
X159440274Y-108959650D01*
X159259888Y-108995530D01*
X159237417Y-109000000D01*
X159030583Y-109000000D01*
X159008112Y-108995530D01*
X158827726Y-108959650D01*
X158636638Y-108880498D01*
X158464664Y-108765589D01*
X158318411Y-108619336D01*
X158203502Y-108447362D01*
X158124350Y-108256274D01*
X158084000Y-108053416D01*
X158084000Y-107846584D01*
X158124350Y-107643726D01*
X158203502Y-107452638D01*
X158318411Y-107280664D01*
X158464664Y-107134411D01*
X158636638Y-107019502D01*
X158827726Y-106940350D01*
X159008112Y-106904470D01*
X159030583Y-106900000D01*
X159237417Y-106900000D01*
X159259888Y-106904470D01*
X159259888Y-106904470D01*
G37*
G36*
X129486000Y-108404000D02*
X127054000Y-108404000D01*
X127054000Y-107496000D01*
X129486000Y-107496000D01*
X129486000Y-108404000D01*
X129486000Y-108404000D01*
G37*
G36*
X139646000Y-108404000D02*
X137214000Y-108404000D01*
X137214000Y-107496000D01*
X139646000Y-107496000D01*
X139646000Y-108404000D01*
X139646000Y-108404000D01*
G37*
G36*
X154251000Y-108404000D02*
X151819000Y-108404000D01*
X151819000Y-107496000D01*
X154251000Y-107496000D01*
X154251000Y-108404000D01*
X154251000Y-108404000D01*
G37*
G36*
X144091000Y-108404000D02*
X141659000Y-108404000D01*
X141659000Y-107496000D01*
X144091000Y-107496000D01*
X144091000Y-108404000D01*
X144091000Y-108404000D01*
G37*
G36*
X122045888Y-105634470D02*
X122226274Y-105670350D01*
X122417362Y-105749502D01*
X122589336Y-105864411D01*
X122735589Y-106010664D01*
X122850498Y-106182638D01*
X122929650Y-106373726D01*
X122970000Y-106576584D01*
X122970000Y-106783416D01*
X122929650Y-106986274D01*
X122850498Y-107177362D01*
X122735589Y-107349336D01*
X122589336Y-107495589D01*
X122417362Y-107610498D01*
X122226274Y-107689650D01*
X122045888Y-107725530D01*
X122023417Y-107730000D01*
X121816583Y-107730000D01*
X121794112Y-107725530D01*
X121613726Y-107689650D01*
X121422638Y-107610498D01*
X121250664Y-107495589D01*
X121104411Y-107349336D01*
X120989502Y-107177362D01*
X120910350Y-106986274D01*
X120870000Y-106783416D01*
X120870000Y-106576584D01*
X120910350Y-106373726D01*
X120989502Y-106182638D01*
X121104411Y-106010664D01*
X121250664Y-105864411D01*
X121422638Y-105749502D01*
X121613726Y-105670350D01*
X121794112Y-105634470D01*
X121816583Y-105630000D01*
X122023417Y-105630000D01*
X122045888Y-105634470D01*
X122045888Y-105634470D01*
G37*
G36*
X156459888Y-105634470D02*
X156640274Y-105670350D01*
X156831362Y-105749502D01*
X157003336Y-105864411D01*
X157149589Y-106010664D01*
X157264498Y-106182638D01*
X157343650Y-106373726D01*
X157384000Y-106576584D01*
X157384000Y-106783416D01*
X157343650Y-106986274D01*
X157264498Y-107177362D01*
X157149589Y-107349336D01*
X157003336Y-107495589D01*
X156831362Y-107610498D01*
X156640274Y-107689650D01*
X156459888Y-107725530D01*
X156437417Y-107730000D01*
X156230583Y-107730000D01*
X156208112Y-107725530D01*
X156027726Y-107689650D01*
X155836638Y-107610498D01*
X155664664Y-107495589D01*
X155518411Y-107349336D01*
X155403502Y-107177362D01*
X155324350Y-106986274D01*
X155284000Y-106783416D01*
X155284000Y-106576584D01*
X155324350Y-106373726D01*
X155403502Y-106182638D01*
X155518411Y-106010664D01*
X155664664Y-105864411D01*
X155836638Y-105749502D01*
X156027726Y-105670350D01*
X156208112Y-105634470D01*
X156230583Y-105630000D01*
X156437417Y-105630000D01*
X156459888Y-105634470D01*
X156459888Y-105634470D01*
G37*
G36*
X129486000Y-107134000D02*
X127054000Y-107134000D01*
X127054000Y-106226000D01*
X129486000Y-106226000D01*
X129486000Y-107134000D01*
X129486000Y-107134000D01*
G37*
G36*
X144091000Y-107134000D02*
X141659000Y-107134000D01*
X141659000Y-106226000D01*
X144091000Y-106226000D01*
X144091000Y-107134000D01*
X144091000Y-107134000D01*
G37*
G36*
X139646000Y-107134000D02*
X137214000Y-107134000D01*
X137214000Y-106226000D01*
X139646000Y-106226000D01*
X139646000Y-107134000D01*
X139646000Y-107134000D01*
G37*
G36*
X154251000Y-107134000D02*
X151819000Y-107134000D01*
X151819000Y-106226000D01*
X154251000Y-106226000D01*
X154251000Y-107134000D01*
X154251000Y-107134000D01*
G37*
G36*
X124845888Y-104364470D02*
X125026274Y-104400350D01*
X125217362Y-104479502D01*
X125389336Y-104594411D01*
X125535589Y-104740664D01*
X125650498Y-104912638D01*
X125729650Y-105103726D01*
X125770000Y-105306584D01*
X125770000Y-105513416D01*
X125729650Y-105716274D01*
X125650498Y-105907362D01*
X125535589Y-106079336D01*
X125389336Y-106225589D01*
X125217362Y-106340498D01*
X125026274Y-106419650D01*
X124845888Y-106455530D01*
X124823417Y-106460000D01*
X124616583Y-106460000D01*
X124594112Y-106455530D01*
X124413726Y-106419650D01*
X124222638Y-106340498D01*
X124050664Y-106225589D01*
X123904411Y-106079336D01*
X123789502Y-105907362D01*
X123710350Y-105716274D01*
X123670000Y-105513416D01*
X123670000Y-105306584D01*
X123710350Y-105103726D01*
X123789502Y-104912638D01*
X123904411Y-104740664D01*
X124050664Y-104594411D01*
X124222638Y-104479502D01*
X124413726Y-104400350D01*
X124594112Y-104364470D01*
X124616583Y-104360000D01*
X124823417Y-104360000D01*
X124845888Y-104364470D01*
X124845888Y-104364470D01*
G37*
G36*
X159259888Y-104364470D02*
X159440274Y-104400350D01*
X159631362Y-104479502D01*
X159803336Y-104594411D01*
X159949589Y-104740664D01*
X160064498Y-104912638D01*
X160143650Y-105103726D01*
X160184000Y-105306584D01*
X160184000Y-105513416D01*
X160143650Y-105716274D01*
X160064498Y-105907362D01*
X159949589Y-106079336D01*
X159803336Y-106225589D01*
X159631362Y-106340498D01*
X159440274Y-106419650D01*
X159259888Y-106455530D01*
X159237417Y-106460000D01*
X159030583Y-106460000D01*
X159008112Y-106455530D01*
X158827726Y-106419650D01*
X158636638Y-106340498D01*
X158464664Y-106225589D01*
X158318411Y-106079336D01*
X158203502Y-105907362D01*
X158124350Y-105716274D01*
X158084000Y-105513416D01*
X158084000Y-105306584D01*
X158124350Y-105103726D01*
X158203502Y-104912638D01*
X158318411Y-104740664D01*
X158464664Y-104594411D01*
X158636638Y-104479502D01*
X158827726Y-104400350D01*
X159008112Y-104364470D01*
X159030583Y-104360000D01*
X159237417Y-104360000D01*
X159259888Y-104364470D01*
X159259888Y-104364470D01*
G37*
G36*
X144091000Y-105864000D02*
X141659000Y-105864000D01*
X141659000Y-104956000D01*
X144091000Y-104956000D01*
X144091000Y-105864000D01*
X144091000Y-105864000D01*
G37*
G36*
X129486000Y-105864000D02*
X127054000Y-105864000D01*
X127054000Y-104956000D01*
X129486000Y-104956000D01*
X129486000Y-105864000D01*
X129486000Y-105864000D01*
G37*
G36*
X139646000Y-105864000D02*
X137214000Y-105864000D01*
X137214000Y-104956000D01*
X139646000Y-104956000D01*
X139646000Y-105864000D01*
X139646000Y-105864000D01*
G37*
G36*
X154251000Y-105864000D02*
X151819000Y-105864000D01*
X151819000Y-104956000D01*
X154251000Y-104956000D01*
X154251000Y-105864000D01*
X154251000Y-105864000D01*
G37*
G36*
X122045888Y-103094470D02*
X122226274Y-103130350D01*
X122417362Y-103209502D01*
X122589336Y-103324411D01*
X122735589Y-103470664D01*
X122850498Y-103642638D01*
X122929650Y-103833726D01*
X122970000Y-104036584D01*
X122970000Y-104243416D01*
X122929650Y-104446274D01*
X122850498Y-104637362D01*
X122735589Y-104809336D01*
X122589336Y-104955589D01*
X122417362Y-105070498D01*
X122226274Y-105149650D01*
X122045888Y-105185530D01*
X122023417Y-105190000D01*
X121816583Y-105190000D01*
X121794112Y-105185530D01*
X121613726Y-105149650D01*
X121422638Y-105070498D01*
X121250664Y-104955589D01*
X121104411Y-104809336D01*
X120989502Y-104637362D01*
X120910350Y-104446274D01*
X120870000Y-104243416D01*
X120870000Y-104036584D01*
X120910350Y-103833726D01*
X120989502Y-103642638D01*
X121104411Y-103470664D01*
X121250664Y-103324411D01*
X121422638Y-103209502D01*
X121613726Y-103130350D01*
X121794112Y-103094470D01*
X121816583Y-103090000D01*
X122023417Y-103090000D01*
X122045888Y-103094470D01*
X122045888Y-103094470D01*
G37*
G36*
X156459888Y-103094470D02*
X156640274Y-103130350D01*
X156831362Y-103209502D01*
X157003336Y-103324411D01*
X157149589Y-103470664D01*
X157264498Y-103642638D01*
X157343650Y-103833726D01*
X157384000Y-104036584D01*
X157384000Y-104243416D01*
X157343650Y-104446274D01*
X157264498Y-104637362D01*
X157149589Y-104809336D01*
X157003336Y-104955589D01*
X156831362Y-105070498D01*
X156640274Y-105149650D01*
X156459888Y-105185530D01*
X156437417Y-105190000D01*
X156230583Y-105190000D01*
X156208112Y-105185530D01*
X156027726Y-105149650D01*
X155836638Y-105070498D01*
X155664664Y-104955589D01*
X155518411Y-104809336D01*
X155403502Y-104637362D01*
X155324350Y-104446274D01*
X155284000Y-104243416D01*
X155284000Y-104036584D01*
X155324350Y-103833726D01*
X155403502Y-103642638D01*
X155518411Y-103470664D01*
X155664664Y-103324411D01*
X155836638Y-103209502D01*
X156027726Y-103130350D01*
X156208112Y-103094470D01*
X156230583Y-103090000D01*
X156437417Y-103090000D01*
X156459888Y-103094470D01*
X156459888Y-103094470D01*
G37*
G36*
X129486000Y-104594000D02*
X127054000Y-104594000D01*
X127054000Y-103686000D01*
X129486000Y-103686000D01*
X129486000Y-104594000D01*
X129486000Y-104594000D01*
G37*
G36*
X154251000Y-104594000D02*
X151819000Y-104594000D01*
X151819000Y-103686000D01*
X154251000Y-103686000D01*
X154251000Y-104594000D01*
X154251000Y-104594000D01*
G37*
G36*
X144091000Y-104594000D02*
X141659000Y-104594000D01*
X141659000Y-103686000D01*
X144091000Y-103686000D01*
X144091000Y-104594000D01*
X144091000Y-104594000D01*
G37*
G36*
X139646000Y-104594000D02*
X137214000Y-104594000D01*
X137214000Y-103686000D01*
X139646000Y-103686000D01*
X139646000Y-104594000D01*
X139646000Y-104594000D01*
G37*
G36*
X124845888Y-101824470D02*
X125026274Y-101860350D01*
X125217362Y-101939502D01*
X125389336Y-102054411D01*
X125535589Y-102200664D01*
X125650498Y-102372638D01*
X125729650Y-102563726D01*
X125770000Y-102766584D01*
X125770000Y-102973416D01*
X125729650Y-103176274D01*
X125650498Y-103367362D01*
X125535589Y-103539336D01*
X125389336Y-103685589D01*
X125217362Y-103800498D01*
X125026274Y-103879650D01*
X124845888Y-103915530D01*
X124823417Y-103920000D01*
X124616583Y-103920000D01*
X124594112Y-103915530D01*
X124413726Y-103879650D01*
X124222638Y-103800498D01*
X124050664Y-103685589D01*
X123904411Y-103539336D01*
X123789502Y-103367362D01*
X123710350Y-103176274D01*
X123670000Y-102973416D01*
X123670000Y-102766584D01*
X123710350Y-102563726D01*
X123789502Y-102372638D01*
X123904411Y-102200664D01*
X124050664Y-102054411D01*
X124222638Y-101939502D01*
X124413726Y-101860350D01*
X124594112Y-101824470D01*
X124616583Y-101820000D01*
X124823417Y-101820000D01*
X124845888Y-101824470D01*
X124845888Y-101824470D01*
G37*
G36*
X159259888Y-101824470D02*
X159440274Y-101860350D01*
X159631362Y-101939502D01*
X159803336Y-102054411D01*
X159949589Y-102200664D01*
X160064498Y-102372638D01*
X160143650Y-102563726D01*
X160184000Y-102766584D01*
X160184000Y-102973416D01*
X160143650Y-103176274D01*
X160064498Y-103367362D01*
X159949589Y-103539336D01*
X159803336Y-103685589D01*
X159631362Y-103800498D01*
X159440274Y-103879650D01*
X159259888Y-103915530D01*
X159237417Y-103920000D01*
X159030583Y-103920000D01*
X159008112Y-103915530D01*
X158827726Y-103879650D01*
X158636638Y-103800498D01*
X158464664Y-103685589D01*
X158318411Y-103539336D01*
X158203502Y-103367362D01*
X158124350Y-103176274D01*
X158084000Y-102973416D01*
X158084000Y-102766584D01*
X158124350Y-102563726D01*
X158203502Y-102372638D01*
X158318411Y-102200664D01*
X158464664Y-102054411D01*
X158636638Y-101939502D01*
X158827726Y-101860350D01*
X159008112Y-101824470D01*
X159030583Y-101820000D01*
X159237417Y-101820000D01*
X159259888Y-101824470D01*
X159259888Y-101824470D01*
G37*
G36*
X154251000Y-103324000D02*
X151819000Y-103324000D01*
X151819000Y-102416000D01*
X154251000Y-102416000D01*
X154251000Y-103324000D01*
X154251000Y-103324000D01*
G37*
G36*
X129486000Y-103324000D02*
X127054000Y-103324000D01*
X127054000Y-102416000D01*
X129486000Y-102416000D01*
X129486000Y-103324000D01*
X129486000Y-103324000D01*
G37*
G36*
X139646000Y-103324000D02*
X137214000Y-103324000D01*
X137214000Y-102416000D01*
X139646000Y-102416000D01*
X139646000Y-103324000D01*
X139646000Y-103324000D01*
G37*
G36*
X144091000Y-103324000D02*
X141659000Y-103324000D01*
X141659000Y-102416000D01*
X144091000Y-102416000D01*
X144091000Y-103324000D01*
X144091000Y-103324000D01*
G37*
G36*
X156459888Y-100554470D02*
X156640274Y-100590350D01*
X156831362Y-100669502D01*
X157003336Y-100784411D01*
X157149589Y-100930664D01*
X157264498Y-101102638D01*
X157343650Y-101293726D01*
X157384000Y-101496584D01*
X157384000Y-101703416D01*
X157343650Y-101906274D01*
X157264498Y-102097362D01*
X157149589Y-102269336D01*
X157003336Y-102415589D01*
X156831362Y-102530498D01*
X156640274Y-102609650D01*
X156459888Y-102645530D01*
X156437417Y-102650000D01*
X156230583Y-102650000D01*
X156208112Y-102645530D01*
X156027726Y-102609650D01*
X155836638Y-102530498D01*
X155664664Y-102415589D01*
X155518411Y-102269336D01*
X155403502Y-102097362D01*
X155324350Y-101906274D01*
X155284000Y-101703416D01*
X155284000Y-101496584D01*
X155324350Y-101293726D01*
X155403502Y-101102638D01*
X155518411Y-100930664D01*
X155664664Y-100784411D01*
X155836638Y-100669502D01*
X156027726Y-100590350D01*
X156208112Y-100554470D01*
X156230583Y-100550000D01*
X156437417Y-100550000D01*
X156459888Y-100554470D01*
X156459888Y-100554470D01*
G37*
G36*
X122045888Y-100554470D02*
X122226274Y-100590350D01*
X122417362Y-100669502D01*
X122589336Y-100784411D01*
X122735589Y-100930664D01*
X122850498Y-101102638D01*
X122929650Y-101293726D01*
X122970000Y-101496584D01*
X122970000Y-101703416D01*
X122929650Y-101906274D01*
X122850498Y-102097362D01*
X122735589Y-102269336D01*
X122589336Y-102415589D01*
X122417362Y-102530498D01*
X122226274Y-102609650D01*
X122045888Y-102645530D01*
X122023417Y-102650000D01*
X121816583Y-102650000D01*
X121794112Y-102645530D01*
X121613726Y-102609650D01*
X121422638Y-102530498D01*
X121250664Y-102415589D01*
X121104411Y-102269336D01*
X120989502Y-102097362D01*
X120910350Y-101906274D01*
X120870000Y-101703416D01*
X120870000Y-101496584D01*
X120910350Y-101293726D01*
X120989502Y-101102638D01*
X121104411Y-100930664D01*
X121250664Y-100784411D01*
X121422638Y-100669502D01*
X121613726Y-100590350D01*
X121794112Y-100554470D01*
X121816583Y-100550000D01*
X122023417Y-100550000D01*
X122045888Y-100554470D01*
X122045888Y-100554470D01*
G37*
G36*
X154251000Y-102054000D02*
X151819000Y-102054000D01*
X151819000Y-101146000D01*
X154251000Y-101146000D01*
X154251000Y-102054000D01*
X154251000Y-102054000D01*
G37*
G36*
X129486000Y-102054000D02*
X127054000Y-102054000D01*
X127054000Y-101146000D01*
X129486000Y-101146000D01*
X129486000Y-102054000D01*
X129486000Y-102054000D01*
G37*
G36*
X144091000Y-102054000D02*
X141659000Y-102054000D01*
X141659000Y-101146000D01*
X144091000Y-101146000D01*
X144091000Y-102054000D01*
X144091000Y-102054000D01*
G37*
G36*
X139646000Y-102054000D02*
X137214000Y-102054000D01*
X137214000Y-101146000D01*
X139646000Y-101146000D01*
X139646000Y-102054000D01*
X139646000Y-102054000D01*
G37*
G36*
X159259888Y-99284470D02*
X159440274Y-99320350D01*
X159631362Y-99399502D01*
X159803336Y-99514411D01*
X159949589Y-99660664D01*
X160064498Y-99832638D01*
X160143650Y-100023726D01*
X160184000Y-100226584D01*
X160184000Y-100433416D01*
X160143650Y-100636274D01*
X160064498Y-100827362D01*
X159949589Y-100999336D01*
X159803336Y-101145589D01*
X159631362Y-101260498D01*
X159440274Y-101339650D01*
X159259888Y-101375530D01*
X159237417Y-101380000D01*
X159030583Y-101380000D01*
X159008112Y-101375530D01*
X158827726Y-101339650D01*
X158636638Y-101260498D01*
X158464664Y-101145589D01*
X158318411Y-100999336D01*
X158203502Y-100827362D01*
X158124350Y-100636274D01*
X158084000Y-100433416D01*
X158084000Y-100226584D01*
X158124350Y-100023726D01*
X158203502Y-99832638D01*
X158318411Y-99660664D01*
X158464664Y-99514411D01*
X158636638Y-99399502D01*
X158827726Y-99320350D01*
X159008112Y-99284470D01*
X159030583Y-99280000D01*
X159237417Y-99280000D01*
X159259888Y-99284470D01*
X159259888Y-99284470D01*
G37*
G36*
X124845888Y-99284470D02*
X125026274Y-99320350D01*
X125217362Y-99399502D01*
X125389336Y-99514411D01*
X125535589Y-99660664D01*
X125650498Y-99832638D01*
X125729650Y-100023726D01*
X125770000Y-100226584D01*
X125770000Y-100433416D01*
X125729650Y-100636274D01*
X125650498Y-100827362D01*
X125535589Y-100999336D01*
X125389336Y-101145589D01*
X125217362Y-101260498D01*
X125026274Y-101339650D01*
X124845888Y-101375530D01*
X124823417Y-101380000D01*
X124616583Y-101380000D01*
X124594112Y-101375530D01*
X124413726Y-101339650D01*
X124222638Y-101260498D01*
X124050664Y-101145589D01*
X123904411Y-100999336D01*
X123789502Y-100827362D01*
X123710350Y-100636274D01*
X123670000Y-100433416D01*
X123670000Y-100226584D01*
X123710350Y-100023726D01*
X123789502Y-99832638D01*
X123904411Y-99660664D01*
X124050664Y-99514411D01*
X124222638Y-99399502D01*
X124413726Y-99320350D01*
X124594112Y-99284470D01*
X124616583Y-99280000D01*
X124823417Y-99280000D01*
X124845888Y-99284470D01*
X124845888Y-99284470D01*
G37*
G36*
X129486000Y-100784000D02*
X127054000Y-100784000D01*
X127054000Y-99876000D01*
X129486000Y-99876000D01*
X129486000Y-100784000D01*
X129486000Y-100784000D01*
G37*
G36*
X139646000Y-100784000D02*
X137214000Y-100784000D01*
X137214000Y-99876000D01*
X139646000Y-99876000D01*
X139646000Y-100784000D01*
X139646000Y-100784000D01*
G37*
G36*
X144091000Y-100784000D02*
X141659000Y-100784000D01*
X141659000Y-99876000D01*
X144091000Y-99876000D01*
X144091000Y-100784000D01*
X144091000Y-100784000D01*
G37*
G36*
X154251000Y-100784000D02*
X151819000Y-100784000D01*
X151819000Y-99876000D01*
X154251000Y-99876000D01*
X154251000Y-100784000D01*
X154251000Y-100784000D01*
G37*
G36*
X122045888Y-98014470D02*
X122226274Y-98050350D01*
X122417362Y-98129502D01*
X122589336Y-98244411D01*
X122735589Y-98390664D01*
X122850498Y-98562638D01*
X122929650Y-98753726D01*
X122970000Y-98956584D01*
X122970000Y-99163416D01*
X122929650Y-99366274D01*
X122850498Y-99557362D01*
X122735589Y-99729336D01*
X122589336Y-99875589D01*
X122417362Y-99990498D01*
X122226274Y-100069650D01*
X122045888Y-100105530D01*
X122023417Y-100110000D01*
X121816583Y-100110000D01*
X121794112Y-100105530D01*
X121613726Y-100069650D01*
X121422638Y-99990498D01*
X121250664Y-99875589D01*
X121104411Y-99729336D01*
X120989502Y-99557362D01*
X120910350Y-99366274D01*
X120870000Y-99163416D01*
X120870000Y-98956584D01*
X120910350Y-98753726D01*
X120989502Y-98562638D01*
X121104411Y-98390664D01*
X121250664Y-98244411D01*
X121422638Y-98129502D01*
X121613726Y-98050350D01*
X121794112Y-98014470D01*
X121816583Y-98010000D01*
X122023417Y-98010000D01*
X122045888Y-98014470D01*
X122045888Y-98014470D01*
G37*
G36*
X156459888Y-98014470D02*
X156640274Y-98050350D01*
X156831362Y-98129502D01*
X157003336Y-98244411D01*
X157149589Y-98390664D01*
X157264498Y-98562638D01*
X157343650Y-98753726D01*
X157384000Y-98956584D01*
X157384000Y-99163416D01*
X157343650Y-99366274D01*
X157264498Y-99557362D01*
X157149589Y-99729336D01*
X157003336Y-99875589D01*
X156831362Y-99990498D01*
X156640274Y-100069650D01*
X156459888Y-100105530D01*
X156437417Y-100110000D01*
X156230583Y-100110000D01*
X156208112Y-100105530D01*
X156027726Y-100069650D01*
X155836638Y-99990498D01*
X155664664Y-99875589D01*
X155518411Y-99729336D01*
X155403502Y-99557362D01*
X155324350Y-99366274D01*
X155284000Y-99163416D01*
X155284000Y-98956584D01*
X155324350Y-98753726D01*
X155403502Y-98562638D01*
X155518411Y-98390664D01*
X155664664Y-98244411D01*
X155836638Y-98129502D01*
X156027726Y-98050350D01*
X156208112Y-98014470D01*
X156230583Y-98010000D01*
X156437417Y-98010000D01*
X156459888Y-98014470D01*
X156459888Y-98014470D01*
G37*
G36*
X154251000Y-99514000D02*
X151819000Y-99514000D01*
X151819000Y-98606000D01*
X154251000Y-98606000D01*
X154251000Y-99514000D01*
X154251000Y-99514000D01*
G37*
G36*
X139646000Y-99514000D02*
X137214000Y-99514000D01*
X137214000Y-98606000D01*
X139646000Y-98606000D01*
X139646000Y-99514000D01*
X139646000Y-99514000D01*
G37*
G36*
X144091000Y-99514000D02*
X141659000Y-99514000D01*
X141659000Y-98606000D01*
X144091000Y-98606000D01*
X144091000Y-99514000D01*
X144091000Y-99514000D01*
G37*
G36*
X129486000Y-99514000D02*
X127054000Y-99514000D01*
X127054000Y-98606000D01*
X129486000Y-98606000D01*
X129486000Y-99514000D01*
X129486000Y-99514000D01*
G37*
G36*
X124845888Y-96744470D02*
X125026274Y-96780350D01*
X125217362Y-96859502D01*
X125389336Y-96974411D01*
X125535589Y-97120664D01*
X125650498Y-97292638D01*
X125729650Y-97483726D01*
X125770000Y-97686584D01*
X125770000Y-97893416D01*
X125729650Y-98096274D01*
X125650498Y-98287362D01*
X125535589Y-98459336D01*
X125389336Y-98605589D01*
X125217362Y-98720498D01*
X125026274Y-98799650D01*
X124845888Y-98835530D01*
X124823417Y-98840000D01*
X124616583Y-98840000D01*
X124594112Y-98835530D01*
X124413726Y-98799650D01*
X124222638Y-98720498D01*
X124050664Y-98605589D01*
X123904411Y-98459336D01*
X123789502Y-98287362D01*
X123710350Y-98096274D01*
X123670000Y-97893416D01*
X123670000Y-97686584D01*
X123710350Y-97483726D01*
X123789502Y-97292638D01*
X123904411Y-97120664D01*
X124050664Y-96974411D01*
X124222638Y-96859502D01*
X124413726Y-96780350D01*
X124594112Y-96744470D01*
X124616583Y-96740000D01*
X124823417Y-96740000D01*
X124845888Y-96744470D01*
X124845888Y-96744470D01*
G37*
G36*
X159259888Y-96744470D02*
X159440274Y-96780350D01*
X159631362Y-96859502D01*
X159803336Y-96974411D01*
X159949589Y-97120664D01*
X160064498Y-97292638D01*
X160143650Y-97483726D01*
X160184000Y-97686584D01*
X160184000Y-97893416D01*
X160143650Y-98096274D01*
X160064498Y-98287362D01*
X159949589Y-98459336D01*
X159803336Y-98605589D01*
X159631362Y-98720498D01*
X159440274Y-98799650D01*
X159259888Y-98835530D01*
X159237417Y-98840000D01*
X159030583Y-98840000D01*
X159008112Y-98835530D01*
X158827726Y-98799650D01*
X158636638Y-98720498D01*
X158464664Y-98605589D01*
X158318411Y-98459336D01*
X158203502Y-98287362D01*
X158124350Y-98096274D01*
X158084000Y-97893416D01*
X158084000Y-97686584D01*
X158124350Y-97483726D01*
X158203502Y-97292638D01*
X158318411Y-97120664D01*
X158464664Y-96974411D01*
X158636638Y-96859502D01*
X158827726Y-96780350D01*
X159008112Y-96744470D01*
X159030583Y-96740000D01*
X159237417Y-96740000D01*
X159259888Y-96744470D01*
X159259888Y-96744470D01*
G37*
G36*
X129486000Y-98244000D02*
X127054000Y-98244000D01*
X127054000Y-97336000D01*
X129486000Y-97336000D01*
X129486000Y-98244000D01*
X129486000Y-98244000D01*
G37*
G36*
X139646000Y-98244000D02*
X137214000Y-98244000D01*
X137214000Y-97336000D01*
X139646000Y-97336000D01*
X139646000Y-98244000D01*
X139646000Y-98244000D01*
G37*
G36*
X144091000Y-98244000D02*
X141659000Y-98244000D01*
X141659000Y-97336000D01*
X144091000Y-97336000D01*
X144091000Y-98244000D01*
X144091000Y-98244000D01*
G37*
G36*
X154251000Y-98244000D02*
X151819000Y-98244000D01*
X151819000Y-97336000D01*
X154251000Y-97336000D01*
X154251000Y-98244000D01*
X154251000Y-98244000D01*
G37*
G36*
X156459888Y-95474470D02*
X156640274Y-95510350D01*
X156831362Y-95589502D01*
X157003336Y-95704411D01*
X157149589Y-95850664D01*
X157264498Y-96022638D01*
X157343650Y-96213726D01*
X157384000Y-96416584D01*
X157384000Y-96623416D01*
X157343650Y-96826274D01*
X157264498Y-97017362D01*
X157149589Y-97189336D01*
X157003336Y-97335589D01*
X156831362Y-97450498D01*
X156640274Y-97529650D01*
X156459888Y-97565530D01*
X156437417Y-97570000D01*
X156230583Y-97570000D01*
X156208112Y-97565530D01*
X156027726Y-97529650D01*
X155836638Y-97450498D01*
X155664664Y-97335589D01*
X155518411Y-97189336D01*
X155403502Y-97017362D01*
X155324350Y-96826274D01*
X155284000Y-96623416D01*
X155284000Y-96416584D01*
X155324350Y-96213726D01*
X155403502Y-96022638D01*
X155518411Y-95850664D01*
X155664664Y-95704411D01*
X155836638Y-95589502D01*
X156027726Y-95510350D01*
X156208112Y-95474470D01*
X156230583Y-95470000D01*
X156437417Y-95470000D01*
X156459888Y-95474470D01*
X156459888Y-95474470D01*
G37*
G36*
X122045888Y-95474470D02*
X122226274Y-95510350D01*
X122417362Y-95589502D01*
X122589336Y-95704411D01*
X122735589Y-95850664D01*
X122850498Y-96022638D01*
X122929650Y-96213726D01*
X122970000Y-96416584D01*
X122970000Y-96623416D01*
X122929650Y-96826274D01*
X122850498Y-97017362D01*
X122735589Y-97189336D01*
X122589336Y-97335589D01*
X122417362Y-97450498D01*
X122226274Y-97529650D01*
X122045888Y-97565530D01*
X122023417Y-97570000D01*
X121816583Y-97570000D01*
X121794112Y-97565530D01*
X121613726Y-97529650D01*
X121422638Y-97450498D01*
X121250664Y-97335589D01*
X121104411Y-97189336D01*
X120989502Y-97017362D01*
X120910350Y-96826274D01*
X120870000Y-96623416D01*
X120870000Y-96416584D01*
X120910350Y-96213726D01*
X120989502Y-96022638D01*
X121104411Y-95850664D01*
X121250664Y-95704411D01*
X121422638Y-95589502D01*
X121613726Y-95510350D01*
X121794112Y-95474470D01*
X121816583Y-95470000D01*
X122023417Y-95470000D01*
X122045888Y-95474470D01*
X122045888Y-95474470D01*
G37*
G36*
X129486000Y-96974000D02*
X127054000Y-96974000D01*
X127054000Y-96066000D01*
X129486000Y-96066000D01*
X129486000Y-96974000D01*
X129486000Y-96974000D01*
G37*
G36*
X139646000Y-96974000D02*
X137214000Y-96974000D01*
X137214000Y-96066000D01*
X139646000Y-96066000D01*
X139646000Y-96974000D01*
X139646000Y-96974000D01*
G37*
G36*
X144091000Y-96974000D02*
X141659000Y-96974000D01*
X141659000Y-96066000D01*
X144091000Y-96066000D01*
X144091000Y-96974000D01*
X144091000Y-96974000D01*
G37*
G36*
X154251000Y-96974000D02*
X151819000Y-96974000D01*
X151819000Y-96066000D01*
X154251000Y-96066000D01*
X154251000Y-96974000D01*
X154251000Y-96974000D01*
G37*
G36*
X124845888Y-94204470D02*
X125026274Y-94240350D01*
X125217362Y-94319502D01*
X125389336Y-94434411D01*
X125535589Y-94580664D01*
X125650498Y-94752638D01*
X125729650Y-94943726D01*
X125770000Y-95146584D01*
X125770000Y-95353416D01*
X125729650Y-95556274D01*
X125650498Y-95747362D01*
X125535589Y-95919336D01*
X125389336Y-96065589D01*
X125217362Y-96180498D01*
X125026274Y-96259650D01*
X124845888Y-96295530D01*
X124823417Y-96300000D01*
X124616583Y-96300000D01*
X124594112Y-96295530D01*
X124413726Y-96259650D01*
X124222638Y-96180498D01*
X124050664Y-96065589D01*
X123904411Y-95919336D01*
X123789502Y-95747362D01*
X123710350Y-95556274D01*
X123670000Y-95353416D01*
X123670000Y-95146584D01*
X123710350Y-94943726D01*
X123789502Y-94752638D01*
X123904411Y-94580664D01*
X124050664Y-94434411D01*
X124222638Y-94319502D01*
X124413726Y-94240350D01*
X124594112Y-94204470D01*
X124616583Y-94200000D01*
X124823417Y-94200000D01*
X124845888Y-94204470D01*
X124845888Y-94204470D01*
G37*
G36*
X159259888Y-94204470D02*
X159440274Y-94240350D01*
X159631362Y-94319502D01*
X159803336Y-94434411D01*
X159949589Y-94580664D01*
X160064498Y-94752638D01*
X160143650Y-94943726D01*
X160184000Y-95146584D01*
X160184000Y-95353416D01*
X160143650Y-95556274D01*
X160064498Y-95747362D01*
X159949589Y-95919336D01*
X159803336Y-96065589D01*
X159631362Y-96180498D01*
X159440274Y-96259650D01*
X159259888Y-96295530D01*
X159237417Y-96300000D01*
X159030583Y-96300000D01*
X159008112Y-96295530D01*
X158827726Y-96259650D01*
X158636638Y-96180498D01*
X158464664Y-96065589D01*
X158318411Y-95919336D01*
X158203502Y-95747362D01*
X158124350Y-95556274D01*
X158084000Y-95353416D01*
X158084000Y-95146584D01*
X158124350Y-94943726D01*
X158203502Y-94752638D01*
X158318411Y-94580664D01*
X158464664Y-94434411D01*
X158636638Y-94319502D01*
X158827726Y-94240350D01*
X159008112Y-94204470D01*
X159030583Y-94200000D01*
X159237417Y-94200000D01*
X159259888Y-94204470D01*
X159259888Y-94204470D01*
G37*
G36*
X129486000Y-95704000D02*
X127054000Y-95704000D01*
X127054000Y-94796000D01*
X129486000Y-94796000D01*
X129486000Y-95704000D01*
X129486000Y-95704000D01*
G37*
G36*
X144091000Y-95704000D02*
X141659000Y-95704000D01*
X141659000Y-94796000D01*
X144091000Y-94796000D01*
X144091000Y-95704000D01*
X144091000Y-95704000D01*
G37*
G36*
X154251000Y-95704000D02*
X151819000Y-95704000D01*
X151819000Y-94796000D01*
X154251000Y-94796000D01*
X154251000Y-95704000D01*
X154251000Y-95704000D01*
G37*
G36*
X139646000Y-95704000D02*
X137214000Y-95704000D01*
X137214000Y-94796000D01*
X139646000Y-94796000D01*
X139646000Y-95704000D01*
X139646000Y-95704000D01*
G37*
G36*
X156459888Y-92934470D02*
X156640274Y-92970350D01*
X156831362Y-93049502D01*
X157003336Y-93164411D01*
X157149589Y-93310664D01*
X157264498Y-93482638D01*
X157343650Y-93673726D01*
X157384000Y-93876584D01*
X157384000Y-94083416D01*
X157343650Y-94286274D01*
X157264498Y-94477362D01*
X157149589Y-94649336D01*
X157003336Y-94795589D01*
X156831362Y-94910498D01*
X156640274Y-94989650D01*
X156459888Y-95025530D01*
X156437417Y-95030000D01*
X156230583Y-95030000D01*
X156208112Y-95025530D01*
X156027726Y-94989650D01*
X155836638Y-94910498D01*
X155664664Y-94795589D01*
X155518411Y-94649336D01*
X155403502Y-94477362D01*
X155324350Y-94286274D01*
X155284000Y-94083416D01*
X155284000Y-93876584D01*
X155324350Y-93673726D01*
X155403502Y-93482638D01*
X155518411Y-93310664D01*
X155664664Y-93164411D01*
X155836638Y-93049502D01*
X156027726Y-92970350D01*
X156208112Y-92934470D01*
X156230583Y-92930000D01*
X156437417Y-92930000D01*
X156459888Y-92934470D01*
X156459888Y-92934470D01*
G37*
G36*
X122045888Y-92934470D02*
X122226274Y-92970350D01*
X122417362Y-93049502D01*
X122589336Y-93164411D01*
X122735589Y-93310664D01*
X122850498Y-93482638D01*
X122929650Y-93673726D01*
X122970000Y-93876584D01*
X122970000Y-94083416D01*
X122929650Y-94286274D01*
X122850498Y-94477362D01*
X122735589Y-94649336D01*
X122589336Y-94795589D01*
X122417362Y-94910498D01*
X122226274Y-94989650D01*
X122045888Y-95025530D01*
X122023417Y-95030000D01*
X121816583Y-95030000D01*
X121794112Y-95025530D01*
X121613726Y-94989650D01*
X121422638Y-94910498D01*
X121250664Y-94795589D01*
X121104411Y-94649336D01*
X120989502Y-94477362D01*
X120910350Y-94286274D01*
X120870000Y-94083416D01*
X120870000Y-93876584D01*
X120910350Y-93673726D01*
X120989502Y-93482638D01*
X121104411Y-93310664D01*
X121250664Y-93164411D01*
X121422638Y-93049502D01*
X121613726Y-92970350D01*
X121794112Y-92934470D01*
X121816583Y-92930000D01*
X122023417Y-92930000D01*
X122045888Y-92934470D01*
X122045888Y-92934470D01*
G37*
G36*
X154251000Y-94434000D02*
X151819000Y-94434000D01*
X151819000Y-93526000D01*
X154251000Y-93526000D01*
X154251000Y-94434000D01*
X154251000Y-94434000D01*
G37*
G36*
X139646000Y-94434000D02*
X137214000Y-94434000D01*
X137214000Y-93526000D01*
X139646000Y-93526000D01*
X139646000Y-94434000D01*
X139646000Y-94434000D01*
G37*
G36*
X129486000Y-94434000D02*
X127054000Y-94434000D01*
X127054000Y-93526000D01*
X129486000Y-93526000D01*
X129486000Y-94434000D01*
X129486000Y-94434000D01*
G37*
G36*
X144091000Y-94434000D02*
X141659000Y-94434000D01*
X141659000Y-93526000D01*
X144091000Y-93526000D01*
X144091000Y-94434000D01*
X144091000Y-94434000D01*
G37*
G36*
X159259888Y-91664470D02*
X159440274Y-91700350D01*
X159631362Y-91779502D01*
X159803336Y-91894411D01*
X159949589Y-92040664D01*
X160064498Y-92212638D01*
X160143650Y-92403726D01*
X160184000Y-92606584D01*
X160184000Y-92813416D01*
X160143650Y-93016274D01*
X160064498Y-93207362D01*
X159949589Y-93379336D01*
X159803336Y-93525589D01*
X159631362Y-93640498D01*
X159440274Y-93719650D01*
X159259888Y-93755530D01*
X159237417Y-93760000D01*
X159030583Y-93760000D01*
X159008112Y-93755530D01*
X158827726Y-93719650D01*
X158636638Y-93640498D01*
X158464664Y-93525589D01*
X158318411Y-93379336D01*
X158203502Y-93207362D01*
X158124350Y-93016274D01*
X158084000Y-92813416D01*
X158084000Y-92606584D01*
X158124350Y-92403726D01*
X158203502Y-92212638D01*
X158318411Y-92040664D01*
X158464664Y-91894411D01*
X158636638Y-91779502D01*
X158827726Y-91700350D01*
X159008112Y-91664470D01*
X159030583Y-91660000D01*
X159237417Y-91660000D01*
X159259888Y-91664470D01*
X159259888Y-91664470D01*
G37*
G36*
X124845888Y-91664470D02*
X125026274Y-91700350D01*
X125217362Y-91779502D01*
X125389336Y-91894411D01*
X125535589Y-92040664D01*
X125650498Y-92212638D01*
X125729650Y-92403726D01*
X125770000Y-92606584D01*
X125770000Y-92813416D01*
X125729650Y-93016274D01*
X125650498Y-93207362D01*
X125535589Y-93379336D01*
X125389336Y-93525589D01*
X125217362Y-93640498D01*
X125026274Y-93719650D01*
X124845888Y-93755530D01*
X124823417Y-93760000D01*
X124616583Y-93760000D01*
X124594112Y-93755530D01*
X124413726Y-93719650D01*
X124222638Y-93640498D01*
X124050664Y-93525589D01*
X123904411Y-93379336D01*
X123789502Y-93207362D01*
X123710350Y-93016274D01*
X123670000Y-92813416D01*
X123670000Y-92606584D01*
X123710350Y-92403726D01*
X123789502Y-92212638D01*
X123904411Y-92040664D01*
X124050664Y-91894411D01*
X124222638Y-91779502D01*
X124413726Y-91700350D01*
X124594112Y-91664470D01*
X124616583Y-91660000D01*
X124823417Y-91660000D01*
X124845888Y-91664470D01*
X124845888Y-91664470D01*
G37*
G36*
X144091000Y-93164000D02*
X141659000Y-93164000D01*
X141659000Y-92256000D01*
X144091000Y-92256000D01*
X144091000Y-93164000D01*
X144091000Y-93164000D01*
G37*
G36*
X129486000Y-93164000D02*
X127054000Y-93164000D01*
X127054000Y-92256000D01*
X129486000Y-92256000D01*
X129486000Y-93164000D01*
X129486000Y-93164000D01*
G37*
G36*
X139646000Y-93164000D02*
X137214000Y-93164000D01*
X137214000Y-92256000D01*
X139646000Y-92256000D01*
X139646000Y-93164000D01*
X139646000Y-93164000D01*
G37*
G36*
X154251000Y-93164000D02*
X151819000Y-93164000D01*
X151819000Y-92256000D01*
X154251000Y-92256000D01*
X154251000Y-93164000D01*
X154251000Y-93164000D01*
G37*
G36*
X156459888Y-90394470D02*
X156640274Y-90430350D01*
X156831362Y-90509502D01*
X157003336Y-90624411D01*
X157149589Y-90770664D01*
X157264498Y-90942638D01*
X157343650Y-91133726D01*
X157384000Y-91336584D01*
X157384000Y-91543416D01*
X157343650Y-91746274D01*
X157264498Y-91937362D01*
X157149589Y-92109336D01*
X157003336Y-92255589D01*
X156831362Y-92370498D01*
X156640274Y-92449650D01*
X156459888Y-92485530D01*
X156437417Y-92490000D01*
X156230583Y-92490000D01*
X156208112Y-92485530D01*
X156027726Y-92449650D01*
X155836638Y-92370498D01*
X155664664Y-92255589D01*
X155518411Y-92109336D01*
X155403502Y-91937362D01*
X155324350Y-91746274D01*
X155284000Y-91543416D01*
X155284000Y-91336584D01*
X155324350Y-91133726D01*
X155403502Y-90942638D01*
X155518411Y-90770664D01*
X155664664Y-90624411D01*
X155836638Y-90509502D01*
X156027726Y-90430350D01*
X156208112Y-90394470D01*
X156230583Y-90390000D01*
X156437417Y-90390000D01*
X156459888Y-90394470D01*
X156459888Y-90394470D01*
G37*
G36*
X122045888Y-90394470D02*
X122226274Y-90430350D01*
X122417362Y-90509502D01*
X122589336Y-90624411D01*
X122735589Y-90770664D01*
X122850498Y-90942638D01*
X122929650Y-91133726D01*
X122970000Y-91336584D01*
X122970000Y-91543416D01*
X122929650Y-91746274D01*
X122850498Y-91937362D01*
X122735589Y-92109336D01*
X122589336Y-92255589D01*
X122417362Y-92370498D01*
X122226274Y-92449650D01*
X122045888Y-92485530D01*
X122023417Y-92490000D01*
X121816583Y-92490000D01*
X121794112Y-92485530D01*
X121613726Y-92449650D01*
X121422638Y-92370498D01*
X121250664Y-92255589D01*
X121104411Y-92109336D01*
X120989502Y-91937362D01*
X120910350Y-91746274D01*
X120870000Y-91543416D01*
X120870000Y-91336584D01*
X120910350Y-91133726D01*
X120989502Y-90942638D01*
X121104411Y-90770664D01*
X121250664Y-90624411D01*
X121422638Y-90509502D01*
X121613726Y-90430350D01*
X121794112Y-90394470D01*
X121816583Y-90390000D01*
X122023417Y-90390000D01*
X122045888Y-90394470D01*
X122045888Y-90394470D01*
G37*
G36*
X144091000Y-91894000D02*
X141659000Y-91894000D01*
X141659000Y-90986000D01*
X144091000Y-90986000D01*
X144091000Y-91894000D01*
X144091000Y-91894000D01*
G37*
G36*
X129486000Y-91894000D02*
X127054000Y-91894000D01*
X127054000Y-90986000D01*
X129486000Y-90986000D01*
X129486000Y-91894000D01*
X129486000Y-91894000D01*
G37*
G36*
X154251000Y-91894000D02*
X151819000Y-91894000D01*
X151819000Y-90986000D01*
X154251000Y-90986000D01*
X154251000Y-91894000D01*
X154251000Y-91894000D01*
G37*
G36*
X139646000Y-91894000D02*
X137214000Y-91894000D01*
X137214000Y-90986000D01*
X139646000Y-90986000D01*
X139646000Y-91894000D01*
X139646000Y-91894000D01*
G37*
G36*
X124845888Y-89124470D02*
X125026274Y-89160350D01*
X125217362Y-89239502D01*
X125389336Y-89354411D01*
X125535589Y-89500664D01*
X125650498Y-89672638D01*
X125729650Y-89863726D01*
X125770000Y-90066584D01*
X125770000Y-90273416D01*
X125729650Y-90476274D01*
X125650498Y-90667362D01*
X125535589Y-90839336D01*
X125389336Y-90985589D01*
X125217362Y-91100498D01*
X125026274Y-91179650D01*
X124845888Y-91215530D01*
X124823417Y-91220000D01*
X124616583Y-91220000D01*
X124594112Y-91215530D01*
X124413726Y-91179650D01*
X124222638Y-91100498D01*
X124050664Y-90985589D01*
X123904411Y-90839336D01*
X123789502Y-90667362D01*
X123710350Y-90476274D01*
X123670000Y-90273416D01*
X123670000Y-90066584D01*
X123710350Y-89863726D01*
X123789502Y-89672638D01*
X123904411Y-89500664D01*
X124050664Y-89354411D01*
X124222638Y-89239502D01*
X124413726Y-89160350D01*
X124594112Y-89124470D01*
X124616583Y-89120000D01*
X124823417Y-89120000D01*
X124845888Y-89124470D01*
X124845888Y-89124470D01*
G37*
G36*
X159259888Y-89124470D02*
X159440274Y-89160350D01*
X159631362Y-89239502D01*
X159803336Y-89354411D01*
X159949589Y-89500664D01*
X160064498Y-89672638D01*
X160143650Y-89863726D01*
X160184000Y-90066584D01*
X160184000Y-90273416D01*
X160143650Y-90476274D01*
X160064498Y-90667362D01*
X159949589Y-90839336D01*
X159803336Y-90985589D01*
X159631362Y-91100498D01*
X159440274Y-91179650D01*
X159259888Y-91215530D01*
X159237417Y-91220000D01*
X159030583Y-91220000D01*
X159008112Y-91215530D01*
X158827726Y-91179650D01*
X158636638Y-91100498D01*
X158464664Y-90985589D01*
X158318411Y-90839336D01*
X158203502Y-90667362D01*
X158124350Y-90476274D01*
X158084000Y-90273416D01*
X158084000Y-90066584D01*
X158124350Y-89863726D01*
X158203502Y-89672638D01*
X158318411Y-89500664D01*
X158464664Y-89354411D01*
X158636638Y-89239502D01*
X158827726Y-89160350D01*
X159008112Y-89124470D01*
X159030583Y-89120000D01*
X159237417Y-89120000D01*
X159259888Y-89124470D01*
X159259888Y-89124470D01*
G37*
G36*
X129486000Y-90624000D02*
X127054000Y-90624000D01*
X127054000Y-89716000D01*
X129486000Y-89716000D01*
X129486000Y-90624000D01*
X129486000Y-90624000D01*
G37*
G36*
X139646000Y-90624000D02*
X137214000Y-90624000D01*
X137214000Y-89716000D01*
X139646000Y-89716000D01*
X139646000Y-90624000D01*
X139646000Y-90624000D01*
G37*
G36*
X154251000Y-90624000D02*
X151819000Y-90624000D01*
X151819000Y-89716000D01*
X154251000Y-89716000D01*
X154251000Y-90624000D01*
X154251000Y-90624000D01*
G37*
G36*
X144091000Y-90624000D02*
X141659000Y-90624000D01*
X141659000Y-89716000D01*
X144091000Y-89716000D01*
X144091000Y-90624000D01*
X144091000Y-90624000D01*
G37*
G36*
X122045888Y-87854470D02*
X122226274Y-87890350D01*
X122417362Y-87969502D01*
X122589336Y-88084411D01*
X122735589Y-88230664D01*
X122850498Y-88402638D01*
X122929650Y-88593726D01*
X122970000Y-88796584D01*
X122970000Y-89003416D01*
X122929650Y-89206274D01*
X122850498Y-89397362D01*
X122735589Y-89569336D01*
X122589336Y-89715589D01*
X122417362Y-89830498D01*
X122226274Y-89909650D01*
X122045888Y-89945530D01*
X122023417Y-89950000D01*
X121816583Y-89950000D01*
X121794112Y-89945530D01*
X121613726Y-89909650D01*
X121422638Y-89830498D01*
X121250664Y-89715589D01*
X121104411Y-89569336D01*
X120989502Y-89397362D01*
X120910350Y-89206274D01*
X120870000Y-89003416D01*
X120870000Y-88796584D01*
X120910350Y-88593726D01*
X120989502Y-88402638D01*
X121104411Y-88230664D01*
X121250664Y-88084411D01*
X121422638Y-87969502D01*
X121613726Y-87890350D01*
X121794112Y-87854470D01*
X121816583Y-87850000D01*
X122023417Y-87850000D01*
X122045888Y-87854470D01*
X122045888Y-87854470D01*
G37*
G36*
X156459888Y-87854470D02*
X156640274Y-87890350D01*
X156831362Y-87969502D01*
X157003336Y-88084411D01*
X157149589Y-88230664D01*
X157264498Y-88402638D01*
X157343650Y-88593726D01*
X157384000Y-88796584D01*
X157384000Y-89003416D01*
X157343650Y-89206274D01*
X157264498Y-89397362D01*
X157149589Y-89569336D01*
X157003336Y-89715589D01*
X156831362Y-89830498D01*
X156640274Y-89909650D01*
X156459888Y-89945530D01*
X156437417Y-89950000D01*
X156230583Y-89950000D01*
X156208112Y-89945530D01*
X156027726Y-89909650D01*
X155836638Y-89830498D01*
X155664664Y-89715589D01*
X155518411Y-89569336D01*
X155403502Y-89397362D01*
X155324350Y-89206274D01*
X155284000Y-89003416D01*
X155284000Y-88796584D01*
X155324350Y-88593726D01*
X155403502Y-88402638D01*
X155518411Y-88230664D01*
X155664664Y-88084411D01*
X155836638Y-87969502D01*
X156027726Y-87890350D01*
X156208112Y-87854470D01*
X156230583Y-87850000D01*
X156437417Y-87850000D01*
X156459888Y-87854470D01*
X156459888Y-87854470D01*
G37*
G36*
X144091000Y-89354000D02*
X141659000Y-89354000D01*
X141659000Y-88446000D01*
X144091000Y-88446000D01*
X144091000Y-89354000D01*
X144091000Y-89354000D01*
G37*
G36*
X129486000Y-89354000D02*
X127054000Y-89354000D01*
X127054000Y-88446000D01*
X129486000Y-88446000D01*
X129486000Y-89354000D01*
X129486000Y-89354000D01*
G37*
G36*
X139646000Y-89354000D02*
X137214000Y-89354000D01*
X137214000Y-88446000D01*
X139646000Y-88446000D01*
X139646000Y-89354000D01*
X139646000Y-89354000D01*
G37*
G36*
X154251000Y-89354000D02*
X151819000Y-89354000D01*
X151819000Y-88446000D01*
X154251000Y-88446000D01*
X154251000Y-89354000D01*
X154251000Y-89354000D01*
G37*
G36*
X159259888Y-86584470D02*
X159440274Y-86620350D01*
X159631362Y-86699502D01*
X159803336Y-86814411D01*
X159949589Y-86960664D01*
X160064498Y-87132638D01*
X160143650Y-87323726D01*
X160184000Y-87526584D01*
X160184000Y-87733416D01*
X160143650Y-87936274D01*
X160064498Y-88127362D01*
X159949589Y-88299336D01*
X159803336Y-88445589D01*
X159631362Y-88560498D01*
X159440274Y-88639650D01*
X159259888Y-88675530D01*
X159237417Y-88680000D01*
X159030583Y-88680000D01*
X159008112Y-88675530D01*
X158827726Y-88639650D01*
X158636638Y-88560498D01*
X158464664Y-88445589D01*
X158318411Y-88299336D01*
X158203502Y-88127362D01*
X158124350Y-87936274D01*
X158084000Y-87733416D01*
X158084000Y-87526584D01*
X158124350Y-87323726D01*
X158203502Y-87132638D01*
X158318411Y-86960664D01*
X158464664Y-86814411D01*
X158636638Y-86699502D01*
X158827726Y-86620350D01*
X159008112Y-86584470D01*
X159030583Y-86580000D01*
X159237417Y-86580000D01*
X159259888Y-86584470D01*
X159259888Y-86584470D01*
G37*
G36*
X124845888Y-86584470D02*
X125026274Y-86620350D01*
X125217362Y-86699502D01*
X125389336Y-86814411D01*
X125535589Y-86960664D01*
X125650498Y-87132638D01*
X125729650Y-87323726D01*
X125770000Y-87526584D01*
X125770000Y-87733416D01*
X125729650Y-87936274D01*
X125650498Y-88127362D01*
X125535589Y-88299336D01*
X125389336Y-88445589D01*
X125217362Y-88560498D01*
X125026274Y-88639650D01*
X124845888Y-88675530D01*
X124823417Y-88680000D01*
X124616583Y-88680000D01*
X124594112Y-88675530D01*
X124413726Y-88639650D01*
X124222638Y-88560498D01*
X124050664Y-88445589D01*
X123904411Y-88299336D01*
X123789502Y-88127362D01*
X123710350Y-87936274D01*
X123670000Y-87733416D01*
X123670000Y-87526584D01*
X123710350Y-87323726D01*
X123789502Y-87132638D01*
X123904411Y-86960664D01*
X124050664Y-86814411D01*
X124222638Y-86699502D01*
X124413726Y-86620350D01*
X124594112Y-86584470D01*
X124616583Y-86580000D01*
X124823417Y-86580000D01*
X124845888Y-86584470D01*
X124845888Y-86584470D01*
G37*
G36*
X122045888Y-85314470D02*
X122226274Y-85350350D01*
X122417362Y-85429502D01*
X122589336Y-85544411D01*
X122735589Y-85690664D01*
X122850498Y-85862638D01*
X122929650Y-86053726D01*
X122970000Y-86256584D01*
X122970000Y-86463416D01*
X122929650Y-86666274D01*
X122850498Y-86857362D01*
X122735589Y-87029336D01*
X122589336Y-87175589D01*
X122417362Y-87290498D01*
X122226274Y-87369650D01*
X122045888Y-87405530D01*
X122023417Y-87410000D01*
X121816583Y-87410000D01*
X121794112Y-87405530D01*
X121613726Y-87369650D01*
X121422638Y-87290498D01*
X121250664Y-87175589D01*
X121104411Y-87029336D01*
X120989502Y-86857362D01*
X120910350Y-86666274D01*
X120870000Y-86463416D01*
X120870000Y-86256584D01*
X120910350Y-86053726D01*
X120989502Y-85862638D01*
X121104411Y-85690664D01*
X121250664Y-85544411D01*
X121422638Y-85429502D01*
X121613726Y-85350350D01*
X121794112Y-85314470D01*
X121816583Y-85310000D01*
X122023417Y-85310000D01*
X122045888Y-85314470D01*
X122045888Y-85314470D01*
G37*
G36*
X156459888Y-85314470D02*
X156640274Y-85350350D01*
X156831362Y-85429502D01*
X157003336Y-85544411D01*
X157149589Y-85690664D01*
X157264498Y-85862638D01*
X157343650Y-86053726D01*
X157384000Y-86256584D01*
X157384000Y-86463416D01*
X157343650Y-86666274D01*
X157264498Y-86857362D01*
X157149589Y-87029336D01*
X157003336Y-87175589D01*
X156831362Y-87290498D01*
X156640274Y-87369650D01*
X156459888Y-87405530D01*
X156437417Y-87410000D01*
X156230583Y-87410000D01*
X156208112Y-87405530D01*
X156027726Y-87369650D01*
X155836638Y-87290498D01*
X155664664Y-87175589D01*
X155518411Y-87029336D01*
X155403502Y-86857362D01*
X155324350Y-86666274D01*
X155284000Y-86463416D01*
X155284000Y-86256584D01*
X155324350Y-86053726D01*
X155403502Y-85862638D01*
X155518411Y-85690664D01*
X155664664Y-85544411D01*
X155836638Y-85429502D01*
X156027726Y-85350350D01*
X156208112Y-85314470D01*
X156230583Y-85310000D01*
X156437417Y-85310000D01*
X156459888Y-85314470D01*
X156459888Y-85314470D01*
G37*
G36*
X140670000Y-87185000D02*
X139270000Y-87185000D01*
X139270000Y-85535000D01*
X140670000Y-85535000D01*
X140670000Y-87185000D01*
X140670000Y-87185000D01*
G37*
G36*
X142670000Y-87185000D02*
X141270000Y-87185000D01*
X141270000Y-85535000D01*
X142670000Y-85535000D01*
X142670000Y-87185000D01*
X142670000Y-87185000D01*
G37*
G36*
X159259888Y-84044470D02*
X159440274Y-84080350D01*
X159631362Y-84159502D01*
X159803336Y-84274411D01*
X159949589Y-84420664D01*
X160064498Y-84592638D01*
X160143650Y-84783726D01*
X160184000Y-84986584D01*
X160184000Y-85193416D01*
X160143650Y-85396274D01*
X160064498Y-85587362D01*
X159949589Y-85759336D01*
X159803336Y-85905589D01*
X159631362Y-86020498D01*
X159440274Y-86099650D01*
X159259888Y-86135530D01*
X159237417Y-86140000D01*
X159030583Y-86140000D01*
X159008112Y-86135530D01*
X158827726Y-86099650D01*
X158636638Y-86020498D01*
X158464664Y-85905589D01*
X158318411Y-85759336D01*
X158203502Y-85587362D01*
X158124350Y-85396274D01*
X158084000Y-85193416D01*
X158084000Y-84986584D01*
X158124350Y-84783726D01*
X158203502Y-84592638D01*
X158318411Y-84420664D01*
X158464664Y-84274411D01*
X158636638Y-84159502D01*
X158827726Y-84080350D01*
X159008112Y-84044470D01*
X159030583Y-84040000D01*
X159237417Y-84040000D01*
X159259888Y-84044470D01*
X159259888Y-84044470D01*
G37*
G36*
X124845888Y-84044470D02*
X125026274Y-84080350D01*
X125217362Y-84159502D01*
X125389336Y-84274411D01*
X125535589Y-84420664D01*
X125650498Y-84592638D01*
X125729650Y-84783726D01*
X125770000Y-84986584D01*
X125770000Y-85193416D01*
X125729650Y-85396274D01*
X125650498Y-85587362D01*
X125535589Y-85759336D01*
X125389336Y-85905589D01*
X125217362Y-86020498D01*
X125026274Y-86099650D01*
X124845888Y-86135530D01*
X124823417Y-86140000D01*
X124616583Y-86140000D01*
X124594112Y-86135530D01*
X124413726Y-86099650D01*
X124222638Y-86020498D01*
X124050664Y-85905589D01*
X123904411Y-85759336D01*
X123789502Y-85587362D01*
X123710350Y-85396274D01*
X123670000Y-85193416D01*
X123670000Y-84986584D01*
X123710350Y-84783726D01*
X123789502Y-84592638D01*
X123904411Y-84420664D01*
X124050664Y-84274411D01*
X124222638Y-84159502D01*
X124413726Y-84080350D01*
X124594112Y-84044470D01*
X124616583Y-84040000D01*
X124823417Y-84040000D01*
X124845888Y-84044470D01*
X124845888Y-84044470D01*
G37*
G36*
X122045888Y-82774470D02*
X122226274Y-82810350D01*
X122417362Y-82889502D01*
X122589336Y-83004411D01*
X122735589Y-83150664D01*
X122850498Y-83322638D01*
X122929650Y-83513726D01*
X122970000Y-83716584D01*
X122970000Y-83923416D01*
X122929650Y-84126274D01*
X122850498Y-84317362D01*
X122735589Y-84489336D01*
X122589336Y-84635589D01*
X122417362Y-84750498D01*
X122226274Y-84829650D01*
X122045888Y-84865530D01*
X122023417Y-84870000D01*
X121816583Y-84870000D01*
X121794112Y-84865530D01*
X121613726Y-84829650D01*
X121422638Y-84750498D01*
X121250664Y-84635589D01*
X121104411Y-84489336D01*
X120989502Y-84317362D01*
X120910350Y-84126274D01*
X120870000Y-83923416D01*
X120870000Y-83716584D01*
X120910350Y-83513726D01*
X120989502Y-83322638D01*
X121104411Y-83150664D01*
X121250664Y-83004411D01*
X121422638Y-82889502D01*
X121613726Y-82810350D01*
X121794112Y-82774470D01*
X121816583Y-82770000D01*
X122023417Y-82770000D01*
X122045888Y-82774470D01*
X122045888Y-82774470D01*
G37*
G36*
X156459888Y-82774470D02*
X156640274Y-82810350D01*
X156831362Y-82889502D01*
X157003336Y-83004411D01*
X157149589Y-83150664D01*
X157264498Y-83322638D01*
X157343650Y-83513726D01*
X157384000Y-83716584D01*
X157384000Y-83923416D01*
X157343650Y-84126274D01*
X157264498Y-84317362D01*
X157149589Y-84489336D01*
X157003336Y-84635589D01*
X156831362Y-84750498D01*
X156640274Y-84829650D01*
X156459888Y-84865530D01*
X156437417Y-84870000D01*
X156230583Y-84870000D01*
X156208112Y-84865530D01*
X156027726Y-84829650D01*
X155836638Y-84750498D01*
X155664664Y-84635589D01*
X155518411Y-84489336D01*
X155403502Y-84317362D01*
X155324350Y-84126274D01*
X155284000Y-83923416D01*
X155284000Y-83716584D01*
X155324350Y-83513726D01*
X155403502Y-83322638D01*
X155518411Y-83150664D01*
X155664664Y-83004411D01*
X155836638Y-82889502D01*
X156027726Y-82810350D01*
X156208112Y-82774470D01*
X156230583Y-82770000D01*
X156437417Y-82770000D01*
X156459888Y-82774470D01*
X156459888Y-82774470D01*
G37*
G36*
X144970000Y-84000000D02*
X142020000Y-84000000D01*
X142020000Y-81100000D01*
X144970000Y-81100000D01*
X144970000Y-84000000D01*
X144970000Y-84000000D01*
G37*
G36*
X139920000Y-84000000D02*
X136970000Y-84000000D01*
X136970000Y-81100000D01*
X139920000Y-81100000D01*
X139920000Y-84000000D01*
X139920000Y-84000000D01*
G37*
G36*
X159259888Y-81504470D02*
X159440274Y-81540350D01*
X159631362Y-81619502D01*
X159803336Y-81734411D01*
X159949589Y-81880664D01*
X160064498Y-82052638D01*
X160143650Y-82243726D01*
X160184000Y-82446584D01*
X160184000Y-82653416D01*
X160143650Y-82856274D01*
X160064498Y-83047362D01*
X159949589Y-83219336D01*
X159803336Y-83365589D01*
X159631362Y-83480498D01*
X159440274Y-83559650D01*
X159259888Y-83595530D01*
X159237417Y-83600000D01*
X159030583Y-83600000D01*
X159008112Y-83595530D01*
X158827726Y-83559650D01*
X158636638Y-83480498D01*
X158464664Y-83365589D01*
X158318411Y-83219336D01*
X158203502Y-83047362D01*
X158124350Y-82856274D01*
X158084000Y-82653416D01*
X158084000Y-82446584D01*
X158124350Y-82243726D01*
X158203502Y-82052638D01*
X158318411Y-81880664D01*
X158464664Y-81734411D01*
X158636638Y-81619502D01*
X158827726Y-81540350D01*
X159008112Y-81504470D01*
X159030583Y-81500000D01*
X159237417Y-81500000D01*
X159259888Y-81504470D01*
X159259888Y-81504470D01*
G37*
G36*
X124845888Y-81504470D02*
X125026274Y-81540350D01*
X125217362Y-81619502D01*
X125389336Y-81734411D01*
X125535589Y-81880664D01*
X125650498Y-82052638D01*
X125729650Y-82243726D01*
X125770000Y-82446584D01*
X125770000Y-82653416D01*
X125729650Y-82856274D01*
X125650498Y-83047362D01*
X125535589Y-83219336D01*
X125389336Y-83365589D01*
X125217362Y-83480498D01*
X125026274Y-83559650D01*
X124845888Y-83595530D01*
X124823417Y-83600000D01*
X124616583Y-83600000D01*
X124594112Y-83595530D01*
X124413726Y-83559650D01*
X124222638Y-83480498D01*
X124050664Y-83365589D01*
X123904411Y-83219336D01*
X123789502Y-83047362D01*
X123710350Y-82856274D01*
X123670000Y-82653416D01*
X123670000Y-82446584D01*
X123710350Y-82243726D01*
X123789502Y-82052638D01*
X123904411Y-81880664D01*
X124050664Y-81734411D01*
X124222638Y-81619502D01*
X124413726Y-81540350D01*
X124594112Y-81504470D01*
X124616583Y-81500000D01*
X124823417Y-81500000D01*
X124845888Y-81504470D01*
X124845888Y-81504470D01*
G37*
G36*
X122045888Y-80234470D02*
X122226274Y-80270350D01*
X122417362Y-80349502D01*
X122589336Y-80464411D01*
X122735589Y-80610664D01*
X122850498Y-80782638D01*
X122929650Y-80973726D01*
X122970000Y-81176584D01*
X122970000Y-81383416D01*
X122929650Y-81586274D01*
X122850498Y-81777362D01*
X122735589Y-81949336D01*
X122589336Y-82095589D01*
X122417362Y-82210498D01*
X122226274Y-82289650D01*
X122045888Y-82325530D01*
X122023417Y-82330000D01*
X121816583Y-82330000D01*
X121794112Y-82325530D01*
X121613726Y-82289650D01*
X121422638Y-82210498D01*
X121250664Y-82095589D01*
X121104411Y-81949336D01*
X120989502Y-81777362D01*
X120910350Y-81586274D01*
X120870000Y-81383416D01*
X120870000Y-81176584D01*
X120910350Y-80973726D01*
X120989502Y-80782638D01*
X121104411Y-80610664D01*
X121250664Y-80464411D01*
X121422638Y-80349502D01*
X121613726Y-80270350D01*
X121794112Y-80234470D01*
X121816583Y-80230000D01*
X122023417Y-80230000D01*
X122045888Y-80234470D01*
X122045888Y-80234470D01*
G37*
G36*
X156459888Y-80234470D02*
X156640274Y-80270350D01*
X156831362Y-80349502D01*
X157003336Y-80464411D01*
X157149589Y-80610664D01*
X157264498Y-80782638D01*
X157343650Y-80973726D01*
X157384000Y-81176584D01*
X157384000Y-81383416D01*
X157343650Y-81586274D01*
X157264498Y-81777362D01*
X157149589Y-81949336D01*
X157003336Y-82095589D01*
X156831362Y-82210498D01*
X156640274Y-82289650D01*
X156459888Y-82325530D01*
X156437417Y-82330000D01*
X156230583Y-82330000D01*
X156208112Y-82325530D01*
X156027726Y-82289650D01*
X155836638Y-82210498D01*
X155664664Y-82095589D01*
X155518411Y-81949336D01*
X155403502Y-81777362D01*
X155324350Y-81586274D01*
X155284000Y-81383416D01*
X155284000Y-81176584D01*
X155324350Y-80973726D01*
X155403502Y-80782638D01*
X155518411Y-80610664D01*
X155664664Y-80464411D01*
X155836638Y-80349502D01*
X156027726Y-80270350D01*
X156208112Y-80234470D01*
X156230583Y-80230000D01*
X156437417Y-80230000D01*
X156459888Y-80234470D01*
X156459888Y-80234470D01*
G37*
G36*
X159259888Y-78964470D02*
X159440274Y-79000350D01*
X159631362Y-79079502D01*
X159803336Y-79194411D01*
X159949589Y-79340664D01*
X160064498Y-79512638D01*
X160143650Y-79703726D01*
X160184000Y-79906584D01*
X160184000Y-80113416D01*
X160143650Y-80316274D01*
X160064498Y-80507362D01*
X159949589Y-80679336D01*
X159803336Y-80825589D01*
X159631362Y-80940498D01*
X159440274Y-81019650D01*
X159259888Y-81055530D01*
X159237417Y-81060000D01*
X159030583Y-81060000D01*
X159008112Y-81055530D01*
X158827726Y-81019650D01*
X158636638Y-80940498D01*
X158464664Y-80825589D01*
X158318411Y-80679336D01*
X158203502Y-80507362D01*
X158124350Y-80316274D01*
X158084000Y-80113416D01*
X158084000Y-79906584D01*
X158124350Y-79703726D01*
X158203502Y-79512638D01*
X158318411Y-79340664D01*
X158464664Y-79194411D01*
X158636638Y-79079502D01*
X158827726Y-79000350D01*
X159008112Y-78964470D01*
X159030583Y-78960000D01*
X159237417Y-78960000D01*
X159259888Y-78964470D01*
X159259888Y-78964470D01*
G37*
G36*
X124845888Y-78964470D02*
X125026274Y-79000350D01*
X125217362Y-79079502D01*
X125389336Y-79194411D01*
X125535589Y-79340664D01*
X125650498Y-79512638D01*
X125729650Y-79703726D01*
X125770000Y-79906584D01*
X125770000Y-80113416D01*
X125729650Y-80316274D01*
X125650498Y-80507362D01*
X125535589Y-80679336D01*
X125389336Y-80825589D01*
X125217362Y-80940498D01*
X125026274Y-81019650D01*
X124845888Y-81055530D01*
X124823417Y-81060000D01*
X124616583Y-81060000D01*
X124594112Y-81055530D01*
X124413726Y-81019650D01*
X124222638Y-80940498D01*
X124050664Y-80825589D01*
X123904411Y-80679336D01*
X123789502Y-80507362D01*
X123710350Y-80316274D01*
X123670000Y-80113416D01*
X123670000Y-79906584D01*
X123710350Y-79703726D01*
X123789502Y-79512638D01*
X123904411Y-79340664D01*
X124050664Y-79194411D01*
X124222638Y-79079502D01*
X124413726Y-79000350D01*
X124594112Y-78964470D01*
X124616583Y-78960000D01*
X124823417Y-78960000D01*
X124845888Y-78964470D01*
X124845888Y-78964470D01*
G37*
G36*
X156459888Y-77694470D02*
X156640274Y-77730350D01*
X156831362Y-77809502D01*
X157003336Y-77924411D01*
X157149589Y-78070664D01*
X157264498Y-78242638D01*
X157343650Y-78433726D01*
X157384000Y-78636584D01*
X157384000Y-78843416D01*
X157343650Y-79046274D01*
X157264498Y-79237362D01*
X157149589Y-79409336D01*
X157003336Y-79555589D01*
X156831362Y-79670498D01*
X156640274Y-79749650D01*
X156459888Y-79785530D01*
X156437417Y-79790000D01*
X156230583Y-79790000D01*
X156208112Y-79785530D01*
X156027726Y-79749650D01*
X155836638Y-79670498D01*
X155664664Y-79555589D01*
X155518411Y-79409336D01*
X155403502Y-79237362D01*
X155324350Y-79046274D01*
X155284000Y-78843416D01*
X155284000Y-78636584D01*
X155324350Y-78433726D01*
X155403502Y-78242638D01*
X155518411Y-78070664D01*
X155664664Y-77924411D01*
X155836638Y-77809502D01*
X156027726Y-77730350D01*
X156208112Y-77694470D01*
X156230583Y-77690000D01*
X156437417Y-77690000D01*
X156459888Y-77694470D01*
X156459888Y-77694470D01*
G37*
G36*
X122045888Y-77694470D02*
X122226274Y-77730350D01*
X122417362Y-77809502D01*
X122589336Y-77924411D01*
X122735589Y-78070664D01*
X122850498Y-78242638D01*
X122929650Y-78433726D01*
X122970000Y-78636584D01*
X122970000Y-78843416D01*
X122929650Y-79046274D01*
X122850498Y-79237362D01*
X122735589Y-79409336D01*
X122589336Y-79555589D01*
X122417362Y-79670498D01*
X122226274Y-79749650D01*
X122045888Y-79785530D01*
X122023417Y-79790000D01*
X121816583Y-79790000D01*
X121794112Y-79785530D01*
X121613726Y-79749650D01*
X121422638Y-79670498D01*
X121250664Y-79555589D01*
X121104411Y-79409336D01*
X120989502Y-79237362D01*
X120910350Y-79046274D01*
X120870000Y-78843416D01*
X120870000Y-78636584D01*
X120910350Y-78433726D01*
X120989502Y-78242638D01*
X121104411Y-78070664D01*
X121250664Y-77924411D01*
X121422638Y-77809502D01*
X121613726Y-77730350D01*
X121794112Y-77694470D01*
X121816583Y-77690000D01*
X122023417Y-77690000D01*
X122045888Y-77694470D01*
X122045888Y-77694470D01*
G37*
G36*
X124845888Y-76424470D02*
X125026274Y-76460350D01*
X125217362Y-76539502D01*
X125389336Y-76654411D01*
X125535589Y-76800664D01*
X125650498Y-76972638D01*
X125729650Y-77163726D01*
X125770000Y-77366584D01*
X125770000Y-77573416D01*
X125729650Y-77776274D01*
X125650498Y-77967362D01*
X125535589Y-78139336D01*
X125389336Y-78285589D01*
X125217362Y-78400498D01*
X125026274Y-78479650D01*
X124845888Y-78515530D01*
X124823417Y-78520000D01*
X124616583Y-78520000D01*
X124594112Y-78515530D01*
X124413726Y-78479650D01*
X124222638Y-78400498D01*
X124050664Y-78285589D01*
X123904411Y-78139336D01*
X123789502Y-77967362D01*
X123710350Y-77776274D01*
X123670000Y-77573416D01*
X123670000Y-77366584D01*
X123710350Y-77163726D01*
X123789502Y-76972638D01*
X123904411Y-76800664D01*
X124050664Y-76654411D01*
X124222638Y-76539502D01*
X124413726Y-76460350D01*
X124594112Y-76424470D01*
X124616583Y-76420000D01*
X124823417Y-76420000D01*
X124845888Y-76424470D01*
X124845888Y-76424470D01*
G37*
G36*
X159259888Y-76424470D02*
X159440274Y-76460350D01*
X159631362Y-76539502D01*
X159803336Y-76654411D01*
X159949589Y-76800664D01*
X160064498Y-76972638D01*
X160143650Y-77163726D01*
X160184000Y-77366584D01*
X160184000Y-77573416D01*
X160143650Y-77776274D01*
X160064498Y-77967362D01*
X159949589Y-78139336D01*
X159803336Y-78285589D01*
X159631362Y-78400498D01*
X159440274Y-78479650D01*
X159259888Y-78515530D01*
X159237417Y-78520000D01*
X159030583Y-78520000D01*
X159008112Y-78515530D01*
X158827726Y-78479650D01*
X158636638Y-78400498D01*
X158464664Y-78285589D01*
X158318411Y-78139336D01*
X158203502Y-77967362D01*
X158124350Y-77776274D01*
X158084000Y-77573416D01*
X158084000Y-77366584D01*
X158124350Y-77163726D01*
X158203502Y-76972638D01*
X158318411Y-76800664D01*
X158464664Y-76654411D01*
X158636638Y-76539502D01*
X158827726Y-76460350D01*
X159008112Y-76424470D01*
X159030583Y-76420000D01*
X159237417Y-76420000D01*
X159259888Y-76424470D01*
X159259888Y-76424470D01*
G37*
G36*
X156459888Y-75154470D02*
X156640274Y-75190350D01*
X156831362Y-75269502D01*
X157003336Y-75384411D01*
X157149589Y-75530664D01*
X157264498Y-75702638D01*
X157343650Y-75893726D01*
X157384000Y-76096584D01*
X157384000Y-76303416D01*
X157343650Y-76506274D01*
X157264498Y-76697362D01*
X157149589Y-76869336D01*
X157003336Y-77015589D01*
X156831362Y-77130498D01*
X156640274Y-77209650D01*
X156459888Y-77245530D01*
X156437417Y-77250000D01*
X156230583Y-77250000D01*
X156208112Y-77245530D01*
X156027726Y-77209650D01*
X155836638Y-77130498D01*
X155664664Y-77015589D01*
X155518411Y-76869336D01*
X155403502Y-76697362D01*
X155324350Y-76506274D01*
X155284000Y-76303416D01*
X155284000Y-76096584D01*
X155324350Y-75893726D01*
X155403502Y-75702638D01*
X155518411Y-75530664D01*
X155664664Y-75384411D01*
X155836638Y-75269502D01*
X156027726Y-75190350D01*
X156208112Y-75154470D01*
X156230583Y-75150000D01*
X156437417Y-75150000D01*
X156459888Y-75154470D01*
X156459888Y-75154470D01*
G37*
G36*
X122045888Y-75154470D02*
X122226274Y-75190350D01*
X122417362Y-75269502D01*
X122589336Y-75384411D01*
X122735589Y-75530664D01*
X122850498Y-75702638D01*
X122929650Y-75893726D01*
X122970000Y-76096584D01*
X122970000Y-76303416D01*
X122929650Y-76506274D01*
X122850498Y-76697362D01*
X122735589Y-76869336D01*
X122589336Y-77015589D01*
X122417362Y-77130498D01*
X122226274Y-77209650D01*
X122045888Y-77245530D01*
X122023417Y-77250000D01*
X121816583Y-77250000D01*
X121794112Y-77245530D01*
X121613726Y-77209650D01*
X121422638Y-77130498D01*
X121250664Y-77015589D01*
X121104411Y-76869336D01*
X120989502Y-76697362D01*
X120910350Y-76506274D01*
X120870000Y-76303416D01*
X120870000Y-76096584D01*
X120910350Y-75893726D01*
X120989502Y-75702638D01*
X121104411Y-75530664D01*
X121250664Y-75384411D01*
X121422638Y-75269502D01*
X121613726Y-75190350D01*
X121794112Y-75154470D01*
X121816583Y-75150000D01*
X122023417Y-75150000D01*
X122045888Y-75154470D01*
X122045888Y-75154470D01*
G37*
M02*
